<?xml version="1.0" encoding="UTF-8" standalone="no"?>
<svg xmlns:xlink="http://www.w3.org/1999/xlink" height="32.05px" width="29.8px" xmlns="http://www.w3.org/2000/svg">
  <g transform="matrix(1, 0, 0, 1, -84.65, -55.3)">
    <path d="M105.3 60.45 Q105.3 62.6 103.8 64.05 102.3 65.55 100.2 65.55 98.05 65.55 96.55 64.05 95.05 62.6 95.05 60.45 95.05 58.3 96.55 56.8 98.05 55.3 100.2 55.3 102.3 55.3 103.8 56.8 105.3 58.3 105.3 60.45" fill="url(#gradient0)" fill-rule="evenodd" stroke="none"/>
    <path d="M96.25 63.9 Q96.25 65.75 94.95 67.05 93.65 68.35 91.8 68.35 89.95 68.35 88.65 67.05 87.35 65.75 87.35 63.9 87.35 62.05 88.65 60.75 89.95 59.45 91.8 59.45 93.65 59.45 94.95 60.75 96.25 62.05 96.25 63.9" fill="url(#gradient1)" fill-rule="evenodd" stroke="none"/>
    <path d="M92.65 72.25 Q92.65 73.9 91.5 75.1 90.3 76.25 88.65 76.25 87.0 76.25 85.85 75.1 84.65 73.9 84.65 72.25 84.65 70.6 85.85 69.45 87.0 68.25 88.65 68.25 90.3 68.25 91.5 69.45 92.65 70.6 92.65 72.25" fill="url(#gradient2)" fill-rule="evenodd" stroke="none"/>
    <path d="M95.6 80.6 Q95.6 82.2 94.5 83.3 93.4 84.4 91.8 84.4 90.25 84.4 89.15 83.3 88.05 82.15 88.05 80.6 88.05 79.05 89.15 77.95 90.25 76.85 91.8 76.85 93.35 76.85 94.5 77.95 95.6 79.05 95.6 80.6" fill="url(#gradient3)" fill-rule="evenodd" stroke="none"/>
    <path d="M103.45 84.1 Q103.45 85.45 102.5 86.4 101.55 87.35 100.2 87.35 98.8 87.35 97.85 86.4 96.9 85.45 96.9 84.1 96.9 82.75 97.85 81.8 98.8 80.8 100.2 80.8 101.55 80.8 102.5 81.8 103.45 82.75 103.45 84.1" fill="url(#gradient4)" fill-rule="evenodd" stroke="none"/>
    <path d="M111.55 80.6 Q111.55 81.85 110.65 82.75 109.8 83.65 108.55 83.65 107.3 83.65 106.4 82.75 105.5 81.9 105.5 80.6 105.5 79.35 106.4 78.5 107.3 77.6 108.55 77.6 109.8 77.6 110.65 78.5 111.55 79.35 111.55 80.6" fill="url(#gradient5)" fill-rule="evenodd" stroke="none"/>
    <path d="M114.45 72.25 Q114.45 73.25 113.75 74.0 113.0 74.7 112.0 74.7 111.0 74.7 110.25 74.0 109.55 73.25 109.55 72.25 109.55 71.25 110.25 70.5 111.0 69.8 112.0 69.8 113.0 69.8 113.75 70.5 114.45 71.25 114.45 72.25" fill="url(#gradient6)" fill-rule="evenodd" stroke="none"/>
    <path d="M110.55 63.9 Q110.55 64.75 109.95 65.35 109.35 65.95 108.55 65.95 107.7 65.95 107.1 65.35 106.5 64.75 106.5 63.9 106.5 63.05 107.1 62.5 107.7 61.9 108.55 61.9 109.4 61.9 109.95 62.5 110.55 63.1 110.55 63.9" fill="url(#gradient7)" fill-rule="evenodd" stroke="none"/>
  </g>
  <defs>
    <radialGradient cx="0" cy="0" gradientTransform="matrix(0.0062, 0.0, 0.0, -0.0062, 100.25, 60.45)" gradientUnits="userSpaceOnUse" id="gradient0" r="819.2" spreadMethod="pad">
      <stop offset="0.0" stop-color="#005773"/>
      <stop offset="0.16862745098039217" stop-color="#257088"/>
      <stop offset="0.5450980392156862" stop-color="#84aebc"/>
      <stop offset="1.0" stop-color="#ffffff"/>
    </radialGradient>
    <radialGradient cx="0" cy="0" gradientTransform="matrix(0.0054, 0.0, 0.0, -0.0054, 91.9, 63.9)" gradientUnits="userSpaceOnUse" id="gradient1" r="819.2" spreadMethod="pad">
      <stop offset="0.0" stop-color="#005773"/>
      <stop offset="0.16862745098039217" stop-color="#257088"/>
      <stop offset="0.5450980392156862" stop-color="#84aebc"/>
      <stop offset="1.0" stop-color="#ffffff"/>
    </radialGradient>
    <radialGradient cx="0" cy="0" gradientTransform="matrix(0.0049, 0.0, 0.0, -0.0049, 88.7, 72.25)" gradientUnits="userSpaceOnUse" id="gradient2" r="819.2" spreadMethod="pad">
      <stop offset="0.0" stop-color="#005773"/>
      <stop offset="0.16862745098039217" stop-color="#257088"/>
      <stop offset="0.5450980392156862" stop-color="#84aebc"/>
      <stop offset="1.0" stop-color="#ffffff"/>
    </radialGradient>
    <radialGradient cx="0" cy="0" gradientTransform="matrix(0.0046, 0.0, 0.0, -0.0046, 91.9, 80.6)" gradientUnits="userSpaceOnUse" id="gradient3" r="819.2" spreadMethod="pad">
      <stop offset="0.0" stop-color="#005773"/>
      <stop offset="0.16862745098039217" stop-color="#257088"/>
      <stop offset="0.5450980392156862" stop-color="#84aebc"/>
      <stop offset="1.0" stop-color="#ffffff"/>
    </radialGradient>
    <radialGradient cx="0" cy="0" gradientTransform="matrix(0.004, 0.0, 0.0, -0.004, 100.25, 84.1)" gradientUnits="userSpaceOnUse" id="gradient4" r="819.2" spreadMethod="pad">
      <stop offset="0.0" stop-color="#005773"/>
      <stop offset="0.16862745098039217" stop-color="#257088"/>
      <stop offset="0.5450980392156862" stop-color="#84aebc"/>
      <stop offset="1.0" stop-color="#ffffff"/>
    </radialGradient>
    <radialGradient cx="0" cy="0" gradientTransform="matrix(0.0037, 0.0, 0.0, -0.0037, 108.6, 80.6)" gradientUnits="userSpaceOnUse" id="gradient5" r="819.2" spreadMethod="pad">
      <stop offset="0.0" stop-color="#005773"/>
      <stop offset="0.16862745098039217" stop-color="#257088"/>
      <stop offset="0.5450980392156862" stop-color="#84aebc"/>
      <stop offset="1.0" stop-color="#ffffff"/>
    </radialGradient>
    <radialGradient cx="0" cy="0" gradientTransform="matrix(0.003, 0.0, 0.0, -0.003, 112.05, 72.25)" gradientUnits="userSpaceOnUse" id="gradient6" r="819.2" spreadMethod="pad">
      <stop offset="0.0" stop-color="#005773"/>
      <stop offset="0.16862745098039217" stop-color="#257088"/>
      <stop offset="0.5450980392156862" stop-color="#84aebc"/>
      <stop offset="1.0" stop-color="#ffffff"/>
    </radialGradient>
    <radialGradient cx="0" cy="0" gradientTransform="matrix(0.0025, 0.0, 0.0, -0.0025, 108.55, 63.9)" gradientUnits="userSpaceOnUse" id="gradient7" r="819.2" spreadMethod="pad">
      <stop offset="0.0" stop-color="#005773"/>
      <stop offset="0.16862745098039217" stop-color="#257088"/>
      <stop offset="0.5450980392156862" stop-color="#84aebc"/>
      <stop offset="1.0" stop-color="#ffffff"/>
    </radialGradient>
  </defs>
</svg>
