<?xml version="1.0" encoding="UTF-8" standalone="no"?>
<svg xmlns:xlink="http://www.w3.org/1999/xlink" height="31.1px" width="29.4px" xmlns="http://www.w3.org/2000/svg">
  <g transform="matrix(1, 0, 0, 1, -84.65, -55.9)">
    <path d="M112.2 67.45 Q110.7 68.95 108.6 68.95 106.5 68.95 105.0 67.45 103.5 65.9 103.45 63.8 103.45 61.7 104.95 60.2 106.5 58.65 108.6 58.65 110.75 58.65 112.25 60.2 113.75 61.7 113.75 63.8 113.75 65.9 112.2 67.45" fill="url(#gradient0)" fill-rule="evenodd" stroke="none"/>
    <path d="M103.35 63.5 Q102.05 64.8 100.25 64.8 98.35 64.8 97.05 63.5 95.75 62.2 95.8 60.35 95.75 58.5 97.05 57.2 98.4 55.85 100.25 55.9 102.05 55.9 103.35 57.2 104.65 58.5 104.7 60.35 104.7 62.15 103.35 63.5" fill="url(#gradient1)" fill-rule="evenodd" stroke="none"/>
    <path d="M94.9 66.85 Q93.75 68.0 92.1 68.05 90.45 68.0 89.3 66.85 88.1 65.65 88.1 64.05 88.1 62.35 89.25 61.2 90.45 60.0 92.1 60.05 93.75 60.0 94.95 61.2 96.1 62.35 96.1 64.05 96.1 65.65 94.9 66.85" fill="url(#gradient2)" fill-rule="evenodd" stroke="none"/>
    <path d="M91.1 74.85 Q90.0 75.95 88.4 75.95 86.85 76.0 85.7 74.85 84.6 73.75 84.65 72.2 84.65 70.6 85.75 69.5 86.85 68.4 88.45 68.4 89.95 68.4 91.05 69.5 92.15 70.6 92.2 72.15 92.2 73.75 91.1 74.85" fill="url(#gradient3)" fill-rule="evenodd" stroke="none"/>
    <path d="M94.2 82.85 Q93.25 83.8 91.85 83.8 90.55 83.8 89.6 82.85 88.6 81.85 88.6 80.55 88.6 79.15 89.55 78.2 90.5 77.25 91.85 77.3 93.2 77.25 94.2 78.25 95.15 79.2 95.1 80.55 95.15 81.9 94.2 82.85" fill="url(#gradient4)" fill-rule="evenodd" stroke="none"/>
    <path d="M102.35 86.1 Q101.5 86.95 100.25 87.0 99.0 87.05 98.1 86.15 97.2 85.25 97.25 84.0 97.2 82.75 98.1 81.85 99.0 80.95 100.25 81.0 101.5 80.95 102.4 81.85 103.3 82.75 103.25 84.0 103.25 85.2 102.35 86.1" fill="url(#gradient5)" fill-rule="evenodd" stroke="none"/>
    <path d="M110.3 82.25 Q109.6 82.95 108.65 83.0 107.6 82.95 106.9 82.25 106.2 81.55 106.15 80.5 106.15 79.5 106.85 78.8 107.55 78.1 108.6 78.05 109.65 78.1 110.35 78.8 111.05 79.5 111.1 80.55 111.0 81.55 110.3 82.25" fill="url(#gradient6)" fill-rule="evenodd" stroke="none"/>
    <path d="M113.45 73.6 Q112.85 74.2 112.05 74.2 111.15 74.2 110.6 73.65 110.0 73.05 110.0 72.15 110.0 71.35 110.6 70.75 111.2 70.15 112.0 70.15 112.9 70.15 113.5 70.75 114.1 71.35 114.05 72.2 114.05 73.0 113.45 73.6" fill="url(#gradient7)" fill-rule="evenodd" stroke="none"/>
  </g>
  <defs>
    <radialGradient cx="0" cy="0" gradientTransform="matrix(0.0044, 0.0044, 0.0044, -0.0044, 108.65, 63.9)" gradientUnits="userSpaceOnUse" id="gradient0" r="819.2" spreadMethod="pad">
      <stop offset="0.0" stop-color="#005773"/>
      <stop offset="0.16862745098039217" stop-color="#257088"/>
      <stop offset="0.5450980392156862" stop-color="#84aebc"/>
      <stop offset="1.0" stop-color="#ffffff"/>
    </radialGradient>
    <radialGradient cx="0" cy="0" gradientTransform="matrix(0.0038, 0.0038, 0.0038, -0.0038, 100.3, 60.45)" gradientUnits="userSpaceOnUse" id="gradient1" r="819.2" spreadMethod="pad">
      <stop offset="0.0" stop-color="#005773"/>
      <stop offset="0.16862745098039217" stop-color="#257088"/>
      <stop offset="0.5450980392156862" stop-color="#84aebc"/>
      <stop offset="1.0" stop-color="#ffffff"/>
    </radialGradient>
    <radialGradient cx="0" cy="0" gradientTransform="matrix(0.0034, 0.0034, 0.0034, -0.0034, 92.1, 64.05)" gradientUnits="userSpaceOnUse" id="gradient2" r="819.2" spreadMethod="pad">
      <stop offset="0.0" stop-color="#005773"/>
      <stop offset="0.16862745098039217" stop-color="#257088"/>
      <stop offset="0.5450980392156862" stop-color="#84aebc"/>
      <stop offset="1.0" stop-color="#ffffff"/>
    </radialGradient>
    <radialGradient cx="0" cy="0" gradientTransform="matrix(0.0033, 0.0033, 0.0033, -0.0033, 88.5, 72.25)" gradientUnits="userSpaceOnUse" id="gradient3" r="819.2" spreadMethod="pad">
      <stop offset="0.0" stop-color="#005773"/>
      <stop offset="0.16862745098039217" stop-color="#257088"/>
      <stop offset="0.5450980392156862" stop-color="#84aebc"/>
      <stop offset="1.0" stop-color="#ffffff"/>
    </radialGradient>
    <radialGradient cx="0" cy="0" gradientTransform="matrix(0.0028, 0.0028, 0.0028, -0.0028, 91.95, 80.6)" gradientUnits="userSpaceOnUse" id="gradient4" r="819.2" spreadMethod="pad">
      <stop offset="0.0" stop-color="#005773"/>
      <stop offset="0.16862745098039217" stop-color="#257088"/>
      <stop offset="0.5450980392156862" stop-color="#84aebc"/>
      <stop offset="1.0" stop-color="#ffffff"/>
    </radialGradient>
    <radialGradient cx="0" cy="0" gradientTransform="matrix(0.0026, 0.0026, 0.0026, -0.0026, 100.3, 84.05)" gradientUnits="userSpaceOnUse" id="gradient5" r="819.2" spreadMethod="pad">
      <stop offset="0.0" stop-color="#005773"/>
      <stop offset="0.16862745098039217" stop-color="#257088"/>
      <stop offset="0.5450980392156862" stop-color="#84aebc"/>
      <stop offset="1.0" stop-color="#ffffff"/>
    </radialGradient>
    <radialGradient cx="0" cy="0" gradientTransform="matrix(0.0021, 0.0021, 0.0021, -0.0021, 108.6, 80.55)" gradientUnits="userSpaceOnUse" id="gradient6" r="819.2" spreadMethod="pad">
      <stop offset="0.0" stop-color="#005773"/>
      <stop offset="0.16862745098039217" stop-color="#257088"/>
      <stop offset="0.5450980392156862" stop-color="#84aebc"/>
      <stop offset="1.0" stop-color="#ffffff"/>
    </radialGradient>
    <radialGradient cx="0" cy="0" gradientTransform="matrix(0.0017, 0.0017, 0.0017, -0.0017, 112.05, 72.2)" gradientUnits="userSpaceOnUse" id="gradient7" r="819.2" spreadMethod="pad">
      <stop offset="0.0" stop-color="#005773"/>
      <stop offset="0.16862745098039217" stop-color="#257088"/>
      <stop offset="0.5450980392156862" stop-color="#84aebc"/>
      <stop offset="1.0" stop-color="#ffffff"/>
    </radialGradient>
  </defs>
</svg>
