<?xml version="1.0" encoding="UTF-8" standalone="no"?>
<svg xmlns:xlink="http://www.w3.org/1999/xlink" height="29.8px" width="32.05px" xmlns="http://www.w3.org/2000/svg">
  <g transform="matrix(1, 0, 0, 1, -85.2, -56.7)">
    <path d="M112.1 77.35 Q109.95 77.35 108.5 75.85 107.0 74.35 107.0 72.25 107.0 70.1 108.5 68.6 109.95 67.1 112.1 67.1 114.25 67.1 115.75 68.6 117.25 70.1 117.25 72.25 117.25 74.35 115.75 75.85 114.25 77.35 112.1 77.35" fill="url(#gradient0)" fill-rule="evenodd" stroke="none"/>
    <path d="M108.65 68.3 Q106.8 68.3 105.5 67.0 104.2 65.7 104.2 63.85 104.2 62.0 105.5 60.7 106.8 59.4 108.65 59.4 110.5 59.4 111.8 60.7 113.1 62.0 113.1 63.85 113.1 65.7 111.8 67.0 110.5 68.3 108.65 68.3" fill="url(#gradient1)" fill-rule="evenodd" stroke="none"/>
    <path d="M100.3 64.7 Q98.65 64.7 97.45 63.55 96.3 62.35 96.3 60.7 96.3 59.05 97.45 57.9 98.65 56.7 100.3 56.7 101.95 56.7 103.1 57.9 104.3 59.05 104.3 60.7 104.3 62.35 103.1 63.55 101.95 64.7 100.3 64.7" fill="url(#gradient2)" fill-rule="evenodd" stroke="none"/>
    <path d="M91.95 67.65 Q90.35 67.65 89.25 66.55 88.15 65.45 88.15 63.85 88.15 62.3 89.25 61.2 90.4 60.1 91.95 60.1 93.5 60.1 94.6 61.2 95.7 62.3 95.7 63.85 95.7 65.4 94.6 66.55 93.5 67.65 91.95 67.65" fill="url(#gradient3)" fill-rule="evenodd" stroke="none"/>
    <path d="M88.45 75.5 Q87.1 75.5 86.15 74.55 85.2 73.6 85.2 72.25 85.2 70.85 86.15 69.9 87.1 68.95 88.45 68.95 89.8 68.95 90.75 69.9 91.75 70.85 91.75 72.25 91.75 73.6 90.75 74.55 89.8 75.5 88.45 75.5" fill="url(#gradient4)" fill-rule="evenodd" stroke="none"/>
    <path d="M91.95 83.6 Q90.7 83.6 89.8 82.7 88.9 81.85 88.9 80.6 88.9 79.35 89.8 78.45 90.65 77.55 91.95 77.55 93.2 77.55 94.05 78.45 94.95 79.35 94.95 80.6 94.95 81.85 94.05 82.7 93.2 83.6 91.95 83.6" fill="url(#gradient5)" fill-rule="evenodd" stroke="none"/>
    <path d="M100.3 86.5 Q99.3 86.5 98.55 85.8 97.85 85.05 97.85 84.05 97.85 83.05 98.55 82.3 99.3 81.6 100.3 81.6 101.3 81.6 102.05 82.3 102.75 83.05 102.75 84.05 102.75 85.05 102.05 85.8 101.3 86.5 100.3 86.5" fill="url(#gradient6)" fill-rule="evenodd" stroke="none"/>
    <path d="M108.65 82.6 Q107.8 82.6 107.2 82.0 106.6 81.4 106.6 80.6 106.6 79.75 107.2 79.15 107.8 78.55 108.65 78.55 109.5 78.55 110.05 79.15 110.65 79.75 110.65 80.6 110.65 81.45 110.05 82.0 109.45 82.6 108.65 82.6" fill="url(#gradient7)" fill-rule="evenodd" stroke="none"/>
  </g>
  <defs>
    <radialGradient cx="0" cy="0" gradientTransform="matrix(0.0, 0.0062, 0.0062, 0.0, 112.1, 72.3)" gradientUnits="userSpaceOnUse" id="gradient0" r="819.2" spreadMethod="pad">
      <stop offset="0.0" stop-color="#005773"/>
      <stop offset="0.16862745098039217" stop-color="#257088"/>
      <stop offset="0.5450980392156862" stop-color="#84aebc"/>
      <stop offset="1.0" stop-color="#ffffff"/>
    </radialGradient>
    <radialGradient cx="0" cy="0" gradientTransform="matrix(0.0, 0.0054, 0.0054, 0.0, 108.65, 63.95)" gradientUnits="userSpaceOnUse" id="gradient1" r="819.2" spreadMethod="pad">
      <stop offset="0.0" stop-color="#005773"/>
      <stop offset="0.16862745098039217" stop-color="#257088"/>
      <stop offset="0.5450980392156862" stop-color="#84aebc"/>
      <stop offset="1.0" stop-color="#ffffff"/>
    </radialGradient>
    <radialGradient cx="0" cy="0" gradientTransform="matrix(0.0, 0.0049, 0.0049, 0.0, 100.3, 60.75)" gradientUnits="userSpaceOnUse" id="gradient2" r="819.2" spreadMethod="pad">
      <stop offset="0.0" stop-color="#005773"/>
      <stop offset="0.16862745098039217" stop-color="#257088"/>
      <stop offset="0.5450980392156862" stop-color="#84aebc"/>
      <stop offset="1.0" stop-color="#ffffff"/>
    </radialGradient>
    <radialGradient cx="0" cy="0" gradientTransform="matrix(0.0, 0.0046, 0.0046, 0.0, 91.95, 63.95)" gradientUnits="userSpaceOnUse" id="gradient3" r="819.2" spreadMethod="pad">
      <stop offset="0.0" stop-color="#005773"/>
      <stop offset="0.16862745098039217" stop-color="#257088"/>
      <stop offset="0.5450980392156862" stop-color="#84aebc"/>
      <stop offset="1.0" stop-color="#ffffff"/>
    </radialGradient>
    <radialGradient cx="0" cy="0" gradientTransform="matrix(0.0, 0.004, 0.004, 0.0, 88.45, 72.3)" gradientUnits="userSpaceOnUse" id="gradient4" r="819.2" spreadMethod="pad">
      <stop offset="0.0" stop-color="#005773"/>
      <stop offset="0.16862745098039217" stop-color="#257088"/>
      <stop offset="0.5450980392156862" stop-color="#84aebc"/>
      <stop offset="1.0" stop-color="#ffffff"/>
    </radialGradient>
    <radialGradient cx="0" cy="0" gradientTransform="matrix(0.0, 0.0037, 0.0037, 0.0, 91.95, 80.65)" gradientUnits="userSpaceOnUse" id="gradient5" r="819.2" spreadMethod="pad">
      <stop offset="0.0" stop-color="#005773"/>
      <stop offset="0.16862745098039217" stop-color="#257088"/>
      <stop offset="0.5450980392156862" stop-color="#84aebc"/>
      <stop offset="1.0" stop-color="#ffffff"/>
    </radialGradient>
    <radialGradient cx="0" cy="0" gradientTransform="matrix(0.0, 0.003, 0.003, 0.0, 100.3, 84.1)" gradientUnits="userSpaceOnUse" id="gradient6" r="819.2" spreadMethod="pad">
      <stop offset="0.0" stop-color="#005773"/>
      <stop offset="0.16862745098039217" stop-color="#257088"/>
      <stop offset="0.5450980392156862" stop-color="#84aebc"/>
      <stop offset="1.0" stop-color="#ffffff"/>
    </radialGradient>
    <radialGradient cx="0" cy="0" gradientTransform="matrix(0.0, 0.0025, 0.0025, 0.0, 108.65, 80.6)" gradientUnits="userSpaceOnUse" id="gradient7" r="819.2" spreadMethod="pad">
      <stop offset="0.0" stop-color="#005773"/>
      <stop offset="0.16862745098039217" stop-color="#257088"/>
      <stop offset="0.5450980392156862" stop-color="#84aebc"/>
      <stop offset="1.0" stop-color="#ffffff"/>
    </radialGradient>
  </defs>
</svg>
