<?xml version="1.0" encoding="UTF-8" standalone="no"?>
<svg xmlns:xlink="http://www.w3.org/1999/xlink" height="29.4px" width="31.1px" xmlns="http://www.w3.org/2000/svg">
  <g transform="matrix(1, 0, 0, 1, -85.5, -56.7)">
    <path d="M105.05 84.25 Q103.55 82.75 103.55 80.65 103.55 78.55 105.05 77.05 106.6 75.55 108.7 75.5 110.8 75.5 112.3 77.0 113.85 78.55 113.85 80.65 113.85 82.8 112.3 84.3 110.8 85.8 108.7 85.8 106.6 85.8 105.05 84.25" fill="url(#gradient0)" fill-rule="evenodd" stroke="none"/>
    <path d="M109.0 75.4 Q107.7 74.1 107.7 72.3 107.7 70.4 109.0 69.1 110.3 67.8 112.15 67.85 114.0 67.8 115.3 69.1 116.65 70.45 116.6 72.3 116.6 74.1 115.3 75.4 114.0 76.7 112.15 76.75 110.35 76.75 109.0 75.4" fill="url(#gradient1)" fill-rule="evenodd" stroke="none"/>
    <path d="M105.65 66.95 Q104.5 65.8 104.45 64.15 104.5 62.5 105.65 61.35 106.85 60.15 108.45 60.15 110.15 60.15 111.3 61.3 112.5 62.5 112.45 64.15 112.5 65.8 111.3 67.0 110.15 68.15 108.45 68.15 106.85 68.15 105.65 66.95" fill="url(#gradient2)" fill-rule="evenodd" stroke="none"/>
    <path d="M97.65 63.15 Q96.55 62.05 96.55 60.45 96.5 58.9 97.65 57.75 98.75 56.65 100.3 56.7 101.9 56.7 103.0 57.8 104.1 58.9 104.1 60.5 104.1 62.0 103.0 63.1 101.9 64.2 100.35 64.25 98.75 64.25 97.65 63.15" fill="url(#gradient3)" fill-rule="evenodd" stroke="none"/>
    <path d="M89.65 66.25 Q88.7 65.3 88.7 63.9 88.7 62.6 89.65 61.65 90.65 60.65 91.95 60.65 93.35 60.65 94.3 61.6 95.25 62.55 95.2 63.9 95.25 65.25 94.25 66.25 93.3 67.2 91.95 67.15 90.6 67.2 89.65 66.25" fill="url(#gradient4)" fill-rule="evenodd" stroke="none"/>
    <path d="M86.4 74.4 Q85.55 73.55 85.5 72.3 85.45 71.05 86.35 70.15 87.25 69.25 88.5 69.3 89.75 69.25 90.65 70.15 91.55 71.05 91.5 72.3 91.55 73.55 90.65 74.45 89.75 75.35 88.5 75.3 87.3 75.3 86.4 74.4" fill="url(#gradient5)" fill-rule="evenodd" stroke="none"/>
    <path d="M90.25 82.35 Q89.55 81.65 89.5 80.7 89.55 79.65 90.25 78.95 90.95 78.25 92.0 78.2 93.0 78.2 93.7 78.9 94.4 79.6 94.45 80.65 94.4 81.7 93.7 82.4 93.0 83.1 91.95 83.15 90.95 83.05 90.25 82.35" fill="url(#gradient6)" fill-rule="evenodd" stroke="none"/>
    <path d="M98.9 85.5 Q98.3 84.9 98.3 84.1 98.3 83.2 98.85 82.65 99.45 82.05 100.35 82.05 101.15 82.05 101.75 82.65 102.35 83.25 102.35 84.05 102.35 84.95 101.75 85.55 101.15 86.15 100.3 86.1 99.5 86.1 98.9 85.5" fill="url(#gradient7)" fill-rule="evenodd" stroke="none"/>
  </g>
  <defs>
    <radialGradient cx="0" cy="0" gradientTransform="matrix(-0.0044, 0.0044, 0.0044, 0.0044, 108.6, 80.7)" gradientUnits="userSpaceOnUse" id="gradient0" r="819.2" spreadMethod="pad">
      <stop offset="0.0" stop-color="#005773"/>
      <stop offset="0.16862745098039217" stop-color="#257088"/>
      <stop offset="0.5450980392156862" stop-color="#84aebc"/>
      <stop offset="1.0" stop-color="#ffffff"/>
    </radialGradient>
    <radialGradient cx="0" cy="0" gradientTransform="matrix(-0.0038, 0.0038, 0.0038, 0.0038, 112.05, 72.35)" gradientUnits="userSpaceOnUse" id="gradient1" r="819.2" spreadMethod="pad">
      <stop offset="0.0" stop-color="#005773"/>
      <stop offset="0.16862745098039217" stop-color="#257088"/>
      <stop offset="0.5450980392156862" stop-color="#84aebc"/>
      <stop offset="1.0" stop-color="#ffffff"/>
    </radialGradient>
    <radialGradient cx="0" cy="0" gradientTransform="matrix(-0.0034, 0.0034, 0.0034, 0.0034, 108.45, 64.15)" gradientUnits="userSpaceOnUse" id="gradient2" r="819.2" spreadMethod="pad">
      <stop offset="0.0" stop-color="#005773"/>
      <stop offset="0.16862745098039217" stop-color="#257088"/>
      <stop offset="0.5450980392156862" stop-color="#84aebc"/>
      <stop offset="1.0" stop-color="#ffffff"/>
    </radialGradient>
    <radialGradient cx="0" cy="0" gradientTransform="matrix(-0.0033, 0.0033, 0.0033, 0.0033, 100.25, 60.55)" gradientUnits="userSpaceOnUse" id="gradient3" r="819.2" spreadMethod="pad">
      <stop offset="0.0" stop-color="#005773"/>
      <stop offset="0.16862745098039217" stop-color="#257088"/>
      <stop offset="0.5450980392156862" stop-color="#84aebc"/>
      <stop offset="1.0" stop-color="#ffffff"/>
    </radialGradient>
    <radialGradient cx="0" cy="0" gradientTransform="matrix(-0.0028, 0.0028, 0.0028, 0.0028, 91.9, 64.0)" gradientUnits="userSpaceOnUse" id="gradient4" r="819.2" spreadMethod="pad">
      <stop offset="0.0" stop-color="#005773"/>
      <stop offset="0.16862745098039217" stop-color="#257088"/>
      <stop offset="0.5450980392156862" stop-color="#84aebc"/>
      <stop offset="1.0" stop-color="#ffffff"/>
    </radialGradient>
    <radialGradient cx="0" cy="0" gradientTransform="matrix(-0.0026, 0.0026, 0.0026, 0.0026, 88.45, 72.35)" gradientUnits="userSpaceOnUse" id="gradient5" r="819.2" spreadMethod="pad">
      <stop offset="0.0" stop-color="#005773"/>
      <stop offset="0.16862745098039217" stop-color="#257088"/>
      <stop offset="0.5450980392156862" stop-color="#84aebc"/>
      <stop offset="1.0" stop-color="#ffffff"/>
    </radialGradient>
    <radialGradient cx="0" cy="0" gradientTransform="matrix(-0.0021, 0.0021, 0.0021, 0.0021, 91.95, 80.65)" gradientUnits="userSpaceOnUse" id="gradient6" r="819.2" spreadMethod="pad">
      <stop offset="0.0" stop-color="#005773"/>
      <stop offset="0.16862745098039217" stop-color="#257088"/>
      <stop offset="0.5450980392156862" stop-color="#84aebc"/>
      <stop offset="1.0" stop-color="#ffffff"/>
    </radialGradient>
    <radialGradient cx="0" cy="0" gradientTransform="matrix(-0.0017, 0.0017, 0.0017, 0.0017, 100.3, 84.1)" gradientUnits="userSpaceOnUse" id="gradient7" r="819.2" spreadMethod="pad">
      <stop offset="0.0" stop-color="#005773"/>
      <stop offset="0.16862745098039217" stop-color="#257088"/>
      <stop offset="0.5450980392156862" stop-color="#84aebc"/>
      <stop offset="1.0" stop-color="#ffffff"/>
    </radialGradient>
  </defs>
</svg>
