<?xml version="1.0" encoding="UTF-8" standalone="no"?>
<svg xmlns:xlink="http://www.w3.org/1999/xlink" height="32.05px" width="29.8px" xmlns="http://www.w3.org/2000/svg">
  <g transform="matrix(1, 0, 0, 1, -86.0, -57.2)">
    <path d="M95.15 84.1 Q95.15 81.95 96.65 80.5 98.15 79.0 100.25 79.0 102.4 79.0 103.9 80.5 105.4 81.95 105.4 84.1 105.4 86.25 103.9 87.75 102.4 89.25 100.25 89.25 98.15 89.25 96.65 87.75 95.15 86.25 95.15 84.1" fill="url(#gradient0)" fill-rule="evenodd" stroke="none"/>
    <path d="M104.2 80.65 Q104.2 78.8 105.5 77.5 106.8 76.2 108.65 76.2 110.5 76.2 111.8 77.5 113.1 78.8 113.1 80.65 113.1 82.5 111.8 83.8 110.5 85.1 108.65 85.1 106.8 85.1 105.5 83.8 104.2 82.5 104.2 80.65" fill="url(#gradient1)" fill-rule="evenodd" stroke="none"/>
    <path d="M107.8 72.3 Q107.8 70.65 108.95 69.45 110.15 68.3 111.8 68.3 113.45 68.3 114.6 69.45 115.8 70.65 115.8 72.3 115.8 73.95 114.6 75.1 113.45 76.3 111.8 76.3 110.15 76.3 108.95 75.1 107.8 73.95 107.8 72.3" fill="url(#gradient2)" fill-rule="evenodd" stroke="none"/>
    <path d="M104.85 63.95 Q104.85 62.35 105.95 61.25 107.05 60.15 108.65 60.15 110.2 60.15 111.3 61.25 112.4 62.4 112.4 63.95 112.4 65.5 111.3 66.6 110.2 67.7 108.65 67.7 107.1 67.7 105.95 66.6 104.85 65.5 104.85 63.95" fill="url(#gradient3)" fill-rule="evenodd" stroke="none"/>
    <path d="M97.0 60.45 Q97.0 59.1 97.95 58.15 98.9 57.2 100.25 57.2 101.65 57.2 102.6 58.15 103.55 59.1 103.55 60.45 103.55 61.8 102.6 62.75 101.65 63.75 100.25 63.75 98.9 63.75 97.95 62.75 97.0 61.8 97.0 60.45" fill="url(#gradient4)" fill-rule="evenodd" stroke="none"/>
    <path d="M88.9 63.95 Q88.9 62.7 89.8 61.8 90.65 60.9 91.9 60.9 93.15 60.9 94.05 61.8 94.95 62.65 94.95 63.95 94.95 65.2 94.05 66.05 93.15 66.95 91.9 66.95 90.65 66.95 89.8 66.05 88.9 65.2 88.9 63.95" fill="url(#gradient5)" fill-rule="evenodd" stroke="none"/>
    <path d="M86.0 72.3 Q86.0 71.3 86.7 70.55 87.45 69.85 88.45 69.85 89.45 69.85 90.2 70.55 90.9 71.3 90.9 72.3 90.9 73.3 90.2 74.05 89.45 74.75 88.45 74.75 87.45 74.75 86.7 74.05 86.0 73.3 86.0 72.3" fill="url(#gradient6)" fill-rule="evenodd" stroke="none"/>
    <path d="M89.9 80.65 Q89.9 79.8 90.5 79.2 91.1 78.6 91.9 78.6 92.75 78.6 93.35 79.2 93.95 79.8 93.95 80.65 93.95 81.5 93.35 82.05 92.75 82.65 91.9 82.65 91.05 82.65 90.5 82.05 89.9 81.45 89.9 80.65" fill="url(#gradient7)" fill-rule="evenodd" stroke="none"/>
  </g>
  <defs>
    <radialGradient cx="0" cy="0" gradientTransform="matrix(-0.0062, 0.0, 0.0, 0.0062, 100.2, 84.1)" gradientUnits="userSpaceOnUse" id="gradient0" r="819.2" spreadMethod="pad">
      <stop offset="0.0" stop-color="#005773"/>
      <stop offset="0.16862745098039217" stop-color="#257088"/>
      <stop offset="0.5450980392156862" stop-color="#84aebc"/>
      <stop offset="1.0" stop-color="#ffffff"/>
    </radialGradient>
    <radialGradient cx="0" cy="0" gradientTransform="matrix(-0.0054, 0.0, 0.0, 0.0054, 108.55, 80.65)" gradientUnits="userSpaceOnUse" id="gradient1" r="819.2" spreadMethod="pad">
      <stop offset="0.0" stop-color="#005773"/>
      <stop offset="0.16862745098039217" stop-color="#257088"/>
      <stop offset="0.5450980392156862" stop-color="#84aebc"/>
      <stop offset="1.0" stop-color="#ffffff"/>
    </radialGradient>
    <radialGradient cx="0" cy="0" gradientTransform="matrix(-0.0049, 0.0, 0.0, 0.0049, 111.75, 72.3)" gradientUnits="userSpaceOnUse" id="gradient2" r="819.2" spreadMethod="pad">
      <stop offset="0.0" stop-color="#005773"/>
      <stop offset="0.16862745098039217" stop-color="#257088"/>
      <stop offset="0.5450980392156862" stop-color="#84aebc"/>
      <stop offset="1.0" stop-color="#ffffff"/>
    </radialGradient>
    <radialGradient cx="0" cy="0" gradientTransform="matrix(-0.0046, 0.0, 0.0, 0.0046, 108.55, 63.95)" gradientUnits="userSpaceOnUse" id="gradient3" r="819.2" spreadMethod="pad">
      <stop offset="0.0" stop-color="#005773"/>
      <stop offset="0.16862745098039217" stop-color="#257088"/>
      <stop offset="0.5450980392156862" stop-color="#84aebc"/>
      <stop offset="1.0" stop-color="#ffffff"/>
    </radialGradient>
    <radialGradient cx="0" cy="0" gradientTransform="matrix(-0.004, 0.0, 0.0, 0.004, 100.2, 60.45)" gradientUnits="userSpaceOnUse" id="gradient4" r="819.2" spreadMethod="pad">
      <stop offset="0.0" stop-color="#005773"/>
      <stop offset="0.16862745098039217" stop-color="#257088"/>
      <stop offset="0.5450980392156862" stop-color="#84aebc"/>
      <stop offset="1.0" stop-color="#ffffff"/>
    </radialGradient>
    <radialGradient cx="0" cy="0" gradientTransform="matrix(-0.0037, 0.0, 0.0, 0.0037, 91.85, 63.95)" gradientUnits="userSpaceOnUse" id="gradient5" r="819.2" spreadMethod="pad">
      <stop offset="0.0" stop-color="#005773"/>
      <stop offset="0.16862745098039217" stop-color="#257088"/>
      <stop offset="0.5450980392156862" stop-color="#84aebc"/>
      <stop offset="1.0" stop-color="#ffffff"/>
    </radialGradient>
    <radialGradient cx="0" cy="0" gradientTransform="matrix(-0.003, 0.0, 0.0, 0.003, 88.4, 72.3)" gradientUnits="userSpaceOnUse" id="gradient6" r="819.2" spreadMethod="pad">
      <stop offset="0.0" stop-color="#005773"/>
      <stop offset="0.16862745098039217" stop-color="#257088"/>
      <stop offset="0.5450980392156862" stop-color="#84aebc"/>
      <stop offset="1.0" stop-color="#ffffff"/>
    </radialGradient>
    <radialGradient cx="0" cy="0" gradientTransform="matrix(-0.0025, 0.0, 0.0, 0.0025, 91.9, 80.65)" gradientUnits="userSpaceOnUse" id="gradient7" r="819.2" spreadMethod="pad">
      <stop offset="0.0" stop-color="#005773"/>
      <stop offset="0.16862745098039217" stop-color="#257088"/>
      <stop offset="0.5450980392156862" stop-color="#84aebc"/>
      <stop offset="1.0" stop-color="#ffffff"/>
    </radialGradient>
  </defs>
</svg>
