<?xml version="1.0" encoding="UTF-8" standalone="no"?>
<svg xmlns:xlink="http://www.w3.org/1999/xlink" height="31.1px" width="29.4px" xmlns="http://www.w3.org/2000/svg">
  <g transform="matrix(1, 0, 0, 1, -86.4, -57.5)">
    <path d="M88.25 77.05 Q89.75 75.55 91.85 75.55 93.95 75.55 95.45 77.05 96.95 78.6 97.0 80.7 97.0 82.8 95.5 84.3 93.95 85.85 91.85 85.85 89.7 85.85 88.2 84.3 86.7 82.8 86.7 80.7 86.7 78.6 88.25 77.05" fill="url(#gradient0)" fill-rule="evenodd" stroke="none"/>
    <path d="M97.1 81.0 Q98.4 79.7 100.2 79.7 102.1 79.7 103.4 81.0 104.7 82.3 104.65 84.15 104.7 86.0 103.4 87.3 102.05 88.65 100.2 88.6 98.4 88.6 97.1 87.3 95.8 86.0 95.75 84.15 95.75 82.35 97.1 81.0" fill="url(#gradient1)" fill-rule="evenodd" stroke="none"/>
    <path d="M105.55 77.65 Q106.7 76.5 108.35 76.45 110.0 76.5 111.15 77.65 112.35 78.85 112.35 80.45 112.35 82.15 111.2 83.3 110.0 84.5 108.35 84.45 106.7 84.5 105.5 83.3 104.35 82.15 104.35 80.45 104.35 78.85 105.55 77.65" fill="url(#gradient2)" fill-rule="evenodd" stroke="none"/>
    <path d="M109.35 69.65 Q110.45 68.55 112.05 68.55 113.55 68.5 114.7 69.65 115.8 70.75 115.8 72.3 115.8 73.9 114.7 75.0 113.6 76.1 112.0 76.1 110.5 76.1 109.4 75.0 108.3 73.9 108.25 72.35 108.25 70.75 109.35 69.65" fill="url(#gradient3)" fill-rule="evenodd" stroke="none"/>
    <path d="M106.25 61.65 Q107.2 60.7 108.6 60.7 109.9 60.7 110.85 61.65 111.85 62.65 111.85 63.95 111.85 65.35 110.9 66.3 109.95 67.25 108.6 67.2 107.25 67.25 106.25 66.25 105.3 65.3 105.35 63.95 105.3 62.6 106.25 61.65" fill="url(#gradient4)" fill-rule="evenodd" stroke="none"/>
    <path d="M98.1 58.4 Q98.95 57.55 100.2 57.5 101.45 57.45 102.35 58.35 103.25 59.25 103.2 60.5 103.25 61.75 102.35 62.65 101.45 63.55 100.2 63.5 98.95 63.55 98.05 62.65 97.15 61.75 97.2 60.5 97.2 59.3 98.1 58.4" fill="url(#gradient5)" fill-rule="evenodd" stroke="none"/>
    <path d="M90.15 62.25 Q90.85 61.55 91.8 61.55 92.85 61.55 93.55 62.25 94.25 62.95 94.3 64.0 94.3 65.0 93.6 65.7 92.9 66.4 91.85 66.45 90.8 66.4 90.1 65.7 89.4 65.0 89.35 64.0 89.45 62.95 90.15 62.25" fill="url(#gradient6)" fill-rule="evenodd" stroke="none"/>
    <path d="M87.0 70.9 Q87.6 70.3 88.4 70.3 89.3 70.3 89.85 70.85 90.45 71.45 90.45 72.35 90.45 73.15 89.85 73.75 89.25 74.35 88.45 74.35 87.55 74.35 86.95 73.75 86.35 73.15 86.4 72.3 86.4 71.5 87.0 70.9" fill="url(#gradient7)" fill-rule="evenodd" stroke="none"/>
  </g>
  <defs>
    <radialGradient cx="0" cy="0" gradientTransform="matrix(-0.0044, -0.0044, -0.0044, 0.0044, 91.8, 80.6)" gradientUnits="userSpaceOnUse" id="gradient0" r="819.2" spreadMethod="pad">
      <stop offset="0.0" stop-color="#005773"/>
      <stop offset="0.16862745098039217" stop-color="#257088"/>
      <stop offset="0.5450980392156862" stop-color="#84aebc"/>
      <stop offset="1.0" stop-color="#ffffff"/>
    </radialGradient>
    <radialGradient cx="0" cy="0" gradientTransform="matrix(-0.0038, -0.0038, -0.0038, 0.0038, 100.15, 84.05)" gradientUnits="userSpaceOnUse" id="gradient1" r="819.2" spreadMethod="pad">
      <stop offset="0.0" stop-color="#005773"/>
      <stop offset="0.16862745098039217" stop-color="#257088"/>
      <stop offset="0.5450980392156862" stop-color="#84aebc"/>
      <stop offset="1.0" stop-color="#ffffff"/>
    </radialGradient>
    <radialGradient cx="0" cy="0" gradientTransform="matrix(-0.0034, -0.0034, -0.0034, 0.0034, 108.35, 80.45)" gradientUnits="userSpaceOnUse" id="gradient2" r="819.2" spreadMethod="pad">
      <stop offset="0.0" stop-color="#005773"/>
      <stop offset="0.16862745098039217" stop-color="#257088"/>
      <stop offset="0.5450980392156862" stop-color="#84aebc"/>
      <stop offset="1.0" stop-color="#ffffff"/>
    </radialGradient>
    <radialGradient cx="0" cy="0" gradientTransform="matrix(-0.0033, -0.0033, -0.0033, 0.0033, 111.95, 72.25)" gradientUnits="userSpaceOnUse" id="gradient3" r="819.2" spreadMethod="pad">
      <stop offset="0.0" stop-color="#005773"/>
      <stop offset="0.16862745098039217" stop-color="#257088"/>
      <stop offset="0.5450980392156862" stop-color="#84aebc"/>
      <stop offset="1.0" stop-color="#ffffff"/>
    </radialGradient>
    <radialGradient cx="0" cy="0" gradientTransform="matrix(-0.0028, -0.0028, -0.0028, 0.0028, 108.5, 63.9)" gradientUnits="userSpaceOnUse" id="gradient4" r="819.2" spreadMethod="pad">
      <stop offset="0.0" stop-color="#005773"/>
      <stop offset="0.16862745098039217" stop-color="#257088"/>
      <stop offset="0.5450980392156862" stop-color="#84aebc"/>
      <stop offset="1.0" stop-color="#ffffff"/>
    </radialGradient>
    <radialGradient cx="0" cy="0" gradientTransform="matrix(-0.0026, -0.0026, -0.0026, 0.0026, 100.15, 60.45)" gradientUnits="userSpaceOnUse" id="gradient5" r="819.2" spreadMethod="pad">
      <stop offset="0.0" stop-color="#005773"/>
      <stop offset="0.16862745098039217" stop-color="#257088"/>
      <stop offset="0.5450980392156862" stop-color="#84aebc"/>
      <stop offset="1.0" stop-color="#ffffff"/>
    </radialGradient>
    <radialGradient cx="0" cy="0" gradientTransform="matrix(-0.0021, -0.0021, -0.0021, 0.0021, 91.85, 63.95)" gradientUnits="userSpaceOnUse" id="gradient6" r="819.2" spreadMethod="pad">
      <stop offset="0.0" stop-color="#005773"/>
      <stop offset="0.16862745098039217" stop-color="#257088"/>
      <stop offset="0.5450980392156862" stop-color="#84aebc"/>
      <stop offset="1.0" stop-color="#ffffff"/>
    </radialGradient>
    <radialGradient cx="0" cy="0" gradientTransform="matrix(-0.0017, -0.0017, -0.0017, 0.0017, 88.4, 72.3)" gradientUnits="userSpaceOnUse" id="gradient7" r="819.2" spreadMethod="pad">
      <stop offset="0.0" stop-color="#005773"/>
      <stop offset="0.16862745098039217" stop-color="#257088"/>
      <stop offset="0.5450980392156862" stop-color="#84aebc"/>
      <stop offset="1.0" stop-color="#ffffff"/>
    </radialGradient>
  </defs>
</svg>
