<?xml version="1.0" encoding="UTF-8" standalone="no"?>
<svg xmlns:xlink="http://www.w3.org/1999/xlink" height="29.8px" width="32.05px" xmlns="http://www.w3.org/2000/svg">
  <g transform="matrix(1, 0, 0, 1, -83.3, -58.05)">
    <path d="M88.45 67.2 Q90.6 67.2 92.05 68.7 93.55 70.2 93.55 72.3 93.55 74.45 92.05 75.95 90.6 77.45 88.45 77.45 86.3 77.45 84.8 75.95 83.3 74.45 83.3 72.3 83.3 70.2 84.8 68.7 86.3 67.2 88.45 67.2" fill="url(#gradient0)" fill-rule="evenodd" stroke="none"/>
    <path d="M91.9 76.25 Q93.75 76.25 95.05 77.55 96.35 78.85 96.35 80.7 96.35 82.55 95.05 83.85 93.75 85.15 91.9 85.15 90.05 85.15 88.75 83.85 87.45 82.55 87.45 80.7 87.45 78.85 88.75 77.55 90.05 76.25 91.9 76.25" fill="url(#gradient1)" fill-rule="evenodd" stroke="none"/>
    <path d="M100.25 79.85 Q101.9 79.85 103.1 81.0 104.25 82.2 104.25 83.85 104.25 85.5 103.1 86.65 101.9 87.85 100.25 87.85 98.6 87.85 97.45 86.65 96.25 85.5 96.25 83.85 96.25 82.2 97.45 81.0 98.6 79.85 100.25 79.85" fill="url(#gradient2)" fill-rule="evenodd" stroke="none"/>
    <path d="M108.6 76.9 Q110.2 76.9 111.3 78.0 112.4 79.1 112.4 80.7 112.4 82.25 111.3 83.35 110.15 84.45 108.6 84.45 107.05 84.45 105.95 83.35 104.85 82.25 104.85 80.7 104.85 79.15 105.95 78.0 107.05 76.9 108.6 76.9" fill="url(#gradient3)" fill-rule="evenodd" stroke="none"/>
    <path d="M112.1 69.05 Q113.45 69.05 114.4 70.0 115.35 70.95 115.35 72.3 115.35 73.7 114.4 74.65 113.45 75.6 112.1 75.6 110.75 75.6 109.8 74.65 108.8 73.7 108.8 72.3 108.8 70.95 109.8 70.0 110.75 69.05 112.1 69.05" fill="url(#gradient4)" fill-rule="evenodd" stroke="none"/>
    <path d="M108.6 60.95 Q109.85 60.95 110.75 61.85 111.65 62.7 111.65 63.95 111.65 65.2 110.75 66.1 109.9 67.0 108.6 67.0 107.35 67.0 106.5 66.1 105.6 65.2 105.6 63.95 105.6 62.7 106.5 61.85 107.35 60.95 108.6 60.95" fill="url(#gradient5)" fill-rule="evenodd" stroke="none"/>
    <path d="M100.25 58.05 Q101.25 58.05 102.0 58.75 102.7 59.5 102.7 60.5 102.7 61.5 102.0 62.25 101.25 62.95 100.25 62.95 99.25 62.95 98.5 62.25 97.8 61.5 97.8 60.5 97.8 59.5 98.5 58.75 99.25 58.05 100.25 58.05" fill="url(#gradient6)" fill-rule="evenodd" stroke="none"/>
    <path d="M91.9 61.95 Q92.75 61.95 93.35 62.55 93.95 63.15 93.95 63.95 93.95 64.8 93.35 65.4 92.75 66.0 91.9 66.0 91.05 66.0 90.5 65.4 89.9 64.8 89.9 63.95 89.9 63.1 90.5 62.55 91.1 61.95 91.9 61.95" fill="url(#gradient7)" fill-rule="evenodd" stroke="none"/>
  </g>
  <defs>
    <radialGradient cx="0" cy="0" gradientTransform="matrix(0.0, -0.0062, -0.0062, 0.0, 88.45, 72.25)" gradientUnits="userSpaceOnUse" id="gradient0" r="819.2" spreadMethod="pad">
      <stop offset="0.0" stop-color="#005773"/>
      <stop offset="0.16862745098039217" stop-color="#257088"/>
      <stop offset="0.5450980392156862" stop-color="#84aebc"/>
      <stop offset="1.0" stop-color="#ffffff"/>
    </radialGradient>
    <radialGradient cx="0" cy="0" gradientTransform="matrix(0.0, -0.0054, -0.0054, 0.0, 91.9, 80.6)" gradientUnits="userSpaceOnUse" id="gradient1" r="819.2" spreadMethod="pad">
      <stop offset="0.0" stop-color="#005773"/>
      <stop offset="0.16862745098039217" stop-color="#257088"/>
      <stop offset="0.5450980392156862" stop-color="#84aebc"/>
      <stop offset="1.0" stop-color="#ffffff"/>
    </radialGradient>
    <radialGradient cx="0" cy="0" gradientTransform="matrix(0.0, -0.0049, -0.0049, 0.0, 100.25, 83.8)" gradientUnits="userSpaceOnUse" id="gradient2" r="819.2" spreadMethod="pad">
      <stop offset="0.0" stop-color="#005773"/>
      <stop offset="0.16862745098039217" stop-color="#257088"/>
      <stop offset="0.5450980392156862" stop-color="#84aebc"/>
      <stop offset="1.0" stop-color="#ffffff"/>
    </radialGradient>
    <radialGradient cx="0" cy="0" gradientTransform="matrix(0.0, -0.0046, -0.0046, 0.0, 108.6, 80.6)" gradientUnits="userSpaceOnUse" id="gradient3" r="819.2" spreadMethod="pad">
      <stop offset="0.0" stop-color="#005773"/>
      <stop offset="0.16862745098039217" stop-color="#257088"/>
      <stop offset="0.5450980392156862" stop-color="#84aebc"/>
      <stop offset="1.0" stop-color="#ffffff"/>
    </radialGradient>
    <radialGradient cx="0" cy="0" gradientTransform="matrix(0.0, -0.004, -0.004, 0.0, 112.1, 72.25)" gradientUnits="userSpaceOnUse" id="gradient4" r="819.2" spreadMethod="pad">
      <stop offset="0.0" stop-color="#005773"/>
      <stop offset="0.16862745098039217" stop-color="#257088"/>
      <stop offset="0.5450980392156862" stop-color="#84aebc"/>
      <stop offset="1.0" stop-color="#ffffff"/>
    </radialGradient>
    <radialGradient cx="0" cy="0" gradientTransform="matrix(0.0, -0.0037, -0.0037, 0.0, 108.6, 63.9)" gradientUnits="userSpaceOnUse" id="gradient5" r="819.2" spreadMethod="pad">
      <stop offset="0.0" stop-color="#005773"/>
      <stop offset="0.16862745098039217" stop-color="#257088"/>
      <stop offset="0.5450980392156862" stop-color="#84aebc"/>
      <stop offset="1.0" stop-color="#ffffff"/>
    </radialGradient>
    <radialGradient cx="0" cy="0" gradientTransform="matrix(0.0, -0.003, -0.003, 0.0, 100.25, 60.45)" gradientUnits="userSpaceOnUse" id="gradient6" r="819.2" spreadMethod="pad">
      <stop offset="0.0" stop-color="#005773"/>
      <stop offset="0.16862745098039217" stop-color="#257088"/>
      <stop offset="0.5450980392156862" stop-color="#84aebc"/>
      <stop offset="1.0" stop-color="#ffffff"/>
    </radialGradient>
    <radialGradient cx="0" cy="0" gradientTransform="matrix(0.0, -0.0025, -0.0025, 0.0, 91.9, 63.95)" gradientUnits="userSpaceOnUse" id="gradient7" r="819.2" spreadMethod="pad">
      <stop offset="0.0" stop-color="#005773"/>
      <stop offset="0.16862745098039217" stop-color="#257088"/>
      <stop offset="0.5450980392156862" stop-color="#84aebc"/>
      <stop offset="1.0" stop-color="#ffffff"/>
    </radialGradient>
  </defs>
</svg>
