<?xml version="1.0" encoding="UTF-8" standalone="no"?>
<svg xmlns:xlink="http://www.w3.org/1999/xlink" height="60.0px" width="100.0px" xmlns="http://www.w3.org/2000/svg">
  <g transform="matrix(1, 0, 0, 1, 0.0, 0.0)">
    <path d="M100.0 60.0 L0.0 60.0 0.0 0.0 100.0 0.0 100.0 60.0" fill="#93918e" fill-opacity="0.0" fill-rule="evenodd" stroke="none"/>
    <path d="M81.3 15.8 Q84.85 15.35 87.6 16.85 87.65 25.2 82.4 32.05 77.2 38.9 69.8 40.55 L71.8 36.6 74.0 36.3 Q75.45 36.2 76.4 35.3 81.05 31.05 82.95 28.4 86.15 24.1 86.9 18.85 85.0 17.25 82.1 17.95 L77.05 19.5 Q77.3 16.4 81.3 15.8" fill="#f9f6dc" fill-rule="evenodd" stroke="none"/>
    <path d="M78.05 11.25 Q78.7 13.0 78.35 14.9 L84.35 14.5 Q88.75 14.9 89.55 17.55 86.1 38.5 68.5 42.55 67.1 44.85 64.7 49.85 62.3 54.15 59.3 56.35 53.45 60.5 43.1 59.95 33.0 59.35 27.7 55.05 23.4 51.55 18.5 40.6 13.85 30.15 12.55 22.15 11.55 16.25 12.55 8.3 17.55 4.15 26.45 1.95 34.75 -0.1 44.6 0.0 54.35 0.1 62.9 2.25 71.85 4.45 77.05 8.3 L78.05 11.25 M73.55 9.65 L73.1 7.0 Q68.45 4.5 60.0 2.95 51.65 1.4 42.65 1.35 21.2 1.2 14.55 8.3 14.15 8.75 14.1 9.25 14.05 9.75 14.55 9.0 15.9 8.25 15.65 10.05 15.25 12.75 15.85 13.6 20.8 17.3 28.9 19.45 36.75 21.5 45.45 21.55 54.4 21.6 61.85 19.5 69.9 17.25 74.4 12.9 73.85 11.45 73.55 9.65 M81.05 19.45 Q78.4 21.2 77.05 21.5 76.6 24.05 75.15 28.1 73.55 32.45 73.1 34.65 77.9 33.75 80.8 29.2 L84.95 20.15 Q83.45 18.3 81.05 19.45 M76.5 13.2 Q76.7 9.7 74.4 9.65 75.95 10.45 75.75 13.6 68.45 20.25 55.3 22.15 43.6 23.9 31.0 21.5 18.8 19.15 13.85 12.9 13.4 15.6 13.6 18.95 13.75 22.25 14.55 25.4 16.05 31.85 19.45 39.45 23.1 47.45 26.4 51.1 31.25 56.5 43.25 56.85 54.75 57.25 60.6 53.05 60.95 50.2 63.3 46.4 65.75 42.35 66.5 44.5 67.55 40.7 71.0 31.3 74.3 22.05 75.75 16.85 76.0 18.0 75.35 20.95 75.2 21.8 75.35 21.8 L76.4 20.8 Q76.15 19.45 76.5 13.2 M75.1 25.4 Q75.2 24.75 74.9 24.0 74.6 23.25 74.4 24.1 74.25 24.85 74.6 25.6 74.9 26.3 75.1 25.4 M82.1 17.95 Q85.0 17.25 86.9 18.85 86.15 24.1 82.95 28.4 81.05 31.05 76.4 35.3 75.45 36.2 74.0 36.3 L71.8 36.6 69.8 40.55 Q77.2 38.9 82.4 32.05 87.65 25.2 87.6 16.85 84.85 15.35 81.3 15.8 77.3 16.4 77.05 19.5 L82.1 17.95 M50.05 57.65 Q48.65 57.4 48.1 57.65 47.6 57.8 47.95 58.1 48.25 58.45 48.85 58.4 49.55 58.35 50.05 57.65 M43.5 57.65 Q41.6 57.4 40.7 57.65 40.0 57.8 40.35 58.1 40.65 58.45 41.5 58.4 42.55 58.35 43.5 57.65" fill="#000000" fill-rule="evenodd" stroke="none"/>
    <path d="M74.4 9.65 Q76.7 9.7 76.5 13.2 76.15 19.45 76.4 20.8 L75.35 21.8 Q75.2 21.8 75.35 20.95 76.0 18.0 75.75 16.85 74.3 22.05 71.0 31.3 67.55 40.7 66.5 44.5 65.75 42.35 63.3 46.4 60.95 50.2 60.6 53.05 54.75 57.25 43.25 56.85 31.25 56.5 26.4 51.1 23.1 47.45 19.45 39.45 16.05 31.85 14.55 25.4 13.75 22.25 13.6 18.95 13.4 15.6 13.85 12.9 18.8 19.15 31.0 21.5 43.6 23.9 55.3 22.15 68.45 20.25 75.75 13.6 75.95 10.45 74.4 9.65" fill="#f9f6dc" fill-rule="evenodd" stroke="none"/>
    <path d="M74.4 24.1 Q74.6 23.25 74.9 24.0 75.2 24.75 75.1 25.4 74.9 26.3 74.6 25.6 74.25 24.85 74.4 24.1" fill="#f9f6dc" fill-rule="evenodd" stroke="none"/>
    <path d="M73.1 7.0 L73.55 9.65 Q73.85 11.45 74.4 12.9 69.9 17.25 61.85 19.5 54.4 21.6 45.45 21.55 36.75 21.5 28.9 19.45 20.8 17.3 15.85 13.6 15.25 12.75 15.65 10.05 15.9 8.25 14.55 9.0 14.05 9.75 14.1 9.25 14.15 8.75 14.55 8.3 21.2 1.2 42.65 1.35 51.65 1.4 60.0 2.95 68.45 4.5 73.1 7.0" fill="#f9f6dc" fill-rule="evenodd" stroke="none"/>
    <path d="M50.05 57.65 Q49.55 58.35 48.85 58.4 48.25 58.45 47.95 58.1 47.6 57.8 48.1 57.65 48.65 57.4 50.05 57.65" fill="#f9f6dc" fill-rule="evenodd" stroke="none"/>
    <path d="M43.5 57.65 Q42.55 58.35 41.5 58.4 40.65 58.45 40.35 58.1 40.0 57.8 40.7 57.65 41.6 57.4 43.5 57.65" fill="#f9f6dc" fill-rule="evenodd" stroke="none"/>
  </g>
</svg>
