<?xml version="1.0" encoding="UTF-8" standalone="no"?>
<svg xmlns:xlink="http://www.w3.org/1999/xlink" height="60.0px" width="100.0px" xmlns="http://www.w3.org/2000/svg">
  <g transform="matrix(1, 0, 0, 1, 0.0, -0.05)">
    <path d="M81.35 13.15 L76.75 16.2 Q76.8 15.5 74.9 16.05 73.05 16.6 72.05 17.4 72.45 17.15 72.4 18.75 72.3 20.3 72.5 20.0 73.05 19.05 74.65 18.6 L78.15 18.1 Q78.85 15.95 82.05 14.1 L87.3 10.95 Q84.05 11.25 81.35 13.15 M83.95 14.9 Q83.1 16.7 83.55 19.15 84.0 21.55 85.55 23.35 87.2 25.3 89.4 25.7 L90.15 29.15 Q90.6 31.4 89.4 32.35 90.15 33.75 92.85 35.3 95.7 37.0 96.45 38.1 95.3 38.2 93.7 39.1 92.1 39.85 90.85 40.0 L93.6 42.6 Q95.4 44.2 95.75 45.7 95.25 45.75 95.15 46.25 L95.05 47.1 93.1 47.5 90.85 47.6 Q91.35 49.05 93.85 49.85 L98.6 50.9 97.4 52.3 Q96.45 53.0 96.45 53.8 96.3 54.6 98.0 54.65 99.85 54.75 100.0 55.2 97.85 58.05 91.2 58.5 84.2 59.0 81.7 55.7 81.35 55.75 80.25 56.4 L78.15 56.65 Q77.8 56.2 76.2 55.1 74.95 54.2 74.65 53.3 73.15 53.15 72.4 54.2 71.55 55.25 70.4 55.2 L69.5 52.95 Q68.9 51.6 69.0 50.45 L68.0 50.4 Q67.1 51.25 66.2 50.9 65.85 49.25 66.35 47.75 L67.6 45.2 Q67.5 44.6 66.7 45.0 L64.8 45.2 61.75 49.6 Q59.55 51.75 55.6 51.85 55.65 56.55 49.05 57.2 L43.05 57.35 37.3 57.6 35.0 57.25 Q33.6 57.05 33.8 56.15 33.1 57.6 31.1 58.7 29.2 59.7 27.0 59.95 21.6 60.55 20.4 56.65 18.1 56.9 16.9 56.15 16.0 55.6 15.5 54.25 7.0 54.6 4.55 54.25 -0.1 53.45 0.0 49.95 0.05 47.5 5.05 45.3 L8.85 43.5 Q10.75 42.35 11.25 40.95 9.4 37.85 12.0 35.6 14.4 33.5 19.0 33.35 18.6 29.8 20.95 27.75 23.05 25.95 27.45 25.25 27.3 22.1 31.25 20.6 34.9 19.15 39.4 20.0 38.35 19.1 34.9 18.75 L29.55 18.1 Q29.5 15.05 24.65 15.75 24.3 14.85 25.0 14.35 L26.05 13.35 Q21.4 12.75 18.85 11.3 15.9 9.65 15.5 6.7 18.8 8.5 23.7 6.9 25.75 6.2 26.8 5.15 27.95 4.0 27.45 2.9 L33.55 1.7 40.15 1.95 Q40.15 1.55 39.75 1.0 39.3 0.5 39.4 0.05 47.8 0.9 50.6 1.75 55.85 3.4 56.35 7.15 L57.75 7.3 Q58.95 7.2 58.45 8.6 65.05 7.55 70.35 9.3 75.2 10.9 77.45 14.3 80.4 11.4 85.75 10.0 92.25 8.3 94.35 12.4 L87.3 12.4 Q84.95 12.9 83.95 14.9 M89.25 11.45 Q91.1 11.85 91.55 10.95 90.75 10.55 89.5 10.7 88.55 10.8 88.0 10.0 87.4 11.05 89.25 11.45 M73.95 12.4 Q72.8 10.95 69.9 10.0 67.15 9.15 64.2 9.15 61.1 9.1 59.3 10.1 57.3 11.25 57.75 13.35 58.05 14.9 60.5 15.85 62.85 16.8 65.85 16.8 69.05 16.8 71.2 15.75 73.7 14.55 73.95 12.4 M67.6 24.3 Q68.8 24.45 69.65 23.2 70.5 22.0 69.7 21.9 L68.45 23.0 Q67.4 23.5 67.6 24.3 M64.9 27.9 Q63.7 29.65 63.7 31.6 63.7 33.65 65.0 35.0 66.45 36.5 69.0 36.65 72.4 36.9 74.45 34.8 76.55 32.6 75.35 29.5 72.95 29.5 71.45 27.65 69.8 25.55 68.3 25.25 66.15 26.05 64.9 27.9 M73.35 27.95 Q75.85 29.9 80.25 29.05 83.65 28.4 84.15 25.45 84.55 22.6 82.4 20.0 77.75 18.25 74.6 19.65 71.9 20.8 71.5 23.55 71.1 26.25 73.35 27.95 M70.4 17.65 Q62.05 17.95 56.35 15.25 51.85 17.95 53.1 20.35 54.2 22.5 58.6 23.3 63.0 24.1 66.45 22.8 70.5 21.25 70.4 17.65 M85.2 25.25 Q85.4 27.85 81.8 29.2 L78.95 30.05 Q77.3 30.55 76.75 30.95 78.25 33.3 82.2 33.9 86.35 34.55 88.7 32.35 88.8 28.8 88.5 27.8 87.9 25.55 85.2 25.25 M79.55 18.6 Q80.9 19.15 81.1 17.85 81.3 16.55 80.25 16.7 L79.7 17.5 Q79.4 18.0 79.55 18.6 M40.85 3.35 Q39.05 2.0 34.7 2.4 30.95 2.75 28.85 3.85 29.9 5.6 25.65 7.15 22.7 8.2 19.7 8.6 22.8 9.7 27.15 10.1 32.05 10.55 34.5 9.55 33.95 9.5 33.8 9.05 L33.8 8.1 Q34.55 8.25 35.7 9.2 36.65 10.05 38.0 10.0 37.95 8.55 36.2 7.2 34.15 5.6 33.8 4.8 36.1 5.2 37.65 6.95 L40.15 10.0 44.2 10.45 Q46.75 10.85 47.9 10.0 L46.6 6.5 Q45.7 4.2 45.75 3.85 L47.9 5.25 Q47.65 7.6 48.15 8.9 48.8 10.5 50.7 10.95 51.65 11.15 51.4 10.0 51.1 8.9 52.1 9.05 51.6 10.9 53.0 11.8 53.85 12.35 56.35 12.85 55.85 11.9 57.2 10.5 58.35 9.35 57.05 8.6 56.55 9.55 54.9 9.55 55.85 5.1 51.35 3.15 49.4 2.35 41.55 1.0 L41.6 2.5 Q41.7 3.4 40.85 3.35 M26.25 13.0 Q27.7 13.9 26.75 14.8 L30.25 14.8 Q29.9 15.8 30.5 16.5 L31.7 17.65 37.4 18.15 42.35 17.25 47.25 16.3 52.8 16.7 Q52.75 15.85 54.2 15.25 55.65 14.65 55.6 13.85 54.3 12.95 50.95 13.8 47.65 14.6 46.45 13.85 L49.4 13.2 52.1 12.4 Q47.9 10.65 43.6 11.75 38.7 13.6 35.9 14.3 36.4 13.8 38.6 12.8 40.45 11.95 40.85 10.95 L34.75 11.15 Q32.5 11.5 30.25 12.4 L30.7 11.75 Q31.1 11.4 30.95 10.95 29.75 10.85 29.0 11.55 28.15 12.35 27.45 12.4 27.65 10.85 24.05 10.35 L19.0 9.55 18.8 8.5 Q18.7 7.8 17.6 8.1 17.0 9.1 18.7 10.0 19.65 10.55 22.55 11.55 25.4 12.5 26.25 13.0 M34.5 20.95 Q33.0 20.75 30.95 22.15 L30.0 22.9 Q29.7 23.2 30.25 22.85 30.65 22.45 32.5 22.05 34.2 21.65 34.5 20.95 M23.1 27.8 Q21.2 29.1 19.7 31.9 20.75 31.65 21.7 30.9 L23.25 29.55 Q25.25 28.0 28.85 28.55 L28.85 26.2 Q25.45 26.05 23.1 27.8 M45.45 24.8 Q50.1 25.05 52.8 22.85 52.75 22.05 51.85 20.2 51.05 18.65 51.4 17.15 46.2 16.65 42.8 18.2 39.55 19.7 40.15 21.9 40.75 24.5 45.45 24.8 M41.1 24.15 Q39.1 22.6 37.3 21.9 33.1 22.15 31.2 24.0 29.2 25.85 30.25 28.55 31.25 28.5 32.15 28.95 L33.8 29.5 Q34.7 28.35 38.75 27.9 43.25 27.4 44.35 26.65 L41.1 24.15 M49.3 25.7 L46.2 26.25 Q44.65 26.75 45.05 28.1 L48.0 27.5 Q49.3 26.95 49.3 25.7 M62.65 33.8 L62.5 32.75 Q62.2 32.25 61.25 32.35 L61.25 33.35 62.0 33.55 62.65 33.8 M54.9 32.85 Q59.4 33.35 61.8 30.8 62.75 29.7 64.8 25.25 59.2 24.15 55.25 24.6 50.0 25.2 50.0 28.55 49.95 29.95 51.1 31.15 52.5 32.55 54.9 32.85 M52.1 33.35 Q51.05 34.0 51.0 34.7 50.95 35.45 52.1 36.2 52.1 35.55 53.2 35.05 54.3 34.5 54.2 33.8 L52.1 33.35 M50.05 34.25 Q50.15 33.3 49.3 33.35 L47.25 35.5 Q45.85 36.85 47.15 36.65 47.05 35.85 47.75 35.4 L49.3 34.75 49.4 35.35 50.0 35.7 50.05 34.25 M62.4 35.4 Q61.2 33.8 59.15 33.35 58.65 34.1 56.5 34.8 54.15 35.6 53.5 36.2 50.95 38.6 52.8 40.9 54.5 43.05 58.45 43.8 60.7 43.55 62.0 42.05 63.25 40.65 63.35 38.75 63.4 36.9 62.4 35.4 M47.9 31.4 Q48.1 32.35 49.3 32.35 50.55 31.55 47.9 29.5 L47.9 31.4 M37.3 39.05 L39.4 39.05 Q39.65 38.45 40.85 38.55 43.35 38.25 40.7 38.1 L36.6 38.1 35.15 37.2 33.1 36.65 Q32.5 37.15 30.95 37.85 29.8 38.6 30.25 40.0 L33.0 40.25 Q34.3 40.95 35.2 40.95 35.15 40.25 36.0 39.8 L37.3 39.05 M41.2 36.75 Q45.15 36.15 46.8 34.15 48.7 31.85 45.75 29.05 L40.0 28.75 Q38.7 29.0 34.5 30.45 32.55 34.05 35.05 35.8 37.25 37.25 41.2 36.75 M44.9 51.55 Q44.75 53.2 43.65 56.15 48.5 57.85 51.8 55.35 55.0 52.95 54.2 48.55 51.1 49.15 47.75 48.05 44.55 46.95 43.65 47.1 45.15 48.95 44.9 51.55 M46.0 45.5 Q48.0 47.5 50.55 47.6 53.45 47.65 54.9 44.75 L52.2 42.05 Q50.5 40.5 50.7 38.55 45.9 39.2 44.9 41.5 44.05 43.45 46.0 45.5 M43.65 46.15 Q42.75 44.55 43.15 42.75 L44.35 39.5 Q33.15 39.1 33.1 46.15 35.45 47.7 38.45 47.7 41.55 47.75 43.65 46.15 M59.35 44.5 L56.35 44.25 55.25 47.8 Q54.7 49.55 56.35 50.9 62.55 49.8 62.65 44.75 L59.35 44.5 M33.1 30.45 Q31.45 29.45 29.15 29.35 27.05 29.3 25.15 30.05 23.25 30.9 22.45 32.2 21.6 33.65 22.5 35.25 25.2 36.45 27.15 36.8 29.9 37.25 32.4 36.2 L32.3 33.05 Q32.3 31.15 33.1 30.45 M22.65 36.3 Q21.55 35.6 20.4 34.3 16.7 33.85 14.4 35.15 12.4 36.25 12.25 38.2 12.1 40.1 13.85 41.45 15.75 42.95 19.0 42.85 L23.35 40.8 Q25.85 39.55 26.05 37.6 24.1 37.25 22.65 36.3 M27.1 39.05 Q26.7 39.6 26.75 40.0 28.6 40.7 29.0 39.2 29.15 38.7 28.75 38.3 28.3 37.9 27.45 38.1 L27.1 39.05 M14.85 43.0 L11.95 41.9 Q9.45 43.4 9.15 45.2 L14.35 45.55 19.0 45.7 19.0 43.3 14.85 43.0 M10.0 51.55 Q10.3 53.6 14.8 53.8 17.05 53.85 18.95 52.45 L22.5 49.95 Q21.25 46.5 17.9 46.25 15.1 46.0 12.4 47.95 9.7 49.8 10.0 51.55 M11.95 46.15 L5.0 46.4 Q2.4 47.45 1.75 49.45 1.1 51.45 2.9 52.75 4.9 54.25 9.15 53.8 8.5 51.85 9.0 49.85 9.6 47.25 11.95 46.15 M24.2 51.5 Q21.2 53.65 21.8 57.6 23.95 59.05 26.35 59.0 28.45 59.0 30.15 57.75 34.05 55.0 32.4 50.45 27.3 49.3 24.2 51.5 M29.55 48.05 Q31.05 47.4 31.65 45.0 32.4 42.15 33.1 41.4 29.05 39.7 24.65 41.3 20.25 42.9 20.4 46.15 20.95 47.6 23.7 47.95 25.35 48.2 29.55 48.05 M21.1 52.35 Q20.85 53.15 19.2 53.7 17.3 54.3 16.9 54.75 L18.1 55.55 20.4 55.7 Q19.75 54.7 20.85 53.5 21.7 52.5 21.1 52.35 M43.4 52.2 Q43.9 50.2 42.95 48.55 36.2 47.8 34.3 49.65 32.8 51.15 33.8 55.7 37.9 57.2 42.25 55.7 L43.4 52.2 M92.35 45.15 L93.65 44.25 Q91.85 43.0 91.0 42.05 89.8 40.65 89.4 39.05 92.75 39.1 94.35 37.15 92.35 36.45 91.25 35.65 89.85 34.7 89.4 33.35 87.8 34.75 84.25 34.9 L78.85 34.75 Q79.75 35.2 81.4 37.1 82.8 38.7 84.5 39.05 83.7 39.45 83.1 39.45 82.45 39.45 81.7 39.05 L81.7 41.2 Q81.65 42.4 80.95 42.85 81.45 43.25 82.95 43.65 84.1 44.15 83.8 45.2 83.2 45.2 82.55 44.6 82.05 44.05 80.95 44.25 80.6 46.0 82.5 47.25 84.9 48.8 85.2 49.5 L83.8 49.3 Q83.25 49.15 83.1 49.5 L84.9 50.4 86.6 51.4 Q86.55 51.75 85.95 51.9 L85.2 52.35 Q86.25 53.45 89.1 54.45 L93.65 56.15 Q88.35 56.25 85.45 53.85 83.55 52.35 81.7 48.55 80.5 48.4 80.0 49.35 79.5 50.25 78.15 49.95 78.0 49.3 79.3 48.0 80.35 46.95 79.55 46.65 L78.25 46.9 Q78.15 46.75 78.7 46.1 80.0 44.5 78.85 44.25 77.95 45.6 74.5 45.25 L69.7 44.25 Q69.65 45.05 68.35 46.5 67.3 47.7 67.6 49.0 70.15 48.45 70.45 49.95 L70.4 52.85 Q71.85 53.05 72.75 52.3 73.75 51.4 74.65 51.4 76.2 53.8 77.6 54.7 79.75 56.15 81.7 54.25 L83.1 55.2 Q83.9 55.8 83.8 56.65 87.1 57.6 90.95 57.35 95.0 57.15 97.15 55.7 94.8 54.5 93.65 52.85 L95.15 52.2 96.45 51.4 Q90.35 50.8 88.7 46.65 L91.25 46.7 Q92.9 46.8 92.95 46.15 91.55 45.9 92.35 45.15 M64.6 39.8 Q64.2 41.95 62.65 43.8 67.4 44.15 69.5 42.5 71.45 40.95 71.1 37.6 68.7 38.05 66.25 36.75 63.9 35.5 63.35 35.7 65.1 37.25 64.6 39.8 M74.8 36.1 L72.5 37.15 Q73.05 41.75 70.4 43.3 73.95 44.8 76.7 44.05 79.15 43.3 80.1 41.2 81.05 39.2 80.0 37.2 78.95 35.05 76.05 34.3 76.05 35.4 74.8 36.1" fill="#000000" fill-rule="evenodd" stroke="none"/>
    <path d="M92.95 46.15 Q92.9 46.8 91.25 46.7 L88.7 46.65 Q90.35 50.8 96.45 51.4 L95.15 52.2 93.65 52.85 Q94.8 54.5 97.15 55.7 95.0 57.15 90.95 57.35 87.1 57.6 83.8 56.65 83.9 55.8 83.1 55.2 L81.7 54.25 Q79.75 56.15 77.6 54.7 76.2 53.8 74.65 51.4 73.75 51.4 72.75 52.3 71.85 53.05 70.4 52.85 L70.45 49.95 Q70.15 48.45 67.6 49.0 67.3 47.7 68.35 46.5 69.65 45.05 69.7 44.25 L74.5 45.25 Q77.95 45.6 78.85 44.25 80.0 44.5 78.7 46.1 78.15 46.75 78.25 46.9 L79.55 46.65 Q80.35 46.95 79.3 48.0 78.0 49.3 78.15 49.95 79.5 50.25 80.0 49.35 80.5 48.4 81.7 48.55 83.55 52.35 85.45 53.85 88.35 56.25 93.65 56.15 L89.1 54.45 Q86.25 53.45 85.2 52.35 L85.95 51.9 Q86.55 51.75 86.6 51.4 L84.9 50.4 83.1 49.5 Q83.25 49.15 83.8 49.3 L85.2 49.5 Q84.9 48.8 82.5 47.25 80.6 46.0 80.95 44.25 82.05 44.05 82.55 44.6 83.2 45.2 83.8 45.2 84.1 44.15 82.95 43.65 81.45 43.25 80.95 42.85 81.65 42.4 81.7 41.2 L81.7 39.05 Q82.45 39.45 83.1 39.45 83.7 39.45 84.5 39.05 82.8 38.7 81.4 37.1 79.75 35.2 78.85 34.75 L84.25 34.9 Q87.8 34.75 89.4 33.35 89.85 34.7 91.25 35.65 92.35 36.45 94.35 37.15 92.75 39.1 89.4 39.05 89.8 40.65 91.0 42.05 91.85 43.0 93.65 44.25 L92.35 45.15 Q91.55 45.9 92.95 46.15" fill="#55f214" fill-rule="evenodd" stroke="none"/>
    <path d="M88.0 10.0 Q88.55 10.8 89.5 10.7 90.75 10.55 91.55 10.95 91.1 11.85 89.25 11.45 87.4 11.05 88.0 10.0" fill="#89751f" fill-rule="evenodd" stroke="none"/>
    <path d="M88.5 27.8 Q88.8 28.8 88.7 32.35 86.35 34.55 82.2 33.9 78.25 33.3 76.75 30.95 77.3 30.55 78.95 30.05 L81.8 29.2 Q85.4 27.85 85.2 25.25 87.9 25.55 88.5 27.8" fill="#801293" fill-rule="evenodd" stroke="none"/>
    <path d="M87.3 10.95 L82.05 14.1 Q78.85 15.95 78.15 18.1 L74.65 18.6 Q73.05 19.05 72.5 20.0 72.3 20.3 72.4 18.75 72.45 17.15 72.05 17.4 73.05 16.6 74.9 16.05 76.8 15.5 76.75 16.2 L81.35 13.15 Q84.05 11.25 87.3 10.95" fill="#4aba15" fill-rule="evenodd" stroke="none"/>
    <path d="M82.4 20.0 Q84.55 22.6 84.15 25.45 83.65 28.4 80.25 29.05 75.85 29.9 73.35 27.95 71.1 26.25 71.5 23.55 71.9 20.8 74.6 19.65 77.75 18.25 82.4 20.0" fill="#801293" fill-rule="evenodd" stroke="none"/>
    <path d="M80.25 16.7 Q81.3 16.55 81.1 17.85 80.9 19.15 79.55 18.6 79.4 18.0 79.7 17.5 L80.25 16.7" fill="#801293" fill-rule="evenodd" stroke="none"/>
    <path d="M76.05 34.3 Q78.95 35.05 80.0 37.2 81.05 39.2 80.1 41.2 79.15 43.3 76.7 44.05 73.95 44.8 70.4 43.3 73.05 41.75 72.5 37.15 L74.8 36.1 Q76.05 35.4 76.05 34.3" fill="#801293" fill-rule="evenodd" stroke="none"/>
    <path d="M71.45 27.65 Q72.95 29.5 75.35 29.5 76.55 32.6 74.45 34.8 72.4 36.9 69.0 36.65 66.45 36.5 65.0 35.0 63.7 33.65 63.7 31.6 63.7 29.65 64.9 27.9 66.15 26.05 68.3 25.25 69.8 25.55 71.45 27.65" fill="#801293" fill-rule="evenodd" stroke="none"/>
    <path d="M71.1 37.6 Q71.45 40.95 69.5 42.5 67.4 44.15 62.65 43.8 64.2 41.95 64.6 39.8 65.1 37.25 63.35 35.7 63.9 35.5 66.25 36.75 68.7 38.05 71.1 37.6" fill="#801293" fill-rule="evenodd" stroke="none"/>
    <path d="M66.45 22.8 Q63.0 24.1 58.6 23.3 54.2 22.5 53.1 20.35 51.85 17.95 56.35 15.25 62.05 17.95 70.4 17.65 70.5 21.25 66.45 22.8" fill="#801293" fill-rule="evenodd" stroke="none"/>
    <path d="M69.7 21.9 Q70.5 22.0 69.65 23.2 68.8 24.45 67.6 24.3 67.4 23.5 68.45 23.0 L69.7 21.9" fill="#801293" fill-rule="evenodd" stroke="none"/>
    <path d="M73.95 12.4 Q73.7 14.55 71.2 15.75 69.05 16.8 65.85 16.8 62.85 16.8 60.5 15.85 58.05 14.9 57.75 13.35 57.3 11.25 59.3 10.1 61.1 9.1 64.2 9.15 67.15 9.15 69.9 10.0 72.8 10.95 73.95 12.4" fill="#801293" fill-rule="evenodd" stroke="none"/>
    <path d="M61.25 32.35 Q62.2 32.25 62.5 32.75 L62.65 33.8 62.0 33.55 61.25 33.35 61.25 32.35" fill="#801293" fill-rule="evenodd" stroke="none"/>
    <path d="M62.65 44.75 Q62.55 49.8 56.35 50.9 54.7 49.55 55.25 47.8 L56.35 44.25 59.35 44.5 62.65 44.75" fill="#801293" fill-rule="evenodd" stroke="none"/>
    <path d="M59.15 33.35 Q61.2 33.8 62.4 35.4 63.4 36.9 63.35 38.75 63.25 40.65 62.0 42.05 60.7 43.55 58.45 43.8 54.5 43.05 52.8 40.9 50.95 38.6 53.5 36.2 54.15 35.6 56.5 34.8 58.65 34.1 59.15 33.35" fill="#801293" fill-rule="evenodd" stroke="none"/>
    <path d="M50.0 28.55 Q50.0 25.2 55.25 24.6 59.2 24.15 64.8 25.25 62.75 29.7 61.8 30.8 59.4 33.35 54.9 32.85 52.5 32.55 51.1 31.15 49.95 29.95 50.0 28.55" fill="#801293" fill-rule="evenodd" stroke="none"/>
    <path d="M51.35 3.15 Q55.85 5.1 54.9 9.55 56.55 9.55 57.05 8.6 58.35 9.35 57.2 10.5 55.85 11.9 56.35 12.85 53.85 12.35 53.0 11.8 51.6 10.9 52.1 9.05 51.1 8.9 51.4 10.0 51.65 11.15 50.7 10.95 48.8 10.5 48.15 8.9 47.65 7.6 47.9 5.25 L45.75 3.85 Q45.7 4.2 46.6 6.5 L47.9 10.0 Q46.75 10.85 44.2 10.45 L40.15 10.0 37.65 6.95 Q36.1 5.2 33.8 4.8 34.15 5.6 36.2 7.2 37.95 8.55 38.0 10.0 36.65 10.05 35.7 9.2 34.55 8.25 33.8 8.1 L33.8 9.05 Q33.95 9.5 34.5 9.55 32.05 10.55 27.15 10.1 22.8 9.7 19.7 8.6 22.7 8.2 25.65 7.15 29.9 5.6 28.85 3.85 30.95 2.75 34.7 2.4 39.05 2.0 40.85 3.35 41.7 3.4 41.6 2.5 L41.55 1.0 Q49.4 2.35 51.35 3.15" fill="#55f214" fill-rule="evenodd" stroke="none"/>
    <path d="M22.55 11.55 Q19.65 10.55 18.7 10.0 17.0 9.1 17.6 8.1 18.7 7.8 18.8 8.5 L19.0 9.55 24.05 10.35 Q27.65 10.85 27.45 12.4 28.15 12.35 29.0 11.55 29.75 10.85 30.95 10.95 31.1 11.4 30.7 11.75 L30.25 12.4 Q32.5 11.5 34.75 11.15 L40.85 10.95 Q40.45 11.95 38.6 12.8 36.4 13.8 35.9 14.3 38.7 13.6 43.6 11.75 47.9 10.65 52.1 12.4 L49.4 13.2 46.45 13.85 Q47.65 14.6 50.95 13.8 54.3 12.95 55.6 13.85 55.65 14.65 54.2 15.25 52.75 15.85 52.8 16.7 L47.25 16.3 42.35 17.25 37.4 18.15 31.7 17.65 30.5 16.5 Q29.9 15.8 30.25 14.8 L26.75 14.8 Q27.7 13.9 26.25 13.0 25.4 12.5 22.55 11.55" fill="#55f214" fill-rule="evenodd" stroke="none"/>
    <path d="M54.2 48.55 Q55.0 52.95 51.8 55.35 48.5 57.85 43.65 56.15 44.75 53.2 44.9 51.55 45.15 48.95 43.65 47.1 44.55 46.95 47.75 48.05 51.1 49.15 54.2 48.55" fill="#801293" fill-rule="evenodd" stroke="none"/>
    <path d="M54.2 33.8 Q54.3 34.5 53.2 35.05 52.1 35.55 52.1 36.2 50.95 35.45 51.0 34.7 51.05 34.0 52.1 33.35 L54.2 33.8" fill="#801293" fill-rule="evenodd" stroke="none"/>
    <path d="M51.4 17.15 Q51.05 18.65 51.85 20.2 52.75 22.05 52.8 22.85 50.1 25.05 45.45 24.8 40.75 24.5 40.15 21.9 39.55 19.7 42.8 18.2 46.2 16.65 51.4 17.15" fill="#801293" fill-rule="evenodd" stroke="none"/>
    <path d="M54.9 44.75 Q53.45 47.65 50.55 47.6 48.0 47.5 46.0 45.5 44.05 43.45 44.9 41.5 45.9 39.2 50.7 38.55 50.5 40.5 52.2 42.05 L54.9 44.75" fill="#801293" fill-rule="evenodd" stroke="none"/>
    <path d="M49.3 33.35 Q50.15 33.3 50.05 34.25 L50.0 35.7 49.4 35.35 49.3 34.75 47.75 35.4 Q47.05 35.85 47.15 36.65 45.85 36.85 47.25 35.5 L49.3 33.35" fill="#801293" fill-rule="evenodd" stroke="none"/>
    <path d="M47.9 29.5 Q50.55 31.55 49.3 32.35 48.1 32.35 47.9 31.4 L47.9 29.5" fill="#801293" fill-rule="evenodd" stroke="none"/>
    <path d="M49.3 25.7 Q49.3 26.95 48.0 27.5 L45.05 28.1 Q44.65 26.75 46.2 26.25 L49.3 25.7" fill="#801293" fill-rule="evenodd" stroke="none"/>
    <path d="M45.75 29.05 Q48.7 31.85 46.8 34.15 45.15 36.15 41.2 36.75 37.25 37.25 35.05 35.8 32.55 34.05 34.5 30.45 38.7 29.0 40.0 28.75 L45.75 29.05" fill="#801293" fill-rule="evenodd" stroke="none"/>
    <path d="M38.45 47.7 Q35.45 47.7 33.1 46.15 33.15 39.1 44.35 39.5 L43.15 42.75 Q42.75 44.55 43.65 46.15 41.55 47.75 38.45 47.7" fill="#801293" fill-rule="evenodd" stroke="none"/>
    <path d="M42.25 55.7 Q37.9 57.2 33.8 55.7 32.8 51.15 34.3 49.65 36.2 47.8 42.95 48.55 43.9 50.2 43.4 52.2 L42.25 55.7" fill="#801293" fill-rule="evenodd" stroke="none"/>
    <path d="M38.75 27.9 Q34.7 28.35 33.8 29.5 L32.15 28.95 Q31.25 28.5 30.25 28.55 29.2 25.85 31.2 24.0 33.1 22.15 37.3 21.9 39.1 22.6 41.1 24.15 L44.35 26.65 Q43.25 27.4 38.75 27.9" fill="#801293" fill-rule="evenodd" stroke="none"/>
    <path d="M36.6 38.1 L40.7 38.1 Q43.35 38.25 40.85 38.55 39.65 38.45 39.4 39.05 L37.3 39.05 36.0 39.8 Q35.15 40.25 35.2 40.95 34.3 40.95 33.0 40.25 L30.25 40.0 Q29.8 38.6 30.95 37.85 32.5 37.15 33.1 36.65 L35.15 37.2 36.6 38.1" fill="#801293" fill-rule="evenodd" stroke="none"/>
    <path d="M30.25 22.85 Q29.7 23.2 30.0 22.9 L30.95 22.15 Q33.0 20.75 34.5 20.95 34.2 21.65 32.5 22.05 30.65 22.45 30.25 22.85" fill="#801293" fill-rule="evenodd" stroke="none"/>
    <path d="M32.4 50.45 Q34.05 55.0 30.15 57.75 28.45 59.0 26.35 59.0 23.95 59.05 21.8 57.6 21.2 53.65 24.2 51.5 27.3 49.3 32.4 50.45" fill="#801293" fill-rule="evenodd" stroke="none"/>
    <path d="M33.1 30.45 Q32.3 31.15 32.3 33.05 L32.4 36.2 Q29.9 37.25 27.15 36.8 25.2 36.45 22.5 35.25 21.6 33.65 22.45 32.2 23.25 30.9 25.15 30.05 27.05 29.3 29.15 29.35 31.45 29.45 33.1 30.45" fill="#801293" fill-rule="evenodd" stroke="none"/>
    <path d="M33.1 41.4 Q32.4 42.15 31.65 45.0 31.05 47.4 29.55 48.05 25.35 48.2 23.7 47.95 20.95 47.6 20.4 46.15 20.25 42.9 24.65 41.3 29.05 39.7 33.1 41.4" fill="#801293" fill-rule="evenodd" stroke="none"/>
    <path d="M28.85 26.2 L28.85 28.55 Q25.25 28.0 23.25 29.55 L21.7 30.9 Q20.75 31.65 19.7 31.9 21.2 29.1 23.1 27.8 25.45 26.05 28.85 26.2" fill="#801293" fill-rule="evenodd" stroke="none"/>
    <path d="M27.45 38.1 Q28.3 37.9 28.75 38.3 29.15 38.7 29.0 39.2 28.6 40.7 26.75 40.0 26.7 39.6 27.1 39.05 L27.45 38.1" fill="#801293" fill-rule="evenodd" stroke="none"/>
    <path d="M26.05 37.6 Q25.85 39.55 23.35 40.8 L19.0 42.85 Q15.75 42.95 13.85 41.45 12.1 40.1 12.25 38.2 12.4 36.25 14.4 35.15 16.7 33.85 20.4 34.3 21.55 35.6 22.65 36.3 24.1 37.25 26.05 37.6" fill="#801293" fill-rule="evenodd" stroke="none"/>
    <path d="M21.1 52.35 Q21.7 52.5 20.85 53.5 19.75 54.7 20.4 55.7 L18.1 55.55 16.9 54.75 Q17.3 54.3 19.2 53.7 20.85 53.15 21.1 52.35" fill="#801293" fill-rule="evenodd" stroke="none"/>
    <path d="M19.0 43.3 L19.0 45.7 14.35 45.55 9.15 45.2 Q9.45 43.4 11.95 41.9 L14.85 43.0 19.0 43.3" fill="#801293" fill-rule="evenodd" stroke="none"/>
    <path d="M22.5 49.95 L18.95 52.45 Q17.05 53.85 14.8 53.8 10.3 53.6 10.0 51.55 9.7 49.8 12.4 47.95 15.1 46.0 17.9 46.25 21.25 46.5 22.5 49.95" fill="#801293" fill-rule="evenodd" stroke="none"/>
    <path d="M9.0 49.85 Q8.5 51.85 9.15 53.8 4.9 54.25 2.9 52.75 1.1 51.45 1.75 49.45 2.4 47.45 5.0 46.4 L11.95 46.15 Q9.6 47.25 9.0 49.85" fill="#801293" fill-rule="evenodd" stroke="none"/>
  </g>
</svg>
