<?xml version="1.0" encoding="UTF-8" standalone="no"?>
<svg xmlns:xlink="http://www.w3.org/1999/xlink" height="60.0px" width="100.0px" xmlns="http://www.w3.org/2000/svg">
  <g transform="matrix(1, 0, 0, 1, 0.0, 0.0)">
    <path d="M82.3 4.65 Q87.15 6.4 88.5 8.45 90.65 11.9 89.85 18.05 88.75 26.35 89.15 29.55 90.45 31.25 92.9 32.85 L96.75 35.4 Q100.8 38.45 99.8 44.0 99.5 45.45 98.0 47.6 96.6 49.6 95.15 50.65 86.15 57.3 61.7 59.35 37.75 61.3 20.7 57.3 14.2 55.75 7.95 52.1 0.65 47.65 0.1 43.4 -0.55 38.6 3.3 35.45 8.4 32.2 10.75 30.1 10.4 25.85 10.55 20.55 L10.75 10.7 Q16.8 2.85 38.4 0.6 47.6 -0.3 57.15 0.15 66.7 0.6 73.9 2.35 L82.3 4.65 M27.95 3.4 Q18.1 6.05 13.4 10.7 17.2 13.8 26.15 15.7 L40.65 17.9 44.85 12.3 Q47.4 9.2 49.95 7.35 53.9 7.3 61.5 11.1 69.4 15.0 71.9 15.15 75.8 15.35 80.05 13.15 83.9 11.1 86.5 7.9 80.3 4.3 69.8 2.35 59.65 0.5 48.5 0.75 37.0 1.0 27.95 3.4 M46.25 14.0 Q44.25 16.2 43.25 17.85 40.45 22.55 43.95 25.65 47.55 23.0 49.15 19.6 51.25 15.2 49.3 10.7 L46.25 14.0 M40.65 19.0 L24.75 16.45 Q16.45 14.55 12.05 11.25 11.45 13.75 11.6 17.9 11.75 22.7 11.4 25.1 15.0 25.35 17.4 27.05 19.4 28.55 20.7 31.2 24.05 27.85 30.25 29.75 34.7 31.1 39.3 34.55 40.85 32.25 40.7 26.85 40.45 20.05 40.65 19.0 M43.35 27.85 Q44.65 26.65 43.95 26.2 43.85 26.8 43.1 26.7 42.5 26.6 41.95 26.2 L41.9 29.45 Q41.9 31.6 42.65 30.65 41.85 29.2 43.35 27.85 M55.95 22.35 L57.35 22.9 Q58.5 23.25 58.6 22.35 57.8 22.75 56.75 22.1 56.0 21.65 55.95 22.35 M54.6 21.25 L52.0 20.5 Q50.55 19.95 51.3 20.7 51.7 21.15 53.7 21.6 55.65 22.1 54.6 21.25 M50.6 30.1 L59.65 33.4 Q65.05 35.25 69.9 35.65 70.15 34.15 69.6 32.0 69.0 29.85 69.2 28.45 66.0 26.4 60.5 24.65 L50.6 21.8 50.6 30.1 M49.3 22.9 Q48.0 24.8 44.7 27.95 42.25 31.15 43.3 35.65 47.1 34.2 49.0 30.85 51.2 27.05 49.3 22.9 M50.6 31.2 Q51.1 32.25 53.35 32.95 55.7 33.6 56.6 32.9 L53.5 32.15 50.6 31.2 M50.6 19.0 L59.25 22.05 Q64.4 23.85 68.55 24.55 69.35 23.6 69.3 21.0 L69.2 16.8 Q62.2 13.3 50.6 9.6 L50.6 19.0 M11.55 29.7 Q11.15 31.45 11.4 32.9 14.9 34.9 16.7 36.75 20.55 35.55 23.75 37.85 L28.7 42.85 29.9 41.45 Q30.75 40.7 32.0 40.65 L35.8 41.9 Q37.95 42.7 38.65 44.0 38.75 43.3 39.7 42.95 L41.3 42.3 41.35 38.4 Q41.4 36.0 40.65 35.1 39.7 34.9 39.15 35.8 38.65 36.65 37.3 36.2 37.5 35.0 36.1 34.2 34.6 33.35 34.65 32.35 32.8 32.25 32.0 32.9 32.0 31.25 29.1 30.85 25.85 30.4 25.35 29.55 23.7 31.85 19.35 31.75 18.4 29.55 16.85 28.35 15.0 26.9 12.05 26.8 12.1 27.7 11.55 29.7 M23.4 39.25 Q20.7 37.15 16.05 37.85 L13.7 35.95 11.4 34.0 Q11.45 35.3 12.3 38.55 13.0 41.25 12.75 43.4 18.9 47.65 24.55 49.65 31.85 52.25 40.65 52.3 L41.35 47.75 Q41.7 44.8 40.65 43.4 40.9 44.3 40.05 44.6 L38.65 45.1 Q36.2 43.2 33.75 42.8 31.25 42.4 27.35 43.4 24.9 40.45 23.4 39.25 M10.9 37.8 Q11.0 34.4 9.4 32.35 L4.5 36.05 Q1.75 38.05 1.45 40.65 1.1 43.1 3.05 45.95 4.8 48.5 7.4 50.1 12.75 53.35 24.35 55.65 35.25 57.85 47.3 58.4 60.0 59.0 74.65 56.0 89.05 53.1 94.5 48.95 100.25 44.6 98.1 39.3 96.15 34.5 89.15 31.75 88.9 33.45 89.6 36.75 90.25 39.85 89.85 41.2 88.8 44.45 82.7 47.95 76.75 51.35 73.2 51.2 72.4 51.15 70.95 50.45 L69.2 49.5 65.15 48.15 61.25 46.75 56.05 43.65 Q53.0 41.8 50.6 41.75 48.85 43.85 45.75 48.25 42.8 52.1 40.0 53.95 15.35 50.8 11.4 42.85 10.75 41.6 10.9 37.8 M51.3 39.55 Q52.2 39.85 60.1 43.3 65.35 45.6 69.9 46.2 L69.9 42.6 Q69.8 40.6 69.2 39.55 L59.95 35.75 Q54.2 33.6 50.6 33.45 50.4 34.7 51.0 36.45 51.55 38.2 51.3 39.55 M45.95 35.65 Q47.25 35.7 48.9 33.7 50.65 31.6 49.3 32.35 48.95 33.1 47.6 34.0 46.3 34.95 45.95 35.65 M49.3 34.0 Q46.6 35.95 45.05 39.75 43.45 43.7 44.65 46.2 47.6 42.95 48.8 41.0 51.05 37.45 49.3 34.0 M44.65 36.75 L43.35 36.7 Q42.7 36.65 42.65 36.2 42.5 32.5 42.25 32.25 42.1 32.1 42.05 34.25 41.95 40.5 43.3 40.65 43.25 39.6 43.75 38.55 L44.65 36.75 M42.65 50.1 L43.8 48.55 Q44.15 47.6 42.65 47.3 42.15 47.75 41.9 48.8 41.6 50.0 42.65 50.1 M87.15 9.6 Q81.5 15.1 71.9 15.7 L71.9 28.45 75.45 28.95 Q77.25 29.1 78.55 30.1 79.75 30.1 80.2 28.75 80.8 27.05 81.2 26.8 84.45 25.55 85.65 24.9 87.75 23.85 88.5 21.8 89.2 19.95 88.35 15.75 L87.15 9.6 M87.15 25.65 L84.2 26.95 81.2 27.9 Q81.7 31.25 78.55 31.75 77.35 31.65 76.1 30.25 L73.2 30.1 73.2 39.0 76.85 39.55 80.5 40.1 Q80.25 37.85 82.7 37.25 L86.5 36.75 Q87.55 34.25 87.9 30.9 88.25 26.9 87.15 24.55 L87.15 25.65 M68.55 15.7 Q70.3 16.55 70.7 20.25 71.1 24.05 69.2 25.1 67.55 25.4 62.9 23.95 L59.9 24.0 65.65 25.35 Q68.75 26.25 69.9 27.9 70.5 29.75 70.65 32.4 70.8 35.5 69.9 36.75 67.65 36.9 63.45 35.35 59.8 33.95 57.9 34.55 L65.95 37.0 Q70.15 38.75 71.2 41.75 71.9 36.8 71.5 28.9 L70.55 15.7 69.2 15.45 Q68.7 15.25 68.55 15.7 M67.05 14.9 Q67.55 14.95 67.35 14.55 L66.55 13.95 65.25 14.0 Q66.5 14.8 67.05 14.9 M82.5 38.45 Q82.75 39.95 81.55 40.7 L79.2 41.75 Q78.65 40.7 76.75 40.9 L73.2 40.65 Q72.6 41.95 73.0 44.9 73.5 48.35 73.2 50.1 80.5 48.15 84.15 45.8 89.4 42.35 88.5 37.3 88.25 36.65 87.15 36.75 86.65 38.2 85.5 38.25 L82.5 38.45 M71.9 49.5 L71.95 47.25 Q72.1 45.8 71.2 45.65 71.5 47.5 69.25 47.2 L66.55 47.3 Q67.75 47.6 69.3 48.35 L71.9 49.5" fill="#000000" fill-rule="evenodd" stroke="none"/>
    <path d="M11.4 42.85 Q15.35 50.8 40.0 53.95 42.8 52.1 45.75 48.25 48.85 43.85 50.6 41.75 53.0 41.8 56.05 43.65 L61.25 46.75 65.15 48.15 69.2 49.5 70.95 50.45 Q72.4 51.15 73.2 51.2 76.75 51.35 82.7 47.95 88.8 44.45 89.85 41.2 90.25 39.85 89.6 36.75 88.9 33.45 89.15 31.75 96.15 34.5 98.1 39.3 100.25 44.6 94.5 48.95 89.05 53.1 74.65 56.0 60.0 59.0 47.3 58.4 35.25 57.85 24.35 55.65 12.75 53.35 7.4 50.1 4.8 48.5 3.05 45.95 1.1 43.1 1.45 40.65 1.75 38.05 4.5 36.05 L9.4 32.35 Q11.0 34.4 10.9 37.8 10.75 41.6 11.4 42.85" fill="url(#gradient0)" fill-rule="evenodd" stroke="none"/>
    <path d="M88.5 21.8 Q87.75 23.85 85.65 24.9 84.45 25.55 81.2 26.8 80.8 27.05 80.2 28.75 79.75 30.1 78.55 30.1 77.25 29.1 75.45 28.95 L71.9 28.45 71.9 15.7 Q81.5 15.1 87.15 9.6 L88.35 15.75 Q89.2 19.95 88.5 21.8" fill="#754213" fill-rule="evenodd" stroke="none"/>
    <path d="M85.5 38.25 Q86.65 38.2 87.15 36.75 88.25 36.65 88.5 37.3 89.4 42.35 84.15 45.8 80.5 48.15 73.2 50.1 73.5 48.35 73.0 44.9 72.6 41.95 73.2 40.65 L76.75 40.9 Q78.65 40.7 79.2 41.75 L81.55 40.7 Q82.75 39.95 82.5 38.45 L85.5 38.25" fill="#754213" fill-rule="evenodd" stroke="none"/>
    <path d="M87.15 24.55 Q88.25 26.9 87.9 30.9 87.55 34.25 86.5 36.75 L82.7 37.25 Q80.25 37.85 80.5 40.1 L76.85 39.55 73.2 39.0 73.2 30.1 76.1 30.25 Q77.35 31.65 78.55 31.75 81.7 31.25 81.2 27.9 L84.2 26.95 87.15 25.65 87.15 24.55" fill="#eda4b0" fill-rule="evenodd" stroke="none"/>
    <path d="M48.5 0.75 Q59.65 0.5 69.8 2.35 80.3 4.3 86.5 7.9 83.9 11.1 80.05 13.15 75.8 15.35 71.9 15.15 69.4 15.0 61.5 11.1 53.9 7.3 49.95 7.35 47.4 9.2 44.85 12.3 L40.65 17.9 26.15 15.7 Q17.2 13.8 13.4 10.7 18.1 6.05 27.95 3.4 37.0 1.0 48.5 0.75" fill="#754213" fill-rule="evenodd" stroke="none"/>
    <path d="M71.2 45.65 Q72.1 45.8 71.95 47.25 L71.9 49.5 69.3 48.35 Q67.75 47.6 66.55 47.3 L69.25 47.2 Q71.5 47.5 71.2 45.65" fill="#eda4b0" fill-rule="evenodd" stroke="none"/>
    <path d="M70.55 15.7 L71.5 28.9 Q71.9 36.8 71.2 41.75 70.15 38.75 65.95 37.0 L57.9 34.55 Q59.8 33.95 63.45 35.35 67.65 36.9 69.9 36.75 70.8 35.5 70.65 32.4 70.5 29.75 69.9 27.9 68.75 26.25 65.65 25.35 L59.9 24.0 62.9 23.95 Q67.55 25.4 69.2 25.1 71.1 24.05 70.7 20.25 70.3 16.55 68.55 15.7 68.7 15.25 69.2 15.45 L70.55 15.7" fill="#eda4b0" fill-rule="evenodd" stroke="none"/>
    <path d="M50.6 21.8 L60.5 24.65 Q66.0 26.4 69.2 28.45 69.0 29.85 69.6 32.0 70.15 34.15 69.9 35.65 65.05 35.25 59.65 33.4 L50.6 30.1 50.6 21.8" fill="#f4dca6" fill-rule="evenodd" stroke="none"/>
    <path d="M50.6 33.45 Q54.2 33.6 59.95 35.75 L69.2 39.55 Q69.8 40.6 69.9 42.6 L69.9 46.2 Q65.35 45.6 60.1 43.3 52.2 39.85 51.3 39.55 51.55 38.2 51.0 36.45 50.4 34.7 50.6 33.45" fill="#f4dca6" fill-rule="evenodd" stroke="none"/>
    <path d="M50.6 9.6 Q62.2 13.3 69.2 16.8 L69.3 21.0 Q69.35 23.6 68.55 24.55 64.4 23.85 59.25 22.05 L50.6 19.0 50.6 9.6" fill="#f4dca6" fill-rule="evenodd" stroke="none"/>
    <path d="M65.25 14.0 L66.55 13.95 67.35 14.55 Q67.55 14.95 67.05 14.9 66.5 14.8 65.25 14.0" fill="#eda4b0" fill-rule="evenodd" stroke="none"/>
    <path d="M55.95 22.35 Q56.0 21.65 56.75 22.1 57.8 22.75 58.6 22.35 58.5 23.25 57.35 22.9 L55.95 22.35" fill="#eda4b0" fill-rule="evenodd" stroke="none"/>
    <path d="M53.5 32.15 L56.6 32.9 Q55.7 33.6 53.35 32.95 51.1 32.25 50.6 31.2 L53.5 32.15" fill="#eda4b0" fill-rule="evenodd" stroke="none"/>
    <path d="M54.6 21.25 Q55.65 22.1 53.7 21.6 51.7 21.15 51.3 20.7 50.55 19.95 52.0 20.5 L54.6 21.25" fill="#eda4b0" fill-rule="evenodd" stroke="none"/>
    <path d="M47.6 34.0 Q48.95 33.1 49.3 32.35 50.65 31.6 48.9 33.7 47.25 35.7 45.95 35.65 46.3 34.95 47.6 34.0" fill="#eda4b0" fill-rule="evenodd" stroke="none"/>
    <path d="M49.3 10.7 Q51.25 15.2 49.15 19.6 47.55 23.0 43.95 25.65 40.45 22.55 43.25 17.85 44.25 16.2 46.25 14.0 L49.3 10.7" fill="#f4dca6" fill-rule="evenodd" stroke="none"/>
    <path d="M49.3 22.9 Q51.2 27.05 49.0 30.85 47.1 34.2 43.3 35.65 42.25 31.15 44.7 27.95 48.0 24.8 49.3 22.9" fill="#f4dca6" fill-rule="evenodd" stroke="none"/>
    <path d="M49.3 34.0 Q51.05 37.45 48.8 41.0 47.6 42.95 44.65 46.2 43.45 43.7 45.05 39.75 46.6 35.95 49.3 34.0" fill="#f4dca6" fill-rule="evenodd" stroke="none"/>
    <path d="M43.95 26.2 Q44.65 26.65 43.35 27.85 41.85 29.2 42.65 30.65 41.9 31.6 41.9 29.45 L41.95 26.2 Q42.5 26.6 43.1 26.7 43.85 26.8 43.95 26.2" fill="#eda4b0" fill-rule="evenodd" stroke="none"/>
    <path d="M42.05 34.25 Q42.1 32.1 42.25 32.25 42.5 32.5 42.65 36.2 42.7 36.65 43.35 36.7 L44.65 36.75 43.75 38.55 Q43.25 39.6 43.3 40.65 41.95 40.5 42.05 34.25" fill="#eda4b0" fill-rule="evenodd" stroke="none"/>
    <path d="M42.65 47.3 Q44.15 47.6 43.8 48.55 L42.65 50.1 Q41.6 50.0 41.9 48.8 42.15 47.75 42.65 47.3" fill="#eda4b0" fill-rule="evenodd" stroke="none"/>
    <path d="M29.1 30.85 Q32.0 31.25 32.0 32.9 32.8 32.25 34.65 32.35 34.6 33.35 36.1 34.2 37.5 35.0 37.3 36.2 38.65 36.65 39.15 35.8 39.7 34.9 40.65 35.1 41.4 36.0 41.35 38.4 L41.3 42.3 39.7 42.95 Q38.75 43.3 38.65 44.0 37.95 42.7 35.8 41.9 L32.0 40.65 Q30.75 40.7 29.9 41.45 L28.7 42.85 23.75 37.85 Q20.55 35.55 16.7 36.75 14.9 34.9 11.4 32.9 11.15 31.45 11.55 29.7 12.1 27.7 12.05 26.8 15.0 26.9 16.85 28.35 18.4 29.55 19.35 31.75 23.7 31.85 25.35 29.55 25.85 30.4 29.1 30.85" fill="#eda4b0" fill-rule="evenodd" stroke="none"/>
    <path d="M27.35 43.4 Q31.25 42.4 33.75 42.8 36.2 43.2 38.65 45.1 L40.05 44.6 Q40.9 44.3 40.65 43.4 41.7 44.8 41.35 47.75 L40.65 52.3 Q31.85 52.25 24.55 49.65 18.9 47.65 12.75 43.4 13.0 41.25 12.3 38.55 11.45 35.3 11.4 34.0 L13.7 35.95 16.05 37.85 Q20.7 37.15 23.4 39.25 24.9 40.45 27.35 43.4" fill="#754213" fill-rule="evenodd" stroke="none"/>
    <path d="M40.7 26.85 Q40.85 32.25 39.3 34.55 34.7 31.1 30.25 29.75 24.05 27.85 20.7 31.2 19.4 28.55 17.4 27.05 15.0 25.35 11.4 25.1 11.75 22.7 11.6 17.9 11.45 13.75 12.05 11.25 16.45 14.55 24.75 16.45 L40.65 19.0 Q40.45 20.05 40.7 26.85" fill="#754213" fill-rule="evenodd" stroke="none"/>
  </g>
  <defs>
    <linearGradient gradientTransform="matrix(0.0594, 0.0, 0.0, -0.0495, 50.0, 45.15)" gradientUnits="userSpaceOnUse" id="gradient0" spreadMethod="pad" x1="-819.2" x2="819.2">
      <stop offset="0.0" stop-color="#ffffff"/>
      <stop offset="1.0" stop-color="#000000"/>
    </linearGradient>
  </defs>
</svg>
