<?xml version="1.0" encoding="UTF-8" standalone="no"?>
<svg xmlns:xlink="http://www.w3.org/1999/xlink" height="60.0px" width="69.5px" xmlns="http://www.w3.org/2000/svg">
  <g transform="matrix(1, 0, 0, 1, -15.0, 0.0)">
    <path d="M64.35 7.8 Q64.9 6.15 63.5 5.95 L60.75 6.0 Q67.1 3.25 74.35 8.3 81.2 13.05 82.95 19.8 85.25 28.6 80.5 38.25 76.85 45.6 70.35 51.6 69.95 51.15 71.2 49.65 72.7 47.9 72.15 46.2 L69.45 50.1 66.75 54.0 Q65.3 53.2 64.15 54.4 L61.95 56.4 Q57.9 58.05 51.5 58.2 45.2 58.35 40.35 57.0 39.9 56.85 39.45 56.1 L38.55 55.2 Q37.95 55.0 36.65 55.2 L34.95 55.2 Q32.25 54.25 30.35 51.5 28.85 49.25 27.75 45.6 26.85 46.05 27.1 47.65 27.35 49.15 28.1 49.65 24.0 47.8 20.75 43.5 17.05 38.7 16.35 33.0 15.35 24.55 19.0 17.2 22.6 9.95 28.95 7.2 L31.25 8.8 Q32.6 9.8 34.35 9.6 29.15 13.75 27.0 17.05 23.5 22.3 24.75 28.2 24.85 22.0 28.75 16.75 31.75 12.75 36.15 10.2 37.55 10.25 37.1 10.5 36.2 11.15 36.15 11.4 L37.7 11.35 39.8 10.55 Q42.65 9.55 43.95 11.4 44.25 13.4 42.9 14.85 41.15 16.65 40.95 17.4 41.1 18.15 42.65 18.1 L45.15 18.0 Q46.2 17.25 48.15 14.1 49.8 11.4 51.75 10.8 52.5 10.9 53.1 11.85 53.7 13.0 54.15 13.2 55.25 11.55 58.5 10.95 L64.35 10.2 Q64.85 8.35 62.2 8.5 L60.3 8.4 Q59.45 8.15 59.55 7.2 L62.25 7.2 Q63.8 7.2 64.35 7.8 M68.55 8.4 Q73.15 12.9 75.75 18.6 75.1 10.6 68.55 8.4" fill="#f90e08" fill-rule="evenodd" stroke="none"/>
    <path d="M68.55 8.4 Q75.1 10.6 75.75 18.6 73.15 12.9 68.55 8.4" fill="#000000" fill-rule="evenodd" stroke="none"/>
    <path d="M64.35 3.6 Q74.65 5.2 79.95 11.55 84.65 17.3 84.5 25.7 84.25 33.65 79.85 41.35 75.3 49.3 67.95 54.0 L67.05 54.9 66.15 55.8 65.25 55.75 64.35 55.8 64.35 56.4 64.35 57.0 58.5 58.75 51.75 60.0 43.9 59.1 Q39.65 58.25 36.15 57.0 33.0 55.9 28.95 52.95 25.35 50.4 22.35 47.4 16.85 41.95 15.75 36.0 13.2 22.1 19.4 13.5 25.0 5.7 36.75 3.6 L39.6 4.05 Q41.25 4.35 42.15 4.8 42.3 3.45 42.1 2.2 L41.55 0.0 Q43.35 -0.1 45.2 2.5 46.8 4.85 48.15 4.2 49.5 4.45 49.4 2.5 49.35 0.2 49.95 0.0 53.3 0.95 54.15 4.2 56.35 4.45 58.7 3.1 61.2 1.7 63.15 1.8 64.35 1.75 64.7 2.35 65.0 2.9 64.35 3.6 M62.2 8.5 Q64.85 8.35 64.35 10.2 L58.5 10.95 Q55.25 11.55 54.15 13.2 53.7 13.0 53.1 11.85 52.5 10.9 51.75 10.8 49.8 11.4 48.15 14.1 46.2 17.25 45.15 18.0 L42.65 18.1 Q41.1 18.15 40.95 17.4 41.15 16.65 42.9 14.85 44.25 13.4 43.95 11.4 42.65 9.55 39.8 10.55 L37.7 11.35 36.15 11.4 Q36.2 11.15 37.1 10.5 37.55 10.25 36.15 10.2 31.75 12.75 28.75 16.75 24.85 22.0 24.75 28.2 23.5 22.3 27.0 17.05 29.15 13.75 34.35 9.6 32.6 9.8 31.25 8.8 L28.95 7.2 Q22.6 9.95 19.0 17.2 15.35 24.55 16.35 33.0 17.05 38.7 20.75 43.5 24.0 47.8 28.1 49.65 27.35 49.15 27.1 47.65 26.85 46.05 27.75 45.6 28.85 49.25 30.35 51.5 32.25 54.25 34.95 55.2 L36.65 55.2 Q37.95 55.0 38.55 55.2 L39.45 56.1 Q39.9 56.85 40.35 57.0 45.2 58.35 51.5 58.2 57.9 58.05 61.95 56.4 L64.15 54.4 Q65.3 53.2 66.75 54.0 L69.45 50.1 72.15 46.2 Q72.7 47.9 71.2 49.65 69.95 51.15 70.35 51.6 76.85 45.6 80.5 38.25 85.25 28.6 82.95 19.8 81.2 13.05 74.35 8.3 67.1 3.25 60.75 6.0 L63.5 5.95 Q64.9 6.15 64.35 7.8 63.8 7.2 62.25 7.2 L59.55 7.2 Q59.45 8.15 60.3 8.4 L62.2 8.5 M57.0 5.55 Q55.45 6.45 54.75 7.8 56.4 7.55 57.85 6.4 L60.15 4.2 Q58.05 4.9 57.0 5.55 M45.3 4.95 L43.35 3.0 Q43.15 4.2 43.85 5.2 44.6 6.35 44.55 7.2 L46.4 7.3 Q47.6 7.35 47.55 6.6 46.45 6.05 45.3 4.95 M45.5 11.8 Q44.65 13.3 43.35 16.8 45.45 16.2 47.55 12.9 49.65 9.6 51.75 9.0 52.35 8.85 53.7 9.9 54.75 10.75 55.35 9.6 53.65 9.85 52.8 7.2 51.95 4.7 51.75 4.8 51.75 6.15 51.2 7.3 L49.95 9.0 Q47.05 9.1 45.5 11.8 M34.95 8.4 L40.85 8.65 45.15 9.0 Q43.15 7.1 40.35 7.05 37.8 6.95 34.95 8.4 M39.15 5.4 L34.3 5.65 Q31.9 6.05 30.75 7.2 L35.5 6.85 39.15 5.4" fill="#000000" fill-rule="evenodd" stroke="none"/>
    <path d="M60.15 4.2 L57.85 6.4 Q56.4 7.55 54.75 7.8 55.45 6.45 57.0 5.55 58.05 4.9 60.15 4.2" fill="#29cc17" fill-rule="evenodd" stroke="none"/>
    <path d="M51.75 4.8 Q51.95 4.7 52.8 7.2 53.65 9.85 55.35 9.6 54.75 10.75 53.7 9.9 52.35 8.85 51.75 9.0 49.65 9.6 47.55 12.9 45.45 16.2 43.35 16.8 44.65 13.3 45.5 11.8 47.05 9.1 49.95 9.0 L51.2 7.3 Q51.75 6.15 51.75 4.8" fill="#29cc17" fill-rule="evenodd" stroke="none"/>
    <path d="M47.55 6.6 Q47.6 7.35 46.4 7.3 L44.55 7.2 Q44.6 6.35 43.85 5.2 43.15 4.2 43.35 3.0 L45.3 4.95 Q46.45 6.05 47.55 6.6" fill="#29cc17" fill-rule="evenodd" stroke="none"/>
    <path d="M45.15 9.0 L40.85 8.65 34.95 8.4 Q37.8 6.95 40.35 7.05 43.15 7.1 45.15 9.0" fill="#29cc17" fill-rule="evenodd" stroke="none"/>
    <path d="M35.5 6.85 L30.75 7.2 Q31.9 6.05 34.3 5.65 L39.15 5.4 35.5 6.85" fill="#f90e08" fill-rule="evenodd" stroke="none"/>
  </g>
</svg>
