<?xml version="1.0" encoding="UTF-8" standalone="no"?>
<svg xmlns:xlink="http://www.w3.org/1999/xlink" height="59.95px" width="30.6px" xmlns="http://www.w3.org/2000/svg">
  <g transform="matrix(1, 0, 0, 1, -30.0, -0.05)">
    <path d="M59.65 5.7 Q53.95 7.45 46.65 7.85 38.0 8.35 33.55 6.2 40.5 7.65 47.75 7.3 56.45 6.85 59.65 3.65 54.0 0.5 45.7 0.75 37.5 1.0 32.05 4.15 31.75 5.0 32.55 5.2 33.35 5.4 33.05 6.2 31.9 6.25 31.7 6.65 L31.55 7.7 Q30.1 12.55 30.6 17.9 31.05 23.05 33.15 27.55 35.25 32.1 38.5 34.8 42.0 37.7 46.1 37.9 46.05 38.6 44.35 38.4 42.6 38.2 42.6 38.9 44.7 41.3 43.95 47.45 L42.6 55.5 Q41.1 55.75 41.3 54.5 L41.35 53.7 Q41.25 53.35 40.6 53.5 L35.55 54.25 Q32.8 54.85 32.05 56.5 35.65 59.3 44.3 59.25 52.55 59.25 57.1 57.0 56.35 54.9 53.5 54.1 L47.6 53.5 47.55 54.7 Q47.5 55.4 47.1 55.5 45.45 52.15 45.6 46.3 45.75 41.1 47.1 36.9 54.8 34.05 57.95 25.35 60.8 17.5 59.65 5.7 M60.35 18.8 Q59.55 26.85 56.1 31.35 L53.7 33.5 51.1 35.35 48.75 37.25 Q47.4 38.35 46.6 39.4 L46.6 52.0 Q47.5 52.5 49.4 52.8 L52.85 53.25 Q57.2 54.0 58.15 56.5 56.8 58.05 53.05 59.05 L45.15 60.0 Q34.85 60.15 31.55 56.5 32.05 54.0 36.6 53.2 L40.1 52.7 Q41.95 52.45 42.6 52.0 43.35 48.6 43.2 44.45 43.0 39.8 41.6 37.9 34.05 34.75 31.3 24.65 28.85 15.45 31.05 3.65 35.9 0.35 45.45 0.05 55.25 -0.25 60.15 3.15 60.95 12.85 60.35 18.8" fill="#000000" fill-rule="evenodd" stroke="none"/>
    <path d="M55.3 20.85 Q55.9 18.45 55.15 17.25 54.8 17.8 54.65 20.3 54.55 22.4 53.65 22.8 53.6 22.65 54.1 21.15 54.45 20.1 53.65 19.8 53.75 20.5 52.85 22.4 52.2 23.95 53.15 24.8 53.05 23.45 53.3 23.5 L54.15 24.3 55.3 20.85 M32.6 9.7 Q32.7 10.8 32.3 12.45 31.9 14.0 32.1 15.25 33.35 15.5 33.25 12.2 L32.95 10.1 Q32.75 9.25 32.6 9.7 M32.1 4.2 Q37.55 1.0 45.7 0.75 54.05 0.55 59.65 3.65 56.5 6.85 47.8 7.3 40.5 7.65 33.6 6.2 38.0 8.35 46.7 7.9 54.0 7.45 59.65 5.7 60.8 17.5 58.0 25.35 54.8 34.05 47.1 36.9 45.75 41.1 45.6 46.3 45.5 52.15 47.1 55.5 47.55 55.4 47.6 54.75 L47.65 53.5 53.5 54.1 Q56.4 54.9 57.15 57.0 52.55 59.25 44.3 59.25 35.65 59.3 32.1 56.5 32.85 54.9 35.6 54.3 L40.6 53.5 Q41.25 53.35 41.4 53.7 L41.35 54.5 Q41.15 55.75 42.6 55.5 L43.95 47.45 Q44.7 41.3 42.6 38.9 42.65 38.2 44.35 38.4 46.1 38.6 46.1 37.9 42.0 37.7 38.5 34.8 35.25 32.1 33.15 27.55 31.1 23.05 30.65 17.9 30.15 12.55 31.6 7.7 L31.75 6.65 Q31.9 6.25 33.1 6.2 33.4 5.4 32.6 5.2 31.75 5.0 32.1 4.2 M52.15 26.8 L52.5 26.0 Q52.65 25.55 52.15 25.3 L51.75 26.15 Q51.6 26.6 52.15 26.8 M51.65 58.0 Q53.5 58.2 54.15 57.0 L52.35 56.95 Q51.3 57.0 51.65 58.0 M44.7 55.6 L45.6 55.0 Q44.55 54.8 44.1 55.0 43.75 55.1 44.0 55.35 L44.7 55.6 M48.2 58.6 Q49.2 58.7 49.15 58.0 L47.55 57.95 Q46.55 57.9 46.6 58.55 L48.2 58.6 M33.1 55.5 Q33.2 57.0 35.1 57.5 L38.1 58.55 Q37.9 57.25 35.85 56.75 33.5 56.2 33.1 55.5" fill="#bdefe2" fill-opacity="0.49803922" fill-rule="evenodd" stroke="none"/>
    <path d="M55.1 17.25 Q55.85 18.45 55.25 20.85 L54.1 24.3 53.3 23.5 Q53.05 23.45 53.1 24.8 52.15 23.9 52.85 22.4 53.75 20.5 53.6 19.75 54.45 20.05 54.1 21.15 L53.6 22.8 Q54.5 22.4 54.65 20.3 54.75 17.8 55.1 17.25" fill="#000000" fill-rule="evenodd" stroke="none"/>
    <path d="M52.3 56.95 L54.1 57.0 Q53.45 58.15 51.6 58.0 51.3 57.0 52.3 56.95" fill="#000000" fill-rule="evenodd" stroke="none"/>
    <path d="M52.1 25.3 Q52.65 25.55 52.45 26.0 L52.1 26.8 Q51.55 26.6 51.75 26.15 L52.1 25.3" fill="#000000" fill-rule="evenodd" stroke="none"/>
    <path d="M49.1 58.0 Q49.15 58.65 48.15 58.6 L46.6 58.5 Q46.55 57.9 47.5 57.95 L49.1 58.0" fill="#000000" fill-rule="evenodd" stroke="none"/>
    <path d="M45.6 55.0 Q45.2 55.55 44.65 55.6 L43.95 55.35 Q43.7 55.1 44.1 54.95 L45.6 55.0" fill="#000000" fill-rule="evenodd" stroke="none"/>
    <path d="M35.05 57.5 Q33.15 57.0 33.05 55.5 33.5 56.2 35.85 56.75 37.9 57.25 38.05 58.5 L35.05 57.5" fill="#000000" fill-rule="evenodd" stroke="none"/>
    <path d="M32.55 9.7 Q32.75 9.25 32.95 10.1 L33.2 12.15 Q33.35 15.5 32.05 15.25 31.85 14.0 32.25 12.45 32.7 10.8 32.55 9.7" fill="#000000" fill-rule="evenodd" stroke="none"/>
  </g>
</svg>
