<?xml version="1.0" encoding="UTF-8" standalone="no"?>
<svg xmlns:xlink="http://www.w3.org/1999/xlink" height="47.1px" width="100.0px" xmlns="http://www.w3.org/2000/svg">
  <g transform="matrix(1, 0, 0, 1, 0.0, 0.0)">
    <path d="M77.5 5.1 Q81.15 3.15 86.55 4.05 91.1 4.8 94.4 7.0 94.05 9.85 96.2 11.45 L98.2 12.6 100.0 13.85 Q99.75 19.05 95.65 20.1 L96.15 22.4 Q96.4 23.75 96.25 25.1 89.2 29.3 80.65 37.0 76.15 41.0 73.05 42.45 67.5 45.05 62.5 42.6 61.4 43.6 61.25 46.35 53.85 47.65 47.3 46.7 39.9 45.65 36.9 41.95 L20.15 41.45 Q11.8 40.05 5.65 36.35 L5.65 32.6 Q5.25 32.2 3.05 32.25 0.85 32.25 0.0 31.35 0.35 26.25 5.65 26.35 4.7 25.35 4.45 23.2 4.25 21.75 4.4 18.85 6.8 15.85 11.05 13.35 13.7 11.85 19.3 9.45 25.05 7.0 27.6 5.5 31.95 3.1 34.4 0.1 36.15 -0.15 37.2 0.7 L38.75 2.6 Q39.55 1.05 42.5 0.1 L58.45 0.7 73.15 2.6 Q74.45 2.65 75.55 3.6 L77.5 5.1 M62.05 2.1 L43.15 1.35 Q42.4 1.55 41.9 2.6 L53.5 16.9 Q60.5 25.65 66.25 30.1 69.4 28.95 71.3 27.75 73.25 26.5 75.0 24.5 L78.9 19.8 Q81.1 17.2 83.15 15.75 84.0 15.1 88.7 12.9 92.05 11.35 93.75 8.85 91.55 5.65 86.45 4.85 81.35 4.1 77.5 6.35 71.95 3.2 62.05 2.1 M93.15 11.35 Q91.45 12.95 88.45 14.1 85.05 15.45 83.75 16.35 81.9 17.7 79.8 20.4 L76.15 25.1 Q71.55 30.55 65.65 30.75 L65.65 35.1 Q71.65 34.55 75.8 30.95 79.05 28.1 81.9 22.6 83.1 21.55 85.3 20.4 L89.0 18.5 Q93.4 16.1 94.4 12.6 93.95 12.6 93.7 12.05 L93.15 11.35 M95.65 12.6 L95.65 15.1 Q94.85 15.25 94.05 16.05 L92.5 17.6 Q91.55 18.35 88.8 19.75 86.95 21.0 88.75 22.0 88.8 20.25 89.6 20.35 90.05 20.4 91.25 21.35 L92.45 19.75 93.15 18.25 94.05 18.85 95.0 19.5 Q94.55 17.3 95.5 17.4 97.1 17.6 97.5 17.0 96.05 17.0 95.65 15.75 96.05 15.75 96.3 15.15 96.55 14.55 96.9 14.5 96.75 16.1 98.75 15.75 98.75 14.9 98.4 14.75 98.05 14.6 97.5 15.1 L96.8 13.65 Q96.4 12.75 95.65 12.6 M12.9 13.65 Q8.65 16.0 6.25 18.85 16.5 24.1 21.95 25.75 31.8 28.75 40.0 26.35 41.85 29.9 48.35 31.0 54.55 32.05 59.4 30.1 55.2 25.5 47.5 15.4 39.9 5.4 35.65 0.75 33.3 3.7 29.1 6.1 26.5 7.6 21.05 9.9 15.35 12.25 12.9 13.65 M40.65 5.1 Q42.55 7.1 46.2 12.05 49.65 16.7 51.9 18.85 53.2 21.25 55.45 23.75 L59.4 28.25 60.75 31.1 Q62.2 33.35 64.4 32.6 62.65 28.3 58.4 23.85 53.45 19.05 51.25 16.35 L46.0 9.35 Q42.85 5.0 40.65 2.6 L40.65 5.1 M48.9 31.9 Q42.15 31.4 39.4 28.25 39.2 30.15 38.15 30.75 L38.15 28.25 Q28.55 29.05 19.85 26.2 17.8 25.55 5.65 20.1 5.45 21.5 5.7 22.85 L6.25 25.1 Q22.45 34.8 38.15 32.0 L41.1 34.4 Q43.35 36.35 45.65 37.0 50.75 38.45 55.2 37.8 60.85 36.95 60.65 32.6 L54.8 32.1 48.9 31.9 M38.8 39.5 Q38.65 40.5 37.5 40.1 37.4 38.4 38.15 37.6 L31.45 37.45 Q28.35 37.45 26.9 38.85 L24.8 38.75 23.15 37.6 22.9 38.3 Q22.55 38.95 21.9 38.85 20.75 38.75 19.15 37.55 L16.25 35.75 Q16.45 32.75 15.0 32.0 13.1 33.15 11.05 32.75 L6.9 32.6 Q7.9 39.4 21.25 40.7 23.95 41.0 29.3 40.8 34.95 40.55 37.5 40.7 40.8 44.3 47.05 45.65 53.1 46.95 60.0 45.7 60.55 45.15 60.7 43.2 60.9 41.1 60.0 40.7 57.8 44.0 53.8 43.5 50.05 43.05 48.15 40.1 46.8 40.05 45.05 40.7 43.3 41.4 41.25 41.35 41.75 39.65 40.55 38.9 L38.75 37.6 38.8 39.5 M42.55 38.0 Q43.3 38.05 43.75 37.0 L42.45 36.7 Q41.8 36.3 41.25 36.35 41.25 37.3 40.65 38.2 L42.55 38.0 M36.3 33.95 Q37.95 34.05 38.15 33.25 L35.55 33.15 Q33.9 33.05 33.75 33.85 L36.3 33.95 M53.05 38.8 Q51.8 38.7 51.9 39.45 52.45 39.55 52.5 40.4 L52.5 41.95 Q54.6 42.3 54.7 41.0 L55.0 38.85 53.05 38.8 M45.25 38.0 Q45.0 36.75 44.4 38.2 44.2 38.5 44.45 39.0 L45.0 39.45 Q45.55 39.4 45.25 38.0 M11.2 29.2 Q8.4 28.55 8.15 27.0 7.45 26.9 5.7 27.45 4.55 27.8 3.75 27.0 4.3 28.85 4.1 29.3 L3.3 29.4 Q1.55 28.8 1.25 30.75 L7.75 30.7 14.4 31.35 Q14.15 29.85 11.2 29.2 M16.25 30.75 Q16.55 31.75 17.6 33.35 18.35 34.5 18.15 35.75 L20.2 35.65 Q21.2 35.4 21.25 34.5 20.05 34.9 19.95 33.9 L20.0 32.0 Q18.85 32.15 17.9 31.6 16.4 30.8 16.25 30.75 M27.5 37.0 L23.7 35.9 Q21.2 35.45 21.25 37.6 22.55 36.9 24.95 37.25 L27.5 37.0 M21.25 32.6 Q23.75 35.45 30.2 36.45 36.85 37.4 40.0 35.1 L30.25 34.9 Q23.8 34.55 21.25 32.6 M95.0 21.35 L90.8 22.1 Q89.1 22.5 88.15 23.85 L89.15 24.1 Q89.55 24.4 89.4 25.1 88.8 26.4 86.9 27.3 83.8 28.8 83.75 28.85 84.25 28.95 84.5 29.65 L85.0 30.75 Q82.65 31.15 80.65 32.2 L77.5 33.85 Q79.3 33.75 78.55 35.0 77.75 36.3 76.9 36.35 75.55 35.0 73.95 35.75 73.15 36.15 71.2 37.95 69.45 39.55 68.45 39.8 66.95 40.15 65.65 38.2 L65.65 43.2 Q73.1 42.0 81.05 34.95 L87.45 29.4 Q91.2 26.5 95.0 25.1 L95.0 21.35 M86.95 25.2 Q88.2 25.3 88.15 24.5 85.9 24.25 83.75 22.6 83.2 23.85 80.4 27.25 78.05 30.0 78.15 31.35 78.2 30.55 78.9 31.05 79.9 31.8 80.65 31.35 L80.3 30.1 Q79.95 29.4 80.0 28.85 L81.45 29.65 Q82.25 30.15 83.15 30.1 82.7 28.15 83.95 26.9 85.2 25.75 85.0 25.1 L86.95 25.2 M86.9 22.6 Q87.6 22.55 87.5 22.0 87.15 21.05 85.55 21.45 84.0 21.85 85.65 22.6 86.5 21.25 86.55 22.5 L86.55 23.15 86.9 22.6 M76.65 32.35 Q76.7 32.05 76.25 32.0 76.4 32.8 74.45 33.5 72.95 34.05 73.75 34.5 74.4 33.8 75.2 34.25 L76.9 35.1 Q76.95 34.5 76.55 33.85 L76.25 32.6 Q76.55 32.6 76.65 32.35 M67.95 37.55 Q67.4 37.25 67.5 36.35 L64.2 36.55 Q62.8 36.95 62.5 38.2 L65.8 37.45 67.95 37.55 M62.85 40.15 Q61.95 40.3 61.9 40.7 L62.8 41.35 63.75 41.95 Q63.3 41.25 64.05 40.25 64.55 39.55 63.75 39.45 63.75 40.05 62.85 40.15 M58.75 38.2 Q59.55 39.3 60.2 39.25 60.75 39.2 60.9 38.55 60.95 37.85 60.45 37.65 59.85 37.4 58.75 38.2 M57.5 40.1 Q57.25 41.6 58.15 41.35 58.85 40.4 58.3 39.05 57.8 37.7 56.9 38.85 57.7 38.65 57.5 40.1" fill="#000000" fill-rule="evenodd" stroke="none"/>
    <path d="M96.8 13.65 L97.5 15.1 Q98.05 14.6 98.4 14.75 98.75 14.9 98.75 15.75 96.75 16.1 96.9 14.5 96.55 14.55 96.3 15.15 96.05 15.75 95.65 15.75 96.05 17.0 97.5 17.0 97.1 17.6 95.5 17.4 94.55 17.3 95.0 19.5 L94.05 18.85 93.15 18.25 92.45 19.75 91.25 21.35 Q90.05 20.4 89.6 20.35 88.8 20.25 88.75 22.0 86.95 21.0 88.8 19.75 91.55 18.35 92.5 17.6 L94.05 16.05 Q94.85 15.25 95.65 15.1 L95.65 12.6 Q96.4 12.75 96.8 13.65" fill="#99f451" fill-rule="evenodd" stroke="none"/>
    <path d="M95.0 25.1 Q91.2 26.5 87.45 29.4 L81.05 34.95 Q73.1 42.0 65.65 43.2 L65.65 38.2 Q66.95 40.15 68.45 39.8 69.45 39.55 71.2 37.95 73.15 36.15 73.95 35.75 75.55 35.0 76.9 36.35 77.75 36.3 78.55 35.0 79.3 33.75 77.5 33.85 L80.65 32.2 Q82.65 31.15 85.0 30.75 L84.5 29.65 Q84.25 28.95 83.75 28.85 83.8 28.8 86.9 27.3 88.8 26.4 89.4 25.1 89.55 24.4 89.15 24.1 L88.15 23.85 Q89.1 22.5 90.8 22.1 L95.0 21.35 95.0 25.1" fill="#e5bc8f" fill-rule="evenodd" stroke="none"/>
    <path d="M93.15 11.35 L93.7 12.05 Q93.95 12.6 94.4 12.6 93.4 16.1 89.0 18.5 L85.3 20.4 Q83.1 21.55 81.9 22.6 79.05 28.1 75.8 30.95 71.65 34.55 65.65 35.1 L65.65 30.75 Q71.55 30.55 76.15 25.1 L79.8 20.4 Q81.9 17.7 83.75 16.35 85.05 15.45 88.45 14.1 91.45 12.95 93.15 11.35" fill="#e5bc8f" fill-rule="evenodd" stroke="none"/>
    <path d="M77.5 6.35 Q81.35 4.1 86.45 4.85 91.55 5.65 93.75 8.85 92.05 11.35 88.7 12.9 84.0 15.1 83.15 15.75 81.1 17.2 78.9 19.8 L75.0 24.5 Q73.25 26.5 71.3 27.75 69.4 28.95 66.25 30.1 60.5 25.65 53.5 16.9 L41.9 2.6 Q42.4 1.55 43.15 1.35 L62.05 2.1 Q71.95 3.2 77.5 6.35" fill="#f4e1c9" fill-rule="evenodd" stroke="none"/>
    <path d="M88.15 24.5 Q88.2 25.3 86.95 25.2 L85.0 25.1 Q85.2 25.75 83.95 26.9 82.7 28.15 83.15 30.1 82.25 30.15 81.45 29.65 L80.0 28.85 Q79.95 29.4 80.3 30.1 L80.65 31.35 Q79.9 31.8 78.9 31.05 78.2 30.55 78.15 31.35 78.05 30.0 80.4 27.25 83.2 23.85 83.75 22.6 85.9 24.25 88.15 24.5" fill="#99f451" fill-rule="evenodd" stroke="none"/>
    <path d="M87.5 22.0 Q87.6 22.55 86.9 22.6 L86.55 23.15 86.55 22.5 Q86.5 21.25 85.65 22.6 84.0 21.85 85.55 21.45 87.15 21.05 87.5 22.0" fill="#99f451" fill-rule="evenodd" stroke="none"/>
    <path d="M76.25 32.6 L76.55 33.85 Q76.95 34.5 76.9 35.1 L75.2 34.25 Q74.4 33.8 73.75 34.5 72.95 34.05 74.45 33.5 76.4 32.8 76.25 32.0 76.7 32.05 76.65 32.35 76.55 32.6 76.25 32.6" fill="#99f451" fill-rule="evenodd" stroke="none"/>
    <path d="M67.5 36.35 Q67.4 37.25 67.95 37.55 L65.8 37.45 62.5 38.2 Q62.8 36.95 64.2 36.55 L67.5 36.35" fill="#99f451" fill-rule="evenodd" stroke="none"/>
    <path d="M63.75 39.45 Q64.55 39.55 64.05 40.25 63.3 41.25 63.75 41.95 L62.8 41.35 61.9 40.7 Q61.95 40.3 62.85 40.15 63.75 40.05 63.75 39.45" fill="#99f451" fill-rule="evenodd" stroke="none"/>
    <path d="M51.25 16.35 Q53.45 19.05 58.4 23.85 62.65 28.3 64.4 32.6 62.2 33.35 60.75 31.1 L59.4 28.25 55.45 23.75 Q53.2 21.25 51.9 18.85 49.65 16.7 46.2 12.05 42.55 7.1 40.65 5.1 L40.65 2.6 Q42.85 5.0 46.0 9.35 L51.25 16.35" fill="#f4e1c9" fill-rule="evenodd" stroke="none"/>
    <path d="M54.8 32.1 L60.65 32.6 Q60.85 36.95 55.2 37.8 50.75 38.45 45.65 37.0 43.35 36.35 41.1 34.4 L38.15 32.0 Q22.45 34.8 6.25 25.1 L5.7 22.85 Q5.45 21.5 5.65 20.1 17.8 25.55 19.85 26.2 28.55 29.05 38.15 28.25 L38.15 30.75 Q39.2 30.15 39.4 28.25 42.15 31.4 48.9 31.9 L54.8 32.1" fill="#e5bc8f" fill-rule="evenodd" stroke="none"/>
    <path d="M58.75 38.2 Q59.85 37.4 60.45 37.65 60.95 37.85 60.9 38.55 60.75 39.2 60.2 39.25 59.55 39.3 58.75 38.2" fill="#99f451" fill-rule="evenodd" stroke="none"/>
    <path d="M38.15 37.6 Q37.4 38.4 37.5 40.1 38.65 40.5 38.8 39.5 L38.75 37.6 40.55 38.9 Q41.75 39.65 41.25 41.35 43.3 41.4 45.05 40.7 46.8 40.05 48.15 40.1 50.05 43.05 53.8 43.5 57.8 44.0 60.0 40.7 60.9 41.1 60.7 43.2 60.55 45.15 60.0 45.7 53.1 46.95 47.05 45.65 40.8 44.3 37.5 40.7 34.95 40.55 29.3 40.8 23.95 41.0 21.25 40.7 7.9 39.4 6.9 32.6 L11.05 32.75 Q13.1 33.15 15.0 32.0 16.45 32.75 16.25 35.75 L19.15 37.55 Q20.75 38.75 21.9 38.85 22.55 38.95 22.9 38.3 L23.15 37.6 24.8 38.75 26.9 38.85 Q28.35 37.45 31.45 37.45 L38.15 37.6" fill="#e5bc8f" fill-rule="evenodd" stroke="none"/>
    <path d="M56.9 38.85 Q57.8 37.7 58.3 39.05 58.85 40.4 58.15 41.35 57.25 41.6 57.5 40.1 57.7 38.65 56.9 38.85" fill="#99f451" fill-rule="evenodd" stroke="none"/>
    <path d="M55.0 38.85 L54.7 41.0 Q54.6 42.3 52.5 41.95 L52.5 40.4 Q52.45 39.55 51.9 39.45 51.8 38.7 53.05 38.8 L55.0 38.85" fill="#99f451" fill-rule="evenodd" stroke="none"/>
    <path d="M29.1 6.1 Q33.3 3.7 35.65 0.75 39.9 5.4 47.5 15.4 55.2 25.5 59.4 30.1 54.55 32.05 48.35 31.0 41.85 29.9 40.0 26.35 31.8 28.75 21.95 25.75 16.5 24.1 6.25 18.85 8.65 16.0 12.9 13.65 15.35 12.25 21.05 9.9 26.5 7.6 29.1 6.1" fill="#f4e1c9" fill-rule="evenodd" stroke="none"/>
    <path d="M44.4 38.2 Q45.0 36.75 45.25 38.0 45.55 39.4 45.0 39.45 L44.45 39.0 Q44.2 38.5 44.4 38.2" fill="#99f451" fill-rule="evenodd" stroke="none"/>
    <path d="M41.25 36.35 Q41.8 36.3 42.45 36.7 L43.75 37.0 Q43.3 38.05 42.55 38.0 L40.65 38.2 Q41.25 37.3 41.25 36.35" fill="#99f451" fill-rule="evenodd" stroke="none"/>
    <path d="M33.75 33.85 Q33.9 33.05 35.55 33.15 L38.15 33.25 Q37.95 34.05 36.3 33.95 L33.75 33.85" fill="#f9061d" fill-rule="evenodd" stroke="none"/>
    <path d="M30.25 34.9 L40.0 35.1 Q36.85 37.4 30.2 36.45 23.75 35.45 21.25 32.6 23.8 34.55 30.25 34.9" fill="#f9061d" fill-rule="evenodd" stroke="none"/>
    <path d="M27.5 37.0 L24.95 37.25 Q22.55 36.9 21.25 37.6 21.2 35.45 23.7 35.9 L27.5 37.0" fill="#99f451" fill-rule="evenodd" stroke="none"/>
    <path d="M20.0 32.0 L19.95 33.9 Q20.05 34.9 21.25 34.5 21.2 35.4 20.2 35.65 L18.15 35.75 Q18.35 34.5 17.6 33.35 16.55 31.75 16.25 30.75 16.4 30.8 17.9 31.6 18.85 32.15 20.0 32.0" fill="#99f451" fill-rule="evenodd" stroke="none"/>
    <path d="M8.15 27.0 Q8.4 28.55 11.2 29.2 14.15 29.85 14.4 31.35 L7.75 30.7 1.25 30.75 Q1.55 28.8 3.3 29.4 L4.1 29.3 Q4.3 28.85 3.75 27.0 4.55 27.8 5.7 27.45 7.45 26.9 8.15 27.0" fill="#99f451" fill-rule="evenodd" stroke="none"/>
  </g>
</svg>
