<?xml version="1.0" encoding="UTF-8" standalone="no"?>
<svg xmlns:xlink="http://www.w3.org/1999/xlink" height="60.0px" width="25.05px" xmlns="http://www.w3.org/2000/svg">
  <g transform="matrix(1, 0, 0, 1, -32.0, 0.05)">
    <path d="M52.2 41.7 Q55.05 43.7 56.9 46.1 L56.9 46.45 57.05 48.7 56.8 51.35 56.55 53.35 56.55 53.4 56.5 53.6 56.3 53.7 56.0 54.25 Q56.1 54.8 55.8 55.4 L55.5 56.35 55.5 56.65 53.7 57.85 37.8 57.85 Q34.1 56.25 32.65 54.7 L32.4 54.15 32.8 53.55 32.55 52.2 32.3 50.85 32.5 50.25 32.5 48.4 32.8 48.0 32.9 47.6 32.8 47.05 34.75 43.95 Q38.0 39.25 39.95 38.55 45.15 36.7 52.2 41.7" fill="#ffffff" fill-rule="evenodd" stroke="none"/>
    <path d="M51.35 17.3 Q52.65 16.55 53.95 16.55 53.1 19.5 53.55 25.75 54.15 33.55 53.95 36.3 54.3 35.55 54.9 26.65 55.2 27.0 55.3 27.7 L55.35 30.3 54.95 34.7 Q54.65 37.5 54.75 38.9 54.3 38.6 54.4 42.85 54.5 47.1 54.9 48.4 55.5 48.45 55.45 47.5 L55.4 45.95 Q56.0 46.75 55.9 49.05 L55.85 52.7 53.2 53.7 Q51.8 54.3 51.05 55.15 L49.95 37.2 49.15 18.45 51.35 17.3" fill="#bbefe7" fill-opacity="0.6" fill-rule="evenodd" stroke="none"/>
    <path d="M48.8 1.55 Q46.65 1.05 43.8 2.05 43.65 1.5 42.3 1.35 L39.35 1.6 Q35.2 2.55 35.15 5.45 L37.55 6.15 40.45 6.9 43.25 6.75 Q44.9 6.7 45.25 7.85 43.65 8.95 40.15 8.1 L35.6 7.85 38.15 8.45 Q39.75 8.8 40.45 9.3 L37.7 9.25 Q36.0 9.15 35.6 9.8 36.05 10.4 38.25 10.25 40.5 10.1 40.9 10.75 40.2 11.55 38.35 11.25 L35.6 10.75 Q35.5 12.05 37.35 12.15 L40.45 12.2 40.7 12.7 Q40.85 13.1 41.4 13.15 44.95 13.6 47.95 13.15 51.5 12.6 52.5 10.75 L50.5 11.8 48.65 11.7 Q48.8 11.4 50.3 10.4 51.5 9.6 51.05 9.3 50.5 9.9 49.45 10.25 48.15 10.65 47.65 9.8 L50.1 8.25 Q51.65 7.2 51.5 6.9 L49.55 7.7 Q48.2 8.2 47.65 7.35 48.05 6.3 49.6 5.6 L52.0 5.45 Q51.8 2.15 48.8 1.55 M50.05 13.65 L48.6 13.6 Q48.25 13.75 48.5 14.0 L49.2 14.2 Q49.7 14.15 50.05 13.65 M54.4 15.0 Q55.2 17.3 55.35 18.95 L55.45 23.1 55.3 27.75 54.9 26.65 Q54.3 35.6 53.95 36.3 54.1 33.55 53.55 25.75 53.05 19.55 53.95 16.55 52.65 16.55 51.35 17.3 L49.1 18.45 49.95 37.2 51.05 55.15 Q51.8 54.3 53.2 53.7 L55.85 52.75 55.9 49.05 Q56.0 46.75 55.35 46.0 L55.4 47.5 Q55.5 48.45 54.9 48.4 54.5 47.1 54.4 42.85 54.25 38.6 54.7 38.95 54.65 37.5 54.9 34.75 L55.35 30.3 55.35 30.55 Q55.65 35.25 56.85 46.0 57.4 54.95 54.9 57.55 53.6 58.9 50.85 59.5 L45.75 59.95 40.0 59.6 Q35.8 58.95 33.2 57.55 31.85 54.9 32.0 50.1 L32.75 40.2 32.75 28.35 Q32.65 21.1 33.2 17.5 L33.95 15.05 34.65 12.7 Q34.85 10.9 34.7 7.7 34.5 4.4 34.65 3.0 36.65 0.55 43.3 0.05 50.05 -0.5 52.5 2.05 53.15 2.8 53.15 5.8 53.15 9.9 53.45 11.7 53.55 12.5 54.4 15.0 M52.5 13.65 Q50.95 15.35 46.7 15.55 L39.0 15.55 Q38.0 14.65 36.3 14.65 34.45 14.6 34.2 16.05 36.05 15.95 37.7 16.65 L40.45 18.0 44.15 17.1 Q46.5 16.8 47.65 18.0 48.6 17.45 50.8 16.55 L53.95 15.1 Q53.5 15.05 53.3 14.3 53.05 13.55 52.5 13.65 M54.4 21.85 L54.4 20.05 Q54.3 18.95 53.95 19.9 L53.95 21.75 Q54.0 22.85 54.4 21.85 M40.45 14.6 L41.95 14.7 Q42.9 14.75 42.85 14.1 L41.35 14.1 Q40.4 14.0 40.45 14.6 M34.2 17.0 Q33.85 22.9 33.45 34.9 L32.75 52.75 Q34.4 53.0 36.1 53.7 L39.0 55.15 38.9 45.7 Q38.8 39.85 39.45 36.8 38.15 36.9 38.45 39.65 38.8 42.65 38.05 43.1 L38.15 30.8 Q38.35 24.6 39.45 19.9 L39.45 23.8 Q39.55 29.5 39.85 26.1 40.15 22.65 39.95 18.95 38.8 17.85 37.3 17.45 L34.2 17.0 M40.9 18.45 Q40.45 25.5 40.1 36.75 L39.45 55.15 45.75 54.65 48.65 55.05 Q50.1 55.3 50.05 54.65 L49.15 36.5 48.15 18.45 44.6 18.1 40.9 18.45 M39.45 35.85 L39.5 31.85 Q39.55 29.2 39.0 29.55 L38.95 33.6 Q38.9 36.25 39.45 35.85 M45.05 57.2 Q48.2 57.25 49.1 56.1 46.45 55.15 44.25 55.15 41.65 55.2 40.45 56.6 L45.05 57.2 M35.25 55.65 Q37.05 56.35 38.05 55.65 L35.65 54.6 33.2 53.7 Q33.4 54.95 35.25 55.65 M34.2 56.1 Q36.55 59.35 44.8 59.15 L50.9 58.2 Q53.7 57.4 54.4 56.1 49.95 58.1 44.2 58.0 38.8 57.9 34.2 56.1 M55.35 41.15 L54.7 38.95 Q54.8 40.55 55.35 41.15 M54.9 54.2 Q53.95 54.2 52.75 55.05 51.55 55.9 52.0 56.1 L53.75 55.45 Q54.7 55.0 54.9 54.2" fill="#000000" fill-rule="evenodd" stroke="none"/>
    <path d="M52.0 56.1 Q51.55 55.9 52.75 55.05 53.95 54.2 54.9 54.2 54.7 55.0 53.75 55.45 L52.0 56.1" fill="#bbefe7" fill-rule="evenodd" stroke="none"/>
    <path d="M54.7 38.95 L55.35 41.15 Q54.8 40.55 54.7 38.95" fill="#ffffff" fill-rule="evenodd" stroke="none"/>
    <path d="M53.95 19.9 Q54.3 18.95 54.4 20.05 L54.4 21.85 Q54.0 22.85 53.95 21.75 L53.95 19.9" fill="#bbefe7" fill-rule="evenodd" stroke="none"/>
    <path d="M53.95 15.1 L50.8 16.55 Q48.6 17.4 47.7 18.0 46.5 16.8 44.2 17.1 L40.45 18.0 37.75 16.6 Q36.05 15.9 34.2 16.05 34.45 14.6 36.3 14.6 38.0 14.65 39.0 15.55 L46.7 15.55 Q51.0 15.35 52.5 13.65 53.1 13.55 53.3 14.3 53.5 15.05 53.95 15.1" fill="#bbefe7" fill-opacity="0.6" fill-rule="evenodd" stroke="none"/>
    <path d="M49.6 5.6 Q48.05 6.3 47.65 7.35 48.2 8.2 49.55 7.7 L51.5 6.9 Q51.65 7.2 50.1 8.25 L47.65 9.8 Q48.15 10.65 49.45 10.25 50.5 9.9 51.05 9.3 51.5 9.6 50.3 10.4 48.8 11.4 48.65 11.7 L50.5 11.8 52.5 10.75 Q51.5 12.6 47.95 13.15 44.95 13.6 41.4 13.15 40.85 13.1 40.7 12.7 L40.45 12.2 37.35 12.15 Q35.5 12.05 35.6 10.75 L38.35 11.25 Q40.2 11.55 40.9 10.75 40.5 10.1 38.25 10.25 36.05 10.4 35.6 9.8 36.0 9.15 37.7 9.25 L40.45 9.3 Q39.75 8.8 38.15 8.45 L35.6 7.85 40.15 8.1 Q43.65 8.95 45.25 7.85 44.9 6.7 43.25 6.75 L40.45 6.9 37.55 6.15 35.15 5.45 Q35.2 2.55 39.35 1.6 L42.3 1.35 Q43.65 1.5 43.8 2.05 46.65 1.05 48.8 1.55 51.8 2.15 52.0 5.45 L49.6 5.6" fill="url(#gradient0)" fill-rule="evenodd" stroke="none"/>
    <path d="M48.15 18.45 L49.15 36.5 50.1 54.65 Q50.1 55.3 48.65 55.05 L45.75 54.65 39.5 55.15 40.1 36.75 Q40.5 25.5 40.95 18.45 L44.6 18.05 48.15 18.45 M46.85 20.25 L46.25 19.9 Q46.65 25.0 46.7 33.9 L46.5 37.85 Q46.55 40.15 47.7 41.15 47.25 37.05 47.2 31.25 L47.2 20.85 46.85 20.25 M47.2 45.0 L47.15 48.3 Q47.15 50.45 47.7 49.85 L47.7 46.55 Q47.75 44.4 47.2 45.0 M47.7 43.55 L47.7 42.6 46.7 42.6 46.7 43.55 47.7 43.55" fill="#bbefe7" fill-opacity="0.6" fill-rule="evenodd" stroke="none"/>
    <path d="M50.05 13.65 Q49.7 14.15 49.2 14.2 L48.5 14.0 Q48.25 13.75 48.6 13.6 L50.05 13.65" fill="url(#gradient1)" fill-rule="evenodd" stroke="none"/>
    <path d="M46.7 42.6 L47.65 42.6 47.65 43.55 46.7 43.55 46.7 42.6" fill="#000000" fill-rule="evenodd" stroke="none"/>
    <path d="M47.65 49.85 Q47.1 50.45 47.15 48.3 L47.2 45.0 Q47.75 44.4 47.7 46.55 L47.65 49.85" fill="#000000" fill-rule="evenodd" stroke="none"/>
    <path d="M46.8 20.3 L47.2 20.9 47.2 31.3 Q47.25 37.05 47.65 41.15 46.55 40.15 46.5 37.85 L46.7 33.9 Q46.65 25.0 46.2 19.9 L46.8 20.3" fill="#000000" fill-rule="evenodd" stroke="none"/>
    <path d="M44.25 55.15 Q46.45 55.15 49.1 56.1 48.2 57.25 45.05 57.2 L40.45 56.6 Q41.65 55.2 44.25 55.15" fill="#bbefe7" fill-rule="evenodd" stroke="none"/>
    <path d="M34.2 56.1 Q38.8 57.9 44.2 58.0 49.95 58.1 54.4 56.1 53.7 57.4 50.9 58.2 L44.8 59.15 Q36.55 59.35 34.2 56.1" fill="#bbefe7" fill-rule="evenodd" stroke="none"/>
    <path d="M42.85 14.1 Q42.9 14.75 41.95 14.7 L40.45 14.6 Q40.4 14.0 41.35 14.1 L42.85 14.1" fill="url(#gradient2)" fill-rule="evenodd" stroke="none"/>
    <path d="M37.3 17.45 Q38.85 17.85 39.95 18.95 40.15 22.65 39.85 26.1 39.55 29.5 39.5 23.75 L39.5 19.9 Q38.35 24.6 38.15 30.8 L38.05 43.05 Q38.8 42.65 38.5 39.65 38.2 36.9 39.5 36.8 38.85 39.85 38.95 45.7 L39.0 55.15 Q37.3 54.15 36.1 53.7 L32.75 52.7 33.45 34.9 34.2 17.0 37.3 17.45 M37.55 50.3 Q38.7 50.6 38.65 48.45 38.65 46.3 38.05 45.95 L37.65 48.0 Q37.35 49.25 37.55 50.3" fill="#bbefe7" fill-opacity="0.6" fill-rule="evenodd" stroke="none"/>
    <path d="M39.0 29.55 Q39.55 29.2 39.5 31.85 L39.45 35.85 Q38.9 36.25 38.95 33.6 L39.0 29.55" fill="#bbefe7" fill-rule="evenodd" stroke="none"/>
    <path d="M38.05 46.0 Q38.65 46.3 38.65 48.45 38.7 50.6 37.55 50.3 37.35 49.25 37.65 48.05 L38.05 46.0" fill="#000000" fill-rule="evenodd" stroke="none"/>
    <path d="M38.05 55.65 Q37.05 56.35 35.25 55.65 33.4 54.95 33.2 53.7 L35.65 54.6 38.05 55.65" fill="#bbefe7" fill-rule="evenodd" stroke="none"/>
  </g>
  <defs>
    <linearGradient gradientTransform="matrix(0.0106, 0.0, 0.0, -0.0106, 43.8, 7.35)" gradientUnits="userSpaceOnUse" id="gradient0" spreadMethod="pad" x1="-819.2" x2="819.2">
      <stop offset="0.0" stop-color="#ffffff"/>
      <stop offset="1.0" stop-color="#000000"/>
    </linearGradient>
    <linearGradient gradientTransform="matrix(0.001, 0.0, 0.0, -0.001, 49.25, 13.9)" gradientUnits="userSpaceOnUse" id="gradient1" spreadMethod="pad" x1="-819.2" x2="819.2">
      <stop offset="0.0" stop-color="#ffffff"/>
      <stop offset="1.0" stop-color="#000000"/>
    </linearGradient>
    <linearGradient gradientTransform="matrix(0.0015, 0.0, 0.0, -0.0015, 41.65, 14.35)" gradientUnits="userSpaceOnUse" id="gradient2" spreadMethod="pad" x1="-819.2" x2="819.2">
      <stop offset="0.0" stop-color="#ffffff"/>
      <stop offset="1.0" stop-color="#000000"/>
    </linearGradient>
  </defs>
</svg>
