<?xml version="1.0" encoding="UTF-8" standalone="no"?>
<svg xmlns:xlink="http://www.w3.org/1999/xlink" height="60.05px" width="80.25px" xmlns="http://www.w3.org/2000/svg">
  <g transform="matrix(1, 0, 0, 1, -10.0, 0.0)">
    <path d="M68.05 7.9 Q67.8 8.05 67.4 8.45 54.3 18.35 31.2 34.8 L25.05 39.0 Q19.7 42.8 19.45 44.2 18.8 47.0 21.9 51.05 25.1 55.25 28.35 55.0 29.25 54.95 31.25 53.4 L34.5 50.8 Q37.25 48.65 39.2 47.5 L39.95 46.75 40.6 46.05 58.95 32.9 71.15 23.95 74.35 21.8 77.3 19.25 Q70.7 14.75 68.8 7.5 68.45 7.6 68.05 7.9 M74.0 11.25 Q74.5 11.4 75.0 12.15 L75.85 13.15 Q79.15 12.2 82.1 9.6 L86.7 4.65 87.85 4.25 Q88.8 4.1 89.05 3.7 89.6 2.9 89.45 2.4 L89.05 0.9 86.7 0.9 Q84.85 4.35 81.05 4.65 80.05 6.2 77.65 8.05 74.85 10.2 74.0 11.25 M69.75 7.95 Q71.95 12.75 73.2 14.4 75.55 17.55 79.15 18.3 79.35 15.05 77.3 13.6 75.15 15.2 73.05 10.8 73.1 10.2 73.6 9.7 L74.45 8.9 72.6 7.5 Q71.4 6.45 70.7 6.05 70.7 6.45 70.1 6.9 69.55 7.25 69.75 7.95 M75.4 8.45 L79.3 5.3 Q81.65 3.45 83.85 2.8 84.8 1.25 86.3 0.45 88.15 -0.4 90.0 0.45 90.65 3.15 89.45 4.25 87.5 5.35 86.2 6.55 L83.15 10.2 Q81.3 12.1 78.7 12.2 78.8 12.95 79.8 15.6 80.6 17.55 80.1 18.8 75.45 21.7 66.7 28.45 L52.8 39.0 50.15 40.45 47.65 41.85 Q47.25 42.1 46.7 42.75 L45.75 43.7 41.3 46.95 35.9 50.8 32.9 53.2 29.85 55.25 Q26.35 56.95 23.65 53.6 22.9 53.9 20.85 55.55 19.25 56.8 17.55 56.9 15.75 58.95 13.85 59.7 11.25 60.8 10.0 58.3 10.6 56.6 13.35 54.6 16.05 52.65 16.6 50.8 17.2 50.8 17.85 49.95 18.45 49.15 19.45 49.35 L18.75 46.5 Q18.25 44.85 18.5 43.25 51.45 18.75 63.65 9.85 68.3 6.45 69.7 6.05 72.75 5.1 75.4 8.45 M19.45 49.85 Q18.25 50.55 16.7 52.4 L14.25 55.5 11.9 56.9 Q10.55 57.75 11.45 59.25 12.95 59.6 13.85 58.9 L15.2 57.35 19.4 55.45 Q21.8 54.25 22.7 52.65 21.8 52.55 21.05 51.25 20.35 49.95 19.45 49.85" fill="#000000" fill-rule="evenodd" stroke="none"/>
    <path d="M77.65 8.05 Q80.05 6.2 81.05 4.65 84.85 4.35 86.7 0.9 L89.05 0.9 89.45 2.4 Q89.6 2.9 89.05 3.7 88.8 4.1 87.85 4.25 L86.7 4.65 82.1 9.6 Q79.15 12.2 75.85 13.15 L75.0 12.15 Q74.5 11.4 74.0 11.25 74.85 10.2 77.65 8.05" fill="#e59933" fill-rule="evenodd" stroke="none"/>
    <path d="M77.3 13.6 Q79.35 15.05 79.15 18.3 75.55 17.55 73.2 14.4 71.95 12.75 69.75 7.95 69.55 7.25 70.1 6.9 70.7 6.45 70.7 6.05 71.4 6.45 72.6 7.5 L74.45 8.9 73.6 9.7 Q73.1 10.2 73.05 10.8 75.15 15.2 77.3 13.6" fill="#e59933" fill-rule="evenodd" stroke="none"/>
    <path d="M68.8 7.5 Q70.7 14.75 77.3 19.25 L74.35 21.8 71.15 23.95 58.95 32.9 40.6 46.05 39.95 46.75 39.2 47.5 Q37.25 48.65 34.5 50.8 L31.25 53.4 Q29.25 54.95 28.35 55.0 25.1 55.25 21.9 51.05 18.8 47.0 19.45 44.2 19.7 42.8 25.05 39.0 L31.2 34.8 Q54.3 18.35 67.4 8.45 67.8 8.05 68.05 7.9 68.45 7.6 68.8 7.5" fill="#db9526" fill-rule="evenodd" stroke="none"/>
    <path d="M19.45 49.85 Q20.35 49.95 21.05 51.25 21.8 52.55 22.7 52.65 21.8 54.25 19.4 55.45 L15.2 57.35 13.85 58.9 Q12.95 59.6 11.45 59.25 10.55 57.75 11.9 56.9 L14.25 55.5 16.7 52.4 Q18.25 50.55 19.45 49.85" fill="#c18227" fill-rule="evenodd" stroke="none"/>
  </g>
</svg>
