<?xml version="1.0" encoding="UTF-8" standalone="no"?>
<svg xmlns:xlink="http://www.w3.org/1999/xlink" height="60.0px" width="52.45px" xmlns="http://www.w3.org/2000/svg">
  <g transform="matrix(1, 0, 0, 1, -24.0, 0.0)">
    <path d="M65.5 6.25 Q64.05 5.9 63.65 5.4 62.85 6.5 59.2 7.9 56.05 9.1 55.55 11.2 56.3 11.9 58.35 12.55 60.45 13.25 61.35 14.05 64.25 16.8 65.0 23.9 L65.5 30.2 Q65.9 34.0 66.55 36.65 66.8 37.75 67.55 39.3 L68.3 41.25 Q68.5 44.5 67.55 48.0 66.85 50.4 65.4 53.45 68.2 51.85 70.8 47.55 74.3 41.75 75.25 40.7 75.75 37.35 74.9 34.9 L72.9 30.3 Q71.75 27.0 70.85 16.95 70.1 9.1 67.7 7.15 67.1 6.65 65.5 6.25 M64.8 4.25 L67.95 6.3 Q69.9 7.5 70.6 8.85 71.55 10.75 71.9 15.45 L72.35 22.75 Q72.75 25.95 74.95 32.05 76.7 37.0 76.4 39.55 76.15 41.6 72.9 47.0 69.7 52.2 67.7 54.0 L65.2 55.5 62.5 56.9 60.1 58.5 57.85 59.8 55.0 59.5 53.25 58.05 Q50.45 60.25 43.15 59.95 36.15 59.6 32.4 57.5 30.15 56.2 27.95 52.45 25.7 48.6 24.3 47.65 23.7 29.65 24.25 23.4 25.45 9.8 31.25 4.8 33.8 4.65 38.15 2.55 42.55 0.4 45.15 0.2 L48.9 0.65 Q51.4 1.35 52.65 1.35 L57.05 0.3 Q60.0 -0.45 61.35 0.75 62.4 0.75 63.1 1.9 L64.8 4.25 M61.9 17.55 L60.0 15.25 58.45 13.5 Q57.15 12.9 51.6 12.6 L44.55 12.9 Q40.4 14.75 40.15 20.45 40.05 22.1 40.35 25.95 L40.5 32.0 Q40.45 33.65 39.65 37.45 39.05 40.45 39.35 41.85 40.1 45.8 46.95 52.0 53.95 58.4 57.85 58.05 61.05 57.8 63.85 53.9 66.85 49.65 67.15 44.15 67.2 42.45 66.15 38.65 L64.8 33.15 63.95 24.3 Q63.5 20.0 61.9 17.55 M31.25 7.15 L30.9 7.95 31.25 7.7 34.0 6.75 37.05 5.95 Q37.85 5.95 38.95 6.65 39.9 7.35 41.1 7.15 44.6 3.6 52.65 2.5 49.7 1.1 45.45 1.3 40.8 1.5 39.35 3.65 L40.65 3.8 Q41.25 4.05 41.1 4.8 38.15 4.75 36.45 4.85 L32.4 5.4 Q32.4 6.75 31.25 7.15 M34.15 7.7 Q32.75 8.0 30.1 9.9 27.65 11.6 27.2 12.35 25.7 14.75 25.5 19.7 25.4 22.65 25.45 29.7 L24.8 38.2 Q24.45 42.85 24.85 44.75 25.25 46.55 26.3 48.05 L28.35 50.55 Q30.7 53.85 31.9 55.0 34.35 57.4 35.85 56.3 30.05 53.35 27.7 41.55 25.9 32.25 26.6 21.6 26.8 18.25 29.4 14.2 31.9 10.35 34.15 9.45 L37.15 9.25 Q38.95 9.3 39.9 8.3 L37.1 7.6 34.15 7.7 M28.35 18.1 Q28.2 27.75 28.35 33.15 28.55 41.2 29.5 47.05 33.45 52.55 36.15 55.0 40.95 59.4 45.7 59.2 L48.45 58.65 Q50.05 58.05 50.9 56.9 L47.7 53.65 43.7 50.15 Q38.75 45.6 38.2 41.85 38.0 40.6 38.6 37.3 39.35 33.45 39.35 31.45 L38.85 24.85 Q38.45 20.95 38.75 19.3 39.15 17.2 40.85 14.75 L43.4 11.2 Q38.6 8.6 34.1 11.55 30.85 13.65 28.35 18.1 M52.65 9.45 Q51.2 10.85 48.3 10.15 46.3 9.65 43.95 8.3 43.7 7.6 44.75 6.65 45.55 5.85 44.55 5.4 42.55 6.8 42.8 8.1 43.0 9.25 44.9 10.1 46.65 10.85 49.0 11.0 L53.25 10.6 53.0 11.25 52.65 11.75 Q54.1 12.05 53.75 10.85 53.35 9.65 52.65 9.45 M51.9 6.85 Q50.7 5.35 49.2 5.95 L48.6 7.15 Q48.15 7.85 48.05 8.3 L53.25 8.3 Q53.1 7.85 53.45 7.15 53.7 6.7 53.25 6.55 52.85 7.55 52.55 7.5 L51.9 6.85 M55.15 8.5 Q56.1 8.25 56.15 7.7 55.0 7.2 54.25 8.3 53.45 9.4 54.4 9.45 54.3 8.75 55.15 8.5 M57.65 6.1 Q60.65 6.7 63.1 4.8 63.1 1.85 58.9 1.35 54.7 0.8 53.25 3.05 54.7 5.55 57.65 6.1 M47.0 7.85 Q47.25 8.5 47.45 7.7 47.55 7.1 47.3 6.45 47.0 5.8 46.85 6.55 46.7 7.2 47.0 7.85" fill="#000000" fill-rule="evenodd" stroke="none"/>
    <path d="M70.85 16.95 Q71.75 27.0 72.9 30.3 L74.9 34.9 Q75.75 37.35 75.25 40.7 74.3 41.75 70.8 47.55 68.2 51.85 65.4 53.45 66.85 50.4 67.55 48.0 68.5 44.5 68.3 41.25 L67.55 39.3 Q66.8 37.75 66.55 36.65 65.9 34.0 65.5 30.2 L65.0 23.9 Q64.25 16.8 61.35 14.05 60.45 13.25 58.35 12.55 56.3 11.9 55.55 11.2 56.05 9.1 59.2 7.9 62.85 6.5 63.65 5.4 64.05 5.9 65.5 6.25 67.1 6.65 67.7 7.15 70.1 9.1 70.85 16.95" fill="#f90c06" fill-rule="evenodd" stroke="none"/>
    <path d="M63.95 24.3 L64.8 33.15 66.15 38.65 Q67.2 42.45 67.15 44.15 66.85 49.65 63.85 53.9 61.05 57.8 57.85 58.05 53.95 58.4 46.95 52.0 40.1 45.8 39.35 41.85 39.05 40.45 39.65 37.45 40.45 33.65 40.5 32.0 L40.35 25.95 Q40.05 22.1 40.15 20.45 40.4 14.75 44.55 12.9 L51.6 12.6 Q57.15 12.9 58.45 13.5 L60.0 15.25 61.9 17.55 Q63.5 20.0 63.95 24.3" fill="#f90c06" fill-rule="evenodd" stroke="none"/>
    <path d="M53.25 3.05 Q54.7 0.8 58.9 1.35 63.1 1.85 63.1 4.8 60.65 6.7 57.65 6.1 54.7 5.55 53.25 3.05" fill="#f90c06" fill-rule="evenodd" stroke="none"/>
    <path d="M54.4 9.45 Q53.45 9.4 54.25 8.3 55.0 7.2 56.15 7.7 56.1 8.25 55.15 8.5 54.3 8.75 54.4 9.45" fill="#2ec60e" fill-rule="evenodd" stroke="none"/>
    <path d="M53.25 6.55 Q53.7 6.7 53.45 7.15 53.1 7.85 53.25 8.3 L48.05 8.3 Q48.15 7.85 48.6 7.15 L49.2 5.95 Q50.7 5.35 51.9 6.85 L52.55 7.5 Q52.85 7.55 53.25 6.55" fill="#2ec60e" fill-rule="evenodd" stroke="none"/>
    <path d="M53.75 10.85 Q54.1 12.05 52.65 11.75 L53.0 11.25 53.25 10.6 49.0 11.0 Q46.65 10.85 44.9 10.1 43.0 9.25 42.8 8.1 42.55 6.8 44.55 5.4 45.55 5.85 44.75 6.65 43.7 7.6 43.95 8.3 46.3 9.65 48.3 10.15 51.2 10.85 52.65 9.45 53.35 9.65 53.75 10.85" fill="#2ec60e" fill-rule="evenodd" stroke="none"/>
    <path d="M34.1 11.55 Q38.6 8.6 43.4 11.2 L40.85 14.75 Q39.15 17.2 38.75 19.3 38.45 20.95 38.85 24.85 L39.35 31.45 Q39.35 33.45 38.6 37.3 38.0 40.6 38.2 41.85 38.75 45.6 43.7 50.15 L47.7 53.65 50.9 56.9 Q50.05 58.05 48.45 58.65 L45.7 59.2 Q40.95 59.4 36.15 55.0 33.45 52.55 29.5 47.05 28.55 41.2 28.35 33.15 28.2 27.75 28.35 18.1 30.85 13.65 34.1 11.55" fill="#f90c06" fill-rule="evenodd" stroke="none"/>
    <path d="M46.85 6.55 Q47.0 5.8 47.3 6.45 47.55 7.1 47.45 7.7 47.25 8.5 47.0 7.85 46.7 7.2 46.85 6.55" fill="#2ec60e" fill-rule="evenodd" stroke="none"/>
    <path d="M36.45 4.85 Q38.15 4.75 41.1 4.8 41.25 4.05 40.65 3.8 L39.35 3.65 Q40.8 1.5 45.45 1.3 49.7 1.1 52.65 2.5 44.6 3.6 41.1 7.15 39.9 7.35 38.95 6.65 37.85 5.95 37.05 5.95 L34.0 6.75 31.25 7.7 30.9 7.95 31.25 7.15 Q32.4 6.75 32.4 5.4 L36.45 4.85" fill="#f90c06" fill-rule="evenodd" stroke="none"/>
    <path d="M37.1 7.6 L39.9 8.3 Q38.95 9.3 37.15 9.25 L34.15 9.45 Q31.9 10.35 29.4 14.2 26.8 18.25 26.6 21.6 25.9 32.25 27.7 41.55 30.05 53.35 35.85 56.3 34.35 57.4 31.9 55.0 30.7 53.85 28.35 50.55 L26.3 48.05 Q25.25 46.55 24.85 44.75 24.45 42.85 24.8 38.2 L25.45 29.7 Q25.4 22.65 25.5 19.7 25.7 14.75 27.2 12.35 27.65 11.6 30.1 9.9 32.75 8.0 34.15 7.7 L37.1 7.6" fill="#f90c06" fill-rule="evenodd" stroke="none"/>
  </g>
</svg>
