<?xml version="1.0" encoding="UTF-8" standalone="no"?>
<svg xmlns:xlink="http://www.w3.org/1999/xlink" height="60.0px" width="62.7px" xmlns="http://www.w3.org/2000/svg">
  <g transform="matrix(1, 0, 0, 1, -18.0, 0.0)">
    <path d="M80.4 22.35 Q82.05 35.8 74.25 46.35 67.35 55.65 55.9 59.8 L45.4 59.5 Q41.65 58.8 36.55 56.55 29.85 53.65 25.05 48.75 19.55 43.1 18.5 36.55 16.45 24.35 22.95 14.25 29.4 4.15 41.05 1.05 48.5 -0.9 58.9 0.75 69.3 2.4 73.3 6.2 75.95 8.75 78.0 13.8 79.9 18.3 80.4 22.35 M72.55 8.05 Q67.75 2.65 61.05 1.7 53.4 0.65 46.45 5.6 44.95 6.65 40.7 10.15 L34.6 14.6 Q32.5 9.3 36.55 6.2 L38.7 6.55 Q40.05 6.7 41.05 7.5 L45.8 4.65 Q48.7 2.85 48.8 1.7 L46.95 1.8 Q45.4 1.95 44.3 1.05 43.65 1.15 43.85 1.65 44.15 2.25 43.65 2.35 L41.85 2.65 39.8 2.35 Q34.85 4.05 30.4 7.6 25.85 11.3 22.95 16.1 16.25 27.45 21.7 39.15 21.5 43.45 25.55 47.75 27.9 50.2 33.35 54.0 L33.45 53.2 Q33.6 52.75 33.95 52.7 36.55 55.9 42.75 57.9 48.55 59.75 52.7 59.15 L52.85 58.55 Q52.95 57.95 53.3 57.85 58.5 57.05 60.85 56.1 64.55 54.65 62.35 52.7 62.85 52.7 63.45 53.55 63.95 54.25 64.95 54.0 70.55 49.1 73.15 45.8 77.45 40.4 78.5 34.65 L78.6 29.8 Q78.65 26.95 79.75 25.6 78.65 24.7 78.6 22.9 L78.5 19.8 Q76.7 12.8 72.55 8.05" fill="#000000" fill-rule="evenodd" stroke="none"/>
    <path d="M78.5 19.8 L78.6 22.9 Q78.65 24.7 79.75 25.6 78.65 26.95 78.6 29.8 L78.5 34.65 Q77.45 40.4 73.15 45.8 70.55 49.1 64.95 54.0 63.95 54.25 63.45 53.55 62.85 52.7 62.35 52.7 64.55 54.65 60.85 56.1 58.5 57.05 53.3 57.85 52.95 57.95 52.85 58.55 L52.7 59.15 Q48.55 59.75 42.75 57.9 36.55 55.9 33.95 52.7 33.6 52.75 33.45 53.2 L33.35 54.0 Q27.9 50.2 25.55 47.75 21.5 43.45 21.7 39.15 16.25 27.45 22.95 16.1 25.85 11.3 30.4 7.6 34.85 4.05 39.8 2.35 L41.85 2.65 43.65 2.35 Q44.15 2.25 43.85 1.65 43.65 1.15 44.3 1.05 45.4 1.95 46.95 1.8 L48.8 1.7 Q48.7 2.85 45.8 4.65 L41.05 7.5 Q40.05 6.7 38.7 6.55 L36.55 6.2 Q32.5 9.3 34.6 14.6 L40.7 10.15 Q44.95 6.65 46.45 5.6 53.4 0.65 61.05 1.7 67.75 2.65 72.55 8.05 76.7 12.8 78.5 19.8 M25.6 26.9 Q24.45 33.6 26.05 41.5 27.95 50.45 32.05 50.75 28.25 47.3 26.75 40.35 25.15 33.0 27.5 26.9 L26.45 26.45 Q25.85 26.2 25.6 26.9" fill="#f7d21c" fill-rule="evenodd" stroke="none"/>
    <path d="M27.5 26.9 Q25.15 33.0 26.75 40.35 28.25 47.3 32.05 50.75 27.95 50.45 26.05 41.5 24.45 33.6 25.6 26.9 25.85 26.2 26.45 26.45 L27.5 26.9" fill="#000000" fill-rule="evenodd" stroke="none"/>
  </g>
</svg>
