<?xml version="1.0" encoding="UTF-8" standalone="no"?>
<svg xmlns:xlink="http://www.w3.org/1999/xlink" height="60.0px" width="39.4px" xmlns="http://www.w3.org/2000/svg">
  <g transform="matrix(1, 0, 0, 1, -30.0, 0.05)">
    <path d="M52.7 4.4 Q53.5 2.2 54.05 1.15 55.15 -0.7 56.8 0.35 57.65 0.65 57.6 1.0 L57.0 1.75 Q55.5 3.0 55.9 3.95 55.9 5.0 57.05 5.5 L59.05 6.2 Q60.85 8.6 61.3 13.85 L62.2 22.45 Q62.75 25.05 64.45 27.45 L67.6 31.05 Q70.4 39.6 68.9 46.85 67.25 54.85 60.85 57.7 L55.7 58.85 Q52.1 59.3 50.45 59.95 L46.3 58.9 42.3 57.65 Q37.35 57.6 33.45 52.4 29.3 46.95 30.15 40.1 30.65 36.2 33.45 32.6 L39.65 26.1 Q41.25 24.45 42.1 18.6 43.15 11.65 43.7 10.3 44.5 8.35 46.2 7.05 L49.1 4.85 50.8 4.55 52.7 4.4 M55.6 1.15 Q55.55 0.8 55.0 0.8 54.2 2.75 54.15 3.05 53.8 4.55 55.0 4.85 54.5 3.85 55.25 2.05 L55.6 1.15 M59.6 9.15 Q58.5 6.55 56.35 5.75 55.95 5.9 56.15 6.25 L56.35 7.15 Q49.65 2.05 45.4 10.15 42.6 15.5 41.0 26.1 35.95 29.45 33.1 34.75 29.55 41.25 31.5 47.75 31.8 48.7 33.05 50.3 34.35 51.85 34.65 53.15 35.85 53.45 38.45 55.45 41.0 57.4 42.3 57.65 L41.45 57.25 46.9 58.2 54.05 58.6 Q62.1 57.6 65.85 52.4 69.8 46.95 68.5 37.35 68.15 34.8 66.25 31.75 L62.65 26.1 Q61.7 24.35 61.35 20.9 L60.8 14.75 Q60.4 11.1 59.6 9.15" fill="#000000" fill-rule="evenodd" stroke="none"/>
    <path d="M62.65 26.1 L66.25 31.75 Q68.15 34.8 68.5 37.35 69.8 46.95 65.85 52.4 62.1 57.6 54.05 58.6 L46.9 58.2 41.45 57.25 42.3 57.65 Q41.0 57.4 38.45 55.45 35.85 53.45 34.65 53.15 34.35 51.85 33.05 50.3 31.8 48.7 31.5 47.75 29.55 41.25 33.1 34.75 35.95 29.45 41.0 26.1 42.6 15.5 45.4 10.15 49.65 2.05 56.35 7.15 L56.15 6.25 Q55.95 5.9 56.35 5.75 58.5 6.55 59.6 9.15 60.4 11.1 60.8 14.75 L61.35 20.9 Q61.7 24.35 62.65 26.1 M47.75 57.25 L50.15 57.7 Q51.65 57.75 52.25 56.8 51.2 56.1 49.95 56.15 48.5 56.15 47.75 57.25" fill="#d6d241" fill-rule="evenodd" stroke="none"/>
    <path d="M55.0 0.8 Q55.55 0.8 55.6 1.15 L55.25 2.05 Q54.5 3.85 55.0 4.85 53.8 4.55 54.15 3.05 54.2 2.75 55.0 0.8" fill="#848419" fill-rule="evenodd" stroke="none"/>
    <path d="M52.25 56.8 Q51.65 57.75 50.15 57.7 L47.75 57.25 Q48.5 56.15 49.95 56.15 51.2 56.1 52.25 56.8" fill="#000000" fill-rule="evenodd" stroke="none"/>
  </g>
</svg>
