<?xml version="1.0" encoding="UTF-8" standalone="no"?>
<svg xmlns:xlink="http://www.w3.org/1999/xlink" height="54.5px" width="99.95px" xmlns="http://www.w3.org/2000/svg">
  <g transform="matrix(1, 0, 0, 1, 0.0, 0.0)">
    <path d="M99.4 17.95 L99.2 23.1 99.8 29.2 Q100.15 32.95 99.8 35.6 91.6 38.7 76.4 40.9 58.3 43.6 51.9 45.3 46.85 43.35 40.75 40.2 L30.2 34.45 Q29.45 31.3 29.7 26.65 29.95 23.05 30.8 19.1 29.45 15.6 29.05 12.75 28.45 8.35 30.2 6.0 31.05 4.9 35.0 3.95 L42.2 2.6 56.4 0.5 Q65.25 -0.35 73.0 0.3 81.85 1.1 89.0 3.9 98.0 7.45 99.2 12.85 99.6 14.7 99.4 17.95 M89.05 4.8 Q84.2 2.9 78.7 2.0 69.2 0.55 57.95 1.5 L40.5 3.7 Q41.45 4.9 43.8 5.9 46.55 7.05 47.35 7.7 49.25 9.35 51.35 13.05 53.5 16.85 53.6 19.1 53.65 20.55 52.5 23.5 51.35 26.5 51.3 28.2 51.25 30.15 52.3 35.75 53.15 40.45 52.45 43.55 L76.3 40.05 Q89.8 37.8 98.65 35.05 98.45 32.8 98.6 28.65 L98.85 21.5 Q98.95 12.8 96.35 9.4 94.4 6.95 89.05 4.8 M31.95 19.1 Q30.75 21.0 30.75 25.6 L30.8 33.3 40.6 38.9 Q46.25 41.9 51.3 43.55 51.55 32.95 50.2 25.9 53.85 20.95 51.6 15.4 49.65 10.65 44.3 7.4 39.1 4.3 34.85 5.0 30.05 5.75 29.65 11.1 29.5 12.7 30.35 14.75 L31.95 19.1" fill="#000000" fill-rule="evenodd" stroke="none"/>
    <path d="M96.35 9.4 Q98.95 12.8 98.85 21.5 L98.6 28.65 Q98.45 32.8 98.65 35.05 89.8 37.8 76.3 40.05 L52.45 43.55 Q53.15 40.45 52.3 35.75 51.25 30.15 51.3 28.2 51.35 26.5 52.5 23.5 53.65 20.55 53.6 19.1 53.5 16.85 51.35 13.05 49.25 9.35 47.35 7.7 46.55 7.05 43.8 5.9 41.45 4.9 40.5 3.7 L57.95 1.5 Q69.2 0.55 78.7 2.0 84.2 2.9 89.05 4.8 94.4 6.95 96.35 9.4 M90.95 21.1 Q85.45 21.7 83.8 23.1 85.55 22.35 89.95 22.15 L96.35 21.35 Q95.8 21.1 96.05 20.95 L96.95 20.7 Q98.65 20.3 98.05 19.1 96.45 20.5 90.95 21.1 M55.7 26.15 L60.4 25.75 Q66.15 25.25 66.15 23.1 64.75 24.0 62.7 24.25 L58.15 24.8 Q58.15 23.95 58.75 23.1 L54.85 24.65 Q52.5 25.55 51.9 27.05 53.1 26.45 55.7 26.15 M84.4 21.35 L82.1 21.9 Q80.8 22.3 80.4 23.1 L72.05 22.8 Q66.85 23.7 67.3 25.35 68.35 24.15 71.0 23.85 L76.2 23.75 81.2 23.5 Q83.6 22.95 84.4 21.35" fill="#dba05e" fill-rule="evenodd" stroke="none"/>
    <path d="M98.05 19.1 Q98.65 20.3 96.95 20.7 L96.05 20.95 Q95.8 21.1 96.35 21.35 L89.95 22.15 Q85.55 22.35 83.8 23.1 85.45 21.7 90.95 21.1 96.45 20.5 98.05 19.1" fill="#000000" fill-rule="evenodd" stroke="none"/>
    <path d="M80.4 23.1 Q80.8 22.3 82.1 21.9 L84.4 21.35 Q83.6 22.95 81.2 23.5 L76.2 23.75 71.0 23.85 Q68.35 24.15 67.3 25.35 66.85 23.7 72.05 22.8 L80.4 23.1" fill="#000000" fill-rule="evenodd" stroke="none"/>
    <path d="M62.7 24.25 Q64.75 24.0 66.15 23.1 66.15 25.25 60.4 25.75 L55.7 26.15 Q53.1 26.45 51.9 27.05 52.5 25.55 54.85 24.65 L58.75 23.1 Q58.15 23.95 58.15 24.8 L62.7 24.25" fill="#000000" fill-rule="evenodd" stroke="none"/>
    <path d="M34.85 5.0 Q39.1 4.3 44.3 7.4 49.65 10.65 51.6 15.4 53.85 20.95 50.2 25.9 51.55 32.95 51.3 43.55 46.25 41.9 40.6 38.9 L30.8 33.3 30.75 25.6 Q30.75 21.0 31.95 19.1 L30.35 14.75 Q29.5 12.7 29.65 11.1 30.05 5.75 34.85 5.0" fill="#eacea9" fill-rule="evenodd" stroke="none"/>
    <path d="M40.6 49.0 Q38.4 49.85 34.0 50.5 L27.05 51.7 Q23.4 52.6 21.65 54.4 14.4 54.95 8.95 52.0 5.7 50.25 0.6 45.3 0.1 44.15 0.0 42.15 L0.0 38.45 1.45 37.6 Q2.35 37.15 2.3 36.15 L5.8 36.2 9.15 36.15 Q11.6 35.9 17.25 33.8 22.2 31.95 24.5 32.2 26.7 32.4 30.15 34.8 L35.35 38.45 40.8 41.45 Q43.7 43.15 45.05 45.3 43.8 47.75 40.6 49.0 M24.2 48.2 Q25.65 47.35 26.8 47.0 28.9 46.35 35.05 45.6 40.0 45.0 42.2 43.55 40.45 42.6 33.45 38.35 28.1 35.1 24.5 33.3 21.65 34.6 12.0 35.95 3.7 37.15 0.6 39.6 2.3 43.75 6.3 46.8 10.25 49.8 14.85 50.4 18.7 50.95 21.75 49.5 L24.2 48.2 M24.45 49.2 L21.1 50.95 Q16.25 53.0 10.4 50.2 7.0 48.55 1.7 44.15 10.35 55.2 19.95 53.8 21.2 53.65 23.3 52.25 25.6 50.7 26.8 50.4 29.8 49.6 36.5 49.05 42.15 48.2 43.9 45.3 L36.2 46.15 Q30.9 46.75 27.95 47.55 26.6 47.95 24.45 49.2" fill="#000000" fill-rule="evenodd" stroke="none"/>
    <path d="M36.2 46.15 L43.9 45.3 Q42.15 48.2 36.5 49.05 29.8 49.6 26.8 50.4 25.6 50.7 23.3 52.25 21.2 53.65 19.95 53.8 10.35 55.2 1.7 44.15 7.0 48.55 10.4 50.2 16.25 53.0 21.1 50.95 L24.45 49.2 Q26.6 47.95 27.95 47.55 30.9 46.75 36.2 46.15" fill="#dba05e" fill-rule="evenodd" stroke="none"/>
    <path d="M21.75 49.5 Q18.7 50.95 14.85 50.4 10.25 49.8 6.3 46.8 2.3 43.75 0.6 39.6 3.7 37.15 12.0 35.95 21.65 34.6 24.5 33.3 28.1 35.1 33.45 38.35 40.45 42.6 42.2 43.55 40.0 45.0 35.05 45.6 28.9 46.35 26.8 47.0 25.65 47.35 24.2 48.2 L21.75 49.5" fill="#eacea9" fill-rule="evenodd" stroke="none"/>
  </g>
</svg>
