<?xml version="1.0" encoding="UTF-8" standalone="no"?>
<svg xmlns:xlink="http://www.w3.org/1999/xlink" height="59.2px" width="100.0px" xmlns="http://www.w3.org/2000/svg">
  <g transform="matrix(1, 0, 0, 1, -0.05, 0.0)">
    <path d="M99.8 17.8 L97.75 30.6 Q95.4 46.55 93.45 51.95 89.15 55.6 81.95 57.55 75.05 59.35 67.3 59.2 59.45 59.0 52.95 56.75 46.0 54.35 42.2 50.1 L41.1 42.05 Q40.35 37.15 40.35 33.65 36.75 35.85 28.05 37.8 18.7 39.9 15.35 41.55 L12.7 44.15 Q11.1 45.55 9.25 45.85 7.7 49.15 5.25 49.0 2.85 48.9 1.3 45.25 0.8 44.05 0.4 42.25 -0.1 40.15 0.1 39.15 0.4 37.25 2.15 35.65 4.05 33.9 4.35 33.0 7.8 32.4 21.4 28.3 31.85 25.2 38.55 25.1 39.35 22.15 38.25 18.9 37.1 15.25 37.3 13.5 38.05 7.35 46.35 3.75 53.65 0.6 64.95 0.1 75.55 -0.4 85.0 1.6 94.8 3.65 98.35 7.4 100.65 9.8 99.8 17.8 M92.85 4.95 Q86.45 2.75 78.5 1.7 70.15 0.65 62.5 1.25 44.2 2.65 39.15 12.25 41.1 11.7 41.05 14.05 41.0 16.9 41.6 17.15 46.7 20.45 55.15 21.95 L72.25 22.8 Q81.4 22.2 88.5 19.65 96.2 16.8 99.55 12.25 L97.35 8.4 Q95.85 6.4 93.45 6.15 L93.1 8.6 92.25 10.45 Q91.75 8.85 92.6 7.1 93.35 5.6 92.85 4.95 M69.0 24.05 Q59.7 24.2 51.7 22.25 43.25 20.25 39.15 16.55 38.9 18.1 39.45 20.2 39.95 22.35 39.75 23.85 41.6 23.7 41.95 24.4 42.45 25.45 43.4 25.7 L41.85 26.55 Q40.9 27.1 39.75 26.9 L39.65 30.1 Q39.55 32.05 41.0 31.8 43.4 32.45 43.4 29.65 L43.35 27.35 Q43.45 26.1 44.05 25.7 44.8 26.3 44.7 28.7 L44.65 32.4 Q41.75 32.3 41.0 33.0 41.9 35.7 42.0 42.05 42.05 47.7 43.4 50.1 46.25 55.1 58.45 57.2 69.65 59.2 78.8 57.45 82.55 56.75 87.35 54.4 92.8 51.75 93.45 49.5 95.5 42.5 96.45 32.15 97.7 18.45 98.35 14.7 94.55 19.15 86.25 21.65 78.6 23.95 69.0 24.05 M3.25 43.95 Q5.1 45.3 7.4 44.6 7.85 44.1 7.65 43.15 L7.0 41.5 Q6.3 39.45 8.65 39.15 9.75 39.3 9.75 41.65 9.8 44.2 10.45 44.6 14.0 40.05 22.75 37.7 27.75 36.3 38.55 34.25 39.25 32.9 38.9 30.9 38.4 28.2 38.55 26.9 L36.7 26.9 Q36.25 28.0 34.6 28.1 L31.8 28.15 Q28.9 28.85 20.05 32.0 12.95 34.55 9.25 34.85 11.15 33.95 16.3 32.2 21.0 30.65 23.3 29.35 14.3 31.25 9.6 32.85 0.95 35.85 1.3 40.35 1.45 42.65 3.25 43.95 M38.55 12.9 L38.5 14.75 Q38.6 15.7 39.75 15.3 39.6 13.45 38.55 12.9 M34.25 25.7 Q30.95 27.8 25.7 28.15 L25.0 29.05 26.35 28.75 31.95 27.55 Q35.9 26.5 37.3 25.7 L34.25 25.7" fill="#000000" fill-rule="evenodd" stroke="none"/>
    <path d="M95.9 9.2 L97.2 11.0 Q97.75 12.1 97.75 13.5 96.8 13.45 96.6 12.5 96.4 11.9 96.5 10.45 95.95 10.35 95.9 11.05 95.4 10.95 95.65 10.45 L95.9 9.2" fill="#000000" fill-rule="evenodd" stroke="none"/>
    <path d="M95.65 10.45 Q95.4 10.95 95.9 11.05 95.95 10.35 96.5 10.45 96.4 11.9 96.6 12.5 96.8 13.45 97.75 13.5 97.75 12.1 97.2 11.0 L95.9 9.2 95.65 10.45 M93.45 6.15 Q95.85 6.4 97.35 8.4 L99.55 12.25 Q96.2 16.8 88.5 19.65 81.4 22.2 72.25 22.8 L55.15 21.95 Q46.7 20.45 41.6 17.15 41.0 16.9 41.05 14.05 41.1 11.7 39.15 12.25 44.2 2.65 62.5 1.25 70.15 0.65 78.5 1.7 86.45 2.75 92.85 4.95 93.35 5.6 92.6 7.1 91.75 8.85 92.25 10.45 L93.1 8.6 93.45 6.15" fill="url(#gradient0)" fill-rule="evenodd" stroke="none"/>
    <path d="M86.25 21.65 Q94.55 19.15 98.35 14.7 97.7 18.45 96.45 32.15 95.5 42.5 93.45 49.5 92.8 51.75 87.35 54.4 82.55 56.75 78.8 57.45 69.65 59.2 58.45 57.2 46.25 55.1 43.4 50.1 42.05 47.7 42.0 42.05 41.9 35.7 41.0 33.0 41.75 32.3 44.65 32.4 L44.7 28.7 Q44.8 26.3 44.05 25.7 43.45 26.1 43.35 27.35 L43.4 29.65 Q43.4 32.45 41.0 31.8 39.55 32.05 39.65 30.1 L39.75 26.9 Q40.9 27.1 41.85 26.55 L43.4 25.7 Q42.45 25.45 41.95 24.4 41.6 23.7 39.75 23.85 39.95 22.35 39.45 20.2 38.9 18.1 39.15 16.55 43.25 20.25 51.7 22.25 59.7 24.2 69.0 24.05 78.6 23.95 86.25 21.65" fill="url(#gradient1)" fill-rule="evenodd" stroke="none"/>
    <path d="M39.75 15.3 Q38.6 15.7 38.5 14.75 L38.55 12.9 Q39.6 13.45 39.75 15.3" fill="#ffffff" fill-rule="evenodd" stroke="none"/>
    <path d="M9.6 32.85 Q14.3 31.25 23.3 29.35 21.0 30.65 16.3 32.2 11.15 33.95 9.25 34.85 12.95 34.55 20.05 32.0 28.9 28.85 31.8 28.15 L34.6 28.1 Q36.25 28.0 36.7 26.9 L38.55 26.9 Q38.4 28.2 38.9 30.9 39.25 32.9 38.55 34.25 27.75 36.3 22.75 37.7 14.0 40.05 10.45 44.6 9.8 44.2 9.75 41.65 9.75 39.3 8.65 39.15 6.3 39.45 7.0 41.5 L7.65 43.15 Q7.85 44.1 7.4 44.6 5.1 45.3 3.25 43.95 1.45 42.65 1.3 40.35 0.95 35.85 9.6 32.85" fill="#9b4d13" fill-rule="evenodd" stroke="none"/>
    <path d="M34.25 25.7 L37.3 25.7 Q35.9 26.5 31.95 27.55 L26.35 28.75 25.0 29.05 25.7 28.15 Q30.95 27.8 34.25 25.7" fill="#9b4d13" fill-rule="evenodd" stroke="none"/>
  </g>
  <defs>
    <linearGradient gradientTransform="matrix(0.0369, 0.0, 0.0, -0.0369, 69.35, 12.0)" gradientUnits="userSpaceOnUse" id="gradient0" spreadMethod="pad" x1="-819.2" x2="819.2">
      <stop offset="0.0" stop-color="#ffffff"/>
      <stop offset="1.0" stop-color="#000000"/>
    </linearGradient>
    <linearGradient gradientTransform="matrix(0.0362, 0.0, 0.0, -0.0362, 68.7, 36.45)" gradientUnits="userSpaceOnUse" id="gradient1" spreadMethod="pad" x1="-819.2" x2="819.2">
      <stop offset="0.0" stop-color="#ffffff"/>
      <stop offset="1.0" stop-color="#000000"/>
    </linearGradient>
  </defs>
</svg>
