<?xml version="1.0" encoding="UTF-8" standalone="no"?>
<svg xmlns:xlink="http://www.w3.org/1999/xlink" height="60.0px" width="75.65px" xmlns="http://www.w3.org/2000/svg">
  <g transform="matrix(1, 0, 0, 1, -12.0, 0.0)">
    <path d="M69.7 24.85 Q71.8 26.65 74.45 31.2 L77.8 36.45 Q79.35 39.2 79.85 42.9 80.3 46.15 82.75 49.0 L87.65 54.15 86.35 57.5 Q85.5 59.25 84.25 60.0 79.2 57.05 76.45 54.6 L69.4 54.1 63.25 52.65 Q61.1 50.5 58.1 48.25 L52.5 44.35 50.5 43.4 Q49.15 42.9 48.6 42.4 L45.1 38.65 Q42.95 36.05 41.3 35.1 L36.65 32.7 32.0 30.2 27.25 27.6 Q24.45 26.0 23.25 24.85 20.4 22.25 17.45 16.05 14.25 9.35 12.0 6.8 L14.85 7.15 17.35 7.75 Q16.35 5.95 16.05 4.55 15.5 2.5 16.3 0.95 L16.4 0.45 Q22.0 -0.9 28.8 1.6 32.85 3.1 39.8 7.3 L39.7 7.65 39.35 7.75 38.9 8.5 39.3 8.35 Q40.6 7.6 41.3 7.75 42.1 9.05 43.9 9.75 L47.15 11.2 50.35 14.05 Q52.25 16.0 53.5 16.55 L55.2 16.8 56.9 17.05 Q57.85 17.55 60.0 18.95 L63.25 20.95 Q68.35 23.7 69.7 24.85 M63.85 23.8 L66.2 25.35 69.3 29.65 Q71.4 32.15 73.0 32.15 72.75 27.9 68.85 25.0 66.05 23.0 61.8 21.9 L63.85 23.8 M17.8 0.9 L16.55 1.35 16.6 2.9 16.4 4.85 17.75 3.25 18.85 1.45 Q18.65 0.6 17.8 0.9 M17.8 5.95 Q17.5 5.9 17.85 6.3 L18.75 7.4 Q19.2 8.2 19.8 8.25 20.1 7.3 18.65 6.35 L17.8 5.95 M16.9 13.15 L20.8 19.9 Q23.35 24.2 25.2 25.35 28.45 27.4 35.05 30.95 L44.2 36.05 42.0 34.25 Q40.65 33.0 41.3 32.15 45.35 37.2 52.15 42.8 L64.25 52.2 Q65.3 52.15 68.5 53.15 71.05 54.0 72.5 53.15 L71.9 53.05 Q71.55 53.0 71.55 52.65 72.8 52.65 75.85 51.4 77.9 50.55 78.85 51.7 78.0 51.8 77.55 52.55 L76.9 54.15 Q77.75 54.1 78.3 55.2 78.8 56.25 79.85 56.1 80.45 56.05 80.9 54.95 81.3 53.95 82.3 54.15 82.45 55.0 81.55 55.6 80.7 56.2 80.8 57.05 81.75 57.05 82.65 58.2 83.45 59.25 84.7 59.0 86.4 57.2 86.3 55.1 86.25 52.9 84.25 51.7 84.4 52.55 83.55 53.3 82.65 54.05 82.3 53.15 L83.2 52.1 83.75 50.7 Q82.95 50.55 82.35 49.95 L81.3 48.75 Q81.2 50.25 80.45 50.45 79.2 50.85 78.85 51.2 L78.2 49.65 Q77.85 48.75 77.9 47.8 78.35 47.8 79.25 49.0 80.0 49.9 80.35 49.25 L79.25 47.8 Q78.6 46.65 79.35 46.3 79.2 47.05 79.95 47.8 80.7 48.55 80.8 47.8 80.15 45.8 78.75 43.25 L76.45 39.0 Q68.55 36.15 59.85 33.65 L58.6 33.7 57.4 33.65 Q56.15 33.15 54.4 31.8 L51.55 29.75 Q49.4 28.6 45.45 27.15 L39.8 24.85 Q46.6 31.85 54.45 36.55 49.05 34.95 43.7 29.95 41.35 27.8 35.9 21.45 36.1 21.4 36.55 21.7 36.75 21.85 36.9 21.45 34.3 19.45 31.45 18.0 28.0 16.25 25.65 16.05 27.75 17.65 30.45 20.65 L34.95 25.85 38.3 28.8 Q40.2 30.5 40.3 32.15 L31.85 23.55 Q26.6 18.3 23.7 14.6 22.35 14.7 19.85 13.75 17.55 12.9 16.9 13.15 M34.9 6.6 Q36.55 7.45 36.9 8.25 37.65 7.05 35.95 6.15 L33.0 4.85 Q33.3 5.8 34.9 6.6 M34.6 12.05 L35.9 12.65 Q35.7 12.25 36.3 11.45 36.7 10.9 35.9 10.7 35.6 11.7 34.45 11.65 L34.35 11.05 Q34.25 10.7 33.95 10.7 33.85 11.65 34.6 12.05 M33.2 9.55 Q33.0 8.6 32.5 9.7 32.4 9.95 32.6 10.35 32.75 10.75 33.0 10.7 33.4 10.65 33.2 9.55 M37.3 9.15 L36.9 9.25 36.9 10.2 Q37.75 10.75 37.95 9.7 38.15 8.6 37.4 8.75 L37.3 9.15 M36.7 12.5 Q36.35 12.8 35.9 13.65 37.25 13.6 37.85 14.1 37.8 12.8 38.35 12.15 37.35 12.0 36.7 12.5 M29.1 10.7 L29.45 9.9 Q29.6 9.45 29.1 9.25 L28.7 10.05 Q28.55 10.5 29.1 10.7 M21.9 3.8 Q22.0 4.1 22.35 4.05 L22.8 3.75 22.25 2.9 Q21.75 3.45 21.9 3.8 M28.6 15.1 L21.9 10.8 Q17.85 8.35 13.95 7.75 15.1 11.05 20.4 12.9 23.35 13.95 28.6 15.1 M39.35 15.6 Q40.1 15.9 40.65 15.1 41.2 14.3 40.3 14.1 L39.85 14.85 39.35 15.6 M37.8 16.75 L38.35 15.6 Q37.55 15.55 37.1 16.0 L36.4 17.05 Q37.4 17.3 37.8 16.75 M36.4 14.6 Q34.8 14.5 34.95 16.05 35.7 16.25 35.95 15.65 L36.4 14.6 M30.9 14.75 Q31.1 14.35 30.55 14.1 L30.2 14.95 Q30.0 15.4 30.55 15.6 L30.9 14.75 M32.1 16.8 L32.6 16.75 32.85 16.05 Q32.7 15.65 32.0 15.6 31.85 16.55 32.1 16.8 M40.3 9.7 L42.5 10.65 Q43.8 11.3 43.25 10.7 42.85 10.7 41.4 9.45 40.35 8.55 40.3 9.7 M40.8 12.65 Q40.85 12.1 41.3 12.15 L41.1 11.4 Q40.85 11.05 40.3 11.2 L40.4 12.1 Q40.45 12.6 40.8 12.65 M43.25 11.65 Q42.3 11.3 41.85 12.35 41.35 13.4 42.25 13.65 L42.75 12.65 43.25 11.65 M47.65 15.6 L47.3 16.25 Q47.05 16.6 47.15 17.05 L48.1 17.05 Q48.1 16.8 48.45 16.4 L48.6 15.6 47.65 15.6 M49.05 17.65 Q48.85 18.5 49.6 18.5 L50.1 17.45 Q50.35 16.6 49.6 16.55 L49.05 17.65 M46.8 18.65 L46.15 19.95 Q47.25 20.2 47.7 19.55 L48.1 18.0 Q47.2 17.9 46.8 18.65 M44.7 15.6 Q44.85 16.2 45.2 15.6 45.6 14.95 44.8 14.2 44.1 13.55 44.7 15.6 M40.8 17.05 Q41.6 17.3 42.05 16.25 42.55 15.2 41.75 15.1 41.75 15.5 41.15 15.95 40.6 16.3 40.8 17.05 M40.65 18.65 Q40.4 18.95 40.6 19.15 L41.1 19.1 41.75 18.0 Q40.95 18.25 40.65 18.65 M43.75 17.55 Q43.55 18.3 44.2 18.75 44.9 19.25 44.7 19.95 L44.4 20.2 Q44.3 20.4 44.7 20.45 45.5 20.1 45.4 19.1 45.25 17.75 45.7 17.05 L44.7 17.3 43.75 17.55 M43.5 17.05 L43.75 16.05 Q42.7 15.95 42.45 16.95 42.2 18.0 43.25 18.0 43.2 17.55 43.5 17.05 M43.2 20.2 L43.75 19.5 Q42.95 19.15 42.4 20.0 41.85 20.8 42.75 20.95 42.8 20.6 43.2 20.2 M40.3 22.4 Q40.4 23.7 41.5 24.4 L43.75 25.35 43.7 24.15 Q43.65 23.5 43.25 23.4 42.9 24.4 41.75 24.35 42.0 22.25 40.3 22.4 M49.4 20.55 L50.05 19.5 Q49.25 19.45 48.8 19.9 L48.1 20.95 Q48.9 21.0 49.4 20.55 M45.7 22.4 L46.15 21.45 Q44.8 21.0 44.35 22.1 43.9 23.2 45.2 23.4 L45.7 22.4 M46.2 23.8 Q45.85 24.6 46.65 24.85 L47.45 23.7 48.1 22.4 46.65 22.4 46.2 23.8 M48.6 23.4 L48.15 24.8 Q47.8 25.6 48.6 25.85 L49.55 24.4 Q49.95 23.35 48.6 23.4 M50.55 18.0 L50.55 19.0 Q51.4 19.55 51.6 18.5 51.85 17.4 51.05 17.55 L50.95 17.9 50.55 18.0 M51.7 16.85 Q52.4 17.4 53.0 17.55 52.95 16.4 51.95 16.15 L50.55 16.05 51.7 16.85 M53.5 18.0 L61.3 23.4 Q60.85 22.15 58.85 20.75 56.85 19.35 56.4 18.0 55.65 18.7 54.8 18.0 54.0 17.4 53.5 18.0 M53.25 20.6 Q53.15 20.9 53.5 21.9 54.65 21.65 55.3 22.55 56.05 23.5 56.9 23.4 L57.25 22.55 57.4 21.45 Q56.85 21.35 56.5 21.8 L55.95 22.4 55.9 21.2 Q55.85 20.55 55.45 20.45 55.1 21.45 54.0 21.45 53.8 21.05 54.35 20.25 54.8 19.7 54.0 19.5 L53.25 20.6 M52.95 19.1 Q52.9 18.75 52.6 18.9 L52.2 19.55 Q52.1 20.05 52.5 20.45 L52.95 19.1 M50.55 20.45 L49.8 21.5 Q49.2 22.15 50.05 22.4 L50.85 21.4 Q51.45 20.75 50.55 20.45 M51.05 23.85 Q52.2 24.0 52.7 22.8 53.25 21.6 52.0 21.45 L51.0 22.65 Q50.4 23.25 51.05 23.85 M53.1 24.0 Q52.4 24.5 52.5 25.35 53.5 25.55 54.1 24.4 54.75 23.25 54.0 22.9 L53.1 24.0 M57.85 23.0 Q57.25 23.35 56.9 24.35 58.1 24.2 58.55 23.7 58.9 23.3 58.65 23.05 L57.85 23.0 M57.35 27.5 L56.4 28.75 Q57.25 28.65 57.8 29.35 58.35 30.15 58.85 30.2 L59.7 29.0 Q60.25 28.15 59.35 27.8 59.05 28.8 57.9 28.75 57.7 28.0 58.2 27.65 L58.85 26.8 Q57.95 26.85 57.35 27.5 M57.15 26.45 Q57.7 25.6 56.9 25.35 L56.2 26.4 Q55.75 26.9 54.95 26.8 L55.85 25.4 Q56.35 24.3 55.45 23.85 55.3 24.65 54.65 25.3 L53.5 26.3 54.7 27.3 Q55.35 28.0 56.4 27.8 L57.15 26.45 M54.95 30.7 Q54.9 30.25 55.2 29.75 L55.45 28.75 Q54.7 28.6 54.2 29.25 53.75 29.95 53.0 29.75 53.0 29.35 53.65 28.9 54.15 28.5 54.0 27.8 53.2 27.6 52.75 28.25 52.3 28.95 51.55 28.75 L52.15 27.65 52.5 26.3 Q51.55 26.05 51.2 27.0 50.9 27.95 50.05 27.8 50.0 27.45 50.9 26.05 51.5 24.95 50.55 24.35 50.0 26.25 48.1 26.8 L46.55 25.5 44.7 24.35 Q44.75 25.1 44.2 25.85 47.3 26.8 50.85 28.7 L56.9 32.15 Q56.85 30.85 57.4 30.2 56.8 29.6 56.3 30.1 55.65 30.85 54.95 30.7 M57.9 32.65 Q58.95 33.2 58.95 31.95 58.95 30.65 57.9 31.2 L57.9 32.65 M71.15 33.65 Q71.95 34.4 72.05 33.65 71.45 33.75 71.25 33.0 71.0 32.2 70.55 32.15 70.4 32.9 71.15 33.65 M70.2 34.95 Q69.4 34.8 69.6 33.15 L67.4 34.15 Q66.7 34.4 65.2 33.65 65.55 35.05 68.35 35.5 L72.05 35.6 Q71.6 35.15 70.2 34.95 M74.0 36.05 Q73.65 36.05 73.45 35.65 L73.0 35.1 Q72.1 35.55 72.9 36.3 73.65 37.1 74.0 36.05 M74.0 32.65 Q74.95 35.25 76.2 37.4 77.75 40.05 78.85 40.45 L76.75 36.25 Q75.45 34.05 74.0 32.65 M66.9 29.25 Q67.55 30.05 68.15 30.2 68.35 29.15 67.2 28.4 66.0 27.6 65.7 28.25 L66.9 29.25 M65.2 29.75 L64.25 29.75 64.6 28.9 Q64.85 28.4 64.7 27.8 64.3 27.6 63.5 28.15 62.95 28.6 62.75 27.8 62.75 27.55 63.1 27.1 L63.25 26.3 Q62.55 26.3 61.8 26.8 L61.8 24.85 Q61.0 24.55 60.8 25.35 60.65 26.15 59.85 25.85 L60.2 25.0 Q60.45 24.5 60.3 23.85 58.45 24.0 58.35 25.85 60.05 26.4 62.15 28.4 64.35 30.6 65.7 31.2 65.5 30.8 66.05 30.0 66.5 29.45 65.7 29.25 L65.2 29.75 M63.25 25.35 L64.15 26.45 Q64.55 27.2 65.2 27.3 65.4 26.3 64.5 25.4 L63.25 25.35 M60.35 29.5 Q60.15 29.9 59.85 31.2 61.95 31.05 61.8 28.75 60.8 28.75 60.35 29.5 M64.7 31.7 Q63.7 31.55 63.35 32.3 63.15 32.85 63.25 34.1 64.15 34.25 64.35 33.3 L64.7 31.7 M61.8 33.15 Q61.9 32.6 62.6 31.75 63.25 31.0 63.25 30.2 62.3 30.25 61.65 31.4 60.95 32.6 61.8 33.15 M69.3 32.0 L69.55 31.5 69.35 30.85 Q69.05 30.65 68.6 31.2 69.0 32.05 69.3 32.0 M68.15 32.15 Q68.1 31.6 67.65 31.7 L67.2 32.1 Q66.75 32.15 66.65 31.7 L66.9 31.05 Q67.05 30.85 66.65 30.7 L66.2 31.45 65.7 32.15 Q66.45 32.0 66.9 32.65 67.35 33.35 68.15 33.15 L68.15 32.15" fill="#020202" fill-rule="evenodd" stroke="none"/>
    <path d="M19.85 13.75 Q22.35 14.7 23.7 14.6 26.6 18.3 31.85 23.55 L40.3 32.15 Q40.2 30.5 38.3 28.8 L34.95 25.85 30.45 20.65 Q27.75 17.65 25.65 16.05 28.0 16.25 31.45 18.0 34.3 19.45 36.9 21.45 36.75 21.85 36.55 21.7 36.1 21.4 35.9 21.45 41.35 27.8 43.7 29.95 49.05 34.95 54.45 36.55 46.6 31.85 39.8 24.85 L45.45 27.15 Q49.4 28.6 51.55 29.75 L54.4 31.8 Q56.15 33.15 57.4 33.65 L58.6 33.7 59.85 33.65 Q68.55 36.15 76.45 39.0 L78.75 43.25 Q80.15 45.8 80.8 47.8 80.7 48.55 79.95 47.8 79.2 47.05 79.35 46.3 78.6 46.65 79.25 47.8 L80.35 49.25 Q80.0 49.9 79.25 49.0 78.35 47.8 77.9 47.8 77.85 48.75 78.2 49.65 L78.85 51.2 Q79.2 50.85 80.45 50.45 81.2 50.25 81.3 48.75 L82.35 49.95 Q82.95 50.55 83.75 50.7 L83.2 52.1 82.3 53.15 Q82.65 54.05 83.55 53.3 84.4 52.55 84.25 51.7 86.25 52.9 86.3 55.1 86.4 57.2 84.7 59.0 83.45 59.25 82.65 58.2 81.75 57.05 80.8 57.05 80.7 56.2 81.55 55.6 82.45 55.0 82.3 54.15 81.3 53.95 80.9 54.95 80.45 56.05 79.85 56.1 78.8 56.25 78.3 55.2 77.75 54.1 76.9 54.15 L77.55 52.55 Q78.0 51.8 78.85 51.7 77.9 50.55 75.85 51.4 72.8 52.65 71.55 52.65 71.55 53.0 71.9 53.05 L72.5 53.15 Q71.05 54.0 68.5 53.15 65.3 52.15 64.25 52.2 L52.15 42.8 Q45.35 37.2 41.3 32.15 40.65 33.0 42.0 34.25 L44.2 36.05 35.05 30.95 Q28.45 27.4 25.2 25.35 23.35 24.2 20.8 19.9 L16.9 13.15 Q17.55 12.9 19.85 13.75 M47.3 34.35 Q47.05 34.5 47.15 35.1 50.15 37.1 53.55 38.1 L61.3 38.5 57.65 37.75 53.5 37.55 Q52.6 36.8 50.65 36.0 48.3 35.0 47.65 34.6 47.6 34.2 47.3 34.35" fill="#6af45b" fill-rule="evenodd" stroke="none"/>
    <path d="M74.0 32.65 Q75.45 34.05 76.75 36.25 L78.85 40.45 Q77.75 40.05 76.2 37.4 74.95 35.25 74.0 32.65" fill="#6af45b" fill-rule="evenodd" stroke="none"/>
    <path d="M74.0 36.05 Q73.65 37.1 72.9 36.3 72.1 35.55 73.0 35.1 L73.45 35.65 Q73.65 36.05 74.0 36.05" fill="#f2f219" fill-rule="evenodd" stroke="none"/>
    <path d="M70.55 32.15 Q71.0 32.2 71.25 33.0 71.45 33.75 72.05 33.65 71.95 34.4 71.15 33.65 70.4 32.9 70.55 32.15" fill="#f2f219" fill-rule="evenodd" stroke="none"/>
    <path d="M72.05 35.6 L68.35 35.5 Q65.55 35.05 65.2 33.65 66.7 34.4 67.4 34.15 L69.6 33.15 Q69.4 34.8 70.2 34.95 71.6 35.15 72.05 35.6" fill="#f2f219" fill-rule="evenodd" stroke="none"/>
    <path d="M61.8 21.9 Q66.05 23.0 68.85 25.0 72.75 27.9 73.0 32.15 71.4 32.15 69.3 29.65 L66.2 25.35 63.85 23.8 61.8 21.9" fill="#6af45b" fill-rule="evenodd" stroke="none"/>
    <path d="M68.6 31.2 Q69.05 30.65 69.35 30.85 L69.55 31.5 69.3 32.0 Q69.0 32.05 68.6 31.2" fill="#f2f219" fill-rule="evenodd" stroke="none"/>
    <path d="M65.7 28.25 Q66.0 27.6 67.2 28.4 68.35 29.15 68.15 30.2 67.55 30.05 66.9 29.25 L65.7 28.25" fill="#f2f219" fill-rule="evenodd" stroke="none"/>
    <path d="M68.15 32.15 L68.15 33.15 Q67.35 33.35 66.9 32.65 66.45 32.0 65.7 32.15 L66.2 31.45 66.65 30.7 Q67.05 30.85 66.9 31.05 L66.65 31.7 Q66.75 32.15 67.2 32.1 L67.65 31.7 Q68.1 31.6 68.15 32.15" fill="#f2f219" fill-rule="evenodd" stroke="none"/>
    <path d="M65.7 29.25 Q66.5 29.45 66.05 30.0 65.5 30.8 65.7 31.2 64.35 30.6 62.15 28.4 60.05 26.4 58.35 25.85 58.45 24.0 60.3 23.85 60.45 24.5 60.2 25.0 L59.85 25.85 Q60.65 26.15 60.8 25.35 61.0 24.55 61.8 24.85 L61.8 26.8 Q62.55 26.3 63.25 26.3 L63.1 27.1 Q62.75 27.55 62.75 27.8 62.95 28.6 63.5 28.15 64.3 27.6 64.7 27.8 64.85 28.4 64.6 28.9 L64.25 29.75 65.2 29.75 65.7 29.25" fill="#f2f219" fill-rule="evenodd" stroke="none"/>
    <path d="M63.25 25.35 L64.5 25.4 Q65.4 26.3 65.2 27.3 64.55 27.2 64.15 26.45 L63.25 25.35" fill="#f2f219" fill-rule="evenodd" stroke="none"/>
    <path d="M63.25 34.1 Q63.15 32.85 63.35 32.3 63.7 31.55 64.7 31.7 L64.35 33.3 Q64.15 34.25 63.25 34.1" fill="#f2f219" fill-rule="evenodd" stroke="none"/>
    <path d="M63.25 30.2 Q63.25 31.0 62.6 31.75 61.9 32.6 61.8 33.15 60.95 32.6 61.65 31.4 62.3 30.25 63.25 30.2" fill="#f2f219" fill-rule="evenodd" stroke="none"/>
    <path d="M61.8 28.75 Q61.95 31.05 59.85 31.2 60.15 29.9 60.35 29.5 60.8 28.75 61.8 28.75" fill="#f2f219" fill-rule="evenodd" stroke="none"/>
    <path d="M59.35 27.8 Q60.25 28.15 59.7 29.0 L58.85 30.2 Q58.35 30.15 57.8 29.35 57.25 28.65 56.4 28.75 L57.35 27.5 Q57.95 26.85 58.85 26.8 L58.2 27.65 Q57.7 28.0 57.9 28.75 59.05 28.8 59.35 27.8" fill="#f2f219" fill-rule="evenodd" stroke="none"/>
    <path d="M56.4 18.0 Q56.85 19.35 58.85 20.75 60.85 22.15 61.3 23.4 L53.5 18.0 Q54.0 17.4 54.8 18.0 55.65 18.7 56.4 18.0" fill="#6af45b" fill-rule="evenodd" stroke="none"/>
    <path d="M57.65 37.75 L61.3 38.5 53.55 38.1 Q50.15 37.1 47.15 35.1 47.05 34.5 47.3 34.35 47.6 34.2 47.65 34.6 48.3 35.0 50.65 36.0 52.6 36.8 53.5 37.55 L57.65 37.75" fill="#000000" fill-rule="evenodd" stroke="none"/>
    <path d="M57.9 31.2 Q58.95 30.65 58.95 31.95 58.95 33.2 57.9 32.65 L57.9 31.2" fill="#f2f219" fill-rule="evenodd" stroke="none"/>
    <path d="M56.9 24.35 Q57.25 23.35 57.85 23.0 L58.65 23.05 Q58.9 23.3 58.55 23.7 58.1 24.2 56.9 24.35" fill="#f2f219" fill-rule="evenodd" stroke="none"/>
    <path d="M54.0 21.45 Q55.1 21.45 55.45 20.45 55.85 20.55 55.9 21.2 L55.95 22.4 56.5 21.8 Q56.85 21.35 57.4 21.45 L57.25 22.55 56.9 23.4 Q56.05 23.5 55.3 22.55 54.65 21.65 53.5 21.9 53.15 20.9 53.25 20.6 L54.0 19.5 Q54.8 19.7 54.35 20.25 53.8 21.05 54.0 21.45" fill="#f2f219" fill-rule="evenodd" stroke="none"/>
    <path d="M56.9 25.35 Q57.7 25.6 57.15 26.45 L56.4 27.8 Q55.35 28.0 54.7 27.3 L53.5 26.3 54.65 25.3 Q55.3 24.65 55.45 23.85 56.35 24.3 55.85 25.4 L54.95 26.8 Q55.75 26.9 56.2 26.4 L56.9 25.35" fill="#f2f219" fill-rule="evenodd" stroke="none"/>
    <path d="M57.4 30.2 Q56.85 30.85 56.9 32.15 L50.85 28.7 Q47.3 26.8 44.2 25.85 44.75 25.1 44.7 24.35 L46.55 25.5 48.1 26.8 Q50.0 26.25 50.55 24.35 51.5 24.95 50.9 26.05 50.0 27.45 50.05 27.8 50.9 27.95 51.2 27.0 51.55 26.05 52.5 26.3 L52.15 27.65 51.55 28.75 Q52.3 28.95 52.75 28.25 53.2 27.6 54.0 27.8 54.15 28.5 53.65 28.9 53.0 29.35 53.0 29.75 53.75 29.95 54.2 29.25 54.7 28.6 55.45 28.75 L55.2 29.75 Q54.9 30.25 54.95 30.7 55.65 30.85 56.3 30.1 56.8 29.6 57.4 30.2" fill="#f2f219" fill-rule="evenodd" stroke="none"/>
    <path d="M54.0 22.9 Q54.75 23.25 54.1 24.4 53.5 25.55 52.5 25.35 52.4 24.5 53.1 24.0 L54.0 22.9" fill="#f2f219" fill-rule="evenodd" stroke="none"/>
    <path d="M52.5 20.45 Q52.1 20.05 52.2 19.55 L52.6 18.9 Q52.9 18.75 52.95 19.1 L52.5 20.45" fill="#f2f219" fill-rule="evenodd" stroke="none"/>
    <path d="M52.0 21.45 Q53.25 21.6 52.7 22.8 52.2 24.0 51.05 23.85 50.4 23.25 51.0 22.65 L52.0 21.45" fill="#f2f219" fill-rule="evenodd" stroke="none"/>
    <path d="M53.0 17.55 Q52.4 17.4 51.7 16.85 L50.55 16.05 51.95 16.15 Q52.95 16.4 53.0 17.55" fill="#6af45b" fill-rule="evenodd" stroke="none"/>
    <path d="M51.05 17.55 Q51.85 17.4 51.6 18.5 51.4 19.55 50.55 19.0 L50.55 18.0 50.95 17.9 51.05 17.55" fill="#f2f219" fill-rule="evenodd" stroke="none"/>
    <path d="M50.55 20.45 Q51.45 20.75 50.85 21.4 L50.05 22.4 Q49.2 22.15 49.8 21.5 L50.55 20.45" fill="#f2f219" fill-rule="evenodd" stroke="none"/>
    <path d="M48.1 20.95 L48.8 19.9 Q49.25 19.45 50.05 19.5 L49.4 20.55 Q48.9 21.0 48.1 20.95" fill="#f2f219" fill-rule="evenodd" stroke="none"/>
    <path d="M49.6 16.55 Q50.35 16.6 50.1 17.45 L49.6 18.5 Q48.85 18.5 49.05 17.65 L49.6 16.55" fill="#f2f219" fill-rule="evenodd" stroke="none"/>
    <path d="M48.6 23.4 Q49.95 23.35 49.55 24.4 L48.6 25.85 Q47.8 25.6 48.15 24.8 L48.6 23.4" fill="#f2f219" fill-rule="evenodd" stroke="none"/>
    <path d="M48.6 15.6 L48.45 16.4 Q48.1 16.8 48.1 17.05 L47.15 17.05 Q47.05 16.6 47.3 16.25 L47.65 15.6 48.6 15.6" fill="#f2f219" fill-rule="evenodd" stroke="none"/>
    <path d="M46.65 22.4 L48.1 22.4 47.45 23.7 46.65 24.85 Q45.85 24.6 46.2 23.8 L46.65 22.4" fill="#f2f219" fill-rule="evenodd" stroke="none"/>
    <path d="M46.15 19.95 L46.8 18.65 Q47.2 17.9 48.1 18.0 L47.7 19.55 Q47.25 20.2 46.15 19.95" fill="#f2f219" fill-rule="evenodd" stroke="none"/>
    <path d="M45.2 23.4 Q43.9 23.2 44.35 22.1 44.8 21.0 46.15 21.45 L45.7 22.4 45.2 23.4" fill="#f2f219" fill-rule="evenodd" stroke="none"/>
    <path d="M43.75 17.55 L44.7 17.3 45.7 17.05 Q45.25 17.75 45.4 19.1 45.5 20.1 44.7 20.45 44.3 20.4 44.4 20.2 L44.7 19.95 Q44.9 19.25 44.2 18.75 43.55 18.3 43.75 17.55" fill="#f2f219" fill-rule="evenodd" stroke="none"/>
    <path d="M44.7 15.6 Q44.1 13.55 44.8 14.2 45.6 14.95 45.2 15.6 44.85 16.2 44.7 15.6" fill="#020202" fill-rule="evenodd" stroke="none"/>
    <path d="M43.75 16.05 L43.5 17.05 Q43.2 17.55 43.25 18.0 42.2 18.0 42.45 16.95 42.7 15.95 43.75 16.05" fill="#020202" fill-rule="evenodd" stroke="none"/>
    <path d="M43.25 23.4 Q43.65 23.5 43.7 24.15 L43.75 25.35 41.5 24.4 Q40.4 23.7 40.3 22.4 42.0 22.25 41.75 24.35 42.9 24.4 43.25 23.4" fill="#f2f219" fill-rule="evenodd" stroke="none"/>
    <path d="M42.75 20.95 Q41.85 20.8 42.4 20.0 42.95 19.15 43.75 19.5 L43.2 20.2 Q42.8 20.6 42.75 20.95" fill="#020202" fill-rule="evenodd" stroke="none"/>
    <path d="M43.25 10.7 Q43.8 11.3 42.5 10.65 L40.3 9.7 Q40.35 8.55 41.4 9.45 42.85 10.7 43.25 10.7" fill="#6af45b" fill-rule="evenodd" stroke="none"/>
    <path d="M42.25 13.65 Q41.35 13.4 41.85 12.35 42.3 11.3 43.25 11.65 L42.75 12.65 42.25 13.65" fill="#020202" fill-rule="evenodd" stroke="none"/>
    <path d="M41.75 15.1 Q42.55 15.2 42.05 16.25 41.6 17.3 40.8 17.05 40.6 16.3 41.15 15.95 41.75 15.5 41.75 15.1" fill="#020202" fill-rule="evenodd" stroke="none"/>
    <path d="M41.3 12.15 Q40.85 12.1 40.8 12.65 40.45 12.6 40.4 12.1 L40.3 11.2 Q40.85 11.05 41.1 11.4 L41.3 12.15" fill="#020202" fill-rule="evenodd" stroke="none"/>
    <path d="M41.0 1.5 L41.2 2.05 40.7 1.25 41.0 1.5" fill="#000000" fill-rule="evenodd" stroke="none"/>
    <path d="M41.75 18.0 L41.1 19.1 40.6 19.15 Q40.4 18.95 40.65 18.65 40.95 18.25 41.75 18.0" fill="#020202" fill-rule="evenodd" stroke="none"/>
    <path d="M39.85 14.85 L40.3 14.1 Q41.2 14.3 40.65 15.1 40.1 15.9 39.35 15.6 L39.85 14.85" fill="#020202" fill-rule="evenodd" stroke="none"/>
    <path d="M36.4 17.05 L37.1 16.0 Q37.55 15.55 38.35 15.6 L37.8 16.75 Q37.4 17.3 36.4 17.05" fill="#020202" fill-rule="evenodd" stroke="none"/>
    <path d="M35.9 13.65 Q36.35 12.8 36.7 12.5 37.35 12.0 38.35 12.15 37.8 12.8 37.85 14.1 37.25 13.6 35.9 13.65" fill="#020202" fill-rule="evenodd" stroke="none"/>
    <path d="M37.4 8.75 Q38.15 8.6 37.95 9.7 37.75 10.75 36.9 10.2 L36.9 9.25 37.3 9.15 37.4 8.75" fill="#020202" fill-rule="evenodd" stroke="none"/>
    <path d="M33.0 4.85 L35.95 6.15 Q37.65 7.05 36.9 8.25 36.55 7.45 34.9 6.6 33.3 5.8 33.0 4.85" fill="#6af45b" fill-rule="evenodd" stroke="none"/>
    <path d="M34.95 16.05 Q34.8 14.5 36.4 14.6 L35.95 15.65 Q35.7 16.25 34.95 16.05" fill="#020202" fill-rule="evenodd" stroke="none"/>
    <path d="M35.9 10.7 Q36.7 10.9 36.3 11.45 35.7 12.25 35.9 12.65 L34.6 12.05 Q33.85 11.65 33.95 10.7 34.25 10.7 34.35 11.05 L34.45 11.65 Q35.6 11.7 35.9 10.7" fill="#020202" fill-rule="evenodd" stroke="none"/>
    <path d="M32.5 9.7 Q33.0 8.6 33.2 9.55 33.4 10.65 33.0 10.7 32.75 10.75 32.6 10.35 32.4 9.95 32.5 9.7" fill="#020202" fill-rule="evenodd" stroke="none"/>
    <path d="M32.0 15.6 Q32.7 15.65 32.85 16.05 L32.6 16.75 32.1 16.8 Q31.85 16.55 32.0 15.6" fill="#020202" fill-rule="evenodd" stroke="none"/>
    <path d="M30.55 14.1 Q31.1 14.35 30.9 14.75 L30.55 15.6 Q30.0 15.4 30.2 14.95 L30.55 14.1" fill="#020202" fill-rule="evenodd" stroke="none"/>
    <path d="M29.1 9.25 Q29.6 9.45 29.45 9.9 L29.1 10.7 Q28.55 10.5 28.7 10.05 L29.1 9.25" fill="#f2f219" fill-rule="evenodd" stroke="none"/>
    <path d="M20.4 12.9 Q15.1 11.05 13.95 7.75 17.85 8.35 21.9 10.8 L28.6 15.1 Q23.35 13.95 20.4 12.9" fill="#6af45b" fill-rule="evenodd" stroke="none"/>
    <path d="M22.25 2.9 L22.8 3.75 22.35 4.05 Q22.0 4.1 21.9 3.8 21.75 3.45 22.25 2.9" fill="#f2f219" fill-rule="evenodd" stroke="none"/>
    <path d="M17.85 6.3 Q17.5 5.9 17.8 5.95 L18.65 6.35 Q20.1 7.3 19.8 8.25 19.2 8.2 18.75 7.4 L17.85 6.3" fill="#f2f219" fill-rule="evenodd" stroke="none"/>
    <path d="M16.55 1.35 L17.8 0.9 Q18.65 0.6 18.85 1.45 L17.75 3.25 16.4 4.85 16.6 2.9 16.55 1.35" fill="#6af45b" fill-rule="evenodd" stroke="none"/>
    <path d="M26.0 9.75 Q27.35 9.55 27.05 10.65 L26.35 12.15 Q25.5 12.05 25.75 11.2 L26.0 9.75" fill="#f2f219" fill-rule="evenodd" stroke="none"/>
    <path d="M26.0 9.75 Q27.35 9.55 27.05 10.65 L26.35 12.15 Q25.5 12.05 25.75 11.2 L26.0 9.75" fill="none" stroke="#000000" stroke-linecap="round" stroke-linejoin="round" stroke-width="0.5"/>
    <path d="M23.95 9.05 L25.4 8.85 24.9 10.2 24.3 11.5 Q23.4 11.35 23.7 10.5 24.1 9.35 23.95 9.05" fill="#f2f219" fill-rule="evenodd" stroke="none"/>
    <path d="M23.95 9.05 L25.4 8.85 24.9 10.2 24.3 11.5 Q23.4 11.35 23.7 10.5 24.1 9.35 23.95 9.05" fill="none" stroke="#000000" stroke-linecap="round" stroke-linejoin="round" stroke-width="0.5"/>
    <path d="M28.45 9.9 Q27.7 9.35 28.3 8.7 L29.1 7.35 Q30.35 7.3 30.0 8.6 29.65 9.85 28.45 9.9" fill="#f2f219" fill-rule="evenodd" stroke="none"/>
    <path d="M28.45 9.9 Q27.7 9.35 28.3 8.7 L29.1 7.35 Q30.35 7.3 30.0 8.6 29.65 9.85 28.45 9.9" fill="none" stroke="#000000" stroke-linecap="round" stroke-linejoin="round" stroke-width="0.5"/>
    <path d="M23.3 8.15 L22.95 9.2 22.6 10.2 Q21.3 10.2 21.6 9.05 21.85 7.9 23.3 8.15" fill="#f2f219" fill-rule="evenodd" stroke="none"/>
    <path d="M23.3 8.15 L22.95 9.2 22.6 10.2 Q21.3 10.2 21.6 9.05 21.85 7.9 23.3 8.15" fill="none" stroke="#000000" stroke-linecap="round" stroke-linejoin="round" stroke-width="0.5"/>
    <path d="M27.5 6.6 Q28.45 6.7 27.95 7.45 L27.3 8.6 Q26.4 8.45 26.9 7.7 L27.5 6.6" fill="#f2f219" fill-rule="evenodd" stroke="none"/>
    <path d="M27.5 6.6 Q28.45 6.7 27.95 7.45 L27.3 8.6 Q26.4 8.45 26.9 7.7 L27.5 6.6" fill="none" stroke="#000000" stroke-linecap="round" stroke-linejoin="round" stroke-width="0.5"/>
    <path d="M30.6 7.6 Q30.15 6.65 30.25 6.3 L30.75 5.15 30.6 7.6" fill="#f2f219" fill-rule="evenodd" stroke="none"/>
    <path d="M30.6 7.6 Q30.15 6.65 30.25 6.3 L30.75 5.15" fill="none" stroke="#000000" stroke-linecap="round" stroke-linejoin="round" stroke-width="0.5"/>
    <path d="M26.9 5.65 L26.4 6.8 Q26.0 7.35 25.2 7.4 L25.7 6.3 Q26.1 5.75 26.9 5.65" fill="#f2f219" fill-rule="evenodd" stroke="none"/>
    <path d="M26.9 5.65 L26.4 6.8 Q26.0 7.35 25.2 7.4 L25.7 6.3 Q26.1 5.75 26.9 5.65" fill="none" stroke="#000000" stroke-linecap="round" stroke-linejoin="round" stroke-width="0.5"/>
    <path d="M29.45 6.3 Q29.0 5.95 29.0 5.45 L29.3 4.75 Q29.6 4.55 29.65 4.9 L29.45 6.3" fill="#f2f219" fill-rule="evenodd" stroke="none"/>
    <path d="M29.45 6.3 Q29.0 5.95 29.0 5.45 L29.3 4.75 Q29.6 4.55 29.65 4.9 L29.45 6.3" fill="none" stroke="#000000" stroke-linecap="round" stroke-linejoin="round" stroke-width="0.5"/>
    <path d="M24.75 4.5 L24.55 6.1 Q24.2 6.75 23.1 6.7 L23.55 5.3 Q23.85 4.5 24.75 4.5" fill="#f2f219" fill-rule="evenodd" stroke="none"/>
    <path d="M24.75 4.5 L24.55 6.1 Q24.2 6.75 23.1 6.7 L23.55 5.3 Q23.85 4.5 24.75 4.5" fill="none" stroke="#000000" stroke-linecap="round" stroke-linejoin="round" stroke-width="0.5"/>
    <path d="M27.6 3.6 Q28.35 3.35 28.3 4.45 28.25 5.55 27.35 5.15 L27.2 4.15 27.55 4.0 27.6 3.6" fill="#f2f219" fill-rule="evenodd" stroke="none"/>
    <path d="M27.6 3.6 Q28.35 3.35 28.3 4.45 28.25 5.55 27.35 5.15 L27.2 4.15 27.55 4.0 27.6 3.6" fill="none" stroke="#000000" stroke-linecap="round" stroke-linejoin="round" stroke-width="0.5"/>
    <path d="M26.0 2.85 Q26.8 2.8 26.65 3.65 L26.3 4.75 Q25.5 4.85 25.65 3.95 L26.0 2.85" fill="#f2f219" fill-rule="evenodd" stroke="none"/>
    <path d="M26.0 2.85 Q26.8 2.8 26.65 3.65 L26.3 4.75 Q25.5 4.85 25.65 3.95 L26.0 2.85" fill="none" stroke="#000000" stroke-linecap="round" stroke-linejoin="round" stroke-width="0.5"/>
    <path d="M23.95 2.15 L24.9 2.0 Q25.05 2.45 24.85 2.8 24.6 3.3 24.65 3.55 L23.65 3.65 Q23.55 3.25 23.75 2.85 L23.95 2.15" fill="#f2f219" fill-rule="evenodd" stroke="none"/>
    <path d="M23.95 2.15 L24.9 2.0 Q25.05 2.45 24.85 2.8 24.6 3.3 24.65 3.55 L23.65 3.65 Q23.55 3.25 23.75 2.85 L23.95 2.15" fill="none" stroke="#000000" stroke-linecap="round" stroke-linejoin="round" stroke-width="0.5"/>
    <path d="M32.25 13.15 Q33.6 12.95 33.3 14.05 L32.5 15.6 Q31.65 15.45 31.95 14.6 32.4 13.45 32.25 13.15" fill="#f2f219" fill-rule="evenodd" stroke="none"/>
    <path d="M32.25 13.15 Q33.6 12.95 33.3 14.05 L32.5 15.6 Q31.65 15.45 31.95 14.6 32.4 13.45 32.25 13.15" fill="none" stroke="#000000" stroke-linecap="round" stroke-linejoin="round" stroke-width="0.5"/>
    <path d="M30.2 12.4 L31.65 12.25 31.15 13.6 30.45 14.8 Q29.6 14.7 29.95 13.8 30.35 12.7 30.2 12.4" fill="#f2f219" fill-rule="evenodd" stroke="none"/>
    <path d="M30.2 12.4 L31.65 12.25 31.15 13.6 30.45 14.8 Q29.6 14.7 29.95 13.8 30.35 12.7 30.2 12.4" fill="none" stroke="#000000" stroke-linecap="round" stroke-linejoin="round" stroke-width="0.5"/>
    <path d="M34.7 13.4 Q34.0 12.8 34.6 12.2 L35.45 10.85 Q36.65 10.85 36.3 12.1 35.9 13.4 34.7 13.4" fill="#f2f219" fill-rule="evenodd" stroke="none"/>
    <path d="M34.7 13.4 Q34.0 12.8 34.6 12.2 L35.45 10.85 Q36.65 10.85 36.3 12.1 35.9 13.4 34.7 13.4" fill="none" stroke="#000000" stroke-linecap="round" stroke-linejoin="round" stroke-width="0.5"/>
    <path d="M29.6 11.5 L29.25 12.5 28.85 13.5 Q27.55 13.45 27.85 12.3 28.2 11.2 29.6 11.5" fill="#f2f219" fill-rule="evenodd" stroke="none"/>
    <path d="M29.6 11.5 L29.25 12.5 28.85 13.5 Q27.55 13.45 27.85 12.3 28.2 11.2 29.6 11.5" fill="none" stroke="#000000" stroke-linecap="round" stroke-linejoin="round" stroke-width="0.5"/>
    <path d="M33.9 10.05 Q34.8 10.25 34.3 10.9 L33.6 12.05 Q32.7 11.85 33.25 11.15 L33.9 10.05" fill="#f2f219" fill-rule="evenodd" stroke="none"/>
    <path d="M33.9 10.05 Q34.8 10.25 34.3 10.9 L33.6 12.05 Q32.7 11.85 33.25 11.15 L33.9 10.05" fill="none" stroke="#000000" stroke-linecap="round" stroke-linejoin="round" stroke-width="0.5"/>
    <path d="M36.95 11.2 Q36.5 10.25 36.6 9.85 L37.2 8.7 36.95 11.2" fill="#f2f219" fill-rule="evenodd" stroke="none"/>
    <path d="M36.95 11.2 Q36.5 10.25 36.6 9.85 L37.2 8.7" fill="none" stroke="#000000" stroke-linecap="round" stroke-linejoin="round" stroke-width="0.5"/>
    <path d="M33.3 9.1 L32.75 10.2 Q32.3 10.75 31.5 10.75 L32.1 9.65 Q32.5 9.15 33.3 9.1" fill="#f2f219" fill-rule="evenodd" stroke="none"/>
    <path d="M33.3 9.1 L32.75 10.2 Q32.3 10.75 31.5 10.75 L32.1 9.65 Q32.5 9.15 33.3 9.1" fill="none" stroke="#000000" stroke-linecap="round" stroke-linejoin="round" stroke-width="0.5"/>
    <path d="M35.8 9.85 Q35.4 9.45 35.45 8.95 35.45 8.5 35.75 8.3 36.05 8.1 36.1 8.45 L35.8 9.85" fill="#f2f219" fill-rule="evenodd" stroke="none"/>
    <path d="M35.8 9.85 Q35.4 9.45 35.45 8.95 35.45 8.5 35.75 8.3 36.05 8.1 36.1 8.45 L35.8 9.85" fill="none" stroke="#000000" stroke-linecap="round" stroke-linejoin="round" stroke-width="0.5"/>
    <path d="M31.2 7.85 L30.95 9.45 Q30.55 10.15 29.45 10.0 L29.95 8.6 Q30.3 7.8 31.2 7.85" fill="#f2f219" fill-rule="evenodd" stroke="none"/>
    <path d="M31.2 7.85 L30.95 9.45 Q30.55 10.15 29.45 10.0 L29.95 8.6 Q30.3 7.8 31.2 7.85" fill="none" stroke="#000000" stroke-linecap="round" stroke-linejoin="round" stroke-width="0.5"/>
    <path d="M34.05 7.1 Q34.8 6.85 34.7 7.95 34.65 9.05 33.75 8.6 L33.6 7.6 34.0 7.5 34.05 7.1" fill="#f2f219" fill-rule="evenodd" stroke="none"/>
    <path d="M34.05 7.1 Q34.8 6.85 34.7 7.95 34.65 9.05 33.75 8.6 L33.6 7.6 34.0 7.5 34.05 7.1" fill="none" stroke="#000000" stroke-linecap="round" stroke-linejoin="round" stroke-width="0.5"/>
    <path d="M32.5 6.25 Q33.25 6.25 33.1 7.1 L32.7 8.2 Q31.95 8.25 32.1 7.4 L32.5 6.25" fill="#f2f219" fill-rule="evenodd" stroke="none"/>
    <path d="M32.5 6.25 Q33.25 6.25 33.1 7.1 L32.7 8.2 Q31.95 8.25 32.1 7.4 L32.5 6.25" fill="none" stroke="#000000" stroke-linecap="round" stroke-linejoin="round" stroke-width="0.5"/>
    <path d="M30.5 5.5 L31.45 5.4 31.35 6.2 31.1 6.9 30.15 7.0 Q30.0 6.6 30.25 6.2 L30.5 5.5" fill="#f2f219" fill-rule="evenodd" stroke="none"/>
    <path d="M30.5 5.5 L31.45 5.4 31.35 6.2 31.1 6.9 30.15 7.0 Q30.0 6.6 30.25 6.2 L30.5 5.5" fill="none" stroke="#000000" stroke-linecap="round" stroke-linejoin="round" stroke-width="0.5"/>
    <path d="M35.85 15.05 Q37.2 14.85 36.85 16.0 L36.1 17.5 Q35.25 17.35 35.55 16.5 L35.85 15.05" fill="#f2f219" fill-rule="evenodd" stroke="none"/>
    <path d="M35.85 15.05 Q37.2 14.85 36.85 16.0 L36.1 17.5 Q35.25 17.35 35.55 16.5 L35.85 15.05" fill="none" stroke="#000000" stroke-linecap="round" stroke-linejoin="round" stroke-width="0.5"/>
    <path d="M33.8 14.3 L35.25 14.15 34.7 15.5 34.05 16.75 Q33.2 16.6 33.55 15.75 33.95 14.6 33.8 14.3" fill="#f2f219" fill-rule="evenodd" stroke="none"/>
    <path d="M33.8 14.3 L35.25 14.15 34.7 15.5 34.05 16.75 Q33.2 16.6 33.55 15.75 33.95 14.6 33.8 14.3" fill="none" stroke="#000000" stroke-linecap="round" stroke-linejoin="round" stroke-width="0.5"/>
    <path d="M33.2 13.4 L32.8 14.4 32.45 15.45 Q31.15 15.4 31.45 14.25 31.75 13.1 33.2 13.4" fill="#f2f219" fill-rule="evenodd" stroke="none"/>
    <path d="M33.2 13.4 L32.8 14.4 32.45 15.45 Q31.15 15.4 31.45 14.25 31.75 13.1 33.2 13.4" fill="none" stroke="#000000" stroke-linecap="round" stroke-linejoin="round" stroke-width="0.5"/>
    <path d="M41.95 18.7 Q43.3 18.55 42.95 19.65 L42.15 21.1 Q41.3 20.95 41.65 20.1 42.1 18.95 41.95 18.7" fill="#f2f219" fill-rule="evenodd" stroke="none"/>
    <path d="M41.95 18.7 Q43.3 18.55 42.95 19.65 L42.15 21.1 Q41.3 20.95 41.65 20.1 42.1 18.95 41.95 18.7" fill="none" stroke="#000000" stroke-linecap="round" stroke-linejoin="round" stroke-width="0.5"/>
    <path d="M39.95 17.85 L41.4 17.75 40.8 19.05 40.1 20.3 Q39.3 20.1 39.65 19.25 L39.95 17.85" fill="#f2f219" fill-rule="evenodd" stroke="none"/>
    <path d="M39.95 17.85 L41.4 17.75 40.8 19.05 40.1 20.3 Q39.3 20.1 39.65 19.25 L39.95 17.85" fill="none" stroke="#000000" stroke-linecap="round" stroke-linejoin="round" stroke-width="0.5"/>
    <path d="M39.4 16.9 L38.95 17.9 38.55 18.9 Q37.25 18.8 37.65 17.7 37.95 16.6 39.4 16.9" fill="#f2f219" fill-rule="evenodd" stroke="none"/>
    <path d="M39.4 16.9 L38.95 17.9 38.55 18.9 Q37.25 18.8 37.65 17.7 37.95 16.6 39.4 16.9" fill="none" stroke="#000000" stroke-linecap="round" stroke-linejoin="round" stroke-width="0.5"/>
    <path d="M35.35 10.65 Q36.7 10.5 36.4 11.6 L35.6 13.1 Q34.75 12.95 35.05 12.1 35.5 10.95 35.35 10.65" fill="#f2f219" fill-rule="evenodd" stroke="none"/>
    <path d="M35.35 10.65 Q36.7 10.5 36.4 11.6 L35.6 13.1 Q34.75 12.95 35.05 12.1 35.5 10.95 35.35 10.65" fill="none" stroke="#000000" stroke-linecap="round" stroke-linejoin="round" stroke-width="0.5"/>
    <path d="M33.3 9.9 L34.75 9.75 34.25 11.1 33.55 12.35 Q32.7 12.2 33.05 11.35 33.45 10.2 33.3 9.9" fill="#f2f219" fill-rule="evenodd" stroke="none"/>
    <path d="M33.3 9.9 L34.75 9.75 34.25 11.1 33.55 12.35 Q32.7 12.2 33.05 11.35 33.45 10.2 33.3 9.9" fill="none" stroke="#000000" stroke-linecap="round" stroke-linejoin="round" stroke-width="0.5"/>
    <path d="M32.7 9.0 L32.35 10.0 31.95 11.05 Q30.65 11.0 30.95 9.85 31.3 8.7 32.7 9.0" fill="#f2f219" fill-rule="evenodd" stroke="none"/>
    <path d="M32.7 9.0 L32.35 10.0 31.95 11.05 Q30.65 11.0 30.95 9.85 31.3 8.7 32.7 9.0" fill="none" stroke="#000000" stroke-linecap="round" stroke-linejoin="round" stroke-width="0.5"/>
    <path d="M41.5 14.3 Q42.8 14.15 42.45 15.25 L41.65 16.75 Q40.8 16.55 41.15 15.7 L41.5 14.3" fill="#f2f219" fill-rule="evenodd" stroke="none"/>
    <path d="M41.5 14.3 Q42.8 14.15 42.45 15.25 L41.65 16.75 Q40.8 16.55 41.15 15.7 L41.5 14.3" fill="none" stroke="#000000" stroke-linecap="round" stroke-linejoin="round" stroke-width="0.5"/>
    <path d="M39.45 13.45 L40.9 13.35 40.35 14.7 39.65 15.9 Q38.8 15.75 39.15 14.85 39.6 13.75 39.45 13.45" fill="#f2f219" fill-rule="evenodd" stroke="none"/>
    <path d="M39.45 13.45 L40.9 13.35 40.35 14.7 39.65 15.9 Q38.8 15.75 39.15 14.85 39.6 13.75 39.45 13.45" fill="none" stroke="#000000" stroke-linecap="round" stroke-linejoin="round" stroke-width="0.5"/>
    <path d="M38.9 12.55 L38.5 13.55 38.05 14.55 Q36.75 14.45 37.15 13.3 37.5 12.2 38.9 12.55" fill="#f2f219" fill-rule="evenodd" stroke="none"/>
    <path d="M38.9 12.55 L38.5 13.55 38.05 14.55 Q36.75 14.45 37.15 13.3 37.5 12.2 38.9 12.55" fill="none" stroke="#000000" stroke-linecap="round" stroke-linejoin="round" stroke-width="0.5"/>
    <path d="M34.1 7.0 L35.6 6.85 35.05 8.2 34.35 9.45 Q33.55 9.3 33.85 8.45 34.25 7.3 34.1 7.0" fill="#f2f219" fill-rule="evenodd" stroke="none"/>
    <path d="M34.1 7.0 L35.6 6.85 35.05 8.2 34.35 9.45 Q33.55 9.3 33.85 8.45 34.25 7.3 34.1 7.0" fill="none" stroke="#000000" stroke-linecap="round" stroke-linejoin="round" stroke-width="0.5"/>
    <path d="M39.75 9.7 Q41.1 9.5 40.75 10.65 L40.0 12.1 Q39.15 11.95 39.45 11.15 L39.75 9.7" fill="#f2f219" fill-rule="evenodd" stroke="none"/>
    <path d="M39.75 9.7 Q41.1 9.5 40.75 10.65 L40.0 12.1 Q39.15 11.95 39.45 11.15 L39.75 9.7" fill="none" stroke="#000000" stroke-linecap="round" stroke-linejoin="round" stroke-width="0.5"/>
    <path d="M37.7 8.9 L39.15 8.75 38.65 10.1 37.95 11.35 Q37.1 11.2 37.45 10.35 37.85 9.2 37.7 8.9" fill="#f2f219" fill-rule="evenodd" stroke="none"/>
    <path d="M37.7 8.9 L39.15 8.75 38.65 10.1 37.95 11.35 Q37.1 11.2 37.45 10.35 37.85 9.2 37.7 8.9" fill="none" stroke="#000000" stroke-linecap="round" stroke-linejoin="round" stroke-width="0.5"/>
    <path d="M37.1 8.0 L36.7 9.05 36.35 10.05 Q35.05 10.0 35.35 8.85 35.65 7.7 37.1 8.0" fill="#f2f219" fill-rule="evenodd" stroke="none"/>
    <path d="M37.1 8.0 L36.7 9.05 36.35 10.05 Q35.05 10.0 35.35 8.85 35.65 7.7 37.1 8.0" fill="none" stroke="#000000" stroke-linecap="round" stroke-linejoin="round" stroke-width="0.5"/>
    <path d="M45.85 13.3 Q47.2 13.15 46.85 14.25 L46.05 15.75 Q45.2 15.6 45.55 14.7 46.0 13.6 45.85 13.3" fill="#f2f219" fill-rule="evenodd" stroke="none"/>
    <path d="M45.85 13.3 Q47.2 13.15 46.85 14.25 L46.05 15.75 Q45.2 15.6 45.55 14.7 46.0 13.6 45.85 13.3" fill="none" stroke="#000000" stroke-linecap="round" stroke-linejoin="round" stroke-width="0.5"/>
    <path d="M43.85 12.5 L45.3 12.4 44.75 13.7 44.0 14.9 Q43.2 14.75 43.55 13.9 L43.85 12.5" fill="#f2f219" fill-rule="evenodd" stroke="none"/>
    <path d="M43.85 12.5 L45.3 12.4 44.75 13.7 44.0 14.9 Q43.2 14.75 43.55 13.9 L43.85 12.5" fill="none" stroke="#000000" stroke-linecap="round" stroke-linejoin="round" stroke-width="0.5"/>
    <path d="M43.3 11.55 L42.85 12.55 42.45 13.55 Q41.15 13.45 41.55 12.35 41.85 11.2 43.3 11.55" fill="#f2f219" fill-rule="evenodd" stroke="none"/>
    <path d="M43.3 11.55 L42.85 12.55 42.45 13.55 Q41.15 13.45 41.55 12.35 41.85 11.2 43.3 11.55" fill="none" stroke="#000000" stroke-linecap="round" stroke-linejoin="round" stroke-width="0.5"/>
  </g>
</svg>
