<?xml version="1.0" encoding="UTF-8" standalone="no"?>
<svg xmlns:xlink="http://www.w3.org/1999/xlink" height="30.35px" width="100.0px" xmlns="http://www.w3.org/2000/svg">
  <g transform="matrix(1, 0, 0, 1, 0.0, 0.0)">
    <path d="M77.45 1.05 L58.6 0.5 41.0 1.55 23.75 2.45 6.15 1.55 Q7.3 5.95 11.2 10.1 L14.65 13.45 17.95 16.95 Q8.55 10.3 4.6 1.05 L2.4 0.8 Q1.3 0.4 1.05 1.05 L7.4 9.55 Q11.25 14.55 14.35 17.45 16.7 18.0 18.95 19.2 21.4 20.5 21.55 21.55 L20.9 21.3 Q20.65 21.15 20.5 21.55 20.9 22.55 21.85 22.95 L23.85 23.45 Q26.9 23.95 28.2 26.15 30.85 25.55 36.25 27.35 41.75 29.15 44.1 28.7 L42.85 28.7 Q42.15 28.65 42.05 28.2 L48.75 28.4 56.4 29.75 Q58.4 28.55 60.5 28.2 62.8 27.85 64.6 28.7 66.25 27.35 69.9 25.8 74.0 24.0 75.4 23.05 L76.05 23.7 Q76.3 24.25 76.95 24.1 76.7 22.25 77.9 22.15 L79.5 22.05 Q80.0 21.55 79.85 20.75 79.8 20.55 81.05 21.05 L83.1 18.5 Q84.45 17.15 86.15 16.95 86.6 15.0 89.6 12.95 92.55 11.0 92.8 8.75 94.5 9.4 94.9 7.7 L95.2 6.9 Q95.35 6.8 95.9 7.7 95.55 7.05 96.45 6.4 97.15 5.85 96.4 5.65 96.4 6.1 96.1 5.95 95.8 5.8 95.9 5.15 96.15 4.85 97.7 4.4 98.95 4.05 99.0 3.1 L91.2 2.1 83.3 1.5 91.45 1.2 100.0 2.6 Q99.5 4.4 98.15 6.4 L95.4 9.75 90.6 14.55 85.15 19.0 77.45 24.0 Q74.0 26.05 68.7 28.7 61.3 30.35 52.85 30.35 L37.95 29.2 36.8 28.9 Q36.35 28.65 36.9 28.7 L28.75 27.4 Q24.45 26.35 21.55 24.1 L15.2 19.5 Q11.2 16.5 8.65 14.2 1.35 7.5 0.0 0.0 L12.9 1.1 28.7 1.55 34.3 1.7 39.5 1.55 61.4 0.15 81.95 1.4 77.45 1.05 M3.1 5.65 L4.3 7.65 Q5.15 8.95 5.65 8.2 5.25 8.05 4.3 6.4 3.55 5.0 3.1 5.65 M49.2 29.15 Q48.15 29.05 48.2 29.75 L49.8 29.8 Q50.8 29.85 50.75 29.2 L49.2 29.15" fill="#000000" fill-rule="evenodd" stroke="none"/>
    <path d="M83.1 1.55 L83.3 1.5 91.2 2.1 99.0 3.1 Q98.95 4.05 97.7 4.4 96.15 4.85 95.9 5.15 95.8 5.8 96.1 5.95 96.4 6.1 96.4 5.65 97.15 5.85 96.45 6.4 95.55 7.05 95.9 7.7 95.35 6.8 95.2 6.9 L94.9 7.7 Q94.5 9.4 92.8 8.75 92.55 11.0 89.6 12.95 86.6 15.0 86.15 16.95 84.45 17.15 83.1 18.5 L81.05 21.05 Q79.8 20.55 79.85 20.75 80.0 21.55 79.5 22.05 L77.9 22.15 Q76.7 22.25 76.95 24.1 76.3 24.25 76.05 23.7 L75.4 23.05 Q74.0 24.0 69.9 25.8 66.25 27.35 64.6 28.7 62.8 27.85 60.5 28.2 58.4 28.55 56.4 29.75 L48.75 28.4 42.05 28.2 Q42.15 28.65 42.85 28.7 L44.1 28.7 Q41.75 29.15 36.25 27.35 30.85 25.55 28.2 26.15 26.9 23.95 23.85 23.45 L21.85 22.95 Q20.9 22.55 20.5 21.55 20.65 21.15 20.9 21.3 L21.55 21.55 Q21.4 20.5 18.95 19.2 16.7 18.0 14.35 17.45 11.25 14.55 7.4 9.55 L1.05 1.05 Q1.3 0.4 2.4 0.8 L4.6 1.05 Q8.55 10.3 17.95 16.95 L14.65 13.45 11.2 10.1 Q7.3 5.95 6.15 1.55 L23.75 2.45 41.0 1.55 58.6 0.5 77.45 1.05 83.1 1.55 M42.05 13.35 Q41.65 13.75 41.5 14.95 41.3 16.25 42.05 16.4 42.0 15.8 42.75 15.55 43.55 15.35 43.6 14.9 43.0 14.95 42.75 14.2 42.5 13.35 42.05 13.35 M39.5 13.35 Q38.4 13.2 38.1 14.0 37.85 14.55 37.95 15.9 38.95 15.95 39.25 15.15 L39.5 13.35 M48.15 15.45 Q48.05 16.7 49.25 16.4 50.0 16.5 49.9 14.9 49.8 13.3 48.7 13.85 48.25 14.25 48.15 15.45 M45.15 16.4 Q46.7 16.75 46.7 15.15 46.7 13.45 45.15 13.85 L45.15 16.4 M31.3 11.3 Q30.4 11.7 30.75 12.85 32.1 13.4 32.75 12.1 33.35 10.8 32.3 10.25 32.3 10.8 31.3 11.3 M29.25 8.75 Q28.1 8.65 27.6 9.7 27.1 10.7 27.7 11.3 28.8 11.45 29.1 10.65 29.35 10.1 29.25 8.75 M34.35 14.35 L35.9 14.35 35.95 12.8 Q35.85 12.0 34.9 12.3 L34.5 13.2 Q34.25 13.75 34.35 14.35 M30.4 22.8 Q29.5 22.35 29.25 23.05 29.6 23.5 30.85 23.65 32.2 23.8 32.3 23.05 L30.4 22.8 M23.15 20.6 Q25.95 22.0 28.2 22.05 22.15 19.45 19.0 16.95 20.0 19.05 23.15 20.6 M81.1 17.25 Q79.95 18.1 79.5 19.0 80.65 18.95 82.35 17.25 84.15 15.55 83.1 15.9 L81.1 17.25 M71.9 9.2 Q71.5 8.9 70.25 8.75 69.9 11.15 72.3 10.8 72.55 9.65 71.9 9.2 M78.8 19.8 L79.0 19.0 78.05 19.05 Q77.5 19.1 77.45 19.5 77.8 19.5 78.0 19.95 L78.45 20.5 Q78.45 20.25 78.8 19.8 M67.2 10.25 Q67.1 11.65 67.3 12.2 67.65 13.0 68.7 12.85 L69.15 11.95 69.25 10.8 Q68.75 10.85 68.2 10.5 L67.2 10.25 M63.1 12.3 Q62.65 12.4 60.85 13.4 L58.45 13.35 58.45 14.9 59.05 15.1 59.5 15.4 Q60.45 14.3 61.1 14.2 61.6 14.2 63.1 14.9 L63.1 12.3 M66.15 13.15 Q65.95 11.7 64.6 11.8 L64.6 14.35 Q66.3 14.55 66.15 13.15 M51.3 14.9 L50.25 14.9 50.25 15.9 51.3 15.9 51.3 14.9 M53.25 14.7 Q53.0 13.65 51.8 13.85 L51.9 16.1 Q52.15 17.1 53.35 16.95 L53.25 14.7 M55.9 15.9 Q57.55 16.05 57.25 14.85 57.0 13.65 55.9 13.35 L55.9 15.9 M57.45 26.15 L59.05 26.2 Q60.05 26.3 60.0 25.65 L58.4 25.6 Q57.4 25.5 57.45 26.15 M60.5 25.65 L62.4 25.75 65.15 25.65 Q64.85 25.0 62.8 25.0 60.8 25.0 60.5 25.65" fill="#f4212b" fill-rule="evenodd" stroke="none"/>
    <path d="M83.1 15.9 Q84.15 15.55 82.35 17.25 80.65 18.95 79.5 19.0 79.95 18.1 81.1 17.25 L83.1 15.9" fill="#000000" fill-rule="evenodd" stroke="none"/>
    <path d="M79.0 19.0 L78.8 19.8 Q78.45 20.25 78.45 20.5 L78.0 19.95 Q77.8 19.5 77.45 19.5 77.5 19.1 78.05 19.05 L79.0 19.0" fill="#000000" fill-rule="evenodd" stroke="none"/>
    <path d="M70.25 8.75 Q71.5 8.9 71.9 9.2 72.55 9.65 72.3 10.8 69.9 11.15 70.25 8.75" fill="#000000" fill-rule="evenodd" stroke="none"/>
    <path d="M69.25 10.8 L69.15 11.95 68.7 12.85 Q67.65 13.0 67.3 12.2 67.1 11.65 67.2 10.25 L68.2 10.5 Q68.75 10.85 69.25 10.8" fill="#000000" fill-rule="evenodd" stroke="none"/>
    <path d="M64.6 11.8 Q65.95 11.7 66.15 13.15 66.3 14.55 64.6 14.35 L64.6 11.8" fill="#000000" fill-rule="evenodd" stroke="none"/>
    <path d="M65.15 25.65 L62.4 25.75 60.5 25.65 Q60.8 25.0 62.8 25.0 64.85 25.0 65.15 25.65" fill="#000000" fill-rule="evenodd" stroke="none"/>
    <path d="M63.1 12.3 L63.1 14.9 Q61.6 14.2 61.1 14.2 60.45 14.3 59.5 15.4 L59.05 15.1 58.45 14.9 58.45 13.35 60.85 13.4 Q62.65 12.4 63.1 12.3" fill="#000000" fill-rule="evenodd" stroke="none"/>
    <path d="M60.0 25.65 Q60.05 26.3 59.05 26.2 L57.45 26.15 Q57.4 25.5 58.4 25.6 L60.0 25.65" fill="#000000" fill-rule="evenodd" stroke="none"/>
    <path d="M55.9 13.35 Q57.0 13.65 57.25 14.85 57.55 16.05 55.9 15.9 L55.9 13.35" fill="#000000" fill-rule="evenodd" stroke="none"/>
    <path d="M51.8 13.85 Q53.0 13.65 53.25 14.7 L53.35 16.95 Q52.15 17.1 51.9 16.1 L51.8 13.85" fill="#000000" fill-rule="evenodd" stroke="none"/>
    <path d="M51.3 14.9 L51.3 15.9 50.25 15.9 50.25 14.9 51.3 14.9" fill="#000000" fill-rule="evenodd" stroke="none"/>
    <path d="M50.75 29.2 Q50.8 29.85 49.8 29.8 L48.2 29.75 Q48.15 29.05 49.2 29.15 L50.75 29.2" fill="#34bf1b" fill-rule="evenodd" stroke="none"/>
    <path d="M48.7 13.85 Q49.8 13.3 49.9 14.9 50.0 16.5 49.25 16.4 48.05 16.7 48.15 15.45 48.25 14.25 48.7 13.85" fill="#000000" fill-rule="evenodd" stroke="none"/>
    <path d="M45.15 13.85 Q46.7 13.45 46.7 15.15 46.7 16.75 45.15 16.4 L45.15 13.85" fill="#000000" fill-rule="evenodd" stroke="none"/>
    <path d="M42.05 13.35 Q42.5 13.35 42.75 14.2 43.0 14.95 43.6 14.9 43.55 15.35 42.75 15.55 42.0 15.8 42.05 16.4 41.3 16.25 41.5 14.95 41.65 13.75 42.05 13.35" fill="#000000" fill-rule="evenodd" stroke="none"/>
    <path d="M37.95 15.9 Q37.85 14.55 38.1 14.0 38.4 13.2 39.5 13.35 L39.25 15.15 Q38.95 15.95 37.95 15.9" fill="#000000" fill-rule="evenodd" stroke="none"/>
    <path d="M35.9 14.35 L34.35 14.35 Q34.25 13.75 34.5 13.2 L34.9 12.3 Q35.85 12.0 35.95 12.8 L35.9 14.35" fill="#000000" fill-rule="evenodd" stroke="none"/>
    <path d="M32.3 10.25 Q33.35 10.8 32.75 12.1 32.1 13.4 30.75 12.85 30.4 11.7 31.3 11.3 32.3 10.8 32.3 10.25" fill="#000000" fill-rule="evenodd" stroke="none"/>
    <path d="M29.25 23.05 Q29.5 22.35 30.4 22.8 L32.3 23.05 Q32.2 23.8 30.85 23.65 29.6 23.5 29.25 23.05" fill="#000000" fill-rule="evenodd" stroke="none"/>
    <path d="M29.1 10.65 Q28.8 11.45 27.7 11.3 27.1 10.7 27.6 9.7 28.1 8.65 29.25 8.75 29.35 10.1 29.1 10.65" fill="#000000" fill-rule="evenodd" stroke="none"/>
    <path d="M19.0 16.95 Q22.15 19.45 28.2 22.05 25.95 22.0 23.15 20.6 20.0 19.05 19.0 16.95" fill="#000000" fill-rule="evenodd" stroke="none"/>
    <path d="M5.65 8.2 Q5.15 8.95 4.3 7.65 L3.1 5.65 Q3.55 5.0 4.3 6.4 5.25 8.05 5.65 8.2" fill="#34bf1b" fill-rule="evenodd" stroke="none"/>
  </g>
</svg>
