<?xml version="1.0" encoding="UTF-8" standalone="no"?>
<svg xmlns:xlink="http://www.w3.org/1999/xlink" height="60.0px" width="52.95px" xmlns="http://www.w3.org/2000/svg">
  <g transform="matrix(1, 0, 0, 1, -24.0, 0.0)">
    <path d="M66.4 12.65 Q62.0 11.75 58.1 13.2 56.3 13.85 52.2 16.4 51.05 17.1 50.15 17.15 49.95 17.15 50.15 17.8 47.65 17.7 46.6 15.45 L47.6 15.7 48.6 15.95 Q47.45 13.85 43.3 13.95 38.6 14.1 36.9 12.65 34.0 13.8 31.5 15.75 29.1 17.6 27.75 19.7 L26.95 20.2 26.25 20.6 Q24.9 22.75 24.7 27.35 24.5 31.4 25.2 34.7 26.45 40.75 31.75 48.25 L39.95 58.6 46.05 58.45 47.95 57.3 Q48.95 56.75 49.65 56.75 49.95 56.75 51.65 57.5 53.25 58.25 54.7 58.15 L57.0 57.55 58.8 56.75 Q63.8 53.35 69.45 45.25 75.45 36.7 76.1 30.95 76.95 23.55 74.5 18.8 72.0 13.8 66.4 12.65 M32.4 5.85 Q31.85 0.75 35.9 0.0 L39.45 0.0 39.45 0.45 Q42.85 0.65 45.15 2.7 L48.6 7.05 48.6 8.9 48.6 9.85 Q48.8 10.7 49.65 10.3 51.1 11.3 52.65 9.1 54.35 6.7 55.75 7.05 56.35 8.5 55.25 9.55 L53.2 11.25 51.45 13.05 Q50.6 14.2 51.65 14.55 53.45 14.5 56.25 13.3 59.35 11.95 60.8 11.7 69.35 10.55 73.75 16.5 78.05 22.3 76.6 32.35 75.85 37.6 70.3 45.5 65.4 52.5 60.8 56.25 59.45 57.35 57.75 58.2 L55.25 59.1 Q54.15 59.2 52.4 58.4 50.7 57.6 49.65 57.7 48.7 57.75 47.55 58.6 46.1 59.65 45.05 60.0 L42.5 60.0 Q40.05 59.4 37.0 56.4 34.5 53.95 32.35 50.65 28.8 45.35 27.3 42.35 24.7 37.15 24.2 32.35 23.3 24.1 26.85 19.05 29.5 15.3 36.4 11.7 34.85 11.3 33.7 9.55 32.65 7.9 32.4 5.85 M33.75 7.15 Q35.0 10.45 38.15 12.35 41.7 14.45 45.55 13.1 45.45 12.6 45.9 12.05 46.25 11.5 46.05 10.8 L43.25 9.65 40.5 8.45 Q41.2 8.0 40.65 7.5 L39.05 6.45 Q36.15 4.85 36.4 3.3 37.3 3.2 38.5 4.5 39.3 5.4 39.95 4.2 40.25 6.15 42.0 7.3 42.7 7.75 45.55 8.9 L45.55 7.5 Q45.65 6.75 46.6 7.05 L46.6 9.4 Q48.7 8.9 47.55 7.3 45.95 4.95 46.05 4.2 43.3 3.05 41.5 0.95 36.25 -0.3 34.2 1.85 32.45 3.75 33.75 7.15 M54.7 8.9 Q53.55 8.65 52.7 9.75 51.85 10.85 52.7 11.25 52.7 10.45 53.55 9.95 L54.7 8.9 M48.9 11.7 L47.1 11.25 Q46.35 12.2 46.6 13.6 L48.9 14.05 Q50.3 14.05 50.15 12.65 49.95 11.95 48.9 11.7" fill="#000000" fill-rule="evenodd" stroke="none"/>
    <path d="M74.5 18.8 Q76.95 23.55 76.1 30.95 75.45 36.7 69.45 45.25 63.8 53.35 58.8 56.75 L57.0 57.55 54.7 58.15 Q53.25 58.25 51.65 57.5 49.95 56.75 49.65 56.75 48.95 56.75 47.95 57.3 L46.05 58.45 39.95 58.6 31.75 48.25 Q26.45 40.75 25.2 34.7 24.5 31.4 24.7 27.35 24.9 22.75 26.25 20.6 L26.95 20.2 27.75 19.7 Q29.1 17.6 31.5 15.75 34.0 13.8 36.9 12.65 38.6 14.1 43.3 13.95 47.45 13.85 48.6 15.95 L47.6 15.7 46.6 15.45 Q47.65 17.7 50.15 17.8 49.95 17.15 50.15 17.15 51.05 17.1 52.2 16.4 56.3 13.85 58.1 13.2 62.0 11.75 66.4 12.65 72.0 13.8 74.5 18.8 M57.4 52.4 Q59.05 51.1 60.3 48.75 56.4 52.3 52.7 54.4 55.45 53.95 57.4 52.4" fill="#fc0619" fill-rule="evenodd" stroke="none"/>
    <path d="M60.3 48.75 Q59.05 51.1 57.4 52.4 55.45 53.95 52.7 54.4 56.4 52.3 60.3 48.75" fill="#000000" fill-rule="evenodd" stroke="none"/>
    <path d="M52.7 11.25 Q51.85 10.85 52.7 9.75 53.55 8.65 54.7 8.9 L53.55 9.95 Q52.7 10.45 52.7 11.25" fill="#f7860b" fill-rule="evenodd" stroke="none"/>
    <path d="M34.2 1.85 Q36.25 -0.3 41.5 0.95 43.3 3.05 46.05 4.2 45.95 4.95 47.55 7.3 48.7 8.9 46.6 9.4 L46.6 7.05 Q45.65 6.75 45.55 7.5 L45.55 8.9 Q42.7 7.75 42.0 7.3 40.25 6.15 39.95 4.2 39.3 5.4 38.5 4.5 37.3 3.2 36.4 3.3 36.15 4.85 39.05 6.45 L40.65 7.5 Q41.2 8.0 40.5 8.45 L43.25 9.65 46.05 10.8 Q46.25 11.5 45.9 12.05 45.45 12.6 45.55 13.1 41.7 14.45 38.15 12.35 35.0 10.45 33.75 7.15 32.45 3.75 34.2 1.85" fill="#15f908" fill-rule="evenodd" stroke="none"/>
  </g>
</svg>
