<?xml version="1.0" encoding="UTF-8" standalone="no"?>
<svg xmlns:xlink="http://www.w3.org/1999/xlink" height="60.0px" width="36.6px" xmlns="http://www.w3.org/2000/svg">
  <g transform="matrix(1, 0, 0, 1, -31.0, 0.0)">
    <path d="M42.6 2.4 Q53.15 -1.05 59.65 6.8 65.25 13.55 66.4 26.25 67.1 34.45 66.65 40.7 66.05 48.35 63.8 51.65 63.3 50.55 61.3 50.8 L57.6 51.65 Q56.9 51.85 56.1 51.65 L55.0 51.25 Q54.05 51.0 54.0 53.2 53.55 54.3 53.45 53.1 L53.45 51.15 Q53.1 50.6 48.8 50.6 L48.8 52.7 Q48.15 52.75 48.2 51.75 L48.3 50.1 Q47.35 50.15 47.75 51.2 48.15 52.4 47.8 52.7 46.95 53.35 47.2 51.95 47.5 50.25 47.25 50.1 47.0 49.95 46.8 50.7 46.55 51.5 46.75 51.65 45.7 50.9 45.55 50.4 L45.2 49.6 Q44.35 49.65 44.2 50.65 L44.15 52.7 Q43.6 53.55 43.6 51.55 L43.65 48.55 Q47.25 45.55 48.55 41.15 50.0 36.2 47.25 32.45 L46.25 31.15 Q45.7 30.55 45.2 30.4 L43.85 30.45 42.6 30.4 Q42.4 30.25 43.0 30.0 L43.65 29.9 Q43.55 29.4 42.1 28.9 40.75 28.5 41.05 27.3 41.45 27.25 41.5 26.7 L41.6 25.75 Q43.05 25.45 44.5 26.2 46.0 26.95 47.25 26.75 45.7 24.85 41.6 25.2 41.85 22.5 41.55 18.85 L40.85 12.8 Q40.15 5.8 42.6 2.4 M49.35 25.75 Q49.65 27.15 51.65 27.8 L55.0 28.85 Q54.5 27.6 52.55 26.9 L49.35 25.75" fill="#479999" fill-rule="evenodd" stroke="none"/>
    <path d="M36.95 23.85 Q38.1 25.0 39.5 27.8 40.95 25.3 40.8 20.55 L40.1 12.05 Q39.7 7.05 40.55 4.5 41.65 1.1 45.2 0.3 50.95 -0.95 56.75 3.1 61.35 6.3 64.3 11.2 66.85 21.85 67.45 31.8 68.2 45.1 64.85 52.2 64.65 53.5 65.1 55.3 65.55 57.1 65.35 58.4 60.0 60.45 52.7 59.9 47.25 59.4 40.05 57.35 41.0 52.2 39.1 47.15 38.15 44.6 34.75 39.05 31.85 34.25 31.25 31.4 30.35 27.05 32.8 22.6 35.1 22.0 36.95 23.85 M40.85 12.8 L41.55 18.85 Q41.85 22.5 41.6 25.2 45.7 24.85 47.25 26.75 46.0 26.95 44.5 26.2 43.05 25.45 41.6 25.75 L41.5 26.7 Q41.45 27.25 41.05 27.3 40.75 28.5 42.1 28.9 43.55 29.4 43.65 29.9 L43.0 30.0 Q42.4 30.25 42.6 30.4 L43.85 30.45 45.2 30.4 Q45.7 30.55 46.25 31.15 L47.25 32.45 Q50.0 36.2 48.55 41.15 47.25 45.55 43.65 48.55 L43.6 51.55 Q43.6 53.55 44.15 52.7 L44.2 50.65 Q44.35 49.65 45.2 49.6 L45.55 50.4 Q45.7 50.9 46.75 51.65 46.55 51.5 46.8 50.7 47.0 49.95 47.25 50.1 47.5 50.25 47.2 51.95 46.95 53.35 47.8 52.7 48.15 52.4 47.75 51.2 47.35 50.15 48.3 50.1 L48.2 51.75 Q48.15 52.75 48.8 52.7 L48.8 50.6 Q53.1 50.6 53.45 51.15 L53.45 53.1 Q53.55 54.3 54.0 53.2 54.05 51.0 55.0 51.25 L56.1 51.65 Q56.9 51.85 57.6 51.65 L61.3 50.8 Q63.3 50.55 63.8 51.65 66.05 48.35 66.65 40.7 67.1 34.45 66.4 26.25 65.25 13.55 59.65 6.8 53.15 -1.05 42.6 2.4 40.15 5.8 40.85 12.8 M43.15 34.05 Q43.75 34.1 43.75 35.85 43.75 37.65 43.15 37.65 41.45 28.05 33.85 23.15 30.4 27.5 32.5 32.55 33.75 35.45 37.45 40.75 L39.25 45.3 Q40.2 47.7 41.6 48.55 43.15 48.0 44.5 45.85 45.75 43.85 46.35 41.2 47.0 38.5 46.6 36.4 46.2 34.05 44.65 33.2 44.9 33.7 44.75 34.45 44.6 35.25 44.15 35.05 44.45 34.45 43.8 33.8 43.15 33.15 43.15 34.05 M44.65 33.2 Q44.45 32.85 44.15 33.0 L44.65 33.2 M41.6 52.7 Q41.3 54.05 41.6 54.6 41.85 55.15 42.1 54.25 L42.0 52.8 Q41.8 51.75 41.6 52.7 M58.1 55.8 L58.1 57.75 Q58.2 58.95 58.65 57.9 L58.6 55.95 Q58.5 54.75 58.1 55.8 M55.0 55.8 Q54.7 57.2 55.0 57.75 55.3 58.25 55.55 57.35 L55.45 55.9 Q55.25 54.85 55.0 55.8 M56.45 56.75 Q56.2 56.15 56.05 56.85 55.9 57.4 56.2 58.0 56.4 58.6 56.55 57.9 L56.45 56.75 M60.7 57.9 L60.6 56.45 Q60.4 55.35 60.2 56.35 59.85 57.7 60.2 58.25 60.45 58.8 60.7 57.9" fill="#000000" fill-rule="evenodd" stroke="none"/>
    <path d="M60.2 58.25 Q59.85 57.7 60.2 56.35 60.4 55.35 60.6 56.45 L60.7 57.9 Q60.45 58.8 60.2 58.25" fill="#479999" fill-rule="evenodd" stroke="none"/>
    <path d="M58.1 55.8 Q58.5 54.75 58.6 55.95 L58.65 57.9 Q58.2 58.95 58.1 57.75 L58.1 55.8" fill="#479999" fill-rule="evenodd" stroke="none"/>
    <path d="M56.05 56.85 Q56.2 56.15 56.45 56.75 L56.55 57.9 Q56.4 58.6 56.2 58.0 55.9 57.4 56.05 56.85" fill="#479999" fill-rule="evenodd" stroke="none"/>
    <path d="M55.0 55.8 Q55.25 54.85 55.45 55.9 L55.55 57.35 Q55.3 58.25 55.0 57.75 54.7 57.2 55.0 55.8" fill="#479999" fill-rule="evenodd" stroke="none"/>
    <path d="M52.55 26.9 Q54.5 27.6 55.0 28.85 L51.65 27.8 Q49.65 27.15 49.35 25.75 L52.55 26.9" fill="#000000" fill-rule="evenodd" stroke="none"/>
    <path d="M44.65 33.2 Q46.2 34.05 46.6 36.4 47.0 38.5 46.35 41.2 45.75 43.85 44.5 45.85 43.15 48.0 41.6 48.55 40.2 47.7 39.25 45.3 L37.45 40.75 Q33.75 35.45 32.5 32.55 30.4 27.5 33.85 23.15 41.45 28.05 43.15 37.65 43.75 37.65 43.75 35.85 43.75 34.1 43.15 34.05 43.15 33.15 43.8 33.8 44.45 34.45 44.15 35.05 44.6 35.25 44.75 34.45 44.9 33.7 44.65 33.2" fill="#5b8281" fill-rule="evenodd" stroke="none"/>
    <path d="M44.65 33.2 L44.15 33.0 Q44.45 32.85 44.65 33.2" fill="#ffffff" fill-rule="evenodd" stroke="none"/>
    <path d="M42.0 52.8 L42.1 54.25 Q41.85 55.15 41.6 54.6 41.3 54.05 41.6 52.7 41.8 51.75 42.0 52.8" fill="#479999" fill-rule="evenodd" stroke="none"/>
  </g>
</svg>
