<?xml version="1.0" encoding="UTF-8" standalone="no"?>
<svg xmlns:xlink="http://www.w3.org/1999/xlink" height="60.0px" width="68.65px" xmlns="http://www.w3.org/2000/svg">
  <g transform="matrix(1, 0, 0, 1, -15.05, 0.0)">
    <path d="M78.95 5.4 L83.7 6.85 Q82.75 10.8 82.65 16.25 L82.45 26.15 Q81.85 34.95 75.45 43.05 69.7 50.35 61.25 54.8 53.85 58.7 47.0 59.7 38.8 60.85 30.7 57.9 24.9 55.9 22.6 52.95 L18.65 52.55 Q17.5 52.15 15.75 51.05 L15.15 36.95 Q14.65 27.4 16.4 22.45 18.1 17.5 24.05 12.2 29.3 7.6 35.7 4.4 43.6 0.45 53.8 0.05 65.8 -0.45 73.1 5.0 L78.95 5.4 M75.6 6.85 Q74.4 7.15 70.9 5.05 66.7 2.5 63.75 1.9 55.2 0.15 47.9 1.5 41.6 2.75 33.85 6.85 29.7 9.1 26.85 11.35 22.9 14.4 23.25 16.2 L22.6 15.95 22.0 15.6 Q21.55 17.7 20.2 19.6 19.25 20.95 19.5 23.05 L18.8 22.5 18.25 21.8 Q15.85 27.6 15.75 36.75 17.65 37.55 18.05 35.95 18.5 34.15 19.5 34.25 19.8 36.1 18.55 37.25 17.5 38.15 18.25 39.85 17.8 39.8 17.3 39.25 L16.4 38.6 Q17.05 40.5 16.65 45.2 16.25 49.25 17.65 51.05 17.65 50.3 18.4 50.4 L20.25 51.1 Q23.45 52.3 25.1 50.45 25.6 50.95 25.7 52.0 L25.75 54.15 29.65 56.05 Q32.25 57.45 33.85 57.9 L37.0 58.7 40.05 59.15 40.2 58.5 Q40.25 57.85 40.7 57.9 L41.0 58.5 Q41.4 59.1 41.95 59.15 43.9 59.5 46.95 59.15 52.75 58.45 59.95 54.5 L71.25 47.35 Q77.1 38.95 79.0 34.55 82.65 25.95 79.35 19.95 80.95 16.6 81.6 14.4 82.45 11.05 81.85 8.1 80.85 7.3 78.5 6.6 76.1 5.9 75.15 6.2 L75.55 6.55 75.6 6.85" fill="#000000" fill-rule="evenodd" stroke="none"/>
    <path d="M81.85 8.1 Q82.45 11.05 81.6 14.4 80.95 16.6 79.35 19.95 82.65 25.95 79.0 34.55 77.1 38.95 71.25 47.35 L59.95 54.5 Q52.75 58.45 46.95 59.15 43.9 59.5 41.95 59.15 41.4 59.1 41.0 58.5 L40.7 57.9 Q40.25 57.85 40.2 58.5 L40.05 59.15 37.0 58.7 33.85 57.9 Q32.25 57.45 29.65 56.05 L25.75 54.15 25.7 52.0 Q25.6 50.95 25.1 50.45 23.45 52.3 20.25 51.1 L18.4 50.4 Q17.65 50.3 17.65 51.05 16.25 49.25 16.65 45.2 17.05 40.5 16.4 38.6 L17.3 39.25 Q17.8 39.8 18.25 39.85 17.5 38.15 18.55 37.25 19.8 36.1 19.5 34.25 18.5 34.15 18.05 35.95 17.65 37.55 15.75 36.75 15.85 27.6 18.25 21.8 L18.8 22.5 19.5 23.05 Q19.25 20.95 20.2 19.6 21.55 17.7 22.0 15.6 L22.6 15.95 23.25 16.2 Q22.9 14.4 26.85 11.35 29.7 9.1 33.85 6.85 41.6 2.75 47.9 1.5 55.2 0.15 63.75 1.9 66.7 2.5 70.9 5.05 74.4 7.15 75.6 6.85 L75.55 6.55 75.15 6.2 Q76.1 5.9 78.5 6.6 80.85 7.3 81.85 8.1 M23.85 19.95 L23.95 21.1 Q24.0 21.75 24.5 21.8 L24.6 21.3 25.1 21.2 24.85 20.2 Q24.6 19.8 23.85 19.95 M22.55 19.45 Q22.45 19.95 23.25 20.55 24.0 19.7 23.85 19.3 23.75 18.9 23.2 19.0 22.65 19.05 22.55 19.45 M25.1 27.4 L25.1 26.15 23.85 26.15 23.85 27.4 25.1 27.4 M51.45 55.3 Q52.1 55.05 51.9 54.15 L50.65 54.15 50.4 54.85 Q50.05 55.2 50.05 55.4 L51.45 55.3 M22.35 35.75 Q22.1 35.35 21.35 35.5 L21.45 36.7 Q21.55 37.3 22.0 37.35 L22.1 36.85 22.6 36.75 22.35 35.75 M18.9 30.5 L17.65 30.5 17.65 31.75 18.9 31.75 18.9 30.5 M20.1 31.75 L20.1 33.0 21.35 33.0 21.35 31.75 20.1 31.75 M30.1 56.05 Q31.2 56.7 31.45 55.4 31.7 54.0 30.7 54.15 L30.3 55.05 Q30.0 55.5 30.1 56.05" fill="#2f9117" fill-rule="evenodd" stroke="none"/>
    <path d="M51.9 54.15 Q52.1 55.05 51.45 55.3 L50.05 55.4 Q50.05 55.2 50.4 54.85 L50.65 54.15 51.9 54.15" fill="#000000" fill-rule="evenodd" stroke="none"/>
    <path d="M30.7 54.15 Q31.7 54.0 31.45 55.4 31.2 56.7 30.1 56.05 30.0 55.5 30.3 55.05 L30.7 54.15" fill="#000000" fill-rule="evenodd" stroke="none"/>
    <path d="M25.1 26.15 L25.1 27.4 23.85 27.4 23.85 26.15 25.1 26.15" fill="#000000" fill-rule="evenodd" stroke="none"/>
    <path d="M25.1 21.2 L24.6 21.3 24.5 21.8 Q24.0 21.75 23.95 21.1 L23.85 19.95 Q24.6 19.8 24.85 20.2 L25.1 21.2" fill="#000000" fill-rule="evenodd" stroke="none"/>
    <path d="M23.25 20.55 Q22.45 19.95 22.55 19.45 22.65 19.05 23.2 19.0 23.75 18.9 23.85 19.3 24.0 19.7 23.25 20.55" fill="#000000" fill-rule="evenodd" stroke="none"/>
    <path d="M22.6 36.75 L22.1 36.85 22.0 37.35 Q21.55 37.3 21.45 36.7 L21.35 35.5 Q22.1 35.35 22.35 35.75 L22.6 36.75" fill="#000000" fill-rule="evenodd" stroke="none"/>
    <path d="M21.35 31.75 L21.35 33.0 20.1 33.0 20.1 31.75 21.35 31.75" fill="#000000" fill-rule="evenodd" stroke="none"/>
    <path d="M18.9 30.5 L18.9 31.75 17.65 31.75 17.65 30.5 18.9 30.5" fill="#000000" fill-rule="evenodd" stroke="none"/>
  </g>
</svg>
