<?xml version="1.0" encoding="UTF-8" standalone="no"?>
<svg xmlns:xlink="http://www.w3.org/1999/xlink" height="60.0px" width="60.05px" xmlns="http://www.w3.org/2000/svg">
  <g transform="matrix(1, 0, 0, 1, -20.05, -0.05)">
    <path d="M62.7 5.45 L62.95 4.9 63.25 4.35 58.05 2.85 Q55.45 2.1 53.55 1.15 53.2 1.8 53.85 2.8 54.35 3.6 53.55 3.85 52.7 3.3 52.7 2.7 L53.0 1.15 Q50.6 1.1 49.2 2.75 48.6 1.85 48.15 1.85 47.7 1.85 47.05 2.75 45.4 1.0 41.3 2.45 39.05 3.2 36.25 4.9 L32.75 6.85 Q30.65 8.0 29.8 8.7 L26.55 11.9 Q21.4 18.45 21.45 30.1 21.5 41.2 26.0 48.05 L28.5 51.0 30.85 53.45 32.2 53.75 33.55 53.95 34.35 55.0 35.2 56.1 Q36.45 56.95 38.6 57.4 L42.2 58.3 42.9 57.65 Q43.15 57.05 43.8 57.2 44.25 57.3 44.35 57.75 L44.35 58.8 Q52.8 60.05 61.2 56.15 68.7 52.65 73.5 46.4 L73.9 44.95 Q74.1 44.35 73.5 43.75 75.9 43.3 77.15 40.0 78.2 37.1 77.85 34.55 L77.3 35.35 Q76.85 35.65 76.75 35.1 76.9 34.5 78.0 33.65 78.95 32.9 78.9 31.85 79.5 29.35 78.65 26.35 L77.3 22.7 Q76.1 19.4 75.0 17.35 73.9 15.2 72.45 13.55 L67.4 8.1 Q64.4 5.35 62.7 5.45 M74.35 14.35 Q79.4 21.7 80.0 27.55 80.75 35.75 75.9 44.1 71.75 51.25 65.95 55.05 61.85 57.75 57.3 59.0 51.85 60.45 45.45 59.9 40.6 59.5 35.3 56.75 30.2 54.2 27.1 50.75 24.9 48.35 22.65 42.8 20.2 36.95 20.05 32.95 19.85 26.6 21.75 20.05 23.75 13.3 27.1 9.75 L28.4 9.2 30.35 8.15 31.4 6.75 Q32.05 5.75 32.5 5.45 35.05 3.8 38.45 2.2 L39.5 2.2 Q40.3 2.4 40.6 2.2 43.45 0.8 50.3 0.6 L50.7 0.35 51.4 0.05 Q54.3 0.0 58.6 1.55 62.55 2.95 65.4 4.9 69.85 7.95 74.35 14.35" fill="#000000" fill-rule="evenodd" stroke="none"/>
    <path d="M67.4 8.1 L72.45 13.55 Q73.9 15.2 75.0 17.35 76.1 19.4 77.3 22.7 L78.65 26.35 Q79.5 29.35 78.9 31.85 78.95 32.9 78.0 33.65 76.9 34.5 76.75 35.1 76.85 35.65 77.3 35.35 L77.85 34.55 Q78.2 37.1 77.15 40.0 75.9 43.3 73.5 43.75 74.1 44.35 73.9 44.95 L73.5 46.4 Q68.7 52.65 61.2 56.15 52.8 60.05 44.35 58.8 L44.35 57.75 Q44.25 57.3 43.8 57.2 43.15 57.05 42.9 57.65 L42.2 58.3 38.6 57.4 Q36.45 56.95 35.2 56.1 L34.35 55.0 33.55 53.95 32.2 53.75 30.85 53.45 28.5 51.0 26.0 48.05 Q21.5 41.2 21.45 30.1 21.4 18.45 26.55 11.9 L29.8 8.7 Q30.65 8.0 32.75 6.85 L36.25 4.9 Q39.05 3.2 41.3 2.45 45.4 1.0 47.05 2.75 47.7 1.85 48.15 1.85 48.6 1.85 49.2 2.75 50.6 1.1 53.0 1.15 L52.7 2.7 Q52.7 3.3 53.55 3.85 54.35 3.6 53.85 2.8 53.2 1.8 53.55 1.15 55.45 2.1 58.05 2.85 L63.25 4.35 62.95 4.9 62.7 5.45 Q64.4 5.35 67.4 8.1 M60.2 8.0 L58.4 7.05 Q58.0 7.1 57.8 7.6 L57.3 8.15 57.2 7.45 56.8 7.05 56.8 12.45 58.95 13.8 Q60.2 14.65 60.55 15.7 60.8 14.55 61.55 14.7 62.25 14.9 62.7 15.7 62.9 13.35 63.8 13.15 L65.95 13.0 Q65.0 12.3 64.15 10.75 L62.7 8.15 60.2 8.0 M67.6 20.0 L67.6 21.1 68.65 21.1 68.65 20.0 67.6 20.0 M63.9 22.55 Q63.95 22.2 63.25 21.6 62.7 22.25 62.85 22.6 62.95 22.95 63.4 22.9 L63.9 22.55 M68.65 24.3 L67.05 24.3 67.1 25.35 Q67.15 25.9 67.6 25.95 L68.1 25.15 68.65 24.3 M68.65 22.15 L67.6 22.15 67.35 22.75 67.05 23.25 68.25 23.1 Q68.8 22.9 68.65 22.15 M58.4 4.9 L59.5 4.9 Q60.05 3.95 58.9 3.75 57.65 3.55 57.85 4.35 L58.3 4.5 58.4 4.9 M53.55 4.9 L52.45 4.9 52.45 6.0 53.55 6.0 53.55 4.9 M44.35 2.2 L44.35 3.3 45.45 3.3 45.45 2.2 44.35 2.2 M42.2 6.0 L41.2 6.05 Q40.65 6.15 40.6 6.55 L41.25 7.2 Q41.55 7.75 42.2 7.6 L42.2 6.0 M44.9 10.3 L44.9 9.2 43.8 9.2 43.8 10.3 44.9 10.3 M32.5 48.05 L31.4 48.05 31.4 49.1 32.5 49.1 32.5 48.05 M53.0 57.75 L53.3 57.0 53.55 56.1 52.45 56.1 52.1 56.9 Q51.85 57.25 51.9 57.75 L53.0 57.75 M51.6 55.85 Q52.0 55.15 51.85 54.95 51.7 54.7 50.85 55.6 L50.45 55.7 Q50.25 55.75 50.3 56.1 50.4 56.95 50.85 56.7 L51.6 55.85 M48.5 57.9 Q48.0 58.1 48.15 58.8 49.35 58.85 49.75 57.75 L48.5 57.9 M46.65 57.3 L47.05 57.2 46.85 56.35 Q46.6 56.0 46.0 56.1 L46.05 57.15 Q46.1 57.7 46.5 57.75 L46.65 57.3 M76.2 32.95 L77.3 32.95 77.3 31.85 76.2 31.85 76.2 32.95 M70.8 39.4 L69.75 39.4 69.5 40.0 Q69.2 40.3 69.2 40.5 L70.4 40.4 Q71.0 40.15 70.8 39.4 M68.1 31.35 Q68.1 31.05 68.45 30.6 68.75 30.2 68.65 29.7 L67.6 29.7 67.2 30.45 Q66.95 30.85 67.05 31.35 L68.1 31.35 M67.4 38.5 Q67.6 38.05 67.05 37.8 L66.65 38.7 Q66.45 39.2 67.05 39.4 L67.4 38.5 M67.05 41.85 Q66.6 42.3 66.5 42.65 67.35 43.0 67.95 42.1 68.55 41.2 67.6 41.05 L67.05 41.85 M69.75 45.35 L70.8 45.35 70.8 44.25 69.75 44.25 69.75 45.35 M68.65 48.05 L68.3 48.8 Q68.05 49.15 68.1 49.65 L69.2 49.65 Q69.2 49.35 69.5 48.95 L69.75 48.05 68.65 48.05 M61.1 43.75 Q60.5 44.65 61.65 44.9 62.9 45.15 62.7 44.25 62.4 44.25 61.95 43.95 L61.1 43.75 M64.35 50.2 L65.4 50.2 65.4 49.1 64.35 49.1 64.35 50.2 M61.1 50.75 L61.35 50.15 61.65 49.65 60.9 49.35 Q60.5 49.05 60.0 49.1 L60.0 50.75 61.1 50.75" fill="#f97115" fill-rule="evenodd" stroke="none"/>
    <path d="M77.3 31.85 L77.3 32.95 76.2 32.95 76.2 31.85 77.3 31.85" fill="#000000" fill-rule="evenodd" stroke="none"/>
    <path d="M70.8 39.4 Q71.0 40.15 70.4 40.4 L69.2 40.5 Q69.2 40.3 69.5 40.0 L69.75 39.4 70.8 39.4" fill="#000000" fill-rule="evenodd" stroke="none"/>
    <path d="M70.8 44.25 L70.8 45.35 69.75 45.35 69.75 44.25 70.8 44.25" fill="#000000" fill-rule="evenodd" stroke="none"/>
    <path d="M69.75 48.05 L69.5 48.95 Q69.2 49.35 69.2 49.65 L68.1 49.65 Q68.05 49.15 68.3 48.8 L68.65 48.05 69.75 48.05" fill="#000000" fill-rule="evenodd" stroke="none"/>
    <path d="M68.65 22.15 Q68.8 22.9 68.25 23.1 L67.05 23.25 67.35 22.75 67.6 22.15 68.65 22.15" fill="#000000" fill-rule="evenodd" stroke="none"/>
    <path d="M68.65 29.7 Q68.75 30.2 68.45 30.6 68.1 31.05 68.1 31.35 L67.05 31.35 Q66.95 30.85 67.2 30.45 L67.6 29.7 68.65 29.7" fill="#000000" fill-rule="evenodd" stroke="none"/>
    <path d="M68.65 20.0 L68.65 21.1 67.6 21.1 67.6 20.0 68.65 20.0" fill="#000000" fill-rule="evenodd" stroke="none"/>
    <path d="M67.05 24.3 L68.65 24.3 68.1 25.15 67.6 25.95 Q67.15 25.9 67.1 25.35 L67.05 24.3" fill="#000000" fill-rule="evenodd" stroke="none"/>
    <path d="M67.6 41.05 Q68.55 41.2 67.95 42.1 67.35 43.0 66.5 42.65 66.6 42.3 67.05 41.85 L67.6 41.05" fill="#000000" fill-rule="evenodd" stroke="none"/>
    <path d="M67.05 37.8 Q67.6 38.05 67.4 38.5 L67.05 39.4 Q66.45 39.2 66.65 38.7 L67.05 37.8" fill="#000000" fill-rule="evenodd" stroke="none"/>
    <path d="M65.4 49.1 L65.4 50.2 64.35 50.2 64.35 49.1 65.4 49.1" fill="#000000" fill-rule="evenodd" stroke="none"/>
    <path d="M65.95 13.0 L63.8 13.15 Q62.9 13.35 62.7 15.7 62.25 14.9 61.55 14.7 60.8 14.55 60.55 15.7 60.2 14.65 58.95 13.8 L56.8 12.45 56.8 7.05 57.2 7.45 57.3 8.15 57.8 7.6 Q58.0 7.1 58.4 7.05 L60.2 8.0 62.7 8.15 64.15 10.75 Q65.0 12.3 65.95 13.0 M58.4 11.4 Q60.25 14.55 59.2 12.4 58.2 10.2 58.4 11.4" fill="#000000" fill-rule="evenodd" stroke="none"/>
    <path d="M63.25 21.6 Q63.95 22.2 63.9 22.55 L63.4 22.9 Q62.95 22.95 62.85 22.6 62.7 22.25 63.25 21.6" fill="#000000" fill-rule="evenodd" stroke="none"/>
    <path d="M62.7 44.25 Q62.9 45.15 61.65 44.9 60.5 44.65 61.1 43.75 L61.95 43.95 Q62.4 44.25 62.7 44.25" fill="#000000" fill-rule="evenodd" stroke="none"/>
    <path d="M61.65 49.65 L61.35 50.15 61.1 50.75 60.0 50.75 60.0 49.1 Q60.5 49.05 60.9 49.35 L61.65 49.65" fill="#000000" fill-rule="evenodd" stroke="none"/>
    <path d="M57.85 4.35 Q57.65 3.55 58.9 3.75 60.05 3.95 59.5 4.9 L58.4 4.9 58.3 4.5 57.85 4.35" fill="#000000" fill-rule="evenodd" stroke="none"/>
    <path d="M58.4 11.4 Q58.2 10.2 59.2 12.4 60.25 14.55 58.4 11.4" fill="#ffffff" fill-rule="evenodd" stroke="none"/>
    <path d="M53.55 56.1 L53.3 57.0 53.0 57.75 51.9 57.75 Q51.85 57.25 52.1 56.9 L52.45 56.1 53.55 56.1" fill="#000000" fill-rule="evenodd" stroke="none"/>
    <path d="M53.55 4.9 L53.55 6.0 52.45 6.0 52.45 4.9 53.55 4.9" fill="#000000" fill-rule="evenodd" stroke="none"/>
    <path d="M50.85 55.6 Q51.7 54.7 51.85 54.95 52.0 55.15 51.6 55.85 L50.85 56.7 Q50.4 56.95 50.3 56.1 50.25 55.75 50.45 55.7 L50.85 55.6" fill="#000000" fill-rule="evenodd" stroke="none"/>
    <path d="M49.75 57.75 Q49.35 58.85 48.15 58.8 48.0 58.1 48.5 57.9 L49.75 57.75" fill="#000000" fill-rule="evenodd" stroke="none"/>
    <path d="M47.05 57.2 L46.65 57.3 46.5 57.75 Q46.1 57.7 46.05 57.15 L46.0 56.1 Q46.6 56.0 46.85 56.35 L47.05 57.2" fill="#000000" fill-rule="evenodd" stroke="none"/>
    <path d="M45.45 2.2 L45.45 3.3 44.35 3.3 44.35 2.2 45.45 2.2" fill="#000000" fill-rule="evenodd" stroke="none"/>
    <path d="M44.9 9.2 L44.9 10.3 43.8 10.3 43.8 9.2 44.9 9.2" fill="#000000" fill-rule="evenodd" stroke="none"/>
    <path d="M42.2 6.0 L42.2 7.6 Q41.55 7.75 41.25 7.2 L40.6 6.55 Q40.65 6.15 41.2 6.05 L42.2 6.0" fill="#000000" fill-rule="evenodd" stroke="none"/>
    <path d="M32.5 48.05 L32.5 49.1 31.4 49.1 31.4 48.05 32.5 48.05" fill="#000000" fill-rule="evenodd" stroke="none"/>
  </g>
</svg>
