<?xml version="1.0" encoding="UTF-8" standalone="no"?>
<svg xmlns:xlink="http://www.w3.org/1999/xlink" height="60.0px" width="52.8px" xmlns="http://www.w3.org/2000/svg">
  <g transform="matrix(1, 0, 0, 1, -24.0, 0.0)">
    <path d="M71.05 8.1 Q69.55 10.25 69.3 10.95 67.8 15.7 69.75 22.7 70.85 26.55 73.45 33.4 L75.6 40.0 Q76.65 43.85 76.05 46.4 75.1 50.85 68.6 54.15 62.5 57.25 55.75 57.35 49.95 57.5 44.45 55.95 38.4 54.25 35.4 51.1 30.85 46.3 33.95 36.75 L36.9 28.85 Q38.7 24.15 39.05 21.4 39.5 18.25 39.1 15.25 38.75 12.5 37.5 8.35 45.3 9.55 54.2 7.3 55.55 6.95 58.5 5.6 61.15 4.35 62.5 4.15 65.45 3.8 67.35 4.05 70.15 4.45 71.4 6.25 72.15 6.6 71.05 8.1 M37.95 31.1 Q38.45 30.0 37.5 29.75 L37.0 30.75 36.45 31.8 Q37.4 32.25 37.95 31.1 M34.35 45.35 Q33.95 43.75 34.95 40.9 35.8 38.4 34.9 37.05 34.15 38.3 33.85 41.7 33.5 45.2 34.35 45.35" fill="#b7f9f9" fill-opacity="0.49803922" fill-rule="evenodd" stroke="none"/>
    <path d="M71.05 8.1 Q69.55 10.25 69.3 10.95 67.8 15.7 69.75 22.7 70.85 26.55 73.45 33.4 L75.6 40.0 Q76.65 43.85 76.05 46.4 75.1 50.85 68.6 54.15 62.5 57.25 55.75 57.35 49.95 57.5 44.45 55.95 38.4 54.25 35.4 51.1 30.85 46.3 33.95 36.75 L36.9 28.85 Q38.7 24.15 39.05 21.4 39.5 18.25 39.1 15.25 38.75 12.5 37.5 8.35 45.3 9.55 54.2 7.3 55.55 6.95 58.5 5.6 61.15 4.35 62.5 4.15 65.45 3.8 67.35 4.05 70.15 4.45 71.4 6.25 72.15 6.6 71.05 8.1 M37.95 31.1 Q38.45 30.0 37.5 29.75 L37.0 30.75 36.45 31.8 Q37.4 32.25 37.95 31.1 M34.35 45.35 Q33.95 43.75 34.95 40.9 35.8 38.4 34.9 37.05 34.15 38.3 33.85 41.7 33.5 45.2 34.35 45.35" fill="none" stroke="#000000" stroke-linecap="round" stroke-linejoin="round" stroke-width="0.05"/>
    <path d="M72.7 7.95 Q70.15 10.75 69.8 12.5 69.0 16.8 70.7 22.3 71.65 25.4 73.95 31.3 76.5 39.1 76.75 42.55 77.1 48.1 73.45 51.6 L69.4 54.85 Q66.85 56.9 66.15 58.4 59.85 60.05 53.7 60.0 47.15 59.95 41.65 57.9 40.85 56.05 36.6 52.95 32.5 49.95 31.75 47.45 31.05 45.4 31.6 41.8 32.3 36.95 32.25 35.45 32.1 34.4 30.1 32.4 27.8 30.0 27.05 28.7 24.9 24.85 24.25 19.7 23.6 14.75 24.6 10.75 25.7 6.5 28.25 5.3 31.2 3.9 35.4 6.8 37.0 4.65 40.75 4.1 L48.95 3.65 Q52.25 3.45 58.45 1.7 64.35 0.05 66.65 0.0 69.9 -0.05 72.35 1.15 74.8 2.4 75.0 4.15 75.1 5.35 72.7 7.95 M66.3 1.2 L60.9 2.7 55.2 4.15 45.0 4.75 Q39.45 5.05 36.95 6.8 41.45 8.3 46.9 7.5 49.7 7.05 56.25 5.05 62.0 3.3 65.2 3.1 70.05 2.8 73.95 5.2 72.15 0.15 66.3 1.2 M71.35 6.25 Q70.15 4.45 67.3 4.05 65.4 3.8 62.5 4.15 61.1 4.35 58.5 5.6 55.5 6.95 54.15 7.3 45.25 9.55 37.45 8.35 38.7 12.5 39.1 15.25 39.45 18.25 39.05 21.4 38.65 24.15 36.85 28.85 L33.9 36.75 Q30.85 46.3 35.4 51.1 38.35 54.25 44.45 55.95 49.9 57.5 55.7 57.35 62.5 57.25 68.6 54.15 75.05 50.85 76.05 46.4 76.6 43.85 75.55 40.0 L73.45 33.35 Q70.85 26.55 69.75 22.7 67.8 15.7 69.25 10.95 69.5 10.25 71.05 8.1 72.1 6.6 71.35 6.25 M28.1 6.25 Q23.3 12.3 25.95 22.05 27.0 26.1 29.2 29.65 31.35 33.1 33.8 34.95 35.0 32.9 33.5 31.05 L30.7 28.15 Q28.4 25.15 27.55 22.4 26.7 19.5 27.0 16.0 27.55 11.9 27.55 9.4 32.0 7.2 34.85 11.3 36.85 14.1 38.0 19.8 38.9 17.25 38.0 13.9 36.75 10.2 36.45 8.35 33.95 6.9 32.65 6.4 L28.1 6.25 M28.7 22.7 Q30.8 27.75 34.85 30.25 L36.55 26.1 Q37.5 23.9 37.45 21.9 37.45 20.05 36.4 17.2 35.35 14.25 33.95 12.25 32.3 9.95 30.85 9.9 29.2 9.85 28.1 13.05 26.6 17.45 28.7 22.7 M42.7 56.3 Q42.0 55.7 41.6 55.8 41.35 55.85 41.45 56.25 L41.85 56.8 Q42.25 56.9 42.7 56.3 M64.05 57.35 Q59.9 58.6 53.15 58.2 L43.2 57.35 Q46.75 59.1 54.9 58.95 62.75 58.8 64.05 57.35" fill="#000000" fill-rule="evenodd" stroke="none"/>
    <path d="M74.0 5.2 Q70.1 2.8 65.25 3.1 62.05 3.3 56.25 5.05 49.7 7.05 46.9 7.5 41.5 8.3 37.0 6.8 39.5 5.05 45.0 4.75 L55.2 4.15 60.95 2.7 66.35 1.2 Q72.15 0.15 74.0 5.2" fill="#b7f9f9" fill-opacity="0.49803922" fill-rule="evenodd" stroke="none"/>
    <path d="M54.9 58.95 Q46.75 59.1 43.2 57.35 L53.15 58.2 Q59.9 58.6 64.05 57.35 62.75 58.8 54.9 58.95" fill="#ffffff" fill-rule="evenodd" stroke="none"/>
    <path d="M42.7 56.3 Q42.25 56.9 41.85 56.8 L41.45 56.25 Q41.35 55.85 41.6 55.8 42.0 55.7 42.7 56.3" fill="#ffffff" fill-rule="evenodd" stroke="none"/>
    <path d="M32.7 6.4 Q34.0 6.9 36.45 8.35 36.8 10.2 38.0 13.9 38.9 17.25 38.0 19.8 36.85 14.1 34.9 11.3 32.05 7.2 27.6 9.4 L27.0 16.0 Q26.7 19.5 27.6 22.4 28.4 25.15 30.7 28.15 L33.55 31.05 Q35.0 32.9 33.85 34.95 31.4 33.1 29.25 29.65 27.05 26.15 25.95 22.05 23.35 12.3 28.1 6.25 L32.7 6.4" fill="#b7f9f9" fill-opacity="0.49803922" fill-rule="evenodd" stroke="none"/>
    <path d="M37.45 29.7 Q38.45 30.0 37.9 31.1 37.4 32.25 36.45 31.8 36.55 31.4 36.95 30.75 L37.45 29.7" fill="#000000" fill-rule="evenodd" stroke="none"/>
    <path d="M34.85 37.0 Q35.8 38.4 34.9 40.9 33.95 43.75 34.35 45.35 33.45 45.2 33.8 41.7 34.1 38.3 34.85 37.0" fill="#000000" fill-rule="evenodd" stroke="none"/>
  </g>
</svg>
