<?xml version="1.0" encoding="UTF-8" standalone="no"?>
<svg xmlns:xlink="http://www.w3.org/1999/xlink" height="60.0px" width="21.4px" xmlns="http://www.w3.org/2000/svg">
  <g transform="matrix(1, 0, 0, 1, -39.0, 0.0)">
    <path d="M60.05 33.4 Q60.7 37.5 60.2 44.55 59.6 53.5 59.65 56.25 58.5 58.15 55.7 59.15 53.1 60.05 49.75 60.0 46.5 59.95 43.75 59.1 40.8 58.2 39.4 56.65 39.75 51.75 39.35 44.35 38.9 36.75 39.05 34.15 39.2 31.6 40.95 29.05 L43.85 24.55 Q45.55 20.6 45.6 13.65 L45.6 7.5 Q45.65 3.7 46.05 0.6 47.85 -0.05 49.65 0.0 51.6 0.1 53.05 1.0 L53.35 13.6 Q53.65 20.1 55.25 24.2 55.75 25.5 57.9 28.6 59.65 31.15 60.05 33.4 M52.6 3.15 Q52.65 2.55 52.3 1.7 L49.3 2.1 46.05 2.1 Q45.6 3.85 47.3 4.3 L48.7 4.65 49.75 5.4 48.1 5.35 46.8 5.05 46.55 12.7 Q46.5 17.15 46.05 19.8 45.6 22.4 44.3 24.7 L41.65 28.65 Q41.25 29.15 40.8 30.35 40.3 31.5 40.15 32.3 39.25 36.7 40.05 43.4 41.0 50.8 40.55 54.8 40.95 54.95 40.9 55.55 42.35 56.75 45.05 57.5 L50.65 58.2 Q57.6 58.1 58.95 54.05 L57.2 52.85 55.25 51.85 Q56.3 51.7 57.2 52.25 58.3 52.9 58.95 52.95 58.65 50.1 59.25 42.6 59.75 36.1 58.95 32.3 58.6 30.75 56.9 28.6 55.0 26.2 54.5 24.95 53.35 22.0 52.9 14.9 52.4 6.55 51.95 4.3 L52.6 3.15 M48.4 1.25 L49.15 1.4 50.45 1.0 48.7 0.95 Q48.2 1.05 48.4 1.25 M55.7 58.2 Q58.4 57.2 58.95 55.55 55.95 58.85 49.5 58.8 43.15 58.75 40.15 55.55 41.05 57.4 43.95 58.4 46.55 59.3 49.95 59.25 53.25 59.15 55.7 58.2" fill="#000000" fill-rule="evenodd" stroke="none"/>
    <path d="M51.9 4.3 Q52.4 6.55 52.9 14.85 53.3 22.0 54.5 24.95 54.95 26.15 56.85 28.6 58.55 30.75 58.9 32.3 59.75 36.1 59.25 42.6 58.65 50.05 58.9 52.95 58.3 52.9 57.2 52.25 56.25 51.7 55.25 51.85 L57.2 52.85 58.9 54.05 Q57.6 58.05 50.65 58.15 47.8 58.2 45.05 57.45 42.3 56.75 40.9 55.5 40.95 54.95 40.5 54.8 40.95 50.75 40.05 43.4 39.2 36.7 40.15 32.3 L40.75 30.35 41.6 28.6 44.3 24.7 Q45.6 22.4 46.05 19.75 46.45 17.15 46.55 12.7 L46.75 5.05 48.1 5.35 49.7 5.4 Q49.45 4.9 48.7 4.65 L47.3 4.3 Q45.6 3.85 46.05 2.1 L49.3 2.05 52.3 1.7 52.55 3.15 Q52.45 3.8 51.9 4.3 M46.4 51.45 L50.3 51.3 54.5 51.45 Q54.3 51.15 50.85 50.8 47.15 50.4 46.4 51.45 M43.45 51.85 Q41.8 51.6 41.25 52.95 41.95 53.0 42.5 52.55 L43.45 51.85" fill="#c37ced" fill-opacity="0.49803922" fill-rule="evenodd" stroke="none"/>
    <path d="M54.5 51.5 L50.3 51.35 46.4 51.5 Q47.15 50.45 50.85 50.8 54.3 51.15 54.5 51.5" fill="#000000" fill-rule="evenodd" stroke="none"/>
    <path d="M43.95 58.4 Q41.05 57.4 40.15 55.55 43.15 58.75 49.5 58.8 55.95 58.85 58.95 55.55 58.4 57.2 55.7 58.2 53.25 59.15 49.95 59.25 46.55 59.3 43.95 58.4" fill="#c37ced" fill-rule="evenodd" stroke="none"/>
    <path d="M50.45 1.0 L49.15 1.4 48.4 1.25 Q48.2 1.05 48.7 0.95 L50.45 1.0" fill="#c37ced" fill-rule="evenodd" stroke="none"/>
    <path d="M42.5 52.55 Q41.95 53.05 41.25 52.95 41.8 51.6 43.45 51.85 L42.5 52.55" fill="#000000" fill-rule="evenodd" stroke="none"/>
  </g>
</svg>
