<?xml version="1.0" encoding="UTF-8" standalone="no"?>
<svg xmlns:xlink="http://www.w3.org/1999/xlink" height="60.0px" width="83.5px" xmlns="http://www.w3.org/2000/svg">
  <g transform="matrix(1, 0, 0, 1, -8.05, -0.05)">
    <path d="M87.4 11.6 L86.75 13.55 Q86.15 14.7 85.05 15.3 85.6 15.75 87.0 14.0 88.35 12.25 89.2 12.95 L89.2 14.15 Q89.2 14.75 88.75 14.8 88.85 15.2 89.85 14.6 91.0 13.95 91.55 14.8 89.95 16.45 87.8 19.7 L84.2 24.95 Q79.65 31.0 74.45 31.45 L69.4 30.7 63.85 30.05 Q59.65 30.45 53.3 34.55 49.95 36.75 42.6 42.5 L30.45 52.15 Q23.5 57.45 18.6 59.6 L14.65 60.05 9.85 59.6 Q6.55 56.3 9.25 53.7 11.1 51.9 16.3 50.35 21.55 48.8 28.15 45.25 L39.8 38.4 51.15 31.75 Q57.3 28.5 62.0 27.25 63.5 24.1 67.65 21.95 L71.25 20.2 Q73.45 19.1 74.9 18.05 L79.7 13.45 Q82.45 10.65 85.05 9.75 85.3 11.25 84.7 12.2 L83.2 13.45 84.1 13.35 85.0 12.3 Q86.35 10.65 87.4 11.6 M62.9 27.75 Q62.45 27.8 61.05 28.4 L58.75 28.65 Q56.25 30.0 40.8 38.85 29.8 45.2 22.3 48.5 L17.45 50.1 Q14.2 51.0 12.6 51.75 10.35 52.8 9.5 54.45 8.7 55.95 9.35 57.35 10.05 58.75 11.9 59.3 L16.8 59.1 Q20.55 58.1 26.0 53.9 32.1 48.9 35.25 46.65 L42.4 41.2 49.95 35.55 Q59.1 29.25 66.6 28.65 67.0 28.65 67.1 28.0 67.2 27.3 67.55 27.25 73.95 30.2 80.0 26.45 84.8 23.45 87.4 18.05 L83.1 22.7 Q80.4 25.4 78.15 25.45 78.2 23.65 82.1 20.6 85.95 17.6 86.0 15.75 84.4 17.9 81.65 20.15 L76.75 24.05 Q75.6 22.4 77.95 20.4 L82.3 17.6 Q82.2 16.2 83.25 15.35 L85.05 13.9 Q83.7 14.4 82.2 15.8 L79.7 18.35 Q76.65 21.5 74.0 21.3 74.95 19.25 79.0 16.0 82.75 13.05 83.2 11.1 79.6 15.4 76.05 18.0 71.7 21.2 66.6 22.65 66.1 23.2 64.9 25.35 63.95 27.1 62.9 27.75" fill="#000000" fill-rule="evenodd" stroke="none"/>
    <path d="M76.05 18.0 Q79.6 15.4 83.2 11.1 82.75 13.05 79.0 16.0 74.95 19.25 74.0 21.3 76.65 21.5 79.7 18.35 L82.2 15.8 Q83.7 14.4 85.05 13.9 L83.25 15.35 Q82.2 16.2 82.3 17.6 L77.95 20.4 Q75.6 22.4 76.75 24.05 L81.65 20.15 Q84.4 17.9 86.0 15.75 85.95 17.6 82.1 20.6 78.2 23.65 78.15 25.45 80.4 25.4 83.1 22.7 L87.4 18.05 Q84.8 23.45 80.0 26.45 73.95 30.2 67.55 27.25 67.2 27.3 67.1 28.0 67.0 28.65 66.6 28.65 59.1 29.25 49.95 35.55 L42.4 41.2 35.25 46.65 Q32.1 48.9 26.0 53.9 20.55 58.1 16.8 59.1 L11.9 59.3 Q10.05 58.75 9.35 57.35 8.7 55.95 9.5 54.45 10.35 52.8 12.6 51.75 14.2 51.0 17.45 50.1 L22.3 48.5 Q29.8 45.2 40.8 38.85 56.25 30.0 58.75 28.65 L61.05 28.4 Q62.45 27.8 62.9 27.75 63.95 27.1 64.9 25.35 66.1 23.2 66.6 22.65 71.7 21.2 76.05 18.0 M11.7 53.6 Q11.9 53.9 12.75 53.9 L14.25 53.6 Q16.2 52.85 14.45 51.75 14.3 52.3 13.0 52.6 11.75 52.85 11.7 53.6" fill="url(#gradient0)" fill-rule="evenodd" stroke="none"/>
    <path d="M25.1 0.05 L25.05 0.15 24.95 0.05 25.1 0.05" fill="#000000" fill-rule="evenodd" stroke="none"/>
    <path d="M14.45 51.75 Q16.2 52.85 14.25 53.6 L12.75 53.9 Q11.9 53.9 11.7 53.6 11.75 52.85 13.0 52.6 14.3 52.3 14.45 51.75" fill="#000000" fill-rule="evenodd" stroke="none"/>
  </g>
  <defs>
    <linearGradient gradientTransform="matrix(0.0478, 0.0, 0.0, -0.0478, 48.2, 35.35)" gradientUnits="userSpaceOnUse" id="gradient0" spreadMethod="pad" x1="-819.2" x2="819.2">
      <stop offset="0.0" stop-color="#ffffff"/>
      <stop offset="1.0" stop-color="#a3a3a3"/>
    </linearGradient>
  </defs>
</svg>
