<?xml version="1.0" encoding="UTF-8" standalone="no"?>
<svg xmlns:xlink="http://www.w3.org/1999/xlink" height="57.25px" width="100.0px" xmlns="http://www.w3.org/2000/svg">
  <g transform="matrix(1, 0, 0, 1, 0.0, 0.0)">
    <path d="M74.65 20.65 L74.7 17.7 Q74.85 15.8 74.0 15.5 73.75 16.4 71.9 17.3 70.2 18.05 70.15 19.35 71.4 19.05 72.4 20.0 73.35 20.95 74.65 20.65 M76.6 18.7 Q80.0 16.95 84.5 13.75 L92.05 8.4 Q91.95 9.6 93.0 10.05 L95.3 10.35 Q96.4 9.6 95.05 8.55 93.75 7.5 94.65 7.1 L96.35 7.95 97.85 8.4 Q98.5 7.0 98.5 5.2 98.5 3.35 97.85 1.95 92.2 1.25 86.05 5.5 L81.1 9.15 Q78.15 11.3 75.95 12.25 L75.85 15.9 Q75.7 18.2 76.6 18.7 M75.3 11.0 L80.45 7.9 85.15 4.45 Q91.05 0.3 97.2 0.0 98.1 1.8 99.8 2.6 100.3 5.75 99.4 9.4 98.5 12.9 96.85 15.0 95.0 17.25 93.15 16.7 91.05 16.0 89.5 11.6 82.7 17.5 75.3 20.65 75.45 22.1 76.8 23.65 78.3 25.3 78.5 26.45 80.45 41.15 71.0 48.9 63.3 55.2 48.2 56.7 31.85 58.45 19.0 54.85 4.35 50.75 1.8 41.25 0.2 35.45 0.05 31.9 -0.2 27.1 1.8 24.5 4.45 21.05 13.3 18.2 20.55 15.8 28.25 14.85 47.05 12.6 68.2 18.05 71.25 16.5 72.6 15.4 74.7 13.55 75.3 11.0 M61.1 18.05 Q40.65 13.5 19.85 18.05 10.55 20.1 6.65 22.4 0.3 26.2 3.1 32.25 8.1 36.7 18.0 39.05 27.1 41.25 38.2 41.2 49.1 41.1 58.4 38.8 68.25 36.45 73.35 32.25 79.6 27.2 74.15 23.1 70.25 20.15 61.1 18.05 M94.05 11.7 L91.4 11.6 Q91.6 14.7 94.65 14.85 95.7 14.8 96.4 13.25 97.15 11.7 95.95 11.0 95.75 11.8 94.05 11.7 M18.25 53.35 Q25.35 55.55 34.7 56.1 46.85 56.85 58.45 53.35 70.25 49.8 74.65 43.85 74.2 42.7 74.9 38.4 75.45 34.7 74.0 33.55 L74.0 35.1 Q73.9 36.0 73.35 36.1 73.45 34.55 71.45 34.8 70.15 36.3 67.55 37.3 L63.05 38.7 Q47.05 43.65 30.7 42.35 13.9 41.05 1.8 33.55 2.85 38.65 3.4 40.35 4.5 44.15 6.3 46.4 9.8 50.8 18.25 53.35" fill="#000000" fill-rule="evenodd" stroke="none"/>
    <path d="M81.1 9.15 L86.05 5.5 Q92.2 1.25 97.85 1.95 98.5 3.35 98.5 5.2 98.5 7.0 97.85 8.4 L96.35 7.95 94.65 7.1 Q93.75 7.5 95.05 8.55 96.4 9.6 95.3 10.35 L93.0 10.05 Q91.95 9.6 92.05 8.4 L84.5 13.75 Q80.0 16.95 76.6 18.7 75.7 18.2 75.85 15.9 L75.95 12.25 Q78.15 11.3 81.1 9.15" fill="#686868" fill-rule="evenodd" stroke="none"/>
    <path d="M74.0 15.5 Q74.85 15.8 74.7 17.7 L74.65 20.65 Q73.35 20.95 72.4 20.0 71.4 19.05 70.15 19.35 70.2 18.05 71.9 17.3 73.75 16.4 74.0 15.5" fill="url(#gradient0)" fill-rule="evenodd" stroke="none"/>
    <path d="M6.3 46.4 Q4.5 44.15 3.4 40.35 2.85 38.65 1.8 33.55 13.9 41.05 30.7 42.35 47.05 43.65 63.05 38.7 L67.55 37.3 Q70.15 36.3 71.45 34.8 73.45 34.55 73.35 36.1 73.9 36.0 74.0 35.1 L74.0 33.55 Q75.45 34.7 74.9 38.4 74.2 42.7 74.65 43.85 70.25 49.8 58.45 53.35 46.85 56.85 34.7 56.1 25.35 55.55 18.25 53.35 9.8 50.8 6.3 46.4" fill="url(#gradient1)" fill-rule="evenodd" stroke="none"/>
    <path d="M74.15 23.1 Q79.6 27.2 73.35 32.25 68.25 36.45 58.4 38.8 49.1 41.1 38.2 41.2 27.1 41.25 18.0 39.05 8.1 36.7 3.1 32.25 0.3 26.2 6.65 22.4 10.55 20.1 19.85 18.05 40.65 13.5 61.1 18.05 70.25 20.15 74.15 23.1 M44.35 26.45 L39.95 26.4 Q37.15 26.45 38.55 27.75 39.2 26.6 41.95 27.25 44.35 27.8 44.35 26.45 M37.25 27.1 L34.6 27.0 Q32.9 26.9 32.75 27.75 L35.4 27.85 Q37.1 27.9 37.25 27.1 M17.25 31.6 Q15.5 31.45 13.7 32.35 11.8 33.35 12.75 34.15 13.2 33.35 14.9 32.8 16.8 32.15 17.25 31.6 M7.6 32.25 L7.65 27.7 Q7.55 25.1 6.3 24.5 L6.35 29.0 Q6.55 31.35 7.6 32.25" fill="url(#gradient2)" fill-rule="evenodd" stroke="none"/>
    <path d="M38.55 27.75 Q37.15 26.45 39.95 26.4 L44.35 26.45 Q44.35 27.8 41.95 27.25 39.2 26.6 38.55 27.75" fill="#000000" fill-rule="evenodd" stroke="none"/>
    <path d="M32.75 27.75 Q32.9 26.9 34.6 27.0 L37.25 27.1 Q37.1 27.9 35.4 27.85 L32.75 27.75" fill="#000000" fill-rule="evenodd" stroke="none"/>
    <path d="M12.75 34.15 Q11.8 33.35 13.7 32.35 15.5 31.45 17.25 31.6 16.8 32.15 14.9 32.8 13.2 33.35 12.75 34.15" fill="#000000" fill-rule="evenodd" stroke="none"/>
    <path d="M6.3 24.5 Q7.55 25.1 7.65 27.7 L7.6 32.25 Q6.55 31.35 6.35 29.0 L6.3 24.5" fill="#000000" fill-rule="evenodd" stroke="none"/>
    <path d="M4.4 32.9 Q3.95 32.8 3.75 31.9 3.6 31.0 3.1 30.95 3.0 24.55 3.55 26.9 L4.4 32.9" fill="#000000" fill-rule="evenodd" stroke="none"/>
  </g>
  <defs>
    <linearGradient gradientTransform="matrix(0.0028, 0.0, 0.0, -0.0028, 72.45, 18.15)" gradientUnits="userSpaceOnUse" id="gradient0" spreadMethod="pad" x1="-819.2" x2="819.2">
      <stop offset="0.0" stop-color="#ffffff"/>
      <stop offset="1.0" stop-color="#000000"/>
    </linearGradient>
    <linearGradient gradientTransform="matrix(0.0447, 0.0, 0.0, -0.0447, 38.4, 44.85)" gradientUnits="userSpaceOnUse" id="gradient1" spreadMethod="pad" x1="-819.2" x2="819.2">
      <stop offset="0.0" stop-color="#ffffff"/>
      <stop offset="1.0" stop-color="#000000"/>
    </linearGradient>
    <linearGradient gradientTransform="matrix(0.0454, 0.0, 0.0, -0.0454, 39.45, 28.5)" gradientUnits="userSpaceOnUse" id="gradient2" spreadMethod="pad" x1="-819.2" x2="819.2">
      <stop offset="0.0" stop-color="#ffffff"/>
      <stop offset="1.0" stop-color="#000000"/>
    </linearGradient>
  </defs>
</svg>
