<?xml version="1.0" encoding="UTF-8" standalone="no"?>
<svg xmlns:xlink="http://www.w3.org/1999/xlink" height="60.0px" width="59.2px" xmlns="http://www.w3.org/2000/svg">
  <g transform="matrix(1, 0, 0, 1, -20.1, 0.15)">
    <path d="M78.05 -0.1 Q78.9 -0.05 79.15 0.25 79.55 0.7 78.75 1.6 L77.8 2.7 77.7 2.65 78.4 1.2 Q78.75 0.05 78.05 -0.1" fill="#000000" fill-rule="evenodd" stroke="none"/>
    <path d="M78.05 -0.1 Q78.75 0.05 78.4 1.2 L77.7 2.65 Q74.25 5.75 67.35 13.8 60.9 21.25 56.7 24.7 L56.25 24.15 Q56.1 23.95 55.65 24.35 55.4 24.45 55.35 25.25 55.35 26.0 55.0 26.05 L54.85 25.5 54.3 25.35 Q53.95 26.1 52.85 26.85 51.55 27.65 51.2 28.1 50.55 27.8 50.1 26.95 L49.5 25.35 54.9 19.15 60.35 12.8 Q66.95 5.6 72.9 2.3 73.1 2.2 75.35 1.2 L77.35 -0.1 78.05 -0.1" fill="url(#gradient0)" fill-rule="evenodd" stroke="none"/>
    <path d="M77.8 2.7 Q78.45 3.05 77.85 3.55 L77.0 4.0 71.4 10.05 65.65 16.4 62.5 20.2 59.1 23.65 55.35 26.55 51.55 29.5 49.8 31.35 48.1 33.3 43.15 38.7 38.1 44.3 Q36.75 45.85 32.1 52.3 28.5 57.25 25.7 59.8 20.7 60.25 20.15 56.7 19.9 55.2 20.6 53.5 21.3 51.85 22.6 50.5 23.2 49.95 24.4 49.1 L26.4 47.75 Q33.05 42.55 38.3 37.4 44.35 31.4 49.15 25.0 56.15 15.6 64.65 7.8 68.0 4.65 70.25 3.1 73.95 0.55 77.35 -0.1 L75.35 1.2 Q73.1 2.2 72.9 2.3 66.95 5.6 60.35 12.8 L54.9 19.15 49.5 25.35 50.1 26.95 Q50.55 27.8 51.2 28.1 51.55 27.65 52.85 26.85 53.95 26.1 54.3 25.35 L54.85 25.5 55.0 26.05 Q55.35 26.0 55.35 25.25 55.4 24.45 55.65 24.35 56.1 23.95 56.25 24.15 L56.7 24.7 Q60.9 21.25 67.35 13.8 74.25 5.75 77.7 2.65 77.6 2.85 77.8 2.7 M47.4 28.45 Q43.2 33.3 37.65 38.6 32.15 43.85 26.4 48.45 L22.5 51.85 Q20.2 54.35 20.55 56.35 20.65 56.95 21.85 58.15 23.1 59.4 24.0 59.45 26.0 59.55 27.9 56.95 L30.55 52.9 Q34.1 47.85 40.15 41.15 L50.15 30.55 Q49.8 29.65 48.95 28.95 48.0 28.15 47.4 28.45" fill="#000000" fill-rule="evenodd" stroke="none"/>
    <path d="M77.7 2.65 L77.8 2.7 Q77.6 2.85 77.7 2.65" fill="#000000" fill-rule="evenodd" stroke="none"/>
    <path d="M48.95 28.95 Q49.8 29.65 50.15 30.55 L40.15 41.15 Q34.1 47.85 30.55 52.9 L27.9 56.95 Q26.0 59.55 24.0 59.45 23.1 59.4 21.85 58.15 20.65 56.95 20.55 56.35 20.2 54.35 22.5 51.85 L26.4 48.45 Q32.15 43.85 37.65 38.6 43.2 33.3 47.4 28.45 48.0 28.15 48.95 28.95" fill="url(#gradient1)" fill-rule="evenodd" stroke="none"/>
  </g>
  <defs>
    <linearGradient gradientTransform="matrix(0.0177, 0.0, 0.0, -0.0177, 64.0, 14.0)" gradientUnits="userSpaceOnUse" id="gradient0" spreadMethod="pad" x1="-819.2" x2="819.2">
      <stop offset="0.0" stop-color="#ffffff"/>
      <stop offset="1.0" stop-color="#000000"/>
    </linearGradient>
    <linearGradient gradientTransform="matrix(0.0181, 0.0, 0.0, -0.0181, 35.3, 43.95)" gradientUnits="userSpaceOnUse" id="gradient1" spreadMethod="pad" x1="-819.2" x2="819.2">
      <stop offset="0.0" stop-color="#ffffff"/>
      <stop offset="1.0" stop-color="#000000"/>
    </linearGradient>
  </defs>
</svg>
