<?xml version="1.0" encoding="UTF-8" standalone="no"?>
<svg xmlns:xlink="http://www.w3.org/1999/xlink" height="60.05px" width="76.3px" xmlns="http://www.w3.org/2000/svg">
  <g transform="matrix(1, 0, 0, 1, -11.95, -0.05)">
    <path d="M78.65 2.25 Q74.15 3.9 71.1 6.25 L67.55 9.35 Q65.85 11.05 64.95 12.95 L64.95 18.15 Q59.2 20.7 53.2 25.2 49.3 28.1 42.75 33.95 L32.45 42.75 Q26.55 47.4 21.15 50.1 L16.0 52.25 Q13.35 53.7 12.6 56.75 14.15 59.75 17.85 59.45 20.8 59.25 24.0 57.2 L28.7 53.35 33.05 49.15 37.4 44.35 41.6 39.6 53.2 27.85 Q60.25 21.5 66.85 19.1 67.05 20.0 68.9 19.65 L73.0 19.1 Q73.0 19.5 72.6 19.65 72.1 19.85 72.05 20.05 73.0 20.2 74.15 19.5 75.2 18.9 76.35 19.1 76.05 18.0 76.65 17.8 77.15 17.6 77.8 18.15 82.3 13.8 84.25 11.3 87.65 7.0 87.75 1.5 84.5 0.05 78.65 2.25 M64.45 11.5 Q68.35 6.3 74.15 3.25 80.6 -0.15 87.75 0.05 89.2 4.95 86.4 10.1 84.1 14.35 79.7 17.7 L76.7 19.7 Q74.75 20.7 72.55 21.0 L68.5 20.95 Q65.85 20.7 64.45 21.0 62.15 21.55 58.6 24.35 L52.55 29.6 Q49.55 32.3 45.2 37.1 L37.6 45.5 Q28.2 55.85 22.1 59.15 20.0 60.25 16.55 60.05 12.8 59.75 12.1 57.7 11.05 54.35 16.75 50.75 18.5 49.65 21.3 48.3 L24.5 46.75 Q29.35 43.9 34.75 39.55 L44.0 31.65 Q55.6 21.65 64.0 17.7 63.8 16.35 64.15 14.55 64.6 12.7 64.45 11.5" fill="#000000" fill-rule="evenodd" stroke="none"/>
    <path d="M87.75 1.5 Q87.65 7.0 84.25 11.3 82.3 13.8 77.8 18.15 77.15 17.6 76.65 17.8 76.05 18.0 76.35 19.1 75.2 18.9 74.15 19.5 73.0 20.2 72.05 20.05 72.1 19.85 72.6 19.65 73.0 19.5 73.0 19.1 L68.9 19.65 Q67.05 20.0 66.85 19.1 60.25 21.5 53.2 27.85 L41.6 39.6 37.4 44.35 33.05 49.15 28.7 53.35 24.0 57.2 Q20.8 59.25 17.85 59.45 14.15 59.75 12.6 56.75 13.35 53.7 16.0 52.25 L21.15 50.1 Q26.55 47.4 32.45 42.75 L42.75 33.95 Q49.3 28.1 53.2 25.2 59.2 20.7 64.95 18.15 L64.95 12.95 Q65.85 11.05 67.55 9.35 L71.1 6.25 Q74.15 3.9 78.65 2.25 84.5 0.05 87.75 1.5 M79.2 2.9 Q78.1 2.9 77.8 3.9 78.85 3.9 79.2 2.9" fill="url(#gradient0)" fill-rule="evenodd" stroke="none"/>
    <path d="M77.8 3.9 Q78.1 2.9 79.2 2.9 78.85 3.9 77.8 3.9" fill="#000000" fill-rule="evenodd" stroke="none"/>
  </g>
  <defs>
    <linearGradient gradientTransform="matrix(0.0459, 0.0, 0.0, -0.0459, 50.2, 30.2)" gradientUnits="userSpaceOnUse" id="gradient0" spreadMethod="pad" x1="-819.2" x2="819.2">
      <stop offset="0.0" stop-color="#ffffff"/>
      <stop offset="1.0" stop-color="#5e5e5e"/>
    </linearGradient>
  </defs>
</svg>
