<?xml version="1.0" encoding="UTF-8" standalone="no"?>
<svg xmlns:xlink="http://www.w3.org/1999/xlink" height="60.0px" width="63.05px" xmlns="http://www.w3.org/2000/svg">
  <g transform="matrix(1, 0, 0, 1, -16.0, 0.0)">
    <path d="M68.85 3.5 Q70.45 7.05 71.2 13.25 L72.1 24.4 Q73.1 25.65 75.5 27.25 78.15 29.0 79.05 29.95 L79.05 41.7 79.05 54.55 Q70.7 60.05 54.95 60.0 47.95 59.95 41.7 58.65 35.3 57.35 31.3 55.05 30.75 53.2 31.0 49.3 31.3 45.4 30.85 43.9 30.45 42.5 27.6 39.4 L23.45 35.05 19.1 31.1 Q16.8 28.8 16.0 26.7 16.25 26.4 17.65 26.05 18.8 25.75 18.8 24.85 21.65 25.55 24.9 27.35 L30.4 30.45 Q31.45 29.0 34.9 27.05 38.15 25.2 39.2 23.45 L39.65 13.15 Q40.05 7.4 41.5 4.45 41.85 3.7 43.4 2.4 44.6 1.35 44.75 0.25 L55.2 0.0 65.15 0.7 66.75 2.4 Q67.7 3.35 68.85 3.5 M64.5 4.1 Q64.35 5.15 65.15 5.85 65.6 4.75 65.5 3.55 65.45 2.3 64.7 1.65 L64.5 4.1 M69.8 11.4 Q69.65 11.9 69.9 12.45 70.1 12.95 70.25 12.35 L70.15 11.3 Q69.9 10.8 69.8 11.4 M65.15 6.75 Q61.2 7.15 55.55 6.9 48.65 6.65 45.7 6.75 45.0 6.65 44.5 5.65 43.95 4.6 43.35 4.45 42.25 7.95 41.55 12.8 41.0 16.35 40.6 22.05 L45.8 21.1 51.7 20.7 Q51.35 18.35 54.15 18.3 L56.75 18.4 59.1 18.35 Q59.85 18.7 59.75 19.8 59.7 20.75 60.5 20.7 L65.25 21.25 69.8 22.05 69.25 13.2 Q68.65 8.0 67.0 4.45 66.05 4.2 66.0 5.5 65.95 6.9 65.15 6.75 M66.9 24.75 Q67.1 24.95 67.55 24.95 68.05 24.9 68.4 24.4 L67.0 24.35 Q66.65 24.5 66.9 24.75 M67.9 26.95 Q67.9 27.55 67.45 27.65 66.6 27.25 66.55 25.8 L56.5 26.5 Q50.9 26.7 46.6 26.25 L44.3 25.75 41.95 25.3 Q38.95 25.35 36.25 27.1 L31.8 30.9 Q39.45 33.1 50.6 33.7 L70.7 32.75 74.55 31.85 Q76.55 31.15 77.65 29.95 L74.55 27.55 72.55 26.25 73.75 27.5 Q74.65 28.2 73.95 28.55 73.1 28.3 71.65 26.7 70.4 25.3 68.85 25.3 68.95 26.35 70.25 28.45 71.4 30.25 71.2 30.9 70.3 30.55 69.15 28.15 68.15 26.05 67.45 26.25 67.9 26.3 67.9 26.95 M66.8 24.0 Q68.65 23.95 68.85 22.55 L61.8 21.65 Q57.6 21.45 54.95 22.55 53.95 21.65 51.0 21.45 L46.15 21.6 43.8 22.3 Q42.15 23.0 41.95 23.45 46.5 24.5 53.0 24.6 L63.75 23.95 66.8 24.0 M62.85 1.2 L55.7 0.9 47.55 1.2 47.55 5.35 Q50.05 6.3 55.2 6.2 L62.85 6.3 62.85 1.2 M44.9 2.75 Q44.55 3.6 44.75 4.45 45.8 4.85 45.8 3.05 45.8 1.3 45.2 1.2 45.3 1.9 44.9 2.75 M42.9 24.85 L44.35 24.95 Q45.25 25.0 45.2 24.4 L43.75 24.35 Q42.85 24.3 42.9 24.85 M55.4 18.9 Q53.6 18.9 53.1 20.2 L56.4 20.3 Q58.4 20.35 58.65 19.3 L55.4 18.9 M52.15 25.8 L56.95 25.9 61.45 25.3 55.4 25.3 50.45 25.4 Q48.9 25.6 52.15 25.8 M31.3 31.35 Q29.7 31.15 27.5 29.9 L23.9 27.6 Q21.8 26.35 20.4 26.25 18.5 26.1 16.95 27.65 L24.25 35.15 Q28.75 39.9 31.8 42.5 32.6 39.6 32.5 36.75 32.45 33.55 31.3 31.35 M33.55 37.2 Q33.45 39.15 32.75 42.4 L31.7 47.85 Q31.3 51.15 31.8 54.1 39.8 59.1 54.75 59.2 69.5 59.25 78.15 54.55 L78.15 42.7 Q78.3 35.3 77.65 31.35 67.95 34.5 55.6 34.5 43.9 34.55 32.7 31.8 33.65 34.4 33.55 37.2" fill="#000000" fill-rule="evenodd" stroke="none"/>
    <path d="M32.7 31.8 Q43.9 34.55 55.6 34.5 67.95 34.5 77.65 31.35 78.3 35.3 78.15 42.7 L78.15 54.55 Q69.5 59.25 54.75 59.2 39.8 59.1 31.8 54.1 31.3 51.15 31.7 47.85 L32.75 42.4 Q33.45 39.15 33.55 37.2 33.65 34.4 32.7 31.8 M69.3 36.95 L69.25 46.05 Q69.15 51.7 69.8 54.55 70.4 51.8 70.3 46.3 L70.25 37.4 Q70.05 36.85 69.3 36.95 M76.25 44.8 Q77.35 45.3 77.35 43.2 77.35 41.15 76.25 41.55 L76.25 44.8 M72.55 46.7 L72.55 43.3 72.55 40.2 Q72.4 39.6 71.65 39.7 L71.65 51.8 Q72.7 51.5 72.75 49.75 L72.55 46.7" fill="url(#gradient0)" fill-rule="evenodd" stroke="none"/>
    <path d="M76.25 41.55 Q77.35 41.15 77.35 43.2 77.35 45.3 76.25 44.8 L76.25 41.55" fill="#000000" fill-rule="evenodd" stroke="none"/>
    <path d="M71.65 26.7 Q73.1 28.3 73.95 28.55 74.65 28.2 73.75 27.5 L72.55 26.25 74.55 27.55 77.65 29.95 Q76.55 31.15 74.55 31.85 L70.7 32.75 50.6 33.7 Q39.45 33.1 31.8 30.9 L36.25 27.1 Q38.95 25.35 41.95 25.3 L44.3 25.75 46.6 26.25 Q50.9 26.7 56.5 26.5 L66.55 25.8 Q66.6 27.25 67.45 27.65 67.9 27.55 67.9 26.95 67.9 26.3 67.45 26.25 68.15 26.05 69.15 28.15 70.3 30.55 71.2 30.9 71.4 30.25 70.25 28.45 68.95 26.35 68.85 25.3 70.4 25.3 71.65 26.7" fill="url(#gradient1)" fill-rule="evenodd" stroke="none"/>
    <path d="M72.55 40.2 L72.55 43.3 72.55 46.7 72.75 49.75 Q72.7 51.5 71.65 51.8 L71.65 39.7 Q72.4 39.6 72.55 40.2" fill="#000000" fill-rule="evenodd" stroke="none"/>
    <path d="M69.8 11.4 Q69.9 10.8 70.15 11.3 L70.25 12.35 Q70.1 12.95 69.9 12.45 69.65 11.9 69.8 11.4" fill="url(#gradient2)" fill-rule="evenodd" stroke="none"/>
    <path d="M70.25 37.4 L70.3 46.3 Q70.4 51.8 69.8 54.55 69.15 51.7 69.25 46.05 L69.3 36.95 Q70.05 36.85 70.25 37.4" fill="#000000" fill-rule="evenodd" stroke="none"/>
    <path d="M68.4 24.4 Q68.05 24.9 67.55 24.95 67.1 24.95 66.9 24.75 66.65 24.5 67.0 24.35 L68.4 24.4" fill="url(#gradient3)" fill-rule="evenodd" stroke="none"/>
    <path d="M68.85 22.55 Q68.65 23.95 66.8 24.0 L63.75 23.95 53.0 24.6 Q46.5 24.5 41.95 23.45 42.15 23.0 43.8 22.3 L46.15 21.6 51.0 21.45 Q53.95 21.65 54.95 22.55 57.6 21.45 61.8 21.65 L68.85 22.55" fill="url(#gradient4)" fill-rule="evenodd" stroke="none"/>
    <path d="M64.7 1.65 Q65.45 2.3 65.5 3.55 65.6 4.75 65.15 5.85 64.35 5.15 64.5 4.1 L64.7 1.65" fill="#ef7918" fill-rule="evenodd" stroke="none"/>
    <path d="M62.85 6.3 L55.2 6.2 Q50.05 6.3 47.55 5.35 L47.55 1.2 55.7 0.9 62.85 1.2 62.85 6.3" fill="#ef7918" fill-rule="evenodd" stroke="none"/>
    <path d="M55.4 25.3 L61.45 25.3 56.95 25.9 52.15 25.8 Q48.9 25.6 50.45 25.4 L55.4 25.3" fill="url(#gradient5)" fill-rule="evenodd" stroke="none"/>
    <path d="M58.65 19.3 Q58.4 20.35 56.4 20.3 L53.1 20.2 Q53.6 18.9 55.4 18.9 L58.65 19.3" fill="url(#gradient6)" fill-rule="evenodd" stroke="none"/>
    <path d="M45.2 1.2 Q45.8 1.3 45.8 3.05 45.8 4.85 44.75 4.45 44.55 3.6 44.9 2.75 45.3 1.9 45.2 1.2" fill="#ef7918" fill-rule="evenodd" stroke="none"/>
    <path d="M45.2 24.4 Q45.25 25.0 44.35 24.95 L42.9 24.85 Q42.85 24.3 43.75 24.35 L45.2 24.4" fill="url(#gradient7)" fill-rule="evenodd" stroke="none"/>
    <path d="M31.3 31.35 Q32.45 33.55 32.5 36.75 32.6 39.6 31.8 42.5 28.75 39.9 24.25 35.15 L16.95 27.65 Q18.5 26.1 20.4 26.25 21.8 26.35 23.9 27.6 L27.5 29.9 Q29.7 31.15 31.3 31.35" fill="url(#gradient8)" fill-rule="evenodd" stroke="none"/>
  </g>
  <defs>
    <linearGradient gradientTransform="matrix(0.0285, 0.0, 0.0, -0.0285, 54.85, 45.3)" gradientUnits="userSpaceOnUse" id="gradient0" spreadMethod="pad" x1="-819.2" x2="819.2">
      <stop offset="0.0" stop-color="#ffffff"/>
      <stop offset="1.0" stop-color="#000000"/>
    </linearGradient>
    <linearGradient gradientTransform="matrix(0.028, 0.0, 0.0, -0.028, 54.7, 29.55)" gradientUnits="userSpaceOnUse" id="gradient1" spreadMethod="pad" x1="-819.2" x2="819.2">
      <stop offset="0.0" stop-color="#ffffff"/>
      <stop offset="1.0" stop-color="#000000"/>
    </linearGradient>
    <linearGradient gradientTransform="matrix(3.0E-4, 0.0, 0.0, -3.0E-4, 70.0, 11.85)" gradientUnits="userSpaceOnUse" id="gradient2" spreadMethod="pad" x1="-819.2" x2="819.2">
      <stop offset="0.0" stop-color="#ffffff"/>
      <stop offset="1.0" stop-color="#000000"/>
    </linearGradient>
    <linearGradient gradientTransform="matrix(0.001, 0.0, 0.0, -0.001, 67.6, 24.65)" gradientUnits="userSpaceOnUse" id="gradient3" spreadMethod="pad" x1="-819.2" x2="819.2">
      <stop offset="0.0" stop-color="#ffffff"/>
      <stop offset="1.0" stop-color="#000000"/>
    </linearGradient>
    <linearGradient gradientTransform="matrix(0.0164, 0.0, 0.0, -0.0164, 55.4, 23.0)" gradientUnits="userSpaceOnUse" id="gradient4" spreadMethod="pad" x1="-819.2" x2="819.2">
      <stop offset="0.0" stop-color="#ffffff"/>
      <stop offset="1.0" stop-color="#000000"/>
    </linearGradient>
    <linearGradient gradientTransform="matrix(0.007, 0.0, 0.0, -0.007, 55.7, 25.65)" gradientUnits="userSpaceOnUse" id="gradient5" spreadMethod="pad" x1="-819.2" x2="819.2">
      <stop offset="0.0" stop-color="#ffffff"/>
      <stop offset="1.0" stop-color="#000000"/>
    </linearGradient>
    <linearGradient gradientTransform="matrix(0.0034, 0.0, 0.0, -0.0034, 55.9, 19.6)" gradientUnits="userSpaceOnUse" id="gradient6" spreadMethod="pad" x1="-819.2" x2="819.2">
      <stop offset="0.0" stop-color="#ffffff"/>
      <stop offset="1.0" stop-color="#000000"/>
    </linearGradient>
    <linearGradient gradientTransform="matrix(0.0014, 0.0, 0.0, -0.0014, 44.05, 24.65)" gradientUnits="userSpaceOnUse" id="gradient7" spreadMethod="pad" x1="-819.2" x2="819.2">
      <stop offset="0.0" stop-color="#ffffff"/>
      <stop offset="1.0" stop-color="#000000"/>
    </linearGradient>
    <linearGradient gradientTransform="matrix(0.0095, 0.0, 0.0, -0.0095, 24.75, 34.4)" gradientUnits="userSpaceOnUse" id="gradient8" spreadMethod="pad" x1="-819.2" x2="819.2">
      <stop offset="0.0" stop-color="#ffffff"/>
      <stop offset="1.0" stop-color="#000000"/>
    </linearGradient>
  </defs>
</svg>
