<?xml version="1.0" encoding="UTF-8" standalone="no"?>
<svg xmlns:xlink="http://www.w3.org/1999/xlink" height="60.0px" width="29.3px" xmlns="http://www.w3.org/2000/svg">
  <g transform="matrix(1, 0, 0, 1, -35.0, 0.0)">
    <path d="M59.45 3.75 Q58.35 10.95 58.2 13.15 57.75 19.1 58.85 22.9 L58.85 9.9 60.0 6.9 Q60.5 4.7 59.45 3.75 M60.7 0.0 Q61.7 -0.1 61.95 0.65 60.9 3.85 60.4 9.05 L59.8 18.3 Q59.0 29.85 55.75 34.0 57.0 35.3 60.05 36.95 62.55 38.3 63.15 39.6 66.35 46.4 60.7 53.45 58.3 56.55 55.0 58.3 51.6 60.15 48.35 60.0 44.85 59.85 40.55 56.7 36.15 53.4 35.35 50.1 34.5 46.4 35.8 42.2 37.1 38.05 39.95 35.05 42.95 31.85 46.55 31.1 50.65 30.3 54.5 32.8 56.35 30.3 56.95 25.5 L57.4 16.2 Q57.5 9.95 57.95 7.05 58.7 2.35 60.7 0.0 M56.35 36.5 L51.9 36.3 Q49.2 36.3 48.35 34.65 L51.45 35.0 Q52.9 35.45 53.3 34.0 49.4 31.6 45.4 32.85 41.85 33.95 39.25 37.6 36.75 41.15 36.4 45.35 36.05 49.9 38.45 53.2 39.85 53.7 39.7 52.0 39.55 50.05 40.3 50.1 41.1 56.0 45.3 57.75 49.05 59.3 53.8 57.15 58.55 55.05 61.15 50.75 64.0 45.95 62.55 40.8 L59.9 38.4 Q58.35 37.2 56.35 36.5" fill="#000000" fill-rule="evenodd" stroke="none"/>
    <path d="M62.55 40.8 Q64.0 45.95 61.15 50.75 58.55 55.05 53.8 57.15 49.05 59.3 45.3 57.75 41.1 56.0 40.3 50.1 39.55 50.05 39.7 52.0 39.85 53.7 38.45 53.2 36.05 49.9 36.4 45.35 36.75 41.15 39.25 37.6 41.85 33.95 45.4 32.85 49.4 31.6 53.3 34.0 52.9 35.45 51.45 35.0 L48.35 34.65 Q49.2 36.3 51.9 36.3 L56.35 36.5 Q58.35 37.2 59.9 38.4 L62.55 40.8" fill="#f70b0b" fill-rule="evenodd" stroke="none"/>
    <path d="M59.45 3.75 Q60.5 4.7 60.0 6.9 L58.85 9.9 58.85 22.9 Q57.75 19.1 58.2 13.15 58.35 10.95 59.45 3.75" fill="#b27a3d" fill-rule="evenodd" stroke="none"/>
  </g>
</svg>
