<?xml version="1.0" encoding="UTF-8" standalone="no"?>
<svg xmlns:xlink="http://www.w3.org/1999/xlink" height="60.0px" width="100.0px" xmlns="http://www.w3.org/2000/svg">
  <g transform="matrix(1, 0, 0, 1, 0.0, 0.0)">
    <path d="M90.45 0.0 L92.1 0.35 94.7 0.45 95.8 1.85 Q96.4 2.65 96.3 3.65 L92.1 3.8 Q89.15 3.35 88.3 4.55 88.45 6.15 90.8 5.75 L95.25 5.45 95.25 8.65 90.4 8.9 Q88.5 9.3 87.25 10.9 89.5 11.1 93.05 12.4 96.75 13.8 99.5 14.1 99.4 14.8 98.5 15.35 97.55 15.95 97.35 16.4 98.8 16.8 99.35 18.55 L100.0 21.85 Q98.3 21.8 96.85 20.45 95.2 18.9 94.15 18.65 93.4 20.1 95.75 21.5 98.65 23.3 98.95 24.1 96.15 25.35 91.7 23.0 L88.05 21.1 Q85.85 20.15 84.05 20.0 83.0 20.05 81.8 20.55 L88.0 22.65 Q92.0 24.05 94.15 25.45 L94.15 26.15 94.15 26.85 Q94.55 27.3 95.95 27.55 97.2 27.7 97.35 28.2 97.05 29.8 97.2 31.15 L97.9 34.1 96.5 34.25 95.5 33.25 Q94.2 31.5 92.55 31.85 92.8 30.9 92.35 30.2 L91.5 29.1 91.0 29.6 Q90.8 30.0 90.45 30.0 90.1 30.4 90.5 31.1 L91.45 32.55 Q92.8 34.65 91.5 35.9 90.5 35.9 89.7 34.7 88.95 33.6 87.8 33.65 L86.75 30.9 85.65 28.2 85.05 28.8 Q84.65 29.2 84.05 29.1 82.95 27.4 80.6 25.45 L76.6 22.3 Q72.3 22.9 67.55 24.1 69.3 29.95 62.95 34.4 59.35 36.9 51.1 40.45 50.45 40.8 49.25 41.85 L47.35 43.2 40.95 45.4 34.05 47.3 21.3 50.9 Q14.0 53.0 9.6 54.55 6.15 55.8 4.2 56.8 1.35 58.3 0.0 60.0 0.25 58.55 1.9 56.55 3.4 54.7 5.35 53.2 5.95 52.7 7.3 51.9 L9.6 50.45 13.25 48.6 17.55 46.4 23.2 42.7 28.75 38.65 32.85 36.0 37.25 33.2 39.1 31.35 40.95 29.55 43.8 28.0 47.9 25.45 52.2 22.1 Q54.75 20.15 56.95 19.55 59.6 18.8 61.55 19.05 63.8 19.35 64.9 20.9 67.35 20.5 68.8 17.9 L69.9 15.65 71.3 13.65 Q69.85 11.9 69.45 10.2 68.9 8.05 70.25 6.4 L72.65 6.3 74.1 4.75 Q75.95 2.35 79.25 3.2 L79.25 5.45 85.1 2.95 Q88.8 1.5 90.45 0.0 M88.85 2.75 Q83.3 4.1 79.55 6.75 75.25 9.85 75.0 13.65 L77.75 10.35 Q79.4 8.3 80.85 7.3 81.2 7.4 81.3 8.3 81.4 9.1 81.95 9.1 82.4 7.55 84.45 7.25 L88.6 7.45 92.35 7.8 Q93.9 7.65 93.65 6.4 L91.25 6.5 87.8 6.85 87.0 5.9 Q86.45 5.4 86.7 4.55 87.25 3.15 90.05 2.8 L94.7 3.2 Q94.7 1.75 93.3 1.2 L89.9 0.9 Q89.75 2.35 88.85 2.75 M73.95 9.35 L73.4 11.85 Q74.8 11.0 75.85 8.0 76.9 4.95 78.2 4.1 74.95 3.7 74.25 6.65 L73.95 9.35 M71.3 11.4 L71.6 9.35 Q71.6 8.4 70.75 7.75 L70.7 9.85 Q70.6 11.2 71.3 11.4 M75.55 17.75 Q76.5 18.15 76.9 17.25 L76.95 16.9 76.6 17.3 75.4 17.4 Q74.9 17.5 75.55 17.75 M73.4 17.3 Q71.8 17.15 72.45 15.95 L73.4 14.1 Q72.95 13.15 72.35 12.75 72.75 14.1 71.55 15.8 70.45 17.35 70.75 17.75 71.0 16.6 71.85 17.35 L73.4 17.3 M81.1 15.95 Q81.8 16.0 81.95 16.4 79.75 16.75 78.75 17.75 82.2 17.65 85.75 16.7 L90.95 15.0 Q89.45 14.15 86.45 15.05 83.4 15.95 82.45 15.45 L86.15 14.2 Q88.15 13.5 89.9 13.65 90.7 13.7 91.75 14.35 L93.6 15.45 Q95.75 16.65 96.8 15.0 L92.25 13.05 Q89.75 12.05 87.25 12.3 L84.25 13.95 80.85 14.1 83.8 13.0 Q85.45 12.3 86.2 11.4 85.7 11.2 85.45 9.7 85.25 8.45 84.05 8.65 83.6 9.85 82.3 10.8 L79.8 12.3 Q79.7 13.35 80.3 14.65 80.6 15.4 79.8 15.9 L81.1 15.95 M74.5 17.3 Q77.2 16.35 78.65 13.9 80.0 11.6 79.8 8.65 79.5 10.55 76.95 13.35 74.5 16.05 74.5 17.3 M59.95 21.15 Q58.65 19.95 58.0 20.0 57.8 21.15 55.85 20.9 55.6 21.45 56.45 22.35 57.1 23.05 56.4 23.2 55.85 23.15 55.35 22.5 54.8 21.9 54.25 21.85 53.9 21.95 53.8 22.85 53.7 23.65 53.2 23.65 51.4 23.75 48.25 26.6 45.05 29.4 43.1 29.55 42.8 30.25 43.95 31.0 44.85 31.55 44.15 31.85 L42.9 31.1 40.95 30.9 Q41.9 32.1 40.65 32.25 38.95 32.45 38.85 33.2 L39.85 34.15 Q40.4 34.75 40.45 35.45 39.8 35.35 39.0 34.4 38.25 33.6 37.25 33.65 37.0 34.25 36.05 34.7 L34.6 35.45 Q34.1 36.25 35.05 37.0 35.75 37.55 35.1 37.75 34.45 37.8 34.15 36.95 33.9 36.15 33.0 36.4 32.6 36.65 32.15 37.5 L31.4 38.65 22.6 43.9 Q17.75 47.0 14.9 50.0 8.05 51.25 5.35 55.45 L14.65 52.1 Q20.15 50.25 25.0 49.55 25.3 48.85 27.25 48.35 29.1 47.85 29.25 46.85 29.6 47.75 30.85 47.75 30.95 47.4 30.65 46.85 30.45 46.5 30.85 46.4 L31.75 46.75 33.0 46.85 32.75 45.95 Q32.55 45.6 33.0 45.45 34.95 46.9 40.85 44.55 46.5 42.25 46.8 40.9 47.2 40.95 47.4 41.35 47.6 41.8 47.9 41.85 48.55 40.85 50.3 40.05 L53.2 38.65 Q53.25 38.2 52.95 37.75 L52.65 36.85 Q53.3 36.75 53.55 37.45 L54.25 38.2 Q54.9 37.9 54.45 37.25 54.05 36.6 54.8 36.4 L55.5 36.95 56.4 37.3 Q57.55 36.2 60.7 34.6 63.75 33.0 64.9 31.85 L65.35 30.6 Q65.55 29.9 66.5 30.0 66.65 29.55 65.8 28.45 65.1 27.65 65.95 27.3 66.35 27.3 66.55 27.7 66.75 28.15 67.05 28.2 67.5 26.4 66.35 25.0 65.2 23.65 64.35 25.0 64.25 23.9 63.3 22.95 L61.7 21.4 Q61.0 22.15 59.95 21.15 M63.2 21.5 L64.35 22.75 Q64.55 21.75 63.25 20.85 61.95 20.0 61.7 20.45 62.5 20.7 63.2 21.5 M77.65 21.4 Q77.75 21.1 78.85 20.8 79.75 20.6 79.25 19.55 80.35 19.3 83.45 19.6 85.8 19.8 86.7 18.65 L89.3 19.4 92.55 19.55 Q92.55 18.25 90.45 18.2 L87.25 18.65 Q87.8 17.05 90.55 17.45 L95.75 17.75 Q94.0 16.2 89.35 16.4 87.15 18.0 81.75 18.75 L72.9 20.0 Q76.3 20.8 79.25 22.95 L84.05 27.3 Q84.55 26.8 83.3 25.55 81.85 24.15 82.45 22.75 L84.65 25.65 Q85.9 27.55 87.25 28.2 L87.85 31.1 Q88.45 32.45 89.9 32.75 89.35 32.15 89.25 29.75 L88.85 25.45 Q90.45 26.35 92.45 28.55 94.65 31.05 95.75 31.85 96.15 30.2 93.65 27.3 L92.65 26.15 91.5 25.0 Q90.7 24.5 88.65 24.25 L85.65 23.65 Q85.3 23.5 85.05 22.95 L84.6 22.3 82.6 21.9 Q81.35 21.6 81.8 20.55 L80.1 21.25 77.65 21.4 M89.35 20.0 Q88.25 19.85 87.75 20.0 87.4 20.15 87.65 20.35 L88.4 20.55 Q89.0 20.5 89.35 20.0 M98.4 20.0 Q97.95 19.5 97.95 19.1 97.95 18.7 98.4 18.2 L97.05 17.9 Q96.55 17.85 96.3 18.65 96.9 18.55 97.6 19.7 98.15 20.6 98.4 20.0 M96.8 23.2 Q95.5 22.9 93.45 21.55 91.55 20.25 89.9 20.0 90.8 21.3 93.1 22.4 95.45 23.45 96.8 23.2" fill="#000000" fill-rule="evenodd" stroke="none"/>
    <path d="M98.4 20.0 Q98.15 20.6 97.6 19.7 96.9 18.55 96.3 18.65 96.55 17.85 97.05 17.9 L98.4 18.2 Q97.95 18.7 97.95 19.1 97.95 19.5 98.4 20.0" fill="#30a010" fill-rule="evenodd" stroke="none"/>
    <path d="M96.8 23.2 Q95.45 23.45 93.1 22.4 90.8 21.3 89.9 20.0 91.55 20.25 93.45 21.55 95.5 22.9 96.8 23.2" fill="#30a010" fill-rule="evenodd" stroke="none"/>
    <path d="M80.1 21.25 L81.8 20.55 Q81.35 21.6 82.6 21.9 L84.6 22.3 85.05 22.95 Q85.3 23.5 85.65 23.65 L88.65 24.25 Q90.7 24.5 91.5 25.0 L92.65 26.15 93.65 27.3 Q96.15 30.2 95.75 31.85 94.65 31.05 92.45 28.55 90.45 26.35 88.85 25.45 L89.25 29.75 Q89.35 32.15 89.9 32.75 88.45 32.45 87.85 31.1 L87.25 28.2 Q85.9 27.55 84.65 25.65 L82.45 22.75 Q81.85 24.15 83.3 25.55 84.55 26.8 84.05 27.3 L79.25 22.95 Q76.3 20.8 72.9 20.0 L81.75 18.75 Q87.15 18.0 89.35 16.4 94.0 16.2 95.75 17.75 L90.55 17.45 Q87.8 17.05 87.25 18.65 L90.45 18.2 Q92.55 18.25 92.55 19.55 L89.3 19.4 86.7 18.65 Q85.8 19.8 83.45 19.6 80.35 19.3 79.25 19.55 79.75 20.6 78.85 20.8 77.75 21.1 77.65 21.4 L80.1 21.25" fill="#30a010" fill-rule="evenodd" stroke="none"/>
    <path d="M79.8 12.3 L82.3 10.8 Q83.6 9.85 84.05 8.65 85.25 8.45 85.45 9.7 85.7 11.2 86.2 11.4 85.45 12.3 83.8 13.0 L80.85 14.1 84.25 13.95 87.25 12.3 Q89.75 12.05 92.25 13.05 L96.8 15.0 Q95.75 16.65 93.6 15.45 L91.75 14.35 Q90.7 13.7 89.9 13.65 88.15 13.5 86.15 14.2 L82.45 15.45 Q83.4 15.95 86.45 15.05 89.45 14.15 90.95 15.0 L85.75 16.7 Q82.2 17.65 78.75 17.75 79.75 16.75 81.95 16.4 81.8 16.0 81.1 15.95 L79.8 15.9 Q80.6 15.4 80.3 14.65 79.7 13.35 79.8 12.3" fill="#30a010" fill-rule="evenodd" stroke="none"/>
    <path d="M89.9 0.9 L93.3 1.2 Q94.7 1.75 94.7 3.2 L90.05 2.8 Q87.25 3.15 86.7 4.55 86.45 5.4 87.0 5.9 L87.8 6.85 91.25 6.5 93.65 6.4 Q93.9 7.65 92.35 7.8 L88.6 7.45 84.45 7.25 Q82.4 7.55 81.95 9.1 81.4 9.1 81.3 8.3 81.2 7.4 80.85 7.3 79.4 8.3 77.75 10.35 L75.0 13.65 Q75.25 9.85 79.55 6.75 83.3 4.1 88.85 2.75 89.75 2.35 89.9 0.9" fill="#30a010" fill-rule="evenodd" stroke="none"/>
    <path d="M89.35 20.0 Q89.0 20.5 88.4 20.55 L87.65 20.35 Q87.4 20.15 87.75 20.0 88.25 19.85 89.35 20.0" fill="#30a010" fill-rule="evenodd" stroke="none"/>
    <path d="M79.8 8.65 Q80.0 11.6 78.65 13.9 77.2 16.35 74.5 17.3 74.5 16.05 76.95 13.35 79.5 10.55 79.8 8.65" fill="#30a010" fill-rule="evenodd" stroke="none"/>
    <path d="M73.4 11.85 L73.95 9.35 74.25 6.65 Q74.95 3.7 78.2 4.1 76.9 4.95 75.85 8.0 74.8 11.0 73.4 11.85" fill="#30a010" fill-rule="evenodd" stroke="none"/>
    <path d="M76.6 17.3 L76.95 16.9 76.9 17.25 Q76.5 18.15 75.55 17.75 74.9 17.5 75.4 17.4 L76.6 17.3" fill="#30a010" fill-rule="evenodd" stroke="none"/>
    <path d="M73.4 14.1 L72.45 15.95 Q71.8 17.15 73.4 17.3 L71.85 17.35 Q71.0 16.6 70.75 17.75 70.45 17.35 71.55 15.8 72.75 14.1 72.35 12.75 72.95 13.15 73.4 14.1" fill="#30a010" fill-rule="evenodd" stroke="none"/>
    <path d="M70.75 7.75 Q71.6 8.4 71.6 9.35 L71.3 11.4 Q70.6 11.2 70.7 9.85 L70.75 7.75" fill="#30a010" fill-rule="evenodd" stroke="none"/>
    <path d="M64.35 25.0 Q65.2 23.65 66.35 25.0 67.5 26.4 67.05 28.2 66.75 28.15 66.55 27.7 66.35 27.3 65.95 27.3 65.1 27.65 65.8 28.45 66.65 29.55 66.5 30.0 65.55 29.9 65.35 30.6 L64.9 31.85 Q63.75 33.0 60.7 34.6 57.55 36.2 56.4 37.3 L55.5 36.95 54.8 36.4 Q54.05 36.6 54.45 37.25 54.9 37.9 54.25 38.2 L53.55 37.45 Q53.3 36.75 52.65 36.85 L52.95 37.75 Q53.25 38.2 53.2 38.65 L50.3 40.05 Q48.55 40.85 47.9 41.85 47.6 41.8 47.4 41.35 47.2 40.95 46.8 40.9 46.5 42.25 40.85 44.55 34.95 46.9 33.0 45.45 32.55 45.6 32.75 45.95 L33.0 46.85 31.75 46.75 30.85 46.4 Q30.45 46.5 30.65 46.85 30.95 47.4 30.85 47.75 29.6 47.75 29.25 46.85 29.1 47.85 27.25 48.35 25.3 48.85 25.0 49.55 20.15 50.25 14.65 52.1 L5.35 55.45 Q8.05 51.25 14.9 50.0 17.75 47.0 22.6 43.9 L31.4 38.65 32.15 37.5 Q32.6 36.65 33.0 36.4 33.9 36.15 34.15 36.95 34.45 37.8 35.1 37.75 35.75 37.55 35.05 37.0 34.1 36.25 34.6 35.45 L36.05 34.7 Q37.0 34.25 37.25 33.65 38.25 33.6 39.0 34.4 39.8 35.35 40.45 35.45 40.4 34.75 39.85 34.15 L38.85 33.2 Q38.95 32.45 40.65 32.25 41.9 32.1 40.95 30.9 L42.9 31.1 44.15 31.85 Q44.85 31.55 43.95 31.0 42.8 30.25 43.1 29.55 45.05 29.4 48.25 26.6 51.4 23.75 53.2 23.65 53.7 23.65 53.8 22.85 53.9 21.95 54.25 21.85 54.8 21.9 55.35 22.5 55.85 23.15 56.4 23.2 57.1 23.05 56.45 22.35 55.6 21.45 55.85 20.9 57.8 21.15 58.0 20.0 58.65 19.95 59.95 21.15 61.0 22.15 61.7 21.4 L63.3 22.95 Q64.25 23.9 64.35 25.0" fill="#f46025" fill-rule="evenodd" stroke="none"/>
    <path d="M61.7 20.45 Q61.95 20.0 63.25 20.85 64.55 21.75 64.35 22.75 L63.2 21.5 Q62.5 20.7 61.7 20.45" fill="#f46025" fill-rule="evenodd" stroke="none"/>
  </g>
</svg>
