<?xml version="1.0" encoding="UTF-8" standalone="no"?>
<svg xmlns:xlink="http://www.w3.org/1999/xlink" height="60.0px" width="51.95px" xmlns="http://www.w3.org/2000/svg">
  <g transform="matrix(1, 0, 0, 1, -24.0, 0.0)">
    <path d="M74.4 0.5 Q74.4 2.0 75.2 4.3 76.0 6.5 75.95 8.15 75.65 9.3 74.5 10.55 73.2 11.95 72.9 12.7 L74.7 25.25 Q75.35 32.05 74.4 37.15 73.5 41.9 70.05 46.65 66.65 51.5 62.75 53.4 57.5 56.05 50.55 56.85 42.3 57.8 37.85 54.95 36.85 56.3 36.55 57.25 36.1 58.7 36.85 60.0 35.85 60.05 35.6 59.0 L35.3 56.95 Q34.75 58.15 33.65 57.6 L33.0 57.3 Q32.75 57.35 32.75 58.0 32.4 56.75 30.65 56.5 29.15 56.3 29.2 54.45 28.7 54.5 28.4 55.65 28.15 56.65 27.2 56.45 27.05 54.1 27.7 53.4 26.9 53.2 26.65 53.85 L26.15 54.95 Q25.2 54.35 25.6 53.05 L26.15 50.35 Q26.9 50.55 27.3 49.7 27.7 48.95 28.7 49.35 L26.5 44.65 Q25.1 41.7 24.65 39.7 23.45 34.4 24.55 28.7 25.65 23.3 28.65 18.5 31.7 13.75 35.95 10.65 40.45 7.4 45.45 6.6 49.3 6.05 57.25 7.4 64.45 8.65 67.3 7.65 69.3 6.95 70.95 4.35 L73.4 0.0 Q74.2 -0.1 74.4 0.5 M72.35 4.6 Q71.6 5.95 70.2 7.0 L67.3 8.65 Q67.2 9.25 67.65 9.6 L68.3 10.2 Q67.9 10.2 67.4 10.85 67.05 11.4 66.3 11.2 66.95 10.15 66.3 10.3 L64.75 10.7 61.35 9.95 57.5 8.8 Q52.5 7.35 49.0 8.15 49.1 10.05 46.4 11.0 L42.95 11.7 Q43.55 10.5 44.95 9.4 L47.5 7.65 45.3 8.0 Q43.95 8.2 43.45 8.65 44.2 9.1 43.0 9.65 41.45 10.3 41.4 10.7 42.0 10.9 41.9 11.7 L39.2 13.6 Q37.55 14.7 35.8 14.75 28.35 21.7 27.2 32.55 L27.2 37.15 Q27.85 36.85 27.75 35.2 L27.7 32.55 28.95 27.2 Q29.8 24.2 31.75 23.4 29.35 26.8 28.75 34.85 28.25 41.8 29.2 47.3 29.25 46.95 30.05 46.5 30.85 46.1 30.75 46.8 L29.9 47.6 Q29.25 48.05 30.25 48.3 31.2 47.2 31.85 48.05 32.35 48.8 32.25 49.35 33.65 48.2 35.3 49.8 36.65 51.1 36.85 52.25 L36.8 50.75 Q36.95 50.05 37.85 50.35 38.1 50.9 37.45 52.15 37.0 53.1 37.85 53.4 L38.25 52.05 Q38.55 51.25 38.35 50.35 L36.05 48.85 Q34.8 47.9 34.3 46.8 L32.2 46.85 Q30.95 46.9 31.25 45.8 34.6 45.3 37.2 47.6 39.8 49.8 40.4 53.4 L46.3 53.15 51.05 52.9 Q49.05 54.05 45.9 54.15 42.65 54.25 41.4 54.95 L47.3 55.0 52.55 54.45 Q52.25 53.8 51.5 54.25 50.8 54.65 50.55 53.9 L57.55 51.8 Q62.1 50.4 60.7 49.35 L62.5 49.3 Q63.7 49.2 63.75 49.85 62.5 51.4 58.65 52.4 54.3 53.5 53.1 54.45 59.7 53.8 63.7 50.85 66.7 48.7 70.35 43.25 69.45 43.7 67.2 46.35 65.4 48.55 64.25 48.3 L69.15 42.3 Q71.75 38.65 72.35 34.6 74.05 33.25 73.75 28.75 73.0 23.3 72.9 20.85 L72.8 19.75 Q72.65 19.25 72.35 19.85 72.05 20.95 72.55 23.1 72.95 24.95 72.35 25.45 L71.7 23.2 Q71.4 22.25 70.35 22.4 L69.8 17.0 Q69.4 13.9 69.85 12.2 L68.15 12.15 Q67.45 11.85 67.8 10.7 L69.6 11.2 71.35 10.7 70.45 13.0 Q69.95 14.6 70.85 15.25 L72.0 11.85 Q72.75 10.0 73.9 9.15 72.7 9.4 73.15 8.65 73.7 7.75 72.9 7.65 L71.85 9.15 Q71.5 8.1 72.4 5.95 73.1 4.4 72.35 4.6 M36.35 12.35 Q34.7 13.45 35.3 14.25 35.65 13.4 36.25 13.45 L37.85 13.25 Q37.5 12.7 38.6 11.4 39.4 10.4 38.35 10.2 38.3 11.1 36.35 12.35 M28.0 22.85 L29.05 21.5 Q31.35 18.3 30.75 17.8 L29.45 19.6 Q28.65 20.65 28.7 21.9 L28.0 22.85 M33.3 15.95 Q34.45 14.85 33.8 14.25 33.55 14.95 32.5 15.75 31.5 16.65 31.25 17.3 32.35 16.85 33.3 15.95 M50.05 7.15 L48.5 7.1 Q48.15 7.25 48.4 7.5 L49.1 7.7 50.05 7.15 M25.7 32.65 Q25.75 30.05 25.15 30.5 L25.1 34.5 Q25.05 37.15 25.65 36.65 L25.7 32.65 M35.2 52.0 Q35.0 50.95 34.8 51.9 34.5 53.25 34.8 53.75 35.1 54.3 35.3 53.4 L35.2 52.0 M48.5 55.95 L50.35 56.05 Q51.5 56.1 51.55 55.45 L49.7 55.4 Q48.55 55.3 48.5 55.95" fill="#000000" fill-rule="evenodd" stroke="none"/>
    <path d="M72.9 7.65 Q73.7 7.75 73.15 8.65 72.7 9.4 73.9 9.15 72.75 10.0 72.0 11.85 L70.85 15.25 Q69.95 14.6 70.45 13.0 L71.35 10.7 69.6 11.2 67.8 10.7 Q67.45 11.85 68.15 12.15 L69.85 12.2 Q69.4 13.9 69.8 17.0 L70.35 22.4 Q71.4 22.25 71.7 23.2 L72.35 25.45 Q72.95 24.95 72.55 23.1 72.05 20.95 72.35 19.85 72.65 19.25 72.8 19.75 L72.9 20.85 Q73.0 23.3 73.75 28.75 74.05 33.25 72.35 34.6 71.75 38.65 69.15 42.3 L64.25 48.3 Q65.4 48.55 67.2 46.35 69.45 43.7 70.35 43.25 66.7 48.7 63.7 50.85 59.7 53.8 53.1 54.45 54.3 53.5 58.65 52.4 62.5 51.4 63.75 49.85 63.7 49.2 62.5 49.3 L60.7 49.35 Q62.1 50.4 57.55 51.8 L50.55 53.9 Q50.8 54.65 51.5 54.25 52.25 53.8 52.55 54.45 L47.3 55.0 41.4 54.95 Q42.65 54.25 45.9 54.15 49.05 54.05 51.05 52.9 L46.3 53.15 40.4 53.4 Q39.8 49.8 37.2 47.6 34.6 45.3 31.25 45.8 30.95 46.9 32.2 46.85 L34.3 46.8 Q34.8 47.9 36.05 48.85 L38.35 50.35 Q38.55 51.25 38.25 52.05 L37.85 53.4 Q37.0 53.1 37.45 52.15 38.1 50.9 37.85 50.35 36.95 50.05 36.8 50.75 L36.85 52.25 Q36.65 51.1 35.3 49.8 33.65 48.2 32.25 49.35 32.35 48.8 31.85 48.05 31.2 47.2 30.25 48.3 29.25 48.05 29.9 47.6 L30.75 46.8 Q30.85 46.1 30.05 46.5 29.25 46.95 29.2 47.3 28.25 41.8 28.75 34.85 29.35 26.8 31.75 23.4 29.8 24.2 28.95 27.2 L27.7 32.55 27.75 35.2 Q27.85 36.85 27.2 37.15 L27.2 32.55 Q28.35 21.7 35.8 14.75 37.55 14.7 39.2 13.6 L41.9 11.7 Q42.0 10.9 41.4 10.7 41.45 10.3 43.0 9.65 44.2 9.1 43.45 8.65 43.95 8.2 45.3 8.0 L47.5 7.65 44.95 9.4 Q43.55 10.5 42.95 11.7 L46.4 11.0 Q49.1 10.05 49.0 8.15 52.5 7.35 57.5 8.8 L61.35 9.95 64.75 10.7 66.3 10.3 Q66.95 10.15 66.3 11.2 67.05 11.4 67.4 10.85 67.9 10.2 68.3 10.2 L67.65 9.6 Q67.2 9.25 67.3 8.65 L70.2 7.0 Q71.6 5.95 72.35 4.6 73.1 4.4 72.4 5.95 71.5 8.1 71.85 9.15 L72.9 7.65 M68.75 15.6 Q68.15 13.5 66.8 12.7 L66.8 14.25 66.9 14.65 67.3 14.75 67.4 14.1 67.8 13.75 67.8 17.6 Q67.85 19.75 69.35 19.85 L68.75 15.6 M34.3 23.9 Q32.35 27.15 31.1 33.2 L29.2 43.75 30.4 44.15 31.75 44.75 Q31.55 41.75 32.15 37.3 32.85 32.55 32.75 30.0 L33.3 30.25 33.8 30.5 Q33.4 28.65 34.15 27.1 L35.3 24.4 Q35.1 23.8 34.3 23.9 M51.05 10.2 Q51.7 11.65 53.8 11.7 55.85 11.7 56.65 10.2 L51.05 10.2 M57.75 10.3 Q57.4 10.45 57.45 10.85 57.45 11.2 57.8 11.25 L58.65 10.7 Q58.1 10.2 57.75 10.3 M59.7 38.15 Q56.6 43.6 52.05 47.3 L49.55 48.85 Q48.1 49.75 47.5 50.85 51.7 49.95 55.1 46.05 L60.7 39.15 60.5 38.35 Q60.25 38.0 59.7 38.15 M40.55 47.0 Q39.6 47.65 39.35 48.85 40.75 48.85 41.65 48.1 42.35 47.55 42.95 46.3 41.4 46.45 40.55 47.0 M40.4 50.85 Q43.2 51.05 43.95 49.35 41.1 49.2 40.4 50.85 M44.65 50.95 Q42.7 51.5 42.4 52.4 L45.35 52.3 Q46.85 52.05 47.0 50.85 L44.65 50.95 M56.1 50.15 L53.6 51.9 Q55.4 51.9 57.05 51.05 L59.7 49.35 Q57.7 49.25 56.1 50.15 M36.1 37.55 Q35.45 38.65 36.35 39.15 L37.3 37.5 Q37.75 36.1 36.85 35.6 36.95 36.15 36.1 37.55 M37.85 41.2 L36.45 43.5 Q35.45 44.85 36.35 45.8 L37.85 43.65 Q38.85 42.2 37.85 41.2 M33.95 43.45 Q33.6 44.35 33.8 45.25 34.8 45.4 35.2 43.45 35.65 41.55 34.3 41.7 34.4 42.45 33.95 43.45 M38.6 46.85 Q39.3 46.1 39.35 44.75 38.45 44.7 37.9 45.6 L36.85 46.8 38.6 46.85 M66.3 42.2 Q65.2 42.85 64.15 44.15 62.95 45.7 64.25 45.8 L67.55 41.35 Q69.5 38.45 68.8 36.1 68.7 37.4 67.45 39.1 66.3 40.7 66.3 42.2 M61.35 47.5 Q60.6 47.7 60.7 48.3 L62.2 48.25 Q63.25 47.25 62.2 46.8 62.2 47.25 61.35 47.5" fill="url(#gradient0)" fill-rule="evenodd" stroke="none"/>
    <path d="M68.8 36.1 Q69.5 38.45 67.55 41.35 L64.25 45.8 Q62.95 45.7 64.15 44.15 65.2 42.85 66.3 42.2 66.3 40.7 67.45 39.1 68.7 37.4 68.8 36.1" fill="#000000" fill-rule="evenodd" stroke="none"/>
    <path d="M66.8 14.25 L66.8 12.7 Q68.15 13.5 68.75 15.6 L69.35 19.85 Q67.85 19.75 67.8 17.6 L67.8 13.75 67.4 14.1 67.3 14.75 66.9 14.65 66.8 14.25" fill="#000000" fill-rule="evenodd" stroke="none"/>
    <path d="M62.2 46.8 Q63.25 47.25 62.2 48.25 L60.7 48.3 Q60.6 47.7 61.35 47.5 62.2 47.25 62.2 46.8" fill="#000000" fill-rule="evenodd" stroke="none"/>
    <path d="M59.7 38.15 Q60.25 38.0 60.5 38.35 L60.7 39.15 55.1 46.05 Q51.7 49.95 47.5 50.85 48.1 49.75 49.55 48.85 L52.05 47.3 Q56.6 43.6 59.7 38.15" fill="#000000" fill-rule="evenodd" stroke="none"/>
    <path d="M57.05 51.05 Q55.4 51.9 53.6 51.9 L56.1 50.15 Q57.7 49.25 59.7 49.35 L57.05 51.05" fill="#000000" fill-rule="evenodd" stroke="none"/>
    <path d="M58.65 10.7 L57.8 11.25 Q57.45 11.2 57.45 10.85 57.4 10.45 57.75 10.3 58.1 10.2 58.65 10.7" fill="#000000" fill-rule="evenodd" stroke="none"/>
    <path d="M51.05 10.2 L56.65 10.2 Q55.85 11.7 53.8 11.7 51.7 11.65 51.05 10.2" fill="#000000" fill-rule="evenodd" stroke="none"/>
    <path d="M48.5 55.95 Q48.55 55.3 49.7 55.4 L51.55 55.45 Q51.5 56.1 50.35 56.05 L48.5 55.95" fill="#b97a00" fill-rule="evenodd" stroke="none"/>
    <path d="M50.05 7.15 L49.1 7.7 48.4 7.5 Q48.15 7.25 48.5 7.1 L50.05 7.15" fill="#b97a00" fill-rule="evenodd" stroke="none"/>
    <path d="M47.0 50.85 Q46.85 52.05 45.35 52.3 L42.4 52.4 Q42.7 51.5 44.65 50.95 L47.0 50.85" fill="#000000" fill-rule="evenodd" stroke="none"/>
    <path d="M40.4 50.85 Q41.1 49.2 43.95 49.35 43.2 51.05 40.4 50.85" fill="#000000" fill-rule="evenodd" stroke="none"/>
    <path d="M41.65 48.1 Q40.75 48.85 39.35 48.85 39.6 47.65 40.55 47.0 41.4 46.45 42.95 46.3 42.35 47.55 41.65 48.1" fill="#000000" fill-rule="evenodd" stroke="none"/>
    <path d="M36.85 46.8 L37.9 45.6 Q38.45 44.7 39.35 44.75 39.3 46.1 38.6 46.85 L36.85 46.8" fill="#000000" fill-rule="evenodd" stroke="none"/>
    <path d="M38.35 10.2 Q39.4 10.4 38.6 11.4 37.5 12.7 37.85 13.25 L36.25 13.45 Q35.65 13.4 35.3 14.25 34.7 13.45 36.35 12.35 38.3 11.1 38.35 10.2" fill="#b97a00" fill-rule="evenodd" stroke="none"/>
    <path d="M37.85 41.2 Q38.85 42.2 37.85 43.65 L36.35 45.8 Q35.45 44.85 36.45 43.5 L37.85 41.2" fill="#000000" fill-rule="evenodd" stroke="none"/>
    <path d="M36.85 35.6 Q37.75 36.1 37.3 37.5 L36.35 39.15 Q35.45 38.65 36.1 37.55 36.95 36.15 36.85 35.6" fill="#000000" fill-rule="evenodd" stroke="none"/>
    <path d="M34.8 51.9 Q35.0 50.95 35.2 52.0 L35.3 53.4 Q35.1 54.3 34.8 53.75 34.5 53.25 34.8 51.9" fill="#b97a00" fill-rule="evenodd" stroke="none"/>
    <path d="M35.3 24.4 L34.15 27.1 Q33.4 28.65 33.8 30.5 L33.3 30.25 32.75 30.0 Q32.85 32.55 32.15 37.3 31.55 41.75 31.75 44.75 L30.4 44.15 29.2 43.75 31.1 33.2 Q32.35 27.15 34.3 23.9 35.1 23.8 35.3 24.4" fill="#000000" fill-rule="evenodd" stroke="none"/>
    <path d="M34.3 41.7 Q35.65 41.55 35.2 43.45 34.8 45.4 33.8 45.25 33.6 44.35 33.95 43.45 34.4 42.45 34.3 41.7" fill="#000000" fill-rule="evenodd" stroke="none"/>
    <path d="M33.8 14.25 Q34.45 14.85 33.3 15.95 32.35 16.85 31.25 17.3 31.5 16.65 32.5 15.75 33.55 14.95 33.8 14.25" fill="#b97a00" fill-rule="evenodd" stroke="none"/>
    <path d="M30.75 17.8 Q31.35 18.3 29.05 21.5 L28.0 22.85 28.7 21.9 Q28.65 20.65 29.45 19.6 L30.75 17.8" fill="#b97a00" fill-rule="evenodd" stroke="none"/>
    <path d="M25.15 30.5 Q25.75 30.05 25.7 32.65 L25.65 36.65 Q25.05 37.15 25.1 34.5 L25.15 30.5" fill="#b97a00" fill-rule="evenodd" stroke="none"/>
  </g>
  <defs>
    <linearGradient gradientTransform="matrix(0.0285, 0.0, 0.0, -0.0286, 50.55, 29.8)" gradientUnits="userSpaceOnUse" id="gradient0" spreadMethod="pad" x1="-819.2" x2="819.2">
      <stop offset="0.25882352941176473" stop-color="#b97a00"/>
      <stop offset="0.5411764705882353" stop-color="#ffffff"/>
      <stop offset="0.8196078431372549" stop-color="#b97a00"/>
    </linearGradient>
  </defs>
</svg>
