<?xml version="1.0" encoding="UTF-8" standalone="no"?>
<svg xmlns:xlink="http://www.w3.org/1999/xlink" height="61.4px" width="69.75px" xmlns="http://www.w3.org/2000/svg">
  <g transform="matrix(1, 0, 0, 1, -11.3, 0.7)">
    <path d="M79.55 39.5 Q81.65 49.9 78.15 54.9 74.35 60.35 63.4 60.0 L54.0 59.35 Q48.65 58.8 46.45 57.95 43.1 56.65 38.2 51.15 L29.0 40.85 24.15 36.45 Q21.65 34.2 20.6 32.65 20.25 32.2 20.1 31.25 L19.65 29.8 15.4 22.1 Q13.05 17.5 12.2 13.25 11.45 8.5 13.35 5.25 15.15 2.1 19.25 0.7 L28.25 0.0 37.95 0.75 Q43.5 2.1 47.85 6.3 L51.55 10.15 56.0 14.35 Q57.85 15.9 62.15 18.3 66.5 20.8 68.3 22.25 73.3 26.25 76.15 30.85 78.6 34.8 79.55 39.5 M20.75 18.6 Q21.45 17.1 20.7 15.8 20.0 14.45 18.2 14.2 18.4 15.3 19.35 16.5 L20.75 18.6 M52.95 21.75 L52.15 20.05 Q51.4 18.8 50.45 17.95 L50.45 21.75 Q50.95 21.5 52.0 22.25 52.7 22.8 52.95 21.75 M47.9 41.35 Q47.45 43.1 48.75 43.7 L51.05 44.5 Q51.25 41.15 47.9 41.35 M63.05 37.55 L62.7 34.8 Q62.4 33.15 61.2 33.15 60.7 36.85 63.05 37.55 M58.0 53.35 Q58.35 51.45 56.9 51.1 55.45 50.75 54.85 52.1 L55.95 53.2 58.0 53.35" fill="#ef962b" fill-rule="evenodd" stroke="none"/>
    <path d="M61.2 33.15 Q62.4 33.15 62.7 34.8 L63.05 37.55 Q60.7 36.85 61.2 33.15" fill="#d6842b" fill-rule="evenodd" stroke="none"/>
    <path d="M54.85 52.1 Q55.45 50.75 56.9 51.1 58.35 51.45 58.0 53.35 L55.95 53.2 54.85 52.1" fill="#d6842b" fill-rule="evenodd" stroke="none"/>
    <path d="M52.95 21.75 Q52.7 22.8 52.0 22.25 50.95 21.5 50.45 21.75 L50.45 17.95 Q51.4 18.8 52.15 20.05 L52.95 21.75" fill="#d6842b" fill-rule="evenodd" stroke="none"/>
    <path d="M47.9 41.35 Q51.25 41.15 51.05 44.5 L48.75 43.7 Q47.45 43.1 47.9 41.35" fill="#d6842b" fill-rule="evenodd" stroke="none"/>
    <path d="M19.35 16.5 Q18.4 15.3 18.2 14.2 20.0 14.45 20.7 15.8 21.45 17.1 20.75 18.6 L19.35 16.5" fill="#d6842b" fill-rule="evenodd" stroke="none"/>
    <path d="M76.15 30.85 Q73.3 26.25 68.3 22.25 66.5 20.8 62.15 18.3 57.85 15.9 56.0 14.35 L51.55 10.15 47.85 6.3 Q43.5 2.1 37.95 0.75 L28.25 0.0 19.25 0.7 Q15.15 2.1 13.35 5.25 11.45 8.5 12.2 13.25 13.05 17.5 15.4 22.1 L19.65 29.8 20.1 31.25 Q20.25 32.2 20.6 32.65 21.65 34.2 24.15 36.45 L29.0 40.85 38.2 51.15 Q43.1 56.65 46.45 57.95 48.65 58.8 54.0 59.35 L63.4 60.0 Q74.35 60.35 78.15 54.9 81.65 49.9 79.55 39.5 78.6 34.8 76.15 30.85" fill="none" stroke="#000000" stroke-linecap="round" stroke-linejoin="miter" stroke-miterlimit="1024" stroke-width="1.4000000000000001"/>
    <path d="M76.65 43.9 L76.35 43.8 Q76.15 43.5 76.1 42.85 L76.0 41.65" fill="none" stroke="#000000" stroke-linecap="round" stroke-linejoin="miter" stroke-miterlimit="1024" stroke-width="1.35"/>
    <path d="M31.5 5.95 Q30.85 5.75 30.55 5.0" fill="none" stroke="#000000" stroke-linecap="round" stroke-linejoin="miter" stroke-miterlimit="1024" stroke-width="1.1500000000000001"/>
    <path d="M58.0 53.35 L55.95 53.2 54.85 52.1 Q55.45 50.75 56.9 51.1 58.35 51.45 58.0 53.35" fill="none" stroke="#000000" stroke-linecap="round" stroke-linejoin="miter" stroke-miterlimit="1024" stroke-width="1.0"/>
    <path d="M47.9 41.35 Q51.25 41.15 51.05 44.5 L48.75 43.7 Q47.45 43.1 47.9 41.35" fill="none" stroke="#000000" stroke-linecap="round" stroke-linejoin="miter" stroke-miterlimit="1024" stroke-width="1.0"/>
    <path d="M61.2 33.15 Q62.4 33.15 62.7 34.8 L63.05 37.55 Q60.7 36.85 61.2 33.15" fill="none" stroke="#000000" stroke-linecap="round" stroke-linejoin="miter" stroke-miterlimit="1024" stroke-width="1.0"/>
    <path d="M50.45 17.95 Q51.4 18.8 52.15 20.05 L52.95 21.75 Q52.7 22.8 52.0 22.25 50.95 21.5 50.45 21.75 L50.45 17.95" fill="none" stroke="#000000" stroke-linecap="round" stroke-linejoin="miter" stroke-miterlimit="1024" stroke-width="1.0"/>
    <path d="M19.35 16.5 Q18.4 15.3 18.2 14.2 20.0 14.45 20.7 15.8 21.45 17.1 20.75 18.6 L19.35 16.5" fill="none" stroke="#000000" stroke-linecap="round" stroke-linejoin="miter" stroke-miterlimit="1024" stroke-width="1.0"/>
  </g>
</svg>
