<?xml version="1.0" encoding="UTF-8" standalone="no"?>
<svg xmlns:xlink="http://www.w3.org/1999/xlink" height="60.85px" width="100.85px" xmlns="http://www.w3.org/2000/svg">
  <g transform="matrix(1, 0, 0, 1, 0.55, 0.3)">
    <path d="M96.05 6.1 L96.05 5.45 95.3 5.45 96.5 3.95 Q96.9 3.15 95.3 2.75 L95.3 2.1 94.5 2.1 Q95.65 -0.35 99.15 0.1 100.55 1.85 99.5 4.0 98.4 6.1 96.05 6.1" fill="#c98a0d" fill-rule="evenodd" stroke="none"/>
    <path d="M96.05 5.45 Q94.85 6.45 93.85 6.85 96.1 11.5 96.1 17.05 96.1 22.5 93.95 27.15 90.25 35.1 80.1 43.25 69.8 51.5 58.15 55.65 45.0 60.35 27.6 60.0 10.95 59.65 0.75 55.05 -0.05 53.8 -0.05 53.1 L0.55 52.2 0.85 51.15 Q6.25 49.9 17.6 47.7 L33.35 44.3 Q50.8 39.65 63.2 29.15 65.75 27.05 69.15 22.75 L75.05 15.45 Q82.65 6.9 91.6 5.65 92.1 4.8 93.35 3.8 L95.3 2.1 95.3 2.75 Q96.9 3.15 96.5 3.95 L95.3 5.45 96.05 5.45 M92.4 11.7 Q92.8 12.45 93.0 11.5 93.15 10.8 92.8 10.0 92.4 9.25 92.2 10.15 92.05 10.9 92.4 11.7" fill="#f7e608" fill-rule="evenodd" stroke="none"/>
    <path d="M81.05 34.0 Q88.75 27.0 92.6 15.2" fill="none" stroke="#000000" stroke-linecap="round" stroke-linejoin="miter" stroke-miterlimit="1024" stroke-width="0.9"/>
    <path d="M94.5 2.1 Q95.65 -0.35 99.15 0.1 100.55 1.85 99.5 4.0 98.4 6.1 96.05 6.1" fill="none" stroke="#000000" stroke-linecap="round" stroke-linejoin="miter" stroke-miterlimit="1024" stroke-width="0.75"/>
    <path d="M95.3 5.45 L96.5 3.95 Q96.9 3.15 95.3 2.75" fill="none" stroke="#000000" stroke-linecap="round" stroke-linejoin="miter" stroke-miterlimit="1024" stroke-width="0.75"/>
    <path d="M96.05 6.1 L96.05 5.45" fill="none" stroke="#000000" stroke-linecap="round" stroke-linejoin="miter" stroke-miterlimit="1024" stroke-width="0.75"/>
    <path d="M95.3 2.1 L94.5 2.1" fill="none" stroke="#000000" stroke-linecap="round" stroke-linejoin="miter" stroke-miterlimit="1024" stroke-width="0.75"/>
    <path d="M95.3 2.75 L95.3 2.1" fill="none" stroke="#000000" stroke-linecap="round" stroke-linejoin="miter" stroke-miterlimit="1024" stroke-width="0.75"/>
    <path d="M96.05 5.45 L95.3 5.45" fill="none" stroke="#000000" stroke-linecap="round" stroke-linejoin="miter" stroke-miterlimit="1024" stroke-width="0.75"/>
    <path d="M0.75 55.05 Q10.95 59.65 27.6 60.0 45.0 60.35 58.15 55.65 69.8 51.5 80.1 43.25 90.25 35.1 93.95 27.15 96.1 22.5 96.1 17.05 96.1 11.5 93.85 6.85 94.85 6.45 96.05 5.45" fill="none" stroke="#000000" stroke-linecap="round" stroke-linejoin="miter" stroke-miterlimit="1024" stroke-width="1.1"/>
    <path d="M74.9 39.4 Q61.45 51.35 40.5 55.05 22.6 58.15 0.75 55.05 -0.05 53.8 -0.05 53.1 L0.55 52.2 0.85 51.15 Q6.25 49.9 17.6 47.7 L33.35 44.3 Q50.8 39.65 63.2 29.15 65.75 27.05 69.15 22.75 L75.05 15.45 Q82.65 6.9 91.6 5.65 92.1 4.8 93.35 3.8 L95.3 2.1" fill="none" stroke="#000000" stroke-linecap="round" stroke-linejoin="miter" stroke-miterlimit="1024" stroke-width="1.0"/>
    <path d="M92.2 10.15 Q92.4 9.25 92.8 10.0 93.15 10.8 93.0 11.5 92.8 12.45 92.4 11.7 92.05 10.9 92.2 10.15" fill="none" stroke="#000000" stroke-linecap="round" stroke-linejoin="miter" stroke-miterlimit="1024" stroke-width="0.75"/>
  </g>
</svg>
