<?xml version="1.0" encoding="UTF-8" standalone="no"?>
<svg xmlns:xlink="http://www.w3.org/1999/xlink" height="51.35px" width="100.05px" xmlns="http://www.w3.org/2000/svg">
  <g transform="matrix(1, 0, 0, 1, 0.0, 0.0)">
    <path d="M69.75 9.3 Q67.45 9.2 65.2 10.95 62.5 13.0 61.35 13.3 L59.65 11.85 Q58.7 10.8 57.15 11.3 59.05 13.4 59.55 16.65 L60.55 24.3 57.05 24.45 Q54.85 24.6 54.65 23.3 54.05 21.45 55.0 20.7 L56.35 19.3 53.55 19.15 Q52.45 18.55 53.0 16.3 L54.95 17.95 Q56.2 18.8 58.0 18.3 58.35 16.9 56.65 16.75 55.1 16.6 55.5 15.3 57.8 14.9 57.15 14.3 55.35 12.7 51.6 12.4 47.1 12.1 45.45 11.3 44.85 11.05 44.35 9.35 44.1 8.5 42.95 10.3 44.4 9.25 44.75 11.4 45.05 13.65 43.75 13.3 L41.2 10.7 Q39.8 9.1 41.25 7.3 39.45 9.2 37.65 8.9 35.95 8.6 34.55 6.3 L36.1 6.2 Q37.0 6.05 37.05 5.3 36.25 5.65 33.75 4.5 31.9 3.6 31.2 5.3 L33.1 5.55 Q33.95 5.95 33.7 7.3 31.3 7.65 29.4 6.0 L26.15 3.3 Q25.1 5.6 22.05 5.85 L18.0 5.4 Q18.65 5.7 18.45 6.75 L17.8 8.3 22.3 7.9 Q24.85 7.7 26.15 8.3 L17.1 10.95 Q11.35 12.45 8.6 14.3 9.05 13.1 7.95 11.8 6.9 10.55 6.9 12.3 7.65 12.45 7.75 13.8 L7.75 16.3 Q8.95 16.1 10.55 16.95 12.05 17.7 13.6 17.3 13.95 15.85 15.05 14.5 L16.95 12.3 Q17.15 15.7 20.05 15.2 22.8 14.7 23.65 12.3 24.55 16.3 20.85 17.3 17.2 18.25 16.1 15.3 16.05 17.5 13.5 19.2 11.0 20.85 11.1 23.3 L15.3 23.3 Q14.8 20.65 15.85 19.45 16.6 18.4 18.65 18.3 19.2 18.35 19.7 19.55 20.1 20.6 21.15 20.3 22.35 17.45 25.65 19.5 29.0 21.7 30.35 19.3 29.8 23.4 24.85 22.35 19.05 20.35 16.95 20.3 17.4 24.75 13.7 24.9 10.2 25.05 8.6 22.3 8.6 21.5 9.65 20.6 10.6 19.8 10.25 18.3 9.15 18.35 8.3 19.8 L6.9 22.6 Q5.25 25.95 2.7 23.3 5.25 22.25 6.25 21.3 8.15 19.4 6.05 17.3 5.85 18.3 5.2 17.9 4.1 17.2 3.55 17.3 0.05 24.85 3.25 33.75 6.15 41.9 10.8 43.25 10.15 42.9 10.3 41.7 10.4 40.5 11.1 40.3 10.9 42.0 12.05 42.65 L14.45 43.3 Q14.95 41.7 13.6 41.3 12.2 40.95 12.75 39.3 13.75 40.5 15.5 41.0 L18.45 41.65 Q21.85 42.5 22.0 47.3 L18.9 47.35 Q16.85 47.55 18.65 48.3 24.6 50.45 35.35 47.5 48.05 44.0 53.0 44.3 54.55 44.4 57.6 45.3 L62.2 46.3 Q79.65 47.8 89.65 36.7 99.35 25.8 98.25 7.3 94.55 2.3 86.35 1.7 78.85 1.15 72.25 4.3 72.5 6.4 71.7 7.65 L69.75 9.3 M96.75 4.15 Q102.45 10.2 98.25 23.3 96.0 30.15 93.25 34.65 90.25 39.55 85.65 43.3 85.45 43.5 84.35 43.3 83.3 43.05 83.15 43.3 83.0 43.45 83.15 44.35 L83.15 45.3 Q75.9 49.3 66.15 47.95 L57.4 46.6 47.1 46.3 Q43.85 46.6 35.3 49.25 27.9 51.6 23.65 51.3 15.3 50.75 8.2 44.5 1.0 38.15 0.2 30.3 -1.2 16.7 8.35 8.1 17.35 0.05 29.55 1.3 33.6 1.75 41.0 6.15 47.95 10.3 53.0 10.3 56.65 10.35 60.25 8.15 L66.4 4.3 Q72.35 1.6 81.45 0.3 91.8 -1.1 96.75 4.15 M70.6 5.3 Q68.0 5.55 67.25 7.3 68.0 8.4 69.3 7.85 70.65 7.25 70.6 5.3 M15.3 10.3 Q15.6 8.75 14.55 8.2 12.9 7.45 12.75 7.3 13.35 9.2 11.15 10.65 9.35 11.75 10.25 12.3 L12.2 10.7 Q13.5 9.85 15.3 10.3 M59.2 22.05 Q59.3 21.55 58.35 21.4 57.4 21.25 56.9 21.7 56.35 22.25 57.15 23.3 59.05 22.65 59.2 22.05 M16.95 46.3 L15.0 44.75 Q14.05 44.25 13.6 46.3 14.55 45.6 15.9 46.75 16.85 47.6 16.95 46.3 M20.3 46.3 Q20.4 44.7 19.55 43.7 L17.8 42.3 Q17.8 42.85 17.4 43.4 L16.95 44.3 Q17.65 44.3 18.4 45.6 19.05 46.7 20.3 46.3" fill="#000000" fill-rule="evenodd" stroke="none"/>
    <path d="M74.15 5.95 Q75.15 8.85 73.95 11.3 L76.0 11.35 Q77.1 11.45 77.3 12.3 75.5 11.7 75.5 13.75 L75.6 17.3 Q77.95 17.05 77.75 17.95 77.2 20.75 77.3 21.3 79.4 23.4 81.65 21.7 83.6 20.15 84.0 17.3 L86.0 19.4 Q87.05 20.8 86.5 23.3 88.3 24.1 90.0 22.75 91.65 21.35 89.85 20.3 89.75 21.05 89.2 21.6 L88.2 22.3 87.35 20.3 Q86.7 19.1 86.5 18.3 88.25 18.65 88.8 17.1 89.2 16.0 89.0 13.3 L92.35 13.3 92.85 10.8 92.35 8.3 Q89.65 7.4 88.25 10.45 86.9 13.4 84.0 12.3 82.55 17.65 81.9 19.05 80.15 22.55 78.1 19.3 80.8 17.4 80.9 14.6 80.95 12.05 78.95 9.3 L83.7 9.45 Q86.35 9.4 85.65 6.3 83.7 7.9 82.75 7.9 81.75 7.9 79.8 6.3 79.9 8.8 79.05 7.9 L77.3 6.3 Q77.5 8.8 77.15 9.65 76.65 11.0 74.75 10.3 L76.3 7.15 Q77.15 5.05 78.1 4.3 L74.5 4.95 Q73.95 5.25 74.15 5.95 M68.9 11.3 L70.45 11.45 Q71.35 11.6 71.4 12.3 70.8 13.75 69.15 12.85 67.6 12.0 67.25 13.3 67.5 14.25 68.8 14.95 70.25 15.75 70.6 16.3 67.65 15.95 68.05 20.3 68.95 21.3 71.05 20.5 74.2 19.35 74.75 19.3 75.05 15.75 72.95 14.35 72.15 13.8 72.05 13.25 72.0 12.35 73.1 10.3 L70.45 10.2 Q68.8 10.05 68.9 11.3 M72.25 4.3 Q78.85 1.15 86.35 1.7 94.55 2.3 98.25 7.3 99.35 25.8 89.65 36.7 79.65 47.8 62.2 46.3 L57.6 45.3 Q54.55 44.4 53.0 44.3 48.05 44.0 35.35 47.5 24.6 50.45 18.65 48.3 16.85 47.55 18.9 47.35 L22.0 47.3 Q21.85 42.5 18.45 41.65 L15.5 41.0 Q13.75 40.5 12.75 39.3 12.2 40.95 13.6 41.3 14.95 41.7 14.45 43.3 L12.05 42.65 Q10.9 42.0 11.1 40.3 10.4 40.5 10.3 41.7 10.15 42.9 10.8 43.25 6.15 41.9 3.25 33.75 0.05 24.85 3.55 17.3 4.1 17.2 5.2 17.9 5.85 18.3 6.05 17.3 8.15 19.4 6.25 21.3 5.25 22.25 2.7 23.3 5.25 25.95 6.9 22.6 L8.3 19.8 Q9.15 18.35 10.25 18.3 10.6 19.8 9.65 20.6 8.6 21.5 8.6 22.3 10.2 25.05 13.7 24.9 17.4 24.75 16.95 20.3 19.05 20.35 24.85 22.35 29.8 23.4 30.35 19.3 29.0 21.7 25.65 19.5 22.35 17.45 21.15 20.3 20.1 20.6 19.7 19.55 19.2 18.35 18.65 18.3 16.6 18.4 15.85 19.45 14.8 20.65 15.3 23.3 L11.1 23.3 Q11.0 20.85 13.5 19.2 16.05 17.5 16.1 15.3 17.2 18.25 20.85 17.3 24.55 16.3 23.65 12.3 22.8 14.7 20.05 15.2 17.15 15.7 16.95 12.3 L15.05 14.5 Q13.95 15.85 13.6 17.3 12.05 17.7 10.55 16.95 8.95 16.1 7.75 16.3 L7.75 13.8 Q7.65 12.45 6.9 12.3 6.9 10.55 7.95 11.8 9.05 13.1 8.6 14.3 11.35 12.45 17.1 10.95 L26.15 8.3 Q24.85 7.7 22.3 7.9 L17.8 8.3 18.45 6.75 Q18.65 5.7 18.0 5.4 L22.05 5.85 Q25.1 5.6 26.15 3.3 L29.4 6.0 Q31.3 7.65 33.7 7.3 33.95 5.95 33.1 5.55 L31.2 5.3 Q31.9 3.6 33.75 4.5 36.25 5.65 37.05 5.3 37.0 6.05 36.1 6.2 L34.55 6.3 Q35.95 8.6 37.65 8.9 39.45 9.2 41.25 7.3 39.8 9.1 41.2 10.7 L43.75 13.3 Q45.05 13.65 44.75 11.4 44.4 9.25 42.95 10.3 44.1 8.5 44.35 9.35 44.85 11.05 45.45 11.3 47.1 12.1 51.6 12.4 55.35 12.7 57.15 14.3 57.8 14.9 55.5 15.3 55.1 16.6 56.65 16.75 58.35 16.9 58.0 18.3 56.2 18.8 54.95 17.95 L53.0 16.3 Q52.45 18.55 53.55 19.15 L56.35 19.3 55.0 20.7 Q54.05 21.45 54.65 23.3 54.85 24.6 57.05 24.45 L60.55 24.3 59.55 16.65 Q59.05 13.4 57.15 11.3 58.7 10.8 59.65 11.85 L61.35 13.3 Q62.5 13.0 65.2 10.95 67.45 9.2 69.75 9.3 L71.7 7.65 Q72.5 6.4 72.25 4.3 M81.8 3.9 Q79.35 2.65 78.95 4.3 79.4 5.7 83.35 5.45 87.15 5.2 84.8 3.3 84.3 5.2 81.8 3.9 M89.15 7.4 Q91.7 8.05 92.35 6.3 90.7 6.9 89.7 5.55 88.55 4.1 87.35 4.3 86.6 6.7 89.15 7.4 M96.55 11.3 Q96.95 9.7 95.2 8.7 93.4 7.7 93.2 9.3 93.85 9.3 94.65 10.6 95.3 11.7 96.55 11.3 M33.15 9.55 Q33.15 9.2 33.7 8.3 L28.35 7.8 Q26.05 7.5 25.35 10.3 L29.55 11.1 Q31.75 11.7 33.7 10.3 33.0 10.15 33.15 9.55 M27.7 14.2 L25.35 12.3 Q24.6 14.45 25.65 15.55 26.65 16.5 28.35 16.4 30.05 16.3 30.8 15.4 31.6 14.45 30.35 13.3 29.6 15.2 27.7 14.2 M35.95 11.65 L39.6 12.3 Q39.6 10.45 37.3 9.95 34.85 9.45 34.55 8.3 34.15 10.95 35.95 11.65 M45.45 12.3 Q44.7 14.9 47.6 15.45 50.5 16.0 51.3 14.3 49.65 14.7 48.2 13.5 46.6 12.25 45.45 12.3 M63.4 13.15 Q60.65 14.1 61.35 17.3 L63.4 17.35 Q64.55 17.45 64.7 18.3 63.35 18.2 62.55 19.2 L61.35 21.3 Q61.6 21.95 63.15 22.15 64.65 22.35 64.7 23.3 63.7 23.15 63.15 23.95 L62.2 25.3 Q59.4 26.3 54.2 25.9 50.7 25.65 48.8 28.3 50.85 27.0 53.8 29.2 57.0 31.6 60.55 30.3 L61.65 28.2 Q62.35 26.9 63.05 26.3 63.8 29.7 66.75 27.65 69.45 25.7 69.75 23.3 69.5 22.5 67.5 22.45 65.7 22.4 65.55 21.3 67.5 20.35 66.6 17.85 65.5 14.95 67.25 13.3 L63.4 13.15 M32.05 12.3 Q31.5 15.15 33.15 16.0 L37.05 16.3 Q36.85 14.6 34.95 13.85 32.5 12.9 32.05 12.3 M43.25 17.15 Q44.0 16.35 42.95 15.3 42.05 17.25 40.6 15.85 38.7 14.05 37.9 14.3 37.15 18.05 41.15 17.95 42.6 17.9 43.25 17.15 M49.2 19.25 Q52.2 19.7 52.15 17.3 50.95 18.5 48.15 17.3 45.45 16.2 44.6 17.3 45.2 17.35 45.55 18.25 45.85 19.2 46.3 19.3 L49.2 19.25 M20.5 27.2 Q21.9 27.05 22.45 26.05 23.05 24.9 22.0 23.3 21.75 26.25 20.0 25.0 17.4 23.15 16.95 23.3 16.85 25.3 18.1 26.35 19.1 27.3 20.5 27.2 M18.65 38.3 Q19.15 39.1 20.8 40.25 22.35 41.25 22.8 42.3 23.05 39.25 21.25 38.15 19.95 37.3 16.95 37.3 L17.05 39.2 Q17.15 40.2 17.8 40.3 L17.95 39.05 Q18.15 38.35 18.65 38.3 M5.75 29.2 Q5.25 27.25 3.55 27.3 3.15 29.15 4.55 31.2 5.65 32.8 4.4 34.3 7.5 34.0 8.75 35.75 10.4 38.05 11.1 38.3 11.65 35.75 13.55 36.7 15.05 37.5 16.1 39.3 L16.1 35.3 Q13.35 36.05 10.75 34.7 7.8 33.2 6.05 33.3 6.0 30.2 5.75 29.2 M5.25 26.3 Q6.95 27.5 11.25 28.05 15.5 28.6 17.8 30.3 16.6 27.65 12.15 26.35 7.8 25.1 5.25 26.3 M94.9 16.3 Q95.2 20.05 93.2 20.3 92.45 18.2 91.55 17.3 L91.55 21.3 95.7 21.3 95.7 17.1 Q95.6 14.35 94.9 16.3 M89.7 27.15 Q86.8 27.4 86.5 28.3 87.55 29.65 89.15 29.05 91.55 28.2 92.35 28.3 L92.3 25.85 Q92.25 24.5 91.55 24.3 92.1 26.9 89.7 27.15 M84.8 22.3 L83.25 22.45 Q82.4 22.6 82.3 23.3 84.05 24.95 82.2 25.8 80.35 26.7 78.95 25.3 79.0 27.3 80.05 27.9 80.95 28.4 82.25 27.65 85.5 25.8 84.8 22.3" fill="#a0511c" fill-rule="evenodd" stroke="none"/>
    <path d="M93.2 9.3 Q93.4 7.7 95.2 8.7 96.95 9.7 96.55 11.3 95.3 11.7 94.65 10.6 93.85 9.3 93.2 9.3" fill="#000000" fill-rule="evenodd" stroke="none"/>
    <path d="M94.9 16.3 Q95.6 14.35 95.7 17.1 L95.7 21.3 91.55 21.3 91.55 17.3 Q92.45 18.2 93.2 20.3 95.2 20.05 94.9 16.3" fill="#000000" fill-rule="evenodd" stroke="none"/>
    <path d="M73.95 11.3 Q75.15 8.85 74.15 5.95 73.95 5.25 74.5 4.95 L78.1 4.3 Q77.15 5.05 76.3 7.15 L74.75 10.3 Q76.65 11.0 77.15 9.65 77.5 8.8 77.3 6.3 L79.05 7.9 Q79.9 8.8 79.8 6.3 81.75 7.9 82.75 7.9 83.7 7.9 85.65 6.3 86.35 9.4 83.7 9.45 L78.95 9.3 Q80.95 12.05 80.9 14.6 80.8 17.4 78.1 19.3 80.15 22.55 81.9 19.05 82.55 17.65 84.0 12.3 86.9 13.4 88.25 10.45 89.65 7.4 92.35 8.3 L92.85 10.8 92.35 13.3 89.0 13.3 Q89.2 16.0 88.8 17.1 88.25 18.65 86.5 18.3 86.7 19.1 87.35 20.3 L88.2 22.3 89.2 21.6 Q89.75 21.05 89.85 20.3 91.65 21.35 90.0 22.75 88.3 24.1 86.5 23.3 87.05 20.8 86.0 19.4 L84.0 17.3 Q83.6 20.15 81.65 21.7 79.4 23.4 77.3 21.3 77.2 20.75 77.75 17.95 77.95 17.05 75.6 17.3 L75.5 13.75 Q75.5 11.7 77.3 12.3 77.1 11.45 76.0 11.35 L73.95 11.3 M77.25 13.25 Q75.9 13.45 76.45 15.3 79.5 15.8 79.8 13.3 L77.25 13.25 M91.55 10.3 Q91.0 9.15 90.3 9.35 89.7 9.55 89.4 10.45 89.15 11.35 89.55 11.95 90.15 12.65 91.55 12.3 L91.55 10.3 M84.8 13.3 L84.8 16.3 Q85.85 16.4 87.0 16.95 87.7 17.1 88.2 15.3 87.45 15.3 86.7 14.05 86.1 12.9 84.8 13.3" fill="#000000" fill-rule="evenodd" stroke="none"/>
    <path d="M92.35 28.3 Q91.55 28.2 89.15 29.05 87.55 29.65 86.5 28.3 86.8 27.4 89.7 27.15 92.1 26.9 91.55 24.3 92.25 24.5 92.3 25.85 L92.35 28.3" fill="#000000" fill-rule="evenodd" stroke="none"/>
    <path d="M87.35 4.3 Q88.55 4.1 89.7 5.55 90.7 6.9 92.35 6.3 91.7 8.05 89.15 7.4 86.6 6.7 87.35 4.3" fill="#000000" fill-rule="evenodd" stroke="none"/>
    <path d="M91.55 10.3 L91.55 12.3 Q90.15 12.65 89.55 11.95 89.15 11.35 89.4 10.45 89.7 9.55 90.3 9.35 91.0 9.15 91.55 10.3" fill="#a0511c" fill-rule="evenodd" stroke="none"/>
    <path d="M86.7 14.05 Q87.45 15.3 88.2 15.3 87.7 17.1 87.0 16.95 85.85 16.4 84.8 16.3 L84.8 13.3 Q86.1 12.9 86.7 14.05" fill="#a0511c" fill-rule="evenodd" stroke="none"/>
    <path d="M84.8 3.3 Q87.15 5.2 83.35 5.45 79.4 5.7 78.95 4.3 79.35 2.65 81.8 3.9 84.3 5.2 84.8 3.3" fill="#000000" fill-rule="evenodd" stroke="none"/>
    <path d="M84.8 22.3 Q85.5 25.8 82.25 27.65 80.95 28.4 80.05 27.9 79.0 27.3 78.95 25.3 80.35 26.7 82.2 25.8 84.05 24.95 82.3 23.3 82.4 22.6 83.25 22.45 L84.8 22.3" fill="#000000" fill-rule="evenodd" stroke="none"/>
    <path d="M79.8 13.3 Q79.5 15.8 76.45 15.3 75.9 13.45 77.25 13.25 L79.8 13.3" fill="#a0511c" fill-rule="evenodd" stroke="none"/>
    <path d="M73.1 10.3 Q72.0 12.35 72.05 13.25 72.15 13.8 72.95 14.35 75.05 15.75 74.75 19.3 74.2 19.35 71.05 20.5 68.95 21.3 68.05 20.3 67.65 15.95 70.6 16.3 70.25 15.75 68.8 14.95 67.5 14.25 67.25 13.3 67.6 12.0 69.15 12.85 70.8 13.75 71.4 12.3 71.35 11.6 70.45 11.45 L68.9 11.3 Q68.8 10.05 70.45 10.2 L73.1 10.3 M70.6 19.3 Q70.4 18.25 72.15 18.25 73.75 18.2 73.1 16.3 71.8 16.1 70.35 17.3 68.9 18.55 70.6 19.3" fill="#000000" fill-rule="evenodd" stroke="none"/>
    <path d="M73.1 16.3 Q73.75 18.2 72.15 18.25 70.4 18.25 70.6 19.3 68.9 18.55 70.35 17.3 71.8 16.1 73.1 16.3" fill="#a0511c" fill-rule="evenodd" stroke="none"/>
    <path d="M69.3 7.85 Q68.0 8.4 67.25 7.3 68.0 5.55 70.6 5.3 70.65 7.25 69.3 7.85" fill="#a0511c" fill-rule="evenodd" stroke="none"/>
    <path d="M65.3 24.05 L68.05 23.3 Q68.15 25.2 66.8 25.85 L63.9 26.3 Q63.65 24.5 65.3 24.05" fill="#a0511c" fill-rule="evenodd" stroke="none"/>
    <path d="M67.25 13.3 Q65.5 14.95 66.6 17.85 67.5 20.35 65.55 21.3 65.7 22.4 67.5 22.45 69.5 22.5 69.75 23.3 69.45 25.7 66.75 27.65 63.8 29.7 63.05 26.3 62.35 26.9 61.65 28.2 L60.55 30.3 Q57.0 31.6 53.8 29.2 50.85 27.0 48.8 28.3 50.7 25.65 54.2 25.9 59.4 26.3 62.2 25.3 L63.15 23.95 Q63.7 23.15 64.7 23.3 64.65 22.35 63.15 22.15 61.6 21.95 61.35 21.3 L62.55 19.2 Q63.35 18.2 64.7 18.3 64.55 17.45 63.4 17.35 L61.35 17.3 Q60.65 14.1 63.4 13.15 L67.25 13.3 M66.8 25.85 Q68.15 25.2 68.05 23.3 L65.3 24.05 Q63.65 24.5 63.9 26.3 L66.8 25.85 M60.55 26.3 Q56.65 25.65 55.5 29.3 L59.7 29.3 Q59.65 27.85 60.55 26.3 M62.2 16.3 Q65.25 16.8 65.55 14.3 62.95 14.55 62.2 16.3" fill="#000000" fill-rule="evenodd" stroke="none"/>
    <path d="M65.55 14.3 Q65.25 16.8 62.2 16.3 62.95 14.55 65.55 14.3" fill="#a0511c" fill-rule="evenodd" stroke="none"/>
    <path d="M55.5 29.3 Q56.65 25.65 60.55 26.3 59.65 27.85 59.7 29.3 L55.5 29.3" fill="#a0511c" fill-rule="evenodd" stroke="none"/>
    <path d="M57.15 23.3 Q56.35 22.25 56.9 21.7 57.4 21.25 58.35 21.4 59.3 21.55 59.2 22.05 59.05 22.65 57.15 23.3" fill="#a0511c" fill-rule="evenodd" stroke="none"/>
    <path d="M52.15 17.3 Q52.2 19.7 49.2 19.25 L46.3 19.3 Q45.85 19.2 45.55 18.25 45.2 17.35 44.6 17.3 45.45 16.2 48.15 17.3 50.95 18.5 52.15 17.3" fill="#000000" fill-rule="evenodd" stroke="none"/>
    <path d="M51.3 14.3 Q50.5 16.0 47.6 15.45 44.7 14.9 45.45 12.3 46.6 12.25 48.2 13.5 49.65 14.7 51.3 14.3" fill="#000000" fill-rule="evenodd" stroke="none"/>
    <path d="M42.95 15.3 Q44.0 16.35 43.25 17.15 42.6 17.9 41.15 17.95 37.15 18.05 37.9 14.3 38.7 14.05 40.6 15.85 42.05 17.25 42.95 15.3" fill="#000000" fill-rule="evenodd" stroke="none"/>
    <path d="M34.55 8.3 Q34.85 9.45 37.3 9.95 39.6 10.45 39.6 12.3 L35.95 11.65 Q34.15 10.95 34.55 8.3" fill="#000000" fill-rule="evenodd" stroke="none"/>
    <path d="M34.95 13.85 Q36.85 14.6 37.05 16.3 L33.15 16.0 Q31.5 15.15 32.05 12.3 32.5 12.9 34.95 13.85" fill="#000000" fill-rule="evenodd" stroke="none"/>
    <path d="M33.7 8.3 Q33.15 9.2 33.15 9.55 33.0 10.15 33.7 10.3 31.75 11.7 29.55 11.1 L25.35 10.3 Q26.05 7.5 28.35 7.8 L33.7 8.3" fill="#000000" fill-rule="evenodd" stroke="none"/>
    <path d="M30.35 13.3 Q31.6 14.45 30.8 15.4 30.05 16.3 28.35 16.4 26.65 16.5 25.65 15.55 24.6 14.45 25.35 12.3 L27.7 14.2 Q29.6 15.2 30.35 13.3" fill="#000000" fill-rule="evenodd" stroke="none"/>
    <path d="M16.95 37.3 Q19.95 37.3 21.25 38.15 23.05 39.25 22.8 42.3 22.35 41.25 20.8 40.25 19.15 39.1 18.65 38.3 18.15 38.35 17.95 39.05 L17.8 40.3 Q17.15 40.2 17.05 39.2 L16.95 37.3" fill="#000000" fill-rule="evenodd" stroke="none"/>
    <path d="M22.0 23.3 Q23.05 24.9 22.45 26.05 21.9 27.05 20.5 27.2 19.1 27.3 18.1 26.35 16.85 25.3 16.95 23.3 17.4 23.15 20.0 25.0 21.75 26.25 22.0 23.3" fill="#000000" fill-rule="evenodd" stroke="none"/>
    <path d="M17.8 42.3 L19.55 43.7 Q20.4 44.7 20.3 46.3 19.05 46.7 18.4 45.6 17.65 44.3 16.95 44.3 L17.4 43.4 Q17.8 42.85 17.8 42.3" fill="#a0511c" fill-rule="evenodd" stroke="none"/>
    <path d="M16.95 46.3 Q16.85 47.6 15.9 46.75 14.55 45.6 13.6 46.3 14.05 44.25 15.0 44.75 L16.95 46.3" fill="#a0511c" fill-rule="evenodd" stroke="none"/>
    <path d="M6.05 33.3 Q7.8 33.2 10.75 34.7 13.35 36.05 16.1 35.3 L16.1 39.3 Q15.05 37.5 13.55 36.7 11.65 35.75 11.1 38.3 10.4 38.05 8.75 35.75 7.5 34.0 4.4 34.3 5.65 32.8 4.55 31.2 3.15 29.15 3.55 27.3 5.25 27.25 5.75 29.2 6.0 30.2 6.05 33.3" fill="#000000" fill-rule="evenodd" stroke="none"/>
    <path d="M12.75 7.3 Q12.9 7.45 14.55 8.2 15.6 8.75 15.3 10.3 13.5 9.85 12.2 10.7 L10.25 12.3 Q9.35 11.75 11.15 10.65 13.35 9.2 12.75 7.3" fill="#a0511c" fill-rule="evenodd" stroke="none"/>
    <path d="M17.8 30.3 Q15.5 28.6 11.25 28.05 6.95 27.5 5.25 26.3 7.8 25.1 12.15 26.35 16.6 27.65 17.8 30.3" fill="#000000" fill-rule="evenodd" stroke="none"/>
  </g>
</svg>
