<?xml version="1.0" encoding="UTF-8" standalone="no"?>
<svg xmlns:xlink="http://www.w3.org/1999/xlink" height="60.0px" width="75.0px" xmlns="http://www.w3.org/2000/svg">
  <g transform="matrix(1, 0, 0, 1, -12.0, 0.0)">
    <path d="M54.4 1.95 L53.4 3.75 Q52.6 4.85 52.2 4.05 L52.75 3.0 53.3 1.95 Q51.5 1.3 51.15 3.0 L50.75 4.2 Q50.4 4.75 49.5 4.55 49.45 3.85 49.9 3.15 L50.6 1.95 48.85 1.25 46.8 0.85 Q46.3 1.15 45.9 3.15 45.55 4.8 44.05 4.55 L44.9 2.65 Q45.45 1.3 44.6 0.85 L43.9 3.4 Q43.5 4.9 43.0 5.6 L43.05 4.0 Q43.1 2.95 42.45 3.0 42.2 4.8 41.3 4.5 40.25 3.9 39.7 4.05 39.3 4.15 37.0 6.15 35.05 7.8 33.2 7.75 32.75 9.3 32.55 12.15 L32.1 16.7 Q33.7 18.5 32.55 21.4 L31.75 23.6 Q31.3 24.85 31.55 25.7 32.6 24.7 33.15 26.65 33.8 29.0 34.8 28.85 L34.75 25.9 Q34.65 24.0 35.35 23.55 34.9 27.1 36.2 30.3 37.45 33.35 39.15 33.6 37.7 33.15 38.35 31.15 39.0 29.2 40.25 28.85 39.65 30.2 39.8 31.15 39.9 32.1 40.8 32.0 40.9 32.8 40.25 33.6 39.65 34.4 39.7 35.2 40.85 36.35 41.8 35.6 L44.6 35.7 Q44.7 36.35 43.25 36.25 41.95 36.2 42.45 37.3 L48.55 36.45 54.95 35.2 Q54.8 33.25 57.5 32.7 L59.6 32.2 Q60.65 31.8 60.9 30.95 L59.3 29.8 Q58.5 29.05 59.3 28.3 L60.35 29.1 Q61.0 29.65 62.0 29.4 62.2 28.3 61.0 27.7 59.75 27.1 59.8 26.2 L61.9 26.15 63.65 25.7 Q63.45 24.55 64.25 23.65 65.15 22.55 65.25 22.0 L61.7 21.85 Q60.2 21.7 59.3 20.4 L61.65 20.35 63.65 19.9 Q63.2 18.65 63.25 17.05 L63.1 14.6 61.35 14.7 Q60.3 14.75 60.35 14.05 61.9 14.4 62.65 13.65 63.05 13.3 63.65 11.95 L61.85 11.7 Q62.6 10.6 62.55 9.85 60.25 10.2 60.5 8.8 L60.85 7.3 60.9 5.6 Q60.35 5.45 59.15 6.4 58.2 7.15 57.65 6.15 58.5 6.35 58.8 5.7 L59.3 4.55 56.75 3.35 54.4 1.95 M63.65 8.8 Q64.75 10.85 64.45 14.4 64.2 17.95 65.25 19.9 L64.55 20.0 Q64.15 20.1 64.15 20.4 66.15 20.2 66.35 21.45 65.85 24.1 65.4 24.95 64.85 25.85 63.1 26.75 62.85 27.55 63.3 28.15 63.75 28.8 63.65 29.4 62.9 29.7 62.3 30.6 L61.3 32.15 Q59.95 33.9 57.1 33.05 56.05 36.1 52.15 37.05 L45.7 37.8 Q46.9 38.35 51.05 38.4 54.8 38.45 56.0 39.4 L60.1 37.5 Q62.45 36.4 63.7 35.45 67.25 32.9 67.45 28.3 L66.85 26.1 Q66.5 24.75 67.45 23.55 69.25 23.4 69.7 25.35 70.3 28.0 70.7 28.3 L71.3 23.9 Q71.65 21.25 73.4 20.95 72.7 18.8 72.45 15.75 72.25 13.35 71.25 11.45 L72.3 11.65 Q72.75 11.85 72.85 11.45 65.6 2.1 58.2 3.0 60.7 2.85 61.55 5.3 61.85 6.25 62.0 9.3 62.05 8.9 62.55 8.8 L63.65 8.8 M75.35 30.5 Q77.2 29.9 78.3 29.9 77.3 28.35 76.7 24.55 76.2 21.3 74.5 19.9 L72.15 25.45 Q70.9 28.95 72.35 30.95 L75.35 30.5 M69.0 27.85 L69.0 26.0 Q68.85 25.15 68.0 25.15 68.95 26.6 68.35 29.8 67.75 33.1 68.0 33.6 68.0 32.5 69.15 31.6 70.5 30.6 70.7 29.9 68.85 30.4 69.0 27.85 M66.5 36.9 Q67.5 37.2 67.45 37.8 L64.6 37.95 Q63.35 38.3 63.1 39.4 65.2 39.0 64.7 41.0 63.9 41.2 63.45 40.6 63.0 39.95 62.55 39.95 62.7 41.55 64.55 42.5 L67.45 44.15 Q65.3 44.4 63.75 43.5 L61.45 41.5 56.95 42.7 Q55.25 43.0 52.75 42.05 52.1 42.0 51.8 42.95 51.5 43.9 50.6 43.65 L51.15 42.3 Q51.35 41.35 51.65 41.0 50.6 40.7 49.95 41.4 49.2 42.2 48.4 42.05 48.4 41.3 48.95 40.45 46.55 40.2 44.6 41.55 L41.35 43.65 Q41.65 42.5 42.7 41.5 L44.6 39.95 42.2 38.7 40.4 37.45 Q38.45 36.3 35.9 37.8 35.95 36.85 37.25 36.5 38.9 36.05 39.15 35.7 L35.3 33.35 Q33.0 32.0 30.5 32.0 30.0 31.45 30.0 30.95 30.0 30.5 30.5 29.9 L28.35 29.05 25.6 28.85 Q25.9 28.0 25.05 27.8 24.15 27.6 24.5 26.75 L20.7 26.75 Q20.4 28.1 22.85 29.85 L23.9 31.0 Q24.05 31.7 22.85 32.55 24.95 32.85 28.0 34.85 30.55 36.55 33.2 36.25 33.25 37.15 34.2 38.7 35.05 40.05 34.8 41.5 L37.35 42.5 Q38.7 43.2 38.65 44.7 L37.45 47.0 Q36.6 48.35 36.45 49.45 37.55 49.35 39.15 47.85 40.55 46.55 42.45 46.8 41.9 48.9 43.5 50.5 44.9 51.95 44.05 53.65 L45.4 54.2 46.8 54.7 48.15 51.35 Q49.05 49.3 50.6 48.9 49.65 48.8 50.05 47.7 50.4 46.65 51.15 46.8 52.2 47.7 53.25 46.6 54.55 45.15 55.5 45.2 55.8 45.85 55.1 46.85 54.65 47.65 55.5 47.85 55.4 47.2 56.5 47.25 L58.2 47.3 Q57.75 48.7 58.5 49.65 59.4 50.65 59.3 51.55 61.2 51.95 62.4 51.15 L64.15 49.45 Q64.95 49.35 65.65 50.1 66.2 50.65 66.9 49.95 66.95 47.4 68.7 45.4 70.55 43.3 72.35 45.2 73.15 44.45 72.55 43.7 71.75 42.7 71.8 42.05 71.95 40.45 74.15 40.65 76.45 40.95 76.65 39.95 75.35 39.95 75.05 39.1 74.75 38.4 75.25 37.5 75.75 36.55 76.55 36.25 77.5 35.95 78.3 36.75 78.1 35.35 76.75 34.85 L73.4 34.65 Q72.6 33.65 72.85 32.0 70.55 31.15 69.15 32.9 67.8 34.55 68.5 36.75 68.1 36.7 67.25 36.15 66.55 35.7 65.8 35.7 65.55 36.6 66.5 36.9 M83.75 24.1 Q84.35 25.75 84.05 27.4 L83.2 30.45 84.9 30.6 Q86.5 30.15 87.0 30.95 86.2 32.0 85.85 34.3 L85.4 38.5 Q84.7 43.65 81.0 44.15 81.25 45.45 80.9 46.4 L79.95 47.85 78.7 47.75 77.75 47.3 76.35 51.5 74.5 55.25 71.65 55.6 Q70.1 55.6 69.05 56.3 67.25 56.45 67.45 54.7 66.15 55.4 64.4 57.3 L61.45 60.0 Q60.45 59.8 59.8 58.15 59.15 56.5 58.2 56.3 57.7 56.5 58.4 57.9 59.15 59.35 58.2 60.0 56.6 59.85 54.15 58.25 51.85 56.75 48.95 56.8 L48.95 54.7 Q45.75 56.9 43.55 54.05 41.85 51.85 41.35 47.85 40.25 47.9 38.95 49.45 37.75 50.85 35.9 50.5 35.25 49.9 35.35 48.65 35.45 47.5 36.15 46.95 34.95 47.55 32.65 46.55 30.1 45.45 28.85 45.75 28.5 44.35 29.5 43.45 30.6 42.5 30.5 41.5 L26.25 40.1 Q23.95 39.1 23.4 37.3 22.15 38.5 18.5 37.3 18.85 36.1 18.15 35.25 17.4 34.3 17.45 33.6 18.3 33.75 18.5 33.05 17.7 29.95 16.4 28.25 14.75 26.15 12.0 25.7 11.85 24.3 13.3 23.8 L15.8 23.05 13.5 20.55 Q12.15 19.05 12.0 17.25 14.35 17.2 17.3 15.8 20.5 14.3 22.3 14.05 L21.9 12.2 Q21.9 11.5 22.3 10.35 23.4 10.65 24.25 9.85 25.05 9.1 26.15 9.3 25.9 8.05 26.35 6.4 26.8 4.65 26.65 3.5 28.0 4.1 29.65 3.15 31.7 2.0 32.1 1.95 32.4 1.9 33.1 2.45 33.75 3.0 34.3 3.0 34.9 2.95 35.3 2.5 L35.9 1.95 37.3 2.2 38.65 2.45 39.7 2.05 41.9 1.4 47.0 0.1 Q50.0 -0.35 52.2 1.4 60.25 0.7 66.65 3.95 72.9 7.1 74.5 12.5 75.8 16.95 77.45 19.4 79.75 22.8 83.75 24.1 M83.2 26.2 Q81.65 23.7 77.2 23.05 77.6 24.95 78.4 26.75 L79.95 30.45 76.65 31.25 Q74.65 31.65 74.5 33.05 L78.25 34.2 Q80.25 35.0 79.95 37.3 L77.9 37.7 Q76.5 37.8 76.15 38.35 L77.4 39.5 Q78.05 40.25 77.75 41.5 77.15 42.1 75.6 42.1 74.0 42.1 73.4 41.5 73.3 42.3 73.65 44.15 73.85 45.2 72.85 45.75 L69.6 45.75 Q68.65 48.9 66.9 51.0 65.0 51.05 62.7 51.95 60.1 53.0 58.75 53.15 57.45 51.65 56.0 48.4 54.95 48.7 54.6 50.45 L53.85 53.15 Q53.15 52.75 53.35 50.45 53.45 48.2 52.75 47.85 52.15 48.45 51.4 50.0 50.55 51.2 48.95 51.0 48.55 52.45 49.3 53.6 50.15 54.85 50.05 55.75 52.5 55.45 54.3 56.65 56.2 57.95 56.95 57.9 56.35 57.75 56.45 56.45 56.5 55.1 57.1 55.25 59.1 54.8 60.15 56.5 61.25 58.4 62.55 58.4 62.05 56.25 64.2 55.3 L65.75 54.4 Q66.45 53.75 66.35 52.6 67.45 52.5 68.05 53.85 68.7 55.2 69.6 55.25 70.35 54.5 69.35 53.95 68.0 53.3 68.0 52.6 L69.3 51.0 Q70.2 50.15 71.8 50.5 72.1 50.8 72.2 52.75 72.25 54.25 73.4 54.2 74.45 53.65 73.7 52.75 72.7 51.55 72.85 51.0 73.5 50.4 74.25 50.7 L76.15 51.0 Q75.65 49.95 75.85 48.6 76.0 47.3 76.65 46.25 L79.95 46.25 79.5 44.85 Q79.15 44.0 79.4 43.1 81.2 43.4 81.4 42.2 81.6 41.0 83.75 41.5 84.3 39.55 84.5 36.1 L84.75 31.75 Q84.45 32.25 83.2 32.15 81.9 32.05 82.1 31.5 81.75 29.95 82.4 28.6 83.2 27.05 83.2 26.2 M35.9 5.1 Q36.95 5.55 37.8 4.7 38.65 3.9 37.55 3.5 37.5 4.0 36.6 4.2 35.8 4.45 35.9 5.1 M33.2 3.8 Q32.4 3.05 32.1 3.0 31.65 4.85 30.5 4.75 L27.75 4.05 Q26.85 7.25 27.75 10.35 27.3 10.95 25.3 10.9 23.3 10.9 22.85 11.45 22.8 12.05 23.65 12.8 24.35 13.45 23.95 14.6 22.3 14.4 21.25 15.1 20.8 16.15 21.8 16.15 22.95 16.2 22.85 16.7 L21.25 18.3 Q20.2 19.25 20.15 20.4 22.8 21.45 26.95 24.45 31.6 27.8 32.65 28.3 L30.85 26.8 Q30.05 26.15 29.95 25.15 29.8 24.55 31.15 22.35 32.2 20.55 31.0 19.35 30.2 20.2 29.15 20.15 L26.65 19.9 Q25.65 17.65 26.85 15.65 28.0 13.6 30.5 13.55 L30.5 9.3 33.1 7.15 Q34.55 5.75 34.8 4.05 33.8 4.35 33.2 3.8 M31.0 14.6 L29.8 15.6 Q29.0 15.85 28.3 15.1 28.45 16.3 27.7 17.65 27.2 18.5 28.3 19.35 29.1 19.45 29.95 18.8 30.8 18.25 31.55 18.3 31.15 17.6 31.2 15.5 31.2 14.05 31.0 14.6 M18.5 16.7 Q19.05 16.75 19.05 17.45 19.05 18.2 18.5 18.3 L16.2 17.9 13.65 17.75 Q13.95 19.35 15.35 20.6 L18.0 22.5 Q17.7 23.45 15.95 24.0 14.05 24.55 13.65 25.15 15.95 25.25 17.4 27.05 L19.6 30.45 Q20.0 29.7 19.55 28.6 19.05 27.4 19.6 26.2 L25.0 26.35 27.45 27.6 29.95 27.8 Q28.7 26.65 24.25 24.05 20.55 21.9 19.05 19.9 19.05 19.05 19.8 18.25 20.6 17.35 20.7 16.7 20.05 17.1 19.15 16.45 18.55 16.05 18.5 16.7 M20.15 36.75 L22.45 36.65 Q23.75 36.2 24.5 36.25 24.8 38.3 27.65 39.25 31.55 40.5 32.1 41.0 32.5 42.2 31.8 42.8 30.95 43.55 31.0 44.15 32.8 44.5 33.2 46.25 L35.75 45.6 Q37.05 45.05 37.0 43.65 37.05 42.9 35.35 43.1 33.7 43.35 33.75 42.55 34.0 41.0 33.2 39.6 L32.1 37.3 Q29.75 37.6 27.4 35.55 25.1 33.65 22.3 34.15 21.9 33.4 22.0 31.55 22.05 30.35 20.7 29.9 L19.75 33.4 Q19.35 34.65 20.15 36.75 M62.05 39.05 Q63.2 37.85 63.1 36.75 60.65 38.4 58.2 39.4 54.35 40.9 52.2 39.95 54.7 42.6 59.1 40.9 60.9 40.2 62.05 39.05 M69.9 52.15 L69.6 52.6 70.35 52.95 71.25 53.15 Q71.25 51.95 70.15 51.55 L69.9 52.15" fill="#000000" fill-rule="evenodd" stroke="none"/>
    <path d="M82.4 28.6 Q81.75 29.95 82.1 31.5 81.9 32.05 83.2 32.15 84.45 32.25 84.75 31.75 L84.5 36.1 Q84.3 39.55 83.75 41.5 81.6 41.0 81.4 42.2 81.2 43.4 79.4 43.1 79.15 44.0 79.5 44.85 L79.95 46.25 76.65 46.25 Q76.0 47.3 75.85 48.6 75.65 49.95 76.15 51.0 L74.25 50.7 Q73.5 50.4 72.85 51.0 72.7 51.55 73.7 52.75 74.45 53.65 73.4 54.2 72.25 54.25 72.2 52.75 72.1 50.8 71.8 50.5 70.2 50.15 69.3 51.0 L68.0 52.6 Q68.0 53.3 69.35 53.95 70.35 54.5 69.6 55.25 68.7 55.2 68.05 53.85 67.45 52.5 66.35 52.6 66.45 53.75 65.75 54.4 L64.2 55.3 Q62.05 56.25 62.55 58.4 61.25 58.4 60.15 56.5 59.1 54.8 57.1 55.25 56.5 55.1 56.45 56.45 56.35 57.75 56.95 57.9 56.2 57.95 54.3 56.65 52.5 55.45 50.05 55.75 50.15 54.85 49.3 53.6 48.55 52.45 48.95 51.0 50.55 51.2 51.4 50.0 52.15 48.45 52.75 47.85 53.45 48.2 53.35 50.45 53.15 52.75 53.85 53.15 L54.6 50.45 Q54.95 48.7 56.0 48.4 57.45 51.65 58.75 53.15 60.1 53.0 62.7 51.95 65.0 51.05 66.9 51.0 68.65 48.9 69.6 45.75 L72.85 45.75 Q73.85 45.2 73.65 44.15 73.3 42.3 73.4 41.5 74.0 42.1 75.6 42.1 77.15 42.1 77.75 41.5 78.05 40.25 77.4 39.5 L76.15 38.35 Q76.5 37.8 77.9 37.7 L79.95 37.3 Q80.25 35.0 78.25 34.2 L74.5 33.05 Q74.65 31.65 76.65 31.25 L79.95 30.45 78.4 26.75 Q77.6 24.95 77.2 23.05 81.65 23.7 83.2 26.2 83.2 27.05 82.4 28.6" fill="#6add26" fill-rule="evenodd" stroke="none"/>
    <path d="M73.4 34.65 L76.75 34.85 Q78.1 35.35 78.3 36.75 77.5 35.95 76.55 36.25 75.75 36.55 75.25 37.5 74.75 38.4 75.05 39.1 75.35 39.95 76.65 39.95 76.45 40.95 74.15 40.65 71.95 40.45 71.8 42.05 71.75 42.7 72.55 43.7 73.15 44.45 72.35 45.2 70.55 43.3 68.7 45.4 66.95 47.4 66.9 49.95 66.2 50.65 65.65 50.1 64.95 49.35 64.15 49.45 L62.4 51.15 Q61.2 51.95 59.3 51.55 59.4 50.65 58.5 49.65 57.75 48.7 58.2 47.3 L56.5 47.25 Q55.4 47.2 55.5 47.85 54.65 47.65 55.1 46.85 55.8 45.85 55.5 45.2 54.55 45.15 53.25 46.6 52.2 47.7 51.15 46.8 50.4 46.65 50.05 47.7 49.65 48.8 50.6 48.9 49.05 49.3 48.15 51.35 L46.8 54.7 45.4 54.2 44.05 53.65 Q44.9 51.95 43.5 50.5 41.9 48.9 42.45 46.8 40.55 46.55 39.15 47.85 37.55 49.35 36.45 49.45 36.6 48.35 37.45 47.0 L38.65 44.7 Q38.7 43.2 37.35 42.5 L34.8 41.5 Q35.05 40.05 34.2 38.7 33.25 37.15 33.2 36.25 30.55 36.55 28.0 34.85 24.95 32.85 22.85 32.55 24.05 31.7 23.9 31.0 L22.85 29.85 Q20.4 28.1 20.7 26.75 L24.5 26.75 Q24.15 27.6 25.05 27.8 25.9 28.0 25.6 28.85 L28.35 29.05 30.5 29.9 Q30.0 30.5 30.0 30.95 30.0 31.45 30.5 32.0 33.0 32.0 35.3 33.35 L39.15 35.7 Q38.9 36.05 37.25 36.5 35.95 36.85 35.9 37.8 38.45 36.3 40.4 37.45 L42.2 38.7 44.6 39.95 42.7 41.5 Q41.65 42.5 41.35 43.65 L44.6 41.55 Q46.55 40.2 48.95 40.45 48.4 41.3 48.4 42.05 49.2 42.2 49.95 41.4 50.6 40.7 51.65 41.0 51.35 41.35 51.15 42.3 L50.6 43.65 Q51.5 43.9 51.8 42.95 52.1 42.0 52.75 42.05 55.25 43.0 56.95 42.7 L61.45 41.5 63.75 43.5 Q65.3 44.4 67.45 44.15 L64.55 42.5 Q62.7 41.55 62.55 39.95 63.0 39.95 63.45 40.6 63.9 41.2 64.7 41.0 65.2 39.0 63.1 39.4 63.35 38.3 64.6 37.95 L67.45 37.8 Q67.5 37.2 66.5 36.9 65.55 36.6 65.8 35.7 66.55 35.7 67.25 36.15 68.1 36.7 68.5 36.75 67.8 34.55 69.15 32.9 70.55 31.15 72.85 32.0 72.6 33.65 73.4 34.65 M61.5 44.9 Q61.5 43.85 60.35 44.15 60.2 46.15 61.45 46.8 L61.5 44.9" fill="#6add26" fill-rule="evenodd" stroke="none"/>
    <path d="M74.5 19.9 Q76.2 21.3 76.7 24.55 77.3 28.35 78.3 29.9 L75.35 30.5 72.35 30.95 Q70.9 28.95 72.15 25.45 L74.5 19.9" fill="#6add26" fill-rule="evenodd" stroke="none"/>
    <path d="M72.85 11.45 Q72.75 11.85 72.3 11.65 L71.25 11.45 Q72.25 13.35 72.45 15.75 72.7 18.8 73.4 20.95 71.65 21.25 71.3 23.9 L70.7 28.3 Q70.3 28.0 69.7 25.35 69.25 23.4 67.45 23.55 66.5 24.75 66.85 26.1 L67.45 28.3 Q67.25 32.9 63.7 35.45 62.45 36.4 60.1 37.5 L56.0 39.4 Q54.8 38.45 51.05 38.4 46.9 38.35 45.7 37.8 L52.15 37.05 Q56.05 36.1 57.1 33.05 59.95 33.9 61.3 32.15 L62.3 30.6 Q62.9 29.7 63.65 29.4 63.75 28.8 63.3 28.15 62.85 27.55 63.1 26.75 64.85 25.85 65.4 24.95 65.85 24.1 66.35 21.45 66.15 20.2 64.15 20.4 64.15 20.1 64.55 20.0 L65.25 19.9 Q64.2 17.95 64.45 14.4 64.75 10.85 63.65 8.8 L62.55 8.8 Q62.05 8.9 62.0 9.3 61.85 6.25 61.55 5.3 60.7 2.85 58.2 3.0 65.6 2.1 72.85 11.45 M71.45 12.85 Q71.1 12.45 70.15 11.95 70.0 13.35 70.3 13.95 70.6 14.8 71.8 14.6 71.95 13.5 71.45 12.85 M70.0 19.2 Q70.3 20.15 71.25 19.9 71.75 18.75 70.55 18.05 69.35 17.35 69.05 18.3 69.7 18.25 70.0 19.2 M69.05 20.4 L69.15 22.7 Q69.4 23.8 70.7 23.55 70.25 21.45 69.05 20.4" fill="#6add26" fill-rule="evenodd" stroke="none"/>
    <path d="M70.15 11.95 Q71.1 12.45 71.45 12.85 71.95 13.5 71.8 14.6 70.6 14.8 70.3 13.95 70.0 13.35 70.15 11.95" fill="#000000" fill-rule="evenodd" stroke="none"/>
    <path d="M69.05 18.3 Q69.35 17.35 70.55 18.05 71.75 18.75 71.25 19.9 70.3 20.15 70.0 19.2 69.7 18.25 69.05 18.3" fill="#000000" fill-rule="evenodd" stroke="none"/>
    <path d="M70.15 51.55 Q71.25 51.95 71.25 53.15 L70.35 52.95 69.6 52.6 69.9 52.15 70.15 51.55" fill="#ffffff" fill-rule="evenodd" stroke="none"/>
    <path d="M70.7 23.55 Q69.4 23.8 69.15 22.7 L69.05 20.4 Q70.25 21.45 70.7 23.55" fill="#000000" fill-rule="evenodd" stroke="none"/>
    <path d="M68.0 25.15 Q68.85 25.15 69.0 26.0 L69.0 27.85 Q68.85 30.4 70.7 29.9 70.5 30.6 69.15 31.6 68.0 32.5 68.0 33.6 67.75 33.1 68.35 29.8 68.95 26.6 68.0 25.15" fill="#6add26" fill-rule="evenodd" stroke="none"/>
    <path d="M59.3 4.55 L58.8 5.7 Q58.5 6.35 57.65 6.15 58.2 7.15 59.15 6.4 60.35 5.45 60.9 5.6 L60.85 7.3 60.5 8.8 Q60.25 10.2 62.55 9.85 62.6 10.6 61.85 11.7 L63.65 11.95 Q63.05 13.3 62.65 13.65 61.9 14.4 60.35 14.05 60.3 14.75 61.35 14.7 L63.1 14.6 63.25 17.05 Q63.2 18.65 63.65 19.9 L61.65 20.35 59.3 20.4 Q60.2 21.7 61.7 21.85 L65.25 22.0 Q65.15 22.55 64.25 23.65 63.45 24.55 63.65 25.7 L61.9 26.15 59.8 26.2 Q59.75 27.1 61.0 27.7 62.2 28.3 62.0 29.4 61.0 29.65 60.35 29.1 L59.3 28.3 Q58.5 29.05 59.3 29.8 L60.9 30.95 Q60.65 31.8 59.6 32.2 L57.5 32.7 Q54.8 33.25 54.95 35.2 L48.55 36.45 42.45 37.3 Q41.95 36.2 43.25 36.25 44.7 36.35 44.6 35.7 L41.8 35.6 Q40.85 36.35 39.7 35.2 39.65 34.4 40.25 33.6 40.9 32.8 40.8 32.0 39.9 32.1 39.8 31.15 39.65 30.2 40.25 28.85 39.0 29.2 38.35 31.15 37.7 33.15 39.15 33.6 37.45 33.35 36.2 30.3 34.9 27.1 35.35 23.55 34.65 24.0 34.75 25.9 L34.8 28.85 Q33.8 29.0 33.15 26.65 32.6 24.7 31.55 25.7 31.3 24.85 31.75 23.6 L32.55 21.4 Q33.7 18.5 32.1 16.7 L32.55 12.15 Q32.75 9.3 33.2 7.75 35.05 7.8 37.0 6.15 39.3 4.15 39.7 4.05 40.25 3.9 41.3 4.5 42.2 4.8 42.45 3.0 43.1 2.95 43.05 4.0 L43.0 5.6 Q43.5 4.9 43.9 3.4 L44.6 0.85 Q45.45 1.3 44.9 2.65 L44.05 4.55 Q45.55 4.8 45.9 3.15 46.3 1.15 46.8 0.85 L48.85 1.25 50.6 1.95 49.9 3.15 Q49.45 3.85 49.5 4.55 50.4 4.75 50.75 4.2 L51.15 3.0 Q51.5 1.3 53.3 1.95 L52.75 3.0 52.2 4.05 Q52.6 4.85 53.4 3.75 L54.4 1.95 56.75 3.35 59.3 4.55 M40.8 34.65 L43.35 34.75 Q44.85 34.8 44.6 33.6 L42.45 33.9 Q41.3 34.15 40.8 34.65" fill="#6add26" fill-rule="evenodd" stroke="none"/>
    <path d="M59.1 40.9 Q54.7 42.6 52.2 39.95 54.35 40.9 58.2 39.4 60.65 38.4 63.1 36.75 63.2 37.85 62.05 39.05 60.9 40.2 59.1 40.9" fill="#6add26" fill-rule="evenodd" stroke="none"/>
    <path d="M60.35 44.15 Q61.5 43.85 61.5 44.9 L61.45 46.8 Q60.2 46.15 60.35 44.15" fill="#000000" fill-rule="evenodd" stroke="none"/>
    <path d="M44.6 33.6 Q44.85 34.8 43.35 34.75 L40.8 34.65 Q41.3 34.15 42.45 33.9 L44.6 33.6" fill="#000000" fill-rule="evenodd" stroke="none"/>
    <path d="M37.55 3.5 Q38.65 3.9 37.8 4.7 36.95 5.55 35.9 5.1 35.8 4.45 36.6 4.2 37.5 4.0 37.55 3.5" fill="#6add26" fill-rule="evenodd" stroke="none"/>
    <path d="M32.1 37.3 L33.2 39.6 Q34.0 41.0 33.75 42.55 33.7 43.35 35.35 43.1 37.05 42.9 37.0 43.65 37.05 45.05 35.75 45.6 L33.2 46.25 Q32.8 44.5 31.0 44.15 30.95 43.55 31.8 42.8 32.5 42.2 32.1 41.0 31.55 40.5 27.65 39.25 24.8 38.3 24.5 36.25 23.75 36.2 22.45 36.65 L20.15 36.75 Q19.35 34.65 19.75 33.4 L20.7 29.9 Q22.05 30.35 22.0 31.55 21.9 33.4 22.3 34.15 25.1 33.65 27.4 35.55 29.75 37.6 32.1 37.3" fill="#6add26" fill-rule="evenodd" stroke="none"/>
    <path d="M33.1 7.15 L30.5 9.3 30.5 13.55 Q28.0 13.6 26.85 15.65 25.65 17.65 26.65 19.9 L29.15 20.15 Q30.2 20.2 31.0 19.35 32.2 20.55 31.15 22.35 29.8 24.55 29.95 25.15 30.05 26.15 30.85 26.8 L32.65 28.3 Q31.6 27.8 26.95 24.45 22.8 21.45 20.15 20.4 20.2 19.25 21.25 18.3 L22.85 16.7 Q22.95 16.2 21.8 16.15 20.8 16.15 21.25 15.1 22.3 14.4 23.95 14.6 24.35 13.45 23.65 12.8 22.8 12.05 22.85 11.45 23.3 10.9 25.3 10.9 27.3 10.95 27.75 10.35 26.85 7.25 27.75 4.05 L30.5 4.75 Q31.65 4.85 32.1 3.0 32.4 3.05 33.2 3.8 33.8 4.35 34.8 4.05 34.55 5.75 33.1 7.15" fill="#6add26" fill-rule="evenodd" stroke="none"/>
    <path d="M31.55 18.3 Q30.8 18.25 29.95 18.8 29.1 19.45 28.3 19.35 27.2 18.5 27.7 17.65 28.45 16.3 28.3 15.1 29.0 15.85 29.8 15.6 L31.0 14.6 Q31.2 14.05 31.2 15.5 31.15 17.6 31.55 18.3" fill="#6add26" fill-rule="evenodd" stroke="none"/>
    <path d="M18.5 16.7 Q18.55 16.05 19.15 16.45 20.05 17.1 20.7 16.7 20.6 17.35 19.8 18.25 19.05 19.05 19.05 19.9 20.55 21.9 24.25 24.05 28.7 26.65 29.95 27.8 L27.45 27.6 25.0 26.35 19.6 26.2 Q19.05 27.4 19.55 28.6 20.0 29.7 19.6 30.45 L17.4 27.05 Q15.95 25.25 13.65 25.15 14.05 24.55 15.95 24.0 17.7 23.45 18.0 22.5 L15.35 20.6 Q13.95 19.35 13.65 17.75 L16.2 17.9 18.5 18.3 Q19.05 18.2 19.05 17.45 19.05 16.75 18.5 16.7" fill="#6add26" fill-rule="evenodd" stroke="none"/>
  </g>
</svg>
