<?xml version="1.0" encoding="UTF-8" standalone="no"?>
<svg xmlns:xlink="http://www.w3.org/1999/xlink" height="60.0px" width="46.85px" xmlns="http://www.w3.org/2000/svg">
  <g transform="matrix(1, 0, 0, 1, -26.05, 0.0)">
    <path d="M63.8 2.15 L67.6 6.7 Q69.7 9.35 70.95 12.15 L72.2 14.45 Q72.9 15.8 72.9 17.45 L72.4 19.3 Q71.95 20.65 71.95 21.25 L72.2 25.05 Q72.4 27.45 71.95 29.35 71.65 30.6 70.45 32.65 L68.6 36.05 Q66.25 40.9 65.05 42.35 63.55 44.1 59.5 46.6 L54.8 49.2 Q52.15 50.3 49.5 49.9 L47.8 54.45 Q46.85 57.15 46.65 59.5 43.2 60.5 40.0 59.5 36.85 58.5 35.65 56.15 L36.7 52.4 Q37.2 49.5 37.55 48.5 36.85 47.5 33.15 44.45 30.05 41.9 28.95 39.4 L28.5 38.45 27.2 33.1 Q26.25 29.6 26.1 27.95 25.7 23.5 27.45 18.5 28.7 15.0 31.35 10.25 33.75 9.5 37.45 5.45 41.25 1.25 44.25 0.2 49.3 -0.1 51.4 0.05 55.45 0.3 57.6 2.15 L60.55 1.9 63.8 2.15 M61.55 4.65 L62.4 5.95 62.4 3.55 Q61.65 3.6 60.95 3.1 L61.55 4.65 M58.1 5.0 Q58.6 4.15 57.55 3.95 56.5 3.8 56.65 4.5 L57.05 4.6 57.15 5.0 58.1 5.0 M69.05 10.25 Q69.0 11.2 69.45 12.25 L70.0 14.1 Q70.0 16.75 70.4 15.4 70.85 14.1 70.5 12.65 70.3 11.7 69.3 10.4 66.55 6.7 69.05 10.25 M68.05 13.6 Q67.9 14.55 67.15 14.55 L67.55 12.15 Q67.55 10.9 66.2 10.75 64.2 13.6 63.9 16.4 63.6 19.15 64.75 23.15 67.8 21.85 68.85 18.5 69.9 15.05 68.1 11.7 L68.05 13.6 M62.85 5.95 Q62.65 7.15 63.05 7.85 63.45 8.5 64.3 8.8 L64.2 6.75 Q63.95 5.8 62.85 5.95 M58.1 7.85 L55.8 10.45 Q54.6 12.1 55.7 14.1 56.45 14.35 56.65 13.6 56.8 12.85 57.6 13.1 L60.45 13.85 Q61.95 14.25 62.85 15.5 64.2 13.85 63.55 11.1 62.9 8.3 60.95 7.85 60.1 7.85 60.0 9.3 59.85 10.75 59.05 10.75 L59.1 8.8 Q59.1 7.6 58.1 7.85 M56.8 6.55 Q56.6 5.75 56.2 5.5 L56.2 6.9 Q55.65 6.95 55.1 6.6 54.8 6.5 54.25 6.9 54.35 9.05 55.2 9.8 55.65 8.3 57.15 7.85 L56.8 6.55 M58.1 6.9 Q61.55 6.35 60.0 5.5 L58.95 5.75 Q58.0 5.8 58.1 6.9 M57.6 14.1 L54.8 15.8 51.9 17.45 Q52.6 19.15 53.05 22.75 53.5 27.2 53.8 28.4 L55.4 28.9 Q56.05 29.2 57.6 30.35 60.3 27.6 64.3 26.5 64.1 22.2 63.25 19.45 62.2 16.2 60.0 14.55 59.75 14.9 59.25 16.65 58.8 18.0 58.1 18.4 L58.15 15.95 Q58.25 14.4 57.6 14.1 M66.05 26.2 Q66.25 26.95 66.7 27.0 L66.75 26.1 Q66.8 25.6 67.15 25.55 67.8 25.8 68.0 27.35 68.15 29.0 68.6 29.35 68.8 28.1 69.55 26.15 L70.85 22.9 Q72.2 18.9 70.95 15.5 70.65 18.15 68.45 20.9 65.8 24.15 65.25 25.55 65.8 25.5 66.05 26.2 M61.5 28.5 Q59.2 30.0 58.1 30.35 57.8 31.35 57.05 37.2 56.45 41.4 55.2 43.25 61.1 41.6 64.3 38.1 68.15 33.95 67.15 27.95 66.2 28.0 65.65 29.15 L64.75 30.8 Q64.6 29.75 64.8 28.75 L65.25 27.0 Q63.55 27.2 61.5 28.5 M41.35 3.85 Q39.3 5.05 40.4 6.9 40.95 5.65 42.8 5.3 44.65 4.9 45.2 3.55 43.3 2.7 41.35 3.85 M46.15 3.55 Q46.2 3.2 46.65 3.1 L47.6 3.1 47.6 2.15 47.5 1.75 47.1 1.65 Q47.15 2.05 46.2 2.8 45.45 3.35 46.15 3.55 M49.0 3.55 L48.95 5.05 Q48.85 6.0 49.5 5.95 50.05 5.8 50.4 4.9 50.85 3.9 49.95 3.55 L49.6 3.9 Q49.4 3.9 49.0 3.55 M53.3 2.15 Q53.4 2.9 54.1 3.1 54.8 3.25 54.75 2.6 L53.95 1.85 Q53.2 1.4 53.3 2.15 M51.9 5.0 Q53.8 4.6 53.1 4.25 51.8 3.55 51.85 3.15 L51.85 4.1 51.9 5.0 M54.75 4.05 L54.05 5.0 Q53.4 5.5 53.3 5.95 54.05 5.95 54.75 5.15 55.55 4.35 54.75 4.05 M35.15 10.75 Q35.4 10.15 37.4 8.6 39.0 7.3 38.5 6.45 36.95 7.35 36.0 8.35 34.6 9.75 35.15 10.75 M34.85 15.9 L35.65 19.35 35.5 21.6 Q35.45 22.95 36.6 23.15 L40.1 20.1 Q42.85 17.45 44.25 16.45 44.2 16.05 44.7 11.8 45.0 8.9 44.25 7.4 43.55 6.55 42.2 8.25 40.9 9.85 40.4 9.3 40.4 8.9 41.0 8.5 41.55 8.1 41.4 7.4 39.5 7.85 37.7 9.45 L34.7 12.15 Q34.4 13.75 34.85 15.9 M32.75 13.65 Q32.25 14.9 31.85 14.1 31.7 13.35 32.5 12.05 33.2 10.95 32.8 10.75 29.15 12.8 28.85 20.35 28.5 27.65 31.35 31.3 31.4 29.8 33.1 27.75 34.95 25.55 35.15 24.1 35.5 22.0 34.5 18.05 33.35 13.35 33.25 11.7 L32.75 13.65 M26.6 26.5 Q27.4 27.25 27.55 29.35 L27.55 31.3 Q27.55 31.7 27.8 31.55 28.1 31.4 28.0 30.8 28.45 28.5 28.3 25.0 28.1 21.45 27.55 20.75 27.75 23.7 26.6 26.5 M34.7 26.5 Q32.2 29.6 31.6 34.25 30.9 39.55 33.75 42.3 34.25 42.05 34.15 40.35 34.1 38.65 34.7 38.45 36.15 37.65 37.45 38.75 39.25 40.25 39.95 40.35 41.3 36.4 39.85 32.15 L38.3 28.55 36.6 25.05 35.85 27.7 34.7 29.85 Q34.55 29.35 35.1 28.0 35.5 26.9 34.7 26.5 M50.45 8.35 Q49.95 8.2 50.25 7.1 L50.35 6.6 49.95 6.9 Q49.35 7.2 45.65 9.3 45.85 11.25 45.5 13.2 L44.7 16.45 Q45.7 16.5 46.85 15.8 48.05 15.05 49.0 15.05 L50.25 15.95 51.4 16.95 52.75 15.9 Q53.55 15.25 54.25 15.05 54.65 8.8 51.9 6.45 L51.2 7.45 50.45 8.35 M46.15 8.35 L47.7 6.65 Q48.6 5.45 47.6 4.5 L44.7 5.5 Q45.1 7.45 46.15 8.35 M37.55 24.6 Q38.3 26.6 40.0 30.25 41.45 33.65 41.85 36.55 43.4 33.9 46.3 31.9 48.65 30.3 52.35 28.9 52.7 25.45 52.05 22.3 51.65 20.25 50.45 16.95 49.4 16.5 48.65 17.9 L48.2 18.65 Q47.9 18.85 47.6 18.4 L47.55 17.2 Q47.5 16.55 47.1 16.45 L41.5 19.7 Q38.55 21.8 37.55 24.6 M53.3 28.9 Q46.7 32.65 45.3 33.8 41.3 37.05 40.4 41.8 41.35 42.4 42.35 44.45 43.35 46.45 44.25 47.05 46.65 42.95 55.2 42.3 55.2 41.2 55.7 39.25 L56.5 35.9 Q57.3 31.85 55.2 30.35 L54.35 32.2 Q53.75 33.4 53.3 32.7 L54.0 30.55 Q54.3 29.45 53.3 28.9 M39.0 46.1 Q37.5 45.6 36.55 43.35 35.35 40.5 34.7 39.9 34.05 44.35 36.85 46.35 38.45 47.45 43.3 48.5 40.85 42.25 36.6 39.4 36.3 41.5 37.4 43.15 38.85 45.35 39.0 46.1 M46.2 52.55 Q45.8 52.8 45.65 52.3 L46.25 51.25 Q46.65 50.6 46.65 49.9 45.4 49.1 42.35 48.85 L38.05 48.95 Q39.3 50.1 38.95 53.1 38.45 57.4 38.5 58.05 L39.65 57.7 Q40.0 57.5 39.95 58.5 L41.75 58.35 Q42.2 58.3 42.8 57.55 L42.95 58.65 Q43.1 59.15 43.75 59.0 44.45 59.05 43.95 58.4 43.35 57.6 44.25 57.55 44.6 57.6 44.75 58.25 44.85 58.95 45.2 59.0 46.35 57.85 46.75 55.3 47.1 53.05 46.65 51.85 L46.2 52.55 M54.7 46.4 Q54.6 47.8 55.2 48.0 60.35 45.6 63.55 42.65 67.65 38.9 68.1 34.65 L62.65 40.65 Q59.15 43.6 54.75 44.2 L54.7 46.4 M47.55 45.1 Q45.4 46.3 44.7 48.0 46.45 48.9 48.0 49.25 L52.35 49.45 54.0 46.9 Q54.85 45.0 53.3 44.2 L51.75 46.5 Q50.8 47.75 49.5 48.0 L51.45 45.5 Q52.7 43.7 51.4 43.25 L47.55 45.1 M28.95 28.9 Q28.65 33.25 29.3 36.6 30.0 40.55 31.85 40.85 30.7 39.05 30.45 34.65 30.25 30.45 28.95 28.9 M70.7 29.95 Q71.55 27.15 70.95 25.05 L69.15 29.0 Q67.95 31.3 68.1 33.65 69.8 32.8 70.7 29.95" fill="#000000" fill-rule="evenodd" stroke="none"/>
    <path d="M65.25 25.55 Q65.8 24.15 68.45 20.9 70.65 18.15 70.95 15.5 72.2 18.9 70.85 22.9 L69.55 26.15 Q68.8 28.1 68.6 29.35 68.15 29.0 68.0 27.35 67.8 25.8 67.15 25.55 66.8 25.6 66.75 26.1 L66.7 27.0 Q66.25 26.95 66.05 26.2 65.8 25.5 65.25 25.55" fill="url(#gradient0)" fill-rule="evenodd" stroke="none"/>
    <path d="M69.15 29.0 L70.95 25.05 Q71.55 27.15 70.7 29.95 69.8 32.8 68.1 33.65 67.95 31.3 69.15 29.0" fill="url(#gradient1)" fill-rule="evenodd" stroke="none"/>
    <path d="M70.5 12.65 Q70.85 14.1 70.4 15.4 70.0 16.75 70.0 14.1 L69.45 12.25 Q69.0 11.2 69.05 10.25 66.55 6.7 69.3 10.4 70.3 11.7 70.5 12.65" fill="#42c412" fill-rule="evenodd" stroke="none"/>
    <path d="M68.1 11.7 Q69.9 15.05 68.85 18.5 67.8 21.85 64.75 23.15 63.6 19.15 63.9 16.4 64.2 13.6 66.2 10.75 67.55 10.9 67.55 12.15 L67.15 14.55 Q67.9 14.55 68.05 13.6 L68.1 11.7" fill="url(#gradient2)" fill-rule="evenodd" stroke="none"/>
    <path d="M64.8 28.75 Q64.6 29.75 64.75 30.8 L65.65 29.15 Q66.2 28.0 67.15 27.95 68.15 33.95 64.3 38.1 61.1 41.6 55.2 43.25 56.45 41.4 57.05 37.2 57.8 31.35 58.1 30.35 59.2 30.0 61.5 28.5 63.55 27.2 65.25 27.0 L64.8 28.75" fill="url(#gradient3)" fill-rule="evenodd" stroke="none"/>
    <path d="M66.7 6.45 Q66.5 7.15 66.9 7.85 67.3 8.6 67.15 9.3 66.35 9.25 65.95 10.0 L65.25 11.2 Q64.4 10.55 64.85 9.0 65.35 7.05 65.25 6.45 L66.7 6.45" fill="url(#gradient4)" fill-rule="evenodd" stroke="none"/>
    <path d="M62.85 5.95 Q63.95 5.8 64.2 6.75 L64.3 8.8 Q63.45 8.5 63.05 7.85 62.65 7.15 62.85 5.95" fill="url(#gradient5)" fill-rule="evenodd" stroke="none"/>
    <path d="M54.75 44.2 Q59.15 43.6 62.65 40.65 L68.1 34.65 Q67.65 38.9 63.55 42.65 60.35 45.6 55.2 48.0 54.6 47.8 54.7 46.4 L54.75 44.2" fill="url(#gradient6)" fill-rule="evenodd" stroke="none"/>
    <path d="M60.0 14.55 Q62.2 16.2 63.25 19.45 64.1 22.2 64.3 26.5 60.3 27.6 57.6 30.35 56.05 29.2 55.4 28.9 L53.8 28.4 Q53.5 27.2 53.05 22.75 52.6 19.15 51.9 17.45 L54.8 15.8 57.6 14.1 Q58.25 14.4 58.15 15.95 L58.1 18.4 Q58.8 18.0 59.25 16.65 59.75 14.9 60.0 14.55" fill="url(#gradient7)" fill-rule="evenodd" stroke="none"/>
    <path d="M60.95 7.85 Q62.9 8.3 63.55 11.1 64.2 13.85 62.85 15.5 61.95 14.25 60.45 13.85 L57.6 13.1 Q56.8 12.85 56.65 13.6 56.45 14.35 55.7 14.1 54.6 12.1 55.8 10.45 L58.1 7.85 Q59.1 7.6 59.1 8.8 L59.05 10.75 Q59.85 10.75 60.0 9.3 60.1 7.85 60.95 7.85" fill="url(#gradient8)" fill-rule="evenodd" stroke="none"/>
    <path d="M62.4 3.55 L62.4 5.95 61.55 4.65 60.95 3.1 Q61.65 3.6 62.4 3.55" fill="#42c412" fill-rule="evenodd" stroke="none"/>
    <path d="M60.0 5.5 Q61.55 6.35 58.1 6.9 58.0 5.8 58.95 5.75 L60.0 5.5" fill="#42c412" fill-rule="evenodd" stroke="none"/>
    <path d="M56.65 4.5 Q56.5 3.8 57.55 3.95 58.6 4.15 58.1 5.0 L57.15 5.0 57.05 4.6 56.65 4.5" fill="#42c412" fill-rule="evenodd" stroke="none"/>
    <path d="M57.15 7.85 Q55.65 8.3 55.2 9.8 54.35 9.05 54.25 6.9 54.8 6.5 55.1 6.6 55.65 6.95 56.2 6.9 L56.2 5.5 Q56.6 5.75 56.8 6.55 L57.15 7.85" fill="url(#gradient9)" fill-rule="evenodd" stroke="none"/>
    <path d="M55.2 30.35 Q57.3 31.85 56.5 35.9 L55.7 39.25 Q55.2 41.2 55.2 42.3 46.65 42.95 44.25 47.05 43.35 46.45 42.35 44.45 41.35 42.4 40.4 41.8 41.3 37.05 45.3 33.8 46.7 32.65 53.3 28.9 54.3 29.45 54.0 30.55 L53.3 32.7 Q53.75 33.4 54.35 32.2 L55.2 30.35" fill="url(#gradient10)" fill-rule="evenodd" stroke="none"/>
    <path d="M54.75 4.05 Q55.55 4.35 54.75 5.15 54.05 5.95 53.3 5.95 53.4 5.5 54.05 5.0 L54.75 4.05" fill="#42c412" fill-rule="evenodd" stroke="none"/>
    <path d="M54.75 2.6 Q54.8 3.25 54.1 3.1 53.4 2.9 53.3 2.15 53.2 1.4 53.95 1.85 L54.75 2.6" fill="#42c412" fill-rule="evenodd" stroke="none"/>
    <path d="M50.35 6.6 L50.25 7.1 Q49.95 8.2 50.45 8.35 L51.2 7.45 51.9 6.45 Q54.65 8.8 54.25 15.05 53.55 15.25 52.75 15.9 L51.4 16.95 50.25 15.95 49.0 15.05 Q48.05 15.05 46.85 15.8 45.7 16.5 44.7 16.45 L45.5 13.2 Q45.85 11.25 45.65 9.3 49.35 7.2 49.95 6.9 L50.35 6.6" fill="url(#gradient11)" fill-rule="evenodd" stroke="none"/>
    <path d="M53.3 44.2 Q54.85 45.0 54.0 46.9 L52.35 49.45 48.0 49.25 Q46.45 48.9 44.7 48.0 45.4 46.3 47.55 45.1 L51.4 43.25 Q52.7 43.7 51.45 45.5 L49.5 48.0 Q50.8 47.75 51.75 46.5 L53.3 44.2" fill="url(#gradient12)" fill-rule="evenodd" stroke="none"/>
    <path d="M50.45 16.95 Q51.65 20.25 52.05 22.3 52.7 25.45 52.35 28.9 48.65 30.3 46.3 31.9 43.4 33.9 41.85 36.55 41.45 33.65 40.0 30.25 38.3 26.6 37.55 24.6 38.55 21.8 41.5 19.7 L47.1 16.45 Q47.5 16.55 47.55 17.2 L47.6 18.4 Q47.9 18.85 48.2 18.65 L48.65 17.9 Q49.4 16.5 50.45 16.95" fill="url(#gradient13)" fill-rule="evenodd" stroke="none"/>
    <path d="M51.85 3.15 Q51.8 3.55 53.1 4.25 53.8 4.6 51.9 5.0 L51.85 4.1 51.85 3.15" fill="#42c412" fill-rule="evenodd" stroke="none"/>
    <path d="M49.95 3.55 Q50.85 3.9 50.4 4.9 50.05 5.8 49.5 5.95 48.85 6.0 48.95 5.05 L49.0 3.55 Q49.4 3.9 49.6 3.9 L49.95 3.55" fill="url(#gradient14)" fill-rule="evenodd" stroke="none"/>
    <path d="M44.7 5.5 L47.6 4.5 Q48.6 5.45 47.7 6.65 L46.15 8.35 Q45.1 7.45 44.7 5.5" fill="url(#gradient15)" fill-rule="evenodd" stroke="none"/>
    <path d="M47.6 2.15 L47.6 3.1 46.65 3.1 Q46.2 3.2 46.15 3.55 45.45 3.35 46.2 2.8 47.15 2.05 47.1 1.65 L47.5 1.75 47.6 2.15" fill="#42c412" fill-rule="evenodd" stroke="none"/>
    <path d="M46.65 51.85 Q47.1 53.05 46.75 55.3 46.35 57.85 45.2 59.0 44.85 58.95 44.75 58.25 44.6 57.6 44.25 57.55 43.35 57.6 43.95 58.4 44.45 59.05 43.75 59.0 43.1 59.15 42.95 58.65 L42.8 57.55 Q42.2 58.3 41.75 58.35 L39.95 58.5 Q40.0 57.5 39.65 57.7 L38.5 58.05 Q38.45 57.4 38.95 53.1 39.3 50.1 38.05 48.95 L42.35 48.85 Q45.4 49.1 46.65 49.9 46.65 50.6 46.25 51.25 L45.65 52.3 Q45.8 52.8 46.2 52.55 L46.65 51.85" fill="#42c412" fill-rule="evenodd" stroke="none"/>
    <path d="M34.7 12.15 L37.7 9.45 Q39.5 7.85 41.4 7.4 41.55 8.1 41.0 8.5 40.4 8.9 40.4 9.3 40.9 9.85 42.2 8.25 43.55 6.55 44.25 7.4 45.0 8.9 44.7 11.8 44.2 16.05 44.25 16.45 42.85 17.45 40.1 20.1 L36.6 23.15 Q35.45 22.95 35.5 21.6 L35.65 19.35 34.85 15.9 Q34.4 13.75 34.7 12.15" fill="url(#gradient16)" fill-rule="evenodd" stroke="none"/>
    <path d="M45.2 3.55 Q44.65 4.9 42.8 5.3 40.95 5.65 40.4 6.9 39.3 5.05 41.35 3.85 43.3 2.7 45.2 3.55" fill="url(#gradient17)" fill-rule="evenodd" stroke="none"/>
    <path d="M37.4 43.15 Q36.3 41.5 36.6 39.4 40.85 42.25 43.3 48.5 38.45 47.45 36.85 46.35 34.05 44.35 34.7 39.9 35.35 40.5 36.55 43.35 37.5 45.6 39.0 46.1 38.85 45.35 37.4 43.15" fill="url(#gradient18)" fill-rule="evenodd" stroke="none"/>
    <path d="M36.6 25.05 L38.3 28.55 39.85 32.15 Q41.3 36.4 39.95 40.35 39.25 40.25 37.45 38.75 36.15 37.65 34.7 38.45 34.1 38.65 34.15 40.35 34.25 42.05 33.75 42.3 30.9 39.55 31.6 34.25 32.2 29.6 34.7 26.5 35.5 26.9 35.1 28.0 34.55 29.35 34.7 29.85 L35.85 27.7 36.6 25.05" fill="url(#gradient19)" fill-rule="evenodd" stroke="none"/>
    <path d="M36.0 8.35 Q36.95 7.35 38.5 6.45 39.0 7.3 37.4 8.6 35.4 10.15 35.15 10.75 34.6 9.75 36.0 8.35" fill="url(#gradient20)" fill-rule="evenodd" stroke="none"/>
    <path d="M33.25 11.7 Q33.35 13.35 34.5 18.05 35.5 22.0 35.15 24.1 34.95 25.55 33.1 27.75 31.4 29.8 31.35 31.3 28.5 27.65 28.85 20.35 29.15 12.8 32.8 10.75 33.2 10.95 32.5 12.05 31.7 13.35 31.85 14.1 32.25 14.9 32.75 13.65 L33.25 11.7" fill="url(#gradient21)" fill-rule="evenodd" stroke="none"/>
    <path d="M28.95 28.9 Q30.25 30.45 30.45 34.65 30.7 39.05 31.85 40.85 30.0 40.55 29.3 36.6 28.65 33.25 28.95 28.9" fill="url(#gradient22)" fill-rule="evenodd" stroke="none"/>
    <path d="M27.55 20.75 Q28.1 21.45 28.3 25.0 28.45 28.5 28.0 30.8 28.1 31.4 27.8 31.55 27.55 31.7 27.55 31.3 L27.55 29.35 Q27.4 27.25 26.6 26.5 27.75 23.7 27.55 20.75" fill="url(#gradient23)" fill-rule="evenodd" stroke="none"/>
  </g>
  <defs>
    <linearGradient gradientTransform="matrix(0.0039, 0.0, 0.0, -0.0039, 68.4, 22.45)" gradientUnits="userSpaceOnUse" id="gradient0" spreadMethod="pad" x1="-819.2" x2="819.2">
      <stop offset="0.0" stop-color="#b600e7"/>
      <stop offset="1.0" stop-color="#17ff00"/>
    </linearGradient>
    <linearGradient gradientTransform="matrix(0.0019, 0.0, 0.0, -0.0019, 69.65, 29.35)" gradientUnits="userSpaceOnUse" id="gradient1" spreadMethod="pad" x1="-819.2" x2="819.2">
      <stop offset="0.0" stop-color="#b600e7"/>
      <stop offset="1.0" stop-color="#17ff00"/>
    </linearGradient>
    <linearGradient gradientTransform="matrix(0.0033, 0.0, 0.0, -0.0033, 66.5, 16.95)" gradientUnits="userSpaceOnUse" id="gradient2" spreadMethod="pad" x1="-819.2" x2="819.2">
      <stop offset="0.0" stop-color="#b600e7"/>
      <stop offset="1.0" stop-color="#17ff00"/>
    </linearGradient>
    <linearGradient gradientTransform="matrix(0.0074, 0.0, 0.0, -0.0074, 61.3, 35.1)" gradientUnits="userSpaceOnUse" id="gradient3" spreadMethod="pad" x1="-819.2" x2="819.2">
      <stop offset="0.0" stop-color="#b600e7"/>
      <stop offset="1.0" stop-color="#17ff00"/>
    </linearGradient>
    <linearGradient gradientTransform="matrix(0.0016, 0.0, 0.0, -0.0016, 65.95, 8.8)" gradientUnits="userSpaceOnUse" id="gradient4" spreadMethod="pad" x1="-819.2" x2="819.2">
      <stop offset="0.0" stop-color="#b600e7"/>
      <stop offset="1.0" stop-color="#17ff00"/>
    </linearGradient>
    <linearGradient gradientTransform="matrix(9.0E-4, 0.0, 0.0, -9.0E-4, 63.55, 7.4)" gradientUnits="userSpaceOnUse" id="gradient5" spreadMethod="pad" x1="-819.2" x2="819.2">
      <stop offset="0.0" stop-color="#b600e7"/>
      <stop offset="1.0" stop-color="#17ff00"/>
    </linearGradient>
    <linearGradient gradientTransform="matrix(0.0082, 0.0, 0.0, -0.0082, 61.4, 41.3)" gradientUnits="userSpaceOnUse" id="gradient6" spreadMethod="pad" x1="-819.2" x2="819.2">
      <stop offset="0.0" stop-color="#b600e7"/>
      <stop offset="1.0" stop-color="#17ff00"/>
    </linearGradient>
    <linearGradient gradientTransform="matrix(0.0076, 0.0, 0.0, -0.0076, 58.1, 22.2)" gradientUnits="userSpaceOnUse" id="gradient7" spreadMethod="pad" x1="-819.2" x2="819.2">
      <stop offset="0.0" stop-color="#b600e7"/>
      <stop offset="1.0" stop-color="#17ff00"/>
    </linearGradient>
    <linearGradient gradientTransform="matrix(0.0052, 0.0, 0.0, -0.0052, 59.45, 11.65)" gradientUnits="userSpaceOnUse" id="gradient8" spreadMethod="pad" x1="-819.2" x2="819.2">
      <stop offset="0.0" stop-color="#b600e7"/>
      <stop offset="1.0" stop-color="#17ff00"/>
    </linearGradient>
    <linearGradient gradientTransform="matrix(0.0018, 0.0, 0.0, -0.0018, 55.7, 7.65)" gradientUnits="userSpaceOnUse" id="gradient9" spreadMethod="pad" x1="-819.2" x2="819.2">
      <stop offset="0.0" stop-color="#b600e7"/>
      <stop offset="1.0" stop-color="#17ff00"/>
    </linearGradient>
    <linearGradient gradientTransform="matrix(0.01, 0.0, 0.0, -0.01, 48.6, 37.95)" gradientUnits="userSpaceOnUse" id="gradient10" spreadMethod="pad" x1="-819.2" x2="819.2">
      <stop offset="0.0" stop-color="#b600e7"/>
      <stop offset="1.0" stop-color="#17ff00"/>
    </linearGradient>
    <linearGradient gradientTransform="matrix(0.0059, 0.0, 0.0, -0.0059, 49.5, 11.7)" gradientUnits="userSpaceOnUse" id="gradient11" spreadMethod="pad" x1="-819.2" x2="819.2">
      <stop offset="0.0" stop-color="#b600e7"/>
      <stop offset="1.0" stop-color="#17ff00"/>
    </linearGradient>
    <linearGradient gradientTransform="matrix(0.0058, 0.0, 0.0, -0.0059, 49.5, 46.4)" gradientUnits="userSpaceOnUse" id="gradient12" spreadMethod="pad" x1="-819.2" x2="819.2">
      <stop offset="0.0" stop-color="#b600e7"/>
      <stop offset="1.0" stop-color="#17ff00"/>
    </linearGradient>
    <linearGradient gradientTransform="matrix(0.0091, 0.0, 0.0, -0.0091, 45.0, 26.5)" gradientUnits="userSpaceOnUse" id="gradient13" spreadMethod="pad" x1="-819.2" x2="819.2">
      <stop offset="0.0" stop-color="#b600e7"/>
      <stop offset="1.0" stop-color="#17ff00"/>
    </linearGradient>
    <linearGradient gradientTransform="matrix(0.001, 0.0, 0.0, -0.001, 49.75, 4.8)" gradientUnits="userSpaceOnUse" id="gradient14" spreadMethod="pad" x1="-819.2" x2="819.2">
      <stop offset="0.0" stop-color="#b600e7"/>
      <stop offset="1.0" stop-color="#17ff00"/>
    </linearGradient>
    <linearGradient gradientTransform="matrix(0.0021, 0.0, 0.0, -0.0021, 46.4, 6.45)" gradientUnits="userSpaceOnUse" id="gradient15" spreadMethod="pad" x1="-819.2" x2="819.2">
      <stop offset="0.0" stop-color="#b600e7"/>
      <stop offset="1.0" stop-color="#17ff00"/>
    </linearGradient>
    <linearGradient gradientTransform="matrix(0.0062, 0.0, 0.0, -0.0062, 39.7, 15.1)" gradientUnits="userSpaceOnUse" id="gradient16" spreadMethod="pad" x1="-819.2" x2="819.2">
      <stop offset="0.0" stop-color="#b600e7"/>
      <stop offset="1.0" stop-color="#17ff00"/>
    </linearGradient>
    <linearGradient gradientTransform="matrix(0.0031, 0.0, 0.0, -0.0031, 42.6, 5.1)" gradientUnits="userSpaceOnUse" id="gradient17" spreadMethod="pad" x1="-819.2" x2="819.2">
      <stop offset="0.0" stop-color="#b600e7"/>
      <stop offset="1.0" stop-color="#17ff00"/>
    </linearGradient>
    <linearGradient gradientTransform="matrix(0.0053, 0.0, 0.0, -0.0053, 38.9, 43.95)" gradientUnits="userSpaceOnUse" id="gradient18" spreadMethod="pad" x1="-819.2" x2="819.2">
      <stop offset="0.0" stop-color="#b600e7"/>
      <stop offset="1.0" stop-color="#17ff00"/>
    </linearGradient>
    <linearGradient gradientTransform="matrix(0.0056, 0.0, 0.0, -0.0056, 36.05, 33.65)" gradientUnits="userSpaceOnUse" id="gradient19" spreadMethod="pad" x1="-819.2" x2="819.2">
      <stop offset="0.0" stop-color="#b600e7"/>
      <stop offset="1.0" stop-color="#17ff00"/>
    </linearGradient>
    <linearGradient gradientTransform="matrix(0.0022, 0.0, 0.0, -0.0022, 36.8, 8.6)" gradientUnits="userSpaceOnUse" id="gradient20" spreadMethod="pad" x1="-819.2" x2="819.2">
      <stop offset="0.0" stop-color="#b600e7"/>
      <stop offset="1.0" stop-color="#17ff00"/>
    </linearGradient>
    <linearGradient gradientTransform="matrix(0.0039, 0.0, 0.0, -0.0039, 32.05, 21.0)" gradientUnits="userSpaceOnUse" id="gradient21" spreadMethod="pad" x1="-819.2" x2="819.2">
      <stop offset="0.0" stop-color="#b600e7"/>
      <stop offset="1.0" stop-color="#17ff00"/>
    </linearGradient>
    <linearGradient gradientTransform="matrix(0.0018, 0.0, 0.0, -0.0018, 30.35, 34.85)" gradientUnits="userSpaceOnUse" id="gradient22" spreadMethod="pad" x1="-819.2" x2="819.2">
      <stop offset="0.0" stop-color="#b600e7"/>
      <stop offset="1.0" stop-color="#17ff00"/>
    </linearGradient>
    <linearGradient gradientTransform="matrix(0.0011, 0.0, 0.0, -0.0011, 27.45, 26.2)" gradientUnits="userSpaceOnUse" id="gradient23" spreadMethod="pad" x1="-819.2" x2="819.2">
      <stop offset="0.0" stop-color="#b600e7"/>
      <stop offset="1.0" stop-color="#17ff00"/>
    </linearGradient>
  </defs>
</svg>
