<?xml version="1.0" encoding="UTF-8" standalone="no"?>
<svg xmlns:xlink="http://www.w3.org/1999/xlink" height="60.0px" width="63.3px" xmlns="http://www.w3.org/2000/svg">
  <g transform="matrix(1, 0, 0, 1, -17.0, 0.0)">
    <path d="M73.35 14.25 Q72.35 14.5 71.6 14.0 70.75 13.5 70.15 13.55 69.25 13.65 68.15 15.3 67.25 16.6 65.9 16.0 L65.45 17.35 64.85 18.5 Q65.9 18.2 67.75 16.2 69.35 14.4 70.5 14.6 L69.2 15.9 67.6 17.1 Q65.75 18.65 66.25 20.25 66.55 18.15 69.4 16.85 L71.6 15.8 Q72.8 15.1 73.35 14.25 M71.9 13.55 L74.0 13.35 Q74.9 12.95 74.75 11.75 L72.8 12.1 Q71.85 12.5 71.9 13.55 M75.1 14.6 Q75.15 15.2 74.45 15.55 73.7 15.9 73.7 16.35 L75.15 16.25 76.5 16.0 76.2 14.9 Q75.85 14.45 75.1 14.6 M77.25 15.45 Q77.65 17.1 76.5 17.4 77.25 18.1 78.2 17.25 79.3 16.2 80.05 16.35 79.9 17.3 80.2 19.05 80.5 20.5 80.05 21.3 L77.35 21.75 Q76.1 22.05 74.75 22.75 76.15 22.7 77.4 23.25 78.95 23.95 79.35 25.2 78.1 26.7 74.75 26.65 L73.35 28.4 Q72.4 29.2 71.2 29.45 71.25 30.2 71.95 30.5 L73.35 30.9 72.9 32.6 72.6 34.05 Q71.5 34.4 70.95 33.75 L70.15 32.65 Q69.95 33.95 68.25 34.15 66.45 34.4 66.25 35.15 63.15 34.5 60.95 32.3 56.25 35.2 51.2 40.15 L41.8 49.65 35.85 55.45 Q32.45 58.45 29.4 59.6 L24.55 60.0 19.15 59.6 18.2 58.25 17.0 57.1 Q16.95 55.25 17.3 53.75 17.65 51.95 18.45 51.45 18.65 48.2 21.4 45.3 L23.95 42.95 26.6 40.8 Q29.3 38.5 37.15 34.35 45.35 30.05 47.45 28.4 L50.65 25.55 51.15 24.75 51.7 24.15 51.3 23.35 50.6 22.3 Q49.95 21.05 52.1 20.95 L51.8 19.5 Q51.75 18.85 52.8 18.85 L52.5 17.25 52.8 15.3 Q53.95 15.25 54.65 13.65 55.35 11.95 56.35 11.75 56.5 12.8 57.35 15.05 58.0 16.7 57.75 18.15 58.35 17.9 59.25 16.25 60.0 14.9 61.3 14.95 61.35 12.2 63.35 11.4 64.55 10.9 67.65 10.35 L67.65 12.1 Q68.15 11.55 69.15 11.65 L70.85 11.75 73.55 10.95 Q75.0 10.65 75.8 11.75 75.8 12.5 75.25 13.15 L74.4 14.25 Q74.6 14.7 75.05 14.1 75.65 13.35 76.15 13.55 76.85 13.85 77.25 15.45 M62.3 13.5 Q61.45 14.55 61.65 16.0 60.3 15.95 59.6 17.15 L59.05 18.25 58.45 19.2 Q59.75 18.75 61.25 16.7 62.75 14.7 64.1 14.25 L64.15 12.8 Q64.2 11.85 63.75 11.75 L62.3 13.5 M64.25 14.9 Q63.55 15.95 63.4 17.05 64.1 16.95 64.35 15.9 L64.85 14.25 Q65.35 14.45 65.7 13.8 66.05 13.1 65.55 13.15 L64.25 14.9 M66.45 12.15 Q67.3 12.0 66.6 11.05 L65.35 11.85 Q64.6 12.45 65.2 12.8 65.25 12.35 66.45 12.15 M67.3 15.3 Q67.6 15.25 67.45 14.45 67.3 13.75 66.95 14.6 L67.0 15.05 67.3 15.3 M70.85 12.45 Q69.65 12.35 68.5 12.8 L66.6 13.55 69.0 13.3 70.85 12.45 M65.05 20.4 Q65.5 19.35 65.2 19.2 L63.7 20.35 Q62.95 20.9 63.75 21.7 L62.05 24.2 Q61.1 25.65 60.6 27.0 61.25 27.15 61.35 26.35 61.45 25.5 62.0 25.55 63.25 25.65 64.05 24.95 L65.2 23.45 64.5 22.7 Q64.15 22.25 64.1 21.7 64.6 21.5 65.05 20.4 M68.0 23.45 L66.35 25.55 64.85 27.0 Q65.95 27.1 67.25 25.8 68.4 24.55 69.1 24.85 L68.75 25.25 68.35 25.55 Q69.7 25.45 70.8 24.65 L72.6 23.1 Q72.85 23.5 72.45 24.1 72.15 24.45 72.6 24.5 72.9 23.75 73.15 24.0 73.6 24.55 74.05 24.5 74.4 24.15 74.15 23.7 L73.7 22.75 70.8 23.05 68.0 23.45 M69.3 22.05 Q71.55 20.75 73.35 20.95 72.95 19.5 74.6 18.45 L75.65 17.65 Q76.05 17.25 75.8 16.7 74.85 16.75 72.7 18.4 71.0 19.75 70.15 18.85 70.25 18.3 71.3 17.9 72.3 17.5 72.25 16.7 69.15 17.3 67.2 19.55 65.15 21.9 65.9 24.5 68.1 22.75 69.3 22.05 M62.75 17.2 Q62.8 16.15 62.35 16.0 L61.25 17.95 59.8 19.75 Q58.05 21.95 58.45 23.8 L60.5 21.25 Q61.7 19.55 62.7 18.85 L62.75 17.2 M62.7 21.3 L60.5 23.55 Q59.4 24.85 58.8 26.3 60.05 25.55 61.3 23.9 62.5 22.35 62.7 21.3 M58.1 19.9 Q56.75 20.0 56.2 22.15 L55.6 24.85 57.35 22.9 Q58.1 21.6 58.1 19.9 M62.7 27.35 L64.05 26.3 Q64.9 25.6 64.45 25.2 64.5 25.75 63.2 26.35 62.15 26.85 62.7 27.35 M56.95 25.85 L55.6 27.0 Q56.85 26.9 58.45 24.85 57.7 25.15 56.95 25.85 M57.05 29.45 L56.1 30.55 Q55.35 31.15 55.95 31.6 56.9 30.7 57.25 30.75 57.6 30.75 57.4 31.6 L58.6 30.5 59.85 29.45 58.25 30.0 Q57.5 30.35 57.05 29.45 M62.85 29.85 Q63.7 29.1 63.4 28.75 62.4 29.25 61.75 30.05 L60.2 31.6 Q61.75 31.75 63.3 32.8 L65.9 34.45 Q65.95 33.35 66.6 33.0 66.85 33.65 67.8 33.4 L69.1 32.65 68.4 32.1 Q68.0 31.75 68.0 31.25 L68.3 31.15 68.35 30.9 Q67.7 30.6 67.7 31.25 67.7 32.0 67.3 31.95 L64.65 31.75 Q62.5 31.7 61.65 31.25 61.75 30.8 62.85 29.85 M70.2 28.4 Q71.9 28.7 72.95 28.05 L71.9 27.0 Q71.25 26.55 71.9 25.55 70.05 25.95 68.15 26.75 L64.85 28.4 65.75 28.55 66.6 28.75 67.05 27.8 Q67.35 27.25 68.0 27.35 68.6 28.15 70.2 28.4 M66.85 30.15 L69.45 30.2 Q69.45 31.15 69.1 31.6 L70.75 32.15 72.25 31.95 70.35 29.95 Q69.25 28.7 68.0 28.4 67.7 29.2 66.95 29.45 L65.5 29.45 Q64.55 29.35 64.45 29.8 L66.85 30.15 M78.65 17.4 Q78.3 17.8 75.75 19.15 73.95 20.15 73.7 21.7 L78.2 20.75 Q80.2 19.8 78.65 17.4 M75.8 23.8 Q76.4 24.15 76.5 25.2 L74.4 24.9 Q73.2 24.9 72.6 25.55 L75.55 26.1 Q76.95 26.25 77.55 24.85 L76.15 23.75 Q75.15 23.2 75.45 24.15 75.5 23.75 75.8 23.8 M55.1 14.8 Q54.6 15.95 54.55 16.7 L53.85 16.2 Q53.55 15.95 53.15 16.35 53.05 18.05 54.05 19.2 L55.95 20.95 Q55.8 19.95 56.4 19.05 57.25 17.9 57.4 17.05 56.45 16.95 56.35 14.85 56.2 12.8 55.6 12.8 L55.1 14.8 M52.45 23.1 L52.45 22.05 51.75 22.1 51.35 22.4 51.8 22.85 Q52.0 23.2 52.45 23.1 M53.85 20.45 Q53.75 19.35 52.8 19.55 L52.9 20.9 Q52.85 21.6 53.5 22.05 53.95 21.5 53.85 20.45 M53.45 23.8 Q52.75 25.95 51.7 26.3 51.55 26.0 52.0 25.4 52.3 25.0 51.7 24.85 L51.2 26.0 Q50.8 26.55 51.0 27.35 50.4 27.5 49.4 28.6 48.55 29.55 47.45 29.45 L44.4 32.1 41.45 34.05 39.0 35.6 Q37.7 36.45 39.7 35.5 L41.45 34.3 44.3 32.3 50.9 27.8 Q54.65 24.75 55.25 21.3 54.15 21.65 53.45 23.8 M53.85 26.65 Q53.55 26.45 52.7 27.35 51.8 28.3 51.7 29.1 L48.5 31.8 45.35 34.8 43.75 35.85 42.15 36.9 40.45 39.0 Q39.4 40.2 38.25 40.1 39.25 39.65 39.4 38.9 L39.35 37.6 Q39.95 38.65 40.9 37.7 L42.5 36.2 Q42.05 36.1 41.25 36.8 40.65 37.4 40.4 36.9 L42.0 35.45 Q43.1 34.65 43.95 35.15 43.75 34.55 45.0 33.9 46.05 33.35 45.35 32.65 44.25 33.75 42.4 34.85 L39.35 36.55 Q38.45 37.05 37.5 37.7 L36.15 38.7 35.3 39.1 34.75 39.4 31.55 41.25 Q29.5 42.3 28.7 42.95 25.45 45.5 23.05 48.75 20.05 52.75 19.85 56.05 L20.9 55.7 21.1 55.3 21.25 54.95 20.45 54.9 Q20.1 54.75 20.2 54.25 21.5 51.7 22.55 50.3 24.1 48.15 25.5 47.9 L23.45 50.15 Q22.25 51.65 22.35 52.5 L25.45 49.15 Q27.4 47.2 28.7 46.8 L26.1 49.3 Q24.45 50.8 24.45 51.8 L30.65 46.2 Q34.45 42.75 36.85 41.5 L31.0 46.75 Q27.25 49.95 25.85 51.8 29.9 49.45 35.0 44.7 L43.25 36.9 47.35 33.9 51.35 31.25 Q51.9 30.85 51.95 30.05 L52.1 29.1 53.7 27.75 Q54.8 26.8 53.85 26.65 M51.7 32.3 Q50.9 32.9 50.75 33.25 50.6 33.55 50.9 33.5 L51.5 33.15 Q51.8 32.8 51.7 32.3 M53.8 32.9 Q53.05 33.65 53.5 33.35 L54.7 32.55 Q55.5 32.0 54.9 31.6 L53.8 32.9 M55.25 29.8 Q55.9 30.2 56.05 29.45 56.15 28.65 55.6 28.75 L55.55 29.05 55.25 29.1 55.25 29.8 M55.3 32.7 L54.2 33.7 Q55.0 33.6 55.8 32.75 56.65 31.95 56.35 31.6 L55.3 32.7 M49.6 37.95 L48.55 38.6 Q47.9 39.05 48.9 39.05 L49.6 38.05 Q50.0 37.6 49.6 37.95 M50.05 36.3 L48.9 37.25 Q49.75 37.0 50.55 36.35 51.45 35.6 51.0 35.15 L50.05 36.3 M50.3 37.25 Q51.3 36.95 52.35 35.8 L54.2 34.05 Q53.2 34.45 52.1 35.5 L50.3 37.25 M48.2 36.9 L47.15 37.55 Q46.5 38.0 47.45 37.95 L48.2 37.0 Q48.6 36.5 48.2 36.9 M43.25 39.05 L43.85 38.5 Q44.25 38.2 43.6 37.95 L43.1 38.6 Q42.7 38.95 43.25 39.05 M45.0 39.05 Q45.05 39.4 44.1 40.0 43.3 40.45 43.95 40.8 43.85 40.4 44.85 39.85 45.6 39.4 45.0 39.05 M47.1 39.4 Q47.05 39.15 47.6 38.75 48.0 38.45 47.45 38.3 L46.85 38.85 Q46.45 39.2 47.1 39.4 M46.05 39.4 Q45.2 40.55 42.65 42.35 40.2 44.1 39.35 45.4 37.9 46.4 34.2 49.4 L29.05 53.2 26.9 54.4 Q25.7 55.1 25.85 55.7 L32.25 51.6 38.25 47.55 40.15 45.75 41.8 44.0 44.35 41.9 Q45.8 40.65 46.05 39.4 M42.55 45.95 L42.15 46.8 Q43.65 46.2 44.3 44.7 43.45 44.55 42.55 45.95 M46.75 44.0 L46.7 43.35 Q46.65 43.0 46.4 42.95 46.5 43.15 45.9 43.6 45.5 43.9 46.05 44.0 46.1 43.7 46.3 43.75 46.45 43.8 46.75 44.0 M40.05 34.45 Q39.95 34.0 40.5 33.85 41.1 33.7 41.1 33.35 40.55 33.25 40.0 33.8 39.45 34.35 40.05 34.45 M30.2 40.3 Q27.55 42.6 29.75 40.8 L31.9 39.4 Q31.25 39.35 30.2 40.3 M28.7 40.45 Q27.5 41.05 27.1 41.4 26.1 42.1 26.6 42.55 26.7 42.1 28.05 41.05 L28.7 40.45 M30.5 49.65 L27.65 51.8 26.6 52.05 Q26.0 52.25 26.6 52.85 L31.2 49.65 37.7 45.3 Q41.4 42.75 42.85 40.8 L38.95 43.95 35.1 46.8 33.3 47.55 31.55 48.25 31.05 48.95 30.5 49.65 M40.5 46.6 Q41.1 46.45 41.1 46.1 40.55 46.0 40.0 46.55 39.45 47.1 40.05 47.2 39.95 46.75 40.5 46.6 M41.45 47.55 Q40.6 47.55 40.4 48.25 41.2 48.25 41.45 47.55 M36.0 49.8 Q34.25 51.05 34.0 51.8 L37.1 49.6 39.0 47.9 36.0 49.8 M36.5 52.85 L41.5 49.0 Q44.3 46.8 45.0 45.05 37.25 53.3 26.25 58.15 30.1 58.7 33.65 54.6 L34.2 54.6 34.75 54.6 35.7 53.75 36.5 52.85 M32.25 54.25 L29.65 55.4 Q28.15 56.1 27.3 56.75 28.45 56.5 30.55 55.4 32.55 54.35 32.25 54.25 M29.05 51.8 L27.5 52.75 Q26.5 53.25 26.25 53.9 L28.2 52.95 Q29.35 52.2 29.05 51.8 M31.15 51.05 L31.9 50.35 Q31.35 50.3 30.35 51.1 29.75 51.8 30.1 51.45 30.65 51.4 31.15 51.05 M24.45 45.75 Q24.85 44.95 26.95 43.4 28.7 42.0 28.7 41.15 28.3 41.8 26.2 43.5 24.5 44.9 24.45 45.75 M24.8 43.3 L24.25 44.05 Q23.8 44.5 24.45 44.7 24.25 44.25 24.95 43.85 25.45 43.55 24.8 43.3 M23.05 45.75 Q23.6 45.95 23.7 45.1 L23.65 44.75 Q23.55 44.7 23.4 45.05 L22.85 45.85 Q22.6 46.3 23.05 45.75 M23.65 52.3 Q24.1 52.0 23.4 51.8 23.45 52.0 22.9 52.45 22.5 52.75 23.05 52.85 L23.65 52.3 M22.25 58.65 Q22.85 58.5 23.05 58.15 22.3 57.65 21.25 57.8 L21.25 58.85 22.25 58.65 M18.8 52.15 Q19.4 52.35 19.15 51.4 L18.95 51.05 18.8 51.45 18.6 52.3 Q18.45 52.6 18.8 52.15 M18.35 53.5 Q18.15 53.1 18.1 53.55 18.0 53.95 18.15 54.35 18.35 54.75 18.45 54.25 L18.35 53.5 M20.55 59.2 Q21.05 58.35 19.85 56.9 18.6 55.45 17.75 56.05 L18.85 57.95 Q19.55 58.95 20.55 59.2 M21.6 56.4 Q20.8 56.4 20.55 57.1 21.35 57.1 21.6 56.4" fill="#000000" fill-rule="evenodd" stroke="none"/>
    <path d="M78.65 17.4 Q80.2 19.8 78.2 20.75 L73.7 21.7 Q73.95 20.15 75.75 19.15 78.3 17.8 78.65 17.4" fill="#32910f" fill-rule="evenodd" stroke="none"/>
    <path d="M76.2 14.9 L76.5 16.0 75.15 16.25 73.7 16.35 Q73.7 15.9 74.45 15.55 75.15 15.2 75.1 14.6 75.85 14.45 76.2 14.9" fill="#32910f" fill-rule="evenodd" stroke="none"/>
    <path d="M77.55 24.85 Q76.95 26.25 75.55 26.1 L72.6 25.55 Q73.2 24.9 74.4 24.9 L76.5 25.2 Q76.4 24.15 75.8 23.8 75.5 23.75 75.45 24.15 75.15 23.2 76.15 23.75 L77.55 24.85" fill="#32910f" fill-rule="evenodd" stroke="none"/>
    <path d="M67.2 19.55 Q69.15 17.3 72.25 16.7 72.3 17.5 71.3 17.9 70.25 18.3 70.15 18.85 71.0 19.75 72.7 18.4 74.85 16.75 75.8 16.7 76.05 17.25 75.65 17.65 L74.6 18.45 Q72.95 19.5 73.35 20.95 71.55 20.75 69.3 22.05 68.1 22.75 65.9 24.5 65.15 21.9 67.2 19.55" fill="#32910f" fill-rule="evenodd" stroke="none"/>
    <path d="M74.75 11.75 Q74.9 12.95 74.0 13.35 L71.9 13.55 Q71.85 12.5 72.8 12.1 L74.75 11.75" fill="#32910f" fill-rule="evenodd" stroke="none"/>
    <path d="M70.8 23.05 L73.7 22.75 74.15 23.7 Q74.4 24.15 74.05 24.5 73.6 24.55 73.15 24.0 72.9 23.75 72.6 24.5 72.15 24.45 72.45 24.1 72.85 23.5 72.6 23.1 L70.8 24.65 Q69.7 25.45 68.35 25.55 L68.75 25.25 69.1 24.85 Q68.4 24.55 67.25 25.8 65.95 27.1 64.85 27.0 L66.35 25.55 68.0 23.45 70.8 23.05" fill="#32910f" fill-rule="evenodd" stroke="none"/>
    <path d="M71.6 15.8 L69.4 16.85 Q66.55 18.15 66.25 20.25 65.75 18.65 67.6 17.1 L69.2 15.9 70.5 14.6 Q69.35 14.4 67.75 16.2 65.9 18.2 64.85 18.5 L65.45 17.35 65.9 16.0 Q67.25 16.6 68.15 15.3 69.25 13.65 70.15 13.55 70.75 13.5 71.6 14.0 72.35 14.5 73.35 14.25 72.8 15.1 71.6 15.8" fill="#32910f" fill-rule="evenodd" stroke="none"/>
    <path d="M68.15 26.75 Q70.05 25.95 71.9 25.55 71.25 26.55 71.9 27.0 L72.95 28.05 Q71.9 28.7 70.2 28.4 68.6 28.15 68.0 27.35 67.35 27.25 67.05 27.8 L66.6 28.75 65.75 28.55 64.85 28.4 68.15 26.75" fill="#32910f" fill-rule="evenodd" stroke="none"/>
    <path d="M70.35 29.95 L72.25 31.95 70.75 32.15 69.1 31.6 Q69.45 31.15 69.45 30.2 L66.85 30.15 64.45 29.8 Q64.55 29.35 65.5 29.45 L66.95 29.45 Q67.7 29.2 68.0 28.4 69.25 28.7 70.35 29.95" fill="#32910f" fill-rule="evenodd" stroke="none"/>
    <path d="M66.6 13.55 L68.5 12.8 Q69.65 12.35 70.85 12.45 L69.0 13.3 66.6 13.55" fill="#32910f" fill-rule="evenodd" stroke="none"/>
    <path d="M60.2 31.6 L61.75 30.05 Q62.4 29.25 63.4 28.75 63.7 29.1 62.85 29.85 61.75 30.8 61.65 31.25 62.5 31.7 64.65 31.75 L67.3 31.95 Q67.7 32.0 67.7 31.25 67.7 30.6 68.35 30.9 L68.3 31.15 68.0 31.25 Q68.0 31.75 68.4 32.1 L69.1 32.65 67.8 33.4 Q66.85 33.65 66.6 33.0 65.95 33.35 65.9 34.45 L63.3 32.8 Q61.75 31.75 60.2 31.6" fill="#32910f" fill-rule="evenodd" stroke="none"/>
    <path d="M66.95 14.6 Q67.3 13.75 67.45 14.45 67.6 15.25 67.3 15.3 L67.0 15.05 66.95 14.6" fill="#32910f" fill-rule="evenodd" stroke="none"/>
    <path d="M66.6 11.05 Q67.3 12.0 66.45 12.15 65.25 12.35 65.2 12.8 64.6 12.45 65.35 11.85 L66.6 11.05" fill="#32910f" fill-rule="evenodd" stroke="none"/>
    <path d="M65.55 13.15 Q66.05 13.1 65.7 13.8 65.35 14.45 64.85 14.25 L64.35 15.9 Q64.1 16.95 63.4 17.05 63.55 15.95 64.25 14.9 L65.55 13.15" fill="#32910f" fill-rule="evenodd" stroke="none"/>
    <path d="M65.05 20.4 Q64.6 21.5 64.1 21.7 64.15 22.25 64.5 22.7 L65.2 23.45 64.05 24.95 Q63.25 25.65 62.0 25.55 61.45 25.5 61.35 26.35 61.25 27.15 60.6 27.0 61.1 25.65 62.05 24.2 L63.75 21.7 Q62.95 20.9 63.7 20.35 L65.2 19.2 Q65.5 19.35 65.05 20.4" fill="#32910f" fill-rule="evenodd" stroke="none"/>
    <path d="M64.45 25.2 Q64.9 25.6 64.05 26.3 L62.7 27.35 Q62.15 26.85 63.2 26.35 64.5 25.75 64.45 25.2" fill="#32910f" fill-rule="evenodd" stroke="none"/>
    <path d="M63.75 11.75 Q64.2 11.85 64.15 12.8 L64.1 14.25 Q62.75 14.7 61.25 16.7 59.75 18.75 58.45 19.2 L59.05 18.25 59.6 17.15 Q60.3 15.95 61.65 16.0 61.45 14.55 62.3 13.5 L63.75 11.75" fill="#32910f" fill-rule="evenodd" stroke="none"/>
    <path d="M62.35 16.0 Q62.8 16.15 62.75 17.2 L62.7 18.85 Q61.7 19.55 60.5 21.25 L58.45 23.8 Q58.05 21.95 59.8 19.75 L61.25 17.95 62.35 16.0" fill="#32910f" fill-rule="evenodd" stroke="none"/>
    <path d="M62.7 21.3 Q62.5 22.35 61.3 23.9 60.05 25.55 58.8 26.3 59.4 24.85 60.5 23.55 L62.7 21.3" fill="#32910f" fill-rule="evenodd" stroke="none"/>
    <path d="M57.25 30.75 Q56.9 30.7 55.95 31.6 55.35 31.15 56.1 30.55 L57.05 29.45 Q57.5 30.35 58.25 30.0 L59.85 29.45 58.6 30.5 57.4 31.6 Q57.6 30.75 57.25 30.75" fill="#32910f" fill-rule="evenodd" stroke="none"/>
    <path d="M58.45 24.85 Q56.85 26.9 55.6 27.0 L56.95 25.85 Q57.7 25.15 58.45 24.85" fill="#32910f" fill-rule="evenodd" stroke="none"/>
    <path d="M57.35 22.9 L55.6 24.85 56.2 22.15 Q56.75 20.0 58.1 19.9 58.1 21.6 57.35 22.9" fill="#32910f" fill-rule="evenodd" stroke="none"/>
    <path d="M56.35 31.6 Q56.65 31.95 55.8 32.75 55.0 33.6 54.2 33.7 L55.3 32.7 56.35 31.6" fill="#32910f" fill-rule="evenodd" stroke="none"/>
    <path d="M56.35 14.85 Q56.45 16.95 57.4 17.05 57.25 17.9 56.4 19.05 55.8 19.95 55.95 20.95 L54.05 19.2 Q53.05 18.05 53.15 16.35 53.55 15.95 53.85 16.2 L54.55 16.7 Q54.6 15.95 55.1 14.8 L55.6 12.8 Q56.2 12.8 56.35 14.85" fill="#32910f" fill-rule="evenodd" stroke="none"/>
    <path d="M55.6 28.75 Q56.15 28.65 56.05 29.45 55.9 30.2 55.25 29.8 L55.25 29.1 55.55 29.05 55.6 28.75" fill="#32910f" fill-rule="evenodd" stroke="none"/>
    <path d="M54.9 31.6 Q55.5 32.0 54.7 32.55 L53.5 33.35 Q53.05 33.65 53.8 32.9 L54.9 31.6" fill="#32910f" fill-rule="evenodd" stroke="none"/>
    <path d="M53.85 26.65 Q54.8 26.8 53.7 27.75 L52.1 29.1 51.95 30.05 Q51.9 30.85 51.35 31.25 L47.35 33.9 43.25 36.9 35.0 44.7 Q29.9 49.45 25.85 51.8 27.25 49.95 31.0 46.75 L36.85 41.5 Q34.45 42.75 30.65 46.2 L24.45 51.8 Q24.45 50.8 26.1 49.3 L28.7 46.8 Q27.4 47.2 25.45 49.15 L22.35 52.5 Q22.25 51.65 23.45 50.15 L25.5 47.9 Q24.1 48.15 22.55 50.3 21.5 51.7 20.2 54.25 20.1 54.75 20.45 54.9 L21.25 54.95 21.1 55.3 20.9 55.7 19.85 56.05 Q20.05 52.75 23.05 48.75 25.45 45.5 28.7 42.95 29.5 42.3 31.55 41.25 L34.75 39.4 35.3 39.1 36.15 38.7 37.5 37.7 Q38.45 37.05 39.35 36.55 L42.4 34.85 Q44.25 33.75 45.35 32.65 46.05 33.35 45.0 33.9 43.75 34.55 43.95 35.15 43.1 34.65 42.0 35.45 L40.4 36.9 Q40.65 37.4 41.25 36.8 42.05 36.1 42.5 36.2 L40.9 37.7 Q39.95 38.65 39.35 37.6 L39.4 38.9 Q39.25 39.65 38.25 40.1 39.4 40.2 40.45 39.0 L42.15 36.9 43.75 35.85 45.35 34.8 48.5 31.8 51.7 29.1 Q51.8 28.3 52.7 27.35 53.55 26.45 53.85 26.65 M29.4 44.0 Q28.75 44.0 28.3 44.5 L27.65 45.4 Q28.35 45.4 28.8 45.0 L29.4 44.0 M34.8 42.0 Q36.1 41.1 35.8 40.45 L33.85 41.95 Q32.55 42.9 32.95 43.65 33.15 43.1 34.8 42.0 M26.25 47.55 Q26.05 47.1 26.95 46.6 27.65 46.15 26.95 45.75 L26.1 46.6 Q25.5 47.1 26.25 47.55" fill="#32910f" fill-rule="evenodd" stroke="none"/>
    <path d="M52.8 19.55 Q53.75 19.35 53.85 20.45 53.95 21.5 53.5 22.05 52.85 21.6 52.9 20.9 L52.8 19.55" fill="#32910f" fill-rule="evenodd" stroke="none"/>
    <path d="M55.25 21.3 Q54.65 24.75 50.9 27.8 L44.3 32.3 41.45 34.3 39.7 35.5 Q37.7 36.45 39.0 35.6 L41.45 34.05 44.4 32.1 47.45 29.45 Q48.55 29.55 49.4 28.6 50.4 27.5 51.0 27.35 50.8 26.55 51.2 26.0 L51.7 24.85 Q52.3 25.0 52.0 25.4 51.55 26.0 51.7 26.3 52.75 25.95 53.45 23.8 54.15 21.65 55.25 21.3" fill="#32910f" fill-rule="evenodd" stroke="none"/>
    <path d="M54.2 34.05 L52.35 35.8 Q51.3 36.95 50.3 37.25 L52.1 35.5 Q53.2 34.45 54.2 34.05" fill="#32910f" fill-rule="evenodd" stroke="none"/>
    <path d="M52.45 22.05 L52.45 23.1 Q52.0 23.2 51.8 22.85 L51.35 22.4 51.75 22.1 52.45 22.05" fill="#32910f" fill-rule="evenodd" stroke="none"/>
    <path d="M51.7 32.3 Q51.8 32.8 51.5 33.15 L50.9 33.5 Q50.6 33.55 50.75 33.25 50.9 32.9 51.7 32.3" fill="#32910f" fill-rule="evenodd" stroke="none"/>
    <path d="M51.0 35.15 Q51.45 35.6 50.55 36.35 49.75 37.0 48.9 37.25 L50.05 36.3 51.0 35.15" fill="#32910f" fill-rule="evenodd" stroke="none"/>
    <path d="M49.6 37.95 Q50.0 37.6 49.6 38.05 L48.9 39.05 Q47.9 39.05 48.55 38.6 L49.6 37.95" fill="#32910f" fill-rule="evenodd" stroke="none"/>
    <path d="M48.2 36.9 Q48.6 36.5 48.2 37.0 L47.45 37.95 Q46.5 38.0 47.15 37.55 L48.2 36.9" fill="#32910f" fill-rule="evenodd" stroke="none"/>
    <path d="M47.45 38.3 Q48.0 38.45 47.6 38.75 47.05 39.15 47.1 39.4 46.45 39.2 46.85 38.85 L47.45 38.3" fill="#32910f" fill-rule="evenodd" stroke="none"/>
    <path d="M46.4 42.95 Q46.65 43.0 46.7 43.35 L46.75 44.0 Q46.45 43.8 46.3 43.75 46.1 43.7 46.05 44.0 45.5 43.9 45.9 43.6 46.5 43.15 46.4 42.95" fill="#32910f" fill-rule="evenodd" stroke="none"/>
    <path d="M45.0 39.05 Q45.6 39.4 44.85 39.85 43.85 40.4 43.95 40.8 43.3 40.45 44.1 40.0 45.05 39.4 45.0 39.05" fill="#32910f" fill-rule="evenodd" stroke="none"/>
    <path d="M46.05 39.4 Q45.8 40.65 44.35 41.9 L41.8 44.0 40.15 45.75 38.25 47.55 32.25 51.6 25.85 55.7 Q25.7 55.1 26.9 54.4 L29.05 53.2 34.2 49.4 Q37.9 46.4 39.35 45.4 40.2 44.1 42.65 42.35 45.2 40.55 46.05 39.4" fill="#32910f" fill-rule="evenodd" stroke="none"/>
    <path d="M44.3 44.7 Q43.65 46.2 42.15 46.8 L42.55 45.95 Q43.45 44.55 44.3 44.7" fill="#32910f" fill-rule="evenodd" stroke="none"/>
    <path d="M43.6 37.95 Q44.25 38.2 43.85 38.5 L43.25 39.05 Q42.7 38.95 43.1 38.6 L43.6 37.95" fill="#32910f" fill-rule="evenodd" stroke="none"/>
    <path d="M33.65 54.6 Q30.1 58.7 26.25 58.15 37.25 53.3 45.0 45.05 44.3 46.8 41.5 49.0 L36.5 52.85 35.7 53.75 34.75 54.6 34.2 54.6 33.65 54.6" fill="#32910f" fill-rule="evenodd" stroke="none"/>
    <path d="M40.4 48.25 Q40.6 47.55 41.45 47.55 41.2 48.25 40.4 48.25" fill="#32910f" fill-rule="evenodd" stroke="none"/>
    <path d="M40.05 34.45 Q39.45 34.35 40.0 33.8 40.55 33.25 41.1 33.35 41.1 33.7 40.5 33.85 39.95 34.0 40.05 34.45" fill="#32910f" fill-rule="evenodd" stroke="none"/>
    <path d="M40.05 47.2 Q39.45 47.1 40.0 46.55 40.55 46.0 41.1 46.1 41.1 46.45 40.5 46.6 39.95 46.75 40.05 47.2" fill="#32910f" fill-rule="evenodd" stroke="none"/>
    <path d="M35.1 46.8 L38.95 43.95 42.85 40.8 Q41.4 42.75 37.7 45.3 L31.2 49.65 26.6 52.85 Q26.0 52.25 26.6 52.05 L27.65 51.8 30.5 49.65 31.05 48.95 31.55 48.25 33.3 47.55 35.1 46.8" fill="#32910f" fill-rule="evenodd" stroke="none"/>
    <path d="M39.0 47.9 L37.1 49.6 34.0 51.8 Q34.25 51.05 36.0 49.8 L39.0 47.9" fill="#32910f" fill-rule="evenodd" stroke="none"/>
    <path d="M35.8 40.45 Q36.1 41.1 34.8 42.0 33.15 43.1 32.95 43.65 32.55 42.9 33.85 41.95 L35.8 40.45" fill="#000000" fill-rule="evenodd" stroke="none"/>
    <path d="M32.25 54.25 Q32.55 54.35 30.55 55.4 28.45 56.5 27.3 56.75 28.15 56.1 29.65 55.4 L32.25 54.25" fill="#32910f" fill-rule="evenodd" stroke="none"/>
    <path d="M29.75 40.8 Q27.55 42.6 30.2 40.3 31.25 39.35 31.9 39.4 L29.75 40.8" fill="#32910f" fill-rule="evenodd" stroke="none"/>
    <path d="M30.1 51.45 Q29.75 51.8 30.35 51.1 31.35 50.3 31.9 50.35 L31.15 51.05 Q30.65 51.4 30.1 51.45" fill="#32910f" fill-rule="evenodd" stroke="none"/>
    <path d="M29.65 0.15 L29.5 0.0 29.6 0.0 29.65 0.15" fill="#000000" fill-rule="evenodd" stroke="none"/>
    <path d="M28.2 52.95 L26.25 53.9 Q26.5 53.25 27.5 52.75 L29.05 51.8 Q29.35 52.2 28.2 52.95" fill="#32910f" fill-rule="evenodd" stroke="none"/>
    <path d="M29.4 44.0 L28.8 45.0 Q28.35 45.4 27.65 45.4 L28.3 44.5 Q28.75 44.0 29.4 44.0" fill="#000000" fill-rule="evenodd" stroke="none"/>
    <path d="M28.05 41.05 Q26.7 42.1 26.6 42.55 26.1 42.1 27.1 41.4 27.5 41.05 28.7 40.45 L28.05 41.05" fill="#32910f" fill-rule="evenodd" stroke="none"/>
    <path d="M26.2 43.5 Q28.3 41.8 28.7 41.15 28.7 42.0 26.95 43.4 24.85 44.95 24.45 45.75 24.5 44.9 26.2 43.5" fill="#32910f" fill-rule="evenodd" stroke="none"/>
    <path d="M26.95 45.75 Q27.65 46.15 26.95 46.6 26.05 47.1 26.25 47.55 25.5 47.1 26.1 46.6 L26.95 45.75" fill="#000000" fill-rule="evenodd" stroke="none"/>
    <path d="M24.8 43.3 Q25.45 43.55 24.95 43.85 24.25 44.25 24.45 44.7 23.8 44.5 24.25 44.05 L24.8 43.3" fill="#32910f" fill-rule="evenodd" stroke="none"/>
    <path d="M23.4 45.05 Q23.55 44.7 23.65 44.75 L23.7 45.1 Q23.6 45.95 23.05 45.75 22.6 46.3 22.85 45.85 L23.4 45.05" fill="#32910f" fill-rule="evenodd" stroke="none"/>
    <path d="M23.4 51.8 Q24.1 52.0 23.65 52.3 L23.05 52.85 Q22.5 52.75 22.9 52.45 23.45 52.0 23.4 51.8" fill="#32910f" fill-rule="evenodd" stroke="none"/>
    <path d="M23.05 58.15 Q22.85 58.5 22.25 58.65 L21.25 58.85 21.25 57.8 Q22.3 57.65 23.05 58.15" fill="#32910f" fill-rule="evenodd" stroke="none"/>
    <path d="M20.55 57.1 Q20.8 56.4 21.6 56.4 21.35 57.1 20.55 57.1" fill="#32910f" fill-rule="evenodd" stroke="none"/>
    <path d="M17.75 56.05 Q18.6 55.45 19.85 56.9 21.05 58.35 20.55 59.2 19.55 58.95 18.85 57.95 L17.75 56.05" fill="#32910f" fill-rule="evenodd" stroke="none"/>
    <path d="M18.8 51.45 L18.95 51.05 19.15 51.4 Q19.4 52.35 18.8 52.15 18.45 52.6 18.6 52.3 L18.8 51.45" fill="#32910f" fill-rule="evenodd" stroke="none"/>
    <path d="M18.1 53.55 Q18.15 53.1 18.35 53.5 L18.45 54.25 Q18.35 54.75 18.15 54.35 18.0 53.95 18.1 53.55" fill="#32910f" fill-rule="evenodd" stroke="none"/>
  </g>
</svg>
