<?xml version="1.0" encoding="UTF-8" standalone="no"?>
<svg xmlns:xlink="http://www.w3.org/1999/xlink" height="60.0px" width="75.0px" xmlns="http://www.w3.org/2000/svg">
  <g transform="matrix(1, 0, 0, 1, -11.95, 0.0)">
    <path d="M70.85 6.95 L74.0 7.45 Q74.5 7.65 76.95 9.4 L80.1 11.8 Q84.35 16.4 86.15 25.1 87.95 34.05 85.65 40.45 84.75 42.85 81.65 47.3 78.55 51.8 76.75 53.1 74.9 54.5 69.6 56.7 64.15 58.9 61.25 59.4 L46.8 59.9 Q34.1 59.4 25.15 53.7 15.85 47.85 12.4 37.55 10.0 20.45 20.15 12.3 28.65 5.4 47.35 4.05 48.1 3.9 47.95 2.65 L47.9 0.6 52.9 0.15 Q54.8 0.75 54.55 4.05 L58.75 4.1 63.45 4.5 Q64.15 4.7 65.3 5.4 66.5 6.2 67.35 6.45 L70.85 6.95 M75.1 11.3 L71.9 10.25 68.6 8.9 Q64.5 7.45 61.25 8.4 L64.55 8.4 Q70.65 10.15 75.0 15.45 79.0 20.3 80.7 27.1 82.4 33.65 81.4 40.05 80.4 46.75 76.75 51.15 80.45 47.15 82.2 44.1 84.6 40.0 85.1 35.1 85.85 27.8 82.05 21.15 L78.5 16.0 75.1 11.3 M75.1 16.15 Q72.2 12.1 66.9 10.35 61.75 8.6 56.8 9.85 L60.35 10.15 Q62.25 10.9 63.45 10.85 L67.85 15.0 Q70.5 17.5 71.8 20.05 74.25 25.1 74.9 31.95 75.6 39.05 74.0 44.85 73.4 46.95 70.95 50.75 68.7 54.2 68.45 56.0 73.75 53.5 77.25 48.3 80.95 42.9 81.2 36.55 81.35 33.05 80.25 29.2 L77.9 22.95 76.4 19.1 75.1 16.15 M81.55 18.65 L84.55 23.45 Q82.6 16.75 79.1 12.8 74.7 7.85 68.45 7.9 74.3 9.15 78.4 14.05 L81.55 18.65 M70.8 20.45 Q68.3 15.7 64.6 13.2 60.55 10.45 55.7 10.85 57.0 11.0 58.0 12.05 58.6 12.6 59.55 14.25 61.55 17.5 62.95 23.75 64.25 29.85 64.55 36.65 65.2 52.75 60.1 58.45 65.7 57.2 66.8 56.0 68.7 53.9 70.65 50.05 72.7 45.95 73.45 42.4 74.6 36.65 73.85 30.85 73.15 25.1 70.8 20.45 M12.7 29.45 Q12.3 36.15 15.75 41.45 13.55 34.65 14.4 28.3 15.3 22.15 18.8 17.35 22.35 12.55 27.9 9.95 33.7 7.25 40.7 7.45 33.15 6.0 26.6 9.0 20.6 11.75 16.8 17.5 13.05 23.05 12.7 29.45 M45.9 6.25 Q46.9 7.0 47.9 6.95 48.2 5.75 46.55 5.1 44.9 4.55 44.05 5.5 44.9 5.5 45.9 6.25 M44.6 6.45 Q43.5 5.7 40.35 6.05 39.25 6.15 39.5 6.3 L41.8 6.45 43.25 6.8 Q44.0 6.95 44.6 6.45 M50.85 6.3 Q50.45 9.0 50.7 9.85 51.35 10.45 52.35 10.1 L54.55 9.85 53.45 4.75 Q52.6 1.85 50.7 2.1 51.2 3.7 50.85 6.3 M54.55 5.95 Q54.95 6.75 55.95 6.1 L57.35 5.0 54.55 5.0 54.55 5.95 M29.6 19.1 L28.4 19.9 Q27.55 20.3 27.4 20.55 23.95 24.9 23.4 31.35 22.9 37.25 24.95 43.25 27.0 49.2 30.8 53.05 34.85 57.15 39.6 57.45 32.75 53.8 31.25 40.45 30.15 30.5 35.25 21.8 40.05 13.6 47.9 10.35 L46.8 10.35 Q41.3 9.65 36.55 12.75 34.35 14.2 29.6 19.1 M38.55 10.85 L44.6 8.9 Q36.55 8.65 31.6 11.15 27.9 13.05 23.5 18.1 20.2 21.9 18.9 26.3 17.6 30.65 17.95 36.55 L20.85 43.75 Q22.5 48.4 24.05 50.65 25.75 51.6 29.3 54.45 32.6 56.75 35.15 56.5 27.85 53.45 24.55 45.3 21.45 37.75 22.95 28.8 23.45 25.5 26.1 22.0 26.85 20.95 30.7 16.65 L31.85 15.1 32.95 13.75 Q35.0 12.0 38.55 10.85 M33.55 28.1 Q31.8 34.2 32.4 40.9 32.95 47.7 35.7 53.6 L39.5 56.3 43.5 58.9 50.7 58.9 Q47.8 54.8 46.7 42.95 45.7 31.85 46.8 22.0 47.25 17.7 47.9 15.7 L49.7 13.15 Q50.85 11.65 49.6 11.3 43.5 12.85 39.25 17.5 35.3 21.8 33.55 28.1 M30.7 9.85 Q23.5 12.3 19.35 18.25 15.0 24.4 15.15 32.7 15.2 35.35 16.2 38.6 17.0 41.3 17.95 42.9 L17.95 43.85 Q17.8 44.55 17.95 44.85 L19.95 47.6 22.4 50.2 24.95 53.05 Q26.5 54.5 27.95 54.05 25.25 53.25 22.95 50.2 20.95 47.65 19.05 42.35 17.05 37.0 16.85 33.65 16.35 26.4 21.5 19.45 23.7 16.45 30.7 9.85 M54.0 10.85 Q50.5 12.25 48.95 16.75 47.9 19.95 47.35 26.85 46.45 38.05 47.65 46.6 49.25 58.5 54.55 58.9 60.0 59.4 62.5 52.1 64.3 46.75 64.0 40.0 63.55 29.9 60.1 19.1 L58.35 14.05 Q57.05 11.55 54.55 11.3 L54.45 10.9 54.0 10.85 M56.25 7.9 Q58.0 7.15 62.25 7.1 L67.9 6.95 Q64.85 5.35 60.9 5.45 56.6 5.6 56.25 7.9 M15.75 41.9 Q15.25 42.65 15.95 43.3 16.65 43.9 16.85 42.9 L16.25 42.45 15.75 41.9" fill="#000000" fill-rule="evenodd" stroke="none"/>
    <path d="M75.1 11.3 L78.5 16.0 82.05 21.15 Q85.85 27.8 85.1 35.1 84.6 40.0 82.2 44.1 80.45 47.15 76.75 51.15 80.4 46.75 81.4 40.05 82.4 33.65 80.7 27.1 79.0 20.3 75.0 15.45 70.65 10.15 64.55 8.4 L61.25 8.4 Q64.5 7.45 68.6 8.9 L71.9 10.25 75.1 11.3" fill="#ea4b1b" fill-rule="evenodd" stroke="none"/>
    <path d="M77.9 22.95 L80.25 29.2 Q81.35 33.05 81.2 36.55 80.95 42.9 77.25 48.3 73.75 53.5 68.45 56.0 68.7 54.2 70.95 50.75 73.4 46.95 74.0 44.85 75.6 39.05 74.9 31.95 74.25 25.1 71.8 20.05 70.5 17.5 67.85 15.0 L63.45 10.85 Q62.25 10.9 60.35 10.15 L56.8 9.85 Q61.75 8.6 66.9 10.35 72.2 12.1 75.1 16.15 L76.4 19.1 77.9 22.95" fill="#ea4b1b" fill-rule="evenodd" stroke="none"/>
    <path d="M84.55 23.45 L81.55 18.65 78.4 14.05 Q74.3 9.15 68.45 7.9 74.7 7.85 79.1 12.8 82.6 16.75 84.55 23.45" fill="#ea4b1b" fill-rule="evenodd" stroke="none"/>
    <path d="M73.85 30.85 Q74.6 36.65 73.45 42.4 72.7 45.95 70.65 50.05 68.7 53.9 66.8 56.0 65.7 57.2 60.1 58.45 65.2 52.75 64.55 36.65 64.25 29.85 62.95 23.75 61.55 17.5 59.55 14.25 58.6 12.6 58.0 12.05 57.0 11.0 55.7 10.85 60.55 10.45 64.6 13.2 68.3 15.7 70.8 20.45 73.15 25.1 73.85 30.85" fill="#ea4b1b" fill-rule="evenodd" stroke="none"/>
    <path d="M60.9 5.45 Q64.85 5.35 67.9 6.95 L62.25 7.1 Q58.0 7.15 56.25 7.9 56.6 5.6 60.9 5.45" fill="#ea4b1b" fill-rule="evenodd" stroke="none"/>
    <path d="M60.1 19.1 Q63.55 29.9 64.0 40.0 64.3 46.75 62.5 52.1 60.0 59.4 54.55 58.9 49.25 58.5 47.65 46.6 46.45 38.05 47.35 26.85 47.9 19.95 48.95 16.75 50.5 12.25 54.0 10.85 L54.45 10.9 54.55 11.3 Q57.05 11.55 58.35 14.05 L60.1 19.1" fill="#ea4b1b" fill-rule="evenodd" stroke="none"/>
    <path d="M54.55 5.0 L57.35 5.0 55.95 6.1 Q54.95 6.75 54.55 5.95 L54.55 5.0" fill="#ea4b1b" fill-rule="evenodd" stroke="none"/>
    <path d="M53.45 4.75 L54.55 9.85 52.35 10.1 Q51.35 10.45 50.7 9.85 50.45 9.0 50.85 6.3 51.2 3.7 50.7 2.1 52.6 1.85 53.45 4.75" fill="#a0230e" fill-rule="evenodd" stroke="none"/>
    <path d="M39.25 17.5 Q43.5 12.85 49.6 11.3 50.85 11.65 49.7 13.15 L47.9 15.7 Q47.25 17.7 46.8 22.0 45.7 31.85 46.7 42.95 47.8 54.8 50.7 58.9 L43.5 58.9 39.5 56.3 35.7 53.6 Q32.95 47.7 32.4 40.9 31.8 34.2 33.55 28.1 35.3 21.8 39.25 17.5" fill="#ea4b1b" fill-rule="evenodd" stroke="none"/>
    <path d="M44.05 5.5 Q44.9 4.55 46.55 5.1 48.2 5.75 47.9 6.95 46.9 7.0 45.9 6.25 44.9 5.5 44.05 5.5" fill="#ea4b1b" fill-rule="evenodd" stroke="none"/>
    <path d="M36.55 12.75 Q41.3 9.65 46.8 10.35 L47.9 10.35 Q40.05 13.6 35.25 21.8 30.15 30.5 31.25 40.45 32.75 53.8 39.6 57.45 34.85 57.15 30.8 53.05 27.0 49.2 24.95 43.25 22.9 37.25 23.4 31.35 23.95 24.9 27.4 20.55 27.55 20.3 28.4 19.9 L29.6 19.1 Q34.35 14.2 36.55 12.75" fill="#ea4b1b" fill-rule="evenodd" stroke="none"/>
    <path d="M23.5 18.1 Q27.9 13.05 31.6 11.15 36.55 8.65 44.6 8.9 L38.55 10.85 Q35.0 12.0 32.95 13.75 L31.85 15.1 30.7 16.65 Q26.85 20.95 26.1 22.0 23.45 25.5 22.95 28.8 21.45 37.75 24.55 45.3 27.85 53.45 35.15 56.5 32.6 56.75 29.3 54.45 25.75 51.6 24.05 50.65 22.5 48.4 20.85 43.75 L17.95 36.55 Q17.6 30.65 18.9 26.3 20.2 21.9 23.5 18.1" fill="#ea4b1b" fill-rule="evenodd" stroke="none"/>
    <path d="M41.8 6.45 L39.5 6.3 Q39.25 6.15 40.35 6.05 43.5 5.7 44.6 6.45 44.0 6.95 43.25 6.8 L41.8 6.45" fill="#ea4b1b" fill-rule="evenodd" stroke="none"/>
    <path d="M16.8 17.5 Q20.6 11.75 26.6 9.0 33.15 6.0 40.7 7.45 33.7 7.25 27.9 9.95 22.35 12.55 18.8 17.35 15.3 22.15 14.4 28.3 13.55 34.65 15.75 41.45 12.3 36.15 12.7 29.45 13.05 23.05 16.8 17.5" fill="#ea4b1b" fill-rule="evenodd" stroke="none"/>
    <path d="M21.5 19.45 Q16.35 26.4 16.85 33.65 17.05 37.0 19.05 42.35 20.95 47.65 22.95 50.2 25.25 53.25 27.95 54.05 26.5 54.5 24.95 53.05 L22.4 50.2 19.95 47.6 17.95 44.85 Q17.8 44.55 17.95 43.85 L17.95 42.9 Q17.0 41.3 16.2 38.6 15.2 35.35 15.15 32.7 15.0 24.4 19.35 18.25 23.5 12.3 30.7 9.85 23.7 16.45 21.5 19.45" fill="#ea4b1b" fill-rule="evenodd" stroke="none"/>
    <path d="M16.85 42.9 Q16.65 43.9 15.95 43.3 15.25 42.65 15.75 41.9 L16.25 42.45 16.85 42.9" fill="#ea4b1b" fill-rule="evenodd" stroke="none"/>
  </g>
</svg>
