<?xml version="1.0" encoding="UTF-8" standalone="no"?>
<svg xmlns:xlink="http://www.w3.org/1999/xlink" height="60.05px" width="29.55px" xmlns="http://www.w3.org/2000/svg">
  <g transform="matrix(1, 0, 0, 1, -35.0, 0.0)">
    <path d="M55.75 6.0 L55.2 10.85 Q57.2 9.9 58.7 8.55 59.5 9.4 58.6 10.3 L57.15 11.65 Q58.05 11.6 60.5 10.25 63.1 8.8 64.55 8.55 64.2 9.6 63.15 10.65 L61.4 12.45 62.0 13.65 Q62.1 14.1 61.4 14.75 L62.65 14.9 64.55 14.75 61.9 16.6 59.1 18.25 Q57.0 19.85 55.2 22.15 55.25 22.45 55.45 22.4 L55.6 22.15 Q56.25 22.35 55.95 23.0 55.55 23.85 55.6 24.05 L57.15 23.7 58.7 23.3 58.05 24.4 56.75 24.85 Q57.15 25.55 58.2 25.2 L59.85 24.85 Q59.4 26.25 58.15 27.4 L55.6 29.1 Q55.75 29.9 56.3 29.8 L57.55 29.5 60.2 33.25 62.6 37.25 Q62.2 38.95 62.5 40.95 L63.2 44.2 Q63.6 46.0 63.5 47.0 63.35 48.4 62.2 49.3 62.85 51.45 61.05 53.7 L59.5 55.5 Q58.6 56.6 58.3 57.45 53.85 59.65 50.4 60.0 45.75 60.4 42.4 57.45 38.65 58.0 37.4 54.35 L36.45 51.15 Q35.9 49.35 35.05 48.55 34.8 45.1 35.4 41.6 L36.2 35.35 Q37.15 34.65 38.8 32.3 40.3 30.2 41.65 29.5 L40.65 27.0 Q40.1 25.45 39.3 24.85 40.15 24.75 40.7 23.9 L41.65 22.5 Q41.3 22.15 40.5 21.75 L39.3 20.95 Q39.65 20.3 40.5 20.65 L42.0 20.95 Q41.15 20.25 40.2 18.0 39.25 15.75 38.15 14.75 L38.75 14.9 39.3 15.15 Q39.1 14.55 37.8 13.95 36.65 13.4 36.6 12.45 39.0 12.9 40.85 14.0 40.65 12.7 39.5 10.85 38.35 9.0 38.15 7.75 L40.15 9.5 Q41.3 10.45 42.4 10.85 41.4 7.95 41.65 2.35 43.4 3.9 44.35 5.45 45.55 7.35 45.9 9.7 L47.4 4.8 Q48.25 1.8 49.0 0.0 49.95 1.05 50.45 2.85 50.85 4.35 50.95 6.6 52.35 6.25 53.85 4.05 55.3 1.95 56.75 1.55 56.15 3.35 55.75 6.0 M58.6 13.1 Q60.2 11.75 59.85 11.25 57.15 12.95 56.45 13.55 54.55 15.2 54.85 16.7 55.1 16.2 56.15 15.85 57.25 15.5 57.55 15.15 57.05 14.5 58.6 13.1 M59.3 13.2 Q58.4 13.85 58.3 14.75 59.25 14.85 60.3 13.3 61.4 11.55 60.65 12.05 L59.3 13.2 M59.1 16.7 Q53.25 19.4 53.65 22.15 54.3 20.6 56.05 19.1 L59.1 16.7 M49.0 1.95 L47.25 7.65 Q46.35 11.45 48.6 12.8 48.4 11.2 49.25 9.8 L50.55 7.4 50.0 4.45 Q49.65 2.7 49.0 1.95 M50.95 15.15 Q50.95 16.25 51.35 17.3 L52.1 19.05 Q51.85 17.3 53.3 15.3 54.7 13.35 54.45 12.45 L50.95 15.15 M54.4 10.95 Q55.5 8.45 54.45 5.85 54.25 7.2 52.55 10.1 51.1 12.55 51.35 14.0 53.35 13.15 54.4 10.95 M49.8 14.0 L52.15 9.65 Q53.5 6.95 53.65 5.45 L50.6 9.1 Q48.85 11.5 49.8 14.0 M45.5 10.1 Q44.95 7.95 43.55 5.85 L43.9 7.65 43.95 9.7 Q45.0 9.65 45.5 10.1 M43.25 7.35 Q43.3 6.0 42.4 5.45 L42.95 10.75 Q43.25 13.95 43.95 15.55 44.6 14.4 44.1 12.65 L43.2 9.7 43.25 7.35 M40.45 11.25 Q40.9 11.45 41.5 13.4 42.05 14.95 42.8 14.35 42.3 14.25 42.35 13.25 L42.4 11.65 Q41.95 11.85 41.2 11.2 L40.45 11.25 M43.05 18.75 Q42.9 18.2 42.4 18.25 L42.35 18.55 42.0 18.65 42.0 19.4 Q42.45 19.15 43.1 19.6 43.55 19.9 43.55 19.4 43.2 19.4 43.05 18.75 M46.3 17.85 Q46.95 18.05 47.15 17.4 47.35 16.65 47.85 16.7 L49.25 18.2 Q50.05 19.0 50.95 19.4 50.7 16.55 48.9 14.45 L45.15 11.25 45.15 17.1 Q46.0 17.1 46.3 17.85 M45.1 19.2 L45.9 19.4 47.05 21.15 Q47.75 22.2 48.6 21.75 L45.2 17.85 Q43.0 15.7 41.25 15.55 42.15 16.1 43.05 17.35 L44.75 19.4 Q44.55 19.25 45.1 19.2 M41.75 17.8 L42.0 18.25 41.65 18.5 41.95 18.5 Q42.7 18.15 42.4 17.45 L41.65 17.3 Q41.3 17.2 41.25 17.45 41.55 17.55 41.75 17.8 M42.85 24.85 L43.3 24.95 43.25 24.45 Q43.05 24.0 42.4 23.7 42.55 24.5 42.85 24.85 M44.35 23.3 Q44.55 23.4 45.8 24.45 46.75 25.25 47.05 24.85 46.45 23.95 45.0 23.15 43.5 22.35 42.8 22.5 43.2 22.55 43.85 23.7 44.35 24.65 44.75 24.05 44.4 24.0 44.2 23.7 44.0 23.4 44.35 23.3 M43.55 20.95 Q44.45 21.25 46.4 23.05 48.05 24.6 49.0 24.45 47.6 22.7 46.6 21.9 44.95 20.55 43.55 20.95 M54.8 18.25 L56.75 16.7 Q55.2 17.1 54.0 17.95 52.55 18.95 52.9 19.8 L54.8 18.25 M53.25 17.45 Q53.95 17.75 53.65 16.7 L53.45 16.25 Q53.3 16.2 53.25 16.7 L53.05 17.65 Q52.95 17.95 53.25 17.45 M50.55 24.05 Q51.9 22.95 50.85 21.2 50.05 19.9 48.6 19.05 48.7 20.35 49.35 21.75 L50.55 24.05 M52.5 23.7 Q52.25 23.1 52.65 21.55 52.9 20.45 52.1 20.6 51.45 21.0 51.75 22.2 52.0 23.3 52.5 23.7 M51.7 27.95 L51.05 28.5 Q51.1 28.7 51.45 28.7 51.85 28.7 52.0 28.5 52.15 28.3 51.7 27.95 M48.15 27.9 Q47.15 27.85 47.05 28.35 47.45 29.0 48.5 28.95 49.55 28.95 49.8 27.95 L48.15 27.9 M48.6 25.7 Q46.9 25.35 45.9 26.0 L48.3 26.9 Q49.5 27.45 50.55 27.2 50.4 26.1 48.6 25.7 M48.35 34.45 L48.8 34.6 48.75 34.1 Q48.5 33.7 47.85 33.4 48.05 34.15 48.35 34.45 M50.25 34.65 L50.55 34.95 Q50.9 34.9 50.7 34.05 50.55 33.25 50.15 34.15 50.05 34.35 50.25 34.65 M50.65 32.1 Q50.75 32.65 51.35 33.0 51.35 31.2 50.15 30.65 L50.65 32.1 M53.25 31.05 Q53.5 30.3 54.35 29.45 L55.6 27.95 Q54.15 27.9 53.75 28.9 L52.9 30.3 Q52.3 29.9 51.5 29.65 50.4 29.35 50.15 29.9 50.85 29.95 51.7 30.5 52.6 31.05 53.25 31.05 M54.8 33.6 L55.6 34.15 Q55.85 32.3 54.15 32.65 53.5 32.75 53.0 33.2 52.5 33.65 52.5 34.15 52.8 34.55 54.05 34.9 55.3 35.25 54.85 34.55 53.3 34.9 53.65 33.4 L54.8 33.6 M54.05 31.45 Q54.15 31.9 55.2 31.9 56.25 31.85 56.4 32.25 L56.4 30.65 Q55.8 30.55 55.5 31.2 55.2 31.75 54.45 31.45 L54.35 30.95 54.05 30.65 54.05 31.45 M52.1 25.5 L54.05 24.05 Q51.45 23.8 50.15 25.25 50.85 26.2 52.1 25.5 M44.7 26.05 L44.35 25.65 44.0 26.25 43.55 26.8 44.5 26.75 Q45.05 26.75 45.15 26.4 44.85 26.4 44.7 26.05 M41.25 25.65 L41.25 26.8 Q41.3 27.45 42.0 27.2 41.9 26.0 41.25 25.65 M39.85 34.0 Q39.4 33.4 38.9 33.4 38.85 33.8 38.2 34.25 37.65 34.65 37.75 35.35 L38.5 36.55 Q38.9 37.3 39.7 37.25 41.15 36.85 40.85 34.55 40.3 34.6 39.85 34.0 M40.85 31.45 Q41.15 32.15 41.4 32.1 41.6 32.1 41.6 31.7 41.6 31.3 41.4 31.2 41.2 31.0 40.85 31.45 M42.9 31.2 L43.25 30.95 Q43.3 30.7 42.8 30.3 42.4 30.75 42.5 31.0 42.6 31.25 42.9 31.2 M45.9 31.45 Q45.55 32.2 46.3 32.7 47.05 33.25 47.05 32.6 46.6 32.7 46.4 32.1 46.25 31.45 45.9 31.45 M43.6 32.25 L43.2 32.6 Q43.55 32.65 43.75 33.4 43.95 34.15 44.35 34.15 45.05 33.6 44.9 32.95 44.8 32.25 43.95 31.85 L43.6 32.25 M46.3 34.15 Q47.05 34.45 47.05 35.35 44.95 34.05 45.3 34.9 45.65 35.75 47.45 36.1 48.0 35.05 46.9 34.2 L46.25 33.85 Q46.0 33.85 46.3 34.15 M43.2 36.1 Q44.85 35.95 44.75 37.25 L43.85 37.35 Q43.45 37.55 43.55 38.05 43.7 38.5 44.65 37.85 45.6 37.25 45.5 36.5 45.45 35.7 44.4 35.4 43.4 35.1 43.2 36.1 M44.35 38.85 L43.45 39.9 Q42.75 40.4 42.8 41.15 L44.75 41.0 46.3 39.6 45.0 39.7 43.95 40.0 Q43.85 39.75 44.5 39.3 44.95 38.95 44.35 38.85 M46.95 39.15 Q47.3 40.25 48.25 40.0 48.55 38.8 47.4 38.2 46.25 37.65 45.5 38.45 46.6 38.1 46.95 39.15 M42.4 37.25 Q40.35 37.5 39.4 38.4 38.3 39.45 38.55 41.55 L40.1 40.7 42.0 40.75 Q41.9 40.05 42.5 39.55 43.2 39.0 43.2 38.45 L42.8 37.85 Q42.45 37.55 42.4 37.25 M42.85 34.9 Q43.5 34.25 42.8 33.8 L42.1 35.1 Q41.65 36.0 42.4 36.5 42.05 35.7 42.85 34.9 M39.7 43.85 Q41.05 44.05 42.4 45.05 L43.05 43.75 Q43.4 42.95 43.2 41.95 L40.1 42.05 Q38.75 43.0 39.3 44.25 L39.4 43.95 Q39.45 43.85 39.7 43.85 M43.95 43.5 Q45.4 43.2 47.15 44.25 48.75 45.25 49.4 45.05 49.65 43.45 48.9 42.35 48.25 41.4 47.15 41.15 46.1 40.9 45.2 41.45 44.2 42.1 43.95 43.5 M52.5 39.2 Q53.2 39.7 54.35 38.9 L56.4 38.85 Q56.7 37.75 56.45 37.1 L55.6 35.7 Q53.8 35.55 52.85 36.7 51.95 37.85 52.5 39.2 M52.7 35.45 Q52.55 34.75 51.7 34.55 L51.7 36.1 Q52.9 36.15 52.7 35.45 M48.05 36.25 Q47.3 36.9 47.05 37.65 48.15 37.35 48.7 38.15 49.35 39.15 49.8 39.2 49.85 38.75 50.4 38.5 L51.35 38.05 Q51.6 35.3 49.55 35.6 48.75 35.7 48.05 36.25 M50.55 43.85 Q51.55 43.15 53.25 42.7 53.55 40.05 51.85 39.6 50.45 39.25 48.6 40.4 L49.5 42.2 50.55 43.85 M54.05 42.7 L55.85 42.55 57.55 42.3 Q57.65 40.9 56.75 40.4 56.95 41.2 56.5 41.45 L55.5 41.35 Q54.95 41.0 54.9 40.55 54.85 40.0 55.6 39.6 54.4 39.4 54.15 40.5 L54.05 42.7 M38.15 39.2 Q38.5 38.15 38.35 37.45 38.15 36.4 37.0 36.5 L37.15 38.3 Q37.35 39.2 38.15 39.2 M37.8 40.35 Q37.85 39.55 37.35 39.6 37.1 40.4 36.2 40.4 36.05 41.75 37.75 41.55 L37.8 40.35 M35.4 43.85 Q35.3 45.7 35.8 46.2 L36.85 45.9 38.15 45.8 Q38.0 44.95 38.2 44.15 L38.55 42.7 Q37.95 42.75 37.35 42.3 36.75 41.9 36.2 41.95 L36.05 42.7 Q35.9 43.0 36.2 43.1 36.35 42.35 37.2 43.45 38.0 44.65 37.35 44.65 36.85 43.85 36.65 44.2 L35.8 45.05 35.75 43.8 Q35.65 43.05 35.4 43.85 M38.55 47.35 Q39.3 47.5 39.65 46.75 40.0 45.85 40.45 45.8 40.6 46.3 41.25 46.8 41.9 47.3 42.0 47.75 L40.65 47.75 39.7 47.35 Q39.85 48.0 40.6 48.6 L41.65 49.7 Q41.6 49.0 42.45 48.75 43.4 48.45 43.55 48.15 43.5 46.65 42.2 45.8 L39.7 44.65 Q39.75 45.35 39.0 45.95 38.3 46.45 38.55 47.35 M35.4 47.0 Q35.4 48.8 36.6 49.3 36.5 48.75 37.05 48.25 37.6 47.75 37.35 47.0 L35.4 47.0 M37.75 52.4 Q40.05 51.85 40.85 50.1 L39.4 48.55 Q38.35 47.8 37.75 48.15 37.1 49.15 37.0 50.35 36.85 51.8 37.75 52.4 M38.9 55.7 Q39.8 56.65 41.65 57.05 41.95 55.05 41.0 54.05 40.3 53.25 38.55 52.8 37.7 54.45 38.9 55.7 M53.25 45.45 Q53.0 44.6 52.3 45.15 51.5 45.8 50.95 45.05 51.1 44.9 52.0 44.55 L52.9 43.85 Q51.45 44.1 50.85 44.55 50.0 45.2 50.15 46.6 L52.6 46.05 Q54.0 45.5 53.65 45.05 L53.55 45.35 53.25 45.45 M51.7 47.35 Q51.65 49.3 52.5 50.1 53.35 49.55 55.2 48.55 55.25 48.0 54.9 47.5 L54.45 46.6 52.95 46.85 51.7 47.35 M47.85 52.8 Q47.6 53.75 48.25 54.55 48.85 55.4 48.6 56.3 L50.35 55.15 Q51.3 54.3 52.5 54.35 52.6 51.8 50.85 51.6 49.4 51.4 47.85 52.8 M47.45 52.4 Q48.75 50.65 51.35 50.45 51.5 49.3 51.1 48.4 L50.15 47.0 Q47.55 47.0 46.3 48.9 46.95 49.3 47.15 50.8 L47.45 52.4 M53.1 52.6 L53.65 54.35 Q53.95 53.45 55.1 52.9 L57.15 52.05 Q57.3 51.0 56.5 50.4 L55.2 49.3 Q55.05 49.95 54.05 50.3 L52.5 50.85 53.1 52.6 M45.5 48.55 Q45.75 47.7 46.55 47.25 47.1 46.9 48.25 46.6 47.65 45.25 46.05 44.65 44.3 44.0 43.2 45.05 L44.15 47.0 Q44.75 48.05 45.5 48.55 M43.0 50.1 Q43.35 49.55 43.95 49.7 L44.35 50.45 44.75 51.25 44.0 51.3 Q43.6 51.35 43.55 51.65 44.05 51.7 44.75 52.4 45.35 53.0 46.3 52.8 46.95 51.7 46.55 50.75 46.2 49.85 45.25 49.4 44.3 48.95 43.4 49.15 42.4 49.45 42.0 50.45 42.6 50.65 43.0 50.1 M40.85 52.8 L40.9 52.1 Q40.95 51.7 41.25 51.65 42.1 51.65 42.4 52.4 L41.85 52.85 Q41.3 52.95 41.25 53.2 41.5 53.25 41.85 53.6 L42.4 53.95 Q42.35 53.0 43.55 53.2 43.45 52.35 42.7 51.75 41.7 51.2 41.25 50.85 L40.35 51.95 Q39.9 52.55 40.85 52.8 M46.7 58.65 Q46.45 57.7 47.3 57.3 48.2 56.8 48.25 56.3 48.0 55.0 47.0 54.25 46.15 53.6 45.05 53.55 43.95 53.5 43.2 54.1 42.4 54.75 42.4 55.9 42.4 57.05 43.75 57.75 44.7 58.3 46.7 58.65 M51.95 57.65 L50.15 57.45 50.05 58.35 Q49.9 58.75 49.4 58.65 48.7 58.5 49.15 57.6 49.55 56.9 48.6 57.05 L47.75 57.75 Q47.2 58.15 47.45 59.0 L50.4 59.05 Q52.25 59.15 52.9 58.65 L51.95 57.65 M52.9 55.15 Q50.6 55.0 50.15 56.7 51.0 56.7 51.7 56.1 L52.9 55.15 M54.0 58.25 L54.05 56.35 Q54.15 54.6 53.25 55.5 L53.2 57.25 Q53.05 58.7 54.0 58.25 M54.75 45.75 Q55.0 46.6 56.0 47.0 56.15 45.8 55.45 44.7 54.75 43.6 54.05 44.25 54.45 44.6 54.75 45.75 M56.45 33.45 Q55.75 35.15 56.75 35.7 L57.85 33.0 Q58.45 31.35 57.55 30.65 L56.45 33.45 M59.7 34.3 Q59.95 34.6 59.85 34.95 59.1 34.4 57.95 34.55 L57.6 35.7 Q57.25 36.3 57.95 36.5 58.35 35.85 58.85 35.9 L60.25 36.1 Q61.05 34.5 59.5 33.8 L59.7 34.3 M59.05 39.6 L57.95 39.2 Q58.05 38.75 58.7 38.25 59.35 37.75 59.5 37.25 58.45 36.7 57.75 37.45 57.4 37.8 56.75 39.2 57.45 39.3 57.9 40.4 58.3 41.5 59.1 41.55 L60.35 40.25 Q60.8 39.4 59.85 38.85 59.85 39.65 59.05 39.6 M60.25 37.25 Q60.95 37.7 61.1 36.85 61.25 36.0 60.65 36.1 L60.55 36.4 60.25 36.5 60.25 37.25 M61.4 39.45 Q61.4 40.25 62.2 40.0 62.3 38.55 61.4 38.05 L61.4 39.45 M56.75 43.9 Q57.6 43.35 58.3 43.5 58.2 44.3 59.0 44.75 59.9 45.15 59.85 45.8 L58.15 45.35 Q57.4 45.15 56.75 44.65 L56.75 47.35 Q57.8 46.65 58.55 47.0 59.1 47.25 60.25 48.15 L60.25 44.65 Q59.65 44.5 58.95 43.6 58.3 42.8 57.55 42.7 57.45 43.1 56.45 43.15 55.5 43.2 55.6 43.85 L56.75 43.9 M60.05 43.35 Q60.85 43.8 60.65 44.65 62.1 44.6 62.2 43.1 61.55 43.1 60.95 42.7 L59.5 41.95 Q59.2 42.9 60.05 43.35 M62.2 45.9 Q62.65 45.65 63.0 46.2 63.15 44.8 62.2 44.65 L60.95 47.05 Q60.3 48.75 61.4 49.3 61.45 49.0 61.8 48.75 L62.2 48.15 Q61.7 48.3 61.5 47.8 61.4 47.35 61.65 46.7 61.85 46.1 62.2 45.9 M54.85 53.95 L54.9 56.1 55.2 57.45 Q56.5 57.75 57.25 56.7 58.05 55.7 57.15 54.75 L56.55 55.95 55.6 55.9 Q56.35 55.55 56.55 54.35 56.75 53.35 57.95 53.2 57.8 55.05 58.7 55.5 59.1 54.6 59.0 53.65 58.95 52.55 58.3 52.05 57.95 52.7 56.7 53.1 55.2 53.65 54.85 53.95 M57.9 49.9 Q57.5 48.55 58.7 48.15 59.35 48.9 59.25 50.65 59.2 52.3 59.85 52.8 60.7 51.25 60.05 49.6 59.45 47.85 57.95 47.75 56.15 48.1 56.9 49.85 L57.75 50.9 Q58.3 51.35 58.7 51.25 58.25 51.1 57.9 49.9 M55.2 13.6 Q53.25 15.65 54.55 14.6 55.85 13.5 55.2 13.6" fill="#000000" fill-rule="evenodd" stroke="none"/>
    <path d="M61.65 46.7 Q61.4 47.35 61.5 47.8 61.7 48.3 62.2 48.15 L61.8 48.75 Q61.45 49.0 61.4 49.3 60.3 48.75 60.95 47.05 L62.2 44.65 Q63.15 44.8 63.0 46.2 62.65 45.65 62.2 45.9 61.85 46.1 61.65 46.7" fill="#f7e60f" fill-rule="evenodd" stroke="none"/>
    <path d="M61.4 38.05 Q62.3 38.55 62.2 40.0 61.4 40.25 61.4 39.45 L61.4 38.05" fill="#f7e60f" fill-rule="evenodd" stroke="none"/>
    <path d="M59.5 41.95 L60.95 42.7 Q61.55 43.1 62.2 43.1 62.1 44.6 60.65 44.65 60.85 43.8 60.05 43.35 59.2 42.9 59.5 41.95" fill="#f7e60f" fill-rule="evenodd" stroke="none"/>
    <path d="M60.65 36.1 Q61.25 36.0 61.1 36.85 60.95 37.7 60.25 37.25 L60.25 36.5 60.55 36.4 60.65 36.1" fill="#f7e60f" fill-rule="evenodd" stroke="none"/>
    <path d="M60.65 12.05 Q61.4 11.55 60.3 13.3 59.25 14.85 58.3 14.75 58.4 13.85 59.3 13.2 L60.65 12.05" fill="#1b8e0a" fill-rule="evenodd" stroke="none"/>
    <path d="M59.5 33.8 Q61.05 34.5 60.25 36.1 L58.85 35.9 Q58.35 35.85 57.95 36.5 57.25 36.3 57.6 35.7 L57.95 34.55 Q59.1 34.4 59.85 34.95 59.95 34.6 59.7 34.3 L59.5 33.8" fill="#f7e60f" fill-rule="evenodd" stroke="none"/>
    <path d="M58.95 43.6 Q59.65 44.5 60.25 44.65 L60.25 48.15 Q59.1 47.25 58.55 47.0 57.8 46.65 56.75 47.35 L56.75 44.65 Q57.4 45.15 58.15 45.35 L59.85 45.8 Q59.9 45.15 59.0 44.75 58.2 44.3 58.3 43.5 57.6 43.35 56.75 43.9 L55.6 43.85 Q55.5 43.2 56.45 43.15 57.45 43.1 57.55 42.7 58.3 42.8 58.95 43.6" fill="#f7e60f" fill-rule="evenodd" stroke="none"/>
    <path d="M59.85 38.85 Q60.8 39.4 60.35 40.25 L59.1 41.55 Q58.3 41.5 57.9 40.4 57.45 39.3 56.75 39.2 57.4 37.8 57.75 37.45 58.45 36.7 59.5 37.25 59.35 37.75 58.7 38.25 58.05 38.75 57.95 39.2 L59.05 39.6 Q59.85 39.65 59.85 38.85" fill="#f7e60f" fill-rule="evenodd" stroke="none"/>
    <path d="M56.9 49.85 Q56.15 48.1 57.95 47.75 59.45 47.85 60.05 49.6 60.7 51.25 59.85 52.8 59.2 52.3 59.25 50.65 59.35 48.9 58.7 48.15 57.5 48.55 57.9 49.9 58.25 51.1 58.7 51.25 58.3 51.35 57.75 50.9 L56.9 49.85" fill="#f7e60f" fill-rule="evenodd" stroke="none"/>
    <path d="M59.85 11.25 Q60.2 11.75 58.6 13.1 57.05 14.5 57.55 15.15 57.25 15.5 56.15 15.85 55.1 16.2 54.85 16.7 54.55 15.2 56.45 13.55 57.15 12.95 59.85 11.25" fill="#1b8e0a" fill-rule="evenodd" stroke="none"/>
    <path d="M58.3 52.05 Q58.95 52.55 59.0 53.65 59.1 54.6 58.7 55.5 57.8 55.05 57.95 53.2 56.75 53.35 56.55 54.35 56.35 55.55 55.6 55.9 L56.55 55.95 57.15 54.75 Q58.05 55.7 57.25 56.7 56.5 57.75 55.2 57.45 L54.9 56.1 54.85 53.95 Q55.2 53.65 56.7 53.1 57.95 52.7 58.3 52.05" fill="#f7e60f" fill-rule="evenodd" stroke="none"/>
    <path d="M57.55 30.65 Q58.45 31.35 57.85 33.0 L56.75 35.7 Q55.75 35.15 56.45 33.45 L57.55 30.65" fill="#f7e60f" fill-rule="evenodd" stroke="none"/>
    <path d="M54.15 40.5 Q54.4 39.4 55.6 39.6 54.85 40.0 54.9 40.55 54.95 41.0 55.5 41.35 L56.5 41.45 Q56.95 41.2 56.75 40.4 57.65 40.9 57.55 42.3 L55.85 42.55 54.05 42.7 54.15 40.5" fill="#f7e60f" fill-rule="evenodd" stroke="none"/>
    <path d="M54.55 51.55 Q55.1 51.75 55.6 51.25 L55.7 51.75 56.0 52.05 Q56.1 51.25 55.75 50.75 L54.85 50.1 Q54.65 50.6 54.05 50.45 53.9 51.35 54.55 51.55 M54.05 50.3 Q55.05 49.95 55.2 49.3 L56.5 50.4 Q57.3 51.0 57.15 52.05 L55.1 52.9 Q53.95 53.45 53.65 54.35 L53.1 52.6 52.5 50.85 54.05 50.3" fill="#f7e60f" fill-rule="evenodd" stroke="none"/>
    <path d="M56.05 19.1 Q54.3 20.6 53.65 22.15 53.25 19.4 59.1 16.7 L56.05 19.1" fill="#1b8e0a" fill-rule="evenodd" stroke="none"/>
    <path d="M54.1 37.7 Q54.75 37.6 55.2 38.05 55.35 37.35 55.0 36.95 54.6 36.6 54.05 36.6 53.45 36.6 53.1 36.95 52.75 37.35 52.9 38.05 L54.1 37.7 M52.85 36.7 Q53.8 35.55 55.6 35.7 L56.45 37.1 Q56.7 37.75 56.4 38.85 L54.35 38.9 Q53.2 39.7 52.5 39.2 51.95 37.85 52.85 36.7" fill="#f7e60f" fill-rule="evenodd" stroke="none"/>
    <path d="M54.45 31.45 Q55.2 31.75 55.5 31.2 55.8 30.55 56.4 30.65 L56.4 32.25 Q56.25 31.85 55.2 31.9 54.15 31.9 54.05 31.45 L54.05 30.65 54.35 30.95 54.45 31.45" fill="#f7e60f" fill-rule="evenodd" stroke="none"/>
    <path d="M54.05 44.25 Q54.75 43.6 55.45 44.7 56.15 45.8 56.0 47.0 55.0 46.6 54.75 45.75 54.45 44.6 54.05 44.25" fill="#f7e60f" fill-rule="evenodd" stroke="none"/>
    <path d="M54.05 50.45 Q54.65 50.6 54.85 50.1 L55.75 50.75 Q56.1 51.25 56.0 52.05 L55.7 51.75 55.6 51.25 Q55.1 51.75 54.55 51.55 53.9 51.35 54.05 50.45" fill="#000000" fill-rule="evenodd" stroke="none"/>
    <path d="M52.5 34.15 Q52.5 33.65 53.0 33.2 53.5 32.75 54.15 32.65 55.85 32.3 55.6 34.15 L54.8 33.6 53.65 33.4 Q53.3 34.9 54.85 34.55 55.3 35.25 54.05 34.9 52.8 34.55 52.5 34.15" fill="#f7e60f" fill-rule="evenodd" stroke="none"/>
    <path d="M52.9 30.3 L53.75 28.9 Q54.15 27.9 55.6 27.95 L54.35 29.45 Q53.5 30.3 53.25 31.05 52.6 31.05 51.7 30.5 50.85 29.95 50.15 29.9 50.4 29.35 51.5 29.65 52.3 29.9 52.9 30.3" fill="#1b8e0a" fill-rule="evenodd" stroke="none"/>
    <path d="M55.2 13.6 Q55.85 13.5 54.55 14.6 53.25 15.65 55.2 13.6" fill="#1b8e0a" fill-rule="evenodd" stroke="none"/>
    <path d="M52.9 38.05 Q52.75 37.35 53.1 36.95 53.45 36.6 54.05 36.6 54.6 36.6 55.0 36.95 55.35 37.35 55.2 38.05 54.75 37.6 54.1 37.7 L52.9 38.05" fill="#000000" fill-rule="evenodd" stroke="none"/>
    <path d="M54.05 48.55 L54.05 47.35 52.9 47.35 52.9 48.55 54.05 48.55 M54.45 46.6 L54.9 47.5 Q55.25 48.0 55.2 48.55 53.35 49.55 52.5 50.1 51.65 49.3 51.7 47.35 L52.95 46.85 54.45 46.6" fill="#f7e60f" fill-rule="evenodd" stroke="none"/>
    <path d="M52.55 10.1 Q54.25 7.2 54.45 5.85 55.5 8.45 54.4 10.95 53.35 13.15 51.35 14.0 51.1 12.55 52.55 10.1" fill="#1b8e0a" fill-rule="evenodd" stroke="none"/>
    <path d="M54.45 12.45 Q54.7 13.35 53.3 15.3 51.85 17.3 52.1 19.05 L51.35 17.3 Q50.95 16.25 50.95 15.15 L54.45 12.45" fill="#1b8e0a" fill-rule="evenodd" stroke="none"/>
    <path d="M54.05 47.35 L54.05 48.55 52.9 48.55 52.9 47.35 54.05 47.35" fill="#000000" fill-rule="evenodd" stroke="none"/>
    <path d="M53.25 55.5 Q54.15 54.6 54.05 56.35 L54.0 58.25 Q53.05 58.7 53.2 57.25 L53.25 55.5" fill="#f7e60f" fill-rule="evenodd" stroke="none"/>
    <path d="M53.65 45.05 Q54.0 45.5 52.6 46.05 L50.15 46.6 Q50.0 45.2 50.85 44.55 51.45 44.1 52.9 43.85 L52.0 44.55 Q51.1 44.9 50.95 45.05 51.5 45.8 52.3 45.15 53.0 44.6 53.25 45.45 L53.55 45.35 53.65 45.05" fill="#f7e60f" fill-rule="evenodd" stroke="none"/>
    <path d="M50.15 25.25 Q51.45 23.8 54.05 24.05 L52.1 25.5 Q50.85 26.2 50.15 25.25" fill="#1b8e0a" fill-rule="evenodd" stroke="none"/>
    <path d="M53.25 16.7 Q53.3 16.2 53.45 16.25 L53.65 16.7 Q53.95 17.75 53.25 17.45 52.95 17.95 53.05 17.65 L53.25 16.7" fill="#1b8e0a" fill-rule="evenodd" stroke="none"/>
    <path d="M54.0 17.95 Q55.2 17.1 56.75 16.7 L54.8 18.25 52.9 19.8 Q52.55 18.95 54.0 17.95" fill="#1b8e0a" fill-rule="evenodd" stroke="none"/>
    <path d="M50.6 41.65 L52.5 42.3 Q52.35 40.75 51.1 40.25 49.8 39.8 49.0 41.15 49.75 41.25 50.6 41.65 M48.6 40.4 Q50.45 39.25 51.85 39.6 53.55 40.05 53.25 42.7 51.55 43.15 50.55 43.85 L49.5 42.2 48.6 40.4" fill="#f7e60f" fill-rule="evenodd" stroke="none"/>
    <path d="M50.15 56.7 Q50.6 55.0 52.9 55.15 L51.7 56.1 Q51.0 56.7 50.15 56.7" fill="#f7e60f" fill-rule="evenodd" stroke="none"/>
    <path d="M50.85 51.6 Q52.6 51.8 52.5 54.35 51.3 54.3 50.35 55.15 L48.6 56.3 Q48.85 55.4 48.25 54.55 47.6 53.75 47.85 52.8 49.4 51.4 50.85 51.6 M52.1 53.2 L50.7 52.35 49.0 52.4 Q49.05 53.0 49.7 53.5 L50.55 54.35 Q50.45 53.8 51.2 53.7 52.05 53.55 52.1 53.2" fill="#f7e60f" fill-rule="evenodd" stroke="none"/>
    <path d="M52.1 20.6 Q52.9 20.45 52.65 21.55 52.25 23.1 52.5 23.7 52.0 23.3 51.75 22.2 51.45 21.0 52.1 20.6" fill="#1b8e0a" fill-rule="evenodd" stroke="none"/>
    <path d="M50.6 9.1 L53.65 5.45 Q53.5 6.95 52.15 9.65 L49.8 14.0 Q48.85 11.5 50.6 9.1" fill="#1b8e0a" fill-rule="evenodd" stroke="none"/>
    <path d="M51.7 34.55 Q52.55 34.75 52.7 35.45 52.9 36.15 51.7 36.1 L51.7 34.55" fill="#f7e60f" fill-rule="evenodd" stroke="none"/>
    <path d="M51.7 27.95 Q52.15 28.3 52.0 28.5 51.85 28.7 51.45 28.7 51.1 28.7 51.05 28.5 L51.7 27.95" fill="#1b8e0a" fill-rule="evenodd" stroke="none"/>
    <path d="M47.15 50.8 Q46.95 49.3 46.3 48.9 47.55 47.0 50.15 47.0 L51.1 48.4 Q51.5 49.3 51.35 50.45 48.75 50.65 47.45 52.4 L47.15 50.8 M49.0 49.5 L50.55 49.7 Q50.45 48.45 48.9 48.2 47.3 48.0 47.05 49.3 L49.0 49.5" fill="#f7e60f" fill-rule="evenodd" stroke="none"/>
    <path d="M48.45 37.2 L49.4 38.05 Q49.4 37.8 49.75 37.65 L50.15 37.25 Q49.7 37.35 49.45 36.6 49.3 35.95 48.6 36.1 48.0 36.65 48.45 37.2 M47.05 37.65 Q47.3 36.9 48.05 36.25 48.75 35.7 49.55 35.6 51.6 35.3 51.35 38.05 L50.4 38.5 Q49.85 38.75 49.8 39.2 49.35 39.15 48.7 38.15 48.15 37.35 47.05 37.65" fill="#f7e60f" fill-rule="evenodd" stroke="none"/>
    <path d="M50.15 30.65 Q51.35 31.2 51.35 33.0 50.75 32.65 50.65 32.1 L50.15 30.65" fill="#f7e60f" fill-rule="evenodd" stroke="none"/>
    <path d="M52.9 58.65 Q52.25 59.15 50.4 59.05 L47.45 59.0 Q47.2 58.15 47.75 57.75 L48.6 57.05 Q49.55 56.9 49.15 57.6 48.7 58.5 49.4 58.65 49.9 58.75 50.05 58.35 L50.15 57.45 51.95 57.65 52.9 58.65" fill="#f7e60f" fill-rule="evenodd" stroke="none"/>
    <path d="M48.6 19.05 Q50.05 19.9 50.85 21.2 51.9 22.95 50.55 24.05 L49.35 21.75 Q48.7 20.35 48.6 19.05" fill="#1b8e0a" fill-rule="evenodd" stroke="none"/>
    <path d="M49.0 41.15 Q49.8 39.8 51.1 40.25 52.35 40.75 52.5 42.3 L50.6 41.65 Q49.75 41.25 49.0 41.15" fill="#000000" fill-rule="evenodd" stroke="none"/>
    <path d="M50.15 34.15 Q50.55 33.25 50.7 34.05 50.9 34.9 50.55 34.95 L50.25 34.65 Q50.05 34.35 50.15 34.15" fill="#f7e60f" fill-rule="evenodd" stroke="none"/>
    <path d="M52.1 53.2 Q52.05 53.55 51.2 53.7 50.45 53.8 50.55 54.35 L49.7 53.5 Q49.05 53.0 49.0 52.4 L50.7 52.35 52.1 53.2" fill="#000000" fill-rule="evenodd" stroke="none"/>
    <path d="M48.6 36.1 Q49.3 35.95 49.45 36.6 49.7 37.35 50.15 37.25 L49.75 37.65 Q49.4 37.8 49.4 38.05 L48.45 37.2 Q48.0 36.65 48.6 36.1" fill="#000000" fill-rule="evenodd" stroke="none"/>
    <path d="M50.0 4.45 L50.55 7.4 49.25 9.8 Q48.4 11.2 48.6 12.8 46.35 11.45 47.25 7.65 L49.0 1.95 Q49.65 2.7 50.0 4.45" fill="#1b8e0a" fill-rule="evenodd" stroke="none"/>
    <path d="M50.55 27.2 Q49.5 27.45 48.3 26.9 L45.9 26.0 Q46.9 25.35 48.6 25.7 50.4 26.1 50.55 27.2" fill="#1b8e0a" fill-rule="evenodd" stroke="none"/>
    <path d="M47.05 28.35 Q47.15 27.85 48.15 27.9 L49.8 27.95 Q49.55 28.95 48.5 28.95 47.45 29.0 47.05 28.35" fill="#1b8e0a" fill-rule="evenodd" stroke="none"/>
    <path d="M45.2 41.45 Q46.1 40.9 47.15 41.15 48.25 41.4 48.9 42.35 49.65 43.45 49.4 45.05 48.75 45.25 47.15 44.25 45.4 43.2 43.95 43.5 44.2 42.1 45.2 41.45 M46.0 42.65 L45.5 43.1 46.55 43.25 47.45 43.5 47.2 42.4 Q46.95 41.85 46.3 41.95 46.35 42.4 46.0 42.65" fill="#f7e60f" fill-rule="evenodd" stroke="none"/>
    <path d="M46.55 15.45 Q46.9 16.3 47.85 16.3 47.45 16.1 47.2 14.8 47.0 13.65 46.3 13.6 46.25 14.85 46.55 15.45 M45.15 17.1 L45.15 11.25 48.9 14.45 Q50.7 16.55 50.95 19.4 50.05 19.0 49.25 18.2 L47.85 16.7 Q47.35 16.65 47.15 17.4 46.95 18.05 46.3 17.85 46.0 17.1 45.15 17.1" fill="#1b8e0a" fill-rule="evenodd" stroke="none"/>
    <path d="M50.55 49.7 L49.0 49.5 47.05 49.3 Q47.3 48.0 48.9 48.2 50.45 48.45 50.55 49.7" fill="#000000" fill-rule="evenodd" stroke="none"/>
    <path d="M49.0 24.45 Q48.05 24.6 46.4 23.05 44.45 21.25 43.55 20.95 44.95 20.55 46.6 21.9 47.6 22.7 49.0 24.45" fill="#1b8e0a" fill-rule="evenodd" stroke="none"/>
    <path d="M47.85 33.4 Q48.5 33.7 48.75 34.1 L48.8 34.6 48.35 34.45 Q48.05 34.15 47.85 33.4" fill="#f7e60f" fill-rule="evenodd" stroke="none"/>
    <path d="M45.5 38.45 Q46.25 37.65 47.4 38.2 48.55 38.8 48.25 40.0 47.3 40.25 46.95 39.15 46.6 38.1 45.5 38.45" fill="#f7e60f" fill-rule="evenodd" stroke="none"/>
    <path d="M45.1 19.2 Q44.55 19.25 44.75 19.4 L43.05 17.35 Q42.15 16.1 41.25 15.55 43.0 15.7 45.2 17.85 L48.6 21.75 Q47.75 22.2 47.05 21.15 L45.9 19.4 45.1 19.2" fill="#1b8e0a" fill-rule="evenodd" stroke="none"/>
    <path d="M46.3 34.15 Q46.0 33.85 46.25 33.85 L46.9 34.2 Q48.0 35.05 47.45 36.1 45.65 35.75 45.3 34.9 44.95 34.05 47.05 35.35 47.05 34.45 46.3 34.15" fill="#f7e60f" fill-rule="evenodd" stroke="none"/>
    <path d="M47.45 43.5 L46.55 43.25 45.5 43.1 46.0 42.65 Q46.35 42.4 46.3 41.95 46.95 41.85 47.2 42.4 L47.45 43.5" fill="#000000" fill-rule="evenodd" stroke="none"/>
    <path d="M46.3 13.6 Q47.0 13.65 47.2 14.8 47.45 16.1 47.85 16.3 46.9 16.3 46.55 15.45 46.25 14.85 46.3 13.6" fill="#000000" fill-rule="evenodd" stroke="none"/>
    <path d="M45.9 31.45 Q46.25 31.45 46.4 32.1 46.6 32.7 47.05 32.6 47.05 33.25 46.3 32.7 45.55 32.2 45.9 31.45" fill="#f7e60f" fill-rule="evenodd" stroke="none"/>
    <path d="M47.05 24.85 Q46.75 25.25 45.8 24.45 44.55 23.4 44.35 23.3 44.0 23.4 44.2 23.7 44.4 24.0 44.75 24.05 44.35 24.65 43.85 23.7 43.2 22.55 42.8 22.5 43.5 22.35 45.0 23.15 46.45 23.95 47.05 24.85" fill="#1b8e0a" fill-rule="evenodd" stroke="none"/>
    <path d="M46.7 47.0 Q46.7 46.15 46.15 45.55 L45.15 44.65 Q44.4 45.75 45.15 46.45 45.8 47.0 46.7 47.0 M44.15 47.0 L43.2 45.05 Q44.3 44.0 46.05 44.65 47.65 45.25 48.25 46.6 47.1 46.9 46.55 47.25 45.75 47.7 45.5 48.55 44.75 48.05 44.15 47.0" fill="#f7e60f" fill-rule="evenodd" stroke="none"/>
    <path d="M46.7 55.9 Q45.8 55.25 45.75 55.35 45.65 55.4 45.9 56.7 45.5 56.8 44.85 55.7 L44.5 55.25 44.35 55.9 Q43.55 55.5 44.1 55.0 L44.75 53.95 46.1 54.55 Q46.85 54.95 46.7 55.9" fill="#000000" fill-rule="evenodd" stroke="none"/>
    <path d="M45.15 44.65 L46.15 45.55 Q46.7 46.15 46.7 47.0 45.8 47.0 45.15 46.45 44.4 45.75 45.15 44.65" fill="#000000" fill-rule="evenodd" stroke="none"/>
    <path d="M43.75 57.75 Q42.4 57.05 42.4 55.9 42.4 54.75 43.2 54.1 43.95 53.5 45.05 53.55 46.15 53.6 47.0 54.25 48.0 55.0 48.25 56.3 48.2 56.8 47.3 57.3 46.45 57.7 46.7 58.65 44.7 58.3 43.75 57.75 M46.7 55.9 Q46.85 54.95 46.1 54.55 L44.75 53.95 44.1 55.0 Q43.55 55.5 44.35 55.9 L44.5 55.25 44.85 55.7 Q45.5 56.8 45.9 56.7 45.65 55.4 45.75 55.35 45.8 55.25 46.7 55.9" fill="#f7e60f" fill-rule="evenodd" stroke="none"/>
    <path d="M42.0 50.45 Q42.4 49.45 43.4 49.15 44.3 48.95 45.25 49.4 46.2 49.85 46.55 50.75 46.95 51.7 46.3 52.8 45.35 53.0 44.75 52.4 44.05 51.7 43.55 51.65 43.6 51.35 44.0 51.3 L44.75 51.25 44.35 50.45 43.95 49.7 Q43.35 49.55 43.0 50.1 42.6 50.65 42.0 50.45" fill="#f7e60f" fill-rule="evenodd" stroke="none"/>
    <path d="M43.95 40.0 L45.0 39.7 46.3 39.6 44.75 41.0 42.8 41.15 Q42.75 40.4 43.45 39.9 L44.35 38.85 Q44.95 38.95 44.5 39.3 43.85 39.75 43.95 40.0" fill="#f7e60f" fill-rule="evenodd" stroke="none"/>
    <path d="M45.5 36.5 Q45.6 37.25 44.65 37.85 43.7 38.5 43.55 38.05 43.45 37.55 43.85 37.35 L44.75 37.25 Q44.85 35.95 43.2 36.1 43.4 35.1 44.4 35.4 45.45 35.7 45.5 36.5" fill="#f7e60f" fill-rule="evenodd" stroke="none"/>
    <path d="M44.35 25.65 L44.7 26.05 Q44.85 26.4 45.15 26.4 45.05 26.75 44.5 26.75 L43.55 26.8 44.0 26.25 44.35 25.65" fill="#1b8e0a" fill-rule="evenodd" stroke="none"/>
    <path d="M43.95 31.85 Q44.8 32.25 44.9 32.95 45.05 33.6 44.35 34.15 43.95 34.15 43.75 33.4 43.55 32.65 43.2 32.6 L43.6 32.25 43.95 31.85" fill="#f7e60f" fill-rule="evenodd" stroke="none"/>
    <path d="M43.9 7.65 L43.55 5.85 Q44.95 7.95 45.5 10.1 45.0 9.65 43.95 9.7 L43.9 7.65" fill="#1b8e0a" fill-rule="evenodd" stroke="none"/>
    <path d="M43.2 9.7 L44.1 12.65 Q44.6 14.4 43.95 15.55 43.25 13.95 42.95 10.75 L42.4 5.45 Q43.3 6.0 43.25 7.35 L43.2 9.7" fill="#1b8e0a" fill-rule="evenodd" stroke="none"/>
    <path d="M43.55 19.4 Q43.55 19.9 43.1 19.6 42.45 19.15 42.0 19.4 L42.0 18.65 42.35 18.55 42.4 18.25 Q42.9 18.2 43.05 18.75 43.2 19.4 43.55 19.4" fill="#1b8e0a" fill-rule="evenodd" stroke="none"/>
    <path d="M40.85 52.8 Q39.9 52.55 40.35 51.95 L41.25 50.85 Q41.7 51.2 42.7 51.75 43.45 52.35 43.55 53.2 42.35 53.0 42.4 53.95 L41.85 53.6 Q41.5 53.25 41.25 53.2 41.3 52.95 41.85 52.85 L42.4 52.4 Q42.1 51.65 41.25 51.65 40.95 51.7 40.9 52.1 L40.85 52.8" fill="#f7e60f" fill-rule="evenodd" stroke="none"/>
    <path d="M42.0 43.85 Q42.05 43.1 41.4 42.75 L40.1 42.3 Q40.05 43.35 40.6 43.45 L42.0 43.85 M40.1 42.05 L43.2 41.95 Q43.4 42.95 43.05 43.75 L42.4 45.05 Q41.05 44.05 39.7 43.85 39.45 43.85 39.4 43.95 L39.3 44.25 Q38.75 43.0 40.1 42.05" fill="#f7e60f" fill-rule="evenodd" stroke="none"/>
    <path d="M42.4 23.7 Q43.05 24.0 43.25 24.45 L43.3 24.95 42.85 24.85 Q42.55 24.5 42.4 23.7" fill="#1b8e0a" fill-rule="evenodd" stroke="none"/>
    <path d="M41.65 39.2 Q41.35 39.2 41.2 38.85 L40.85 38.45 40.5 39.05 Q40.15 39.35 40.1 39.6 L41.05 39.6 41.65 39.2 M42.8 37.85 L43.2 38.45 Q43.2 39.0 42.5 39.55 41.9 40.05 42.0 40.75 L40.1 40.7 38.55 41.55 Q38.3 39.45 39.4 38.4 40.35 37.5 42.4 37.25 42.45 37.55 42.8 37.85" fill="#f7e60f" fill-rule="evenodd" stroke="none"/>
    <path d="M42.8 30.3 Q43.3 30.7 43.25 30.95 L42.9 31.2 Q42.6 31.25 42.5 31.0 42.4 30.75 42.8 30.3" fill="#f7e60f" fill-rule="evenodd" stroke="none"/>
    <path d="M42.8 33.8 Q43.5 34.25 42.85 34.9 42.05 35.7 42.4 36.5 41.65 36.0 42.1 35.1 L42.8 33.8" fill="#f7e60f" fill-rule="evenodd" stroke="none"/>
    <path d="M42.4 17.45 Q42.7 18.15 41.95 18.5 L41.65 18.5 42.0 18.25 41.75 17.8 Q41.55 17.55 41.25 17.45 41.3 17.2 41.65 17.3 L42.4 17.45" fill="#1b8e0a" fill-rule="evenodd" stroke="none"/>
    <path d="M42.8 14.35 Q42.05 14.95 41.5 13.4 40.9 11.45 40.45 11.25 L41.2 11.2 Q41.95 11.85 42.4 11.65 L42.35 13.25 Q42.3 14.25 42.8 14.35" fill="#1b8e0a" fill-rule="evenodd" stroke="none"/>
    <path d="M39.0 45.95 Q39.75 45.35 39.7 44.65 L42.2 45.8 Q43.5 46.65 43.55 48.15 43.4 48.45 42.45 48.75 41.6 49.0 41.65 49.7 L40.6 48.6 Q39.85 48.0 39.7 47.35 L40.65 47.75 42.0 47.75 Q41.9 47.3 41.25 46.8 40.6 46.3 40.45 45.8 40.0 45.85 39.65 46.75 39.3 47.5 38.55 47.35 38.3 46.45 39.0 45.95" fill="#f7e60f" fill-rule="evenodd" stroke="none"/>
    <path d="M40.1 42.3 L41.4 42.75 Q42.05 43.1 42.0 43.85 L40.6 43.45 Q40.05 43.35 40.1 42.3" fill="#000000" fill-rule="evenodd" stroke="none"/>
    <path d="M42.0 27.2 Q41.3 27.45 41.25 26.8 L41.25 25.65 Q41.9 26.0 42.0 27.2" fill="#1b8e0a" fill-rule="evenodd" stroke="none"/>
    <path d="M38.9 55.5 Q39.6 55.35 40.4 56.0 40.95 56.45 41.25 55.5 40.5 55.55 39.95 54.85 L38.9 53.95 38.9 55.5 M38.55 52.8 Q40.3 53.25 41.0 54.05 41.95 55.05 41.65 57.05 39.8 56.65 38.9 55.7 37.7 54.45 38.55 52.8" fill="#f7e60f" fill-rule="evenodd" stroke="none"/>
    <path d="M40.85 31.45 Q41.2 31.0 41.4 31.2 41.6 31.3 41.6 31.7 41.6 32.1 41.4 32.1 41.15 32.15 40.85 31.45" fill="#f7e60f" fill-rule="evenodd" stroke="none"/>
    <path d="M38.9 53.95 L39.95 54.85 Q40.5 55.55 41.25 55.5 40.95 56.45 40.4 56.0 39.6 55.35 38.9 55.5 L38.9 53.95" fill="#000000" fill-rule="evenodd" stroke="none"/>
    <path d="M40.85 38.45 L41.2 38.85 Q41.35 39.2 41.65 39.2 L41.05 39.6 40.1 39.6 Q40.15 39.35 40.5 39.05 L40.85 38.45" fill="#000000" fill-rule="evenodd" stroke="none"/>
    <path d="M40.85 34.55 Q41.15 36.85 39.7 37.25 38.9 37.3 38.5 36.55 L37.75 35.35 Q37.65 34.65 38.2 34.25 38.85 33.8 38.9 33.4 39.4 33.4 39.85 34.0 40.3 34.6 40.85 34.55 M38.55 35.7 Q39.85 35.9 39.7 34.15 39.05 34.1 38.8 34.65 L38.55 35.7" fill="#f7e60f" fill-rule="evenodd" stroke="none"/>
    <path d="M37.75 50.85 L38.65 50.65 Q38.9 50.5 39.3 50.85 L38.75 49.7 Q38.35 49.05 37.75 48.9 37.4 49.3 37.4 49.9 37.4 50.5 37.75 50.85 M37.75 48.15 Q38.35 47.8 39.4 48.55 L40.85 50.1 Q40.05 51.85 37.75 52.4 36.85 51.8 37.0 50.35 37.1 49.15 37.75 48.15" fill="#f7e60f" fill-rule="evenodd" stroke="none"/>
    <path d="M38.8 34.65 Q39.05 34.1 39.7 34.15 39.85 35.9 38.55 35.7 L38.8 34.65" fill="#000000" fill-rule="evenodd" stroke="none"/>
    <path d="M38.75 49.7 L39.3 50.85 Q38.9 50.5 38.65 50.65 L37.75 50.85 Q37.4 50.5 37.4 49.9 37.4 49.3 37.75 48.9 38.35 49.05 38.75 49.7" fill="#000000" fill-rule="evenodd" stroke="none"/>
    <path d="M36.2 41.95 Q36.75 41.9 37.35 42.3 37.95 42.75 38.55 42.7 L38.2 44.15 Q38.0 44.95 38.15 45.8 L36.85 45.9 35.8 46.2 Q35.3 45.7 35.4 43.85 35.65 43.05 35.75 43.8 L35.8 45.05 36.65 44.2 Q36.85 43.85 37.35 44.65 38.0 44.65 37.2 43.45 36.35 42.35 36.2 43.1 35.9 43.0 36.05 42.7 L36.2 41.95" fill="#f7e60f" fill-rule="evenodd" stroke="none"/>
    <path d="M37.0 36.5 Q38.15 36.4 38.35 37.45 38.5 38.15 38.15 39.2 37.35 39.2 37.15 38.3 L37.0 36.5" fill="#f7e60f" fill-rule="evenodd" stroke="none"/>
    <path d="M37.35 39.6 Q37.85 39.55 37.8 40.35 L37.75 41.55 Q36.05 41.75 36.2 40.4 37.1 40.4 37.35 39.6" fill="#f7e60f" fill-rule="evenodd" stroke="none"/>
    <path d="M37.35 47.0 Q37.6 47.75 37.05 48.25 36.5 48.75 36.6 49.3 35.4 48.8 35.4 47.0 L37.35 47.0" fill="#f7e60f" fill-rule="evenodd" stroke="none"/>
  </g>
</svg>
