<?xml version="1.0" encoding="UTF-8" standalone="no"?>
<svg xmlns:xlink="http://www.w3.org/1999/xlink" height="59.95px" width="33.75px" xmlns="http://www.w3.org/2000/svg">
  <g transform="matrix(1, 0, 0, 1, -33.0, 0.0)">
    <path d="M64.65 13.4 Q65.2 12.5 65.2 14.35 L65.2 17.1 Q64.6 18.05 64.6 16.2 L64.65 13.4" fill="#c5efe3" fill-rule="evenodd" stroke="none"/>
    <path d="M65.2 17.1 L65.2 14.35 Q65.2 12.5 64.65 13.4 L64.6 16.2 Q64.6 18.05 65.2 17.1 M65.7 4.95 L52.55 6.8 40.4 6.0 Q40.15 9.8 40.75 18.45 41.25 25.55 40.4 30.35 39.95 28.2 39.9 22.3 39.85 16.35 39.35 13.4 L39.35 7.05 39.15 6.25 Q38.95 6.2 38.8 7.05 37.9 11.85 39.25 22.05 40.55 31.75 39.35 36.15 38.55 29.8 38.35 21.55 38.2 15.35 38.3 6.0 L34.9 5.2 Q33.05 4.8 34.05 6.55 33.95 5.9 34.4 5.6 34.9 5.35 35.1 6.0 35.0 7.75 35.6 14.4 36.0 19.6 35.1 22.4 35.4 20.45 35.05 17.8 L34.6 15.55 Q34.2 16.7 34.5 19.05 34.85 21.9 34.6 24.0 34.65 24.4 35.6 24.8 36.45 25.15 36.15 26.1 L37.75 51.0 Q37.8 51.45 39.15 52.6 40.25 53.5 39.35 54.15 38.05 53.95 37.5 52.25 37.1 50.2 36.7 49.4 35.25 53.95 39.45 56.7 43.15 59.1 49.3 59.15 55.35 59.2 59.05 56.95 63.15 54.5 61.5 50.45 61.65 51.3 61.15 52.4 60.65 53.5 60.45 52.55 60.9 51.5 61.2 48.6 61.5 45.75 62.0 44.65 L61.95 47.7 Q61.95 49.75 62.55 48.85 62.2 41.25 62.2 37.55 62.3 31.3 63.6 27.15 L63.5 28.85 Q63.45 29.85 64.1 29.8 63.5 21.7 63.65 17.05 63.9 10.05 65.7 4.95 M62.0 2.4 L59.4 1.8 47.6 1.2 Q41.3 1.65 35.1 3.35 40.45 5.5 49.4 5.6 58.05 5.7 64.1 3.9 63.35 2.9 62.0 2.4 M34.05 8.65 L34.0 12.0 Q34.0 14.2 34.6 13.4 L34.6 10.1 Q34.65 7.9 34.05 8.65 M49.9 0.0 Q60.5 -0.05 66.75 2.3 64.75 34.3 62.0 56.3 55.85 60.25 48.75 59.95 41.65 59.65 36.15 55.2 L34.25 29.1 Q33.1 13.5 33.0 2.3 39.35 0.0 49.9 0.0 M36.15 39.35 L36.2 36.0 Q36.25 33.8 35.65 34.6 L35.6 37.95 Q35.55 40.15 36.15 39.35" fill="#000000" fill-rule="evenodd" stroke="none"/>
    <path d="M63.7 17.05 Q63.55 21.7 64.15 29.85 63.5 29.9 63.55 28.85 L63.65 27.2 Q62.3 31.3 62.25 37.6 62.25 41.25 62.6 48.9 62.0 49.75 62.0 47.75 L62.05 44.65 Q61.55 45.8 61.25 48.65 60.9 51.5 60.45 52.6 60.7 53.5 61.2 52.4 61.7 51.3 61.55 50.5 63.2 54.55 59.05 57.0 55.4 59.2 49.35 59.15 43.2 59.1 39.5 56.7 35.25 54.0 36.75 49.4 37.15 50.25 37.55 52.3 38.1 54.0 39.4 54.2 40.25 53.55 39.2 52.65 37.8 51.45 37.8 51.0 L36.2 26.15 Q36.5 25.2 35.65 24.85 34.7 24.4 34.65 24.0 34.85 21.95 34.55 19.05 34.25 16.7 34.65 15.55 L35.1 17.8 Q35.45 20.5 35.15 22.45 36.05 19.6 35.65 14.4 35.05 7.75 35.15 6.05 34.9 5.35 34.45 5.65 33.95 5.9 34.1 6.55 33.1 4.8 34.95 5.25 L38.3 6.05 Q38.2 15.35 38.4 21.6 38.6 29.85 39.4 36.2 40.55 31.75 39.25 22.05 37.95 11.9 38.85 7.1 L39.15 6.25 39.4 7.1 39.4 13.45 Q39.9 16.35 39.95 22.35 40.0 28.25 40.45 30.35 41.3 25.55 40.8 18.45 40.2 9.85 40.45 6.05 L52.6 6.85 Q57.3 6.6 65.75 4.95 63.95 10.1 63.7 17.05 M38.3 51.0 Q40.25 51.25 40.45 49.95 38.8 50.1 38.3 51.0 M51.2 49.25 Q55.85 49.45 59.95 51.0 57.8 48.75 51.9 48.35 46.3 47.95 42.55 49.4 L51.2 49.25 M57.95 55.15 Q59.1 54.65 59.4 53.65 L57.35 54.45 Q56.15 55.0 55.75 55.75 L57.95 55.15 M47.8 55.65 L43.6 55.75 48.6 56.55 Q51.55 56.7 53.1 55.75 51.45 56.05 47.8 55.65 M41.5 55.25 L43.05 55.75 Q43.95 54.9 42.65 54.7 41.35 54.55 41.5 55.25" fill="#c5efe3" fill-opacity="0.49803922" fill-rule="evenodd" stroke="none"/>
    <path d="M64.15 3.9 Q58.05 5.7 49.4 5.65 40.5 5.55 35.15 3.4 41.35 1.65 47.65 1.25 L59.4 1.8 62.05 2.45 Q63.4 2.95 64.15 3.9" fill="#c5efe3" fill-opacity="0.49803922" fill-rule="evenodd" stroke="none"/>
    <path d="M59.4 53.65 Q59.05 54.6 57.95 55.1 L55.7 55.75 Q56.1 55.0 57.3 54.45 L59.4 53.65" fill="#000000" fill-rule="evenodd" stroke="none"/>
    <path d="M43.55 55.75 L47.75 55.65 Q51.4 56.05 53.05 55.75 51.5 56.7 48.55 56.55 L43.55 55.75" fill="#000000" fill-rule="evenodd" stroke="none"/>
    <path d="M42.5 49.4 Q46.25 47.95 51.85 48.35 57.75 48.75 59.9 51.0 55.8 49.4 51.2 49.25 L42.5 49.4" fill="#000000" fill-rule="evenodd" stroke="none"/>
    <path d="M43.05 55.75 Q43.2 55.55 41.45 55.2 41.3 54.55 42.65 54.7 43.9 54.85 43.05 55.75" fill="#000000" fill-rule="evenodd" stroke="none"/>
    <path d="M40.4 49.95 Q40.2 51.25 38.3 51.0 38.75 50.05 40.4 49.95" fill="#000000" fill-rule="evenodd" stroke="none"/>
    <path d="M35.65 34.6 Q36.25 33.8 36.2 36.0 L36.15 39.35 Q35.55 40.15 35.6 37.95 L35.65 34.6" fill="#c5efe3" fill-rule="evenodd" stroke="none"/>
    <path d="M34.05 8.65 Q34.65 7.9 34.6 10.1 L34.6 13.4 Q34.0 14.2 34.0 12.0 L34.05 8.65" fill="#c5efe3" fill-rule="evenodd" stroke="none"/>
  </g>
</svg>
