<?xml version="1.0" encoding="UTF-8" standalone="no"?>
<svg xmlns:xlink="http://www.w3.org/1999/xlink" height="129.5px" width="129.5px" xmlns="http://www.w3.org/2000/svg">
  <g transform="matrix(1, 0, 0, 1, 0.0, 0.0)">
    <path d="M110.55 18.95 Q115.15 23.6 118.4 28.2 129.5 43.95 129.5 64.75 129.5 91.6 110.55 110.55 91.6 129.5 64.75 129.5 37.95 129.5 18.95 110.55 0.0 91.6 0.0 64.75 0.0 43.95 11.1 28.2 14.35 23.6 18.95 18.95 37.95 0.0 64.75 0.0 91.6 0.0 110.55 18.95 M106.85 28.2 L104.05 25.45 Q87.9 9.25 64.75 9.25 41.65 9.25 25.45 25.45 24.05 26.85 23.15 28.2 9.25 43.5 9.25 64.75 9.25 87.9 25.45 104.05 41.65 120.25 64.75 120.25 87.9 120.25 104.05 104.05 120.25 87.9 120.25 64.75 120.25 43.5 106.85 28.2" fill="url(#gradient0)" fill-rule="evenodd" stroke="none"/>
    <path d="M106.85 28.2 Q120.25 43.5 120.25 64.75 120.25 87.9 104.05 104.05 87.9 120.25 64.75 120.25 41.65 120.25 25.45 104.05 9.25 87.9 9.25 64.75 9.25 43.5 23.15 28.2 24.05 26.85 25.45 25.45 41.65 9.25 64.75 9.25 87.9 9.25 104.05 25.45 L106.85 28.2" fill="url(#gradient1)" fill-rule="evenodd" stroke="none"/>
    <path d="M106.85 28.2 Q120.25 43.5 120.25 64.75 L9.25 64.75 Q9.25 43.5 23.15 28.2 24.05 26.85 25.45 25.45 41.65 9.25 64.75 9.25 87.9 9.25 104.05 25.45 L106.85 28.2" fill="url(#gradient2)" fill-rule="evenodd" stroke="none"/>
  </g>
  <defs>
    <linearGradient gradientTransform="matrix(0.0, -0.0827, 0.0827, 0.0, 69.4, 61.5)" gradientUnits="userSpaceOnUse" id="gradient0" spreadMethod="pad" x1="-819.2" x2="819.2">
      <stop offset="0.0" stop-color="#5b5d5e"/>
      <stop offset="1.0" stop-color="#b7babc"/>
    </linearGradient>
    <linearGradient gradientTransform="matrix(0.0, -0.0676, 0.0676, 0.0, 55.05, 58.3)" gradientUnits="userSpaceOnUse" id="gradient1" spreadMethod="pad" x1="-819.2" x2="819.2">
      <stop offset="0.0" stop-color="#cccccc" stop-opacity="0.4"/>
      <stop offset="1.0" stop-color="#ffffff" stop-opacity="0.6"/>
    </linearGradient>
    <linearGradient gradientTransform="matrix(0.0, -0.0344, 0.0676, 0.0, 54.6, 37.0)" gradientUnits="userSpaceOnUse" id="gradient2" spreadMethod="pad" x1="-819.2" x2="819.2">
      <stop offset="0.0" stop-color="#cccccc" stop-opacity="0.0"/>
      <stop offset="1.0" stop-color="#ffffff" stop-opacity="0.29803923"/>
    </linearGradient>
  </defs>
</svg>
