<?xml version="1.0" encoding="UTF-8" standalone="no"?>
<svg xmlns:xlink="http://www.w3.org/1999/xlink" height="69.65px" width="89.95px" xmlns="http://www.w3.org/2000/svg">
  <g transform="matrix(1, 0, 0, 1, 0.0, 0.0)">
    <path d="M89.95 8.45 L89.95 8.7 88.8 9.9 Q87.7 10.6 88.05 11.35 70.25 23.15 55.75 34.7 59.1 38.1 66.5 43.9 73.95 50.15 77.65 52.55 77.3 54.7 74.7 56.4 73.2 57.6 69.85 59.3 70.25 59.8 70.25 60.25 66.5 62.7 65.4 62.9 L61.7 61.25 Q57.95 63.9 55.0 64.6 L50.15 61.25 Q42.0 53.5 37.15 49.9 L14.85 69.65 12.65 69.65 9.65 67.5 10.4 66.05 Q8.55 65.1 6.3 66.55 4.1 65.55 0.0 61.45 1.85 60.05 1.85 59.05 2.25 58.35 1.1 57.35 0.0 55.95 0.0 55.45 L0.0 54.95 11.9 45.3 24.55 35.9 Q12.25 22.4 7.05 10.6 10.05 7.7 12.65 6.25 L14.5 7.5 Q15.6 8.45 16.35 8.2 17.1 7.95 18.2 5.55 18.95 3.85 21.55 3.85 23.4 4.1 25.25 5.55 L27.5 8.2 42.35 22.9 Q73.2 2.4 77.3 0.0 L77.65 0.0 82.85 3.15 82.15 4.35 Q84.35 6.25 86.95 5.55 L89.95 8.45" fill="#000000" fill-rule="evenodd" stroke="none"/>
  </g>
</svg>
