<?xml version="1.0" encoding="UTF-8" standalone="no"?>
<svg xmlns:xlink="http://www.w3.org/1999/xlink" height="493.2px" width="221.9px" xmlns="http://www.w3.org/2000/svg">
  <g transform="matrix(1, 0, 0, 1, 107.9, 238.0)">
    <path d="M98.25 -234.2 Q110.2 -234.2 110.2 -218.55 L110.2 235.8 Q110.2 251.4 98.25 251.4 L-92.1 251.4 Q-104.1 251.4 -104.1 235.8 L-104.1 -218.55 Q-104.1 -234.2 -92.1 -234.2 L98.25 -234.2" fill="url(#gradient0)" fill-rule="evenodd" stroke="none"/>
    <path d="M98.25 -234.2 L-92.1 -234.2 Q-104.1 -234.2 -104.1 -218.55 L-104.1 235.8 Q-104.1 251.4 -92.1 251.4 L98.25 251.4 Q110.2 251.4 110.2 235.8 L110.2 -218.55 Q110.2 -234.2 98.25 -234.2" fill="none" stroke="#373535" stroke-linecap="butt" stroke-linejoin="miter" stroke-miterlimit="2560" stroke-width="7.6000000000000005"/>
  </g>
  <defs>
    <radialGradient cx="0" cy="0" gradientTransform="matrix(0.0, 0.506, 0.1768, 0.0, 2.75, 13.45)" gradientUnits="userSpaceOnUse" id="gradient0" r="819.2" spreadMethod="pad">
      <stop offset="0.0" stop-color="#91c84b"/>
      <stop offset="1.0" stop-color="#256e46"/>
    </radialGradient>
  </defs>
</svg>
