<?xml version="1.0" encoding="UTF-8" standalone="no"?>
<svg xmlns:xlink="http://www.w3.org/1999/xlink" height="102.7px" width="105.0px" xmlns="http://www.w3.org/2000/svg">
  <g transform="matrix(1, 0, 0, 1, 52.5, 51.35)">
    <path d="M34.7 -35.0 Q41.5 -28.15 45.25 -19.25 49.1 -10.05 49.1 0.0 49.1 10.05 45.25 19.25 41.5 28.15 34.7 35.0 27.95 41.85 19.1 45.6 10.0 49.5 0.0 49.5 -10.0 49.5 -19.1 45.6 -27.95 41.85 -34.75 35.0 -41.5 28.15 -45.25 19.25 -49.1 10.05 -49.1 0.0 -49.1 -10.05 -45.25 -19.25 -41.5 -28.15 -34.75 -35.0 -27.95 -41.85 -19.1 -45.6 -10.0 -49.5 0.0 -49.5 10.0 -49.5 19.1 -45.6 27.95 -41.85 34.7 -35.0" fill="url(#gradient0)" fill-rule="evenodd" stroke="none"/>
    <path d="M34.7 -35.0 Q41.5 -28.15 45.25 -19.25 49.1 -10.05 49.1 0.0 49.1 10.05 45.25 19.25 41.5 28.15 34.7 35.0 27.95 41.85 19.1 45.6 10.0 49.5 0.0 49.5 -10.0 49.5 -19.1 45.6 -27.95 41.85 -34.75 35.0 -41.5 28.15 -45.25 19.25 -49.1 10.05 -49.1 0.0 -49.1 -10.05 -45.25 -19.25 -41.5 -28.15 -34.75 -35.0 -27.95 -41.85 -19.1 -45.6 -10.0 -49.5 0.0 -49.5 10.0 -49.5 19.1 -45.6 27.95 -41.85 34.7 -35.0" fill="none" stroke="#373535" stroke-linecap="butt" stroke-linejoin="miter" stroke-miterlimit="2560" stroke-width="3.75"/>
  </g>
  <defs>
    <radialGradient cx="0" cy="0" gradientTransform="matrix(0.06, 0.0, 0.0, -0.0604, 0.0, 0.0)" gradientUnits="userSpaceOnUse" id="gradient0" r="819.2" spreadMethod="pad">
      <stop offset="0.0" stop-color="#3aace2"/>
      <stop offset="1.0" stop-color="#3c4693"/>
    </radialGradient>
  </defs>
</svg>
