<?xml version="1.0" encoding="UTF-8" standalone="no"?>
<svg xmlns:xlink="http://www.w3.org/1999/xlink" height="38.0px" width="50.05px" xmlns="http://www.w3.org/2000/svg">
  <g transform="matrix(1, 0, 0, 1, 26.35, 10.65)">
    <path d="M-6.45 -6.8 L-3.95 -8.9 Q-1.1 -10.95 1.8 -10.6 1.6 -6.75 1.7 -0.95 L1.95 9.1 Q2.15 21.25 0.7 27.35 -1.95 26.3 -4.9 23.75 -8.05 20.75 -9.75 19.4 -12.75 17.05 -15.85 16.25 -19.8 15.2 -25.0 16.2 -26.35 13.6 -26.35 7.8 -26.35 2.05 -25.0 -0.55 -19.65 0.85 -15.4 -0.5 -12.35 -1.5 -9.05 -4.4 L-6.45 -6.8" fill="#000000" fill-rule="evenodd" stroke="none"/>
    <path d="M16.9 23.45 Q21.85 16.8 21.75 7.85 21.7 -0.9 16.9 -7.8" fill="none" stroke="#000000" stroke-linecap="round" stroke-linejoin="miter" stroke-miterlimit="1024" stroke-width="3.95"/>
    <path d="M12.4 19.0 Q15.05 13.95 15.1 8.35 15.2 2.4 12.4 -2.25" fill="none" stroke="#000000" stroke-linecap="round" stroke-linejoin="miter" stroke-miterlimit="1024" stroke-width="3.95"/>
    <path d="M6.85 2.25 Q8.1 4.7 8.15 7.85 8.15 11.1 6.85 13.4" fill="none" stroke="#000000" stroke-linecap="round" stroke-linejoin="miter" stroke-miterlimit="1024" stroke-width="3.95"/>
  </g>
</svg>
