<?xml version="1.0" encoding="UTF-8" standalone="no"?>
<svg xmlns:xlink="http://www.w3.org/1999/xlink" height="396.15px" width="718.85px" xmlns="http://www.w3.org/2000/svg">
  <g transform="matrix(1, 0, 0, 1, 359.4, 198.05)">
    <path d="M-355.8 140.95 L-353.2 135.65 Q-349.6 129.3 -344.8 124.2 L-343.9 123.3 Q-342.9 119.85 -333.15 109.55 -322.1 98.45 -321.8 97.75 -318.15 89.9 -313.7 84.55 -307.5 77.1 -298.4 72.35 -292.05 69.05 -276.3 62.95 -261.35 57.2 -254.75 53.5 -249.45 50.55 -230.25 46.1 L-204.35 40.25 -180.25 33.55 Q-176.0 32.35 -171.45 29.25 -167.5 26.5 -165.25 23.75 -157.65 14.75 -148.0 -2.1 L-139.35 -14.8 Q-133.3 -23.35 -131.35 -28.0 L-127.8 -33.55 Q-124.0 -38.95 -120.65 -42.55 L-118.4 -44.85 Q-117.7 -47.55 -112.95 -54.05 -107.15 -61.95 -107.0 -62.55 L-104.4 -71.8 Q-102.4 -77.6 -99.0 -81.0 -96.2 -83.7 -91.5 -90.35 -90.15 -92.3 -87.05 -93.9 -84.3 -95.35 -83.1 -97.85 -82.15 -99.9 -79.7 -106.95 -77.6 -113.1 -75.75 -116.25 -73.05 -120.9 -62.6 -134.25 -52.8 -146.8 -49.6 -153.0 -45.15 -161.6 -36.35 -164.4 -33.55 -165.3 -29.6 -165.8 L-24.5 -166.5 Q-16.8 -170.15 -10.45 -171.9 2.0 -175.35 2.0 -167.5 2.0 -166.7 1.05 -165.25 L-1.15 -161.9 Q-4.45 -156.35 -5.0 -148.75 -5.2 -145.4 -7.2 -139.15 -9.3 -132.65 -9.6 -129.6 -9.8 -127.15 -12.0 -119.75 -13.85 -113.45 -13.5 -110.1 -12.95 -105.3 -14.1 -99.9 -14.95 -96.1 -16.5 -94.1 L-16.5 -93.6 Q-16.5 -87.3 -22.95 -50.65 -28.45 -19.5 -30.75 -8.85 L-30.5 -8.1 Q-17.55 -10.9 -3.6 -15.35 L20.1 -23.1 33.9 -25.8 Q45.1 -27.9 49.6 -29.75 55.3 -32.1 62.95 -34.2 70.35 -36.25 77.5 -37.5 97.65 -41.05 110.55 -45.35 117.55 -47.7 133.1 -54.6 135.45 -55.65 144.15 -57.65 152.15 -59.45 156.35 -61.75 L166.95 -67.95 Q176.65 -73.5 178.25 -73.5 L179.65 -73.35 181.75 -75.3 Q191.0 -83.55 191.0 -84.85 191.0 -88.0 192.2 -94.65 193.45 -101.5 193.5 -104.35 L200.45 -124.0 Q204.55 -135.15 208.75 -143.4 210.1 -146.1 222.85 -149.5 236.25 -153.05 238.4 -155.4 241.75 -159.05 243.5 -165.1 L246.0 -174.9 Q247.65 -179.95 251.9 -184.25 257.65 -190.0 266.15 -191.75 281.25 -194.8 286.4 -194.4 294.0 -193.8 294.0 -186.75 L291.45 -166.55 Q288.8 -146.85 288.5 -142.5 288.05 -125.9 287.0 -116.6 285.8 -105.9 283.15 -101.9 281.65 -88.2 287.65 -86.0 294.85 -83.3 305.05 -81.25 L326.15 -77.5 Q329.0 -77.0 334.5 -74.6 L340.9 -71.75 344.7 -71.4 Q347.35 -71.7 355.65 -69.0 358.55 -68.05 358.55 -64.5 358.55 -58.9 342.95 -53.45 334.0 -50.3 324.15 -48.8 325.05 -50.0 325.05 -51.5 325.05 -53.75 324.15 -54.65 323.25 -55.55 320.6 -56.05 310.95 -57.0 300.55 -59.0 L284.9 -59.1 Q277.25 -59.85 263.9 -63.5 252.45 -66.65 238.15 -67.1 240.7 -68.95 241.65 -70.3 242.55 -71.55 242.55 -73.1 242.55 -76.85 239.9 -77.65 236.25 -78.7 228.5 -73.5 223.15 -69.9 215.85 -68.45 213.35 -67.95 212.6 -67.4 211.5 -66.55 211.5 -64.5 211.5 -63.05 212.25 -61.85 212.75 -61.0 213.6 -60.45 210.5 -60.15 208.9 -59.05 207.25 -57.9 206.95 -55.85 L207.0 -52.65 Q207.0 -48.85 208.0 -45.95 209.0 -43.05 209.0 -41.6 209.0 -38.1 208.0 -36.6 207.15 -35.4 204.55 -34.25 194.65 -29.9 187.9 -24.5 185.95 -22.9 181.55 -21.0 L173.8 -17.75 Q166.4 -14.4 164.9 -10.85 160.6 -10.65 152.7 -7.25 134.15 2.1 131.65 2.1 131.05 2.1 129.95 1.55 128.9 1.0 128.25 1.0 125.75 1.0 117.75 4.8 L109.35 9.0 Q106.3 10.4 98.0 12.55 90.65 14.4 88.1 16.1 83.4 19.2 78.5 21.15 75.05 22.55 68.35 24.5 66.25 25.1 57.0 29.2 48.35 33.1 47.75 33.1 47.15 33.1 45.75 32.55 44.4 32.0 43.75 32.0 39.85 32.0 34.6 34.3 29.35 36.6 27.85 36.6 22.05 36.6 20.65 37.25 19.0 38.0 19.0 41.0 19.0 42.9 22.25 45.85 25.7 49.05 29.85 49.45 L28.6 50.0 27.6 50.35 Q44.0 56.45 64.5 62.3 L106.1 74.0 118.5 74.65 Q126.65 75.2 130.75 81.25 131.55 82.4 142.1 84.55 L153.25 86.6 Q166.4 89.45 195.35 98.25 204.25 100.95 243.1 110.75 273.2 118.35 279.15 121.5 287.7 126.0 302.15 129.8 309.6 131.75 327.35 135.35 342.1 138.35 347.7 140.25 356.05 143.05 356.05 146.5 356.05 154.85 331.4 166.6 321.7 171.2 312.3 174.25 302.9 177.25 299.0 177.0 L284.55 177.0 Q299.6 175.95 303.85 174.6 307.55 173.35 307.55 170.05 307.55 164.3 297.7 164.25 L288.85 164.55 280.55 164.0 265.9 163.9 Q245.5 161.9 199.3 155.2 L137.4 145.85 106.85 140.4 Q88.35 137.0 78.85 135.85 L42.75 131.55 8.0 127.5 -13.05 127.35 -26.65 125.35 -37.55 124.25 -37.5 124.1 Q-36.5 123.0 -36.2 122.15 L-36.0 120.5 Q-36.0 117.25 -39.65 116.1 -42.6 115.15 -51.4 114.8 -83.3 113.45 -103.6 110.35 L-132.7 105.35 -153.6 101.25 Q-153.1 95.95 -154.6 94.3 -155.85 92.9 -158.25 94.25 -160.35 95.5 -162.15 98.1 -164.0 100.75 -164.0 102.75 L-163.8 105.55 Q-168.9 103.65 -173.6 106.0 L-177.85 108.55 Q-180.6 110.25 -182.6 111.0 -189.5 113.6 -200.8 118.55 L-218.15 126.0 -228.95 130.95 Q-239.75 135.9 -249.4 139.6 -280.5 151.35 -302.55 151.35 -323.15 151.35 -340.35 145.95 -348.95 143.2 -353.55 140.5 -354.85 140.5 -355.8 140.95 M258.25 -49.75 L257.95 -49.55 253.4 -45.6 Q249.3 -42.05 244.9 -40.7 245.2 -42.95 247.05 -44.0 L254.3 -48.2 Q255.85 -49.2 256.35 -50.15 L258.25 -49.75 M116.6 17.35 L98.4 24.0 96.55 24.7 Q113.75 17.5 115.5 17.5 L116.6 17.35 M71.3 147.5 L71.0 147.5 70.7 147.5 71.2 147.25 71.3 147.5 M21.85 168.75 L15.05 173.0 Q14.2 173.5 8.55 177.85 3.25 181.9 -1.5 184.5 -16.8 193.0 -36.5 193.0 -47.15 193.0 -49.6 187.4 -50.4 185.6 -50.3 183.35 L-50.0 181.15 Q-50.0 179.85 -48.65 171.7 -47.25 163.15 -46.5 160.5 L-47.8 160.25 -46.9 159.85 -34.55 158.8 -25.25 156.6 -24.95 159.15 Q-23.7 160.75 -18.1 160.75 L-11.45 160.4 Q-10.4 159.8 -8.5 159.25 L0.6 159.25 3.2 164.5 Q4.25 166.95 4.25 169.25 L3.75 175.05 3.95 176.7 Q4.45 178.25 6.25 178.25 7.1 178.25 11.55 175.1 16.7 171.5 18.0 170.85 L21.85 168.75 M-60.95 164.95 L-72.45 169.4 Q-90.1 176.0 -93.5 176.0 -106.75 176.0 -112.15 167.85 -115.0 163.55 -115.0 158.65 L-114.9 154.1 Q-114.65 152.35 -113.45 151.05 -111.75 149.25 -99.6 142.5 -99.1 142.25 -92.0 138.95 -87.65 137.0 -87.1 135.5 L-86.1 131.4 Q-85.25 128.55 -83.5 127.35 L-83.35 127.25 -86.75 125.8 -82.0 126.5 Q-80.0 126.5 -78.65 125.2 L-68.25 127.6 -73.25 128.25 -73.85 127.1 Q-74.55 126.25 -76.1 126.25 -82.5 126.25 -88.75 140.15 L-88.5 141.6 Q-87.9 143.0 -86.1 143.0 -84.8 143.0 -83.75 142.1 L-81.8 140.15 Q-78.65 137.25 -71.65 137.25 -70.8 137.25 -66.5 138.85 -62.0 140.5 -58.75 140.75 -56.5 140.9 -55.95 143.1 -55.75 143.8 -55.75 146.4 -55.75 151.05 -59.5 156.35 -63.25 161.6 -63.25 162.4 -63.25 163.1 -62.85 163.8 -62.25 164.75 -60.95 164.95 M-108.4 121.05 L-113.5 121.0 -125.3 119.75 -136.35 118.6 -151.75 118.6 Q-151.5 117.85 -151.5 117.0 -151.5 116.1 -151.75 115.3 L-147.35 115.85 -124.65 117.5 -122.45 117.7 -120.55 118.55 -108.4 121.05 M-294.6 165.1 L-299.05 166.0 -307.0 166.0 -302.15 165.15 -294.6 165.1 M-326.9 163.2 Q-335.95 162.15 -345.3 157.35 -348.45 155.75 -350.75 154.25 L-349.55 154.7 Q-343.7 156.85 -329.05 159.25 -329.0 161.3 -326.9 163.2 M70.25 -5.25 Q67.3 -5.25 61.0 -2.2 L53.75 1.6 Q52.05 2.4 43.7 4.45 40.85 5.15 39.4 6.05 L35.6 6.15 Q29.5 7.1 28.9 9.75 L27.55 9.25 Q26.65 8.75 26.35 8.75 23.6 8.75 9.8 13.55 -4.75 18.55 -4.75 20.5 L-4.35 21.8 Q-3.55 23.0 -1.75 23.0 -0.75 23.0 15.35 16.75 22.95 16.75 32.0 14.25 38.65 12.4 40.8 10.5 43.7 10.35 58.0 5.0 L58.75 5.25 59.5 5.5 Q61.25 5.5 71.95 1.15 L86.15 -4.65 112.15 -13.8 125.45 -18.2 Q133.35 -20.55 139.75 -21.5 143.7 -22.1 153.3 -26.35 163.0 -30.7 163.0 -32.0 163.0 -36.7 153.4 -33.0 143.45 -28.2 142.75 -28.0 L130.55 -24.6 118.25 -21.25 Q113.45 -19.8 106.95 -17.4 L95.6 -13.15 81.95 -7.8 Q73.1 -4.3 72.5 -4.3 71.0 -5.25 70.25 -5.25 M221.55 -60.4 L222.4 -60.5 223.45 -60.2 221.55 -60.4 M-65.6 47.4 Q-61.0 44.4 -61.0 43.45 -61.0 39.6 -68.45 41.75 -72.3 42.85 -77.8 45.25 -78.65 45.55 -86.3 49.6 -92.9 53.1 -97.8 54.0 L-108.5 56.4 -119.4 59.15 Q-121.15 59.65 -128.4 63.35 -135.5 67.0 -136.35 68.35 -140.6 70.2 -145.9 71.85 L-167.9 78.9 -174.25 79.0 Q-178.7 79.05 -181.3 80.5 -183.85 81.9 -182.55 83.5 L-186.8 85.55 Q-188.25 86.35 -188.25 88.0 L-187.85 89.3 Q-187.15 90.5 -185.75 90.5 -185.0 90.5 -182.7 89.5 -179.65 88.15 -178.75 87.85 L-174.5 86.75 -169.8 85.65 Q-166.55 84.85 -162.05 83.3 L-154.15 80.35 -140.1 75.35 -133.1 72.4 -132.25 72.5 -121.9 70.1 -111.8 67.65 Q-107.25 67.55 -101.85 64.65 -96.5 61.8 -96.5 59.65 L-96.5 59.1 Q-88.3 57.4 -74.75 52.25 -70.45 50.6 -65.6 47.4 M-23.6 31.7 Q-24.2 30.5 -25.75 30.5 L-29.0 30.05 Q-30.05 30.05 -33.4 32.4 -34.9 33.45 -37.95 34.55 -39.5 35.1 -39.5 36.65 -39.5 37.3 -39.1 38.0 -38.35 39.25 -36.75 39.25 -33.65 39.25 -28.5 37.0 -23.25 34.7 -23.25 33.15 -23.25 32.35 -23.6 31.7 M-219.05 92.35 L-222.25 95.7 Q-224.5 98.05 -224.5 99.4 -224.5 100.05 -224.1 100.8 -223.4 102.0 -221.85 102.0 -220.95 102.0 -217.55 99.85 L-214.3 97.65 -212.5 98.5 Q-209.5 98.5 -206.8 96.45 -204.25 94.5 -204.25 92.75 L-205.4 90.65 Q-206.85 88.5 -208.25 88.5 -209.0 88.5 -209.45 88.9 -210.05 89.4 -211.05 89.65 -211.75 86.6 -215.25 88.85 -217.95 90.6 -219.05 92.35 M-224.4 58.15 Q-229.85 59.35 -235.15 62.8 -241.9 67.1 -244.75 68.25 L-249.35 70.25 Q-252.6 71.65 -254.65 72.15 -256.4 72.6 -256.45 73.45 L-265.5 74.0 Q-266.45 74.0 -267.95 75.15 -269.6 76.3 -270.15 76.4 L-276.35 77.25 Q-280.45 77.85 -284.5 79.0 L-290.25 80.8 -296.15 82.4 -305.0 82.4 -310.1 81.75 Q-311.7 81.75 -313.55 84.65 -315.25 87.15 -315.25 88.25 -315.25 90.55 -313.0 91.5 -310.1 92.7 -301.5 93.0 L-288.5 93.0 Q-271.0 89.35 -260.85 86.55 -246.3 82.5 -235.0 77.35 -229.1 74.7 -210.5 65.4 L-198.9 61.3 Q-187.75 57.1 -187.75 55.5 -187.75 54.65 -188.35 53.9 -189.15 52.85 -190.75 52.75 L-197.75 52.75 -224.4 58.15" fill="#ffffff" fill-rule="evenodd" stroke="none"/>
    <path d="M324.15 -48.8 L323.25 -47.9 Q320.3 -45.45 313.05 -46.0 L277.05 -46.0 258.25 -49.75 256.35 -50.15 Q255.85 -49.2 254.3 -48.2 L247.05 -44.0 Q245.2 -42.95 244.9 -40.7 L244.85 -40.35 Q244.65 -37.65 242.9 -36.35 238.2 -32.75 232.05 -30.15 L219.4 -25.25 Q215.1 -23.55 191.65 -12.85 171.15 -3.5 169.75 -3.5 L168.0 -3.7 Q162.8 1.0 143.9 8.25 134.7 11.8 125.3 14.8 L116.6 17.35 115.5 17.5 Q113.75 17.5 96.55 24.7 L95.4 25.15 Q75.85 33.3 71.25 34.35 L70.6 34.55 64.75 36.9 61.4 38.4 51.35 43.1 46.75 44.05 Q42.3 44.85 39.85 45.85 36.55 47.15 34.45 48.75 33.45 49.5 31.0 49.5 L29.85 49.45 Q25.7 49.05 22.25 45.85 19.0 42.9 19.0 41.0 19.0 38.0 20.65 37.25 22.05 36.6 27.85 36.6 29.35 36.6 34.6 34.3 39.85 32.0 43.75 32.0 44.4 32.0 45.75 32.55 47.15 33.1 47.75 33.1 48.35 33.1 57.0 29.2 66.25 25.1 68.35 24.5 75.05 22.55 78.5 21.15 83.4 19.2 88.1 16.1 90.65 14.4 98.0 12.55 106.3 10.4 109.35 9.0 L117.75 4.8 Q125.75 1.0 128.25 1.0 128.9 1.0 129.95 1.55 131.05 2.1 131.65 2.1 134.15 2.1 152.7 -7.25 160.6 -10.65 164.9 -10.85 166.4 -14.4 173.8 -17.75 L181.55 -21.0 Q185.95 -22.9 187.9 -24.5 194.65 -29.9 204.55 -34.25 207.15 -35.4 208.0 -36.6 209.0 -38.1 209.0 -41.6 209.0 -43.05 208.0 -45.95 207.0 -48.85 207.0 -52.65 L206.95 -55.85 Q207.25 -57.9 208.9 -59.05 210.5 -60.15 213.6 -60.45 212.75 -61.0 212.25 -61.85 211.5 -63.05 211.5 -64.5 211.5 -66.55 212.6 -67.4 213.35 -67.95 215.85 -68.45 223.15 -69.9 228.5 -73.5 236.25 -78.7 239.9 -77.65 242.55 -76.85 242.55 -73.1 242.55 -71.55 241.65 -70.3 240.7 -68.95 238.15 -67.1 252.45 -66.65 263.9 -63.5 277.25 -59.85 284.9 -59.1 L300.55 -59.0 Q310.95 -57.0 320.6 -56.05 323.25 -55.55 324.15 -54.65 325.05 -53.75 325.05 -51.5 325.05 -50.0 324.15 -48.8 M284.55 177.0 L271.9 177.15 270.05 177.5 248.55 177.5 242.65 176.65 211.0 176.5 170.0 170.9 133.15 165.15 Q120.55 163.05 115.4 161.75 108.15 159.95 99.75 156.35 97.25 155.3 91.9 154.45 L82.55 153.0 Q72.9 151.25 71.3 147.5 L71.2 147.25 70.7 147.5 Q67.9 148.75 64.6 148.75 L58.85 147.95 46.75 147.15 Q46.45 147.15 42.0 152.95 36.35 159.6 30.6 163.25 L21.85 168.75 18.0 170.85 Q16.7 171.5 11.55 175.1 7.1 178.25 6.25 178.25 4.45 178.25 3.95 176.7 L3.75 175.05 4.25 169.25 Q4.25 166.95 3.2 164.5 L0.6 159.25 -8.5 159.25 Q-10.4 159.8 -11.45 160.4 L-18.1 160.75 Q-23.7 160.75 -24.95 159.15 L-25.25 156.6 -34.55 158.8 -46.9 159.85 -47.8 160.25 -52.8 162.45 Q-58.65 165.0 -60.25 165.0 L-60.95 164.95 Q-62.25 164.75 -62.85 163.8 -63.25 163.1 -63.25 162.4 -63.25 161.6 -59.5 156.35 -55.75 151.05 -55.75 146.4 -55.75 143.8 -55.95 143.1 -56.5 140.9 -58.75 140.75 -62.0 140.5 -66.5 138.85 -70.8 137.25 -71.65 137.25 -78.65 137.25 -81.8 140.15 L-83.75 142.1 Q-84.8 143.0 -86.1 143.0 -87.9 143.0 -88.5 141.6 L-88.75 140.15 Q-82.5 126.25 -76.1 126.25 -74.55 126.25 -73.85 127.1 L-73.25 128.25 -68.25 127.6 -78.65 125.2 Q-80.0 126.5 -82.0 126.5 L-86.75 125.8 -92.3 124.65 -104.75 121.85 -108.4 121.05 -120.55 118.55 -122.45 117.7 -124.65 117.5 -147.35 115.85 -151.75 115.3 Q-151.5 116.1 -151.5 117.0 -151.5 117.85 -151.75 118.6 L-152.5 120.0 Q-154.05 122.0 -157.5 122.0 -159.45 122.0 -160.75 121.35 -167.8 125.2 -182.75 131.55 -201.95 139.65 -217.9 145.5 -236.1 152.1 -251.1 156.55 -268.75 161.7 -285.5 165.0 L-294.6 165.1 -302.15 165.15 -307.0 166.0 -320.55 166.0 Q-323.25 166.1 -326.1 163.9 L-326.9 163.2 Q-329.0 161.3 -329.05 159.25 -343.7 156.85 -349.55 154.7 L-350.75 154.25 Q-358.55 150.9 -358.55 145.6 -358.55 144.05 -357.7 142.65 -356.95 141.5 -355.8 140.95 -354.85 140.5 -353.55 140.5 -348.95 143.2 -340.35 145.95 -323.15 151.35 -302.55 151.35 -280.5 151.35 -249.4 139.6 -239.75 135.9 -228.95 130.95 L-218.15 126.0 -200.8 118.55 Q-189.5 113.6 -182.6 111.0 -180.6 110.25 -177.85 108.55 L-173.6 106.0 Q-168.9 103.65 -163.8 105.55 L-164.0 102.75 Q-164.0 100.75 -162.15 98.1 -160.35 95.5 -158.25 94.25 -155.85 92.9 -154.6 94.3 -153.1 95.95 -153.6 101.25 L-132.7 105.35 -103.6 110.35 Q-83.3 113.45 -51.4 114.8 -42.6 115.15 -39.65 116.1 -36.0 117.25 -36.0 120.5 L-36.2 122.15 Q-36.5 123.0 -37.5 124.1 L-37.55 124.25 -26.65 125.35 -13.05 127.35 8.0 127.5 42.75 131.55 78.85 135.85 Q88.35 137.0 106.85 140.4 L137.4 145.85 199.3 155.2 Q245.5 161.9 265.9 163.9 L280.55 164.0 288.85 164.55 297.7 164.25 Q307.55 164.3 307.55 170.05 307.55 173.35 303.85 174.6 299.6 175.95 284.55 177.0 M221.55 -60.4 L223.45 -60.2 222.4 -60.5 221.55 -60.4" fill="#cccccc" fill-rule="evenodd" stroke="none"/>
    <path d="M70.25 -5.25 Q71.0 -5.25 72.5 -4.3 73.1 -4.3 81.95 -7.8 L95.6 -13.15 106.95 -17.4 Q113.45 -19.8 118.25 -21.25 L130.55 -24.6 142.75 -28.0 Q143.45 -28.2 153.4 -33.0 163.0 -36.7 163.0 -32.0 163.0 -30.7 153.3 -26.35 143.7 -22.1 139.75 -21.5 133.35 -20.55 125.45 -18.2 L112.15 -13.8 86.15 -4.65 71.95 1.15 Q61.25 5.5 59.5 5.5 L58.75 5.25 58.0 5.0 Q43.7 10.35 40.8 10.5 38.65 12.4 32.0 14.25 22.95 16.75 15.35 16.75 -0.75 23.0 -1.75 23.0 -3.55 23.0 -4.35 21.8 L-4.75 20.5 Q-4.75 18.55 9.8 13.55 23.6 8.75 26.35 8.75 26.65 8.75 27.55 9.25 L28.9 9.75 Q29.5 7.1 35.6 6.15 L39.4 6.05 Q40.85 5.15 43.7 4.45 52.05 2.4 53.75 1.6 L61.0 -2.2 Q67.3 -5.25 70.25 -5.25 M-23.6 31.7 Q-23.25 32.35 -23.25 33.15 -23.25 34.7 -28.5 37.0 -33.65 39.25 -36.75 39.25 -38.35 39.25 -39.1 38.0 -39.5 37.3 -39.5 36.65 -39.5 35.1 -37.95 34.55 -34.9 33.45 -33.4 32.4 -30.05 30.05 -29.0 30.05 L-25.75 30.5 Q-24.2 30.5 -23.6 31.7 M-65.6 47.4 Q-70.45 50.6 -74.75 52.25 -88.3 57.4 -96.5 59.1 L-96.5 59.65 Q-96.5 61.8 -101.85 64.65 -107.25 67.55 -111.8 67.65 L-121.9 70.1 -132.25 72.5 -133.1 72.4 -140.1 75.35 -154.15 80.35 -162.05 83.3 Q-166.55 84.85 -169.8 85.65 L-174.5 86.75 -178.75 87.85 Q-179.65 88.15 -182.7 89.5 -185.0 90.5 -185.75 90.5 -187.15 90.5 -187.85 89.3 L-188.25 88.0 Q-188.25 86.35 -186.8 85.55 L-182.55 83.5 Q-183.85 81.9 -181.3 80.5 -178.7 79.05 -174.25 79.0 L-167.9 78.9 -145.9 71.85 Q-140.6 70.2 -136.35 68.35 -135.5 67.0 -128.4 63.35 -121.15 59.65 -119.4 59.15 L-108.5 56.4 -97.8 54.0 Q-92.9 53.1 -86.3 49.6 -78.65 45.55 -77.8 45.25 -72.3 42.85 -68.45 41.75 -61.0 39.6 -61.0 43.45 -61.0 44.4 -65.6 47.4 M-224.4 58.15 L-197.75 52.75 -190.75 52.75 Q-189.15 52.85 -188.35 53.9 -187.75 54.65 -187.75 55.5 -187.75 57.1 -198.9 61.3 L-210.5 65.4 Q-229.1 74.7 -235.0 77.35 -246.3 82.5 -260.85 86.55 -271.0 89.35 -288.5 93.0 L-301.5 93.0 Q-310.1 92.7 -313.0 91.5 -315.25 90.55 -315.25 88.25 -315.25 87.15 -313.55 84.65 -311.7 81.75 -310.1 81.75 L-305.0 82.4 -296.15 82.4 -290.25 80.8 -284.5 79.0 Q-280.45 77.85 -276.35 77.25 L-270.15 76.4 Q-269.6 76.3 -267.95 75.15 -266.45 74.0 -265.5 74.0 L-256.45 73.45 Q-256.4 72.6 -254.65 72.15 -252.6 71.65 -249.35 70.25 L-244.75 68.25 Q-241.9 67.1 -235.15 62.8 -229.85 59.35 -224.4 58.15 M-219.05 92.35 Q-217.95 90.6 -215.25 88.85 -211.75 86.6 -211.05 89.65 -210.05 89.4 -209.45 88.9 -209.0 88.5 -208.25 88.5 -206.85 88.5 -205.4 90.65 L-204.25 92.75 Q-204.25 94.5 -206.8 96.45 -209.5 98.5 -212.5 98.5 L-214.3 97.65 -217.55 99.85 Q-220.95 102.0 -221.85 102.0 -223.4 102.0 -224.1 100.8 -224.5 100.05 -224.5 99.4 -224.5 98.05 -222.25 95.7 L-219.05 92.35" fill="#00ffff" fill-rule="evenodd" stroke="none"/>
    <path d="M262.0 -186.2 L251.8 -182.2 Q246.95 -173.95 241.4 -160.55 L231.8 -136.6 Q219.3 -106.3 204.3 -90.4 182.5 -67.25 125.4 -48.6 106.85 -42.5 75.35 -34.05 L27.0 -20.75 Q-9.25 -10.05 -60.3 3.5 -116.55 18.25 -143.95 25.7 -241.55 52.1 -305.45 77.4 -290.95 81.1 -273.3 76.2 -263.7 73.5 -242.3 63.9 -222.7 55.05 -212.0 52.8 -195.4 49.3 -181.95 55.25 L-213.0 69.45 Q-232.75 78.6 -246.15 83.65 -286.15 98.65 -318.1 96.4 -333.3 109.45 -340.55 118.25 -351.65 131.65 -356.1 147.05 -333.7 162.1 -305.85 162.35 -283.5 162.6 -253.65 152.95 -242.75 149.4 -227.6 143.55 L-202.0 133.45 Q-171.4 121.55 -153.45 118.55 -162.75 113.7 -165.7 110.15 -170.55 104.3 -166.15 96.4 -163.25 98.05 -161.85 103.2 L-159.8 112.25 5.9 137.25 179.0 162.9 Q195.55 165.35 228.7 171.25 257.85 176.0 276.65 176.45 301.7 177.05 320.1 170.9 341.35 163.85 356.3 147.05 323.9 135.05 258.6 118.1 189.3 100.2 160.0 90.05 156.6 88.75 155.15 89.95 154.25 90.65 153.65 93.25 153.05 95.8 152.15 96.5 150.7 97.7 147.3 96.4 146.8 93.6 148.5 91.25 150.4 88.6 150.5 86.9 137.55 83.3 114.0 78.25 87.2 72.55 77.15 70.0 34.7 59.35 14.35 42.55 17.15 36.35 21.05 41.45 L24.1 46.05 Q25.85 48.6 27.0 48.9 159.8 7.35 254.95 -49.25 246.55 -52.35 230.8 -53.6 L204.3 -55.6 Q211.7 -66.2 224.4 -73.45 235.65 -79.85 251.8 -84.05 245.3 -78.15 232.15 -72.05 213.35 -63.45 210.65 -61.9 L248.25 -55.55 Q273.25 -51.1 288.2 -49.65 334.85 -45.25 356.3 -61.9 352.6 -47.15 321.9 -45.05 297.8 -43.35 267.65 -49.25 219.85 -22.3 157.1 4.9 111.5 24.65 39.65 52.05 89.2 68.55 199.85 97.65 306.7 125.8 359.45 143.9 346.0 164.55 322.55 173.6 302.25 181.4 272.65 181.1 250.2 180.85 215.5 175.55 L156.8 166.05 Q145.5 164.4 128.65 160.75 L100.8 154.6 Q68.7 147.8 55.5 150.2 45.4 152.05 32.8 160.8 25.4 165.95 10.2 178.1 -3.9 188.75 -15.05 193.3 -30.15 199.45 -45.8 197.7 -51.85 190.4 -53.0 183.9 -54.0 178.25 -52.15 166.05 -56.65 167.1 -69.9 172.25 -83.05 177.35 -89.95 178.9 -113.45 184.15 -115.5 162.9 -119.3 156.55 -116.6 151.8 -114.5 148.15 -107.7 144.55 -99.45 140.6 -95.6 138.55 -88.95 134.95 -87.0 131.25 -118.5 117.45 -153.35 122.9 -175.55 126.4 -215.4 142.45 L-246.6 154.7 Q-264.4 161.15 -278.95 164.35 -316.0 172.45 -349.75 162.9 -358.8 154.7 -359.35 146.1 -359.75 138.75 -353.9 129.95 -350.0 124.1 -340.05 113.65 -328.55 101.55 -324.45 96.4 -321.85 93.1 -316.75 82.5 -312.65 73.85 -308.6 71.05 -286.5 55.75 -240.0 45.45 L-203.65 37.95 Q-183.4 33.7 -172.45 29.9 -139.55 -17.6 -109.15 -65.45 -76.95 -116.1 -52.15 -160.05 -46.75 -161.45 -24.25 -168.55 -7.3 -173.95 4.85 -175.9 -1.1 -153.45 -10.6 -98.3 -20.7 -39.65 -26.8 -14.4 45.95 -31.35 80.1 -41.25 144.3 -59.95 182.15 -80.9 L193.75 -115.2 Q200.7 -134.45 207.45 -147.4 244.6 -153.45 248.65 -188.55 256.75 -189.1 272.0 -193.7 286.15 -197.95 296.1 -198.05 294.2 -168.55 292.3 -146.8 290.0 -120.8 286.6 -93.55 291.85 -87.55 302.55 -84.2 308.7 -82.25 323.45 -79.75 337.6 -77.3 344.1 -75.05 354.55 -71.45 359.45 -65.05 350.9 -67.0 335.8 -71.75 L311.15 -79.2 Q281.35 -87.35 261.3 -84.05 256.15 -87.25 266.15 -89.55 275.7 -91.75 283.45 -90.4 283.85 -117.2 287.25 -144.8 291.35 -173.85 292.95 -188.55 289.95 -195.3 274.55 -190.75 269.75 -189.3 262.0 -186.2 M224.15 -148.15 Q219.25 -146.1 213.8 -147.4 212.0 -142.8 207.2 -133.3 201.85 -122.8 199.75 -117.9 191.5 -99.05 194.8 -87.25 206.45 -101.3 216.55 -118.85 223.95 -131.65 232.8 -150.55 230.0 -150.6 224.15 -148.15 M-42.65 -160.05 Q-64.4 -128.7 -104.45 -65.15 -145.2 -0.5 -166.15 29.9 -151.45 28.6 -131.9 21.4 -108.7 12.8 -99.65 10.9 -90.15 -18.3 -85.55 -31.1 -77.7 -52.95 -68.0 -65.05 -72.35 -53.7 -81.6 -31.95 -89.4 -11.9 -93.3 7.75 -82.75 6.35 -63.55 -0.5 -45.35 -7.0 -33.15 -8.1 -26.85 -34.55 -17.6 -88.7 -8.75 -140.55 -1.5 -169.55 -7.65 -168.8 -21.4 -164.1 -33.3 -160.05 -42.65 -160.05 M-218.7 67.1 Q-198.95 58.6 -188.3 55.25 -200.45 54.15 -215.7 58.2 -226.6 61.1 -243.75 68.2 -268.2 78.3 -271.8 79.6 -287.55 85.45 -299.1 86.9 -301.1 87.15 -304.05 86.0 -307.25 84.6 -308.7 84.15 -313.65 82.65 -314.95 90.05 -291.35 95.9 -251.4 80.75 -243.0 77.55 -218.7 67.1 M-115.5 162.9 Q-112.1 162.7 -110.25 164.75 -109.15 165.95 -107.75 169.4 -106.4 172.75 -105.2 173.95 -103.2 175.95 -99.65 175.55 -94.55 170.5 -97.85 164.55 L-100.95 159.4 Q-102.7 156.2 -102.8 153.4 -109.2 151.65 -111.9 155.4 -113.45 157.5 -115.5 162.9 M-95.75 159.0 L-93.95 168.25 Q-92.7 173.45 -90.15 175.55 -83.35 171.35 -71.25 167.55 L-50.55 161.35 Q-38.9 157.45 -32.25 152.7 -23.75 146.65 -20.5 137.55 -41.1 132.6 -66.95 138.2 -75.75 140.1 -88.6 144.0 L-109.15 150.2 Q-102.75 148.95 -99.5 151.65 -97.0 153.75 -95.75 159.0 M-61.65 131.25 Q-74.15 128.45 -78.55 129.2 -86.45 130.45 -87.0 140.75 L-73.25 137.0 Q-65.4 134.65 -61.65 131.25 M-48.4 176.3 Q-48.95 180.8 -47.55 184.7 -44.1 194.55 -33.15 191.4 -32.15 180.9 -34.7 175.5 -37.7 169.25 -45.8 169.2 -47.9 171.85 -48.4 176.3 M-17.35 137.55 L-21.25 148.0 Q-22.65 151.55 -23.65 156.55 -14.55 155.0 -6.1 150.35 -0.6 147.35 8.0 140.75 L-5.9 140.35 -17.35 137.55 M-0.6 150.7 Q-12.9 156.7 -19.25 159.55 -30.4 164.55 -39.5 166.05 -32.95 167.55 -30.8 174.75 -29.05 180.55 -30.0 191.4 L-8.8 183.3 Q3.45 178.55 11.55 174.35 33.4 163.05 42.85 147.05 30.65 143.3 19.15 144.75 10.25 145.9 -0.6 150.7" fill="#373535" fill-rule="evenodd" stroke="none"/>
    <path d="M175.8 -33.4 Q140.8 -18.1 77.05 2.4 1.2 26.85 -23.65 36.25 -27.3 37.0 -28.7 34.95 -29.65 33.6 -30.0 29.9 -29.4 38.5 -44.5 43.65 -63.55 48.55 -71.15 52.05 -71.65 49.25 -69.95 46.9 -68.05 44.25 -68.0 42.55 -69.85 46.05 -77.45 47.1 -80.0 47.45 -80.2 48.2 -80.45 49.2 -77.65 51.9 -80.9 48.95 -84.1 51.15 -86.1 52.5 -90.6 57.4 -95.25 61.85 -100.05 62.6 -106.7 63.65 -115.5 58.4 -119.25 58.5 -119.3 60.15 -119.35 61.25 -117.55 63.65 -115.65 66.15 -115.55 66.85 -115.35 68.2 -118.65 67.9 -123.75 68.0 -123.5 66.3 -122.15 63.55 -121.8 61.55 -125.65 66.1 -133.1 71.15 -140.9 76.45 -149.25 79.95 -170.2 88.7 -178.8 80.55 -179.3 90.0 -197.55 96.25 -201.85 97.7 -213.9 101.0 -224.45 103.9 -229.45 105.9 -228.9 102.5 -225.9 100.75 -223.8 99.55 -219.3 98.65 L-212.25 97.0 Q-208.65 95.7 -207.3 93.25 -207.75 89.75 -209.7 89.8 -210.8 89.85 -213.55 91.6 -215.95 93.1 -216.65 92.6 -217.75 91.9 -216.8 86.9 -171.05 73.6 -111.9 53.95 -88.1 46.0 -7.45 18.4 125.2 -27.0 197.95 -46.1 141.2 -26.45 97.45 -12.0 43.1 5.95 -4.65 20.4 15.2 18.05 39.45 10.95 56.6 5.95 84.15 -4.0 L129.55 -20.2 Q155.55 -28.95 175.8 -33.4" fill="#373535" fill-rule="evenodd" stroke="none"/>
    <path d="M-116.6 71.55 Q-100.25 65.15 -64.8 55.25 -76.85 61.3 -113.1 75.0 -144.2 86.75 -159.8 96.4 -143.75 82.15 -116.6 71.55" fill="#373535" fill-rule="evenodd" stroke="none"/>
    <path d="M26.1 78.35 Q43.25 83.4 52.35 83.75 37.2 86.45 11.25 79.7 -17.65 70.9 -30.0 67.9 -35.5 66.15 -32.5 65.85 L-22.65 66.75 Q-3.45 69.8 -1.5 74.25 10.4 73.7 26.1 78.35" fill="#373535" fill-rule="evenodd" stroke="none"/>
    <path d="M90.15 97.35 Q75.1 92.9 73.05 92.4 63.15 89.95 55.5 90.05 62.65 87.25 71.3 88.2 77.55 88.9 87.5 92.1 L104.35 97.35 Q114.15 99.9 122.0 99.55 115.2 102.0 106.5 101.05 100.25 100.35 90.15 97.35" fill="#373535" fill-rule="evenodd" stroke="none"/>
    <path d="M288.7 142.75 Q281.95 140.7 277.15 140.75 283.25 137.15 297.9 141.35 L310.0 144.95 Q316.95 146.9 321.45 147.05 314.6 151.45 300.45 146.7 292.65 143.9 288.7 142.75" fill="#373535" fill-rule="evenodd" stroke="none"/>
  </g>
</svg>
