<?xml version="1.0" encoding="UTF-8" standalone="no"?>
<svg xmlns:xlink="http://www.w3.org/1999/xlink" height="501.35px" width="501.5px" xmlns="http://www.w3.org/2000/svg">
  <g transform="matrix(1, 0, 0, 1, 250.75, 250.65)">
    <path d="M-35.5 -246.5 Q-44.0 -244.2 -54.55 -240.4 -54.75 -240.35 -54.9 -240.25 -60.15 -241.9 -74.95 -237.25 -90.6 -232.3 -107.3 -224.15 -120.35 -217.75 -134.25 -209.6 L-139.7 -206.35 Q-92.8 -238.95 -35.5 -246.5 M-188.6 -162.35 L-188.65 -162.3 -201.1 -146.9 -201.8 -146.0 Q-195.6 -154.35 -188.6 -162.35 M-212.8 -129.85 L-212.85 -129.6 Q-212.85 -128.2 -212.45 -127.3 L-212.4 -127.2 -215.85 -124.9 -212.8 -129.85 M-218.7 -119.9 L-218.4 -119.35 Q-217.3 -117.55 -214.6 -117.55 -207.3 -117.55 -197.5 -127.75 -192.1 -133.35 -187.0 -140.9 -183.45 -146.2 -173.0 -153.5 -168.45 -156.65 -155.25 -164.8 -142.05 -172.9 -115.55 -193.45 -101.0 -204.7 -95.0 -209.7 L-93.25 -209.4 Q-91.7 -209.4 -88.9 -212.55 L-87.55 -214.2 Q-82.2 -215.9 -72.9 -219.9 L-50.45 -229.7 -39.15 -232.9 Q-31.6 -235.05 -29.1 -237.75 -27.2 -239.8 -18.45 -241.9 -11.1 -243.65 -11.1 -246.95 -11.1 -247.9 -11.75 -248.55 L0.05 -248.8 Q90.65 -248.8 157.9 -192.5 145.05 -197.5 125.4 -193.4 116.6 -191.6 104.3 -187.35 L88.3 -181.95 Q54.4 -172.5 14.95 -153.8 -15.7 -139.25 -52.55 -117.65 -65.6 -109.95 -82.95 -97.35 -97.5 -86.8 -109.95 -76.65 -117.9 -70.2 -139.8 -55.9 -155.3 -44.7 -157.35 -36.9 L-161.1 -34.85 Q-173.9 -27.0 -192.1 -5.8 -210.55 15.55 -223.15 37.35 -237.25 61.75 -237.25 75.65 L-237.15 77.35 Q-248.75 41.05 -248.75 0.0 -248.75 -66.2 -218.7 -119.9 M-173.45 178.35 Q-170.35 180.65 -168.35 180.65 -164.65 180.65 -162.3 178.35 -161.1 177.2 -160.5 175.75 -155.55 174.45 -151.75 167.8 -147.7 158.85 -145.95 157.5 -141.0 153.7 -135.8 147.65 L-128.25 138.0 Q-122.4 130.2 -110.6 118.95 L-88.95 98.9 Q-84.3 94.45 -67.75 81.85 L-35.5 57.45 Q1.75 29.05 6.2 22.1 11.2 22.0 21.2 16.65 L42.35 4.0 Q74.4 -15.8 91.2 -19.85 L131.2 -34.9 Q172.65 -49.65 185.4 -49.65 L188.05 -48.5 Q190.45 -47.4 191.7 -47.4 193.75 -47.4 205.05 -51.45 216.35 -55.5 224.6 -55.5 L226.3 -54.5 Q228.45 -53.5 231.8 -53.5 238.95 -53.5 241.7 -57.15 L242.45 -58.4 Q248.85 -30.55 248.85 0.0 248.85 47.6 233.3 88.75 232.6 83.3 226.75 81.05 217.95 77.6 214.0 80.35 212.0 82.05 210.75 82.8 208.55 84.15 205.5 84.15 197.55 84.15 192.85 85.25 189.6 86.0 185.7 88.1 175.25 93.55 162.05 96.05 145.6 99.2 134.0 103.3 128.65 105.15 115.3 111.0 L97.45 118.45 Q84.95 123.95 79.0 128.4 73.1 132.8 62.75 141.85 54.7 148.95 50.5 151.3 34.15 160.6 20.45 171.6 12.2 178.25 -5.05 193.2 -9.0 196.5 -14.9 204.4 -22.0 213.85 -24.8 216.8 -29.55 221.75 -34.2 228.6 -39.75 236.8 -39.75 240.35 -39.75 242.85 -38.3 244.7 L-36.45 246.4 Q-114.65 235.75 -173.45 178.35 M235.7 -82.1 L235.1 -83.6 231.4 -93.6 235.7 -82.1 M216.85 -123.3 L221.95 -114.05 220.5 -115.65 217.9 -119.7 217.25 -121.75 216.85 -123.3 M-226.25 105.25 L-211.65 128.25 Q-198.15 149.0 -189.95 159.9 L-184.15 167.3 Q-210.65 138.5 -226.25 105.25" fill="#ffffff" fill-rule="evenodd" stroke="none"/>
    <path d="M-139.7 -206.35 L-134.25 -209.6 Q-120.35 -217.75 -107.3 -224.15 -90.6 -232.3 -74.95 -237.25 -60.15 -241.9 -54.9 -240.25 -54.75 -240.35 -54.55 -240.4 -44.0 -244.2 -35.5 -246.5 L-24.7 -249.0 Q-14.05 -250.9 -11.75 -248.55 -11.1 -247.9 -11.1 -246.95 -11.1 -243.65 -18.45 -241.9 -27.2 -239.8 -29.1 -237.75 -31.6 -235.05 -39.15 -232.9 L-50.45 -229.7 -72.9 -219.9 Q-82.2 -215.9 -87.55 -214.2 L-88.9 -212.55 Q-91.7 -209.4 -93.25 -209.4 L-95.0 -209.7 Q-101.0 -204.7 -115.55 -193.45 -142.05 -172.9 -155.25 -164.8 -168.45 -156.65 -173.0 -153.5 -183.45 -146.2 -187.0 -140.9 -192.1 -133.35 -197.5 -127.75 -207.3 -117.55 -214.6 -117.55 -217.3 -117.55 -218.4 -119.35 L-218.7 -119.9 -219.0 -121.4 Q-219.0 -122.65 -217.0 -124.15 L-215.85 -124.9 -212.4 -127.2 -212.45 -127.3 Q-212.85 -128.2 -212.85 -129.6 L-212.8 -129.85 Q-212.35 -132.85 -201.8 -146.0 L-201.1 -146.9 -188.65 -162.3 -188.6 -162.35 Q-185.15 -169.75 -176.55 -178.5 -168.5 -186.75 -157.45 -194.75 -150.1 -200.05 -139.7 -206.35 M-237.15 77.35 L-237.25 75.65 Q-237.25 61.75 -223.15 37.35 -210.55 15.55 -192.1 -5.8 -173.9 -27.0 -161.1 -34.85 L-157.35 -36.9 Q-155.3 -44.7 -139.8 -55.9 -117.9 -70.2 -109.95 -76.65 -97.5 -86.8 -82.95 -97.35 -65.6 -109.95 -52.55 -117.65 -15.7 -139.25 14.95 -153.8 54.4 -172.5 88.3 -181.95 L104.3 -187.35 Q116.6 -191.6 125.4 -193.4 145.05 -197.5 157.9 -192.5 163.15 -190.45 167.25 -186.9 181.15 -178.95 189.2 -166.05 L192.2 -160.4 190.35 -161.3 Q185.3 -163.65 180.85 -165.05 167.65 -169.25 167.65 -162.85 167.65 -161.55 177.7 -151.3 187.75 -141.05 187.75 -137.55 187.75 -135.9 184.05 -128.95 180.3 -122.0 180.3 -119.5 180.3 -118.3 180.85 -117.45 182.0 -115.6 185.25 -115.6 186.75 -115.6 189.55 -116.7 192.4 -117.85 195.6 -117.85 200.85 -117.85 210.9 -111.75 L220.65 -105.65 Q222.75 -105.65 223.9 -107.2 224.7 -108.3 224.7 -109.5 L224.6 -110.2 Q227.1 -106.6 227.7 -104.8 229.2 -99.75 231.4 -93.6 L235.1 -83.6 235.7 -82.1 Q238.8 -74.4 241.85 -70.25 243.35 -68.2 243.35 -63.25 243.35 -60.4 242.45 -58.4 L241.7 -57.15 Q238.95 -53.5 231.8 -53.5 228.45 -53.5 226.3 -54.5 L224.6 -55.5 Q216.35 -55.5 205.05 -51.45 193.75 -47.4 191.7 -47.4 190.45 -47.4 188.05 -48.5 L185.4 -49.65 Q172.65 -49.65 131.2 -34.9 L91.2 -19.85 Q74.4 -15.8 42.35 4.0 L21.2 16.65 Q11.2 22.0 6.2 22.1 1.75 29.05 -35.5 57.45 L-67.75 81.85 Q-84.3 94.45 -88.95 98.9 L-110.6 118.95 Q-122.4 130.2 -128.25 138.0 L-135.8 147.65 Q-141.0 153.7 -145.95 157.5 -147.7 158.85 -151.75 167.8 -155.55 174.45 -160.5 175.75 -161.1 177.2 -162.3 178.35 -164.65 180.65 -168.35 180.65 -170.35 180.65 -173.45 178.35 -177.75 175.05 -184.15 167.3 L-189.95 159.9 Q-198.15 149.0 -211.65 128.25 L-226.25 105.25 -227.75 102.65 Q-236.45 86.9 -237.15 77.35 M99.45 -143.1 Q97.7 -137.95 95.6 -135.55 90.65 -129.9 80.95 -129.9 79.4 -129.9 71.95 -131.55 L63.55 -133.25 Q61.4 -133.25 60.4 -131.6 59.7 -130.5 59.7 -129.05 59.7 -127.55 60.85 -125.65 L63.35 -121.75 Q67.0 -115.8 67.0 -108.35 67.0 -105.5 64.9 -99.15 62.8 -92.8 62.8 -90.15 62.5 -88.3 62.85 -86.8 63.55 -83.85 66.95 -83.85 67.7 -83.85 71.4 -85.15 75.05 -86.45 77.6 -86.45 L83.55 -86.35 Q85.8 -84.65 90.05 -82.2 94.15 -79.8 96.35 -78.1 97.4 -77.3 99.55 -73.3 101.95 -69.7 105.05 -69.7 108.15 -69.7 108.9 -72.45 109.1 -73.15 109.1 -76.35 109.1 -79.35 110.7 -84.3 112.75 -90.55 115.7 -92.25 L128.55 -99.7 Q137.8 -105.55 137.8 -108.35 137.8 -110.65 135.75 -111.75 134.75 -112.3 130.75 -113.3 122.35 -115.45 119.15 -121.25 L115.15 -129.1 Q113.0 -133.25 110.7 -136.5 L105.85 -144.5 Q101.75 -149.55 99.45 -143.1 M-1.85 -73.05 Q-9.3 -74.7 -10.4 -75.7 -12.0 -77.2 -14.35 -80.35 L-17.9 -84.9 Q-18.85 -86.35 -18.6 -90.05 -19.05 -92.95 -23.7 -92.95 -28.8 -93.0 -29.0 -86.2 -28.95 -82.3 -29.05 -80.4 -29.2 -77.1 -30.2 -75.45 -32.05 -72.45 -42.35 -69.1 -52.1 -65.95 -52.9 -63.1 L-55.9 -64.35 Q-58.4 -65.5 -59.9 -65.5 -62.4 -65.5 -63.55 -63.95 -64.3 -62.9 -64.3 -61.65 -64.3 -59.1 -55.4 -54.8 -46.5 -50.5 -46.5 -48.2 -46.5 -44.45 -49.25 -31.35 L-52.05 -18.95 Q-52.05 -17.8 -51.45 -16.75 -50.45 -14.95 -48.2 -14.95 L-36.55 -18.7 -24.7 -22.5 Q-22.8 -22.5 -7.85 -18.0 -4.9 -18.0 0.7 -27.5 3.65 -32.45 7.65 -40.0 8.65 -41.55 10.5 -45.9 12.2 -50.0 13.3 -51.5 14.55 -53.15 20.55 -57.55 25.3 -61.1 25.3 -63.3 25.3 -64.65 24.75 -65.65 23.75 -67.4 21.45 -67.4 L7.65 -68.0 Q7.45 -68.2 7.5 -69.1 7.6 -70.0 6.6 -70.75 5.75 -71.4 -1.85 -73.05 M-130.8 -11.25 Q-133.5 -5.65 -137.4 -2.3 -139.7 -0.35 -145.0 1.85 -149.05 3.5 -152.65 4.45 -159.55 6.3 -166.45 7.55 -169.95 8.4 -169.95 10.65 -169.95 12.3 -166.45 14.15 -164.8 15.05 -158.75 17.5 -147.6 22.05 -147.75 25.55 -147.85 28.9 -147.25 35.0 -146.6 41.55 -146.6 44.3 -146.6 47.15 -149.65 57.35 -149.65 58.4 -149.1 59.4 -148.1 61.2 -145.65 61.2 -144.4 61.2 -141.75 59.05 L-136.35 54.4 Q-128.35 47.55 -123.15 47.55 L-118.4 48.85 Q-113.25 50.1 -108.15 50.1 -103.75 50.1 -103.75 45.85 L-104.1 34.25 Q-104.05 31.95 -101.95 28.15 -99.5 23.7 -99.15 22.2 -96.85 12.75 -88.75 5.05 -81.15 -0.85 -81.15 -1.55 -81.15 -2.8 -81.9 -3.75 -82.9 -5.05 -84.95 -5.4 L-100.0 -5.5 Q-101.7 -4.95 -104.6 -5.9 -107.6 -6.95 -110.3 -9.05 -117.15 -14.5 -116.0 -21.65 -116.0 -30.15 -120.7 -28.8 -125.25 -27.5 -127.35 -20.7 -129.3 -14.4 -130.8 -11.25 M-36.45 246.4 L-38.3 244.7 Q-39.75 242.85 -39.75 240.35 -39.75 236.8 -34.2 228.6 -29.55 221.75 -24.8 216.8 -22.0 213.85 -14.9 204.4 -9.0 196.5 -5.05 193.2 12.2 178.25 20.45 171.6 34.15 160.6 50.5 151.3 54.7 148.95 62.75 141.85 73.1 132.8 79.0 128.4 84.95 123.95 97.45 118.45 L115.3 111.0 Q128.65 105.15 134.0 103.3 145.6 99.2 162.05 96.05 175.25 93.55 185.7 88.1 189.6 86.0 192.85 85.25 197.55 84.15 205.5 84.15 208.55 84.15 210.75 82.8 212.0 82.05 214.0 80.35 217.95 77.6 226.75 81.05 232.6 83.3 233.3 88.75 L233.4 90.25 Q233.4 96.05 221.5 115.1 L220.8 116.25 208.2 135.65 Q205.55 141.05 196.35 145.65 187.65 150.0 176.4 152.05 161.6 154.75 152.55 158.05 143.9 161.15 134.5 167.05 L100.8 187.55 Q80.85 199.65 69.8 207.25 65.45 210.25 57.95 217.6 51.3 224.15 46.65 229.65 40.85 236.55 35.0 240.2 24.85 246.55 9.9 247.95 L-21.8 247.95 -32.05 247.95 Q-34.7 247.5 -36.45 246.4 M207.85 -139.2 L210.35 -137.1 Q214.85 -132.65 215.75 -126.15 L210.9 -134.2 207.85 -139.2 M217.9 -119.7 L220.5 -115.65 218.95 -117.55 Q218.35 -118.3 217.9 -119.7 M-213.2 84.3 Q-213.2 84.95 -207.65 93.65 -202.1 103.3 -202.1 108.75 L-203.25 117.9 Q-203.25 118.95 -202.7 119.95 -201.7 121.75 -199.25 121.75 -197.7 121.75 -195.85 119.65 L-192.45 114.95 Q-187.6 108.15 -183.3 108.15 L-180.3 109.85 Q-177.45 111.5 -175.6 111.15 L-174.1 115.7 Q-172.3 119.45 -169.2 119.45 -166.95 119.45 -165.95 117.7 -165.35 116.6 -165.35 115.3 -165.35 112.2 -167.25 108.8 -169.05 105.6 -168.8 101.0 -168.65 98.0 -168.9 92.15 L-169.2 86.2 -168.8 80.6 Q-168.75 78.6 -167.05 77.3 -165.35 76.0 -165.35 75.05 -165.35 72.05 -169.2 71.2 L-180.4 71.15 Q-182.65 69.6 -186.1 64.6 L-191.55 56.45 Q-194.5 52.5 -196.25 52.65 -198.4 52.8 -199.45 59.05 -199.7 60.45 -201.5 65.95 -202.85 70.2 -202.8 72.55 -202.75 76.3 -204.35 77.95 -205.45 79.05 -207.95 79.55 -210.8 80.1 -211.55 80.55 -213.2 81.6 -213.2 84.3" fill="#0000ff" fill-rule="evenodd" stroke="none"/>
    <path d="M-130.8 -11.25 Q-129.3 -14.4 -127.35 -20.7 -125.25 -27.5 -120.7 -28.8 -116.0 -30.15 -116.0 -21.65 -117.15 -14.5 -110.3 -9.05 -107.6 -6.95 -104.6 -5.9 -101.7 -4.95 -100.0 -5.5 L-84.95 -5.4 Q-82.9 -5.05 -81.9 -3.75 -81.15 -2.8 -81.15 -1.55 -81.15 -0.85 -88.75 5.05 -96.85 12.75 -99.15 22.2 -99.5 23.7 -101.95 28.15 -104.05 31.95 -104.1 34.25 L-103.75 45.85 Q-103.75 50.1 -108.15 50.1 -113.25 50.1 -118.4 48.85 L-123.15 47.55 Q-128.35 47.55 -136.35 54.4 L-141.75 59.05 Q-144.4 61.2 -145.65 61.2 -148.1 61.2 -149.1 59.4 -149.65 58.4 -149.65 57.35 -146.6 47.15 -146.6 44.3 -146.6 41.55 -147.25 35.0 -147.85 28.9 -147.75 25.55 -147.6 22.05 -158.75 17.5 -164.8 15.05 -166.45 14.15 -169.95 12.3 -169.95 10.65 -169.95 8.4 -166.45 7.55 -159.55 6.3 -152.65 4.45 -149.05 3.5 -145.0 1.85 -139.7 -0.35 -137.4 -2.3 -133.5 -5.65 -130.8 -11.25 M-1.85 -73.05 Q5.75 -71.4 6.6 -70.75 7.6 -70.0 7.5 -69.1 7.45 -68.2 7.65 -68.0 L21.45 -67.4 Q23.75 -67.4 24.75 -65.65 25.3 -64.65 25.3 -63.3 25.3 -61.1 20.55 -57.55 14.55 -53.15 13.3 -51.5 12.2 -50.0 10.5 -45.9 8.65 -41.55 7.65 -40.0 3.65 -32.45 0.7 -27.5 -4.9 -18.0 -7.85 -18.0 -22.8 -22.5 -24.7 -22.5 L-36.55 -18.7 -48.2 -14.95 Q-50.45 -14.95 -51.45 -16.75 -52.05 -17.8 -52.05 -18.95 L-49.25 -31.35 Q-46.5 -44.45 -46.5 -48.2 -46.5 -50.5 -55.4 -54.8 -64.3 -59.1 -64.3 -61.65 -64.3 -62.9 -63.55 -63.95 -62.4 -65.5 -59.9 -65.5 -58.4 -65.5 -55.9 -64.35 L-52.9 -63.1 Q-52.1 -65.95 -42.35 -69.1 -32.05 -72.45 -30.2 -75.45 -29.2 -77.1 -29.05 -80.4 -28.95 -82.3 -29.0 -86.2 -28.8 -93.0 -23.7 -92.95 -19.05 -92.95 -18.6 -90.05 -18.85 -86.35 -17.9 -84.9 L-14.35 -80.35 Q-12.0 -77.2 -10.4 -75.7 -9.3 -74.7 -1.85 -73.05 M99.45 -143.1 Q101.75 -149.55 105.85 -144.5 L110.7 -136.5 Q113.0 -133.25 115.15 -129.1 L119.15 -121.25 Q122.35 -115.45 130.75 -113.3 134.75 -112.3 135.75 -111.75 137.8 -110.65 137.8 -108.35 137.8 -105.55 128.55 -99.7 L115.7 -92.25 Q112.75 -90.55 110.7 -84.3 109.1 -79.35 109.1 -76.35 109.1 -73.15 108.9 -72.45 108.15 -69.7 105.05 -69.7 101.95 -69.7 99.55 -73.3 97.4 -77.3 96.35 -78.1 94.15 -79.8 90.05 -82.2 85.8 -84.65 83.55 -86.35 L77.6 -86.45 Q75.05 -86.45 71.4 -85.15 67.7 -83.85 66.95 -83.85 63.55 -83.85 62.85 -86.8 62.5 -88.3 62.8 -90.15 62.8 -92.8 64.9 -99.15 67.0 -105.5 67.0 -108.35 67.0 -115.8 63.35 -121.75 L60.85 -125.65 Q59.7 -127.55 59.7 -129.05 59.7 -130.5 60.4 -131.6 61.4 -133.25 63.55 -133.25 L71.95 -131.55 Q79.4 -129.9 80.95 -129.9 90.65 -129.9 95.6 -135.55 97.7 -137.95 99.45 -143.1 M224.6 -110.2 L224.7 -109.5 Q224.7 -108.3 223.9 -107.2 222.75 -105.65 220.65 -105.65 L210.9 -111.75 Q200.85 -117.85 195.6 -117.85 192.4 -117.85 189.55 -116.7 186.75 -115.6 185.25 -115.6 182.0 -115.6 180.85 -117.45 180.3 -118.3 180.3 -119.5 180.3 -122.0 184.05 -128.95 187.75 -135.9 187.75 -137.55 187.75 -141.05 177.7 -151.3 167.65 -161.55 167.65 -162.85 167.65 -169.25 180.85 -165.05 185.3 -163.65 190.35 -161.3 L192.2 -160.4 195.5 -158.6 Q198.15 -155.4 201.15 -150.25 L205.85 -142.25 207.85 -139.2 210.9 -134.2 215.75 -126.15 215.9 -125.85 216.85 -123.3 217.25 -121.75 217.9 -119.7 Q218.35 -118.3 218.95 -117.55 L220.5 -115.65 221.95 -114.05 222.5 -113.45 Q224.2 -111.5 224.6 -110.2 M-213.2 84.3 Q-213.2 81.6 -211.55 80.55 -210.8 80.1 -207.95 79.55 -205.45 79.05 -204.35 77.95 -202.75 76.3 -202.8 72.55 -202.85 70.2 -201.5 65.95 -199.7 60.45 -199.45 59.05 -198.4 52.8 -196.25 52.65 -194.5 52.5 -191.55 56.45 L-186.1 64.6 Q-182.65 69.6 -180.4 71.15 L-169.2 71.2 Q-165.35 72.05 -165.35 75.05 -165.35 76.0 -167.05 77.3 -168.75 78.6 -168.8 80.6 L-169.2 86.2 -168.9 92.15 Q-168.65 98.0 -168.8 101.0 -169.05 105.6 -167.25 108.8 -165.35 112.2 -165.35 115.3 -165.35 116.6 -165.95 117.7 -166.95 119.45 -169.2 119.45 -172.3 119.45 -174.1 115.7 L-175.6 111.15 Q-177.45 111.5 -180.3 109.85 L-183.3 108.15 Q-187.6 108.15 -192.45 114.95 L-195.85 119.65 Q-197.7 121.75 -199.25 121.75 -201.7 121.75 -202.7 119.95 -203.25 118.95 -203.25 117.9 L-202.1 108.75 Q-202.1 103.3 -207.65 93.65 -213.2 84.95 -213.2 84.3" fill="#ffff00" fill-rule="evenodd" stroke="none"/>
    <path d="M220.8 116.25 Q203.65 148.25 175.95 175.9 103.1 248.8 0.05 248.8 L-21.8 247.95 9.9 247.95 Q24.85 246.55 35.0 240.2 40.85 236.55 46.65 229.65 51.3 224.15 57.95 217.6 65.45 210.25 69.8 207.25 80.85 199.65 100.8 187.55 L134.5 167.05 Q143.9 161.15 152.55 158.05 161.6 154.75 176.4 152.05 187.65 150.0 196.35 145.65 205.55 141.05 208.2 135.65 L220.8 116.25" fill="#ff0000" fill-rule="evenodd" stroke="none"/>
    <path d="M-35.5 -246.5 Q-92.8 -238.95 -139.7 -206.35 M-212.8 -129.85 L-215.85 -124.9 M-188.6 -162.35 Q-195.6 -154.35 -201.8 -146.0 M157.9 -192.5 Q90.65 -248.8 0.05 -248.8 L-11.75 -248.55 M-173.45 178.35 Q-114.65 235.75 -36.45 246.4 M233.3 88.75 Q248.85 47.6 248.85 0.0 248.85 -30.55 242.45 -58.4 M216.85 -123.3 L221.95 -114.05 M231.4 -93.6 L235.7 -82.1 M220.8 116.25 Q203.65 148.25 175.95 175.9 103.1 248.8 0.05 248.8 L-21.8 247.95 M-226.25 105.25 Q-210.65 138.5 -184.15 167.3 M-237.15 77.35 Q-248.75 41.05 -248.75 0.0 -248.75 -66.2 -218.7 -119.9" fill="none" stroke="#ffffff" stroke-linecap="round" stroke-linejoin="round" stroke-width="1.0"/>
    <path d="M-10.2 -69.2 Q-11.45 -73.6 -16.6 -81.2 -21.4 -88.35 -22.5 -93.8 -26.75 -91.8 -28.1 -85.55 -29.1 -80.95 -28.65 -72.25 -32.05 -71.35 -36.45 -69.3 -41.25 -66.9 -43.75 -65.85 -52.8 -61.95 -62.5 -63.05 -59.35 -67.7 -47.95 -70.0 L-39.1 -71.95 Q-34.35 -73.25 -31.75 -75.35 -32.95 -82.35 -31.05 -90.0 -28.7 -99.45 -28.65 -103.0 -15.75 -86.35 -4.1 -78.35 11.8 -67.45 32.85 -66.1 29.95 -64.25 24.95 -64.9 22.2 -65.2 14.75 -67.25 -0.95 -71.5 -10.2 -69.2" fill="#373535" fill-rule="evenodd" stroke="none"/>
    <path d="M-244.85 -1.65 Q-246.35 37.8 -240.85 56.9 -220.65 26.9 -209.9 12.55 -191.35 -12.25 -173.2 -26.15 L-198.1 4.3 Q-214.0 23.65 -221.85 37.0 -232.8 55.45 -234.35 71.15 -235.65 83.65 -231.15 95.2 L-225.5 106.1 Q-229.0 100.75 -231.15 95.2 -246.55 63.0 -249.85 25.75 -253.2 -12.75 -243.95 -63.05 -243.0 -51.3 -243.55 -33.35 -243.85 -22.95 -244.85 -1.65" fill="#373535" fill-rule="evenodd" stroke="none"/>
    <path d="M161.8 -185.0 Q159.15 -187.9 158.95 -192.2 117.5 -192.9 75.25 -177.5 64.05 -173.35 40.35 -163.2 18.05 -153.65 5.2 -149.15 34.0 -167.95 65.9 -179.2 100.7 -191.5 140.5 -195.3 125.8 -218.0 94.4 -230.5 65.35 -242.0 28.15 -242.65 -8.2 -243.3 -41.95 -233.45 -70.55 -225.15 -90.7 -211.2 -77.05 -221.1 -59.1 -228.8 -38.55 -237.6 -10.2 -244.5 -79.75 -244.45 -135.35 -207.4 -184.1 -174.9 -216.25 -118.4 -209.85 -117.65 -199.1 -129.7 -187.4 -144.35 -182.45 -149.15 -185.85 -141.45 -195.25 -129.7 L-213.5 -108.1 Q-224.95 -94.55 -230.85 -85.45 -238.95 -73.0 -240.85 -63.05 -231.2 -125.5 -183.95 -173.3 -139.35 -218.5 -74.2 -238.35 -8.25 -258.45 56.8 -245.75 127.0 -232.0 177.4 -183.0 230.25 -131.6 245.45 -56.55 252.55 -21.5 250.1 14.8 247.7 50.9 236.05 84.85 224.25 119.35 203.9 148.5 182.85 178.7 154.3 200.7 91.7 249.0 5.2 250.65 -77.4 252.25 -138.6 209.8 -191.3 173.2 -225.5 106.1 -219.4 113.5 -211.65 125.35 L-198.65 145.35 Q-182.55 169.25 -167.05 179.95 -82.65 77.75 2.55 22.75 111.6 -47.6 242.0 -56.9 233.6 -84.9 222.35 -98.45 203.7 -120.95 174.35 -112.25 176.65 -116.1 177.9 -120.55 L179.45 -127.4 Q181.05 -134.35 186.65 -136.85 184.4 -140.5 180.35 -144.4 L173.1 -151.0 Q164.1 -159.15 162.05 -167.6 171.4 -166.3 177.4 -170.7 176.7 -174.35 173.65 -176.95 L167.6 -180.85 Q163.5 -183.1 161.8 -185.0 M178.65 -150.35 Q187.2 -141.95 189.7 -136.85 185.8 -133.7 182.8 -126.05 179.5 -117.5 183.55 -115.3 193.7 -122.0 206.7 -116.1 216.5 -111.7 223.55 -103.0 210.6 -131.15 202.05 -143.75 187.05 -165.85 168.2 -164.55 170.6 -158.25 178.65 -150.35 M242.0 -53.8 Q107.4 -40.9 2.95 27.0 -42.6 56.65 -85.5 98.45 -122.2 134.25 -160.9 183.0 -116.3 228.3 -40.95 241.45 -35.75 227.7 -31.75 221.4 -25.5 211.5 -16.35 207.6 -18.65 211.65 -27.7 223.95 -34.95 233.85 -37.9 241.45 -28.45 244.95 -8.9 244.75 L7.6 244.4 Q17.55 244.2 23.65 244.5 67.05 205.8 101.75 184.25 148.2 155.4 198.95 143.0 208.45 130.25 217.9 113.15 228.45 94.0 232.75 87.65 221.3 83.3 207.5 84.6 197.4 85.6 183.05 90.25 167.5 95.65 160.35 97.65 148.25 101.05 140.5 99.95 168.85 89.25 182.9 85.45 207.85 78.7 232.75 78.45 244.5 43.2 246.55 10.1 248.5 -21.05 242.0 -53.8 M186.65 149.15 Q155.85 159.95 122.95 177.85 91.75 194.8 66.7 213.75 L57.75 219.85 Q51.75 223.8 48.75 226.35 39.3 234.2 42.1 241.45 90.85 232.25 129.35 208.75 165.0 186.95 192.8 152.25 191.7 148.45 186.65 149.15" fill="#373535" fill-rule="evenodd" stroke="none"/>
    <path d="M-142.6 -180.05 Q-127.8 -190.6 -102.45 -204.5 -114.45 -193.2 -138.95 -176.4 -166.05 -157.8 -176.25 -149.15 -163.25 -165.4 -142.6 -180.05" fill="#373535" fill-rule="evenodd" stroke="none"/>
    <path d="M100.5 -152.25 Q104.65 -151.95 108.3 -145.7 110.5 -141.9 115.15 -131.9 119.95 -122.6 125.45 -117.5 132.95 -110.55 143.6 -109.15 139.65 -105.15 131.5 -99.55 122.3 -93.25 119.45 -90.75 113.55 -85.65 111.75 -80.4 109.6 -74.05 112.8 -66.1 107.55 -60.95 100.8 -68.7 98.95 -70.85 95.65 -75.7 L91.3 -81.5 60.55 -81.5 Q58.45 -87.05 60.0 -94.65 L63.35 -107.35 Q64.95 -114.65 63.0 -119.5 60.4 -125.8 51.3 -130.7 52.05 -136.45 66.85 -134.95 75.8 -134.0 88.2 -130.7 L96.65 -143.05 Q101.95 -151.3 100.5 -152.25 M107.5 -136.5 Q103.85 -143.0 100.5 -146.1 99.5 -131.25 87.7 -129.25 83.25 -128.5 75.3 -129.2 L60.55 -130.7 Q68.0 -118.45 68.05 -109.75 68.05 -105.7 66.75 -99.2 L63.6 -84.55 Q76.85 -90.9 89.8 -85.1 100.95 -80.05 106.65 -69.2 L109.4 -80.3 Q110.6 -86.95 109.75 -93.8 117.9 -95.45 125.25 -99.85 130.6 -103.1 137.45 -109.15 122.7 -111.5 113.9 -125.2 L107.5 -136.5" fill="#373535" fill-rule="evenodd" stroke="none"/>
    <path d="M-36.35 -130.7 Q-30.0 -134.2 2.1 -149.15 -10.85 -138.6 -32.15 -126.5 L-68.65 -106.1 Q-57.15 -119.3 -36.35 -130.7" fill="#373535" fill-rule="evenodd" stroke="none"/>
    <path d="M-95.7 -86.25 L-120.6 -67.35 Q-151.4 -43.9 -167.05 -26.15 -155.95 -46.1 -126.4 -69.3 -105.05 -86.1 -71.7 -106.1 -81.45 -97.25 -95.7 -86.25" fill="#373535" fill-rule="evenodd" stroke="none"/>
    <path d="M8.85 -40.45 Q0.6 -28.6 -0.95 -13.85 -14.0 -20.15 -29.0 -18.4 -39.25 -17.2 -56.35 -10.75 -53.3 -20.8 -52.05 -25.85 -49.85 -34.65 -50.2 -40.45 -51.2 -56.05 -71.7 -59.95 -68.75 -62.8 -65.4 -61.85 -63.1 -61.2 -59.1 -57.95 L-52.15 -52.7 Q-47.95 -50.25 -44.05 -50.75 -43.5 -43.15 -46.75 -33.45 -50.2 -23.0 -50.2 -16.9 -44.85 -17.55 -37.65 -20.05 L-26.85 -23.6 Q-21.2 -25.0 -17.0 -23.8 -11.85 -22.35 -7.1 -16.9 L-2.0 -28.4 Q1.55 -36.25 4.75 -41.7 14.2 -57.75 26.7 -63.05 L17.15 -51.05 Q11.4 -44.15 8.85 -40.45" fill="#373535" fill-rule="evenodd" stroke="none"/>
    <path d="M-16.35 207.6 Q6.4 175.95 48.8 147.45 89.85 119.85 137.45 103.05 93.3 124.4 52.95 151.55 10.25 180.25 -16.35 207.6" fill="#373535" fill-rule="evenodd" stroke="none"/>
    <path d="M-138.65 -0.8 L-146.95 3.2 Q-157.05 7.7 -167.05 7.7 -166.9 11.75 -164.1 14.0 -162.1 15.65 -157.75 16.9 L-150.7 19.05 Q-146.95 20.55 -145.5 23.1 -146.0 28.75 -145.3 41.75 -145.15 52.95 -148.6 56.9 -149.25 61.1 -144.45 58.65 -139.7 56.15 -139.35 53.85 -137.7 54.15 -138.05 56.5 -138.4 58.8 -140.3 61.4 -145.25 68.2 -151.65 66.15 -151.05 57.05 -150.05 46.85 -149.3 39.25 -148.6 26.15 -150.25 23.15 -154.35 21.15 -155.7 20.5 -162.15 18.2 -167.05 16.45 -169.35 14.6 -172.6 11.95 -173.2 7.7 -151.3 6.5 -138.2 -8.05 -128.55 -18.85 -120.9 -41.5 -116.9 -34.05 -112.65 -22.9 -107.95 -10.6 -108.6 -7.7 -114.7 -7.8 -116.0 -15.65 -116.5 -25.4 -117.85 -29.2 -125.0 -26.55 -126.7 -20.8 L-128.0 -14.05 Q-128.9 -8.75 -130.15 -4.6 -133.6 -3.35 -138.65 -0.8" fill="#373535" fill-rule="evenodd" stroke="none"/>
    <path d="M-101.05 21.15 Q-95.95 7.95 -84.0 -1.55 -83.7 -5.45 -89.8 -4.95 L-95.0 -4.35 -99.4 -4.6 Q-104.35 -7.9 -92.65 -7.85 L-74.8 -7.7 Q-77.25 0.75 -85.15 8.05 -89.7 12.25 -99.4 20.0 -98.8 22.95 -99.1 28.15 L-99.75 37.3 Q-100.35 48.3 -96.3 50.75 -98.3 54.0 -103.05 53.75 -105.65 53.6 -112.6 51.7 -119.2 49.85 -122.5 49.95 -127.6 50.05 -130.15 53.85 -134.65 46.2 -125.05 46.15 L-105.55 47.7 Q-105.3 32.0 -101.05 21.15" fill="#373535" fill-rule="evenodd" stroke="none"/>
    <path d="M-200.9 44.6 Q-200.2 42.15 -197.75 43.35 -194.05 45.15 -191.65 44.6 -196.25 55.6 -197.95 62.1 -201.2 74.2 -197.8 78.45 -198.4 81.05 -202.6 81.35 -207.8 81.25 -210.1 81.5 -207.4 90.45 -203.15 100.1 -200.35 108.25 -200.9 121.5 L-193.45 115.1 Q-189.7 111.05 -188.6 106.1 -180.85 104.8 -176.1 110.55 L-172.3 115.15 Q-169.9 117.65 -167.05 118.4 -171.6 108.5 -171.6 99.25 -171.55 90.25 -167.05 72.3 -169.8 72.25 -175.45 74.65 -180.2 76.6 -185.5 75.35 -185.3 71.8 -187.2 68.0 L-190.95 61.9 Q-193.15 58.45 -193.5 56.35 -194.0 53.4 -191.65 50.75 -187.25 57.6 -179.35 72.3 -175.95 70.3 -169.0 68.75 L-157.8 66.15 Q-166.5 80.75 -167.75 93.15 -169.25 107.8 -160.9 121.5 -165.2 126.3 -172.85 120.35 -178.85 115.7 -182.45 109.2 -186.1 109.95 -188.7 112.95 -190.0 114.45 -192.6 119.05 -194.85 123.1 -196.75 124.8 -199.65 127.45 -203.95 127.65 -202.7 109.55 -206.7 100.4 -208.35 96.6 -211.9 91.65 L-219.35 81.5 Q-205.5 82.85 -200.8 65.55 -199.05 59.2 -199.25 52.55 -199.4 46.4 -200.9 44.6" fill="#373535" fill-rule="evenodd" stroke="none"/>
  </g>
</svg>
