<?xml version="1.0" encoding="UTF-8" standalone="no"?>
<svg xmlns:xlink="http://www.w3.org/1999/xlink" height="597.1px" width="418.8px" xmlns="http://www.w3.org/2000/svg">
  <g transform="matrix(1, 0, 0, 1, 163.45, 352.95)">
    <path d="M122.85 -346.6 Q166.85 -336.7 200.9 -302.65 248.9 -254.65 248.9 -186.8 L248.6 -176.15 250.6 -175.05 Q251.9 -173.7 251.9 -172.0 251.9 -165.7 248.55 -143.1 244.6 -116.65 241.05 -110.55 237.15 -103.85 230.55 -95.2 L218.4 -79.85 212.05 -72.4 Q208.1 -67.7 206.8 -64.6 204.65 -59.55 196.8 -55.15 L196.75 -55.1 Q196.7 -53.3 188.6 -47.4 181.0 -41.8 177.9 -41.35 175.1 -38.45 168.6 -33.9 166.0 -32.05 159.7 -29.95 152.9 -27.65 151.1 -26.65 144.55 -22.95 131.9 -18.55 125.05 -16.2 113.4 -12.65 L76.05 -1.45 Q55.2 3.8 22.95 7.25 L12.5 7.35 8.4 8.3 6.8 8.55 6.6 8.7 Q4.6 10.3 -1.35 10.3 -9.15 10.3 -20.6 0.15 L-24.45 -3.45 -24.7 -3.45 Q-27.7 -3.45 -33.35 -13.4 L-40.7 -26.8 -48.2 -37.95 Q-53.25 -46.2 -53.25 -50.25 L-53.2 -51.3 -53.25 -51.3 Q-57.65 -51.3 -62.9 -61.3 -64.15 -63.6 -69.4 -76.1 -70.05 -77.65 -73.5 -82.2 -76.7 -86.45 -77.45 -88.75 L-79.0 -94.85 Q-80.0 -99.1 -80.8 -101.35 L-80.8 -116.85 -83.5 -124.35 -84.25 -126.7 Q-89.2 -128.2 -90.75 -134.8 -91.8 -139.3 -91.95 -145.95 -94.15 -153.25 -95.8 -157.35 -96.35 -159.2 -96.35 -166.1 -96.35 -175.0 -92.15 -194.9 L-86.25 -221.7 Q-85.1 -227.15 -82.6 -235.55 L-78.55 -249.35 Q-77.7 -252.25 -74.2 -256.9 -70.75 -261.55 -67.15 -264.35 -66.05 -268.05 -63.7 -273.35 -58.95 -283.95 -58.65 -285.45 L-58.05 -287.7 Q-54.65 -298.65 -38.2 -309.65 L-35.7 -311.3 -22.75 -319.65 Q-8.35 -328.6 3.6 -334.75 26.75 -346.65 35.7 -345.55 36.9 -348.2 46.75 -349.85 57.45 -351.6 58.0 -348.6 71.1 -350.65 85.05 -350.65 104.8 -350.65 122.85 -346.6" fill="#9933cc" fill-rule="evenodd" stroke="none"/>
    <path d="M230.45 -278.35 Q253.85 -243.95 255.25 -200.1 255.8 -182.1 252.9 -158.8 251.1 -144.35 246.0 -115.1 216.25 -53.8 148.8 -21.85 88.0 6.95 -6.6 13.15 -17.05 20.5 -17.7 30.6 L-17.55 39.2 Q-17.35 44.55 -18.3 48.15 -24.05 49.05 -28.35 47.5 -31.4 46.45 -35.0 43.5 -39.65 39.7 -41.05 38.85 -44.85 36.6 -49.35 36.45 -88.35 57.95 -129.6 92.7 L-135.95 98.15 Q-151.85 127.85 -155.0 154.8 -160.7 203.15 -124.6 238.6 -100.3 241.45 -78.5 234.15 -65.85 229.95 -42.95 219.15 -60.3 235.75 -82.05 241.45 -102.7 246.9 -121.6 241.3 -140.75 235.6 -151.95 220.3 -164.0 203.85 -163.45 180.3 -162.75 148.95 -147.2 113.2 L-143.3 104.65 Q-138.5 94.6 -132.65 84.5 L-131.3 82.15 -130.45 82.6 Q-107.75 63.15 -84.35 48.15 -77.6 43.8 -66.6 38.05 -53.7 31.3 -50.0 29.15 -32.15 18.7 -26.05 5.4 -83.2 -80.55 -94.4 -153.0 -109.6 -251.1 -37.7 -313.3 -9.3 -337.85 29.6 -347.45 66.2 -356.45 105.55 -350.7 144.3 -345.1 176.9 -326.55 210.7 -307.35 230.45 -278.35 M5.5 -332.95 Q-18.7 -321.0 -38.15 -301.9 -58.2 -282.2 -70.9 -257.1 -84.3 -230.65 -88.25 -200.6 -94.1 -156.1 -76.1 -106.3 -62.8 -69.4 -26.05 -6.3 -22.35 -13.75 -28.9 -21.85 -31.95 -25.65 -32.25 -26.5 -33.0 -28.5 -29.95 -29.6 L-21.25 -15.45 Q-17.95 -10.25 -15.4 -7.8 -12.6 -5.1 -7.1 -2.25 L8.95 5.4 Q3.7 5.1 0.35 6.1 -3.6 7.25 1.15 9.25 25.5 4.35 68.75 -3.55 104.55 -10.5 126.2 -17.35 154.2 -26.15 174.55 -39.2 197.4 -53.8 214.9 -76.25 245.0 -114.8 247.95 -166.25 250.8 -215.6 228.15 -259.9 204.7 -305.9 161.9 -329.8 114.8 -356.05 55.55 -348.3 29.65 -344.9 5.5 -332.95" fill="#373535" fill-rule="evenodd" stroke="none"/>
  </g>
</svg>
