<?xml version="1.0" encoding="UTF-8" standalone="no"?>
<svg xmlns:xlink="http://www.w3.org/1999/xlink" height="52.0px" width="15.0px" xmlns="http://www.w3.org/2000/svg">
  <g transform="matrix(1, 0, 0, 1, -1.0, 0.0)">
    <path d="M13.0 4.95 L13.0 0.0 16.0 0.0 16.0 4.95 16.0 48.05 16.0 52.0 13.0 52.0 13.0 48.05 13.0 4.95" fill="#ff0000" fill-opacity="0.0" fill-rule="evenodd" stroke="none"/>
    <path d="M12.0 46.35 L12.0 4.95 12.0 4.0 Q12.0 1.1 9.15 1.0 L8.05 1.0 1.0 1.0 1.0 0.0 8.05 0.0 9.0 0.0 Q13.0 0.0 13.0 4.0 L13.0 4.95 13.0 46.35 12.0 46.35" fill="url(#gradient0)" fill-rule="evenodd" stroke="none"/>
    <path d="M12.0 46.35 L13.0 46.35 13.0 48.0 Q13.0 52.0 9.0 52.0 L8.05 52.0 1.0 52.0 1.0 51.0 8.05 51.0 9.15 51.0 Q12.0 50.95 12.0 48.0 L12.0 46.35" fill="url(#gradient1)" fill-rule="evenodd" stroke="none"/>
    <path d="M1.0 4.95 L1.0 1.0 8.05 1.05 9.15 1.05 Q12.0 1.15 12.0 4.05 L12.0 4.95 12.0 48.0 Q12.0 51.0 9.15 51.05 L8.05 51.05 1.0 51.0 1.0 48.05 1.0 4.95" fill="url(#gradient2)" fill-rule="evenodd" stroke="none"/>
  </g>
  <defs>
    <linearGradient gradientTransform="matrix(0.0, -0.0134, 0.0134, 0.0, 2.0, 41.25)" gradientUnits="userSpaceOnUse" id="gradient0" spreadMethod="pad" x1="-819.2" x2="819.2">
      <stop offset="0.0" stop-color="#585f63"/>
      <stop offset="1.0" stop-color="#b7babc"/>
    </linearGradient>
    <linearGradient gradientTransform="matrix(0.0, -0.0134, 0.0134, 0.0, 2.0, 41.0)" gradientUnits="userSpaceOnUse" id="gradient1" spreadMethod="pad" x1="-819.2" x2="819.2">
      <stop offset="0.0" stop-color="#585f63"/>
      <stop offset="1.0" stop-color="#b7babc"/>
    </linearGradient>
    <linearGradient gradientTransform="matrix(0.0, -0.0134, 0.0134, 0.0, 32.85, 31.0)" gradientUnits="userSpaceOnUse" id="gradient2" spreadMethod="pad" x1="-819.2" x2="819.2">
      <stop offset="0.0" stop-color="#e6e6e6"/>
      <stop offset="1.0" stop-color="#ffffff"/>
    </linearGradient>
  </defs>
</svg>
