<?xml version="1.0" encoding="UTF-8" standalone="no"?>
<svg xmlns:xlink="http://www.w3.org/1999/xlink" height="261.3px" width="602.0px" xmlns="http://www.w3.org/2000/svg">
  <g transform="matrix(1, 0, 0, 1, 301.6, 131.2)">
    <path d="M294.65 -53.15 L294.8 -50.2 297.0 -38.4 Q299.2 -26.85 299.2 -18.4 299.2 -6.15 295.8 7.05 290.85 26.15 281.0 32.0 266.55 40.5 236.75 55.4 201.95 72.8 196.4 72.8 195.4 72.8 192.7 71.8 L193.7 70.6 Q195.9 67.7 196.25 65.45 L197.05 60.1 197.2 56.0 Q197.2 43.6 191.75 36.9 182.7 25.9 158.2 25.2 L151.4 25.2 137.55 26.0 Q135.65 26.7 130.2 27.6 L120.0 28.4 Q115.8 28.75 115.8 31.0 115.8 31.95 116.3 32.35 117.35 33.2 120.9 33.2 L123.2 32.95 124.7 32.65 131.1 34.15 135.15 34.8 138.3 35.2 Q139.0 35.2 139.55 34.85 140.2 34.45 140.3 33.75 141.9 34.3 149.95 37.5 158.2 40.6 163.1 40.95 169.65 41.45 174.0 44.95 175.4 46.05 179.3 50.75 183.25 55.55 185.05 62.6 185.55 64.7 185.5 70.85 185.5 72.4 186.0 73.25 L180.15 77.6 Q170.4 84.6 165.0 85.6 162.0 86.15 158.85 87.25 L152.95 89.15 Q143.9 91.7 123.6 93.4 L110.1 94.7 Q111.75 89.3 113.25 78.25 L115.4 56.05 Q115.3 52.4 114.8 49.0 L113.95 44.8 Q114.4 44.2 114.4 43.1 114.4 40.75 113.05 34.4 L111.65 28.15 119.2 25.3 Q138.0 18.1 144.0 16.8 168.75 11.4 178.8 8.8 189.35 6.0 207.8 0.0 225.7 -5.8 252.6 -16.8 L256.0 -19.3 257.6 -19.2 Q258.4 -19.2 271.3 -27.3 283.85 -35.25 285.2 -36.4 287.75 -38.6 291.5 -46.05 293.75 -50.5 294.65 -53.15 M100.55 95.85 Q86.8 97.65 76.55 100.0 69.05 101.75 62.25 104.05 L62.6 99.1 61.8 89.65 60.8 81.1 60.8 70.75 59.4 63.1 59.4 53.35 59.15 51.1 59.0 48.85 59.2 40.75 59.15 39.9 59.3 39.65 59.6 38.45 58.9 34.35 92.6 34.0 Q96.05 33.3 101.35 31.65 L101.4 32.85 98.9 54.65 Q96.4 76.95 96.4 79.5 L96.7 82.7 Q97.15 86.5 98.0 89.7 99.05 93.5 100.55 95.85 M-45.4 106.85 L-50.2 106.6 -81.6 106.4 -152.6 94.45 Q-194.25 87.15 -210.2 82.0 -218.9 79.2 -233.2 71.8 L-259.8 57.4 Q-294.4 38.55 -294.4 29.6 -294.4 26.55 -293.2 24.3 -292.0 22.05 -292.0 18.5 -292.0 15.75 -293.2 12.3 -294.4 8.85 -294.4 5.0 -294.4 4.0 -293.6 -0.25 -292.8 -4.5 -292.8 -5.5 -292.8 -8.6 -294.0 -11.55 -295.2 -14.45 -295.2 -16.9 -295.2 -20.2 -293.4 -22.65 L-293.3 -22.75 -293.4 -23.0 -293.6 -24.0 -287.0 -16.6 Q-271.35 0.0 -264.4 0.0 -261.15 0.0 -258.9 -1.9 -253.1 -3.35 -243.0 -11.6 L-249.7 -5.35 Q-253.6 -1.85 -257.3 0.35 L-255.4 1.8 Q-251.75 4.55 -242.4 7.1 -232.65 9.5 -230.2 10.4 L-213.35 16.45 Q-204.5 19.3 -195.2 20.8 L-166.3 26.0 -145.1 30.2 Q-122.5 34.4 -88.2 37.4 L-64.8 37.6 -45.15 39.25 -45.1 39.9 Q-45.65 42.25 -46.8 45.0 -48.0 47.9 -48.0 50.55 -48.0 53.95 -46.25 54.6 L-48.0 64.5 Q-48.0 65.85 -47.3 68.15 -46.6 70.5 -46.6 73.1 -46.6 74.7 -47.0 76.0 -47.4 77.3 -47.4 78.35 L-47.3 79.8 Q-46.95 80.95 -45.9 81.15 L-45.8 81.8 -46.0 87.4 -45.6 92.15 -45.6 106.25 -45.4 106.85 M-29.35 107.7 Q-29.45 104.7 -30.0 101.35 L-30.4 97.15 Q-30.35 96.45 -30.95 94.9 -31.55 93.5 -31.4 92.8 -30.75 89.35 -33.5 84.25 L-38.1 75.7 Q-32.65 71.3 -31.55 64.8 -31.25 57.45 -30.6 53.95 L-30.6 44.05 -29.9 40.2 -29.8 39.8 2.6 39.8 Q17.65 36.6 29.75 35.85 L41.2 35.15 41.65 37.9 42.0 42.85 41.6 54.85 Q41.6 64.85 43.6 71.5 44.65 75.05 44.8 79.7 L44.4 96.4 44.8 104.7 44.35 106.3 Q43.75 107.45 42.75 107.7 L37.2 107.8 28.25 108.9 Q24.55 109.7 24.2 111.3 L8.35 112.0 3.8 112.0 2.0 111.8 -3.85 111.55 Q-19.9 108.45 -29.35 107.7" fill="#996600" fill-rule="evenodd" stroke="none"/>
    <path d="M-293.6 -24.0 L-297.3 -28.5 Q-301.6 -34.0 -301.6 -34.9 -301.6 -45.4 -291.4 -42.0 -287.5 -53.0 -276.6 -62.5 -260.85 -76.25 -227.8 -89.2 -217.45 -93.25 -199.2 -101.8 -184.65 -108.6 -174.55 -111.75 -145.0 -121.0 -74.4 -124.8 L-47.4 -125.2 Q-43.8 -126.7 -18.4 -131.2 L16.0 -131.2 33.15 -129.85 51.8 -129.0 93.6 -128.8 Q112.6 -128.15 144.6 -121.85 178.5 -115.1 209.45 -105.3 244.7 -94.1 265.15 -82.15 280.65 -73.1 286.0 -64.4 289.85 -65.4 292.4 -62.95 295.2 -60.3 295.2 -55.9 295.2 -54.9 294.65 -53.15 293.75 -50.5 291.5 -46.05 287.75 -38.6 285.2 -36.4 283.85 -35.25 271.3 -27.3 258.4 -19.2 257.6 -19.2 L256.0 -19.3 Q252.0 -19.9 250.4 -23.6 L250.25 -24.0 250.0 -24.0 Q239.9 -24.0 229.4 -33.8 L227.0 -36.15 Q222.4 -36.85 219.25 -39.95 L212.6 -42.25 Q191.8 -49.35 172.2 -53.2 L153.45 -57.3 140.65 -60.25 Q127.05 -62.85 89.0 -65.4 L11.8 -65.4 8.8 -64.8 -20.2 -64.6 -42.85 -63.1 -55.2 -61.6 -85.8 -61.4 -113.05 -55.45 Q-134.2 -50.8 -141.2 -49.8 -156.2 -47.6 -176.55 -39.9 L-189.25 -34.95 Q-194.7 -32.8 -196.0 -32.8 L-196.8 -32.8 Q-200.0 -29.4 -207.45 -26.8 L-220.2 -22.95 Q-228.65 -20.4 -233.8 -18.2 -236.25 -17.1 -239.3 -14.7 L-242.8 -11.75 -243.0 -11.6 Q-253.1 -3.35 -258.9 -1.9 -261.15 0.0 -264.4 0.0 -271.35 0.0 -287.0 -16.6 L-293.6 -24.0 M192.7 71.8 Q190.4 74.2 187.8 74.2 186.55 74.2 186.0 73.25 185.5 72.4 185.5 70.85 185.55 64.7 185.05 62.6 183.25 55.55 179.3 50.75 175.4 46.05 174.0 44.95 169.65 41.45 163.1 40.95 158.2 40.6 149.95 37.5 141.9 34.3 140.3 33.75 140.2 34.45 139.55 34.85 139.0 35.2 138.3 35.2 L135.15 34.8 131.1 34.15 124.7 32.65 123.2 32.95 120.9 33.2 Q117.35 33.2 116.3 32.35 115.8 31.95 115.8 31.0 115.8 28.75 120.0 28.4 L130.2 27.6 Q135.65 26.7 137.55 26.0 L151.4 25.2 158.2 25.2 Q182.7 25.9 191.75 36.9 197.2 43.6 197.2 56.0 L197.05 60.1 196.25 65.45 Q195.9 67.7 193.7 70.6 L192.7 71.8" fill="#663333" fill-rule="evenodd" stroke="none"/>
    <path d="M110.1 94.7 Q108.5 99.8 106.7 99.8 103.0 99.8 100.55 95.85 99.05 93.5 98.0 89.7 97.15 86.5 96.7 82.7 L96.4 79.5 Q96.4 76.95 98.9 54.65 L101.4 32.85 101.35 31.65 101.15 30.15 100.45 26.85 99.0 26.8 98.3 27.0 97.6 27.2 Q96.25 27.2 95.5 25.95 L95.1 24.85 93.1 25.4 Q91.85 25.4 91.3 24.45 91.0 23.9 91.0 23.3 91.0 22.1 92.1 21.4 92.75 20.95 94.9 20.25 97.8 19.2 98.35 19.2 98.95 19.15 101.35 17.95 102.55 17.35 106.15 18.7 109.45 20.4 110.5 22.7 L111.35 26.75 111.65 28.15 113.05 34.4 Q114.4 40.75 114.4 43.1 114.4 44.2 113.95 44.8 L114.8 49.0 Q115.3 52.4 115.4 56.05 L113.25 78.25 Q111.75 89.3 110.1 94.7 M62.25 104.05 L61.9 106.95 Q60.95 114.5 59.5 116.65 57.9 118.95 46.15 121.95 32.3 125.4 17.8 125.4 L17.4 125.4 16.3 125.75 7.95 126.2 7.4 126.65 6.2 127.2 1.05 127.3 Q-0.35 128.0 -4.65 128.05 L-10.1 128.0 -13.35 127.85 -16.55 127.65 -24.2 127.6 Q-41.3 127.45 -44.2 119.4 -45.0 117.05 -45.0 112.45 -45.0 108.6 -45.4 106.85 L-45.6 106.25 -45.6 92.15 -46.0 87.4 -45.8 81.8 -45.9 81.15 Q-46.95 80.95 -47.3 79.8 L-47.4 78.35 Q-47.4 77.3 -47.0 76.0 -46.6 74.7 -46.6 73.1 -46.6 70.5 -47.3 68.15 -48.0 65.85 -48.0 64.5 L-46.25 54.6 Q-48.0 53.95 -48.0 50.55 -48.0 47.9 -46.8 45.0 -45.65 42.25 -45.1 39.9 L-45.15 39.25 -45.2 38.85 Q-45.4 32.25 -44.25 30.15 -42.25 27.25 -41.75 25.8 -41.55 24.25 -40.95 23.5 -39.9 22.25 -36.4 22.2 L-30.35 22.15 Q-28.0 21.4 -24.9 21.4 -21.5 21.4 -17.45 22.75 L-12.2 22.8 -11.45 22.95 -6.35 22.95 -5.6 22.8 4.45 22.75 13.05 21.9 20.6 20.6 29.35 20.5 34.3 20.15 43.85 19.35 47.05 18.5 53.75 18.1 Q56.4 19.45 56.7 21.35 56.85 22.45 56.6 24.8 L58.1 30.9 58.9 34.35 59.6 38.45 59.3 39.65 59.15 39.9 59.2 40.75 59.0 48.85 59.15 51.1 59.4 53.35 59.4 63.1 60.8 70.75 60.8 81.1 61.8 89.65 62.6 99.1 62.25 104.05 M-29.8 39.8 L-29.9 40.2 -30.6 44.05 -30.6 53.95 Q-31.25 57.45 -31.55 64.8 -32.65 71.3 -38.1 75.7 L-33.5 84.25 Q-30.75 89.35 -31.4 92.8 -31.55 93.5 -30.95 94.9 -30.35 96.45 -30.4 97.15 L-30.0 101.35 Q-29.45 104.7 -29.35 107.7 L-29.4 109.75 -21.05 110.35 -16.65 111.35 -7.6 111.4 -3.85 111.55 2.0 111.8 3.8 112.0 4.8 112.15 8.35 112.0 24.2 111.3 Q24.55 109.7 28.25 108.9 L37.2 107.8 42.75 107.7 Q43.75 107.45 44.35 106.3 L44.8 104.7 44.4 96.4 44.8 79.7 Q44.65 75.05 43.6 71.5 41.6 64.85 41.6 54.85 L42.0 42.85 41.65 37.9 41.2 35.15 40.85 32.8 35.6 34.2 20.4 34.2 18.2 34.1 17.55 35.45 Q16.35 36.6 14.9 36.3 L10.9 36.15 2.4 37.0 -2.5 38.05 -10.3 39.0 -22.3 38.0 -29.25 36.6 -29.8 39.8" fill="#ffff33" fill-rule="evenodd" stroke="none"/>
    <path d="M300.2 -17.2 Q301.6 6.55 293.75 19.65 284.7 34.75 252.55 49.5 243.65 53.55 223.0 61.95 202.75 70.15 192.5 74.9 187.25 77.35 176.35 85.1 166.8 91.85 161.85 93.3 143.0 98.8 113.85 100.1 L91.9 100.9 72.85 102.5 Q69.25 103.05 67.3 105.25 66.0 106.75 64.8 110.15 63.4 114.3 62.5 115.85 60.7 119.0 57.5 120.9 45.15 128.2 16.2 129.25 -18.25 129.15 -34.55 130.1 -47.8 124.9 -52.95 111.7 -135.35 104.65 -189.15 89.9 -255.8 71.65 -295.35 38.05 -293.7 29.45 -295.1 16.75 L-298.5 -6.25 Q-300.6 -20.35 -300.3 -29.3 -299.95 -41.7 -295.35 -50.9 -290.4 -60.85 -263.9 -76.45 -240.6 -90.25 -221.7 -96.95 -168.45 -115.8 -93.05 -124.3 -18.7 -132.7 57.25 -128.85 136.65 -124.8 197.65 -108.2 264.2 -90.1 296.85 -60.1 296.95 -51.75 298.3 -38.25 299.95 -21.9 300.2 -17.2 M279.4 -30.1 L259.1 -16.5 Q246.4 -8.35 236.95 -4.8 224.5 -0.15 214.0 -1.8 L223.95 -4.85 Q230.5 -6.7 233.85 -8.05 244.7 -12.35 247.75 -20.25 214.05 -47.75 146.8 -56.25 122.45 -59.3 85.8 -60.85 L23.75 -63.2 Q-25.7 -65.5 -73.7 -59.65 -119.2 -54.15 -160.35 -41.7 -200.25 -29.65 -215.95 -22.95 -244.1 -10.95 -255.45 4.3 -206.4 21.8 -162.9 29.85 -109.45 39.75 -52.95 38.05 -49.5 36.4 -46.8 28.85 -44.1 21.35 -40.7 19.65 -7.7 20.2 9.65 19.4 36.45 18.2 54.45 13.55 57.65 13.75 59.3 16.35 60.15 17.7 61.45 21.85 62.6 25.6 63.95 27.05 65.95 29.25 69.8 28.85 L86.6 25.25 Q97.1 23.4 100.45 25.8 101.8 31.1 100.95 43.15 L99.0 65.5 Q98.05 78.85 99.3 86.4 100.95 96.25 106.6 99.45 113.25 88.25 113.75 61.4 114.3 33.2 106.6 19.7 L101.15 19.0 100.3 19.15 Q98.85 19.5 95.1 21.25 92.6 22.4 91.8 21.8 90.75 20.95 91.25 16.6 96.0 18.1 101.15 19.0 104.1 18.4 106.6 19.65 L106.6 19.7 Q113.75 20.35 121.65 19.85 134.25 19.05 152.65 14.75 L182.85 7.55 Q199.65 3.95 210.9 4.3 201.9 8.55 187.45 11.5 L161.2 16.0 Q145.25 18.65 136.05 21.55 123.3 25.55 115.8 31.95 150.55 33.6 166.9 39.85 192.2 49.5 186.35 71.8 217.55 64.15 245.3 49.45 270.3 36.2 293.75 16.6 291.7 6.0 293.6 -9.8 296.65 -34.8 296.85 -38.65 290.35 -37.05 279.4 -30.1 M293.75 -54.0 Q245.05 -99.95 145.5 -117.75 47.9 -135.15 -74.45 -121.5 -104.25 -118.15 -135.3 -112.3 -170.6 -105.6 -200.25 -96.95 -223.0 -90.3 -243.15 -80.55 -266.35 -69.4 -278.85 -57.4 -293.4 -43.4 -291.35 -30.2 -288.95 -15.05 -264.65 -1.8 -222.2 -30.3 -152.65 -48.2 -85.5 -65.45 -8.8 -68.9 69.45 -72.5 138.25 -60.7 211.9 -48.15 260.0 -20.25 265.8 -25.7 279.25 -34.7 290.55 -43.5 293.75 -54.0 M115.8 35.0 Q118.15 49.3 117.8 61.2 117.55 69.05 115.8 90.25 132.2 93.2 152.6 89.4 175.5 85.1 183.3 74.9 184.8 60.8 178.8 52.55 173.7 45.55 162.5 42.0 154.65 39.55 139.7 37.95 L115.8 35.0 M-292.3 -11.0 Q-293.15 -3.6 -291.4 10.8 -289.9 23.5 -292.3 35.0 -249.65 68.65 -187.1 86.3 -127.9 103.0 -49.9 105.55 -51.7 92.95 -50.75 78.05 -49.45 57.75 -49.9 44.2 -117.4 42.95 -172.3 31.65 -229.6 19.9 -267.75 -1.8 -275.55 -6.65 -279.8 -8.65 -287.2 -12.2 -292.3 -11.0 M-37.6 22.75 Q-47.3 36.45 -46.3 67.55 -46.15 73.15 -44.65 94.4 -43.5 111.15 -43.75 120.9 -25.15 129.5 6.75 126.3 17.65 125.15 33.35 122.3 L57.5 117.85 Q60.35 114.6 60.6 108.65 60.7 105.4 59.75 98.0 58.9 91.4 59.35 88.8 60.0 84.75 63.65 84.1 65.1 86.8 65.85 94.2 67.25 100.1 72.85 99.45 78.45 100.75 83.95 98.25 89.75 95.65 94.3 96.35 93.65 86.75 95.7 68.4 97.9 49.3 97.4 38.05 90.8 34.0 77.5 34.5 63.3 35.05 60.55 41.15 L62.05 48.05 Q63.5 55.45 64.0 61.45 65.65 80.7 57.5 84.1 59.9 71.25 58.55 53.05 57.75 42.05 54.45 19.65 L27.85 21.15 6.85 23.3 Q-16.1 25.5 -37.6 22.75" fill="#373535" fill-rule="evenodd" stroke="none"/>
    <path d="M-31.5 35.0 Q-16.8 36.8 9.4 33.75 34.85 30.8 42.15 31.95 44.45 57.35 45.25 72.8 46.45 95.7 45.25 108.65 18.9 112.15 6.2 112.75 -9.2 113.45 -31.5 111.7 -29.7 98.95 -32.3 89.55 -34.65 81.15 -40.7 74.9 -34.9 72.05 -33.0 67.7 -31.5 64.35 -31.9 58.6 L-32.95 47.65 Q-33.25 40.65 -31.5 35.0 M-28.4 44.2 L-28.4 71.8 Q-25.65 72.15 -19.05 71.7 -14.2 72.2 -16.15 77.95 -17.55 80.9 -20.9 82.4 -23.75 83.75 -28.4 84.1 L-25.65 95.2 Q-24.5 101.85 -25.35 108.65 L9.95 108.65 Q29.5 108.15 42.15 105.55 40.65 90.25 40.25 71.45 39.75 48.2 39.1 38.05 26.2 42.45 8.05 43.85 -7.35 45.05 -28.4 44.2" fill="#373535" fill-rule="evenodd" stroke="none"/>
  </g>
</svg>
