<?xml version="1.0" encoding="UTF-8" standalone="no"?>
<svg xmlns:xlink="http://www.w3.org/1999/xlink" height="652.25px" width="1071.1px" xmlns="http://www.w3.org/2000/svg">
  <g transform="matrix(1, 0, 0, 1, 535.55, 326.1)">
    <path d="M196.85 -139.1 L186.4 -139.2 Q174.4 -140.85 168.15 -142.4 156.85 -145.15 154.8 -150.4 152.9 -155.3 149.45 -157.15 147.35 -158.25 143.25 -158.6 139.4 -158.9 138.15 -159.75 136.0 -161.2 136.0 -165.6 136.0 -171.25 146.35 -178.3 157.0 -185.5 166.4 -185.6 L197.6 -185.6 210.65 -183.45 242.2 -179.4 277.0 -179.4 Q292.95 -184.1 298.75 -167.1 301.6 -158.8 301.6 -145.6 301.6 -141.8 300.5 -139.7 298.65 -136.2 293.6 -136.0 275.35 -135.3 267.15 -132.3 L261.25 -130.4 250.4 -129.6 Q236.65 -129.6 234.15 -132.75 233.45 -133.7 233.25 -135.75 233.05 -137.9 232.4 -138.8 L226.9 -138.85 225.55 -139.45 219.8 -140.6 214.0 -140.6 210.65 -140.25 203.8 -140.2 198.95 -139.25 196.85 -139.1 M214.35 -39.25 L214.05 -39.8 Q212.8 -42.05 212.8 -44.3 212.8 -56.2 257.4 -70.45 283.9 -78.9 309.6 -84.0 L338.4 -84.0 Q346.3 -83.7 361.55 -80.75 378.4 -77.5 393.65 -72.85 429.3 -62.05 433.8 -50.95 L435.5 -50.25 Q449.3 -44.25 469.6 -25.7 489.6 -7.4 503.7 11.85 519.2 33.05 519.2 44.6 L519.1 46.75 Q521.6 48.55 523.4 53.4 L526.35 61.75 529.2 70.8 Q529.85 73.25 531.35 88.2 532.8 102.75 532.8 105.6 532.8 109.05 530.85 129.05 531.2 132.55 531.2 137.7 L531.2 139.55 532.0 141.1 Q533.6 143.2 533.6 147.6 533.6 149.95 529.25 158.0 L530.25 159.6 Q532.0 162.8 532.0 165.3 532.0 170.3 525.65 184.55 519.05 199.35 518.8 201.6 517.7 211.15 506.95 223.65 496.0 234.8 495.2 236.8 487.0 257.05 465.6 272.8 461.05 276.15 457.55 281.75 454.05 287.9 451.85 290.8 444.05 301.0 422.0 303.6 418.75 307.6 400.2 313.35 L374.4 320.8 331.2 320.8 317.0 318.6 296.0 318.4 Q261.8 312.85 229.5 293.65 203.3 278.05 182.6 256.4 167.85 240.9 161.2 218.6 159.65 213.35 149.1 197.4 139.2 182.4 139.2 180.8 L139.35 179.4 Q137.55 176.25 136.05 172.4 133.55 166.05 132.15 158.4 131.2 153.1 131.2 150.8 131.2 146.4 131.35 145.45 131.6 143.35 132.8 142.45 134.95 140.8 146.4 140.8 154.25 140.8 156.55 150.15 157.75 155.05 157.6 162.0 157.8 163.4 162.15 172.9 166.4 182.2 166.4 183.3 166.4 186.15 165.0 188.4 173.2 199.85 175.4 208.4 L176.35 211.8 Q183.85 212.5 190.0 221.6 194.15 227.8 202.3 234.6 211.4 242.15 213.2 244.4 216.15 247.95 228.2 255.05 L246.6 265.6 Q253.75 269.95 268.9 275.05 273.55 276.6 275.3 278.05 L276.4 279.15 Q280.65 280.0 282.85 281.35 L287.25 284.9 Q290.0 287.2 294.2 288.6 L319.2 288.8 324.6 290.2 377.4 290.0 Q398.9 286.3 416.3 277.6 429.3 271.1 445.4 258.6 L458.25 248.3 Q464.95 242.25 467.0 237.6 471.8 226.75 479.3 227.35 L480.95 227.7 Q484.15 221.65 494.2 207.85 L494.95 206.85 Q494.4 205.4 494.4 204.0 494.4 202.25 497.75 190.15 501.0 178.5 503.8 169.8 L506.35 161.2 Q507.6 156.1 507.2 153.0 L509.65 149.65 Q509.85 144.6 510.6 140.45 L512.8 131.4 513.25 129.5 511.0 120.85 Q506.65 104.25 506.2 99.0 L505.25 80.3 Q504.45 69.3 501.0 61.2 L493.8 42.25 Q489.6 31.0 485.2 23.4 L471.4 5.8 Q462.3 -6.0 460.0 -11.25 L447.1 -21.6 429.5 -31.0 Q410.6 -41.45 401.4 -44.8 L387.9 -50.55 Q380.55 -53.75 374.6 -54.8 L352.3 -58.4 Q336.5 -60.95 335.4 -61.4 L312.0 -61.6 300.15 -57.65 Q290.3 -54.4 288.4 -54.4 286.0 -54.4 284.25 -55.3 L284.1 -55.25 Q273.35 -51.9 264.4 -48.2 256.1 -44.7 248.55 -41.75 233.7 -36.0 230.4 -36.0 228.0 -36.0 226.2 -36.75 223.65 -36.0 220.8 -36.0 L219.7 -36.05 214.35 -39.25 M133.8 120.45 Q130.0 119.15 127.6 113.4 L125.6 105.9 Q125.6 104.5 134.2 72.0 139.3 52.65 146.45 60.8 149.05 63.8 151.0 69.55 152.8 74.9 152.8 78.5 152.8 86.25 148.85 101.0 144.25 118.1 138.05 120.45 L133.8 120.45 M181.4 -17.6 Q190.65 -26.65 199.35 -24.65 202.85 -23.8 205.05 -21.2 207.2 -18.65 207.2 -15.4 201.0 -9.6 194.55 -2.25 181.75 12.45 180.8 21.0 180.5 24.15 176.0 30.4 L169.4 39.6 Q167.65 42.7 166.4 46.4 165.3 49.8 164.8 50.55 163.05 53.2 153.2 53.2 152.2 53.2 150.4 54.2 148.6 55.2 147.6 55.2 142.55 55.2 140.4 51.45 139.2 49.35 139.2 47.2 139.2 41.35 149.35 23.15 158.4 7.0 161.4 4.0 L171.55 -7.05 Q177.7 -14.0 181.4 -17.6 M243.3 281.9 L242.05 281.5 243.2 282.1 243.3 281.9 M-278.55 -73.25 Q-280.9 -68.8 -289.2 -68.8 L-308.35 -70.75 Q-328.5 -72.95 -335.0 -74.2 L-357.4 -74.0 Q-366.0 -70.55 -375.95 -69.5 L-392.4 -67.4 -406.1 -62.85 Q-415.3 -59.65 -418.15 -59.25 -420.5 -54.15 -432.85 -48.05 -436.85 -46.05 -444.8 -42.35 -451.2 -39.25 -453.4 -37.2 -458.35 -32.6 -465.4 -24.55 L-478.8 -9.0 -485.6 -2.15 -492.0 4.2 Q-493.9 6.25 -495.2 10.75 L-497.4 18.0 -499.5 24.4 Q-501.25 30.0 -502.65 33.4 -505.5 40.05 -509.0 42.85 L-508.8 47.4 Q-508.8 52.65 -511.2 61.8 L-513.6 70.8 Q-513.6 98.15 -509.55 122.05 -505.05 148.9 -495.2 173.4 -490.6 184.8 -480.4 199.0 -471.4 211.55 -459.0 225.0 -444.85 240.3 -417.05 257.45 -402.95 266.15 -400.9 267.55 -394.4 272.05 -394.4 274.4 L-394.4 275.05 Q-386.1 279.1 -380.4 280.2 -370.1 282.15 -352.35 283.95 L-336.0 285.4 -320.1 284.4 -306.2 282.8 -294.25 280.65 -284.8 280.0 -282.3 280.15 Q-280.15 277.1 -275.0 274.3 -269.75 271.45 -256.6 266.8 -249.5 264.35 -241.0 258.05 -230.95 250.55 -226.2 248.2 -207.7 238.9 -198.6 228.4 -195.25 224.6 -190.9 218.0 L-182.6 205.6 Q-170.4 188.5 -163.55 163.7 -161.4 155.9 -158.45 142.3 L-153.6 121.0 -153.6 78.9 -154.15 76.7 Q-155.5 75.05 -156.0 72.45 -156.4 70.3 -156.25 67.75 L-156.0 65.5 Q-156.0 62.95 -155.6 60.9 L-156.15 59.85 -160.2 51.8 Q-160.9 49.9 -168.6 37.45 -175.05 26.4 -175.85 21.35 -181.85 17.05 -190.7 5.8 -194.45 0.95 -209.0 -20.0 -215.2 -28.9 -224.6 -35.7 -230.4 -39.85 -240.7 -45.1 -250.35 -50.05 -253.3 -52.4 -258.4 -56.45 -258.4 -61.6 L-258.35 -69.85 Q-257.4 -74.0 -251.8 -76.6 -243.55 -80.4 -238.95 -76.0 L-235.05 -71.9 Q-232.45 -69.5 -229.4 -68.8 -217.65 -63.6 -208.0 -56.45 -200.85 -51.15 -192.2 -42.6 -172.9 -23.55 -164.25 -12.2 -154.95 0.1 -152.25 10.05 -151.65 11.05 -151.35 12.2 -149.85 18.2 -148.6 20.2 L-143.05 26.6 Q-138.7 31.35 -138.0 34.0 -137.45 36.35 -137.1 40.7 L-136.4 47.8 Q-135.6 52.7 -130.25 75.5 -126.4 91.8 -126.4 102.4 -126.4 111.7 -139.15 153.9 -145.6 175.3 -153.0 198.4 -161.3 229.35 -198.4 261.2 -212.9 273.7 -227.0 281.8 -240.5 289.6 -246.8 289.6 L-248.45 289.55 Q-252.65 291.45 -258.2 293.6 -271.5 298.8 -300.2 300.65 -315.1 301.6 -336.0 301.6 -370.1 301.6 -411.0 286.05 -427.95 279.6 -438.65 272.9 -442.95 270.25 -445.5 268.0 -455.2 267.2 -475.7 246.15 -493.0 228.4 -504.2 212.0 -509.2 204.7 -518.55 180.6 -526.45 160.3 -527.1 156.5 -529.6 152.8 -530.85 145.3 -532.0 138.4 -532.0 125.6 -532.55 121.8 -533.5 107.0 L-534.4 91.1 Q-534.7 83.85 -533.7 77.3 -532.65 70.75 -530.35 67.5 L-530.4 63.6 Q-530.4 53.6 -527.0 45.35 -525.0 40.35 -522.3 37.25 L-522.4 35.6 Q-522.4 27.9 -510.85 6.2 -500.35 -13.55 -491.8 -24.4 -483.4 -35.1 -462.6 -54.4 -460.6 -56.25 -453.95 -60.15 -447.6 -63.95 -441.8 -66.45 -442.4 -67.85 -442.4 -69.6 -442.4 -76.15 -406.95 -86.9 -395.4 -90.4 -382.05 -93.7 L-369.6 -96.6 -369.6 -96.8 -315.2 -96.8 Q-295.5 -93.95 -287.05 -89.95 -278.25 -85.75 -277.65 -78.7 L-277.8 -77.4 Q-278.0 -75.6 -278.55 -73.25" fill="#999999" fill-rule="evenodd" stroke="none"/>
    <path d="M226.9 -138.85 Q228.2 -138.05 228.2 -136.95 228.2 -136.3 227.75 -135.75 227.15 -135.05 226.2 -135.0 L218.2 -134.8 Q218.15 -133.5 216.45 -132.35 214.9 -131.35 213.15 -131.1 208.1 -130.3 204.75 -126.95 L201.7 -122.1 Q198.95 -118.0 197.1 -118.0 L196.75 -118.0 191.25 -108.4 Q185.65 -99.15 182.4 -96.0 181.9 -83.1 175.2 -68.0 184.3 -66.15 188.2 -60.25 L191.3 -55.1 Q193.3 -52.1 196.0 -50.4 L214.35 -39.25 219.7 -36.05 220.7 -35.45 Q244.0 -20.2 244.0 -14.4 L244.0 -14.0 246.4 -12.55 Q259.8 -3.8 281.6 20.15 300.7 41.05 316.8 62.9 332.8 84.55 332.8 89.4 332.8 91.85 331.25 94.2 L329.9 95.8 Q324.65 93.2 321.1 96.3 314.45 92.2 302.35 75.25 285.45 50.15 280.4 44.6 L268.6 32.1 Q261.55 24.65 255.8 17.6 L242.1 5.8 Q231.3 -3.75 230.5 -8.1 224.8 -11.0 212.35 -18.95 194.0 -30.65 187.0 -36.2 172.4 -46.4 164.9 -51.75 160.9 -48.0 156.8 -48.0 L154.8 -48.15 153.3 -45.5 146.25 -36.2 146.4 -34.8 Q146.4 -30.0 142.65 -23.4 138.6 -16.3 132.55 -14.8 L131.85 -13.25 125.0 3.0 102.6 34.75 80.8 65.4 Q80.8 66.4 81.6 68.25 82.4 70.1 82.4 71.1 71.1 101.7 62.2 105.0 62.9 107.4 62.55 110.0 61.1 110.05 60.6 111.3 60.35 112.0 60.25 112.9 L58.65 114.7 Q58.0 115.4 58.0 116.2 L58.0 116.3 54.8 116.8 Q46.85 116.8 41.45 109.45 39.75 107.1 38.5 104.3 L37.6 101.9 Q37.6 99.6 60.3 66.1 73.0 47.3 99.6 8.6 106.2 -1.15 114.0 -15.0 123.7 -32.25 127.0 -37.6 129.1 -40.95 132.1 -49.4 134.95 -57.45 137.4 -61.0 144.1 -70.65 149.6 -70.8 L149.6 -72.5 Q149.6 -75.25 154.75 -84.85 L158.95 -92.2 Q152.1 -92.55 146.35 -93.7 131.8 -96.6 127.6 -103.8 104.2 -108.75 47.0 -116.55 1.25 -122.8 -17.2 -129.0 -23.4 -131.05 -53.95 -134.6 -97.6 -139.6 -119.0 -142.8 L-163.4 -149.4 Q-202.15 -155.0 -208.6 -155.0 -212.85 -155.0 -215.6 -153.95 -218.8 -152.75 -223.4 -152.4 L-224.6 -150.65 Q-225.6 -149.3 -226.8 -148.4 -230.15 -145.8 -236.5 -145.6 -236.0 -143.05 -236.0 -140.9 L-236.0 -140.6 -230.6 -140.4 Q-226.3 -138.75 -224.75 -135.0 L-221.8 -128.6 Q-217.05 -122.6 -212.0 -117.6 L-197.6 -104.0 Q-195.25 -101.8 -187.05 -91.9 -180.0 -83.35 -174.8 -79.4 -167.7 -74.0 -162.1 -68.15 -156.95 -62.8 -155.25 -59.1 -148.55 -57.45 -140.0 -50.4 -136.1 -46.8 -130.85 -39.1 -124.95 -30.55 -122.8 -28.2 -119.95 -25.05 -99.45 -6.1 -84.55 7.7 -79.8 16.2 L-76.95 21.1 Q-75.4 20.8 -73.6 21.05 -69.65 21.65 -67.0 24.45 -64.0 27.6 -64.0 32.4 -64.0 35.1 -65.5 37.4 L-64.35 38.8 -63.2 40.15 Q-60.4 38.85 -56.4 39.7 -52.05 40.65 -48.95 43.5 -45.6 46.65 -45.6 50.5 -45.6 53.25 -47.6 55.6 L-47.75 55.75 -42.0 60.6 Q-28.5 70.2 -17.6 78.6 L-17.8 79.5 Q-17.8 80.9 -13.15 83.95 -7.6 87.6 -6.05 89.75 -4.6 91.7 0.65 95.95 L4.6 99.0 Q6.4 101.65 6.4 103.3 6.4 106.1 4.4 108.4 1.95 111.2 -2.0 111.2 -4.15 111.2 -26.0 94.15 L-33.05 88.65 Q-34.05 86.6 -36.0 85.95 L-36.75 85.8 Q-53.8 72.5 -56.2 70.8 -68.45 62.3 -76.75 50.2 L-83.35 39.9 Q-87.35 33.55 -90.6 29.4 -94.95 23.9 -132.6 -15.5 -154.25 -38.15 -160.95 -47.3 L-162.4 -47.2 Q-166.75 -47.2 -183.35 -62.65 -200.45 -78.55 -207.6 -90.0 L-225.35 -108.4 Q-237.15 -121.3 -240.75 -128.1 L-244.0 -122.0 Q-243.5 -117.1 -244.8 -113.45 -247.25 -106.4 -257.2 -106.4 -267.85 -106.4 -274.0 -112.0 -278.4 -116.0 -278.4 -119.2 -278.4 -121.55 -276.65 -123.85 L-272.8 -127.95 Q-267.2 -133.8 -267.2 -141.1 -267.2 -145.75 -269.6 -150.3 -272.0 -154.8 -272.0 -161.8 -272.0 -165.35 -266.35 -172.15 -263.25 -175.95 -259.9 -178.9 -260.8 -180.85 -260.8 -183.6 -260.8 -189.25 -256.0 -191.7 -251.5 -194.05 -245.4 -192.5 -239.05 -190.95 -234.95 -186.0 -230.2 -180.35 -230.4 -172.2 -198.4 -170.85 -182.05 -167.9 -167.0 -165.2 -152.0 -164.8 L-124.0 -164.8 Q-113.9 -165.4 -107.8 -161.6 -105.9 -160.45 -104.3 -158.75 L-102.6 -157.0 Q-77.35 -156.85 -18.8 -146.3 12.15 -140.75 55.8 -132.2 94.1 -127.4 121.85 -122.05 158.75 -114.95 170.15 -107.15 L171.75 -108.65 Q172.75 -113.35 175.6 -118.1 179.5 -124.65 185.2 -128.7 189.35 -131.65 192.6 -131.9 L192.4 -132.45 Q192.4 -133.55 193.25 -134.3 193.95 -134.95 196.0 -135.85 L195.6 -136.75 195.4 -137.35 Q195.4 -138.5 196.0 -138.85 L196.85 -139.1 198.95 -139.25 203.8 -140.2 210.65 -140.25 214.0 -140.6 219.8 -140.6 225.55 -139.45 226.9 -138.85 M96.95 120.6 L133.8 120.45 138.05 120.45 145.4 120.4 Q146.75 119.7 149.6 119.2 L179.2 119.2 191.25 119.9 203.0 120.6 243.8 120.4 Q249.1 117.8 257.4 117.6 L267.2 117.6 298.6 117.4 Q306.7 115.5 310.7 118.65 313.6 120.95 313.6 124.8 313.6 127.85 311.2 130.35 307.95 133.65 301.6 133.6 L269.4 133.8 259.2 135.2 246.4 136.8 88.0 136.8 Q70.6 136.65 64.5 133.9 60.0 131.9 60.0 127.2 60.0 122.8 63.95 120.75 66.1 119.6 69.35 119.15 L72.05 119.8 82.1 120.6 88.15 120.25 90.2 120.6 94.15 120.6 Q94.7 121.0 95.5 121.0 96.4 121.0 96.95 120.6 M-277.65 -78.7 Q-276.5 -87.9 -273.6 -93.45 -270.85 -98.7 -267.35 -99.4 -264.0 -100.1 -261.65 -96.45 -259.2 -92.6 -259.2 -85.8 -259.2 -71.95 -266.95 -47.3 L-273.35 -27.7 Q-276.9 -16.6 -278.4 -9.6 -279.65 -3.7 -280.95 -0.05 -283.1 6.05 -286.4 9.6 -289.55 13.05 -290.3 19.45 -291.05 26.1 -293.2 28.8 -297.5 34.1 -300.4 41.45 L-304.2 53.35 Q-306.1 59.6 -308.2 62.15 -310.55 65.05 -314.45 65.55 L-314.4 66.9 Q-314.4 68.1 -316.55 76.75 -318.85 86.0 -320.0 88.2 -320.95 90.05 -321.6 92.7 L-321.6 91.2 Q-321.6 83.35 -326.6 80.4 -330.9 77.9 -337.6 79.55 -343.85 81.05 -348.6 85.25 L-348.9 85.55 Q-346.7 82.35 -342.9 79.95 L-336.2 75.85 Q-332.85 73.45 -332.2 70.4 -329.5 57.9 -324.0 56.5 L-324.0 56.1 Q-324.0 52.3 -321.2 48.15 -318.4 44.0 -318.4 43.2 -318.4 42.2 -319.2 40.05 -320.0 37.9 -320.0 36.9 -320.0 35.9 -315.95 27.15 L-306.75 7.1 Q-292.85 -24.05 -290.4 -39.6 -289.45 -45.7 -283.85 -58.6 -280.0 -67.5 -278.55 -73.25 -278.0 -75.6 -277.8 -77.4 L-277.65 -78.7 M-321.7 94.1 Q-320.0 96.25 -320.0 99.8 -320.0 102.9 -322.0 105.2 -324.4 108.0 -328.8 108.0 -332.45 108.0 -334.6 106.3 L-332.8 106.4 Q-325.7 106.4 -323.0 99.6 -322.05 97.15 -321.7 94.1 M-342.75 103.85 Q-348.55 103.25 -350.8 100.2 L-351.85 98.05 Q-349.85 100.2 -345.6 102.45 L-342.75 103.85" fill="#ff0000" fill-rule="evenodd" stroke="none"/>
    <path d="M329.9 95.8 Q332.85 97.25 336.4 100.6 337.2 101.35 343.75 105.05 349.75 108.45 351.2 110.4 353.4 113.4 354.05 116.8 354.4 118.75 354.4 123.0 354.4 128.65 351.2 135.0 346.65 144.0 338.4 144.0 324.95 144.0 318.8 130.05 316.8 125.6 315.8 120.2 315.2 116.85 315.2 115.3 315.2 105.0 319.0 98.85 319.95 97.3 321.1 96.3 324.65 93.2 329.9 95.8 M62.55 110.0 L62.6 110.0 Q63.2 110.0 63.8 110.45 L64.35 110.9 69.35 108.0 Q74.55 104.7 75.75 102.4 L78.05 97.8 Q78.6 96.2 78.6 93.55 L78.2 88.45 Q78.2 84.15 81.2 86.85 83.35 88.8 84.65 91.25 88.2 96.95 90.55 100.1 L94.05 104.65 Q95.9 107.25 96.2 109.1 L97.6 117.95 97.45 119.75 96.95 120.6 Q96.4 121.0 95.5 121.0 94.7 121.0 94.15 120.6 L93.65 120.05 93.2 119.05 90.3 119.85 88.15 120.25 82.1 120.6 72.05 119.8 69.35 119.15 68.3 118.95 59.5 117.95 Q58.05 117.55 58.0 116.3 L58.0 116.2 Q58.0 115.4 58.65 114.7 L60.25 112.9 Q60.35 112.0 60.6 111.3 61.1 110.05 62.55 110.0 M-17.6 78.6 L-17.6 78.55 -16.4 77.45 Q-17.5 76.75 -21.6 75.25 -23.8 74.45 -23.8 72.7 -23.8 70.3 -21.4 70.65 L-21.6 70.4 Q-21.6 60.5 -13.9 62.85 -11.15 60.2 -0.15 57.55 10.8 55.0 18.4 54.4 L24.2 54.4 40.95 56.7 Q55.2 59.2 55.2 62.0 55.2 64.5 49.3 65.8 L41.4 67.0 30.2 67.0 28.05 66.65 21.35 66.65 Q9.8 66.3 9.8 74.0 9.8 74.85 10.1 76.0 L10.4 78.65 10.3 80.65 11.75 82.0 Q18.65 88.4 19.3 88.4 21.8 88.4 25.6 86.2 29.4 84.0 30.4 84.0 35.75 84.0 38.0 87.8 39.2 89.9 39.2 92.0 39.2 95.2 33.8 100.4 27.55 106.4 20.8 106.4 15.15 106.4 6.75 99.95 L6.2 100.0 4.6 99.0 0.65 95.95 Q-4.6 91.7 -6.05 89.75 -7.6 87.6 -13.15 83.95 -17.8 80.9 -17.8 79.5 L-17.6 78.6 M-33.05 88.65 Q-32.0 90.8 -32.0 94.5 -32.0 93.55 -36.3 108.2 L-40.6 123.3 Q-40.6 124.4 -39.6 125.5 L-38.0 127.0 Q-34.3 128.75 -31.45 126.8 -29.5 125.5 -26.95 121.4 -23.8 116.35 -22.65 115.05 -19.95 112.0 -16.8 112.0 -8.3 112.0 -7.5 120.15 -7.3 122.45 -7.75 126.6 -8.15 130.5 -8.0 131.4 -7.3 135.95 -3.35 141.45 L-1.55 143.85 -1.8 140.55 -1.75 139.9 Q-4.15 139.35 -4.9 136.9 -5.2 135.95 -5.2 133.3 -5.2 127.15 -3.95 123.3 -2.8 119.75 -1.2 119.55 L-0.65 119.6 Q-0.3 117.45 0.25 116.0 4.4 104.8 17.2 111.8 19.35 110.95 20.6 109.65 22.1 108.8 27.6 108.8 35.6 108.8 39.6 112.7 41.65 114.7 42.6 117.2 50.0 118.35 52.2 120.65 53.45 121.95 54.0 124.4 57.25 130.35 58.0 134.4 58.4 136.55 58.4 142.7 L58.3 148.15 Q61.75 146.15 64.3 145.1 67.3 143.85 70.6 143.2 L86.6 143.2 88.75 143.55 95.0 143.6 Q99.85 144.0 101.25 144.55 102.4 145.0 102.4 146.2 102.4 148.45 100.3 154.55 98.4 160.0 97.4 161.65 L94.5 165.6 Q92.65 168.05 92.4 169.45 91.95 171.75 91.85 174.75 91.55 176.6 89.2 176.6 86.5 176.6 85.1 174.15 84.2 172.6 84.2 171.5 84.2 170.4 84.9 168.6 L85.6 166.1 Q85.6 165.4 84.9 164.4 L83.45 162.8 Q81.2 163.7 80.8 165.9 L80.05 169.55 Q78.8 171.65 77.95 176.6 L77.05 184.45 Q76.0 190.2 73.5 190.2 71.05 190.2 70.4 188.5 70.2 188.0 70.2 186.3 70.2 184.55 70.45 183.6 L71.4 180.25 71.4 180.1 Q66.25 183.0 60.8 185.75 49.95 191.2 47.1 191.2 L46.65 191.2 Q48.8 205.85 48.8 208.6 48.8 212.5 48.0 214.6 46.2 219.2 40.8 219.2 35.4 219.2 32.75 214.65 31.05 211.75 30.1 205.85 28.65 207.8 24.9 207.8 L23.0 207.6 Q21.05 208.8 18.4 208.8 14.2 208.8 12.1 205.9 L7.2 205.2 Q1.5 204.85 -1.2 203.85 L-6.0 201.45 -16.65 196.05 Q-22.15 192.85 -22.2 190.5 -23.85 191.2 -26.0 191.2 -36.4 191.2 -46.3 176.8 -54.65 164.7 -56.2 154.4 -57.4 146.6 -57.6 131.6 L-57.6 116.6 Q-57.6 108.1 -53.6 100.1 -50.05 93.0 -44.8 88.85 -40.15 85.2 -36.75 85.8 L-36.0 85.95 Q-34.05 86.6 -33.05 88.65 M19.15 171.85 Q25.7 184.6 27.4 189.7 28.05 189.85 28.6 190.55 L28.05 184.1 Q26.9 171.5 24.8 162.0 17.6 161.25 12.35 159.4 15.2 164.15 19.15 171.85 M8.25 196.25 L8.2 196.3 8.25 196.25 M6.3 191.4 Q7.4 188.8 7.4 186.75 7.4 185.45 6.2 183.2 5.0 180.95 5.0 179.85 5.0 178.9 5.35 178.35 1.8 173.65 -5.05 166.2 L-12.75 157.7 -13.6 157.8 Q-15.2 157.8 -15.65 156.65 L-16.35 155.05 -20.85 152.35 Q-21.3 152.0 -25.7 149.95 -27.15 149.25 -27.9 148.55 -29.0 149.35 -29.75 150.8 L-31.4 154.55 Q-32.5 157.0 -34.5 158.15 L-27.9 167.2 Q-17.6 180.95 -17.6 183.2 L-17.75 184.75 -16.45 186.2 Q-13.65 189.5 -12.6 190.2 -10.65 191.45 -6.85 193.2 -1.65 195.55 0.9 195.55 4.5 195.55 6.3 191.4 M76.05 155.2 Q74.0 152.85 71.45 152.85 70.55 152.85 65.9 157.5 61.8 161.65 59.3 164.75 L56.2 167.9 53.5 170.75 Q53.05 171.35 52.05 173.65 50.65 175.6 47.7 175.6 44.95 175.6 43.65 172.75 L45.75 185.1 Q48.5 179.7 58.2 171.25 71.15 159.9 77.95 158.2 L76.05 155.2 M40.8 160.3 L42.85 168.7 Q43.05 167.15 44.2 165.4 45.45 163.5 47.45 161.9 L48.85 161.65 Q49.4 161.7 49.75 161.4 L47.2 161.6 Q44.35 161.6 41.0 159.6 L40.8 160.3 M51.35 166.95 L51.8 166.5 51.5 166.7 51.35 166.95 M26.95 201.9 L26.25 203.75 Q27.0 203.6 27.0 202.2 L26.95 201.9 M-329.6 -263.6 Q-329.6 -269.85 -322.8 -285.3 -316.85 -298.85 -315.0 -300.8 -313.65 -302.25 -311.65 -305.35 L-308.15 -310.45 Q-303.35 -316.7 -295.8 -318.8 -272.75 -325.1 -268.25 -317.85 -265.75 -321.15 -258.45 -321.6 -249.1 -322.2 -234.0 -318.2 -220.6 -314.65 -209.5 -309.5 -200.95 -305.55 -199.0 -303.0 L-198.3 -303.55 Q-185.05 -314.05 -167.2 -320.0 L-142.2 -320.2 Q-135.8 -320.85 -123.45 -319.1 -111.35 -317.4 -99.05 -314.25 -68.8 -306.45 -68.8 -299.0 -68.8 -295.5 -70.4 -293.6 -73.1 -290.4 -80.4 -290.4 -80.95 -290.4 -100.4 -295.9 -119.85 -301.4 -121.0 -301.4 -122.4 -301.4 -124.45 -300.5 -126.9 -299.5 -128.8 -299.2 L-149.0 -299.0 Q-178.05 -298.85 -189.85 -286.6 -193.6 -282.7 -197.15 -275.75 -201.25 -267.65 -202.8 -265.6 -211.2 -256.6 -222.4 -247.85 -244.75 -230.4 -259.6 -230.4 -270.7 -230.4 -278.25 -235.0 L-281.2 -237.1 Q-281.05 -235.3 -275.0 -232.9 L-261.4 -228.1 Q-241.6 -221.0 -241.6 -213.7 -241.6 -210.0 -243.45 -205.6 -246.15 -199.2 -251.2 -199.2 -256.6 -199.2 -259.95 -205.15 -261.65 -208.15 -262.6 -211.4 -264.3 -212.6 -274.05 -214.25 -286.7 -216.35 -292.6 -218.0 -296.85 -219.15 -299.6 -224.2 L-303.2 -231.0 Q-307.55 -235.5 -313.4 -238.35 -315.35 -239.3 -315.95 -240.0 -316.75 -240.9 -316.8 -242.65 L-319.2 -242.4 Q-325.2 -242.4 -328.0 -252.8 -329.4 -258.05 -329.6 -263.6 M-321.6 92.7 L-321.7 94.1 Q-322.05 97.15 -323.0 99.6 -325.7 106.4 -332.8 106.4 L-334.6 106.3 Q-338.25 105.85 -342.75 103.85 L-345.6 102.45 Q-349.85 100.2 -351.85 98.05 -353.6 96.15 -353.6 94.4 -353.6 89.85 -348.9 85.55 L-348.6 85.25 Q-343.85 81.05 -337.6 79.55 -330.9 77.9 -326.6 80.4 -321.6 83.35 -321.6 91.2 L-321.6 92.7 M-241.4 -302.2 Q-252.0 -304.7 -263.45 -306.2 -266.85 -307.0 -268.15 -308.5 L-268.95 -309.8 Q-270.0 -309.1 -273.3 -308.05 -281.15 -305.6 -285.0 -300.2 -285.6 -299.35 -292.3 -292.45 -297.6 -287.05 -298.4 -284.0 -299.9 -278.3 -305.85 -264.85 -310.45 -254.45 -311.1 -252.1 L-309.35 -253.7 Q-307.3 -255.45 -305.2 -255.6 -302.05 -255.9 -285.4 -250.4 L-282.9 -248.55 -282.6 -248.85 Q-280.2 -251.2 -276.0 -251.2 -272.5 -251.2 -268.7 -248.9 -264.9 -246.6 -259.6 -246.6 -246.6 -246.6 -231.2 -264.3 -223.3 -273.35 -216.4 -284.6 L-208.95 -293.65 Q-214.95 -294.05 -224.7 -297.05 L-241.4 -302.2" fill="#cccccc" fill-rule="evenodd" stroke="none"/>
    <path d="M21.6 30.4 L-6.4 30.4 Q-26.05 31.65 -31.6 25.85 -33.45 23.85 -33.7 21.05 L-33.6 17.5 Q-33.6 11.2 -31.7 9.2 -30.2 7.6 -19.2 1.6 L24.8 1.6 Q32.65 3.45 34.6 7.8 35.2 9.2 35.2 14.7 35.2 21.0 33.35 23.85 30.5 28.3 21.6 30.4 M84.8 238.8 Q84.8 243.45 82.65 248.5 79.0 256.9 71.0 258.0 L16.4 264.8 Q8.7 264.8 6.45 260.4 5.6 258.8 5.6 255.3 5.6 247.85 6.65 244.75 7.95 240.95 12.1 238.8 15.9 236.8 25.25 234.7 L49.6 229.8 49.6 229.6 76.8 229.6 Q81.75 230.05 83.6 233.3 84.8 235.35 84.8 238.8" fill="#ffffff" fill-rule="evenodd" stroke="none"/>
    <path d="M366.4 -14.8 Q365.6 -12.6 361.45 -9.1 360.5 10.0 357.0 25.65 352.6 45.25 351.2 57.35 350.2 64.15 353.3 68.0 355.55 70.85 361.15 72.95 L370.45 76.45 Q375.3 78.9 376.75 82.9 374.4 85.15 369.4 82.95 L358.35 77.0 Q340.55 67.6 325.65 72.7 334.55 99.7 361.45 108.45 L357.15 125.95 Q353.9 135.8 346.1 144.25 339.55 145.15 333.5 144.05 330.3 143.45 323.55 141.2 317.4 139.15 313.4 138.65 L300.1 139.15 Q296.25 139.7 295.55 143.55 294.85 147.0 296.9 151.4 298.95 155.8 302.4 158.2 306.3 160.9 310.3 159.6 308.25 163.25 303.4 163.0 298.8 162.7 293.95 159.3 288.9 155.7 286.3 150.6 283.4 144.85 284.75 139.15 220.7 139.15 213.8 139.3 177.15 140.1 156.95 144.25 157.6 150.15 161.6 161.35 165.65 172.75 167.15 185.15 209.2 182.05 226.5 178.05 256.55 171.05 269.4 154.45 274.65 156.45 274.55 159.45 274.5 162.05 270.65 164.75 267.15 167.25 262.3 168.75 257.5 170.25 254.25 169.85 285.7 174.9 312.9 172.2 340.85 169.45 359.35 158.9 378.95 147.7 385.1 129.3 389.4 116.4 386.8 100.7 387.45 102.2 388.9 103.0 393.55 105.65 407.45 103.35 397.8 109.1 392.8 117.2 387.95 125.1 388.85 132.9 389.8 141.0 396.75 146.6 404.35 152.7 417.65 154.45 L402.05 154.1 387.3 154.95 Q371.05 157.4 356.3 169.8 359.15 177.7 358.6 184.1 358.1 189.25 361.45 195.35 357.9 198.65 356.2 196.9 354.95 195.55 354.45 190.55 L353.6 181.55 Q352.9 176.5 351.2 174.9 328.6 173.45 302.8 176.95 286.2 179.15 258.3 185.25 228.8 191.7 216.8 193.5 194.5 196.9 177.4 195.35 191.3 227.2 218.1 249.25 242.95 269.75 279.65 282.3 246.95 284.0 212.9 253.15 200.5 241.95 185.65 224.35 L162.05 195.35 Q159.75 213.95 172.2 235.0 183.9 254.8 206.2 272.95 228.25 290.9 255.2 302.75 283.3 315.15 310.3 318.05 389.15 326.5 450.25 281.0 476.7 261.3 497.75 232.7 513.9 210.7 525.7 185.15 L529.55 170.8 Q527.95 158.9 527.65 136.8 527.35 113.45 528.55 93.2 529.8 72.5 531.5 73.85 533.55 75.35 535.25 108.45 536.85 139.45 529.55 170.65 L529.55 170.8 530.15 174.9 525.7 185.15 Q518.55 208.65 506.65 229.75 490.5 258.45 467.4 279.35 442.8 301.55 412.55 312.95 372.75 327.95 329.55 325.9 288.7 323.95 250.9 307.25 213.8 290.8 186.65 263.3 158.75 235.1 146.7 200.5 131.5 203.45 114.05 205.05 L88.4 207.1 Q75.65 208.35 67.6 210.95 57.7 214.2 49.6 220.95 57.4 228.3 66.65 228.6 L74.95 228.75 Q80.25 229.2 85.35 231.15 L85.35 261.85 65.4 263.6 46.1 266.05 Q22.45 268.8 3.55 266.95 -0.75 247.7 9.3 239.4 16.0 233.85 34.25 231.15 28.7 221.9 10.2 212.55 -12.8 202.25 -24.1 196.35 -44.05 186.0 -52.3 174.55 -62.95 159.65 -57.8 139.15 -56.35 152.55 -47.05 165.95 -38.45 178.4 -24.9 188.35 -11.65 198.1 2.6 202.75 17.35 207.6 29.15 205.6 28.85 191.2 22.15 179.35 18.4 172.8 7.7 160.55 -2.35 149.05 -6.2 141.25 -12.35 129.0 -11.75 113.6 -17.1 113.75 -20.85 117.3 L-26.55 124.4 Q-29.95 128.65 -33.8 129.9 -39.1 131.6 -47.55 128.9 -48.65 122.1 -46.9 116.8 -45.8 113.6 -42.45 108.45 -39.05 103.3 -38.0 100.1 -36.25 94.8 -37.35 88.0 -44.15 90.4 -46.85 92.3 -49.35 94.1 -50.05 96.7 L-50.7 103.15 Q-51.15 108.5 -52.65 113.6 -64.65 111.45 -59.6 99.8 -56.5 92.6 -47.55 82.9 -79.5 44.3 -141.3 -17.6 L-189.75 -66.35 Q-216.85 -94.1 -236.7 -116.5 -239.5 -114.8 -241.05 -110.6 L-243.2 -102.5 Q-244.4 -97.4 -245.9 -95.0 -248.1 -91.55 -252.05 -90.9 -209.05 -57.6 -186.1 -34.2 -152.65 -0.2 -134.45 36.9 -124.2 75.15 -128.1 117.9 -132.05 161.0 -149.4 198.5 -167.8 238.15 -197.75 263.5 -230.4 291.05 -272.5 297.6 -210.8 283.8 -173.75 230.85 -156.95 206.85 -147.4 177.2 -138.15 148.4 -136.65 117.3 -135.15 86.3 -141.55 56.65 -148.15 26.25 -162.35 0.65 -193.6 -55.75 -252.05 -75.6 -258.7 -60.3 -267.6 -36.6 L-283.25 5.6 Q-303.25 59.1 -318.5 88.0 -310.8 90.5 -298.05 89.75 -289.8 89.25 -272.55 86.65 L-244.45 83.0 Q-228.35 81.55 -216.25 82.9 -225.4 87.0 -239.45 89.1 L-266.35 91.6 -293.75 93.6 Q-308.7 95.15 -318.5 98.25 -320.25 109.2 -316.15 116.35 -313.3 121.25 -305.8 126.45 -296.4 132.9 -294.15 135.2 -288.45 141.05 -287.85 149.35 -296.85 143.5 -311.0 129.05 -325.5 114.15 -333.85 108.45 -338.55 108.5 -338.35 110.6 -338.25 111.55 -335.95 115.0 -334.05 117.8 -335.05 118.65 -336.5 119.95 -344.1 118.7 -344.6 114.95 -349.8 114.2 L-359.4 113.6 Q-358.1 107.3 -355.15 97.1 L-350.1 79.45 Q-344.05 57.25 -344.1 42.0 -342.55 37.9 -342.15 39.95 -341.95 41.05 -341.95 48.15 -342.05 66.1 -338.95 72.7 -336.6 64.65 -324.4 41.15 -309.55 12.4 -303.85 -0.8 -293.1 -25.7 -291.9 -41.75 -290.4 -61.8 -303.2 -70.45 -327.7 -69.3 -344.55 -70.25 -359.1 -71.0 -361.2 -72.75 -363.3 -74.45 -351.4 -75.4 -337.75 -76.45 -313.4 -75.6 -308.35 -76.15 -302.7 -74.65 -299.5 -73.8 -293.85 -71.8 -289.0 -70.3 -285.75 -70.85 -281.55 -71.5 -277.6 -75.6 -349.3 -100.9 -410.75 -79.8 -438.6 -70.25 -461.8 -51.75 -484.1 -33.95 -500.3 -9.4 -516.25 14.7 -524.75 42.9 -533.3 71.25 -533.45 100.75 -533.8 164.35 -497.4 215.8 -464.55 262.3 -412.1 284.15 -352.85 308.85 -277.6 297.6 -341.05 308.8 -392.7 295.6 -439.9 283.6 -473.7 252.3 -505.0 223.35 -521.15 181.6 -536.55 141.7 -535.5 97.35 -534.5 53.1 -517.3 13.55 -499.4 -27.7 -467.1 -55.85 -432.25 -86.25 -385.3 -97.05 -333.95 -108.85 -272.5 -96.05 -281.8 -103.45 -281.9 -111.7 -281.95 -117.75 -276.25 -127.55 -267.4 -142.85 -266.2 -145.5 -261.15 -156.9 -262.3 -167.6 -268.2 -165.65 -269.6 -162.0 -270.55 -159.5 -269.5 -154.8 -268.25 -149.3 -268.35 -147.65 -268.6 -143.95 -272.5 -142.05 -274.3 -150.9 -270.45 -167.4 -264.2 -194.0 -262.3 -208.5 -284.05 -209.8 -302.95 -224.05 -307.4 -227.4 -318.25 -236.9 -327.7 -245.25 -333.85 -249.4 -331.8 -270.95 -320.9 -292.0 -307.6 -317.6 -287.85 -326.1 -258.25 -317.65 -224.5 -317.75 L-195.85 -319.0 -168.5 -321.2 Q-136.05 -323.7 -115.9 -320.75 -87.65 -316.55 -62.9 -300.55 -65.4 -295.85 -70.4 -293.0 L-68.0 -290.3 -73.35 -291.6 Q-80.45 -288.75 -91.35 -288.75 L-112.6 -290.4 -135.6 -293.45 Q-164.15 -296.9 -178.05 -292.7 -197.65 -286.85 -200.95 -264.75 -196.3 -300.15 -153.1 -302.7 -126.15 -304.3 -73.35 -291.6 -71.8 -292.25 -70.4 -293.0 -87.35 -310.95 -120.15 -317.25 -151.7 -323.3 -175.35 -315.85 -188.6 -311.7 -202.15 -297.6 -210.05 -289.4 -224.85 -270.95 -238.4 -255.1 -249.65 -248.85 -264.85 -240.45 -282.75 -244.3 -277.45 -233.05 -267.5 -230.35 -258.7 -227.95 -247.8 -232.6 -237.7 -236.95 -228.95 -245.85 -220.15 -254.8 -216.25 -264.75 -209.7 -262.4 -210.9 -256.85 -211.95 -252.05 -218.45 -245.75 -224.45 -240.0 -232.6 -235.15 -240.8 -230.35 -246.95 -228.95 -245.55 -223.95 -241.5 -216.15 L-234.6 -202.9 Q-226.9 -186.25 -231.6 -172.7 -138.25 -170.35 -25.2 -151.6 10.15 -145.75 71.15 -134.2 L167.15 -116.5 Q170.35 -116.7 171.95 -119.35 172.75 -120.65 174.0 -124.95 175.1 -128.7 176.5 -130.15 178.55 -132.35 182.5 -131.8 175.8 -136.3 156.5 -141.6 138.25 -146.6 131.35 -152.25 L131.35 -177.85 Q146.45 -187.7 168.5 -188.3 183.3 -188.7 210.4 -184.15 242.05 -178.9 253.65 -178.15 277.8 -176.6 294.95 -182.95 302.3 -162.05 303.4 -152.55 304.8 -140.75 300.1 -126.7 292.05 -127.75 278.9 -127.25 L256.0 -126.1 Q228.25 -124.95 218.3 -131.8 205.2 -120.6 196.2 -104.9 185.85 -84.55 177.4 -70.45 179.8 -62.85 190.65 -58.2 193.65 -56.9 199.8 -54.5 205.1 -52.3 208.05 -50.0 221.65 -57.35 240.65 -64.45 264.0 -73.15 287.35 -78.2 349.65 -91.75 392.1 -75.6 406.65 -70.05 414.45 -64.3 417.9 -61.8 417.6 -60.65 417.3 -59.4 412.55 -60.25 L370.05 -68.1 Q340.3 -73.05 316.95 -73.8 249.55 -76.05 213.15 -44.9 222.45 -37.8 235.65 -39.6 245.0 -40.9 261.55 -48.2 284.35 -58.25 290.05 -60.25 307.05 -66.15 320.55 -65.35 319.75 -59.35 307.75 -55.55 301.55 -53.6 281.05 -49.85 261.7 -46.35 252.35 -42.95 237.95 -37.75 233.6 -29.55 239.1 -22.25 248.2 -13.45 L264.0 1.4 Q283.15 19.85 289.85 36.9 258.6 2.5 233.55 -19.25 200.9 -47.55 167.15 -65.35 172.95 -72.45 178.5 -85.7 L187.8 -107.6 Q193.9 -119.6 202.15 -126.25 212.45 -134.55 228.5 -136.95 210.15 -144.0 196.9 -146.8 185.05 -149.25 156.95 -152.25 165.3 -144.7 181.35 -141.6 L193.35 -139.55 Q199.75 -138.4 202.95 -136.95 201.0 -135.65 194.1 -131.75 188.55 -128.6 185.6 -126.15 176.8 -118.8 177.4 -106.25 147.1 -111.7 78.75 -125.2 15.45 -137.7 -20.1 -143.95 -136.25 -164.25 -231.6 -167.6 -232.95 -170.7 -233.8 -175.45 -234.6 -179.9 -235.4 -181.5 -238.1 -186.9 -252.05 -188.05 -252.9 -183.9 -254.65 -170.55 -256.3 -157.75 -258.0 -150.3 -263.55 -125.7 -277.6 -116.5 -277.15 -112.9 -273.5 -111.65 -271.1 -110.8 -265.5 -110.7 L-257.15 -110.1 Q-253.05 -109.15 -252.05 -106.25 -251.15 -109.2 -247.0 -118.25 -242.75 -127.6 -241.1 -132.55 -235.45 -149.75 -246.95 -152.25 -189.35 -155.8 -100.2 -144.7 -56.35 -139.25 49.6 -121.6 L82.5 -116.8 Q102.6 -113.95 114.75 -111.25 150.4 -103.25 167.15 -85.8 84.1 -109.55 -24.65 -126.65 -109.0 -139.9 -231.6 -152.25 -216.25 -127.75 -192.5 -101.9 -177.65 -85.8 -147.7 -57.2 -116.5 -27.45 -102.7 -12.75 -78.6 12.95 -62.9 36.9 -84.05 14.2 -148.05 -49.25 -201.9 -102.7 -231.6 -136.95 -234.9 -126.2 -231.05 -117.1 -227.95 -109.7 -219.25 -102.15 -215.4 -98.8 -202.1 -89.2 -190.9 -81.2 -185.6 -75.6 -171.1 -60.3 -142.0 -27.9 -111.45 6.05 -96.15 22.4 -40.25 81.95 3.55 113.6 3.35 105.25 -4.9 95.65 -9.95 89.8 -23.6 78.1 -37.95 65.85 -44.05 59.1 -54.45 47.7 -57.8 36.9 -51.05 39.55 -42.45 49.7 -33.8 59.8 -27.1 62.45 -15.25 57.1 -10.05 53.95 -1.2 48.6 3.55 42.0 -0.95 39.3 -10.85 37.25 -22.8 34.7 -26.2 33.4 -34.1 30.5 -36.95 24.95 -40.4 18.15 -37.35 6.2 -27.4 0.0 -2.05 0.6 L19.2 1.4 Q31.7 1.8 39.35 1.1 38.9 8.3 39.5 11.2 40.5 15.9 44.45 16.45 44.4 23.75 38.45 27.05 35.2 28.9 25.55 30.75 16.6 32.5 13.2 34.95 7.85 38.8 8.7 47.1 12.45 42.15 19.7 42.4 25.05 42.55 34.1 45.9 L48.55 51.3 Q56.15 53.7 59.8 52.25 75.85 45.9 89.25 25.45 97.85 12.25 110.5 -16.5 124.05 -47.45 130.7 -58.6 142.95 -79.25 156.95 -85.8 138.9 -46.1 103.55 8.55 92.7 25.3 39.35 103.35 45.7 113.85 61.1 117.4 74.25 120.45 95.6 118.7 95.7 109.55 89.7 101.55 L84.6 95.15 Q81.65 91.35 80.25 88.0 80.1 95.85 76.15 102.2 70.8 110.7 59.8 113.6 64.75 95.2 77.05 72.5 86.3 55.5 103.05 30.3 L131.7 -12.45 Q147.85 -37.15 156.95 -55.15 165.1 -55.1 173.0 -48.2 177.6 -44.2 179.35 -43.05 183.25 -40.45 187.6 -39.8 186.0 -35.0 182.7 -34.75 180.2 -34.55 175.95 -37.15 L168.6 -42.2 Q164.4 -44.95 162.05 -44.9 145.85 -25.5 127.4 5.15 120.65 16.45 100.7 52.25 L126.25 52.25 Q132.6 45.2 140.35 33.55 L154.45 11.2 Q173.6 -19.65 187.6 -34.7 209.45 -25.15 229.35 -8.7 245.5 4.6 263.35 25.05 269.0 31.5 294.0 62.2 312.6 85.05 325.65 98.25 329.5 90.85 326.05 82.95 323.6 77.3 315.65 68.65 304.8 56.85 302.55 53.8 295.85 44.9 294.95 36.9 299.9 41.25 306.05 48.6 L315.25 59.15 Q320.4 64.2 325.8 66.25 332.3 68.65 341.0 67.55 348.85 46.85 351.45 30.45 353.95 8.7 356.3 -9.1 357.9 -12.6 360.75 -14.8 363.25 -16.7 365.15 -16.7 367.05 -16.7 366.4 -14.8 M289.85 -177.85 Q274.05 -169.45 248.65 -171.45 239.2 -172.2 226.05 -174.55 L203.55 -178.8 Q176.65 -183.75 163.25 -181.8 144.25 -179.0 136.5 -162.5 148.8 -159.25 167.95 -156.85 L201.25 -153.1 Q220.65 -150.75 232.85 -147.65 248.9 -143.6 259.2 -136.95 250.15 -137.8 240.25 -136.85 228.05 -135.6 238.75 -131.8 249.0 -133.5 270.8 -135.55 290.0 -137.85 300.1 -142.05 298.75 -147.45 298.1 -152.85 L297.25 -160.45 Q296.05 -168.05 289.85 -177.85 M242.25 12.95 Q216.75 -12.6 192.7 -24.45 170.85 -3.65 159.05 13.35 140.05 40.8 151.8 52.25 157.25 51.25 162.75 42.15 L173.05 22.1 Q180.1 8.25 186.8 0.45 196.2 -10.45 208.05 -14.25 L182.9 19.4 Q169.2 39.25 162.05 57.35 176.75 54.95 195.25 56.25 L227.15 60.0 Q246.25 62.5 257.15 62.35 272.9 62.2 284.75 57.35 276.9 49.7 263.4 35.2 248.8 19.45 242.25 12.95 M300.1 72.7 Q281.3 72.95 263.05 71.8 L232.8 69.35 Q195.25 66.05 162.05 67.55 158.1 78.4 155.9 93.65 152.9 113.85 151.8 118.7 L279.65 118.7 Q278.8 108.65 280.2 102.45 281.35 97.3 284.65 92.95 286.6 90.35 291.7 84.85 296.6 79.15 300.1 72.7 M284.75 118.7 Q296.45 119.3 302.55 118.6 311.35 117.55 315.4 113.6 315.8 89.7 300.1 82.9 292.3 91.35 289.05 101.2 287.15 106.95 284.75 118.7 M315.4 113.6 Q313.2 142.45 346.1 139.15 351.85 133.25 353.35 125.95 354.85 118.75 351.7 112.85 348.4 106.6 340.9 104.0 332.5 101.05 320.55 103.35 320.0 105.35 319.4 109.9 318.5 113.5 315.4 113.6 M190.8 123.2 L124.45 124.35 Q86.05 124.85 59.8 123.8 100.9 137.0 184.4 135.95 226.85 135.4 315.4 128.9 271.75 122.05 190.8 123.2 M388.2 87.1 Q388.3 89.55 386.5 95.7 L386.3 97.95 Q384.8 90.7 381.9 82.9 388.05 82.95 388.2 87.1 M-298.25 -310.2 Q-309.55 -303.4 -316.7 -289.75 -322.8 -278.15 -324.55 -264.45 -326.2 -252.0 -323.65 -244.3 -317.3 -249.65 -311.0 -260.25 L-300.15 -280.2 Q-293.35 -292.65 -287.0 -300.1 -278.4 -310.25 -267.4 -315.85 -284.95 -318.25 -298.25 -310.2 M-285.95 -290.4 Q-299.25 -282.1 -301.75 -271.3 -304.45 -259.55 -292.95 -249.4 -294.0 -247.05 -297.35 -246.15 L-304.05 -245.2 Q-308.4 -244.75 -310.35 -243.8 -313.15 -242.4 -313.4 -239.2 -306.9 -240.5 -303.35 -237.75 -300.85 -235.85 -298.8 -230.75 -296.3 -224.4 -295.2 -222.85 -292.55 -219.05 -287.85 -218.75 -286.7 -223.6 -287.1 -230.35 L-288.15 -241.55 Q-289.15 -254.5 -282.75 -259.65 -279.15 -259.15 -274.45 -257.75 L-266.55 -255.35 Q-256.9 -252.75 -246.95 -254.5 -241.55 -263.5 -226.2 -279.75 -211.65 -295.2 -206.05 -305.65 -220.05 -310.6 -231.9 -313.0 -246.85 -316.0 -262.3 -315.85 -262.0 -308.65 -255.95 -305.6 -251.65 -303.4 -242.25 -302.7 L-227.05 -301.25 Q-219.1 -299.75 -216.25 -295.4 -234.65 -302.45 -254.5 -300.5 -272.55 -298.75 -285.95 -290.4 M-261.6 -216.85 Q-259.6 -214.65 -262.3 -208.5 -254.7 -209.75 -253.25 -208.5 -252.25 -207.6 -254.15 -204.8 -256.45 -201.4 -256.55 -200.45 -256.75 -198.3 -252.05 -198.3 -246.05 -198.8 -244.45 -201.1 -243.35 -202.75 -244.25 -205.95 -245.45 -210.05 -245.45 -210.8 -245.3 -213.1 -241.85 -213.6 -252.15 -224.65 -277.6 -223.85 -278.25 -219.85 -274.95 -218.85 L-267.75 -218.4 Q-263.0 -218.4 -261.6 -216.85 M-265.75 -59.45 Q-260.95 -84.25 -267.4 -101.15 -270.8 -78.85 -282.05 -50.3 L-302.7 -2.2 Q-314.6 25.4 -318.5 42.4 -323.75 65.5 -318.5 82.9 -314.7 65.95 -302.65 37.7 -288.05 5.05 -281.25 -11.45 -269.5 -40.1 -265.75 -59.45 M-345.8 86.3 Q-349.7 89.45 -354.3 98.25 -351.25 98.2 -346.45 99.75 -343.65 100.65 -338.0 102.85 -327.65 106.5 -323.65 103.35 -327.2 102.85 -327.2 100.5 -327.2 99.35 -325.5 95.15 -323.9 91.15 -324.15 88.75 -324.55 85.2 -328.75 82.9 -339.5 81.3 -345.8 86.3 M-15.55 27.6 L5.5 28.6 Q31.6 27.95 34.25 11.35 26.05 4.55 1.2 5.15 -22.55 5.7 -32.2 11.35 L-32.2 26.65 -15.55 27.6 M-7.75 87.55 Q1.8 97.2 8.75 101.4 28.95 113.6 39.35 88.0 L30.85 87.55 20.9 88.6 Q9.05 89.5 8.7 82.9 5.85 73.85 9.95 69.7 13.3 66.35 22.1 65.5 L39.0 64.85 Q49.45 64.5 54.7 62.45 28.85 54.7 11.95 55.45 -11.05 56.5 -22.0 72.7 -17.9 76.75 -7.75 87.55 M-34.85 104.55 L-38.45 109.9 Q-42.9 116.6 -42.45 123.8 -35.35 125.85 -29.95 122.55 -25.15 119.65 -23.4 113.9 -21.65 108.35 -23.8 103.85 -26.2 98.9 -32.2 98.25 -32.9 101.35 -34.85 104.55 M90.9 82.5 Q94.3 92.6 96.45 97.4 103.75 113.9 116.05 118.7 124.8 111.85 125.9 96.4 126.85 82.05 121.15 62.45 121.1 65.2 116.5 64.9 L105.8 63.15 Q98.15 61.8 93.85 62.3 87.7 63.05 85.35 67.55 87.4 72.25 90.9 82.5 M130.65 86.1 Q129.35 92.05 129.9 101.5 130.2 107.05 131.35 118.7 139.85 118.95 143.8 113.25 146.9 108.75 147.8 99.3 L148.65 82.3 Q149.35 72.4 151.8 67.55 133.9 70.55 130.65 86.1 M26.65 82.6 Q37.25 83.95 49.6 77.8 46.55 76.6 41.9 73.95 L34.4 69.95 Q25.1 65.7 13.8 67.55 13.75 80.95 26.65 82.6 M40.45 119.05 Q30.6 112.45 19.85 113.05 7.8 113.75 -1.55 123.8 -3.55 131.0 -2.35 136.1 -1.5 139.75 1.55 143.7 5.9 149.25 6.5 150.3 8.85 154.45 8.7 159.6 16.2 160.4 19.1 158.45 21.3 156.95 21.3 153.45 20.85 149.35 21.0 147.65 21.2 144.75 24.0 144.25 27.1 150.0 28.7 159.45 29.65 165.0 31.05 177.25 34.2 201.55 44.45 215.8 40.5 199.3 37.2 172.35 34.2 147.55 29.15 128.9 23.1 128.0 19.65 132.2 L16.95 135.9 Q15.35 138.15 13.8 139.15 12.65 128.35 15.85 123.3 19.55 117.6 29.15 118.7 34.05 124.1 36.35 133.35 37.65 138.55 38.95 148.05 40.25 155.3 43.0 157.0 46.6 159.15 54.7 154.45 54.95 156.6 52.0 159.85 L46.55 165.35 Q43.65 168.55 43.9 170.55 44.2 173.2 49.6 174.9 56.9 161.5 64.2 155.0 75.4 145.05 80.25 159.6 56.15 166.2 44.45 190.25 53.6 190.4 61.6 184.4 L68.0 179.25 Q71.8 176.3 75.15 174.9 75.35 178.95 72.1 187.7 71.2 190.05 71.6 189.8 L75.15 185.15 Q77.2 184.25 77.65 178.3 77.9 170.8 78.2 167.35 78.75 161.25 81.05 160.15 83.95 158.7 90.45 164.7 86.4 164.75 86.1 169.35 85.8 174.0 90.45 174.9 90.05 167.7 94.45 161.0 L98.05 155.65 Q100.0 152.5 100.7 149.35 97.1 146.3 89.85 144.7 82.75 143.15 75.25 143.6 67.25 144.05 61.85 146.6 57.2 148.85 55.5 152.3 58.0 144.1 54.05 135.05 49.85 125.3 40.45 119.05 M105.8 149.35 Q110.75 156.7 99.7 172.65 93.2 182.1 80.25 195.35 88.0 196.3 95.45 195.2 99.6 194.6 108.0 192.4 123.9 188.2 136.5 190.25 132.9 179.7 130.45 164.1 128.1 149.1 126.25 144.25 117.7 144.2 113.75 144.5 106.8 145.05 105.8 149.35 M141.6 185.15 Q145.45 184.75 154.1 184.85 161.05 184.35 162.05 180.05 157.15 175.05 154.85 164.25 L151.8 144.25 Q143.25 144.2 139.3 144.5 132.35 145.05 131.35 149.35 132.2 152.6 136.5 162.55 140.6 173.55 141.6 185.15 M8.7 261.85 L34.25 261.85 Q36.85 260.65 37.75 256.4 L38.8 248.5 Q39.45 243.85 41.35 242.1 43.95 239.85 49.6 241.4 54.9 242.25 53.9 248.0 53.1 252.65 49.6 256.7 66.95 258.0 73.6 255.15 83.4 250.9 80.25 236.25 63.95 234.2 43.2 237.6 L26.7 240.25 8.7 241.4 8.7 261.85" fill="#373535" fill-rule="evenodd" stroke="none"/>
    <path d="M-375.35 53.1 Q-367.7 62.75 -363.2 66.7 -355.65 73.4 -349.2 72.7 -354.4 77.2 -359.8 74.75 -363.8 72.9 -369.5 66.1 -375.85 57.95 -379.25 54.35 -385.05 48.15 -390.1 47.1 -388.65 40.3 -384.65 42.85 -382.15 44.45 -375.35 53.1" fill="#373535" fill-rule="evenodd" stroke="none"/>
    <path d="M-374.75 -70.45 Q-414.05 -62.6 -443.45 -41.8 -470.75 -22.45 -487.4 6.55 -503.2 33.9 -507.85 66.8 -512.4 98.7 -505.9 131.3 -499.4 164.0 -482.8 192.3 -465.5 221.65 -439.65 242.1 -412.1 263.8 -377.7 272.95 -340.55 282.8 -298.05 277.15 -247.5 270.45 -213.0 238.5 -178.75 206.75 -165.15 154.45 -163.45 178.9 -177.2 203.6 -190.15 226.9 -214.35 246.2 -238.3 265.3 -267.85 276.2 -298.55 287.5 -328.75 287.4 -365.85 287.3 -398.4 274.2 -428.8 261.9 -453.2 239.2 -476.3 217.65 -491.7 188.85 -506.7 160.85 -512.55 129.5 -518.4 98.05 -514.2 67.55 -509.9 35.95 -495.35 9.3 -479.9 -18.9 -454.45 -38.8 -427.15 -60.15 -390.1 -70.45 L-374.75 -70.45" fill="#373535" fill-rule="evenodd" stroke="none"/>
    <path d="M-348.8 -11.8 Q-343.35 23.6 -349.2 36.9 -349.1 32.85 -351.15 19.75 L-355.1 -6.05 Q-359.85 -41.85 -354.3 -55.15 -354.95 -50.25 -353.0 -37.4 L-348.8 -11.8" fill="#373535" fill-rule="evenodd" stroke="none"/>
    <path d="M-202.05 -22.05 Q-175.55 4.35 -170.25 36.9 -186.35 5.75 -203.75 -13.95 -224.95 -37.9 -252.05 -50.0 -240.15 -48.45 -226.95 -41.1 -213.7 -33.7 -202.05 -22.05" fill="#373535" fill-rule="evenodd" stroke="none"/>
    <path d="M416.0 -35.55 Q396.55 -46.95 381.9 -50.0 389.85 -51.75 403.4 -46.95 416.3 -42.45 431.0 -33.25 445.85 -23.95 458.35 -12.55 471.65 -0.35 479.0 11.35 487.05 24.1 486.8 27.35 486.6 30.35 480.25 24.45 473.7 18.45 465.4 7.35 455.85 -5.45 448.35 -19.35 440.4 -21.95 431.4 -26.7 L416.0 -35.55" fill="#373535" fill-rule="evenodd" stroke="none"/>
    <path d="M488.55 2.2 Q459.95 -38.0 427.9 -50.0 457.25 -45.8 485.7 -11.95 510.95 18.05 525.05 57.35 519.65 51.05 508.75 33.45 495.3 11.75 488.55 2.2" fill="#373535" fill-rule="evenodd" stroke="none"/>
    <path d="M-157.6 105.05 Q-156.8 84.9 -157.65 74.0 -159.1 55.85 -165.15 42.0 -152.55 55.55 -151.85 96.3 -151.65 106.95 -151.85 126.85 -151.75 142.8 -149.8 149.35 -156.0 143.75 -157.45 131.4 -158.3 123.95 -157.6 105.05" fill="#373535" fill-rule="evenodd" stroke="none"/>
    <path d="M514.8 77.8 Q511.65 83.55 511.65 92.85 511.65 98.95 513.4 111.45 515.4 126.05 515.85 132.4 516.65 144.7 514.8 154.45 510.75 158.75 507.1 157.5 505.8 157.05 506.35 156.15 507.0 155.15 509.7 154.45 511.45 116.9 506.65 90.0 504.95 80.55 501.2 65.3 496.0 44.25 494.35 36.9 497.45 40.45 499.7 46.9 L503.1 58.85 Q507.3 73.95 514.8 77.8" fill="#373535" fill-rule="evenodd" stroke="none"/>
    <path d="M-379.0 119.55 L-364.55 113.6 Q-388.3 134.15 -415.65 144.25 -408.4 133.85 -393.05 125.95 -387.55 123.1 -379.0 119.55" fill="#373535" fill-rule="evenodd" stroke="none"/>
    <path d="M-456.55 169.8 Q-462.9 163.25 -446.9 155.1 -438.2 150.7 -420.75 144.25 -422.35 149.55 -427.3 153.0 -430.7 155.4 -437.65 158.0 -445.9 161.15 -448.5 162.5 -454.1 165.55 -456.55 169.8" fill="#373535" fill-rule="evenodd" stroke="none"/>
    <path d="M-32.2 144.25 Q-28.35 147.35 -18.55 153.6 -9.55 159.35 -5.15 163.2 9.1 175.65 8.7 195.35 -3.75 202.25 -18.95 184.55 -23.75 178.95 -28.35 171.5 L-32.2 164.7 -36.5 157.75 -29.0 167.05 Q-10.4 188.55 3.55 190.25 3.2 181.45 -2.0 175.35 -5.35 171.45 -13.5 166.4 -22.3 160.9 -25.4 157.85 -31.1 152.2 -32.2 144.25" fill="#373535" fill-rule="evenodd" stroke="none"/>
    <path d="M-272.25 167.0 Q-279.35 161.5 -287.85 159.6 -285.15 152.55 -283.45 151.25 -282.1 150.2 -280.15 152.4 L-275.6 157.15 Q-272.0 159.9 -267.4 159.6 -265.3 168.8 -241.6 193.7 L-230.8 204.95 Q-228.85 207.1 -236.7 200.5 -243.5 197.3 -249.95 190.75 L-260.7 178.45 Q-267.2 170.85 -272.25 167.0" fill="#373535" fill-rule="evenodd" stroke="none"/>
    <path d="M509.7 169.8 Q499.55 202.75 480.2 228.75 460.2 255.6 432.2 272.45 370.55 309.6 284.75 292.5 364.1 300.45 423.55 268.65 452.45 253.2 473.0 229.65 493.95 205.6 504.6 174.9 503.6 168.6 506.5 166.95 L508.55 167.05 Q509.6 167.9 509.7 169.8" fill="#373535" fill-rule="evenodd" stroke="none"/>
    <path d="M366.55 215.8 Q374.6 228.25 378.35 243.35 380.35 251.4 381.9 261.85 384.15 271.75 382.15 268.7 380.35 266.0 376.1 254.6 365.5 225.9 361.45 205.6 364.55 205.7 365.45 209.3 L366.55 215.8" fill="#373535" fill-rule="evenodd" stroke="none"/>
  </g>
</svg>
