<?xml version="1.0" encoding="UTF-8" standalone="no"?>
<svg xmlns:xlink="http://www.w3.org/1999/xlink" height="709.05px" width="493.25px" xmlns="http://www.w3.org/2000/svg">
  <g transform="matrix(1, 0, 0, 1, 246.6, 354.5)">
    <path d="M203.5 -276.0 L203.2 -276.0 Q197.1 -275.0 188.6 -272.7 L180.8 -270.75 174.9 -270.0 161.0 -268.3 157.25 -267.95 138.3 -265.9 Q135.3 -265.5 132.8 -264.45 L132.65 -264.35 119.5 -262.0 108.55 -259.8 106.9 -259.8 Q101.7 -259.7 94.25 -257.7 L89.15 -256.2 83.2 -255.2 60.6 -255.0 Q55.9 -253.85 19.35 -247.7 L-19.6 -241.15 -26.45 -240.5 Q-44.65 -238.6 -49.85 -235.9 L-60.65 -234.1 -76.8 -232.7 Q-79.85 -232.35 -83.95 -231.05 L-87.75 -229.9 -89.6 -229.65 -99.95 -228.15 -109.45 -227.3 Q-118.65 -226.3 -123.65 -225.1 L-139.2 -224.0 Q-150.35 -224.0 -157.75 -227.15 -168.15 -231.6 -175.6 -233.0 L-179.0 -233.7 -183.4 -236.1 Q-187.75 -238.5 -193.6 -241.2 -194.4 -243.25 -194.4 -246.4 -194.4 -253.5 -190.85 -258.1 -183.2 -258.8 -178.55 -260.4 -177.0 -260.95 -169.5 -264.8 -166.9 -266.15 -164.4 -266.7 L-152.9 -269.0 -152.2 -269.15 -144.6 -269.2 -140.45 -271.9 -141.0 -272.7 Q-141.6 -273.8 -141.6 -274.8 L-141.3 -276.65 Q-140.55 -278.9 -137.6 -278.7 -136.35 -278.6 -135.5 -278.15 -133.95 -277.45 -133.65 -275.65 -121.05 -282.0 -102.35 -287.3 -67.3 -296.05 -47.4 -301.6 L-40.85 -303.5 -33.4 -305.4 Q-21.7 -308.5 -12.9 -311.5 -7.2 -313.4 13.8 -318.6 20.3 -320.4 24.45 -322.0 L27.0 -321.6 Q30.3 -321.6 40.55 -325.05 49.95 -328.25 52.1 -329.6 L53.6 -330.5 Q57.7 -331.6 62.75 -333.25 L67.9 -333.8 77.05 -335.05 Q80.05 -335.9 81.3 -338.2 89.95 -339.0 93.85 -340.95 96.5 -342.25 97.05 -344.15 103.85 -344.3 114.85 -339.7 L126.3 -334.6 Q133.15 -331.55 137.4 -330.2 156.15 -321.0 174.3 -310.9 210.4 -290.75 210.4 -284.4 210.4 -279.3 203.5 -276.0" fill="#ffffcc" fill-rule="evenodd" stroke="none"/>
    <path d="M180.8 -270.75 L188.6 -272.7 Q197.1 -275.0 203.2 -276.0 L203.5 -276.0 213.7 -276.1 Q218.7 -278.75 223.8 -278.0 229.45 -277.2 230.0 -272.3 230.0 -270.4 230.6 -265.9 231.2 -261.4 231.2 -259.1 231.2 -254.3 232.0 -245.8 232.8 -237.2 232.8 -233.0 232.8 -231.35 231.2 -224.7 L230.6 -221.95 230.8 -219.7 231.0 -211.5 231.2 -205.9 230.95 -202.25 231.2 -200.0 Q231.2 -198.75 230.6 -197.65 L230.4 -194.8 233.4 -180.55 Q236.4 -166.75 236.4 -161.35 L237.0 -156.85 Q237.6 -153.25 237.6 -149.95 237.6 -145.25 235.8 -138.9 234.0 -133.3 234.0 -132.7 234.0 -130.75 235.6 -128.75 237.2 -126.75 237.2 -123.55 236.0 -115.15 236.0 -113.95 L236.8 -106.15 Q235.7 -98.7 235.7 -97.6 235.7 -95.7 237.45 -88.5 239.2 -81.25 239.2 -79.9 L239.6 -62.65 Q239.6 -59.4 238.6 -57.1 237.8 -55.25 236.4 -54.15 L236.4 -28.7 Q236.0 -27.5 236.0 -26.0 236.0 -22.4 236.95 -15.05 L238.0 -4.1 Q238.1 -0.85 238.9 6.75 239.6 13.6 239.6 17.35 239.6 19.7 239.2 20.8 238.7 22.25 237.45 22.85 L237.9 26.8 238.0 31.7 Q238.25 38.0 238.0 50.45 238.0 55.05 238.55 61.3 L239.2 72.8 239.6 95.0 239.2 111.7 238.8 127.55 239.6 146.9 239.6 149.7 239.6 149.8 Q239.6 157.4 240.0 161.8 L241.35 174.0 242.8 186.1 242.8 204.7 Q243.2 208.0 243.2 214.9 243.2 222.65 242.0 230.0 240.8 237.3 240.8 249.4 L241.6 268.3 241.6 275.5 Q240.85 281.2 237.0 281.2 L235.7 281.05 Q233.65 282.0 230.2 282.0 L228.45 281.95 224.7 282.55 Q206.5 285.1 204.3 285.8 200.3 287.05 191.45 288.6 L181.5 290.2 174.65 291.85 Q168.9 293.2 167.4 293.2 165.7 293.2 164.7 292.35 161.25 293.55 155.55 294.55 138.1 297.0 132.1 298.4 L114.25 302.65 Q103.2 305.0 94.6 305.0 93.1 305.0 82.95 308.0 L71.6 311.2 56.7 313.95 40.0 317.2 12.15 322.05 Q-5.1 324.9 -13.8 327.1 -18.75 328.35 -24.65 330.35 -30.8 332.05 -43.4 333.5 L-60.75 336.3 Q-69.0 337.7 -84.2 338.3 -85.3 338.35 -104.25 344.35 -127.15 350.4 -148.2 350.4 L-149.55 350.3 -153.8 350.8 -158.9 350.2 -164.1 349.6 -165.75 350.2 Q-167.4 350.8 -168.2 350.8 -170.4 350.8 -174.15 348.6 -177.9 346.4 -178.1 346.4 L-181.6 347.6 Q-183.65 347.6 -186.5 346.0 L-191.6 343.2 Q-193.15 342.55 -197.35 342.05 L-202.5 341.2 -210.25 338.15 Q-214.7 336.15 -218.3 333.7 L-226.9 328.9 Q-232.2 325.85 -232.7 323.8 L-233.9 318.7 Q-234.4 316.35 -234.4 314.05 -234.4 304.5 -230.65 302.1 -231.85 298.05 -232.9 291.05 L-234.8 274.35 Q-234.8 269.3 -234.2 260.85 L-233.6 249.75 -234.4 234.6 -234.25 232.7 -234.9 231.5 -235.2 228.95 -234.4 219.95 Q-234.4 217.5 -235.2 213.05 L-236.0 206.3 -236.0 173.0 Q-236.95 169.35 -237.15 162.7 L-237.2 151.85 Q-237.75 144.9 -237.5 139.15 -237.25 134.3 -236.35 132.05 L-236.4 131.25 Q-236.4 129.6 -235.4 126.7 -234.4 123.8 -234.4 120.3 -235.2 112.8 -235.2 108.9 L-235.0 102.4 -234.8 97.8 Q-234.8 93.25 -235.6 86.8 -236.4 80.4 -236.4 73.95 L-236.25 68.5 Q-237.95 66.2 -238.5 60.5 L-238.8 46.2 Q-238.85 41.5 -239.25 31.65 L-239.6 22.2 -239.35 17.95 -238.8 11.7 -238.8 -17.1 -238.35 -17.7 -237.6 -31.6 Q-237.6 -36.45 -239.2 -43.45 L-240.8 -50.05 Q-240.8 -52.65 -239.4 -56.85 -238.0 -61.05 -238.0 -62.5 -238.0 -65.65 -239.6 -67.8 -241.2 -70.0 -241.2 -74.95 -241.2 -78.3 -240.0 -81.25 -238.8 -84.25 -238.8 -85.0 -238.8 -85.9 -239.6 -88.3 L-239.75 -88.85 -240.2 -89.5 Q-240.8 -90.55 -240.8 -91.6 -240.8 -93.0 -240.3 -93.9 L-239.7 -97.4 Q-241.3 -99.5 -241.6 -103.9 -241.9 -108.35 -241.2 -115.5 -241.25 -119.0 -242.25 -125.65 -243.2 -132.05 -243.2 -135.6 -243.2 -137.8 -242.0 -150.15 L-242.6 -156.35 -243.2 -163.65 -242.9 -169.7 -242.5 -175.3 Q-242.8 -176.2 -242.8 -178.15 -242.8 -181.9 -241.6 -199.45 -241.6 -201.8 -242.6 -206.75 -243.6 -211.75 -243.6 -217.75 L-243.5 -226.0 -242.1 -238.0 -241.2 -248.2 Q-239.4 -251.95 -237.2 -252.4 L-236.85 -252.75 Q-235.3 -254.1 -231.5 -254.9 -229.35 -255.35 -227.1 -257.6 L-226.2 -258.35 Q-228.8 -260.15 -228.8 -261.35 -228.8 -262.95 -228.2 -263.8 -227.35 -265.05 -224.8 -265.6 L-213.0 -265.7 Q-202.1 -270.0 -200.6 -270.0 -198.8 -270.0 -197.6 -269.0 L-196.3 -268.0 Q-195.35 -268.0 -186.3 -272.05 -176.35 -276.45 -169.9 -277.7 -164.25 -278.8 -155.95 -281.5 -146.8 -284.5 -140.7 -285.9 -122.8 -289.95 -109.05 -293.9 L-81.1 -301.8 -52.95 -309.1 -25.6 -316.4 Q-7.4 -322.8 6.05 -326.6 22.4 -331.2 28.45 -330.25 36.35 -331.9 38.2 -332.7 L47.2 -336.65 Q53.65 -339.45 57.7 -340.5 L68.4 -343.75 Q74.25 -345.55 78.5 -346.1 82.9 -346.6 91.15 -349.25 97.2 -350.45 97.2 -345.2 L97.05 -344.15 Q96.5 -342.25 93.85 -340.95 89.95 -339.0 81.3 -338.2 80.05 -335.9 77.05 -335.05 L67.9 -333.8 62.75 -333.25 58.05 -332.45 Q56.2 -332.0 53.6 -330.5 L52.1 -329.6 Q49.95 -328.25 40.55 -325.05 30.3 -321.6 27.0 -321.6 L24.45 -322.0 Q20.3 -320.4 13.8 -318.6 -7.2 -313.4 -12.9 -311.5 -21.7 -308.5 -33.4 -305.4 L-40.85 -303.5 -55.3 -299.9 -78.85 -294.25 Q-93.65 -290.6 -102.1 -287.9 -118.2 -282.75 -135.5 -278.15 -136.35 -278.6 -137.6 -278.7 -140.55 -278.9 -141.3 -276.65 L-148.0 -275.0 Q-148.15 -272.2 -148.4 -271.7 -149.2 -269.95 -152.2 -269.15 L-152.9 -269.0 -164.4 -266.7 Q-166.9 -266.15 -169.5 -264.8 -177.0 -260.95 -178.55 -260.4 -183.2 -258.8 -190.85 -258.1 L-194.9 -257.8 Q-195.5 -256.5 -196.45 -256.1 -197.5 -255.6 -200.0 -255.6 -203.35 -255.6 -205.05 -257.0 -206.15 -257.95 -206.4 -259.3 -207.25 -259.1 -208.65 -256.35 -209.85 -254.0 -214.0 -254.0 -216.5 -254.0 -219.2 -254.9 -219.35 -254.05 -220.0 -252.9 -214.75 -250.2 -202.1 -244.9 L-193.6 -241.2 Q-187.75 -238.5 -183.4 -236.1 L-179.0 -233.7 Q-155.45 -221.1 -145.4 -221.1 -144.95 -221.1 -143.3 -222.0 -141.45 -222.95 -140.0 -223.2 L-128.7 -223.4 Q-127.25 -224.3 -123.65 -225.1 -118.65 -226.3 -109.45 -227.3 L-99.95 -228.15 -91.9 -229.0 -87.75 -229.9 -83.95 -231.05 Q-79.85 -232.35 -76.8 -232.7 L-60.65 -234.1 -51.2 -235.0 -49.85 -235.9 Q-44.65 -238.6 -26.45 -240.5 L-19.6 -241.15 9.0 -243.4 Q10.2 -246.35 21.4 -247.4 L49.0 -249.4 Q51.5 -252.15 62.0 -253.55 L73.6 -254.8 83.7 -254.9 89.15 -256.2 94.25 -257.7 Q101.7 -259.7 106.9 -259.8 L108.55 -259.8 Q122.4 -260.2 128.5 -262.5 L132.65 -264.35 132.8 -264.45 Q135.3 -265.5 138.3 -265.9 L157.25 -267.95 161.0 -268.3 177.7 -270.2 180.8 -270.75 M-208.25 269.95 L-221.8 265.4 Q-228.1 263.3 -230.5 264.5 -233.6 266.1 -233.6 273.7 L-233.2 276.95 Q-232.6 280.35 -231.35 282.95 -227.4 291.05 -218.8 288.2 -214.8 293.4 -200.55 298.1 -187.4 302.4 -178.8 302.4 -159.0 302.4 -153.6 299.25 -151.3 297.9 -150.7 295.55 -150.4 294.35 -150.4 290.8 -150.4 285.35 -151.25 283.1 -152.35 280.05 -156.0 278.3 -161.9 275.45 -190.6 271.8 -198.85 272.5 -208.25 269.95 M-184.6 -49.65 Q-194.9 -50.7 -202.0 -52.2 -210.2 -52.8 -226.35 -58.15 -232.25 -59.5 -235.0 -58.25 -238.4 -56.8 -238.4 -51.2 -238.4 -49.8 -233.6 -46.45 -228.05 -42.65 -220.0 -39.2 -197.55 -29.6 -171.6 -29.6 -161.0 -29.6 -157.6 -32.8 -156.0 -34.35 -156.0 -37.6 -156.0 -42.4 -159.8 -44.9 -162.95 -47.0 -169.9 -48.05 L-184.6 -49.65 M-227.95 -163.0 Q-241.6 -168.0 -241.6 -156.5 -241.6 -152.8 -234.35 -148.0 -227.5 -143.45 -216.2 -139.2 -190.4 -129.6 -168.0 -129.6 -162.95 -129.6 -160.4 -132.4 -158.4 -134.65 -158.4 -137.8 -158.4 -143.05 -161.7 -145.0 -164.2 -146.45 -171.2 -146.95 L-186.25 -148.3 Q-196.65 -149.8 -206.2 -153.6 -209.15 -154.3 -216.3 -157.75 -224.7 -161.8 -227.95 -163.0" fill="#990000" fill-rule="evenodd" stroke="none"/>
    <path d="M-227.95 -163.0 Q-224.7 -161.8 -216.3 -157.75 -209.15 -154.3 -206.2 -153.6 -196.65 -149.8 -186.25 -148.3 L-171.2 -146.95 Q-164.2 -146.45 -161.7 -145.0 -158.4 -143.05 -158.4 -137.8 -158.4 -134.65 -160.4 -132.4 -162.95 -129.6 -168.0 -129.6 -190.4 -129.6 -216.2 -139.2 -227.5 -143.45 -234.35 -148.0 -241.6 -152.8 -241.6 -156.5 -241.6 -168.0 -227.95 -163.0 M-184.6 -49.65 L-169.9 -48.05 Q-162.95 -47.0 -159.8 -44.9 -156.0 -42.4 -156.0 -37.6 -156.0 -34.35 -157.6 -32.8 -161.0 -29.6 -171.6 -29.6 -197.55 -29.6 -220.0 -39.2 -228.05 -42.65 -233.6 -46.45 -238.4 -49.8 -238.4 -51.2 -238.4 -56.8 -235.0 -58.25 -232.25 -59.5 -226.35 -58.15 -210.2 -52.8 -202.0 -52.2 -194.9 -50.7 -184.6 -49.65 M-208.25 269.95 Q-198.85 272.5 -190.6 271.8 -161.9 275.45 -156.0 278.3 -152.35 280.05 -151.25 283.1 -150.4 285.35 -150.4 290.8 -150.4 294.35 -150.7 295.55 -151.3 297.9 -153.6 299.25 -159.0 302.4 -178.8 302.4 -187.4 302.4 -200.55 298.1 -214.8 293.4 -218.8 288.2 -227.4 291.05 -231.35 282.95 -232.6 280.35 -233.2 276.95 L-233.6 273.7 Q-233.6 266.1 -230.5 264.5 -228.1 263.3 -221.8 265.4 L-208.25 269.95" fill="#993300" fill-rule="evenodd" stroke="none"/>
    <path d="M235.05 -122.3 Q240.5 -120.05 239.6 -107.1 238.7 -94.95 235.05 -91.35 231.6 -97.1 232.2 -106.65 232.6 -112.75 235.05 -122.3" fill="#373535" fill-rule="evenodd" stroke="none"/>
    <path d="M233.25 -25.45 Q231.85 -44.05 231.8 -52.6 231.55 -80.25 242.8 -91.35 239.65 -19.95 242.25 102.55 243.65 169.25 246.65 280.15 209.8 285.3 156.6 296.5 135.1 301.05 59.45 318.1 -2.05 331.95 -38.95 339.1 -92.35 349.45 -132.6 353.7 -161.0 356.7 -187.55 349.3 -205.5 344.3 -233.2 330.45 -238.25 228.4 -239.85 132.8 -240.85 71.05 -240.95 -48.8 -235.85 -46.75 -222.4 -40.65 -209.25 -34.9 -199.7 -32.2 -171.0 -24.1 -155.8 -37.15 -153.6 -32.6 -153.4 -24.1 -153.2 -14.7 -155.8 -6.2 -159.25 -15.9 -169.9 -21.15 -177.6 -24.95 -192.5 -27.55 L-217.1 -32.0 Q-230.4 -35.2 -237.05 -41.05 -235.3 17.45 -234.4 91.4 -233.65 151.45 -233.2 249.2 -221.35 262.7 -201.15 269.45 -182.35 275.7 -155.8 276.3 -152.75 271.85 -153.5 252.2 -154.3 230.15 -151.95 222.1 -148.1 239.8 -148.0 279.95 L-148.05 349.8 44.35 313.9 Q158.5 292.75 238.95 280.15 239.35 215.0 238.2 141.9 237.25 81.5 235.05 5.4 234.75 -5.1 233.25 -25.45 M-155.8 280.15 Q-175.65 283.8 -201.0 274.1 -213.3 269.1 -218.65 267.25 -227.65 264.1 -233.2 264.7 -229.85 265.0 -229.75 266.25 -229.7 267.0 -231.45 269.45 -235.9 275.65 -233.2 280.15 -215.65 291.85 -195.75 297.8 -170.5 305.3 -151.95 299.5 -150.25 293.7 -153.25 289.25 -155.0 286.7 -155.4 285.6 -156.3 283.25 -155.8 280.15 M-230.8 305.75 Q-234.1 313.1 -233.2 318.85 -220.3 332.05 -200.0 339.85 -181.4 346.95 -155.8 349.8 -151.9 340.1 -152.7 330.05 -154.75 316.95 -155.8 307.25 -175.95 309.4 -196.0 302.95 -217.3 294.6 -229.35 291.75 -227.7 298.8 -230.8 305.75" fill="#373535" fill-rule="evenodd" stroke="none"/>
    <path d="M135.1 -314.2 Q125.55 -313.05 108.15 -308.35 89.35 -303.3 83.65 -302.35 72.2 -300.5 68.65 -304.2 L104.05 -311.35 Q125.0 -315.65 138.3 -319.7 136.5 -327.85 128.95 -331.6 122.55 -334.8 111.2 -335.15 123.3 -333.05 116.25 -328.5 110.05 -324.55 92.55 -320.35 75.5 -316.3 59.75 -314.8 42.85 -313.15 37.9 -315.7 44.4 -312.15 42.5 -309.25 40.75 -306.65 33.4 -305.35 L18.75 -304.75 Q11.9 -305.35 8.15 -307.2 12.0 -304.3 3.25 -299.8 -6.05 -295.0 -23.6 -291.25 -42.05 -287.35 -57.55 -287.25 -75.45 -287.2 -82.3 -292.6 -82.0 -288.75 -75.2 -288.05 L-70.15 -287.3 Q-67.55 -286.6 -66.8 -284.85 -70.3 -280.15 -74.1 -280.2 -76.85 -280.25 -81.15 -283.1 L-88.7 -287.85 Q-93.4 -290.0 -97.75 -288.7 -97.45 -284.85 -90.7 -284.15 L-85.6 -283.45 Q-83.05 -282.75 -82.3 -281.0 -85.8 -276.3 -89.6 -276.35 -92.3 -276.35 -96.65 -279.25 L-104.2 -284.0 Q-108.9 -286.15 -113.25 -284.85 -112.95 -281.05 -106.15 -280.3 -98.85 -279.55 -97.75 -277.1 -103.9 -276.2 -109.75 -274.1 -116.55 -271.7 -117.6 -271.45 -125.1 -269.8 -140.3 -277.1 -136.9 -272.75 -128.7 -269.35 -139.35 -263.2 -157.45 -259.4 L-190.65 -253.9 Q-182.3 -248.75 -164.35 -253.75 L-149.75 -258.35 Q-141.2 -261.0 -136.45 -261.65 L-127.7 -262.1 Q-124.1 -261.55 -122.75 -260.15 -121.35 -258.75 -123.65 -258.0 L-132.6 -257.75 Q-139.65 -255.1 -162.5 -250.9 -182.1 -247.35 -190.65 -242.3 -189.4 -239.05 -186.55 -239.0 -184.7 -238.95 -180.25 -240.7 -175.05 -242.7 -172.4 -243.2 -167.55 -244.05 -163.55 -242.3 -163.9 -239.45 -167.85 -238.85 L-175.15 -238.4 Q-170.15 -234.4 -161.7 -232.5 -154.7 -230.95 -144.2 -230.65 -154.6 -233.7 -155.9 -235.55 -157.0 -237.1 -151.65 -238.15 L-138.85 -239.9 Q-129.5 -241.1 -124.85 -242.3 -120.55 -241.15 -120.8 -240.15 -121.0 -239.3 -124.25 -238.7 -131.9 -237.25 -136.45 -238.4 -130.9 -234.6 -120.75 -232.8 L-101.6 -230.65 Q-118.3 -239.85 -91.4 -240.9 -81.35 -241.3 -67.7 -240.45 L-47.45 -238.4 Q-47.05 -243.3 -54.75 -242.7 L-61.3 -241.95 -66.8 -242.3 Q-39.55 -249.55 -2.25 -256.1 L65.4 -266.85 Q109.05 -273.5 132.7 -277.9 169.2 -284.7 196.35 -292.6 174.45 -293.0 146.95 -289.1 127.4 -286.35 95.95 -279.8 L43.85 -269.15 Q14.05 -263.55 -8.75 -261.65 25.1 -271.4 78.5 -280.85 L169.25 -296.45 Q173.7 -299.9 177.0 -308.05 180.0 -307.55 179.45 -305.85 178.9 -304.2 177.0 -304.2 191.2 -299.55 206.4 -290.7 222.15 -281.6 235.05 -277.1 235.4 -250.75 237.3 -199.15 238.35 -153.8 235.05 -122.3 229.45 -159.8 229.7 -207.6 L229.7 -242.6 Q229.35 -261.7 227.3 -277.1 139.95 -262.65 36.7 -247.15 -45.5 -234.8 -155.8 -219.05 -157.3 -185.45 -154.95 -117.8 -153.0 -60.0 -155.8 -37.15 -165.8 -36.25 -180.6 -40.6 -184.35 -41.7 -205.95 -49.4 -220.35 -54.55 -227.45 -55.0 -237.3 -55.6 -240.95 -48.8 -243.7 -61.25 -243.4 -71.7 -243.2 -79.1 -240.95 -91.35 -244.7 -132.2 -246.05 -177.1 -247.6 -229.2 -244.8 -261.65 -203.3 -272.45 -71.15 -308.55 36.65 -338.0 103.5 -354.5 115.9 -339.55 136.8 -328.65 148.8 -322.35 173.15 -311.95 127.7 -297.45 58.0 -283.9 L-62.95 -261.65 Q-40.45 -269.15 -9.3 -275.75 8.35 -279.45 47.65 -286.5 85.15 -293.15 104.5 -297.4 135.25 -304.1 157.65 -311.95 149.6 -315.95 135.1 -314.2 M64.8 -335.15 Q75.7 -336.2 82.7 -338.55 91.2 -341.45 95.75 -346.75 -80.15 -302.65 -226.25 -258.65 -222.1 -259.15 -216.3 -256.4 -212.95 -254.8 -211.9 -254.85 -210.2 -254.85 -210.0 -257.75 -216.35 -262.55 -207.7 -261.05 L-194.5 -257.75 Q-194.85 -268.0 -181.6 -264.05 -176.65 -262.55 -176.55 -262.8 -176.25 -263.4 -182.9 -269.35 -178.75 -272.1 -170.75 -272.25 L-157.75 -271.3 Q-151.3 -270.6 -150.55 -271.35 -149.5 -272.4 -155.8 -277.1 -144.55 -277.3 -126.4 -281.8 -115.8 -284.4 -93.65 -290.75 -73.85 -296.15 -61.95 -297.7 -45.8 -299.85 -35.85 -296.45 -36.9 -298.9 -44.25 -299.65 -51.0 -300.4 -51.3 -304.2 -46.7 -304.8 -29.25 -299.55 -22.7 -297.55 -20.7 -297.5 -17.9 -297.4 -20.35 -300.35 -21.15 -302.1 -23.7 -302.8 L-28.75 -303.5 Q-35.55 -304.2 -35.85 -308.05 -29.65 -308.5 -17.75 -311.05 -14.3 -311.4 -14.6 -310.1 -14.95 -308.5 -20.35 -304.2 -12.2 -304.55 -6.8 -306.15 -0.5 -308.05 2.85 -311.95 L-4.4 -312.4 Q-8.35 -313.0 -8.75 -315.8 -2.55 -315.5 5.8 -317.85 L20.25 -322.6 Q28.75 -325.4 33.75 -325.9 40.65 -326.5 45.45 -323.55 L24.15 -319.7 Q12.65 -316.9 6.75 -311.95 9.9 -313.6 13.35 -312.45 15.1 -311.9 18.8 -309.55 21.7 -307.7 23.05 -307.85 25.0 -308.1 26.1 -311.95 27.4 -316.6 40.0 -320.1 L66.7 -325.55 Q84.6 -328.9 92.4 -331.95 103.85 -336.45 103.5 -342.9 94.85 -337.4 84.15 -334.2 70.05 -330.05 64.8 -335.15 M96.8 -268.3 L40.95 -258.35 Q9.15 -253.0 -16.5 -250.0 25.75 -249.9 94.9 -260.55 162.8 -271.0 211.85 -284.85 167.7 -281.15 96.8 -268.3 M-214.55 -242.45 L-199.15 -232.8 Q-180.15 -221.8 -167.4 -226.8 -174.5 -228.15 -184.05 -232.55 L-200.65 -240.95 Q-210.6 -246.1 -216.15 -248.1 -224.05 -250.9 -229.35 -250.0 -223.5 -248.0 -214.55 -242.45 M-238.8 -191.95 Q-238.95 -181.0 -240.95 -172.6 L-223.7 -163.6 Q-212.3 -157.75 -203.75 -154.65 -178.85 -145.7 -159.65 -153.25 -162.25 -160.0 -162.0 -178.7 -161.65 -202.0 -163.55 -215.2 -184.45 -218.15 -204.2 -228.7 -214.45 -234.15 -237.05 -250.0 -240.6 -237.45 -239.35 -211.6 -238.7 -198.05 -238.8 -191.95 M-178.0 -126.25 Q-183.0 -127.5 -199.9 -130.4 -213.8 -132.8 -221.05 -135.4 -231.7 -139.15 -237.05 -145.55 -239.65 -138.95 -239.65 -132.15 -239.65 -128.55 -238.45 -120.3 -237.35 -112.55 -237.55 -107.5 -237.85 -99.65 -240.95 -91.35 -238.7 -91.95 -237.4 -88.8 -236.2 -86.0 -236.2 -81.65 -236.2 -77.35 -237.4 -74.55 -238.7 -71.4 -240.95 -72.0 -228.4 -58.6 -205.7 -52.2 -180.5 -45.1 -159.65 -52.65 L-161.2 -86.8 Q-161.6 -101.5 -159.65 -118.45 -166.25 -123.3 -178.0 -126.25 M-159.65 -133.9 Q-175.05 -142.05 -201.9 -150.7 -226.2 -158.55 -240.95 -161.0 -239.5 -155.15 -230.6 -148.8 -222.0 -142.6 -209.55 -138.05 -196.5 -133.25 -183.85 -132.0 -169.85 -130.6 -159.65 -133.9" fill="#373535" fill-rule="evenodd" stroke="none"/>
    <path d="M-78.4 -250.0 Q-74.75 -247.05 -89.3 -244.45 -102.25 -242.15 -113.25 -242.3 -107.7 -246.1 -97.55 -247.9 L-78.4 -250.0" fill="#373535" fill-rule="evenodd" stroke="none"/>
    <path d="M-30.65 -283.55 Q-14.85 -286.75 60.9 -300.35 22.05 -289.45 -26.3 -279.2 -63.85 -271.2 -117.1 -261.65 -81.7 -273.25 -30.65 -283.55" fill="#373535" fill-rule="evenodd" stroke="none"/>
    <path d="M-150.05 112.9 Q-149.55 157.1 -151.95 222.1 -157.35 161.15 -157.8 101.2 -158.1 61.2 -155.8 -6.2 -150.65 57.55 -150.05 112.9" fill="#373535" fill-rule="evenodd" stroke="none"/>
    <path d="M-120.95 -253.9 Q-108.15 -256.75 -91.4 -259.0 L-66.8 -261.65 Q-78.8 -256.25 -104.95 -251.4 -133.65 -246.05 -144.2 -242.3 -163.3 -242.15 -149.05 -246.8 -141.35 -249.3 -120.95 -253.9" fill="#373535" fill-rule="evenodd" stroke="none"/>
    <path d="M-30.45 -259.95 L-12.6 -261.65 Q-17.75 -257.35 -33.5 -255.4 -50.05 -253.4 -55.2 -250.0 -67.3 -250.4 -65.3 -252.3 -63.6 -253.9 -52.5 -256.2 -42.65 -258.3 -30.45 -259.95" fill="#373535" fill-rule="evenodd" stroke="none"/>
  </g>
</svg>
