<?xml version="1.0" encoding="UTF-8" standalone="no"?>
<svg xmlns:xlink="http://www.w3.org/1999/xlink" height="573.1px" width="850.7px" xmlns="http://www.w3.org/2000/svg">
  <g transform="matrix(1, 0, 0, 1, 425.35, 286.55)">
    <path d="M387.2 186.3 L400.0 186.4 Q405.95 187.25 407.35 191.0 407.8 192.2 407.8 197.4 407.8 197.95 410.3 205.5 412.8 214.0 412.8 219.3 412.8 224.95 409.6 231.65 L406.4 237.9 407.2 243.15 Q408.0 247.4 408.0 248.4 L408.15 254.85 Q408.25 257.1 407.8 258.45 407.35 259.8 400.0 271.2 396.0 277.45 377.1 280.6 L363.4 282.35 355.2 283.2 326.4 283.2 Q299.55 280.4 286.05 278.05 262.3 273.85 251.8 265.2 244.85 259.4 230.8 254.85 212.05 249.45 199.8 245.4 179.75 238.7 147.0 224.3 112.65 209.15 91.0 201.6 84.05 199.2 77.25 195.2 L65.4 187.8 Q62.95 186.35 53.65 183.9 43.35 181.15 39.0 179.2 30.7 175.45 16.85 164.95 1.85 153.6 -5.8 149.6 -32.4 137.15 -51.7 126.4 -88.8 105.8 -88.8 95.2 -88.8 89.05 -79.0 71.15 -69.1 53.05 -56.65 36.7 -42.5 18.1 -32.25 11.8 -26.95 8.55 -23.25 9.05 L-19.6 12.1 -17.4 13.75 -16.4 16.4 -13.0 16.9 2.25 26.35 5.35 28.15 7.0 30.8 Q9.7 34.8 16.9 36.65 23.7 38.4 27.05 39.65 L27.8 40.15 Q37.85 46.85 45.3 51.6 L49.4 54.7 Q61.95 64.35 71.8 69.8 L92.65 80.9 102.45 88.55 Q116.6 98.9 130.15 103.8 L134.5 106.15 Q141.7 109.9 153.45 114.9 L174.55 124.85 Q191.95 134.05 197.7 136.5 L228.3 149.55 233.25 151.55 Q253.85 161.1 273.0 167.55 329.05 186.4 383.6 186.4 L387.2 186.3" fill="#ffffcc" fill-rule="evenodd" stroke="none"/>
    <path d="M-417.4 -279.6 L-420.35 -277.1 -421.55 -275.6 Q-422.8 -274.5 -423.3 -272.2 -423.85 -270.6 -423.95 -268.8 L-424.0 -269.4 Q-424.0 -273.15 -422.45 -275.8 -420.75 -278.75 -417.4 -279.6 M-401.05 -265.55 L-404.2 -267.8 -403.1 -268.75 Q-385.8 -256.15 -365.4 -246.4 L-352.8 -240.05 -358.65 -242.6 Q-368.25 -246.8 -373.1 -249.5 L-387.5 -258.0 Q-394.95 -262.45 -401.05 -265.55 M-334.4 -230.35 L-325.35 -225.45 Q-300.6 -211.95 -286.0 -205.4 L-285.8 -205.3 Q-290.3 -206.9 -295.6 -209.7 L-311.7 -218.1 -320.6 -221.6 Q-325.75 -223.65 -328.7 -225.6 -329.3 -226.0 -334.4 -230.35 M-234.95 -176.4 L-229.2 -174.25 Q-213.5 -168.45 -207.8 -165.6 -202.2 -162.85 -190.6 -154.6 L-184.65 -150.5 -186.4 -150.95 -189.95 -153.05 -193.0 -154.8 Q-201.25 -159.55 -207.8 -163.0 -215.1 -166.85 -234.15 -175.95 L-234.95 -176.4 M-162.6 -116.15 Q-169.4 -119.8 -178.3 -125.25 -186.4 -130.2 -193.75 -135.05 L-182.45 -128.35 -162.6 -116.15 M-234.3 -157.25 L-236.6 -158.0 Q-237.9 -158.45 -244.7 -161.9 L-253.8 -166.4 Q-263.95 -170.85 -271.95 -175.7 L-272.95 -176.3 -241.25 -160.65 -234.3 -157.25" fill="#ffcc00" fill-rule="evenodd" stroke="none"/>
    <path d="M-417.4 -279.6 Q-415.2 -281.15 -412.4 -281.8 -407.7 -283.0 -404.4 -281.2 L-402.95 -280.15 -396.8 -280.4 Q-385.65 -278.3 -381.8 -278.3 L-379.7 -278.75 -377.6 -279.2 Q-368.7 -279.2 -341.1 -273.65 L-309.7 -266.8 -294.15 -263.4 Q-285.0 -261.3 -277.5 -258.4 -272.95 -256.65 -263.3 -250.6 L-254.3 -245.0 Q-253.8 -245.0 -252.85 -245.7 -251.9 -246.4 -250.6 -246.4 -247.2 -246.4 -239.5 -241.1 -236.4 -238.95 -230.8 -234.5 -225.5 -231.6 -221.95 -229.5 -220.0 -228.35 -218.6 -227.3 -214.35 -226.45 -206.45 -221.3 -202.8 -218.9 -181.7 -202.5 L-162.0 -187.35 Q-148.15 -176.4 -145.2 -172.05 -142.65 -171.1 -138.9 -168.3 -135.15 -165.5 -129.2 -160.0 L-121.5 -153.0 Q-113.35 -146.95 -106.45 -141.3 -100.4 -136.4 -97.05 -133.15 -94.4 -132.05 -89.85 -128.8 -74.75 -117.1 -65.95 -110.95 L-43.95 -96.65 Q-35.5 -91.15 -31.95 -88.6 -30.65 -88.9 -27.85 -87.05 L-17.0 -80.2 Q-12.35 -78.7 -5.95 -74.7 L3.45 -68.8 Q9.5 -65.1 12.9 -63.15 18.9 -59.65 22.75 -58.45 26.15 -57.45 33.7 -54.05 39.95 -51.25 41.95 -49.7 L42.5 -49.65 Q44.45 -49.3 49.25 -47.4 51.05 -46.3 54.5 -44.85 L60.15 -42.55 Q69.65 -38.5 82.15 -34.3 92.45 -30.75 107.75 -24.1 119.3 -19.1 123.45 -16.5 126.1 -16.35 131.35 -14.2 136.9 -11.95 145.15 -7.9 148.1 -6.45 159.95 -1.6 166.2 1.05 168.75 2.6 171.6 1.9 180.7 6.05 L198.05 15.0 215.65 22.2 Q226.2 26.9 228.4 29.45 235.3 29.75 244.2 35.2 252.05 40.15 259.35 43.8 266.4 47.35 275.6 51.0 291.05 57.15 307.85 67.7 334.15 84.2 340.2 87.6 345.5 90.55 357.45 99.75 370.95 110.2 383.2 121.2 403.9 139.9 411.85 152.1 L408.4 151.6 Q405.35 151.6 402.0 154.1 L398.1 156.7 387.0 156.7 Q368.95 155.55 361.0 153.0 353.5 149.7 347.6 147.6 343.9 146.3 330.6 143.85 L314.2 140.9 293.9 137.05 Q284.6 135.0 277.9 131.9 275.05 131.3 269.75 129.55 263.85 127.55 261.85 127.05 L261.15 126.9 Q260.15 122.7 245.8 117.7 L226.6 112.0 Q216.25 108.5 205.15 103.15 L186.2 94.1 Q170.35 87.15 148.9 76.1 136.35 69.6 109.9 54.9 L91.5 44.75 Q80.35 38.4 75.1 34.6 L66.55 28.35 Q62.55 25.55 59.3 24.0 56.05 22.45 47.35 20.25 39.7 18.25 37.4 16.6 30.7 11.7 19.6 6.7 6.95 0.95 1.9 -2.2 -2.2 -4.75 -7.95 -7.4 L-17.4 -11.7 Q-22.15 -14.9 -25.9 -15.6 -28.05 -19.25 -36.5 -30.6 L-52.6 -51.7 Q-61.85 -63.55 -68.0 -70.3 -77.0 -80.15 -88.2 -89.5 -99.3 -98.7 -111.7 -107.95 -125.75 -118.45 -137.3 -125.8 L-149.15 -132.85 Q-160.25 -139.4 -168.45 -143.55 -178.5 -148.65 -184.65 -150.5 L-190.6 -154.6 Q-202.2 -162.85 -207.8 -165.6 -213.5 -168.45 -229.2 -174.25 L-234.95 -176.4 -250.4 -185.3 -264.8 -194.8 Q-266.65 -196.05 -270.45 -199.75 -274.25 -202.9 -278.1 -203.4 -281.6 -203.85 -285.8 -205.3 L-286.0 -205.4 Q-300.6 -211.95 -325.35 -225.45 L-334.4 -230.35 Q-338.45 -233.8 -341.8 -235.3 L-352.8 -240.05 -365.4 -246.4 Q-385.8 -256.15 -403.1 -268.75 L-404.2 -267.8 -401.05 -265.55 -403.5 -266.8 Q-406.15 -268.1 -408.7 -271.35 -411.2 -274.55 -414.3 -276.0 -419.25 -277.7 -421.55 -275.6 L-420.35 -277.1 -417.4 -279.6 M415.7 168.45 L415.4 169.1 415.55 168.5 415.7 168.45 M414.5 170.85 Q412.8 173.85 410.25 176.45 401.65 185.3 387.2 186.3 L383.6 186.4 Q329.05 186.4 273.0 167.55 253.85 161.1 233.25 151.55 255.95 160.75 261.9 161.55 263.0 162.4 264.9 162.95 L272.9 164.9 292.4 172.4 Q293.9 172.4 294.85 171.75 L295.95 171.2 298.3 172.8 Q303.95 176.4 308.4 176.4 310.2 176.4 311.3 175.15 L323.7 178.6 340.25 181.75 360.0 185.2 376.8 185.2 390.45 183.35 Q395.35 182.15 400.6 179.0 404.9 176.45 411.3 173.45 413.4 172.25 414.5 170.85 M-25.5 6.95 Q-37.4 -1.4 -40.2 -8.6 L-41.2 -11.05 -31.65 0.55 -25.5 6.95 M-75.55 -54.3 Q-84.6 -62.2 -89.15 -67.2 L-78.35 -59.05 Q-78.1 -57.25 -75.55 -54.3 M-106.1 -80.2 L-111.35 -83.3 Q-131.65 -95.05 -136.2 -98.4 -146.2 -105.8 -162.6 -116.15 L-182.45 -128.35 -193.75 -135.05 -221.7 -151.1 Q-203.8 -142.4 -203.2 -142.4 L-201.95 -142.55 Q-198.45 -139.55 -190.6 -134.75 -178.85 -127.6 -174.1 -125.6 -164.15 -121.45 -154.2 -115.25 -147.3 -111.0 -137.6 -103.9 L-106.1 -80.2 M-289.35 -184.55 Q-319.9 -199.0 -335.75 -210.5 -326.45 -207.15 -315.8 -200.2 -301.15 -190.65 -296.2 -188.1 L-289.35 -184.55 M-357.6 -221.8 Q-371.1 -228.4 -381.9 -234.3 -424.0 -257.15 -424.0 -267.8 L-423.95 -268.8 Q-423.85 -270.6 -423.3 -272.2 L-423.6 -269.0 Q-423.0 -266.2 -421.7 -263.6 -419.5 -259.2 -416.5 -258.5 L-410.1 -252.9 Q-398.7 -243.7 -386.8 -237.6 -382.85 -235.6 -373.3 -231.7 -369.45 -228.5 -357.6 -221.8 M174.55 124.85 L153.45 114.9 151.85 114.1 Q142.5 109.55 134.7 105.4 146.0 109.65 165.4 120.0 L174.55 124.85 M45.3 51.6 Q37.85 46.85 27.8 40.15 L27.05 39.65 20.15 35.05 21.4 35.2 21.6 35.2 Q24.45 38.05 31.35 41.95 37.65 45.45 47.7 50.5 53.25 53.8 62.25 59.9 L76.9 69.7 81.95 73.1 78.1 71.05 61.05 61.25 52.8 56.2 45.3 51.6 M-193.0 -154.8 Q-195.7 -156.3 -199.55 -158.1 L-217.7 -166.7 -233.55 -175.6 -234.15 -175.95 Q-215.1 -166.85 -207.8 -163.0 -201.25 -159.55 -193.0 -154.8 M-189.95 -153.05 L-186.4 -150.95 -187.4 -151.2 -189.95 -153.05" fill="#ffcccc" fill-rule="evenodd" stroke="none"/>
    <path d="M-421.55 -275.6 Q-419.25 -277.7 -414.3 -276.0 -411.2 -274.55 -408.7 -271.35 -406.15 -268.1 -403.5 -266.8 L-401.05 -265.55 Q-394.95 -262.45 -387.5 -258.0 L-373.1 -249.5 Q-368.25 -246.8 -358.65 -242.6 L-352.8 -240.05 -341.8 -235.3 Q-338.45 -233.8 -334.4 -230.35 -329.3 -226.0 -328.7 -225.6 -325.75 -223.65 -320.6 -221.6 L-311.7 -218.1 -295.6 -209.7 Q-290.3 -206.9 -285.8 -205.3 -281.6 -203.85 -278.1 -203.4 -274.25 -202.9 -270.45 -199.75 -266.65 -196.05 -264.8 -194.8 L-250.4 -185.3 -234.95 -176.4 -234.15 -175.95 -233.55 -175.6 -217.7 -166.7 -199.55 -158.1 Q-195.7 -156.3 -193.0 -154.8 L-189.95 -153.05 -187.4 -151.2 -186.4 -150.95 -184.65 -150.5 Q-178.5 -148.65 -168.45 -143.55 -160.25 -139.4 -149.15 -132.85 L-137.3 -125.8 Q-125.75 -118.45 -111.7 -107.95 -99.3 -98.7 -88.2 -89.5 -77.0 -80.15 -68.0 -70.3 -61.85 -63.55 -52.6 -51.7 L-36.5 -30.6 Q-28.05 -19.25 -25.9 -15.6 -22.15 -14.9 -17.4 -11.7 L-7.95 -7.4 Q-2.2 -4.75 1.9 -2.2 6.95 0.95 19.6 6.7 30.7 11.7 37.4 16.6 39.7 18.25 47.35 20.25 56.05 22.45 59.3 24.0 62.55 25.55 66.55 28.35 L75.1 34.6 Q80.35 38.4 91.5 44.75 L109.9 54.9 Q136.35 69.6 148.9 76.1 170.35 87.15 186.2 94.1 L205.15 103.15 Q216.25 108.5 226.6 112.0 L245.8 117.7 Q260.15 122.7 261.15 126.9 L261.85 127.05 Q263.85 127.55 269.75 129.55 275.05 131.3 277.9 131.9 284.6 135.0 293.9 137.05 L314.2 140.9 330.6 143.85 Q343.9 146.3 347.6 147.6 353.5 149.7 361.0 153.0 368.95 155.55 387.0 156.7 L398.1 156.7 402.0 154.1 Q405.35 151.6 408.4 151.6 L411.85 152.1 Q415.35 153.25 417.4 156.9 418.9 159.55 419.2 162.45 419.2 164.45 418.2 166.2 417.25 167.8 415.7 168.45 L415.55 168.5 415.4 169.1 415.4 169.2 414.5 170.85 Q413.4 172.25 411.3 173.45 404.9 176.45 400.6 179.0 395.35 182.15 390.45 183.35 L376.8 185.2 360.0 185.2 340.25 181.75 323.7 178.6 311.3 175.15 Q310.2 176.4 308.4 176.4 303.95 176.4 298.3 172.8 L295.95 171.2 294.85 171.75 Q293.9 172.4 292.4 172.4 L272.9 164.9 264.9 162.95 Q263.0 162.4 261.9 161.55 255.95 160.75 233.25 151.55 L228.3 149.55 197.7 136.5 Q191.95 134.05 174.55 124.85 L165.4 120.0 Q146.0 109.65 134.7 105.4 L131.9 104.4 130.15 103.8 Q116.6 98.9 102.45 88.55 L92.65 80.9 Q86.65 76.35 81.95 73.1 L76.9 69.7 62.25 59.9 Q53.25 53.8 47.7 50.5 37.65 45.45 31.35 41.95 24.45 38.05 21.6 35.2 L21.4 35.2 20.15 35.05 Q16.05 34.1 5.35 28.15 L2.25 26.35 -13.0 16.9 -17.4 13.75 -19.6 12.1 -23.25 9.05 -25.5 6.95 -31.65 0.55 -41.2 -11.05 -41.9 -11.9 Q-44.3 -14.95 -48.3 -23.75 -52.15 -32.2 -55.3 -35.9 L-68.75 -47.7 Q-73.2 -51.5 -75.55 -54.3 -78.1 -57.25 -78.35 -59.05 L-89.15 -67.2 -95.7 -72.2 -106.1 -80.2 -137.6 -103.9 Q-147.3 -111.0 -154.2 -115.25 -164.15 -121.45 -174.1 -125.6 -178.85 -127.6 -190.6 -134.75 -198.45 -139.55 -201.95 -142.55 L-203.2 -142.4 Q-203.8 -142.4 -221.7 -151.1 L-234.3 -157.25 -241.25 -160.65 -272.95 -176.3 -289.0 -184.4 -289.1 -184.45 -289.35 -184.55 -296.2 -188.1 Q-301.15 -190.65 -315.8 -200.2 -326.45 -207.15 -335.75 -210.5 L-336.3 -210.7 Q-340.3 -212.1 -356.85 -221.4 L-357.6 -221.8 Q-369.45 -228.5 -373.3 -231.7 -382.85 -235.6 -386.8 -237.6 -398.7 -243.7 -410.1 -252.9 L-416.5 -258.5 Q-419.5 -259.2 -421.7 -263.6 -423.0 -266.2 -423.6 -269.0 L-423.3 -272.2 Q-422.8 -274.5 -421.55 -275.6" fill="#ff6699" fill-rule="evenodd" stroke="none"/>
    <path d="M346.7 88.85 Q369.55 103.65 389.7 123.15 401.55 134.65 425.35 159.65 421.3 168.85 418.45 172.4 413.5 178.4 405.7 179.35 414.55 195.15 412.5 232.0 411.7 245.75 409.55 259.5 407.65 271.5 405.7 277.65 389.05 283.7 364.1 285.7 339.05 287.7 312.9 285.1 285.05 282.3 262.85 274.85 238.35 266.65 224.75 254.05 181.5 242.4 127.15 217.45 L81.85 196.4 Q54.65 184.05 32.0 175.4 37.85 169.8 42.7 158.5 44.3 154.8 50.65 136.7 55.6 122.55 60.1 114.55 66.5 103.1 75.3 96.7 69.1 111.1 57.15 134.65 47.4 155.05 43.8 171.45 52.45 167.95 58.4 158.45 63.05 150.95 67.15 137.45 71.65 121.15 74.1 112.8 78.45 97.95 83.15 88.85 82.35 78.2 70.35 72.15 63.55 69.15 60.25 67.5 54.55 64.6 51.7 61.3 41.15 99.25 12.35 155.75 15.8 158.2 18.85 154.65 21.0 152.15 24.05 144.8 28.25 134.6 29.3 132.5 32.6 126.05 35.95 124.25 38.9 122.6 36.75 127.25 L30.4 139.35 Q19.65 159.65 24.15 163.6 29.7 159.9 35.45 147.4 38.65 140.4 45.35 121.9 51.75 104.3 55.5 96.6 61.45 84.35 67.4 81.0 62.25 92.05 57.25 105.55 L49.25 127.75 Q39.85 153.7 28.1 171.45 6.7 158.65 -32.9 138.2 -71.05 118.45 -93.85 104.6 -93.65 77.45 -74.55 51.45 -63.25 36.1 -34.85 10.2 -50.9 -26.8 -91.15 -62.65 -125.05 -92.8 -178.2 -123.8 -216.7 -146.25 -276.15 -175.0 -339.25 -204.8 -365.25 -217.95 -385.05 -227.95 -399.1 -238.5 -416.9 -251.85 -424.25 -265.15 -429.9 -283.3 -406.0 -286.05 -397.95 -286.95 -385.7 -286.2 L-369.2 -284.85 Q-327.95 -282.3 -287.8 -266.55 -253.55 -253.1 -217.05 -228.7 -190.35 -210.8 -153.55 -180.55 L-93.85 -131.4 Q-54.5 -100.3 7.1 -69.2 41.15 -52.0 95.1 -28.75 144.4 -9.05 183.65 8.65 228.5 27.65 243.3 34.35 307.3 63.3 346.7 88.85 M95.1 -28.75 Q70.65 -38.55 43.8 -48.8 -9.9 -69.3 -68.3 -111.8 -87.25 -125.55 -117.35 -149.5 -153.3 -178.15 -165.25 -187.25 -222.1 -230.5 -268.8 -250.55 -330.6 -277.05 -400.65 -276.95 -402.65 -276.35 -402.9 -275.35 -403.05 -274.6 -402.25 -272.95 -399.95 -268.25 -400.65 -265.15 -403.85 -266.35 -408.25 -269.9 -413.35 -273.95 -414.6 -274.6 -417.75 -276.35 -419.85 -274.6 -422.35 -272.55 -424.25 -265.15 -385.7 -240.55 -326.25 -208.75 -292.7 -190.85 -225.35 -155.3 -167.65 -123.95 -128.5 -97.75 -78.55 -64.3 -42.7 -29.15 -44.45 -23.25 -41.35 -18.7 -39.6 -16.1 -39.2 -15.0 -38.25 -12.6 -38.8 -9.5 10.55 25.7 42.1 46.65 93.75 81.0 139.2 106.0 260.25 172.7 354.55 183.25 378.05 185.9 392.2 182.15 408.75 177.7 417.5 163.6 413.95 156.3 410.7 154.4 408.1 152.85 404.4 154.35 399.75 156.7 396.8 157.9 391.45 160.05 386.05 159.65 330.85 155.4 271.15 134.35 223.8 117.65 164.35 86.65 143.5 75.75 113.2 59.0 79.7 40.25 63.2 31.2 3.95 -1.3 -34.85 -17.35 -58.55 -58.85 -104.3 -95.05 -140.35 -123.55 -199.1 -155.0 -218.8 -165.6 -251.0 -181.75 -292.8 -202.75 -303.2 -208.1 -364.6 -239.7 -400.65 -265.15 -371.4 -250.3 -309.45 -219.6 -253.55 -191.55 -215.8 -170.75 -174.15 -147.8 -161.1 -140.25 -130.15 -122.3 -108.15 -106.65 -51.15 -66.15 -27.0 -21.3 0.95 -7.2 71.45 31.75 133.2 65.85 170.9 83.75 227.5 110.6 279.55 126.5 341.25 145.3 405.7 151.8 343.3 89.5 243.5 37.5 217.25 23.8 183.65 8.65 L124.8 -16.15 95.1 -28.75 M94.95 84.9 Q83.05 113.35 75.8 135.2 67.05 161.65 63.5 183.25 68.15 181.75 70.5 176.5 71.95 173.3 73.45 165.7 74.95 157.95 76.3 154.8 78.65 149.45 83.15 147.85 L78.55 173.8 80.35 165.95 Q88.2 132.25 94.95 124.25 L99.55 120.25 Q103.9 116.7 106.45 114.15 115.3 105.2 114.6 96.7 109.95 95.4 104.35 91.25 97.25 86.05 94.95 84.9 M165.75 132.15 Q165.0 122.1 153.15 117.2 L143.1 113.45 Q137.3 111.2 134.3 108.5 132.8 119.05 123.5 133.3 118.15 141.55 106.05 157.5 96.15 171.4 93.9 179.85 90.85 191.15 98.9 199.0 107.0 190.2 117.1 170.0 128.2 147.95 134.3 140.0 131.9 145.4 129.2 156.15 L124.7 174.3 Q118.95 195.1 110.7 195.05 113.0 195.3 113.85 195.85 115.1 196.75 114.6 199.0 112.3 199.2 111.45 199.8 110.2 200.7 110.7 202.95 120.45 198.8 127.3 186.3 130.6 180.3 137.3 162.15 142.95 146.9 147.8 140.75 154.9 131.6 165.75 132.15 M209.05 159.65 Q208.6 148.95 212.95 143.95 198.05 138.7 194.8 138.0 184.2 135.8 189.35 143.95 189.4 140.8 192.95 140.6 196.5 140.35 197.2 143.95 187.95 154.5 182.6 161.0 172.85 172.8 167.7 182.1 152.85 209.1 169.7 226.55 181.55 182.4 201.15 147.85 200.95 155.35 197.05 168.1 L189.4 191.35 Q184.9 205.5 183.7 214.5 182.15 226.55 185.45 234.4 191.05 224.85 195.35 212.5 L202.05 191.1 Q206.05 178.3 210.25 169.7 216.0 157.95 224.75 147.85 220.5 146.7 218.4 148.4 217.05 149.55 216.0 152.9 214.9 156.7 214.05 157.85 212.45 160.05 209.05 159.65 M181.5 128.2 Q171.75 129.75 159.55 141.85 148.2 153.1 139.3 168.55 130.2 184.4 128.35 196.7 126.3 210.45 134.3 214.75 137.2 213.85 138.5 210.1 L140.05 202.8 Q140.95 198.35 142.65 196.55 145.05 194.1 150.0 195.05 150.65 199.15 149.0 201.9 148.2 203.25 145.2 206.0 142.65 208.35 141.85 210.5 140.75 213.7 142.15 218.65 L155.05 197.9 Q163.15 184.65 168.15 174.9 182.4 147.15 181.5 128.2 M126.4 100.65 Q120.3 101.1 116.7 106.7 114.35 110.4 112.3 118.35 110.05 126.95 109.0 129.05 107.25 132.45 104.45 132.45 107.1 133.15 106.95 135.4 106.8 137.0 104.35 141.5 101.95 145.9 101.95 147.85 101.95 150.95 106.75 151.8 107.6 145.55 112.4 138.35 115.15 134.2 121.45 126.3 126.7 119.3 128.1 114.25 129.95 107.4 126.4 100.65 M91.4 150.2 Q86.55 158.55 87.1 167.55 92.7 165.85 96.25 152.95 98.95 143.1 98.9 136.05 97.85 139.5 95.5 143.5 L91.4 150.2 M215.05 235.35 Q212.45 241.4 212.95 246.2 220.6 244.15 224.75 236.35 227.45 231.25 229.95 219.95 232.75 207.3 234.55 202.9 238.05 194.25 244.45 191.15 241.9 188.7 242.25 182.45 243.2 174.65 243.35 170.55 243.7 163.3 241.1 159.1 237.7 153.65 228.7 151.8 212.35 181.8 207.3 193.35 196.55 217.9 193.3 242.25 197.15 241.8 201.3 244.1 205.6 246.45 209.05 246.2 210.25 236.7 215.45 222.85 220.6 209.2 220.85 206.85 224.55 210.65 223.95 215.6 223.55 219.2 220.4 225.15 L215.05 235.35 M344.75 187.2 Q337.45 185.25 334.9 183.25 330.6 195.75 325.15 226.2 320.5 252.1 315.25 261.95 330.6 258.4 332.3 234.55 L332.65 217.3 Q332.9 208.8 334.9 206.85 338.45 214.15 337.9 223.15 337.6 228.35 335.0 239.8 332.35 251.15 332.0 257.65 331.4 268.15 334.9 277.65 337.1 272.8 337.25 267.4 L336.75 258.0 Q335.9 245.6 342.75 234.4 346.45 237.65 345.7 244.45 345.35 247.75 342.75 256.1 340.8 262.35 341.75 263.75 343.15 265.8 350.65 261.95 349.7 257.75 351.9 231.5 354.5 200.35 354.55 191.15 351.95 189.1 344.75 187.2 M358.5 191.15 Q357.4 235.0 356.7 243.6 354.35 271.6 346.7 281.6 363.75 279.6 371.7 270.0 378.25 262.0 379.35 247.35 379.95 239.05 378.55 219.25 377.2 200.3 378.15 191.15 L358.5 191.15 M256.25 159.65 Q251.4 173.0 241.5 205.05 232.65 233.65 224.75 254.05 236.55 257.45 243.15 250.8 248.35 245.5 251.1 232.65 L254.7 209.5 Q256.8 196.25 260.15 191.15 263.25 197.9 258.2 217.7 L254.15 234.15 Q252.15 243.6 252.3 250.15 254.7 245.2 257.0 238.2 L260.4 227.65 Q264.0 217.85 270.75 215.2 266.85 216.3 266.9 213.25 266.95 211.05 270.05 202.45 273.8 192.15 275.15 186.0 277.45 175.55 275.9 167.55 269.8 163.6 266.7 164.3 264.45 164.8 262.8 168.5 260.3 174.2 259.55 175.2 256.95 178.85 252.3 179.35 250.55 173.4 253.65 168.9 L255.85 165.15 Q256.8 162.8 256.25 159.65 M287.7 171.45 Q281.0 178.35 277.8 188.8 275.45 196.5 274.45 209.1 L272.8 230.3 Q271.75 239.3 269.6 246.0 L270.35 248.55 Q275.05 244.7 278.15 237.65 280.45 232.55 283.65 220.5 286.75 208.65 289.15 203.4 293.15 194.85 299.5 191.15 L283.7 234.1 Q275.9 256.0 271.95 273.75 277.9 272.0 282.4 275.1 285.0 276.85 286.15 277.3 L291.65 277.65 Q293.7 275.3 293.9 272.45 L293.65 267.5 Q293.15 261.5 299.5 258.0 298.7 252.15 300.7 242.55 301.45 238.7 305.5 223.55 312.75 196.1 311.3 179.35 302.2 175.45 300.2 174.7 293.7 172.3 287.7 171.45 M262.65 236.65 L262.45 252.9 Q262.05 263.2 260.15 265.85 255.6 262.9 258.25 258.65 259.45 256.7 259.35 256.05 259.2 254.8 256.25 254.05 255.85 258.7 254.05 257.95 253.0 257.55 250.35 254.05 247.65 250.6 246.6 250.15 244.85 249.45 244.45 254.05 244.85 257.0 246.35 258.5 247.4 259.55 250.3 260.8 258.55 264.35 264.1 269.8 265.1 266.9 268.05 261.95 270.9 257.0 271.95 254.05 L270.35 248.55 268.05 250.15 269.6 246.0 Q266.15 234.5 264.55 232.05 262.9 229.5 262.65 236.65 M299.7 275.35 Q301.1 277.85 307.35 277.65 309.2 267.3 313.75 251.4 319.25 232.15 320.55 226.7 327.1 198.6 319.15 179.35 316.7 185.9 315.4 197.05 L313.35 217.4 Q310.25 243.9 299.5 258.0 302.7 259.2 302.25 262.7 L300.2 269.45 Q298.75 273.6 299.7 275.35 M386.05 187.2 Q385.0 215.65 383.45 234.2 381.6 256.7 378.15 277.65 390.45 276.75 394.95 271.45 398.3 267.55 398.8 258.5 399.55 244.4 400.2 241.4 402.3 230.7 409.65 222.6 407.25 220.0 405.45 205.75 403.5 190.5 401.75 187.2 L386.05 187.2 M-67.0 77.35 Q-62.65 67.55 -60.05 64.35 -55.8 59.2 -50.6 61.3 -56.55 73.0 -67.5 88.25 -75.2 100.55 -74.2 112.45 -52.1 95.3 -38.75 65.25 -28.55 42.2 -23.05 10.2 -48.7 27.2 -65.7 49.15 -86.25 75.75 -86.0 100.65 -79.7 99.5 -74.65 92.15 -71.75 87.95 -67.0 77.35 M18.55 47.35 Q19.75 47.45 20.2 49.5 2.05 69.75 -7.7 94.35 -16.5 116.55 -19.1 143.95 -10.45 142.9 -6.3 135.15 -3.5 129.95 -1.55 118.2 0.65 104.8 2.25 100.35 5.45 91.45 12.35 88.85 6.6 108.7 3.25 119.1 -2.1 135.55 -7.3 147.85 1.1 143.9 5.85 133.5 9.05 126.55 12.05 112.15 15.55 95.55 17.45 90.0 21.35 78.45 28.1 73.1 26.85 81.55 22.8 93.55 L15.25 114.4 Q6.1 139.8 8.4 151.8 19.2 134.0 28.6 107.1 33.55 92.95 43.8 57.4 41.6 56.45 35.95 51.8 28.55 45.65 26.1 43.95 13.95 35.3 12.35 45.6 12.85 49.4 16.15 48.0 17.85 47.25 18.55 47.35 M3.25 48.3 Q4.25 33.45 -3.4 22.0 -22.6 33.85 -35.3 62.8 -42.75 79.65 -54.5 116.4 -50.4 124.1 -44.4 127.9 -37.4 132.35 -27.0 132.15 -24.85 121.75 -17.2 104.95 L-4.25 76.5 Q2.45 60.1 3.25 48.3" fill="#373535" fill-rule="evenodd" stroke="none"/>
    <path d="M-22.65 72.65 Q-18.8 62.45 -19.1 53.45 -7.65 44.2 -18.8 74.75 -27.6 98.8 -38.8 120.35 -40.8 113.95 -38.1 105.65 -36.4 100.45 -30.85 89.9 -24.85 78.55 -22.65 72.65" fill="#373535" fill-rule="evenodd" stroke="none"/>
    <path d="M161.8 163.6 Q165.5 162.15 165.0 165.05 164.6 167.05 161.4 173.35 153.2 189.5 153.95 195.05 146.65 193.35 146.85 190.35 146.95 188.4 151.2 184.3 156.0 179.7 156.95 177.75 158.65 174.05 153.95 171.45 154.4 169.5 158.25 167.9 161.8 166.35 161.8 163.6" fill="#373535" fill-rule="evenodd" stroke="none"/>
    <path d="M389.95 214.75 Q398.1 213.2 396.0 236.45 394.5 253.05 389.95 269.8 387.05 266.45 387.5 258.35 387.8 253.55 389.95 242.3 392.15 231.05 392.4 226.2 392.85 218.1 389.95 214.75" fill="#373535" fill-rule="evenodd" stroke="none"/>
  </g>
</svg>
