<?xml version="1.0" encoding="UTF-8" standalone="no"?>
<svg xmlns:xlink="http://www.w3.org/1999/xlink" height="398.4px" width="421.6px" xmlns="http://www.w3.org/2000/svg">
  <g transform="matrix(1, 0, 0, 1, 210.8, 199.2)">
    <path d="M52.25 -183.85 L52.6 -183.8 69.0 -180.4 Q81.65 -177.6 84.4 -175.4 86.5 -173.7 92.45 -170.6 L101.4 -165.8 Q102.9 -164.85 120.65 -155.85 130.4 -150.95 135.2 -144.8 L137.55 -142.1 Q134.4 -142.45 134.4 -137.1 134.4 -136.45 139.55 -130.6 145.85 -123.45 148.6 -119.4 L155.35 -109.85 Q158.55 -105.15 159.7 -101.4 161.6 -95.3 167.1 -83.55 172.85 -71.3 174.7 -65.7 182.0 -43.8 185.3 -13.95 186.05 -6.95 186.7 -3.1 185.6 -1.85 185.6 0.65 184.15 30.6 182.0 39.2 180.55 46.7 176.55 58.5 171.05 74.55 170.1 77.9 166.95 88.65 161.95 97.35 155.9 107.9 146.6 116.6 142.1 120.8 137.15 126.95 L129.8 136.1 Q128.6 137.5 118.4 146.6 109.2 154.75 109.2 155.6 109.2 156.7 109.8 157.7 110.95 159.6 113.8 159.6 114.6 159.6 119.05 157.5 L119.2 157.45 Q102.95 167.7 89.35 174.0 71.55 182.2 51.2 187.2 L27.0 187.4 6.25 190.5 -15.6 192.8 Q-42.4 192.8 -66.2 185.0 L-81.85 179.15 Q-89.45 176.15 -92.6 175.6 -104.05 173.5 -118.9 161.65 -126.6 155.55 -134.6 148.0 -146.05 139.9 -154.25 131.4 -162.35 123.0 -166.6 115.0 -167.3 113.65 -174.55 107.05 -180.8 101.35 -180.8 98.2 -180.85 95.5 -181.65 91.45 -190.2 88.65 -196.3 72.75 -201.2 59.95 -203.2 43.8 -204.6 33.0 -206.4 -4.5 -206.4 -22.1 -203.75 -38.25 L-203.1 -36.85 -200.6 -31.4 Q-200.6 -29.2 -201.9 -16.75 L-203.2 -3.8 Q-203.2 5.8 -204.0 24.4 -204.0 27.35 -203.2 29.25 -201.4 33.6 -196.0 33.6 -186.85 33.6 -185.9 9.3 L-185.8 -10.45 Q-185.8 -21.65 -185.0 -25.8 -181.45 -44.05 -177.65 -56.8 -172.6 -73.8 -165.4 -87.6 -157.9 -101.95 -142.35 -119.75 -126.75 -137.55 -111.4 -149.4 -100.25 -158.0 -87.65 -163.15 -84.4 -164.5 -63.6 -171.4 L-49.5 -176.45 Q-42.3 -178.75 -33.2 -179.4 -9.7 -181.0 -3.3 -183.2 -1.65 -183.75 -0.6 -184.45 L6.35 -185.45 6.95 -185.55 19.3 -185.5 30.55 -183.65 Q41.0 -182.0 46.0 -182.0 50.45 -182.0 52.0 -183.6 L52.25 -183.85 M153.8 -127.0 L159.8 -121.8 Q161.55 -120.25 169.0 -107.65 177.1 -94.1 185.1 -78.8 L186.05 -76.95 Q183.6 -81.15 180.8 -85.2 179.25 -87.45 177.25 -91.25 L173.9 -97.8 172.55 -100.95 Q171.7 -102.8 170.2 -104.1 L167.75 -104.7 165.2 -110.2 Q163.65 -113.5 159.1 -119.7 L153.8 -127.0 M194.7 -59.7 Q207.2 -33.45 207.2 -23.7 207.2 -22.7 206.2 -18.3 205.2 -13.9 205.2 -12.9 208.0 -2.7 208.0 -0.9 208.0 4.7 205.2 13.75 202.4 22.85 202.4 24.0 202.4 25.0 203.2 27.75 204.0 30.5 204.0 31.5 204.0 33.75 200.65 45.7 196.7 59.85 191.8 72.6 183.2 95.0 175.2 104.15 L174.9 103.6 174.2 102.1 Q174.2 101.15 180.1 92.55 186.0 83.9 186.0 82.3 186.0 81.0 185.4 79.9 L184.85 79.1 Q185.6 70.95 186.3 69.1 L190.5 59.2 194.4 49.3 Q196.3 43.75 199.0 30.5 202.0 15.75 202.0 9.25 202.0 8.75 200.8 5.95 L199.6 3.1 200.0 0.7 200.4 -1.7 Q202.55 -2.25 203.1 -4.8 L203.2 -9.15 Q203.2 -16.45 199.7 -36.45 196.35 -55.65 194.7 -59.7 M-197.7 -63.8 Q-190.05 -87.9 -175.65 -108.45 -159.7 -131.25 -135.8 -149.0 -141.85 -143.0 -149.6 -134.6 -161.45 -122.75 -169.8 -111.7 -179.35 -99.05 -183.0 -89.0 -185.7 -81.65 -190.05 -74.8 -191.25 -72.9 -197.4 -64.25 L-197.7 -63.8 M1.55 -193.6 Q4.7 -194.15 9.05 -193.7 L8.05 -193.6 1.55 -193.6 M25.0 -9.55 Q23.3 -4.8 17.0 -1.4 L20.6 2.85 Q24.55 7.0 27.0 7.0 42.3 7.0 48.0 1.8 51.2 -1.1 51.2 -6.0 51.2 -7.9 47.9 -17.05 44.7 -25.95 43.6 -27.6 34.35 -32.05 29.9 -30.0 24.9 -27.65 25.6 -17.0 25.75 -11.65 25.0 -9.55 M31.8 32.15 Q26.3 29.35 17.2 31.7 9.6 33.65 2.65 38.1 -4.0 42.3 -4.0 44.7 -4.0 48.85 -0.4 56.4 3.9 65.4 8.6 65.4 L28.2 65.2 Q28.85 63.6 34.15 55.65 38.4 49.2 38.4 46.0 38.4 35.5 31.8 32.15 M-58.4 -37.0 Q-58.4 -34.25 -51.6 -25.6 -44.15 -16.2 -39.4 -16.2 L-30.0 -16.4 -24.3 -21.15 Q-20.15 -24.6 -16.4 -26.2 L-17.75 -32.85 -19.2 -40.0 Q-21.2 -48.65 -28.2 -51.05 -31.45 -52.15 -43.4 -52.6 -49.0 -53.6 -54.1 -46.75 -58.4 -40.95 -58.4 -37.0 M-39.4 19.4 Q-43.6 14.75 -43.6 8.4 -43.6 7.9 -46.15 6.05 -48.6 4.25 -50.0 3.6 -50.15 6.35 -52.8 8.1 -54.5 9.15 -58.7 10.55 -63.15 12.0 -64.9 13.0 -67.9 14.7 -68.6 17.4 L-71.3 25.35 Q-73.6 32.0 -73.6 33.3 -73.6 34.5 -67.0 38.4 -60.3 42.4 -57.6 42.4 L-43.4 42.0 Q-42.35 40.85 -38.95 35.0 -35.2 28.5 -35.2 27.0 -35.2 24.7 -36.5 22.75 L-39.4 19.4" fill="#ffcccc" fill-rule="evenodd" stroke="none"/>
    <path d="M137.55 -142.1 Q139.45 -141.9 142.6 -139.5 149.45 -134.35 152.6 -128.8 L153.8 -127.0 159.1 -119.7 Q163.65 -113.5 165.2 -110.2 L167.75 -104.7 170.2 -104.1 Q171.7 -102.8 172.55 -100.95 L173.9 -97.8 177.25 -91.25 Q179.25 -87.45 180.8 -85.2 183.6 -81.15 186.05 -76.95 191.0 -68.65 194.7 -59.7 196.35 -55.65 199.7 -36.45 203.2 -16.45 203.2 -9.15 L203.1 -4.8 Q202.55 -2.25 200.4 -1.7 L200.0 0.7 199.6 3.1 200.8 5.95 Q202.0 8.75 202.0 9.25 202.0 15.75 199.0 30.5 196.3 43.75 194.4 49.3 L190.5 59.2 186.3 69.1 Q185.6 70.95 184.85 79.1 L185.4 79.9 Q186.0 81.0 186.0 82.3 186.0 83.9 180.1 92.55 174.2 101.15 174.2 102.1 L174.9 103.6 175.2 104.15 175.6 105.4 Q175.6 108.8 164.0 121.0 158.0 127.35 150.0 135.1 147.9 137.25 144.1 142.3 140.35 147.25 137.5 150.1 135.7 151.9 132.45 153.3 128.55 155.05 124.3 155.3 123.6 155.35 119.2 157.45 L119.05 157.5 Q114.6 159.6 113.8 159.6 110.95 159.6 109.8 157.7 109.2 156.7 109.2 155.6 109.2 154.75 118.4 146.6 128.6 137.5 129.8 136.1 L137.15 126.95 Q142.1 120.8 146.6 116.6 155.9 107.9 161.95 97.35 166.95 88.65 170.1 77.9 171.05 74.55 176.55 58.5 180.55 46.7 182.0 39.2 184.15 30.6 185.6 0.65 185.6 -1.85 186.7 -3.1 186.05 -6.95 185.3 -13.95 182.0 -43.8 174.7 -65.7 172.85 -71.3 167.1 -83.55 161.6 -95.3 159.7 -101.4 158.55 -105.15 155.35 -109.85 L148.6 -119.4 Q145.85 -123.45 139.55 -130.6 134.4 -136.45 134.4 -137.1 134.4 -142.45 137.55 -142.1" fill="#ff6699" fill-rule="evenodd" stroke="none"/>
    <path d="M-203.75 -38.25 L-205.6 -42.5 Q-205.6 -48.9 -203.25 -54.45 -201.55 -58.35 -197.7 -63.8 L-197.4 -64.25 Q-191.25 -72.9 -190.05 -74.8 -185.7 -81.65 -183.0 -89.0 -179.35 -99.05 -169.8 -111.7 -161.45 -122.75 -149.6 -134.6 -141.85 -143.0 -135.8 -149.0 -130.55 -154.25 -126.55 -157.65 -112.05 -170.15 -91.0 -178.8 -84.9 -181.3 -71.7 -185.4 -54.7 -190.6 -40.4 -193.7 -5.9 -201.2 0.25 -193.6 L1.55 -193.6 8.05 -193.6 9.05 -193.7 12.8 -194.4 24.4 -194.4 Q29.25 -194.8 31.45 -192.85 L32.05 -192.25 37.05 -191.5 Q52.8 -188.9 52.8 -186.0 52.8 -184.7 52.25 -183.85 L52.0 -183.6 Q50.45 -182.0 46.0 -182.0 41.0 -182.0 30.55 -183.65 L19.3 -185.5 6.95 -185.55 6.35 -185.45 -0.6 -184.45 Q-1.65 -183.75 -3.3 -183.2 -9.7 -181.0 -33.2 -179.4 -42.3 -178.75 -49.5 -176.45 L-63.6 -171.4 Q-84.4 -164.5 -87.65 -163.15 -100.25 -158.0 -111.4 -149.4 -126.75 -137.55 -142.35 -119.75 -157.9 -101.95 -165.4 -87.6 -172.6 -73.8 -177.65 -56.8 -181.45 -44.05 -185.0 -25.8 -185.8 -21.65 -185.8 -10.45 L-185.9 9.3 Q-186.85 33.6 -196.0 33.6 -201.4 33.6 -203.2 29.25 -204.0 27.35 -204.0 24.4 -203.2 5.8 -203.2 -3.8 L-201.9 -16.75 Q-200.6 -29.2 -200.6 -31.4 L-203.1 -36.85 -203.75 -38.25" fill="#ffffff" fill-rule="evenodd" stroke="none"/>
    <path d="M116.45 -151.4 L124.25 -145.85 Q119.5 -146.85 116.85 -150.75 L116.45 -151.4 Q95.25 -165.65 68.7 -175.0 37.2 -186.05 3.55 -188.25 -31.45 -190.6 -63.25 -182.95 -97.2 -174.75 -123.5 -156.15 -157.3 -132.25 -177.5 -97.55 -196.85 -64.3 -201.5 -25.1 -206.05 13.7 -195.55 52.8 -184.8 92.85 -159.65 127.7 -150.75 132.85 -136.7 143.75 L-112.3 162.35 Q-80.9 184.8 -51.25 189.65 -15.3 195.55 29.95 185.15 L65.45 176.05 Q85.95 170.7 98.45 169.0 103.75 157.75 115.55 143.6 L138.05 118.1 Q152.05 102.15 160.1 89.65 171.0 72.75 175.85 55.45 190.2 4.45 175.4 -46.75 161.05 -96.35 124.25 -130.35 122.7 -136.6 128.15 -139.35 131.7 -141.1 132.35 -141.6 134.4 -143.2 134.55 -145.85 122.55 -145.5 119.1 -156.15 114.45 -155.0 116.45 -151.4 M162.6 -111.95 Q148.5 -132.05 134.55 -140.7 161.15 -114.25 174.85 -73.4 188.25 -33.45 186.0 10.1 183.7 55.25 165.0 93.1 144.75 134.0 108.75 158.7 137.35 150.5 159.6 120.3 179.7 93.0 190.7 53.7 201.2 16.25 200.2 -19.75 199.15 -56.8 186.2 -78.75 180.9 -84.95 174.05 -95.0 L162.6 -111.95 M206.85 50.3 Q195.35 102.95 149.4 142.1 106.25 178.85 46.9 192.55 -13.3 206.45 -67.25 191.25 -125.95 174.7 -159.65 127.7 -204.15 81.15 -210.0 19.4 -212.7 -9.1 -206.45 -37.8 -200.3 -66.0 -186.15 -91.8 -171.9 -117.7 -150.95 -138.65 -129.4 -160.2 -102.6 -174.5 -44.1 -205.8 26.2 -197.45 138.75 -184.05 186.2 -78.75 200.35 -59.3 207.05 -24.6 214.6 14.65 206.85 50.3" fill="#373535" fill-rule="evenodd" stroke="none"/>
    <path d="M63.4 -136.9 Q74.55 -129.65 72.65 -120.05 36.95 -140.85 2.7 -143.8 -28.65 -146.55 -56.65 -134.25 -82.55 -122.9 -102.85 -100.1 -122.1 -78.4 -133.3 -49.85 -144.4 -21.7 -145.45 7.7 -146.55 38.05 -136.65 63.95 -126.1 91.65 -104.4 110.3 -89.65 122.95 -70.6 130.75 -109.8 115.8 -131.45 81.2 -144.0 61.2 -149.0 36.65 -153.8 13.0 -151.1 -12.15 -148.45 -37.05 -138.8 -60.25 -128.95 -83.9 -113.05 -102.7 -77.95 -144.25 -25.45 -151.0 -14.7 -152.35 1.95 -151.45 20.1 -150.45 35.7 -147.05 53.8 -143.1 63.4 -136.9" fill="#373535" fill-rule="evenodd" stroke="none"/>
    <path d="M-40.9 -52.95 Q-45.2 -51.7 -47.8 -45.55 -50.1 -40.05 -50.1 -33.65 -50.1 -27.2 -47.8 -24.95 -45.2 -22.35 -40.9 -27.1 -43.9 -27.4 -45.05 -28.15 -46.75 -29.35 -46.1 -32.3 -42.55 -42.95 -30.6 -42.6 -36.05 -37.0 -35.0 -30.25 -33.9 -22.95 -25.45 -21.95 -26.05 -26.95 -23.05 -32.45 -19.95 -38.15 -20.25 -42.6 -25.05 -41.35 -28.0 -42.6 -30.05 -43.55 -32.0 -46.35 L-35.35 -50.75 Q-37.55 -52.9 -40.9 -52.95 M-24.05 -54.0 Q-11.05 -46.45 -15.1 -21.95 -23.15 -14.1 -33.4 -13.0 -42.95 -12.0 -50.55 -17.0 -58.35 -22.15 -60.3 -31.25 -62.45 -41.3 -56.4 -52.95 -35.45 -60.55 -24.05 -54.0" fill="#373535" fill-rule="evenodd" stroke="none"/>
    <path d="M15.85 -32.3 Q25.85 -34.1 35.65 -31.45 L43.6 -29.05 Q48.35 -27.6 52.0 -27.1 L52.0 3.85 Q44.0 9.45 34.1 9.2 25.1 8.95 17.65 4.15 10.25 -0.6 8.05 -7.45 5.65 -14.95 10.7 -21.95 14.5 -21.45 15.25 -16.2 15.7 -13.2 15.85 -6.5 21.05 -8.0 21.8 -11.05 22.4 -13.4 20.35 -17.6 17.7 -22.5 16.65 -25.0 14.85 -29.35 15.85 -32.3 M46.85 -16.8 Q37.6 -17.6 33.4 -15.9 30.0 -14.5 29.2 -10.95 L28.65 -3.8 Q28.3 0.95 26.2 3.85 50.4 7.45 46.85 -16.8" fill="#373535" fill-rule="evenodd" stroke="none"/>
    <path d="M-82.2 24.5 Q-76.1 -0.2 -40.9 3.85 -41.35 8.9 -39.65 12.95 -38.65 15.35 -35.75 19.35 -32.85 23.3 -31.85 25.7 -30.15 29.75 -30.6 34.8 -35.7 41.7 -43.9 44.0 -51.35 46.05 -59.65 43.9 -67.65 41.9 -73.8 36.7 -80.15 31.35 -82.2 24.5 M-56.4 19.35 L-56.4 39.95 Q-46.7 41.1 -43.0 35.3 -39.75 30.2 -40.9 19.35 L-56.4 19.35" fill="#373535" fill-rule="evenodd" stroke="none"/>
    <path d="M41.65 45.15 Q36.85 58.1 29.7 64.15 20.65 71.8 5.55 70.95 -6.55 60.0 -5.4 47.8 -4.45 37.15 5.3 30.7 15.0 24.2 25.2 27.2 36.75 30.6 41.65 45.15 M17.85 44.15 Q10.95 49.8 10.7 60.6 21.55 61.8 26.65 58.55 32.45 54.85 31.35 45.15 24.9 38.35 17.85 44.15" fill="#373535" fill-rule="evenodd" stroke="none"/>
  </g>
</svg>
