<?xml version="1.0" encoding="UTF-8" standalone="no"?>
<svg xmlns:xlink="http://www.w3.org/1999/xlink" height="955.3px" width="1101.3px" xmlns="http://www.w3.org/2000/svg">
  <g transform="matrix(1, 0, 0, 1, 550.65, 477.65)">
    <path d="M457.45 394.3 Q456.85 398.1 454.4 401.65 450.0 408.0 441.6 408.0 434.1 408.0 429.9 403.15 L429.75 402.95 424.0 403.2 Q376.15 403.2 340.85 396.55 L322.6 392.7 304.45 388.25 Q276.95 381.15 259.6 376.8 L249.05 375.0 237.1 373.1 Q221.35 369.85 206.0 360.8 197.5 355.8 190.8 354.65 186.2 353.85 180.4 354.8 L171.0 355.85 Q165.3 355.7 158.8 352.4 155.85 350.85 153.85 346.65 L153.3 345.4 Q152.0 342.2 152.0 339.2 152.0 317.3 194.0 324.35 210.5 327.15 236.45 334.8 250.25 338.9 284.4 350.0 291.25 351.0 298.75 353.3 L312.9 357.8 Q333.8 363.95 367.2 366.8 424.7 371.6 435.35 374.15 439.7 375.2 442.45 376.6 448.3 377.25 452.6 381.1 457.6 385.55 457.6 392.0 L457.45 394.3 M0.1 406.8 Q-9.1 419.2 -16.8 419.2 L-20.05 419.0 -20.7 418.9 -19.1 415.8 Q-15.2 407.45 -15.2 395.2 -15.2 388.55 -18.45 383.35 -19.65 381.45 -21.2 379.9 -11.05 360.1 -8.8 348.0 -5.85 332.25 1.35 323.65 3.2 321.45 5.25 319.8 6.0 307.7 8.0 290.0 11.2 262.0 11.2 245.6 7.35 224.1 12.05 209.1 12.9 206.45 13.9 204.2 L13.35 203.35 Q9.0 196.45 4.3 178.35 -2.95 150.45 -5.5 142.5 -13.0 119.35 -24.0 100.8 -58.1 43.65 -119.4 21.7 -157.7 8.0 -210.8 8.0 -234.7 8.0 -288.8 48.8 -303.55 59.9 -321.2 74.7 L-319.55 70.9 Q-317.9 67.1 -317.0 66.4 -310.65 61.55 -301.3 53.1 L-288.4 41.8 Q-264.45 23.0 -255.2 17.2 -234.1 3.85 -212.0 -1.2 L-154.4 -1.2 Q-152.5 0.1 -144.9 0.8 L-114.8 3.2 -107.65 5.0 Q-101.8 6.6 -96.4 6.6 -89.4 6.6 -89.4 1.5 -89.4 -4.7 -118.3 -8.8 L-121.75 -9.25 Q-126.8 -11.1 -134.35 -13.4 -153.6 -19.25 -159.2 -20.2 L-184.0 -20.4 -186.4 -21.0 -207.2 -21.2 Q-237.9 -22.9 -264.0 -8.6 -271.45 -4.5 -285.05 4.85 -294.5 11.3 -300.9 15.2 L-290.6 7.3 Q-298.6 9.6 -310.4 9.6 -321.1 9.6 -325.55 2.0 -328.0 -2.15 -328.0 -6.4 -328.0 -13.85 -319.75 -19.4 L-316.9 -21.1 -318.4 -20.0 Q-326.4 -13.75 -326.4 -8.0 -326.4 -5.7 -325.8 -3.6 L-325.4 -1.75 -324.45 -0.25 -324.05 0.4 Q-319.25 8.0 -306.4 8.0 -290.0 8.0 -281.65 0.05 -276.15 -5.2 -275.35 -11.95 L-275.2 -9.6 Q-275.2 -6.75 -276.0 -4.35 -267.0 -11.95 -264.4 -16.0 L-260.95 -21.6 Q-258.4 -25.1 -254.85 -27.15 -245.3 -32.6 -224.55 -29.85 -222.3 -37.0 -214.9 -47.0 -203.75 -62.1 -187.0 -75.2 -167.95 -90.15 -147.95 -97.05 L-142.15 -98.85 Q-137.25 -100.25 -132.4 -101.1 -130.45 -98.2 -129.2 -98.2 -126.95 -98.2 -125.4 -99.6 -124.3 -100.65 -123.95 -102.1 -113.7 -102.8 -104.0 -100.8 L-99.4 -100.8 -57.6 -100.8 Q72.15 -86.65 122.05 9.9 140.2 45.0 147.3 90.6 152.0 120.65 152.0 158.8 152.0 172.05 148.55 184.25 141.0 210.85 140.0 215.2 138.7 220.7 138.65 228.7 L139.1 243.2 Q139.7 261.85 135.6 271.6 132.85 278.2 126.85 285.75 L115.4 298.65 Q108.1 306.6 104.65 311.65 99.55 319.05 98.0 326.0 97.35 328.9 93.1 336.35 87.75 345.75 81.0 353.85 61.0 377.6 39.2 377.6 25.2 377.6 18.5 373.05 L16.8 376.8 Q7.9 396.25 0.1 406.8 M-393.35 230.3 Q-397.0 232.0 -401.6 232.0 -414.85 232.0 -437.45 227.7 -458.95 223.6 -480.85 217.2 -503.5 210.55 -517.4 204.05 -531.5 197.5 -532.65 192.85 L-532.8 192.0 Q-532.8 182.3 -527.55 179.05 -523.0 176.3 -512.9 177.7 -508.4 178.3 -490.6 182.25 -473.95 185.95 -462.4 187.2 -450.6 189.75 -431.35 192.65 -412.95 195.45 -406.45 196.95 -395.15 199.55 -390.0 203.5 -384.0 208.05 -384.0 215.8 -384.0 222.55 -388.8 227.2 -390.85 229.15 -393.35 230.3 M114.45 -131.95 Q109.7 -126.4 101.6 -126.4 76.4 -129.6 43.0 -134.55 -23.6 -144.4 -66.8 -153.2 L-99.25 -156.45 Q-133.45 -159.55 -156.45 -162.65 -235.2 -173.3 -235.2 -188.8 -235.2 -204.9 -216.1 -208.05 -202.1 -210.35 -174.25 -205.75 -167.35 -207.5 -156.7 -208.05 -129.3 -209.5 -89.6 -203.05 -50.0 -196.65 -22.5 -186.35 -9.5 -181.45 -2.0 -176.65 L6.6 -175.85 62.25 -170.9 Q89.95 -167.7 102.75 -162.15 118.4 -155.35 118.4 -142.8 118.4 -136.7 114.45 -131.95 M-314.25 25.5 Q-320.0 31.35 -329.1 41.7 -345.95 60.9 -348.55 68.45 L-351.8 69.1 Q-351.95 66.3 -353.0 65.1 -349.95 58.65 -342.6 50.7 -333.1 40.35 -314.25 25.5" fill="#666666" fill-rule="evenodd" stroke="none"/>
    <path d="M146.75 -400.0 L148.8 -400.0 Q152.35 -400.0 156.15 -398.65 158.7 -399.45 161.6 -399.35 168.1 -399.15 172.6 -394.8 177.4 -390.2 177.6 -382.85 183.0 -377.15 188.8 -369.55 197.35 -358.4 203.7 -346.95 209.6 -336.3 209.6 -333.0 209.6 -330.4 208.9 -328.1 L214.8 -321.2 Q215.7 -318.45 215.3 -314.25 214.8 -309.3 215.0 -308.05 215.85 -301.7 230.0 -300.0 L254.8 -296.35 Q275.2 -292.15 283.2 -284.8 286.65 -281.6 288.75 -277.05 L288.0 -267.45 286.4 -246.6 Q286.4 -241.65 289.35 -235.95 293.0 -228.8 300.05 -223.15 319.05 -208.0 356.0 -208.0 412.4 -208.0 439.5 -224.25 L447.6 -228.4 Q453.1 -231.35 455.65 -236.5 L458.85 -243.65 460.05 -246.1 Q462.75 -249.8 468.1 -251.7 475.75 -254.4 491.2 -254.4 512.9 -254.4 521.7 -243.25 526.4 -237.3 526.4 -230.6 526.4 -215.95 524.8 -208.45 523.65 -203.1 521.8 -199.3 523.45 -195.55 524.8 -190.8 525.7 -179.15 527.95 -165.35 529.6 -155.35 529.6 -144.0 529.6 -142.0 528.0 -130.5 526.4 -119.0 526.4 -117.0 530.8 -74.85 535.2 -20.4 544.0 88.5 544.0 151.8 L545.6 177.9 547.2 204.0 Q547.2 271.1 527.0 318.95 503.85 373.6 457.45 394.3 L457.6 392.0 Q457.6 385.55 452.6 381.1 448.3 377.25 442.45 376.6 439.7 375.2 435.35 374.15 424.7 371.6 367.2 366.8 333.8 363.95 312.9 357.8 L298.75 353.3 Q291.25 351.0 284.4 350.0 250.25 338.9 236.45 334.8 210.5 327.15 194.0 324.35 152.0 317.3 152.0 339.2 152.0 342.2 153.3 345.4 149.3 344.0 145.6 344.0 142.3 344.0 88.4 366.8 33.4 390.05 10.0 401.6 5.3 403.9 0.1 406.8 7.9 396.25 16.8 376.8 L18.5 373.05 Q25.2 377.6 39.2 377.6 61.0 377.6 81.0 353.85 87.75 345.75 93.1 336.35 97.35 328.9 98.0 326.0 99.55 319.05 104.65 311.65 108.1 306.6 115.4 298.65 L126.85 285.75 Q132.85 278.2 135.6 271.6 139.7 261.85 139.1 243.2 L138.65 228.7 Q138.7 220.7 140.0 215.2 141.0 210.85 148.55 184.25 152.0 172.05 152.0 158.8 152.0 120.65 147.3 90.6 140.2 45.0 122.05 9.9 72.15 -86.65 -57.6 -100.8 L-99.4 -100.8 Q-96.0 -105.4 -96.0 -111.6 -96.0 -123.5 -104.5 -130.05 -112.05 -135.85 -123.2 -135.6 -130.95 -135.45 -137.1 -132.55 -140.1 -131.8 -141.5 -130.6 L-142.5 -129.2 Q-150.4 -123.1 -150.4 -113.6 -150.4 -107.2 -145.2 -101.6 -143.8 -100.1 -142.15 -98.85 L-147.95 -97.05 Q-167.95 -90.15 -187.0 -75.2 -203.75 -62.1 -214.9 -47.0 -222.3 -37.0 -224.55 -29.85 -245.3 -32.6 -254.85 -27.15 -258.4 -25.1 -260.95 -21.6 L-264.4 -16.0 Q-267.0 -11.95 -276.0 -4.35 -275.2 -6.75 -275.2 -9.6 L-275.35 -11.95 Q-275.2 -13.15 -275.2 -14.4 -275.2 -25.2 -283.2 -28.7 -290.05 -31.7 -300.8 -28.75 -309.8 -26.3 -316.9 -21.1 L-319.75 -19.4 Q-328.0 -13.85 -328.0 -6.4 -328.0 -2.15 -325.55 2.0 -321.1 9.6 -310.4 9.6 -298.6 9.6 -290.6 7.3 L-300.9 15.2 -306.0 18.2 Q-308.4 19.45 -314.25 25.5 -333.1 40.35 -342.6 50.7 -349.95 58.65 -353.0 65.1 -351.95 66.3 -351.8 69.1 L-351.8 70.0 Q-351.8 71.2 -360.0 86.95 L-373.8 113.8 Q-375.75 117.85 -381.35 138.05 -384.1 146.8 -386.45 151.35 -384.95 164.1 -382.0 179.55 L-378.4 198.8 Q-378.4 235.35 -372.85 269.7 -365.3 316.3 -348.3 352.45 -302.3 450.3 -195.2 458.4 L-102.4 458.4 Q-84.3 453.6 -70.35 448.9 -95.5 460.45 -123.2 465.6 L-166.8 466.0 Q-169.9 466.95 -175.4 467.85 L-184.0 468.8 Q-196.6 468.8 -238.35 452.05 -278.4 435.95 -298.0 424.0 -319.55 410.8 -331.8 391.6 L-341.25 375.45 Q-346.85 365.6 -352.0 359.2 -372.6 333.35 -378.65 295.15 -379.9 287.3 -382.45 262.9 -384.55 242.85 -387.2 230.8 L-393.35 230.3 Q-390.85 229.15 -388.8 227.2 -384.0 222.55 -384.0 215.8 -384.0 208.05 -390.0 203.5 -395.15 199.55 -406.45 196.95 -412.95 195.45 -431.35 192.65 -450.6 189.75 -462.4 187.2 -473.95 185.95 -490.6 182.25 -508.4 178.3 -512.9 177.7 -523.0 176.3 -527.55 179.05 -532.8 182.3 -532.8 192.0 L-532.65 192.85 Q-534.85 190.9 -535.6 189.25 -536.55 187.1 -535.45 182.95 -534.0 177.4 -534.0 173.8 -534.0 171.8 -535.8 151.6 -537.6 131.4 -537.6 129.4 -537.6 126.0 -536.6 114.1 -535.5 101.15 -534.4 92.8 L-534.4 -141.1 -534.15 -137.95 Q-533.25 -127.45 -531.4 -111.6 L-531.4 -72.6 Q-527.45 -47.8 -525.95 -36.8 -523.4 -18.25 -523.4 -3.0 -523.4 5.35 -525.15 30.4 -526.8 54.3 -527.4 57.6 L-527.4 102.0 -530.7 129.45 -533.0 150.3 Q-533.0 151.8 -532.35 153.0 -531.15 155.4 -528.0 155.4 -522.45 155.4 -519.8 125.25 L-517.8 99.65 Q-516.55 85.0 -515.0 77.8 L-505.55 38.2 Q-499.65 14.05 -497.2 -0.8 -494.4 -17.9 -484.75 -40.5 -479.35 -53.1 -466.0 -79.4 -456.2 -98.55 -441.6 -118.4 -424.6 -141.65 -409.3 -150.1 -406.05 -151.95 -401.0 -153.8 -398.2 -154.85 -398.2 -155.9 -398.2 -158.45 -400.45 -159.9 -403.65 -161.9 -412.0 -162.6 L-432.0 -162.8 -481.55 -169.8 -513.4 -174.0 Q-525.55 -175.1 -530.4 -173.2 -533.15 -172.1 -534.4 -169.7 L-534.4 -195.2 Q-536.0 -206.0 -536.0 -230.0 -536.0 -257.0 -535.2 -264.85 -534.4 -272.7 -534.4 -299.6 -534.4 -303.95 -535.05 -314.65 -535.65 -324.75 -535.55 -330.2 -535.25 -348.15 -527.6 -357.2 -524.35 -361.05 -517.55 -367.7 -507.2 -377.85 -498.6 -383.9 -488.45 -391.05 -482.15 -391.6 -479.3 -394.7 -474.4 -397.0 -463.85 -401.9 -448.0 -401.45 -432.65 -401.05 -421.6 -396.0 -410.35 -390.9 -409.65 -383.4 L-409.8 -382.0 -409.7 -380.9 Q-410.15 -378.65 -411.8 -376.0 -414.55 -375.3 -415.6 -373.8 -416.1 -373.05 -416.15 -370.2 -419.6 -365.75 -419.6 -363.2 -419.6 -357.8 -418.65 -352.65 L-419.2 -350.4 Q-419.2 -343.65 -414.3 -339.2 -406.05 -322.0 -387.6 -322.0 -338.5 -322.0 -301.35 -337.8 L-298.15 -339.3 -295.5 -340.0 Q-270.6 -346.25 -264.75 -348.2 -259.35 -350.05 -255.15 -352.15 -251.7 -350.5 -249.6 -347.05 L-249.6 -337.5 Q-249.0 -324.75 -245.15 -318.0 -242.45 -313.2 -237.45 -309.95 L-236.7 -309.05 Q-229.25 -300.95 -213.45 -300.8 L-210.4 -300.6 -209.75 -300.6 -206.85 -300.05 -203.2 -300.25 Q-196.75 -299.95 -192.2 -295.65 -188.1 -291.8 -187.35 -286.2 L-174.95 -307.75 -164.05 -326.3 Q-158.85 -333.3 -153.5 -342.2 L-147.6 -352.4 -126.0 -382.7 Q-111.4 -402.9 -110.45 -406.05 -105.65 -409.4 -93.95 -413.0 -81.3 -416.9 -76.8 -417.2 -63.3 -420.25 -55.15 -416.1 -52.1 -417.8 -48.0 -419.15 -33.3 -423.9 -10.0 -422.55 L3.35 -421.3 9.85 -419.55 Q17.3 -417.4 24.4 -414.4 31.5 -411.4 48.35 -406.95 L52.35 -405.9 Q58.45 -403.5 63.6 -401.7 68.2 -398.8 72.0 -395.6 L88.4 -395.6 95.45 -396.75 117.5 -396.6 Q138.3 -397.15 146.75 -400.0 M429.9 403.15 Q418.7 405.55 406.4 406.4 L360.0 406.4 Q348.05 403.1 335.9 398.25 L322.6 392.7 340.85 396.55 Q376.15 403.2 424.0 403.2 L429.75 402.95 429.9 403.15 M-20.05 419.0 L-20.2 419.05 -21.2 419.7 -20.7 418.9 -20.05 419.0 M114.45 -131.95 Q118.4 -136.7 118.4 -142.8 118.4 -155.35 102.75 -162.15 89.95 -167.7 62.25 -170.9 L6.6 -175.85 -2.0 -176.65 Q-9.5 -181.45 -22.5 -186.35 -50.0 -196.65 -89.6 -203.05 -129.3 -209.5 -156.7 -208.05 -167.35 -207.5 -174.25 -205.75 -202.1 -210.35 -216.1 -208.05 -235.2 -204.9 -235.2 -188.8 -235.2 -173.3 -156.45 -162.65 -133.45 -159.55 -99.25 -156.45 L-66.8 -153.2 Q-23.6 -144.4 43.0 -134.55 76.4 -129.6 101.6 -126.4 109.7 -126.4 114.45 -131.95 M-321.2 74.7 Q-303.55 59.9 -288.8 48.8 -234.7 8.0 -210.8 8.0 -157.7 8.0 -119.4 21.7 -58.1 43.65 -24.0 100.8 -13.0 119.35 -5.5 142.5 -2.95 150.45 4.3 178.35 9.0 196.45 13.35 203.35 L13.9 204.2 Q12.9 206.45 12.05 209.1 7.35 224.1 11.2 245.6 11.2 262.0 8.0 290.0 6.0 307.7 5.25 319.8 3.2 321.45 1.35 323.65 -5.85 332.25 -8.8 348.0 -11.05 360.1 -21.2 379.9 -27.55 373.6 -40.0 373.6 -46.5 373.6 -53.35 375.5 L-67.1 379.6 Q-88.9 385.6 -124.8 385.6 -156.15 385.6 -187.05 375.25 -223.2 363.15 -250.05 339.15 -281.35 311.15 -296.65 269.65 -314.15 222.15 -309.6 159.2 -308.35 112.25 -318.85 88.4 -321.0 83.5 -323.55 79.85 L-322.95 78.55 -321.2 74.7 M-455.6 -207.4 Q-475.6 -215.2 -484.05 -226.95 -488.9 -233.7 -493.6 -246.6 -497.0 -253.55 -501.2 -266.55 L-507.8 -286.8 Q-508.7 -293.7 -512.9 -300.75 -516.85 -307.35 -521.75 -311.0 -526.8 -314.8 -530.1 -313.15 -533.8 -311.3 -533.8 -302.8 -533.8 -300.65 -531.8 -282.9 -529.8 -265.1 -529.8 -259.9 L-530.6 -246.15 Q-531.4 -232.25 -531.4 -225.4 -531.4 -221.2 -532.6 -206.0 L-533.8 -190.3 -534.05 -185.6 Q-533.85 -183.65 -531.4 -182.5 -526.7 -180.3 -496.8 -176.0 -490.75 -175.15 -484.05 -173.35 L-472.5 -170.1 Q-457.6 -166.05 -440.0 -165.4 L-409.6 -165.2 Q-405.4 -163.8 -402.8 -163.8 -402.3 -163.8 -395.6 -168.4 -388.6 -173.2 -388.6 -174.3 -388.6 -178.3 -402.3 -182.4 -409.5 -184.55 -420.4 -187.2 -428.4 -190.0 -439.4 -197.65 -450.9 -205.55 -455.6 -207.4 M-133.8 52.35 Q-156.0 43.05 -175.55 40.15 -227.3 32.45 -248.0 70.4 -251.2 75.2 -266.15 92.9 -278.95 108.0 -283.6 117.2 -286.55 123.15 -291.45 141.8 -296.0 159.2 -296.0 162.2 -296.0 174.4 -295.15 178.35 -294.5 181.45 -291.9 184.15 -287.85 188.4 -285.1 192.75 -279.75 201.3 -273.6 217.2 -261.5 221.4 -251.95 229.4 -244.2 235.85 -236.4 246.55 L-222.9 266.65 Q-214.35 279.45 -207.2 287.6 -192.55 304.15 -177.6 326.0 -174.8 330.1 -166.25 333.8 L-149.2 340.4 Q-148.25 340.75 -144.65 343.6 -140.3 347.0 -136.95 349.0 -124.7 356.4 -110.0 356.4 -108.35 356.4 -103.05 354.25 -96.05 351.2 -91.75 349.5 -74.8 342.75 -64.4 343.2 -51.6 324.3 -39.15 303.95 -14.4 263.35 -14.4 253.0 -14.4 241.55 -22.45 202.0 -29.75 166.05 -32.0 160.0 -42.55 132.3 -55.55 113.25 -73.7 86.6 -100.4 69.6 -115.95 59.85 -133.8 52.35" fill="#999999" fill-rule="evenodd" stroke="none"/>
    <path d="M-13.05 -430.05 Q-15.25 -431.9 -16.3 -434.15 -17.6 -436.95 -17.6 -441.8 -17.6 -447.8 -15.65 -451.6 -13.55 -455.65 -8.55 -458.75 -0.5 -463.75 27.6 -471.2 34.2 -472.9 40.55 -470.1 L52.9 -462.55 Q61.75 -456.8 70.0 -454.05 81.95 -450.0 97.2 -450.0 L110.8 -450.4 Q111.7 -453.2 121.95 -457.6 133.2 -462.4 142.4 -462.4 157.8 -462.4 162.05 -452.35 163.35 -449.25 163.4 -445.45 L163.2 -442.2 Q163.2 -436.0 160.9 -430.4 158.5 -424.75 158.4 -415.2 158.4 -412.7 156.65 -409.1 154.45 -404.7 150.8 -402.0 149.4 -400.9 146.75 -400.0 138.3 -397.15 117.5 -396.6 L95.45 -396.75 84.8 -396.8 Q77.85 -396.8 63.6 -401.7 58.45 -403.5 52.35 -405.9 63.7 -403.0 65.2 -403.0 68.45 -403.0 70.8 -404.25 73.8 -405.8 73.8 -408.7 73.8 -411.15 41.95 -421.15 12.25 -430.5 4.2 -431.8 L4.6 -432.4 7.5 -436.2 Q9.0 -438.15 9.0 -439.6 L9.0 -439.8 Q18.7 -439.9 21.0 -449.4 21.85 -452.75 24.45 -456.65 26.6 -459.85 26.6 -462.3 26.6 -469.15 19.05 -466.5 12.9 -464.4 8.4 -459.8 -6.1 -464.7 -11.8 -451.45 -13.6 -447.3 -14.25 -441.85 L-14.6 -437.0 Q-14.85 -434.3 -13.8 -431.6 L-13.05 -430.05 M288.75 -277.05 L289.6 -291.6 Q289.6 -298.35 297.9 -304.0 297.45 -303.4 297.3 -302.6 297.05 -301.45 297.5 -299.35 297.95 -297.35 297.8 -296.8 L295.05 -290.15 Q293.4 -286.55 293.4 -284.8 L291.0 -274.8 Q288.6 -264.2 288.6 -260.5 L289.2 -249.6 Q289.7 -242.45 289.4 -237.4 289.1 -232.25 303.25 -224.35 317.05 -216.6 325.2 -216.6 330.65 -216.6 332.6 -218.4 333.8 -219.55 333.8 -222.0 333.8 -225.6 321.65 -231.3 308.55 -237.5 306.8 -241.4 307.85 -240.35 309.3 -239.65 310.75 -239.0 312.0 -239.0 313.4 -239.0 320.15 -242.9 327.3 -247.1 329.6 -247.6 L332.8 -247.0 358.0 -246.6 Q361.6 -245.4 364.4 -245.4 387.6 -245.4 394.85 -248.8 397.8 -250.2 398.8 -252.45 399.4 -253.85 399.4 -256.8 399.4 -258.05 398.95 -258.9 L398.0 -260.4 Q402.15 -261.8 407.25 -262.75 L414.55 -264.0 Q417.05 -264.5 418.6 -265.45 L419.2 -265.4 Q421.9 -265.4 424.05 -269.2 425.8 -272.35 425.8 -274.3 425.8 -275.7 425.0 -277.05 423.65 -279.4 420.4 -279.4 419.15 -279.4 417.3 -278.6 L414.6 -277.4 Q414.95 -279.15 413.8 -281.0 412.35 -283.4 409.2 -283.4 407.3 -283.4 399.25 -277.0 L393.1 -271.9 392.0 -271.0 378.4 -270.0 354.4 -269.8 350.35 -269.7 Q351.5 -272.25 352.4 -278.5 353.2 -284.25 355.4 -286.8 357.05 -288.7 367.35 -295.8 375.4 -301.35 375.4 -304.8 L375.3 -306.2 375.0 -306.6 Q383.0 -305.95 386.35 -309.05 388.2 -310.75 388.2 -312.7 388.2 -315.15 381.75 -316.55 375.5 -317.9 367.6 -317.35 358.9 -316.7 353.45 -314.0 350.05 -312.3 348.5 -310.0 L347.2 -309.8 331.55 -306.75 Q322.25 -305.0 317.2 -305.0 L312.0 -305.8 306.8 -306.6 300.95 -305.9 Q307.25 -309.55 317.1 -312.7 343.5 -321.2 377.6 -321.25 414.55 -321.4 438.1 -310.9 465.6 -298.7 465.6 -275.2 465.6 -262.0 462.6 -252.55 461.55 -249.2 460.05 -246.1 L458.85 -243.65 Q454.85 -236.45 448.45 -230.8 444.45 -227.25 439.5 -224.25 412.4 -208.0 356.0 -208.0 319.05 -208.0 300.05 -223.15 293.0 -228.8 289.35 -235.95 286.4 -241.65 286.4 -246.6 L288.0 -267.45 288.75 -277.05 M-21.2 419.7 Q-25.4 426.35 -32.85 431.75 -44.4 440.1 -70.35 448.9 -84.3 453.6 -102.4 458.4 L-195.2 458.4 Q-302.3 450.3 -348.3 352.45 -365.3 316.3 -372.85 269.7 -378.4 235.35 -378.4 198.8 L-382.0 179.55 Q-384.95 164.1 -386.45 151.35 -384.1 146.8 -381.35 138.05 -375.75 117.85 -373.8 113.8 L-360.0 86.95 Q-351.8 71.2 -351.8 70.0 L-351.8 69.1 -348.55 68.45 Q-345.95 60.9 -329.1 41.7 -320.0 31.35 -314.25 25.5 -308.4 19.45 -306.0 18.2 L-300.9 15.2 Q-294.5 11.3 -285.05 4.85 -271.45 -4.5 -264.0 -8.6 -237.9 -22.9 -207.2 -21.2 L-186.4 -21.0 -184.0 -20.4 -159.2 -20.2 Q-153.6 -19.25 -134.35 -13.4 -126.8 -11.1 -121.75 -9.25 L-118.3 -8.8 Q-89.4 -4.7 -89.4 1.5 -89.4 6.6 -96.4 6.6 -101.8 6.6 -107.65 5.0 L-114.8 3.2 -144.9 0.8 Q-152.5 0.1 -154.4 -1.2 L-212.0 -1.2 Q-234.1 3.85 -255.2 17.2 -264.45 23.0 -288.4 41.8 L-301.3 53.1 Q-310.65 61.55 -317.0 66.4 -317.9 67.1 -319.55 70.9 L-321.2 74.7 -322.95 78.55 -323.55 79.85 Q-321.0 83.5 -318.85 88.4 -308.35 112.25 -309.6 159.2 -314.15 222.15 -296.65 269.65 -281.35 311.15 -250.05 339.15 -223.2 363.15 -187.05 375.25 -156.15 385.6 -124.8 385.6 -88.9 385.6 -67.1 379.6 L-53.35 375.5 Q-46.5 373.6 -40.0 373.6 -27.55 373.6 -21.2 379.9 -19.65 381.45 -18.45 383.35 -15.2 388.55 -15.2 395.2 -15.2 407.45 -19.1 415.8 L-20.7 418.9 -21.2 419.7 M-534.4 -141.1 Q-535.4 -154.25 -535.4 -165.0 -535.4 -167.8 -534.4 -169.7 -533.15 -172.1 -530.4 -173.2 -525.55 -175.1 -513.4 -174.0 L-481.55 -169.8 -432.0 -162.8 -412.0 -162.6 Q-403.65 -161.9 -400.45 -159.9 -398.2 -158.45 -398.2 -155.9 -398.2 -154.85 -401.0 -153.8 -406.05 -151.95 -409.3 -150.1 -424.6 -141.65 -441.6 -118.4 -456.2 -98.55 -466.0 -79.4 -479.35 -53.1 -484.75 -40.5 -494.4 -17.9 -497.2 -0.8 -499.65 14.05 -505.55 38.2 L-515.0 77.8 Q-516.55 85.0 -517.8 99.65 L-519.8 125.25 Q-522.45 155.4 -528.0 155.4 -531.15 155.4 -532.35 153.0 -533.0 151.8 -533.0 150.3 L-530.7 129.45 -527.4 102.0 -527.4 57.6 Q-526.8 54.3 -525.15 30.4 -523.4 5.35 -523.4 -3.0 -523.4 -18.25 -525.95 -36.8 -527.45 -47.8 -531.4 -72.6 L-531.4 -111.6 Q-533.25 -127.45 -534.15 -137.95 L-534.4 -141.1 M-402.9 -387.9 Q-397.95 -393.05 -391.85 -395.8 -384.25 -399.25 -373.1 -399.55 L-352.6 -398.95 Q-339.7 -398.45 -331.2 -400.0 L-265.6 -400.0 Q-251.85 -399.45 -244.2 -391.65 L-241.4 -388.3 -237.85 -394.85 -235.85 -398.25 -235.2 -396.2 Q-234.3 -394.8 -230.85 -393.7 -222.65 -391.15 -215.1 -387.5 L-225.6 -387.6 Q-232.3 -388.75 -234.05 -384.2 -234.6 -382.75 -234.6 -376.8 -234.6 -370.1 -230.0 -367.8 -233.1 -363.7 -233.6 -362.3 -233.8 -361.7 -233.8 -358.2 -233.8 -353.6 -233.2 -350.45 -232.65 -347.55 -230.8 -342.0 -235.9 -338.15 -243.35 -337.15 -245.65 -336.85 -246.4 -336.0 -247.4 -334.85 -247.4 -331.5 -247.4 -330.2 -244.45 -325.5 -240.95 -320.0 -236.4 -315.0 -230.35 -308.4 -224.35 -304.8 L-229.75 -306.3 Q-234.15 -307.75 -237.45 -309.95 -242.45 -313.2 -245.15 -318.0 -249.0 -324.75 -249.6 -337.5 L-249.6 -347.05 -249.6 -355.45 Q-252.05 -353.7 -255.15 -352.15 -259.35 -350.05 -264.75 -348.2 -270.6 -346.25 -295.5 -340.0 L-298.15 -339.3 Q-319.95 -333.75 -336.0 -328.0 L-392.0 -328.0 Q-405.05 -333.1 -411.0 -336.8 L-409.2 -336.6 Q-405.85 -336.6 -403.0 -341.45 -400.95 -345.05 -400.6 -347.4 L-395.2 -347.6 Q-383.1 -347.2 -380.8 -347.55 -379.15 -347.85 -378.65 -348.8 -378.3 -349.45 -378.2 -351.15 L-373.6 -351.0 Q-362.95 -351.0 -360.2 -352.8 -359.0 -353.55 -359.0 -356.4 -359.0 -360.1 -362.6 -361.15 L-371.85 -361.7 -384.25 -362.25 Q-391.8 -363.35 -397.4 -367.0 -393.75 -368.5 -392.5 -370.65 -391.8 -371.85 -391.8 -373.9 -391.8 -377.45 -386.8 -378.8 L-375.8 -379.9 -364.8 -380.95 Q-359.8 -382.15 -359.8 -385.5 -359.8 -386.9 -360.45 -388.25 -361.7 -390.7 -364.8 -390.6 L-395.2 -390.6 Q-399.05 -389.2 -402.9 -387.9 M-152.9 -426.25 L-151.7 -426.1 -152.6 -426.0 -152.9 -426.25 M-135.95 -423.25 Q-129.2 -421.65 -123.9 -419.5 -110.4 -413.95 -110.4 -406.4 L-110.45 -406.05 Q-111.4 -402.9 -126.0 -382.7 L-147.6 -352.4 -153.5 -342.2 Q-158.85 -333.3 -164.05 -326.3 L-164.85 -325.3 Q-182.3 -302.4 -196.8 -302.4 L-206.4 -302.6 Q-205.4 -304.05 -205.4 -305.7 -205.4 -308.75 -208.15 -310.35 -209.65 -311.25 -214.6 -312.55 -225.25 -315.45 -228.4 -322.0 L-222.35 -323.4 Q-218.65 -324.2 -217.2 -326.6 L-216.0 -330.7 Q-214.75 -334.0 -212.0 -334.0 L-200.0 -334.05 Q-197.4 -334.5 -197.4 -338.3 -197.4 -340.7 -198.45 -341.65 -199.1 -342.3 -201.35 -343.0 -207.4 -344.9 -211.8 -350.0 -209.9 -350.2 -208.5 -351.8 -207.4 -353.1 -207.0 -354.6 -205.25 -354.35 -202.25 -352.95 -199.65 -351.8 -196.8 -351.8 -193.05 -351.8 -191.4 -353.6 -190.2 -354.9 -190.2 -356.9 -190.2 -358.0 -192.95 -360.25 -196.25 -362.95 -197.4 -365.2 -196.95 -365.9 -195.6 -369.35 -194.2 -373.0 -194.2 -373.6 L-195.4 -375.75 -196.6 -377.8 -195.4 -379.9 -194.5 -381.4 -157.6 -381.4 Q-155.55 -380.95 -153.95 -383.05 -152.6 -384.8 -152.6 -386.3 -152.6 -388.55 -154.85 -389.9 -159.6 -392.75 -172.6 -391.6 -173.05 -394.7 -175.35 -396.3 -176.85 -397.35 -180.3 -398.25 -184.35 -399.3 -185.8 -400.0 -188.7 -401.35 -190.0 -404.0 -185.15 -408.4 -178.95 -411.8 -171.9 -415.6 -167.2 -415.6 L-140.0 -415.8 Q-137.8 -416.1 -136.35 -417.6 -135.0 -419.05 -135.0 -420.7 -135.0 -422.15 -135.95 -423.25 M-5.8 -426.1 L-6.1 -426.2 -5.85 -426.2 -5.8 -426.1 M57.6 -450.2 Q53.85 -461.35 45.35 -456.7 42.25 -455.05 39.75 -451.9 37.4 -449.0 37.4 -447.4 37.4 -445.15 46.0 -440.0 55.75 -434.2 64.0 -434.2 66.7 -434.2 68.45 -435.2 70.6 -436.5 70.6 -439.1 70.6 -442.85 65.1 -444.75 58.85 -446.9 57.6 -450.2 M314.5 -271.05 Q314.2 -269.45 314.2 -267.2 313.95 -263.65 315.0 -260.5 L305.8 -261.2 305.35 -261.25 Q305.0 -261.45 305.0 -262.7 305.0 -266.55 309.7 -269.05 L314.5 -271.05 M131.4 -448.7 Q131.4 -452.75 128.2 -453.5 125.5 -454.15 121.2 -452.35 117.3 -450.7 114.2 -448.05 111.0 -445.35 111.0 -443.6 111.0 -441.55 111.6 -440.6 113.15 -438.2 118.0 -438.2 124.1 -438.2 128.0 -441.8 131.4 -444.95 131.4 -448.7 M401.6 -288.4 L401.6 -284.0 404.8 -286.8 402.6 -288.2 Q401.6 -288.7 401.6 -288.4 M324.2 -265.2 L325.65 -264.8 328.4 -263.8 326.45 -263.6 324.8 -263.6 324.2 -265.2 M342.65 -283.4 Q341.9 -277.3 340.6 -274.2 L340.4 -274.2 340.55 -274.7 Q341.8 -278.3 341.8 -282.8 L342.65 -283.4 M326.2 -275.55 L326.2 -275.6 326.2 -275.55 M329.8 -291.2 Q329.15 -290.55 325.25 -288.75 321.2 -286.95 320.2 -287.0 322.0 -287.7 326.15 -289.7 329.4 -291.25 329.8 -291.2 M388.55 -259.75 L388.3 -259.7 Q386.15 -259.1 384.4 -258.2 L356.4 -258.2 355.65 -258.6 363.25 -259.55 388.55 -259.75 M432.0 -275.6 L432.0 -270.4 432.75 -272.55 433.2 -275.6 432.45 -275.9 Q432.0 -275.9 432.0 -275.6 M-414.25 -365.6 L-413.1 -364.45 Q-409.75 -361.25 -404.4 -358.4 L-401.3 -356.85 Q-405.7 -356.0 -408.9 -354.15 -414.6 -350.85 -414.6 -345.3 -415.05 -342.9 -414.6 -340.8 L-413.85 -338.8 -414.3 -339.2 Q-419.2 -343.65 -419.2 -350.4 L-418.65 -352.65 Q-417.6 -356.25 -414.4 -365.25 L-414.25 -365.6 M-410.35 -376.3 L-409.15 -379.2 Q-408.3 -377.75 -406.0 -376.6 L-410.35 -376.3 M-455.6 -207.4 Q-450.9 -205.55 -439.4 -197.65 -428.4 -190.0 -420.4 -187.2 -409.5 -184.55 -402.3 -182.4 -388.6 -178.3 -388.6 -174.3 -388.6 -173.2 -395.6 -168.4 -402.3 -163.8 -402.8 -163.8 -405.4 -163.8 -409.6 -165.2 L-440.0 -165.4 Q-457.6 -166.05 -472.5 -170.1 L-484.05 -173.35 Q-490.75 -175.15 -496.8 -176.0 -526.7 -180.3 -531.4 -182.5 -533.85 -183.65 -534.05 -185.6 L-533.8 -190.3 -532.6 -206.0 Q-531.4 -221.2 -531.4 -225.4 -531.4 -232.25 -530.6 -246.15 L-529.8 -259.9 Q-529.8 -265.1 -531.8 -282.9 -533.8 -300.65 -533.8 -302.8 -533.8 -311.3 -530.1 -313.15 -526.8 -314.8 -521.75 -311.0 -516.85 -307.35 -512.9 -300.75 -508.7 -293.7 -507.8 -286.8 L-501.2 -266.55 Q-497.0 -253.55 -493.6 -246.6 -488.9 -233.7 -484.05 -226.95 -475.6 -215.2 -455.6 -207.4 M-324.45 -0.25 Q-323.2 1.0 -320.8 1.0 -316.7 1.0 -314.95 -4.2 L-313.9 -8.1 Q-313.3 -10.1 -312.6 -10.6 -305.55 -15.5 -296.2 -16.15 -292.75 -16.4 -291.75 -17.0 -290.2 -17.85 -290.2 -20.7 -290.2 -25.0 -295.75 -25.75 -300.95 -26.45 -308.0 -23.85 -315.4 -21.2 -320.25 -16.4 -325.8 -11.0 -325.8 -4.7 L-325.8 -3.6 Q-326.4 -5.7 -326.4 -8.0 -326.4 -13.75 -318.4 -20.0 L-316.9 -21.1 Q-309.8 -26.3 -300.8 -28.75 -290.05 -31.7 -283.2 -28.7 -275.2 -25.2 -275.2 -14.4 -275.2 -13.15 -275.35 -11.95 -276.15 -5.2 -281.65 0.05 -290.0 8.0 -306.4 8.0 -319.25 8.0 -324.05 0.4 L-324.45 -0.25 M-142.15 -98.85 Q-143.8 -100.1 -145.2 -101.6 -150.4 -107.2 -150.4 -113.6 -150.4 -123.1 -142.5 -129.2 -143.4 -127.45 -143.4 -124.3 -143.4 -123.0 -137.85 -111.15 -134.65 -104.35 -132.4 -101.1 -137.25 -100.25 -142.15 -98.85 M-137.1 -132.55 Q-130.95 -135.45 -123.2 -135.6 -112.05 -135.85 -104.5 -130.05 -96.0 -123.5 -96.0 -111.6 -96.0 -105.4 -99.4 -100.8 L-104.0 -100.8 Q-113.7 -102.8 -123.95 -102.1 -123.8 -102.75 -123.8 -103.5 -123.8 -104.5 -125.35 -111.4 -127.15 -119.6 -128.6 -121.8 L-122.0 -122.45 -119.2 -122.8 Q-108.2 -122.35 -106.4 -122.6 -105.1 -122.8 -104.8 -123.75 -104.6 -124.35 -104.6 -126.8 -104.6 -130.45 -108.15 -131.9 -113.5 -134.15 -128.8 -133.6 L-137.1 -132.55" fill="#cccccc" fill-rule="evenodd" stroke="none"/>
    <path d="M-121.75 79.85 Q-118.15 80.1 -115.1 81.05 -102.4 85.05 -102.4 100.8 -102.4 110.65 -110.45 114.6 -115.4 116.95 -129.7 118.65 -145.2 120.4 -152.7 123.15 -165.35 127.8 -172.0 138.4 -176.65 145.7 -179.0 163.75 -180.8 177.3 -180.8 191.2 -180.8 197.55 -176.8 218.35 L-174.95 228.25 -170.65 236.5 Q-166.4 244.5 -166.4 246.2 -166.4 252.95 -171.25 257.7 -174.15 260.45 -177.75 261.6 -181.75 265.6 -188.8 265.6 -205.65 265.6 -210.9 235.1 -214.85 225.15 -218.05 211.65 -221.85 195.5 -224.1 176.15 -225.6 163.05 -225.6 158.8 L-225.75 145.2 Q-225.8 137.35 -225.15 131.75 -223.35 116.45 -214.8 103.6 -210.25 94.5 -206.8 89.5 -200.55 80.3 -191.2 78.8 -144.0 70.85 -126.9 77.15 -123.85 78.25 -121.75 79.85 M-145.0 93.2 Q-145.0 96.9 -144.8 97.4 -143.5 101.0 -137.6 101.0 -133.75 101.0 -131.95 100.15 -131.5 99.95 -129.4 98.2 -117.0 98.9 -112.85 96.1 -111.0 94.85 -111.0 92.5 -111.0 87.85 -116.3 85.15 -121.1 82.7 -128.0 82.8 -134.9 82.9 -139.7 85.45 -145.0 88.35 -145.0 93.2 M-152.25 91.4 Q-149.4 88.2 -149.4 84.5 -149.4 79.4 -154.1 76.95 -158.25 74.8 -164.4 75.4 -170.45 76.05 -174.7 78.9 -179.4 82.1 -179.4 86.5 -179.4 89.55 -177.0 91.65 -172.75 95.4 -161.6 95.4 -155.75 95.4 -152.25 91.4 M-183.6 94.75 Q-189.85 94.05 -193.9 96.95 -196.05 98.5 -197.2 100.9 -199.9 103.1 -202.55 106.5 -205.35 110.1 -205.8 112.0 -207.95 121.55 -208.2 125.3 L-208.2 136.3 -208.45 140.5 Q-208.55 145.3 -208.0 149.25 -206.3 161.8 -198.4 161.8 -195.35 161.8 -193.8 160.05 -192.6 158.65 -192.6 156.7 L-193.4 149.05 -194.2 141.4 Q-194.2 129.15 -183.0 118.6 L-179.05 115.2 Q-174.4 114.5 -171.45 111.6 -168.6 108.8 -168.6 106.2 -168.6 102.05 -173.3 98.6 -177.75 95.35 -183.6 94.75" fill="#0000ff" fill-rule="evenodd" stroke="none"/>
    <path d="M-121.75 79.85 Q-123.85 78.25 -126.9 77.15 -144.0 70.85 -191.2 78.8 -200.55 80.3 -206.8 89.5 -210.25 94.5 -214.8 103.6 -223.35 116.45 -225.15 131.75 -225.8 137.35 -225.75 145.2 L-225.6 158.8 Q-225.6 163.05 -224.1 176.15 -221.85 195.5 -218.05 211.65 -214.85 225.15 -210.9 235.1 -205.65 265.6 -188.8 265.6 -181.75 265.6 -177.75 261.6 -174.15 260.45 -171.25 257.7 -166.4 252.95 -166.4 246.2 -166.4 244.5 -170.65 236.5 L-174.95 228.25 -176.8 218.35 Q-180.8 197.55 -180.8 191.2 -180.8 177.3 -179.0 163.75 -176.65 145.7 -172.0 138.4 -165.35 127.8 -152.7 123.15 -145.2 120.4 -129.7 118.65 -115.4 116.95 -110.45 114.6 -102.4 110.65 -102.4 100.8 -102.4 85.05 -115.1 81.05 -118.15 80.1 -121.75 79.85 M-133.8 52.35 Q-115.95 59.85 -100.4 69.6 -73.7 86.6 -55.55 113.25 -42.55 132.3 -32.0 160.0 -29.75 166.05 -22.45 202.0 -14.4 241.55 -14.4 253.0 -14.4 263.35 -39.15 303.95 -51.6 324.3 -64.4 343.2 -74.8 342.75 -91.75 349.5 -96.05 351.2 -103.05 354.25 -108.35 356.4 -110.0 356.4 -124.7 356.4 -136.95 349.0 -140.3 347.0 -144.65 343.6 -148.25 340.75 -149.2 340.4 L-166.25 333.8 Q-174.8 330.1 -177.6 326.0 -192.55 304.15 -207.2 287.6 -214.35 279.45 -222.9 266.65 L-236.4 246.55 Q-244.2 235.85 -251.95 229.4 -261.5 221.4 -273.6 217.2 -279.75 201.3 -285.1 192.75 -287.85 188.4 -291.9 184.15 -294.5 181.45 -295.15 178.35 -296.0 174.4 -296.0 162.2 -296.0 159.2 -291.45 141.8 -286.55 123.15 -283.6 117.2 -278.95 108.0 -266.15 92.9 -251.2 75.2 -248.0 70.4 -227.3 32.45 -175.55 40.15 -156.0 43.05 -133.8 52.35" fill="#000066" fill-rule="evenodd" stroke="none"/>
    <path d="M297.9 -304.0 Q298.8 -305.3 300.95 -305.9 L306.8 -306.6 312.0 -305.8 317.2 -305.0 Q322.25 -305.0 331.55 -306.75 L347.2 -309.8 348.5 -310.0 Q350.05 -312.3 353.45 -314.0 358.9 -316.7 367.6 -317.35 375.5 -317.9 381.75 -316.55 388.2 -315.15 388.2 -312.7 388.2 -310.75 386.35 -309.05 383.0 -305.95 375.0 -306.6 L375.3 -306.2 375.4 -304.8 Q375.4 -301.35 367.35 -295.8 357.05 -288.7 355.4 -286.8 353.2 -284.25 352.4 -278.5 351.5 -272.25 350.35 -269.7 L354.4 -269.8 378.4 -270.0 392.0 -271.0 393.1 -271.9 399.25 -277.0 Q407.3 -283.4 409.2 -283.4 412.35 -283.4 413.8 -281.0 414.95 -279.15 414.6 -277.4 L417.3 -278.6 Q419.15 -279.4 420.4 -279.4 423.65 -279.4 425.0 -277.05 425.8 -275.7 425.8 -274.3 425.8 -272.35 424.05 -269.2 421.9 -265.4 419.2 -265.4 L418.6 -265.45 Q417.05 -264.5 414.55 -264.0 L407.25 -262.75 Q402.15 -261.8 398.0 -260.4 L398.95 -258.9 Q399.4 -258.05 399.4 -256.8 399.4 -253.85 398.8 -252.45 397.8 -250.2 394.85 -248.8 387.6 -245.4 364.4 -245.4 361.6 -245.4 358.0 -246.6 L332.8 -247.0 329.6 -247.6 Q327.3 -247.1 320.15 -242.9 313.4 -239.0 312.0 -239.0 310.75 -239.0 309.3 -239.65 307.85 -240.35 306.8 -241.4 308.55 -237.5 321.65 -231.3 333.8 -225.6 333.8 -222.0 333.8 -219.55 332.6 -218.4 330.65 -216.6 325.2 -216.6 317.05 -216.6 303.25 -224.35 289.1 -232.25 289.4 -237.4 289.7 -242.45 289.2 -249.6 L288.6 -260.5 Q288.6 -264.2 291.0 -274.8 L293.4 -284.8 Q293.4 -286.55 295.05 -290.15 L297.8 -296.8 Q297.95 -297.35 297.5 -299.35 297.05 -301.45 297.3 -302.6 297.45 -303.4 297.9 -304.0 M-409.65 -383.4 Q-409.15 -385.65 -406.9 -386.65 L-402.9 -387.9 Q-399.05 -389.2 -395.2 -390.6 L-364.8 -390.6 Q-361.7 -390.7 -360.45 -388.25 -359.8 -386.9 -359.8 -385.5 -359.8 -382.15 -364.8 -380.95 L-375.8 -379.9 -386.8 -378.8 Q-391.8 -377.45 -391.8 -373.9 -391.8 -371.85 -392.5 -370.65 -393.75 -368.5 -397.4 -367.0 -391.8 -363.35 -384.25 -362.25 L-371.85 -361.7 -362.6 -361.15 Q-359.0 -360.1 -359.0 -356.4 -359.0 -353.55 -360.2 -352.8 -362.95 -351.0 -373.6 -351.0 L-378.2 -351.15 Q-378.3 -349.45 -378.65 -348.8 -379.15 -347.85 -380.8 -347.55 -383.1 -347.2 -395.2 -347.6 L-400.6 -347.4 Q-400.95 -345.05 -403.0 -341.45 -405.85 -336.6 -409.2 -336.6 L-411.0 -336.8 Q-412.9 -337.25 -413.85 -338.8 L-414.6 -340.8 Q-415.05 -342.9 -414.6 -345.3 -414.6 -350.85 -408.9 -354.15 -405.7 -356.0 -401.3 -356.85 L-404.4 -358.4 Q-409.75 -361.25 -413.1 -364.45 L-414.25 -365.6 Q-416.2 -367.8 -416.2 -369.2 L-416.15 -370.2 Q-416.1 -373.05 -415.6 -373.8 -414.55 -375.3 -411.8 -376.0 L-410.35 -376.3 -406.0 -376.6 Q-408.3 -377.75 -409.15 -379.2 L-409.25 -379.3 -409.7 -380.9 -409.8 -382.0 -409.65 -383.4 M-235.85 -398.25 Q-236.2 -400.0 -236.2 -402.8 -236.2 -412.45 -222.2 -419.65 -206.3 -427.85 -179.2 -428.4 L-156.8 -428.2 -154.75 -427.25 -152.9 -426.25 -152.6 -426.0 -151.7 -426.1 Q-141.2 -427.1 -137.1 -424.3 L-135.95 -423.25 Q-135.0 -422.15 -135.0 -420.7 -135.0 -419.05 -136.35 -417.6 -137.8 -416.1 -140.0 -415.8 L-167.2 -415.6 Q-171.9 -415.6 -178.95 -411.8 -185.15 -408.4 -190.0 -404.0 -188.7 -401.35 -185.8 -400.0 -184.35 -399.3 -180.3 -398.25 -176.85 -397.35 -175.35 -396.3 -173.05 -394.7 -172.6 -391.6 -159.6 -392.75 -154.85 -389.9 -152.6 -388.55 -152.6 -386.3 -152.6 -384.8 -153.95 -383.05 -155.55 -380.95 -157.6 -381.4 L-194.5 -381.4 -195.4 -379.9 -196.6 -377.8 -195.4 -375.75 -194.2 -373.6 Q-194.2 -373.0 -195.6 -369.35 -196.95 -365.9 -197.4 -365.2 -196.25 -362.95 -192.95 -360.25 -190.2 -358.0 -190.2 -356.9 -190.2 -354.9 -191.4 -353.6 -193.05 -351.8 -196.8 -351.8 -199.65 -351.8 -202.25 -352.95 -205.25 -354.35 -207.0 -354.6 -207.4 -353.1 -208.5 -351.8 -209.9 -350.2 -211.8 -350.0 -207.4 -344.9 -201.35 -343.0 -199.1 -342.3 -198.45 -341.65 -197.4 -340.7 -197.4 -338.3 -197.4 -334.5 -200.0 -334.05 L-212.0 -334.0 Q-214.75 -334.0 -216.0 -330.7 L-217.2 -326.6 Q-218.65 -324.2 -222.35 -323.4 L-228.4 -322.0 Q-225.25 -315.45 -214.6 -312.55 -209.65 -311.25 -208.15 -310.35 -205.4 -308.75 -205.4 -305.7 -205.4 -304.05 -206.4 -302.6 L-206.6 -302.4 Q-207.8 -300.85 -209.75 -300.6 L-210.4 -300.6 -213.45 -300.8 Q-218.85 -301.5 -224.35 -304.8 -230.35 -308.4 -236.4 -315.0 -240.95 -320.0 -244.45 -325.5 -247.4 -330.2 -247.4 -331.5 -247.4 -334.85 -246.4 -336.0 -245.65 -336.85 -243.35 -337.15 -235.9 -338.15 -230.8 -342.0 -232.65 -347.55 -233.2 -350.45 -233.8 -353.6 -233.8 -358.2 -233.8 -361.7 -233.6 -362.3 -233.1 -363.7 -230.0 -367.8 -234.6 -370.1 -234.6 -376.8 -234.6 -382.75 -234.05 -384.2 -232.3 -388.75 -225.6 -387.6 L-215.1 -387.5 Q-222.65 -391.15 -230.85 -393.7 -234.3 -394.8 -235.2 -396.2 L-235.85 -398.25 M3.35 -421.3 L0.3 -422.15 Q-3.6 -423.3 -5.0 -424.9 L-5.8 -426.1 -5.85 -426.2 -6.1 -426.2 Q-10.9 -426.5 -13.05 -430.05 L-13.8 -431.6 Q-14.85 -434.3 -14.6 -437.0 L-14.25 -441.85 Q-13.6 -447.3 -11.8 -451.45 -6.1 -464.7 8.4 -459.8 12.9 -464.4 19.05 -466.5 26.6 -469.15 26.6 -462.3 26.6 -459.85 24.45 -456.65 21.85 -452.75 21.0 -449.4 18.7 -439.9 9.0 -439.8 L9.0 -439.6 Q9.0 -438.15 7.5 -436.2 L4.6 -432.4 4.2 -431.8 Q12.25 -430.5 41.95 -421.15 73.8 -411.15 73.8 -408.7 73.8 -405.8 70.8 -404.25 68.45 -403.0 65.2 -403.0 63.7 -403.0 52.35 -405.9 L48.35 -406.95 Q31.5 -411.4 24.4 -414.4 17.3 -417.4 9.85 -419.55 L3.35 -421.3 M57.6 -450.2 Q58.85 -446.9 65.1 -444.75 70.6 -442.85 70.6 -439.1 70.6 -436.5 68.45 -435.2 66.7 -434.2 64.0 -434.2 55.75 -434.2 46.0 -440.0 37.4 -445.15 37.4 -447.4 37.4 -449.0 39.75 -451.9 42.25 -455.05 45.35 -456.7 53.85 -461.35 57.6 -450.2 M131.4 -448.7 Q131.4 -444.95 128.0 -441.8 124.1 -438.2 118.0 -438.2 113.15 -438.2 111.6 -440.6 111.0 -441.55 111.0 -443.6 111.0 -445.35 114.2 -448.05 117.3 -450.7 121.2 -452.35 125.5 -454.15 128.2 -453.5 131.4 -452.75 131.4 -448.7 M314.5 -271.05 L309.7 -269.05 Q305.0 -266.55 305.0 -262.7 305.0 -261.45 305.35 -261.25 L305.8 -261.2 315.0 -260.5 Q313.95 -263.65 314.2 -267.2 314.2 -269.45 314.5 -271.05 M388.55 -259.75 L363.25 -259.55 355.65 -258.6 356.4 -258.2 384.4 -258.2 Q386.15 -259.1 388.3 -259.7 L388.55 -259.75 M329.8 -291.2 Q329.4 -291.25 326.15 -289.7 322.0 -287.7 320.2 -287.0 321.2 -286.95 325.25 -288.75 329.15 -290.55 329.8 -291.2 M326.2 -275.55 L326.2 -275.6 326.2 -275.55 M342.65 -283.4 L341.8 -282.8 Q341.8 -278.3 340.55 -274.7 L340.4 -274.2 340.6 -274.2 Q341.9 -277.3 342.65 -283.4 M324.2 -265.2 L324.8 -263.6 326.45 -263.6 328.4 -263.8 325.65 -264.8 324.2 -265.2 M-325.8 -3.6 L-325.8 -4.7 Q-325.8 -11.0 -320.25 -16.4 -315.4 -21.2 -308.0 -23.85 -300.95 -26.45 -295.75 -25.75 -290.2 -25.0 -290.2 -20.7 -290.2 -17.85 -291.75 -17.0 -292.75 -16.4 -296.2 -16.15 -305.55 -15.5 -312.6 -10.6 -313.3 -10.1 -313.9 -8.1 L-314.95 -4.2 Q-316.7 1.0 -320.8 1.0 -323.2 1.0 -324.45 -0.25 L-325.4 -1.75 -325.8 -3.6 M-142.5 -129.2 L-141.5 -130.6 Q-140.1 -131.8 -137.1 -132.55 L-128.8 -133.6 Q-113.5 -134.15 -108.15 -131.9 -104.6 -130.45 -104.6 -126.8 -104.6 -124.35 -104.8 -123.75 -105.1 -122.8 -106.4 -122.6 -108.2 -122.35 -119.2 -122.8 L-122.0 -122.45 -128.6 -121.8 Q-127.15 -119.6 -125.35 -111.4 -123.8 -104.5 -123.8 -103.5 -123.8 -102.75 -123.95 -102.1 -124.3 -100.65 -125.4 -99.6 -126.95 -98.2 -129.2 -98.2 -130.45 -98.2 -132.4 -101.1 -134.65 -104.35 -137.85 -111.15 -143.4 -123.0 -143.4 -124.3 -143.4 -127.45 -142.5 -129.2 M-152.25 91.4 Q-155.75 95.4 -161.6 95.4 -172.75 95.4 -177.0 91.65 -179.4 89.55 -179.4 86.5 -179.4 82.1 -174.7 78.9 -170.45 76.05 -164.4 75.4 -158.25 74.8 -154.1 76.95 -149.4 79.4 -149.4 84.5 -149.4 88.2 -152.25 91.4 M-145.0 93.2 Q-145.0 88.35 -139.7 85.45 -134.9 82.9 -128.0 82.8 -121.1 82.7 -116.3 85.15 -111.0 87.85 -111.0 92.5 -111.0 94.85 -112.85 96.1 -117.0 98.9 -129.4 98.2 -131.5 99.95 -131.95 100.15 -133.75 101.0 -137.6 101.0 -143.5 101.0 -144.8 97.4 -145.0 96.9 -145.0 93.2 M-183.6 94.75 Q-177.75 95.35 -173.3 98.6 -168.6 102.05 -168.6 106.2 -168.6 108.8 -171.45 111.6 -174.4 114.5 -179.05 115.2 L-183.0 118.6 Q-194.2 129.15 -194.2 141.4 L-193.4 149.05 -192.6 156.7 Q-192.6 158.65 -193.8 160.05 -195.35 161.8 -198.4 161.8 -206.3 161.8 -208.0 149.25 -208.55 145.3 -208.45 140.5 L-208.2 136.3 -208.2 125.3 Q-207.95 121.55 -205.8 112.0 -205.35 110.1 -202.55 106.5 -199.9 103.1 -197.2 100.9 -196.05 98.5 -193.9 96.95 -189.85 94.05 -183.6 94.75" fill="#ffffff" fill-rule="evenodd" stroke="none"/>
    <path d="M-285.85 -393.35 Q-306.05 -387.7 -312.6 -386.95 -329.5 -385.0 -337.75 -393.35 -341.2 -398.2 -325.15 -399.7 -311.95 -400.95 -292.25 -399.65 -273.55 -398.4 -269.15 -396.4 -264.3 -394.25 -285.85 -393.35" fill="#373535" fill-rule="evenodd" stroke="none"/>
    <path d="M373.25 -252.25 Q355.9 -255.25 351.25 -255.45 338.7 -255.95 330.25 -250.65 350.15 -271.85 408.05 -263.65 402.95 -253.65 393.2 -251.5 386.35 -250.0 373.25 -252.25" fill="#373535" fill-rule="evenodd" stroke="none"/>
    <path d="M220.4 35.95 L219.85 57.2 Q219.5 69.55 220.0 73.6 213.05 84.1 213.1 59.35 214.4 28.65 213.5 21.7 220.45 11.25 220.4 35.95" fill="#373535" fill-rule="evenodd" stroke="none"/>
    <path d="M415.8 -313.35 Q408.5 -312.85 399.4 -308.35 L382.5 -298.85 Q371.4 -292.55 362.65 -289.55 362.85 -295.1 366.9 -298.3 369.3 -300.2 375.65 -302.55 381.95 -304.85 384.35 -306.75 388.4 -309.95 388.6 -315.5 375.95 -317.35 361.3 -314.55 352.05 -312.8 336.65 -307.75 321.25 -302.75 315.3 -301.6 304.6 -299.6 297.8 -302.55 296.45 -290.45 293.7 -271.9 291.6 -254.5 291.3 -231.2 310.3 -216.35 344.65 -211.8 377.5 -207.4 408.0 -214.3 440.3 -221.6 453.55 -238.25 468.55 -257.2 453.45 -283.1 450.8 -276.55 448.05 -272.25 444.7 -266.95 440.5 -263.65 438.9 -270.3 441.15 -274.3 442.55 -276.75 447.0 -279.85 451.45 -282.95 452.8 -285.4 455.05 -289.4 453.45 -296.05 442.2 -290.9 435.85 -292.15 430.8 -293.1 429.55 -297.9 428.6 -301.85 430.35 -305.95 432.05 -309.95 433.95 -309.0 424.7 -313.9 415.8 -313.35 M466.4 -296.05 Q476.35 -258.9 464.0 -237.2 453.25 -218.3 424.4 -209.6 401.95 -202.9 362.0 -200.95 314.65 -199.8 291.3 -198.8 278.3 -204.4 296.25 -205.35 305.75 -205.85 323.75 -205.25 296.7 -217.7 286.1 -234.0 273.6 -253.2 284.85 -276.6 265.5 -291.8 241.9 -291.0 221.9 -290.3 201.55 -278.45 184.05 -268.25 172.1 -253.65 160.7 -239.75 161.6 -231.2 162.05 -227.05 170.75 -223.95 174.8 -222.5 184.45 -220.45 L187.5 -219.6 Q187.85 -219.3 185.1 -219.1 181.35 -218.85 155.15 -218.25 192.65 -206.9 245.65 -198.5 276.35 -193.7 343.2 -185.8 325.2 -179.2 296.75 -182.85 286.5 -184.15 271.25 -187.25 L245.35 -192.65 Q214.1 -198.9 195.85 -197.4 170.6 -195.4 155.15 -179.3 153.35 -173.15 154.25 -168.7 154.85 -165.75 157.35 -162.1 160.25 -157.8 160.95 -155.95 162.45 -152.05 161.6 -146.9 158.3 -144.35 155.2 -151.35 151.4 -161.9 148.4 -167.75 142.95 -178.4 135.25 -181.85 125.0 -186.4 109.75 -179.3 121.0 -191.0 135.9 -209.9 L160.8 -241.7 Q191.4 -279.5 220.0 -296.05 213.75 -314.0 197.4 -344.8 180.75 -376.15 174.6 -393.35 148.05 -395.95 111.5 -391.6 L82.45 -388.2 51.35 -386.85 Q51.4 -367.7 57.75 -339.95 61.05 -325.35 71.55 -288.45 81.15 -254.65 85.0 -235.9 90.9 -207.15 90.3 -185.8 92.35 -179.05 99.35 -175.4 104.2 -172.9 114.25 -170.85 126.9 -168.35 130.15 -167.3 138.45 -164.65 142.15 -159.85 140.65 -156.95 137.3 -156.55 L129.95 -157.0 Q117.65 -158.45 109.75 -153.4 137.6 -88.65 153.6 -22.95 171.55 50.8 172.15 116.65 172.8 190.5 151.4 249.3 127.6 314.7 77.3 358.95 L77.3 371.9 84.5 369.85 Q95.35 364.7 105.8 361.0 113.7 356.95 121.95 351.75 147.65 334.2 161.6 326.55 164.4 306.5 173.3 279.85 L180.7 258.05 Q185.0 245.3 187.55 235.75 192.05 234.0 191.0 242.25 190.25 248.1 185.75 263.5 179.7 284.2 178.2 290.25 174.35 305.5 174.6 313.55 225.05 335.65 307.75 352.25 334.15 357.55 380.4 365.5 434.15 374.75 453.45 378.4 458.65 340.55 460.2 291.15 461.45 253.35 460.75 197.65 459.6 133.8 459.2 102.05 458.6 46.75 459.95 8.75 456.55 10.5 421.0 0.75 L344.1 -21.0 Q316.15 -28.8 295.1 -34.0 280.5 -36.7 269.5 -39.15 261.25 -41.0 253.55 -43.0 226.15 -47.6 220.0 -43.15 215.75 -40.05 215.8 -33.75 215.9 -29.5 218.4 -21.15 221.25 -11.5 221.75 -8.25 222.75 -1.4 220.0 2.25 212.0 -4.2 207.35 -47.8 L204.1 -82.0 Q202.3 -100.55 200.55 -108.0 207.7 -108.95 209.75 -90.25 L211.2 -73.0 Q212.1 -62.2 213.5 -56.1 230.95 -48.9 253.55 -43.0 L265.15 -40.85 295.1 -34.0 Q311.05 -31.1 331.25 -27.95 L394.1 -17.85 Q429.15 -11.55 453.45 -4.2 458.6 -16.85 460.2 -36.35 461.45 -51.3 460.75 -74.75 L459.25 -115.15 Q458.6 -138.45 459.95 -153.4 409.4 -167.9 349.7 -172.85 360.5 -179.15 374.7 -178.95 385.05 -178.8 401.85 -174.7 L430.45 -167.9 Q447.15 -164.75 459.95 -166.35 443.4 -177.55 405.0 -182.75 L373.3 -186.7 Q354.9 -189.15 343.2 -192.3 335.15 -191.0 333.05 -194.7 332.25 -196.15 333.2 -197.35 334.25 -198.65 336.7 -198.8 352.95 -196.25 385.0 -189.8 413.2 -184.6 430.85 -184.6 454.6 -184.55 471.8 -192.95 491.65 -202.65 505.35 -224.7 510.3 -232.7 511.85 -236.65 514.0 -242.2 512.2 -245.35 508.1 -252.4 479.4 -250.65 476.05 -256.45 482.0 -257.45 486.65 -258.25 498.55 -256.25 L520.1 -252.2 Q532.45 -250.05 537.75 -250.65 527.35 -201.55 530.25 -120.8 531.75 -78.45 541.3 31.2 550.0 131.15 550.6 183.35 551.5 263.5 537.75 313.55 534.25 326.4 521.0 344.05 508.65 360.55 491.2 376.95 473.8 393.3 457.1 404.1 439.3 415.6 427.5 417.3 412.15 419.5 370.2 410.2 340.25 403.6 284.9 388.1 L199.55 364.35 Q156.9 353.1 142.15 352.45 124.75 354.25 105.8 361.0 94.8 366.55 84.5 369.85 80.85 371.6 77.15 373.5 56.85 383.9 14.6 411.75 -27.2 439.3 -50.65 451.2 -88.7 470.5 -123.75 475.7 -160.5 481.15 -202.35 471.25 -242.5 461.75 -276.5 440.8 -311.3 419.35 -329.4 392.15 -339.35 377.2 -343.0 362.2 -343.4 363.85 -344.25 365.45 -365.8 348.45 -376.5 310.15 -380.65 295.25 -384.1 274.0 L-389.65 235.75 Q-444.05 227.5 -469.9 221.95 -514.25 212.5 -538.8 196.8 -533.85 169.15 -532.3 133.7 L-532.3 63.8 Q-533.95 21.35 -542.3 -78.45 -550.15 -172.25 -550.6 -220.4 -551.35 -294.6 -538.8 -341.45 -533.7 -360.4 -513.75 -378.75 -507.75 -384.3 -496.5 -393.2 -484.7 -402.5 -480.4 -406.3 -468.45 -408.7 -452.65 -406.65 L-427.95 -402.5 Q-415.15 -400.7 -408.4 -403.5 -399.8 -407.1 -396.1 -419.25 -394.95 -415.45 -396.05 -405.15 -397.15 -395.4 -396.1 -393.35 -396.8 -391.4 -384.85 -391.85 L-359.6 -393.05 Q-343.85 -393.4 -338.0 -391.15 -330.3 -388.15 -337.75 -380.35 -329.3 -372.0 -340.7 -370.9 -350.15 -370.0 -364.95 -373.7 -379.65 -377.35 -377.2 -379.8 -374.3 -382.7 -344.25 -380.35 -349.35 -387.6 -359.2 -388.25 -365.8 -388.65 -378.2 -385.7 -392.15 -382.35 -396.4 -382.1 -405.45 -381.55 -409.1 -386.85 L-401.3 -375.35 Q-399.0 -372.15 -399.55 -371.5 -399.85 -371.1 -404.15 -370.45 -409.9 -369.55 -415.55 -367.4 -405.15 -357.4 -386.85 -354.45 -370.65 -351.8 -352.4 -355.1 -335.15 -358.2 -323.6 -365.15 -311.6 -372.35 -311.8 -380.35 -311.3 -371.8 -303.45 -370.65 -297.55 -369.75 -284.65 -373.15 L-261.6 -379.25 Q-248.15 -382.15 -240.45 -380.35 -240.25 -388.35 -243.8 -393.25 -247.0 -397.7 -253.45 -399.8 -234.05 -422.85 -204.8 -428.75 -183.1 -433.15 -147.4 -428.65 L-117.0 -424.25 Q-98.35 -421.55 -86.25 -420.55 -50.95 -417.7 -26.45 -425.75 -22.45 -429.95 -18.05 -438.25 L-10.25 -452.9 Q0.55 -471.1 18.95 -477.65 29.55 -469.35 12.95 -459.25 8.75 -456.75 -1.75 -451.65 -10.85 -447.2 -13.5 -445.2 -20.75 -421.1 45.05 -413.95 L74.2 -411.05 Q78.5 -409.95 51.35 -406.3 13.5 -415.0 -12.4 -417.1 -48.8 -420.15 -78.35 -412.8 -29.05 -389.05 34.15 -391.7 94.55 -394.2 142.15 -419.25 148.6 -418.0 148.6 -416.0 148.6 -414.55 144.65 -411.7 L137.85 -406.3 Q134.55 -402.85 135.65 -399.8 150.6 -398.2 156.3 -401.8 160.85 -404.7 160.65 -412.35 159.4 -422.35 159.0 -428.0 158.25 -438.3 161.6 -445.2 155.1 -445.45 149.8 -442.4 148.55 -441.7 141.45 -436.2 136.45 -432.3 131.8 -431.25 125.35 -429.7 116.2 -432.25 127.2 -422.75 125.15 -418.55 123.4 -415.05 112.15 -415.0 104.45 -414.95 88.2 -416.8 L64.35 -419.25 Q52.05 -425.45 72.3 -426.0 83.15 -426.25 103.25 -425.75 96.25 -436.05 84.5 -442.85 79.65 -445.65 73.4 -448.15 65.8 -449.2 57.85 -451.7 L58.55 -452.95 Q48.05 -455.85 43.5 -457.45 34.45 -460.55 31.9 -464.65 32.85 -469.8 38.75 -471.7 44.25 -473.55 50.4 -471.65 56.85 -469.7 59.25 -464.85 61.8 -459.75 58.55 -452.95 L62.85 -451.8 Q68.55 -450.1 73.4 -448.15 82.75 -446.85 91.5 -447.7 101.7 -448.7 116.75 -454.0 132.85 -459.7 140.1 -460.8 153.75 -462.85 168.1 -458.2 L168.1 -406.3 Q209.65 -361.15 226.45 -302.55 248.35 -298.35 284.4 -304.7 L316.15 -311.15 348.6 -317.85 Q386.8 -324.85 411.75 -321.7 444.5 -317.6 466.4 -296.05 M138.0 -439.65 Q151.1 -443.0 148.65 -458.2 122.9 -453.7 109.75 -438.75 L124.65 -438.4 Q133.1 -438.4 138.0 -439.65 M129.2 -198.8 Q128.05 -189.85 134.75 -186.45 140.6 -183.5 149.75 -185.6 158.65 -187.65 164.15 -192.95 170.3 -198.8 168.1 -205.25 153.25 -206.05 145.5 -205.15 134.4 -203.85 129.2 -198.8 M94.45 -154.3 Q83.8 -161.15 62.25 -164.3 L24.65 -168.8 Q3.4 -172.05 -7.0 -179.3 15.3 -179.9 40.8 -175.25 L83.8 -166.35 Q89.2 -174.55 84.35 -198.2 L80.0 -218.3 Q77.55 -230.15 77.3 -237.7 51.35 -242.8 13.45 -248.4 L-51.75 -257.75 Q-131.25 -269.5 -175.6 -283.1 -68.6 -269.55 70.8 -244.15 70.25 -261.7 66.4 -280.3 64.0 -291.95 58.15 -312.55 52.05 -334.15 49.75 -344.7 45.7 -363.25 44.9 -380.35 26.7 -381.2 5.45 -384.7 -1.8 -385.9 -31.4 -391.65 -53.9 -396.0 -69.0 -397.8 -90.45 -400.35 -110.75 -399.8 -116.65 -390.25 -137.9 -357.25 -154.75 -331.05 -164.65 -314.25 -194.3 -263.65 -208.05 -218.25 -204.4 -216.35 -198.1 -215.2 L-186.8 -213.55 Q-172.9 -211.4 -169.15 -205.25 -222.1 -211.85 -234.0 -179.3 -176.4 -175.4 -130.2 -159.85 -144.8 -159.05 -159.85 -161.0 -169.6 -162.25 -185.9 -165.8 -203.6 -169.65 -211.6 -170.85 -226.55 -173.15 -240.45 -172.85 -241.9 -146.2 -250.5 -107.5 L-258.35 -73.45 Q-263.35 -51.85 -266.4 -36.65 -250.15 -38.8 -234.7 -45.45 -223.3 -50.4 -208.45 -59.75 -192.1 -70.4 -183.6 -75.45 -169.0 -84.05 -156.15 -88.55 -163.55 -104.2 -160.5 -119.0 -157.25 -134.9 -143.2 -140.4 -120.4 -140.9 -107.7 -133.7 -93.7 -125.75 -91.3 -108.0 17.2 -101.3 78.5 -49.5 107.4 -25.05 123.6 8.1 134.75 31.1 139.4 57.4 130.45 12.15 94.4 -24.15 74.2 -44.55 47.25 -59.8 21.25 -74.55 -8.35 -83.05 -37.6 -91.45 -67.0 -92.75 -96.9 -94.1 -123.35 -87.9 -151.0 -81.45 -172.15 -67.4 -194.6 -52.5 -208.05 -30.15 -199.25 -29.25 -187.35 -39.25 -184.15 -41.95 -184.2 -40.85 -184.35 -39.6 -188.6 -30.15 -178.95 -29.7 -167.1 -37.75 -163.15 -40.45 -157.1 -45.35 L-147.45 -53.1 Q-136.3 -61.55 -128.95 -61.85 -119.1 -62.15 -110.75 -49.6 L-120.6 -44.85 Q-126.45 -42.0 -130.05 -39.7 -140.15 -33.15 -143.2 -23.7 -125.25 -14.95 -110.1 -14.7 -98.2 -14.5 -85.9 -19.8 -78.8 -22.9 -66.0 -30.15 -54.6 -36.0 -45.9 -36.65 -47.4 -31.0 -52.5 -27.0 -55.25 -24.85 -62.75 -21.05 -69.7 -17.55 -72.7 -14.8 -77.4 -10.5 -78.35 -4.2 -69.15 -3.75 -62.2 -7.5 -57.6 -10.0 -51.4 -16.2 -44.5 -23.1 -41.1 -25.35 -34.6 -29.7 -26.45 -30.15 -27.4 -23.9 -32.1 -19.6 -35.1 -16.85 -42.05 -13.35 -49.55 -9.55 -52.3 -7.4 -57.4 -3.4 -58.9 2.25 -52.15 3.1 -44.55 -1.55 -40.2 -4.25 -32.15 -11.5 -24.95 -17.95 -21.75 -19.4 -16.7 -21.7 -13.5 -17.2 -15.25 -14.1 -22.0 -9.2 L-34.15 -0.6 Q-40.8 4.4 -42.45 7.75 -44.55 12.15 -39.45 15.25 -35.2 12.8 -30.4 8.1 L-22.35 -0.1 Q-12.3 -9.8 -0.5 -10.7 -0.25 -4.7 -7.25 0.7 -9.7 2.55 -21.2 9.05 -29.6 13.75 -31.3 17.25 -33.75 22.2 -26.45 28.2 -15.95 5.8 12.45 2.25 11.8 7.4 5.6 13.55 L-6.5 23.8 Q-13.75 29.7 -15.6 33.0 -18.25 37.7 -13.5 41.2 -10.0 39.9 -4.2 33.95 2.55 26.65 6.0 23.4 11.95 17.75 16.15 16.9 21.5 15.75 25.45 21.7 22.35 25.5 17.0 29.55 L7.6 36.3 Q-3.9 44.8 -7.0 54.15 -0.2 74.45 8.3 80.95 15.3 86.3 25.2 83.15 28.6 82.05 43.8 74.1 56.05 67.7 64.35 67.1 61.6 72.9 55.55 77.8 52.7 80.1 43.9 85.6 36.35 90.3 32.75 93.9 27.35 99.25 25.45 106.05 33.7 107.15 40.3 101.9 43.75 99.2 50.1 90.85 55.4 83.85 58.9 82.5 64.1 80.5 70.8 86.55 68.05 92.35 62.0 97.25 59.15 99.55 50.4 105.05 42.85 109.75 39.2 113.35 33.8 118.7 31.9 125.5 39.05 127.45 45.55 122.6 49.55 119.6 55.4 111.75 60.9 104.3 63.2 102.9 67.2 100.5 70.8 106.05 68.55 111.75 63.85 116.9 61.05 120.05 54.6 125.5 48.2 130.95 45.35 134.05 40.65 139.25 38.4 144.95 46.65 146.05 53.3 140.8 56.7 138.1 63.05 129.75 68.4 122.8 71.9 121.45 77.1 119.45 83.8 125.5 81.8 128.8 74.3 134.15 L61.35 143.5 Q54.45 149.1 53.1 153.6 51.45 159.25 57.85 164.4 64.85 153.05 70.85 146.65 81.0 135.85 83.8 144.95 83.95 150.9 77.35 156.65 74.55 159.1 64.05 165.7 55.95 170.8 54.15 174.1 51.55 178.85 57.85 183.85 60.1 182.3 65.35 176.4 72.05 168.9 74.5 166.5 86.0 155.35 90.3 164.4 74.15 186.1 51.35 196.8 51.85 199.4 54.55 208.45 56.8 216.05 57.2 220.3 58.45 233.35 44.9 235.75 46.3 176.45 24.55 123.7 2.9 71.1 -37.55 35.2 -79.65 -2.15 -134.65 -14.65 -193.7 -28.0 -259.9 -10.7 -260.1 -13.0 -258.85 -15.4 L-256.65 -18.85 Q-255.55 -20.5 -256.05 -21.45 -256.65 -22.7 -259.9 -23.7 -261.15 -19.05 -263.8 -13.65 -264.8 -9.55 -259.9 -4.2 -297.6 2.8 -327.85 40.2 -355.55 74.4 -370.4 124.9 -384.85 174.25 -382.0 221.3 -378.95 270.9 -357.2 300.6 -363.2 301.35 -363.85 310.15 -364.2 315.2 -363.7 326.55 -356.15 325.95 -348.15 329.6 -339.85 333.3 -334.25 340.1 -328.1 347.6 -327.0 356.8 -325.75 367.25 -331.25 378.4 -296.55 416.55 -253.7 437.05 -206.3 459.7 -145.65 462.65 -163.95 462.2 -174.1 462.5 -194.35 463.0 -182.1 469.2 -63.95 460.25 -8.55 399.45 41.25 344.75 44.9 242.2 52.4 240.3 59.4 235.65 63.85 232.7 71.15 226.3 78.85 219.5 82.7 216.8 89.6 211.95 96.75 209.8 95.85 218.1 87.1 226.35 83.9 229.4 69.9 239.65 59.4 247.35 56.4 252.6 52.1 260.1 57.85 268.15 L64.8 258.55 Q70.05 251.45 74.05 247.15 86.0 234.25 90.3 242.2 87.55 250.35 81.05 257.3 76.95 261.7 67.95 268.55 58.5 275.75 54.7 279.6 47.9 286.35 44.9 294.1 53.35 293.9 59.1 288.9 62.6 285.85 67.65 277.95 72.7 270.0 76.15 266.95 81.9 261.9 90.3 261.65 81.7 281.15 66.9 322.6 52.85 359.1 38.4 378.4 66.3 362.6 73.7 356.2 87.8 344.0 70.8 339.5 74.1 334.7 82.15 326.1 L94.05 313.05 Q99.5 306.45 99.2 303.5 98.85 300.0 90.6 300.6 96.4 300.0 99.1 294.85 101.05 291.2 102.0 283.15 103.25 273.0 103.9 270.45 105.65 263.9 109.75 261.65 113.3 265.2 113.45 270.35 113.5 273.25 112.8 278.65 112.65 283.0 115.5 284.9 119.2 287.45 129.2 287.6 L132.7 276.0 Q133.95 271.05 133.65 268.1 133.0 262.35 123.15 255.5 134.85 263.25 144.75 242.5 152.85 225.6 158.0 194.7 162.5 167.8 161.7 152.85 161.35 146.1 159.75 146.95 158.0 147.85 155.15 157.9 161.65 92.35 150.9 17.8 140.5 -54.05 116.2 -120.95 33.45 -129.95 -8.05 -136.1 -75.35 -146.1 -123.75 -159.85 -95.45 -158.35 -63.3 -153.8 -42.25 -150.8 -6.3 -144.3 L50.35 -134.5 Q82.5 -129.5 109.75 -127.45 108.35 -145.35 94.45 -154.3 M497.0 -197.4 L481.45 -178.85 Q472.3 -167.85 466.4 -159.85 L466.4 378.4 Q486.95 370.55 504.5 352.95 525.2 332.25 531.25 307.05 542.45 260.5 542.3 184.05 542.2 129.1 535.4 36.5 L529.65 -39.1 Q526.35 -83.25 524.8 -111.95 520.45 -191.75 524.8 -237.7 515.6 -219.95 497.0 -197.4 M-140.6 -423.45 Q-159.05 -427.05 -178.0 -426.0 -198.3 -424.9 -212.65 -418.7 -228.65 -411.8 -234.0 -399.8 L-220.15 -390.95 Q-211.85 -385.6 -208.05 -380.35 -211.9 -379.4 -217.6 -381.8 -223.8 -384.9 -226.4 -385.9 -230.8 -387.65 -232.5 -385.65 -234.7 -383.1 -234.0 -373.9 -226.75 -366.4 -212.8 -361.25 -199.05 -356.15 -184.0 -355.25 -167.95 -354.3 -155.85 -358.6 -142.35 -363.35 -136.7 -373.9 L-153.9 -374.55 -173.15 -373.1 -190.4 -373.65 Q-198.45 -375.25 -201.55 -380.35 -163.65 -377.75 -143.1 -383.5 -117.2 -390.85 -110.75 -412.8 -121.95 -419.85 -140.6 -423.45 M-234.0 -360.9 Q-230.6 -345.95 -230.6 -344.7 -230.6 -343.45 -234.0 -328.5 -228.35 -328.4 -216.8 -325.9 L-196.9 -321.85 Q-172.25 -317.9 -162.65 -328.5 -169.05 -329.75 -169.1 -331.75 -169.1 -333.2 -165.15 -336.05 -159.7 -340.1 -158.35 -341.45 -155.05 -344.9 -156.15 -347.95 -178.85 -344.95 -199.7 -349.75 -207.45 -351.55 -217.25 -354.9 L-234.0 -360.9 M-233.45 -324.15 Q-243.45 -327.7 -246.95 -334.95 -244.8 -315.2 -225.35 -307.95 -211.95 -302.95 -182.1 -302.55 -184.65 -310.9 -193.95 -315.0 -199.95 -317.65 -213.45 -319.85 -228.0 -322.2 -233.45 -324.15 M-532.3 -328.5 Q-497.05 -321.1 -450.2 -313.3 L-366.25 -299.95 Q-257.7 -283.05 -201.55 -270.1 -202.3 -276.45 -198.55 -283.3 -194.65 -290.45 -195.05 -296.05 -230.5 -287.75 -245.1 -307.8 -255.8 -322.6 -253.45 -347.95 -269.8 -342.0 -305.4 -331.8 -340.35 -321.75 -357.2 -315.5 -355.7 -311.25 -349.6 -310.1 L-337.05 -309.7 -324.9 -308.9 Q-319.2 -307.4 -318.3 -302.55 -354.95 -305.9 -376.4 -309.3 -407.1 -314.2 -428.55 -322.0 -423.7 -322.55 -412.7 -322.35 -403.85 -323.05 -402.6 -328.5 -413.25 -332.45 -417.35 -340.6 -420.75 -347.25 -420.1 -357.7 -419.8 -362.95 -417.35 -376.4 -415.25 -387.9 -415.55 -393.35 -455.6 -406.45 -487.35 -387.8 -509.9 -374.6 -532.3 -341.45 -522.8 -341.15 -520.75 -340.25 -519.1 -339.55 -521.7 -337.9 L-527.95 -334.05 Q-531.9 -331.25 -532.3 -328.5 M-415.55 -341.45 Q-396.25 -328.75 -372.75 -327.65 -354.2 -326.8 -328.65 -333.3 -313.85 -337.05 -284.25 -346.2 -258.0 -353.7 -240.45 -354.4 -247.5 -369.35 -263.25 -370.95 -275.6 -372.2 -296.75 -364.95 -321.9 -355.1 -334.5 -350.4 -356.9 -342.05 -370.15 -341.45 -377.3 -341.1 -385.0 -344.5 -393.1 -348.75 -396.55 -350.4 -402.45 -353.15 -406.25 -351.8 -411.1 -350.1 -415.55 -341.45 M-532.3 -315.5 L-532.3 -179.3 Q-469.45 -175.45 -389.05 -160.4 L-321.4 -147.0 Q-278.75 -138.4 -253.45 -133.9 -255.5 -152.7 -249.6 -167.65 -245.55 -177.85 -234.35 -192.55 -220.4 -210.85 -215.65 -218.95 -205.55 -236.4 -201.55 -257.15 -264.2 -277.5 -360.85 -292.4 -393.95 -297.5 -446.25 -304.3 L-532.3 -315.5 M-391.25 -151.75 Q-476.6 -168.2 -532.3 -172.85 L-532.3 63.8 -532.2 66.55 Q-530.95 103.0 -532.3 133.7 L-532.3 177.35 Q-512.7 175.9 -493.2 178.85 -480.7 180.75 -460.05 186.2 -437.75 192.15 -427.4 194.05 -408.2 197.5 -389.65 196.8 -390.0 149.45 -372.55 106.8 -355.7 65.65 -324.75 34.7 -338.35 13.05 -332.05 -6.2 -326.35 -23.75 -305.3 -36.65 -296.2 -37.2 -287.7 -31.6 L-280.9 -27.0 Q-276.85 -24.6 -272.9 -23.7 -268.9 -61.7 -265.5 -80.2 -261.9 -99.35 -253.45 -127.45 -284.3 -131.5 -323.25 -138.7 L-391.25 -151.75 M-318.6 -15.6 Q-323.8 -10.6 -324.75 -4.2 -309.15 3.1 -296.95 0.4 -283.45 -2.55 -279.4 -17.2 -284.65 -22.15 -292.25 -23.45 -299.3 -24.65 -306.55 -22.45 -313.7 -20.3 -318.6 -15.6 M-143.2 -120.95 Q-136.75 -118.85 -133.55 -114.4 -130.0 -109.5 -130.2 -101.5 -123.45 -100.25 -118.15 -101.6 -115.65 -102.2 -110.9 -104.6 -107.35 -106.4 -105.15 -106.1 -102.05 -105.65 -97.8 -101.5 -97.85 -112.15 -102.6 -119.75 -107.0 -126.8 -114.35 -129.6 -121.5 -132.4 -129.15 -130.3 -137.15 -128.05 -143.2 -120.95 M-532.3 183.85 Q-523.85 196.9 -505.6 204.15 -491.8 209.65 -467.65 213.25 L-426.4 219.0 Q-403.1 222.85 -389.65 229.25 -395.05 212.8 -411.3 203.9 -424.6 196.65 -447.75 193.3 L-490.75 189.35 Q-517.9 187.25 -532.3 183.85 M-348.2 345.25 L-344.85 350.9 Q-345.65 341.95 -344.25 333.0 -350.7 334.85 -351.1 338.15 -351.35 340.35 -348.2 345.25 M-344.85 350.9 Q-344.4 356.55 -343.0 362.2 -342.05 358.4 -343.35 354.35 -343.8 352.95 -344.85 350.9 M157.2 344.35 Q157.7 346.75 161.6 352.45 192.75 352.45 237.65 363.7 263.45 370.2 314.85 385.2 359.7 397.2 388.4 398.4 426.4 400.0 453.45 384.9 419.5 384.7 374.95 375.4 354.0 371.0 297.4 356.2 250.3 343.85 224.9 340.0 187.4 334.25 161.6 339.5 156.4 340.4 157.2 344.35" fill="#373535" fill-rule="evenodd" stroke="none"/>
    <path d="M153.4 -103.35 Q155.8 -100.75 158.1 -93.05 160.25 -85.65 161.3 -77.2 162.4 -68.3 161.6 -62.6 167.15 -65.5 163.85 -111.45 162.65 -128.1 163.0 -128.75 163.6 -129.95 168.1 -108.0 L174.2 -81.3 Q177.15 -68.4 177.8 -61.05 178.55 -51.55 176.5 -43.2 174.3 -34.25 168.1 -23.7 174.95 -31.9 177.85 -22.35 180.25 -14.6 180.55 7.7 L180.2 52.9 Q179.95 82.65 181.05 99.55 174.55 79.65 170.8 51.1 168.7 35.45 165.65 -1.25 162.8 -35.55 160.1 -53.5 155.9 -81.65 148.65 -101.5 150.7 -106.3 153.4 -103.35" fill="#373535" fill-rule="evenodd" stroke="none"/>
    <path d="M23.8 -442.9 Q22.45 -440.55 19.45 -439.35 16.25 -438.05 12.45 -438.75 12.05 -433.9 15.75 -432.3 18.55 -431.05 24.7 -431.55 L35.7 -432.8 44.9 -432.25 Q50.45 -427.8 45.55 -426.15 L30.9 -425.6 Q21.5 -426.35 11.85 -428.35 2.15 -430.4 -0.5 -432.25 -3.9 -440.05 -1.35 -442.85 0.4 -444.75 6.4 -444.8 L15.55 -445.35 Q19.8 -446.6 18.95 -451.7 22.85 -450.2 24.05 -447.65 25.15 -445.3 23.8 -442.9" fill="#373535" fill-rule="evenodd" stroke="none"/>
    <path d="M-263.75 -296.45 Q-250.85 -298.9 -234.0 -296.05 -209.45 -291.95 -206.9 -289.1 -204.75 -286.7 -217.7 -285.85 -229.75 -285.05 -244.8 -286.05 -260.85 -287.15 -266.4 -289.55 -271.45 -291.75 -270.4 -293.65 -269.45 -295.4 -263.75 -296.45" fill="#373535" fill-rule="evenodd" stroke="none"/>
    <path d="M349.7 -289.55 Q353.8 -286.55 349.65 -279.5 345.75 -272.8 337.3 -266.7 328.25 -260.25 319.75 -258.9 309.9 -257.35 304.3 -263.65 308.5 -266.95 315.95 -269.85 L329.1 -274.5 Q345.3 -280.35 349.7 -289.55" fill="#373535" fill-rule="evenodd" stroke="none"/>
    <path d="M116.2 -82.05 Q118.45 -78.0 121.75 -67.2 L129.2 -43.15 Q123.1 -38.75 115.8 -37.1 107.45 -35.2 96.75 -36.65 96.8 -41.55 95.15 -46.4 L91.8 -54.4 Q87.65 -64.4 90.3 -75.55 93.15 -80.8 97.1 -80.7 99.35 -80.65 104.1 -77.95 108.6 -75.35 110.7 -75.6 114.05 -75.95 116.2 -82.05" fill="#373535" fill-rule="evenodd" stroke="none"/>
    <path d="M-72.9 -187.2 L-91.3 -192.3 Q-124.45 -199.95 -112.25 -199.45 -101.2 -199.0 -70.7 -193.7 -38.55 -188.05 -26.5 -184.0 -11.65 -178.9 -39.45 -179.3 -59.8 -183.5 -72.9 -187.2" fill="#373535" fill-rule="evenodd" stroke="none"/>
    <path d="M90.3 28.2 Q87.55 17.45 83.3 14.25 79.05 11.05 64.35 8.75 64.05 3.15 65.2 0.45 66.2 -1.95 67.8 -1.4 69.4 -0.9 70.3 1.85 71.35 4.85 70.8 8.75 78.2 0.7 75.6 -2.85 74.15 -4.9 66.45 -6.75 59.05 -8.55 57.85 -11.0 55.95 -14.95 64.35 -23.7 62.2 -23.2 58.3 -19.95 54.95 -17.15 51.35 -17.2 51.0 -10.45 53.55 -4.75 54.7 -2.15 59.05 4.3 62.75 9.8 63.95 14.0 65.8 20.2 64.35 28.2 71.25 24.25 73.9 27.05 75.35 28.55 76.4 34.7 77.3 40.05 79.35 40.65 82.45 41.6 90.3 34.7 94.25 36.4 92.8 40.65 91.95 43.2 88.35 49.25 85.4 55.0 86.45 58.7 87.9 63.8 96.75 67.1 100.05 66.75 100.0 61.9 99.25 55.35 99.15 51.9 98.95 45.65 101.95 43.0 105.95 39.55 116.2 41.2 119.4 49.55 121.4 58.85 L124.0 72.7 Q125.4 79.6 127.55 83.75 130.3 88.95 135.65 93.05 134.65 96.35 133.45 96.95 132.5 97.4 130.85 96.35 128.75 94.8 127.4 94.1 125.05 92.85 122.7 93.05 120.95 114.3 142.15 112.5 L142.35 125.7 Q142.55 133.75 142.25 138.55 141.4 152.55 135.65 157.9 132.35 156.95 131.95 155.25 131.7 154.05 133.05 151.3 L135.4 145.8 Q136.5 142.1 135.65 138.45 126.65 141.1 123.2 145.45 120.55 148.75 120.4 154.55 120.3 157.9 120.35 165.3 119.8 172.05 116.2 177.35 121.2 176.7 124.85 173.05 L130.55 165.75 Q133.9 161.15 137.15 159.35 141.75 156.85 148.65 157.9 152.5 163.7 149.4 167.35 147.35 169.75 141.45 171.6 135.8 173.35 135.5 173.85 135.0 174.6 137.85 175.85 126.75 173.45 120.95 189.55 118.9 195.1 117.45 203.3 L116.35 209.45 Q116.85 208.95 118.85 207.85 L126.3 203.4 Q137.25 196.2 135.7 190.55 140.25 205.55 140.4 216.7 140.6 229.2 135.65 242.2 L123.6 242.45 Q119.4 242.55 117.6 243.25 115.65 243.95 112.55 246.7 L103.25 255.2 Q104.7 241.6 115.45 231.7 118.85 228.55 125.45 223.9 L135.65 216.3 Q134.75 210.6 130.7 209.6 127.15 208.75 122.85 211.7 118.55 214.65 116.5 219.3 115.2 222.25 115.3 225.0 L116.2 229.25 Q115.3 227.2 115.3 225.0 111.75 208.0 110.05 186.65 L107.7 147.0 Q106.25 124.9 103.1 111.2 98.95 93.15 90.3 80.1 95.15 86.0 100.5 88.35 105.8 90.7 110.5 89.15 121.05 85.7 122.7 67.1 109.9 84.85 107.35 82.3 104.75 79.75 116.2 60.65 109.8 62.9 106.6 67.25 103.0 72.15 103.25 80.1 89.2 68.5 74.2 49.15 L48.95 14.45 Q33.8 -6.3 21.65 -18.3 5.15 -34.5 -13.5 -43.15 -14.5 -46.65 -9.6 -45.1 -6.45 -44.1 3.6 -39.65 26.8 -30.2 38.4 -36.65 36.4 -44.1 33.5 -46.2 31.4 -47.65 27.55 -46.75 22.05 -45.45 20.5 -45.5 16.15 -45.65 12.45 -49.6 24.3 -58.15 37.9 -51.0 48.6 -45.3 62.65 -28.15 70.8 -18.25 86.65 3.35 100.65 21.6 109.75 28.2 109.1 35.85 106.2 34.65 104.4 33.95 100.05 28.2 95.65 22.5 93.85 21.75 90.95 20.55 90.3 28.2" fill="#373535" fill-rule="evenodd" stroke="none"/>
    <path d="M-275.85 418.65 Q-292.1 408.3 -304.9 394.45 -317.95 380.35 -324.75 365.45 -319.95 369.55 -300.2 387.9 -285.2 401.8 -274.85 409.55 -243.95 432.65 -208.05 436.75 -223.85 439.15 -242.05 434.05 -259.1 429.25 -275.85 418.65" fill="#373535" fill-rule="evenodd" stroke="none"/>
    <path d="M-89.85 34.5 Q-81.75 38.75 -78.35 41.2 -40.05 68.6 -13.7 116.55 12.25 163.85 19.5 218.25 27.1 275.25 11.95 325.5 -4.65 380.35 -45.9 417.3 -14.25 381.35 -1.05 325.2 11.85 270.45 3.55 212.8 -5.05 152.7 -34.4 106.95 -66.45 56.95 -117.25 34.7 -127.45 19.2 -106.55 26.9 -99.25 29.6 -89.85 34.5" fill="#373535" fill-rule="evenodd" stroke="none"/>
    <path d="M-240.45 34.7 Q-184.95 28.3 -140.25 44.15 -97.65 59.2 -67.45 93.55 -38.25 126.7 -22.8 175.15 -7.55 222.85 -7.0 281.15 -15.05 292.0 -30.55 314.35 -44.55 333.75 -56.4 345.2 -72.05 360.35 -90.0 368.35 -110.75 377.6 -136.7 378.4 -147.45 378.25 -148.2 375.7 -148.65 374.15 -143.95 369.45 -138.65 364.05 -137.75 361.15 -136.2 356.15 -143.2 352.45 -170.55 342.35 -191.5 319.7 -199.7 310.85 -208.5 298.4 -212.5 292.8 -223.5 276.1 -242.3 247.65 -255.85 235.05 -276.85 215.6 -305.3 209.8 -316.0 75.5 -221.0 41.2 -221.65 36.45 -228.25 35.5 L-240.45 34.7 M-222.95 82.95 Q-238.0 98.15 -244.75 121.4 -251.15 143.2 -249.6 169.7 -248.1 195.3 -239.5 221.6 -230.9 247.95 -216.55 270.85 -201.7 294.55 -182.8 311.1 -162.75 328.65 -140.4 336.05 -116.25 344.05 -91.3 339.5 -49.95 331.95 -32.75 297.25 -17.9 267.2 -22.9 221.85 -27.35 181.3 -45.6 142.0 -63.4 103.7 -84.8 86.55 -109.9 66.5 -138.0 60.55 -161.05 55.6 -182.1 60.65 -206.75 66.5 -222.95 82.95" fill="#373535" fill-rule="evenodd" stroke="none"/>
    <path d="M-313.85 76.45 Q-329.2 88.7 -337.15 98.25 -348.35 111.75 -350.7 125.5 -349.45 133.55 -353.15 135.65 -354.55 136.45 -355.8 135.45 -357.05 134.4 -357.2 131.95 -350.3 102.35 -326.25 78.65 -317.4 69.9 -303.5 59.25 L-279.4 41.2 Q-280.6 48.45 -291.15 58.05 L-313.85 76.45" fill="#373535" fill-rule="evenodd" stroke="none"/>
    <path d="M208.6 164.5 Q210.65 187.2 200.55 196.8 202.35 204.45 201.3 211.5 200.35 217.55 198.05 219.85 195.75 222.15 194.45 218.3 192.95 213.85 194.05 203.3 195.2 199.75 199.6 179.7 202.8 165.1 207.0 157.9 205.4 149.85 206.75 153.9 207.95 157.55 208.6 164.5" fill="#373535" fill-rule="evenodd" stroke="none"/>
  </g>
</svg>
