<?xml version="1.0" encoding="UTF-8" standalone="no"?>
<svg xmlns:xlink="http://www.w3.org/1999/xlink" height="525.1px" width="1683.0px" xmlns="http://www.w3.org/2000/svg">
  <g transform="matrix(1, 0, 0, 1, 841.5, 262.55)">
    <path d="M664.2 44.55 L664.4 49.4 Q664.4 53.45 663.25 59.9 664.9 61.65 665.65 64.5 666.6 68.15 666.0 72.2 666.0 78.1 660.5 92.55 654.15 109.4 644.85 124.45 618.6 166.8 587.2 166.8 L575.2 166.0 560.8 165.2 Q558.8 165.2 554.2 163.6 549.6 162.0 547.6 162.0 L545.0 164.4 Q542.15 166.8 539.2 166.8 531.4 166.8 525.95 157.45 524.2 154.45 522.35 149.85 L520.0 144.0 516.05 146.55 Q513.85 147.6 511.2 147.6 502.85 147.6 495.25 128.4 492.75 122.1 490.8 114.85 489.2 109.05 489.2 108.0 489.2 99.45 490.65 93.45 491.45 90.05 494.0 83.8 499.25 70.65 500.4 52.8 L500.95 51.1 504.4 45.45 505.2 44.7 505.25 44.7 505.25 43.85 Q507.6 39.3 507.6 37.0 507.6 33.1 507.4 32.35 507.05 31.2 506.05 30.35 506.35 27.65 506.8 25.6 506.3 22.0 506.65 19.15 L508.2 18.0 Q512.95 14.3 515.55 9.1 L522.8 8.8 526.3 -1.45 Q529.4 -8.65 535.0 -13.75 538.7 -17.15 543.65 -19.8 L543.6 -21.0 Q543.6 -24.3 550.45 -31.8 557.85 -39.85 567.55 -46.05 579.15 -53.5 589.65 -55.15 602.3 -57.15 611.6 -50.4 620.15 -47.6 636.4 -24.45 L636.7 -24.05 637.45 -22.55 Q648.8 -0.4 650.0 4.0 L650.85 6.95 649.55 9.9 654.3 18.5 Q657.2 27.95 659.25 33.35 661.8 40.1 664.2 44.55 M-89.9 60.55 L-88.65 66.65 -87.6 68.0 Q-87.6 69.1 -87.95 70.3 -85.5 83.3 -83.75 97.85 -81.2 118.95 -81.2 130.2 -81.2 172.8 -97.65 202.85 -129.65 261.2 -215.2 261.2 -226.95 261.2 -236.4 258.5 -239.05 261.2 -243.2 261.2 -249.0 261.2 -253.25 251.7 L-254.15 249.55 Q-262.2 243.15 -268.15 232.9 -272.95 224.65 -279.05 207.7 -294.25 200.2 -298.4 197.2 -310.75 188.4 -313.25 180.65 -314.2 177.6 -314.2 173.4 L-314.0 165.4 Q-314.0 157.4 -310.15 138.45 -308.3 129.35 -306.05 120.75 -309.2 105.3 -309.2 100.8 -309.2 88.55 -300.05 71.4 -290.55 53.55 -274.55 36.95 -256.85 18.55 -235.45 6.4 -211.25 -7.35 -185.6 -11.2 L-185.6 -11.6 -144.0 -11.6 Q-138.95 -13.0 -134.25 -12.6 -130.7 -10.65 -128.8 -10.0 L-122.1 -8.15 Q-118.6 -5.8 -115.35 -2.15 -118.8 0.3 -118.8 11.2 -118.8 12.8 -98.05 47.2 L-89.9 60.55 M637.25 71.2 L637.35 70.2 Q638.0 64.25 638.0 51.4 638.0 45.55 635.55 35.8 632.05 21.75 625.35 11.25 605.05 -20.35 563.6 -8.8 L552.85 2.85 552.45 3.3 Q549.8 3.1 547.6 5.15 544.9 7.65 543.35 13.15 542.4 16.6 542.1 20.0 L540.6 31.45 Q539.6 40.35 539.6 43.6 539.6 51.5 540.35 54.85 540.8 57.05 542.5 59.9 547.2 67.7 550.8 85.6 551.15 87.35 561.45 106.35 571.85 125.6 572.8 125.6 L596.8 125.2 Q624.75 104.9 632.8 87.35 L633.9 84.8 Q638.8 80.9 638.8 76.0 638.8 73.7 637.25 71.2 M-119.35 131.1 Q-118.4 109.55 -118.4 107.6 -118.4 103.4 -124.0 91.15 -131.05 75.8 -141.1 63.5 -171.05 26.75 -211.2 36.0 L-223.6 50.8 Q-226.4 52.8 -228.9 56.25 L-231.1 59.65 -233.0 61.85 Q-242.9 73.85 -247.75 81.65 -253.6 91.1 -256.15 100.65 -258.25 108.55 -258.7 118.7 -259.6 125.7 -259.6 133.6 -259.6 134.55 -259.0 136.85 L-259.1 139.5 Q-259.25 144.1 -258.75 146.5 -258.05 150.15 -251.1 171.1 -251.6 172.5 -251.6 174.2 -251.6 177.55 -250.45 179.7 -249.2 182.05 -246.75 183.25 -240.3 196.2 -217.5 208.95 -206.4 215.2 -195.1 218.95 -183.65 222.8 -176.0 222.8 -155.3 222.8 -136.4 197.0 -130.45 188.8 -125.1 178.6 L-120.4 168.8 -120.1 151.6 Q-116.4 146.25 -116.4 141.6 -116.4 140.8 -119.35 131.1 M-226.0 24.95 L-226.2 24.7 -228.4 26.15 -226.0 24.95 M-278.0 150.5 L-277.2 153.35 -277.2 150.4 -278.0 150.5" fill="#666666" fill-rule="evenodd" stroke="none"/>
    <path d="M646.4 -52.25 Q651.95 -48.8 658.4 -42.6 671.5 -30.0 680.15 -13.55 690.0 5.3 690.0 22.4 690.0 29.65 685.25 40.45 679.55 53.2 672.8 53.2 668.85 53.2 664.2 44.55 661.8 40.1 659.25 33.35 657.2 27.95 654.3 18.5 L650.85 6.95 650.0 4.0 Q648.8 -0.4 637.45 -22.55 L636.7 -24.05 Q626.8 -43.3 626.8 -46.4 626.8 -55.25 632.4 -56.4 639.9 -54.8 646.4 -52.25 M-81.95 73.1 L-89.9 60.55 -98.05 47.2 Q-118.8 12.8 -118.8 11.2 -118.8 0.3 -115.35 -2.15 -113.4 -3.5 -110.4 -2.2 -103.4 0.85 -92.0 17.4 -82.05 31.75 -73.55 48.9 L-72.05 51.95 Q-75.95 53.65 -78.4 56.05 -82.15 59.65 -82.45 64.95 -82.6 67.8 -82.0 71.6 L-81.95 73.1" fill="#333333" fill-rule="evenodd" stroke="none"/>
    <path d="M-334.2 98.25 Q-330.8 101.85 -330.8 109.0 -330.8 155.0 -422.4 152.4 L-467.2 152.4 Q-494.3 149.65 -510.15 139.55 -514.0 137.1 -516.85 134.45 -513.2 145.25 -513.2 149.4 -513.2 154.3 -516.05 157.25 -519.15 160.4 -524.8 160.4 -529.55 160.4 -533.15 157.5 L-537.6 154.0 Q-593.9 148.9 -648.85 132.3 -663.55 127.9 -689.9 119.3 -712.65 112.15 -728.8 108.8 -751.3 104.2 -772.2 97.75 -780.65 95.15 -809.6 85.2 -813.0 84.05 -823.35 67.8 -834.0 51.15 -834.0 45.6 -834.0 36.15 -811.85 22.6 -804.15 17.85 -796.0 13.8 L-795.2 13.8 Q-771.95 13.8 -755.35 -8.8 -749.05 -17.45 -745.4 -27.35 L-744.05 -31.35 Q-741.05 -38.45 -738.4 -42.0 L-738.3 -42.15 Q-728.5 -43.15 -722.45 -50.45 L-720.65 -52.85 Q-716.65 -55.15 -715.0 -57.05 -712.4 -60.1 -714.0 -63.6 -714.9 -65.7 -714.75 -68.5 -712.2 -76.45 -706.75 -83.8 L-703.75 -87.25 Q-700.3 -88.45 -680.35 -87.9 L-655.2 -86.4 Q-644.75 -83.8 -631.25 -82.95 L-630.55 -82.9 -622.95 -80.3 Q-605.2 -74.0 -601.0 -62.8 -600.15 -60.55 -599.6 -57.85 L-599.6 -56.8 -601.2 -36.1 Q-602.8 -15.1 -602.8 -10.0 -602.8 -2.5 -601.6 9.95 -599.85 28.2 -596.8 32.0 -594.3 35.05 -589.2 36.7 L-579.45 38.9 Q-573.3 40.15 -570.1 41.95 -565.5 44.45 -563.6 49.2 L-560.4 58.65 Q-558.05 65.5 -556.0 69.6 -553.85 73.9 -547.95 78.5 -540.55 83.7 -536.85 86.5 -530.2 91.4 -527.05 95.9 -522.8 101.9 -522.8 109.2 L-522.75 110.5 Q-520.35 108.25 -515.2 106.8 L-472.4 106.4 -447.65 103.4 -443.2 103.4 -441.95 102.7 -401.15 97.7 -375.1 94.8 -343.6 94.65 -342.4 95.6 Q-339.5 97.55 -334.2 98.25 M708.85 -0.6 L713.0 2.4 740.65 -1.2 787.2 -8.0 Q809.9 -11.15 816.1 -1.5 818.1 1.6 818.25 6.0 L818.0 10.8 Q818.0 28.0 765.0 40.75 748.9 44.6 728.55 47.85 L712.0 50.4 712.2 51.4 Q697.85 50.75 693.25 48.0 691.05 46.7 690.75 44.7 L690.8 41.4 Q690.8 39.0 693.2 33.0 695.6 27.0 695.6 24.0 695.6 22.0 694.0 15.3 692.4 8.6 692.4 6.6 692.4 3.05 694.85 0.0 697.75 -3.6 702.4 -3.6 704.6 -3.6 708.85 -0.6 M552.45 3.3 Q558.4 3.8 566.4 16.0 L570.05 10.55 Q573.95 6.0 579.2 6.0 612.4 6.0 622.0 10.45 626.5 12.55 628.05 16.3 629.2 19.05 629.2 24.8 629.2 31.6 627.1 34.65 622.2 41.7 606.4 41.2 L605.2 43.6 Q609.2 46.5 609.85 53.2 610.2 56.85 610.0 62.8 L613.7 61.45 Q616.75 60.4 619.2 60.4 626.85 60.4 633.2 66.4 635.85 68.9 637.25 71.2 638.8 73.7 638.8 76.0 638.8 80.9 633.9 84.8 L630.85 86.8 Q622.5 91.6 610.4 91.6 595.15 91.6 591.2 85.1 589.9 82.9 589.8 79.85 L590.0 76.0 Q574.6 73.4 572.4 63.4 L571.35 55.3 Q570.6 50.75 568.0 48.4 551.25 52.2 545.05 38.65 542.0 32.1 542.0 22.6 L542.1 20.0 Q542.4 16.6 543.35 13.15 544.9 7.65 547.6 5.15 549.8 3.1 552.45 3.3 M-223.6 50.8 Q-217.5 46.3 -210.0 48.8 -206.0 51.05 -205.55 56.75 L-205.35 61.4 Q-205.15 64.05 -204.4 65.6 -202.6 69.15 -197.35 73.75 -193.05 77.55 -188.4 80.4 -145.4 81.6 -135.3 85.5 -129.55 87.75 -127.6 92.1 -126.1 95.5 -126.0 103.2 -126.0 109.6 -121.2 125.1 L-119.35 131.1 Q-116.4 140.8 -116.4 141.6 -116.4 146.25 -120.1 151.6 L-123.05 155.3 Q-130.4 163.6 -143.65 170.4 -177.2 187.6 -231.2 187.6 -234.2 187.6 -237.65 183.95 L-240.8 184.4 Q-244.35 184.4 -246.75 183.25 -249.2 182.05 -250.45 179.7 -251.6 177.55 -251.6 174.2 -251.6 172.5 -251.1 171.1 -250.3 168.7 -248.2 167.05 L-247.95 166.9 -249.95 162.4 Q-253.85 153.45 -256.9 144.05 L-259.0 136.85 Q-259.6 134.55 -259.6 133.6 -259.6 125.7 -258.7 118.7 -257.6 110.4 -255.3 103.3 -250.15 87.5 -237.2 71.2 -236.7 70.55 -234.05 65.1 L-231.1 59.65 -228.9 56.25 Q-226.4 52.8 -223.6 50.8 M-178.8 144.4 Q-175.7 144.85 -171.6 143.2 L-173.05 140.95 Q-174.05 139.6 -174.8 139.6 -177.2 143.2 -178.8 144.4" fill="#cccccc" fill-rule="evenodd" stroke="none"/>
    <path d="M-804.55 6.55 Q-812.4 5.4 -814.45 -1.05 -815.75 -5.05 -814.8 -9.4 L-814.0 -29.35 Q-813.2 -48.75 -813.2 -58.0 -809.55 -64.15 -806.15 -67.2 -802.85 -65.95 -796.8 -66.6 -793.1 -63.0 -787.65 -52.5 -784.65 -46.65 -783.1 -42.1 -782.0 -36.65 -782.0 -33.0 -782.0 -27.05 -782.25 -22.35 L-783.0 -15.0 Q-783.45 -10.55 -786.7 -4.55 -789.05 -0.15 -792.0 3.6 -800.55 2.95 -803.5 5.3 L-804.55 6.55 M-518.55 12.5 Q-518.0 17.55 -518.0 23.2 L-517.6 30.6 Q-517.45 36.2 -518.4 40.05 -521.35 51.6 -535.2 51.6 -551.45 51.6 -555.95 28.8 -556.95 23.85 -557.3 18.9 -556.25 13.9 -555.7 7.05 -555.3 1.85 -554.8 -10.5 -553.35 -14.55 -551.05 -17.35 -545.5 -24.2 -537.6 -21.4 -530.8 -19.0 -525.8 -10.65 L-525.0 -8.45 -523.0 -1.2 Q-521.4 4.8 -518.55 12.5" fill="#ffffff" fill-rule="evenodd" stroke="none"/>
    <path d="M602.35 -137.2 L624.8 -137.0 Q630.4 -135.9 645.15 -134.6 659.0 -133.4 663.2 -132.4 L712.8 -132.2 714.5 -131.7 716.8 -131.4 737.85 -134.2 Q759.65 -137.0 764.4 -137.0 804.15 -137.0 818.0 -120.5 822.55 -115.1 825.55 -106.15 829.45 -94.55 830.0 -93.4 833.0 -87.55 836.3 -68.2 839.4 -49.8 839.4 -40.6 839.4 -34.15 835.8 -18.4 831.2 1.8 825.6 1.8 822.4 1.8 821.25 -0.65 820.15 -4.1 818.85 -6.1 813.6 -14.0 789.6 -14.0 781.8 -14.0 759.15 -9.75 736.4 -5.45 729.6 -5.4 L688.8 -5.4 Q686.85 -7.55 681.4 -18.9 676.05 -30.15 669.75 -36.95 660.75 -46.75 646.4 -52.25 639.9 -54.8 632.4 -56.4 617.8 -59.6 599.2 -59.6 L581.95 -59.4 Q579.2 -57.45 574.8 -54.8 559.6 -45.6 556.8 -43.4 553.0 -40.5 538.2 -31.25 527.75 -24.75 524.8 -20.4 521.45 -15.4 519.75 -7.15 517.45 4.1 516.8 6.05 L515.55 9.1 Q512.95 14.3 508.2 18.0 L506.65 19.15 Q499.65 23.95 487.55 27.1 500.1 27.65 504.05 29.2 L506.05 30.35 Q507.05 31.2 507.4 32.35 507.6 33.1 507.6 37.0 507.6 39.3 505.25 43.85 L504.4 45.45 500.95 51.1 500.65 51.5 Q493.2 62.75 482.8 73.65 455.0 102.8 432.8 102.8 423.0 102.8 418.75 99.9 415.65 101.2 411.2 101.2 L405.3 100.55 Q395.0 105.2 380.8 106.0 305.95 110.4 231.45 118.7 134.35 129.5 59.6 135.6 57.6 136.8 55.15 139.3 52.65 141.2 48.0 141.2 39.45 141.2 36.4 135.7 L34.85 137.9 Q27.0 146.55 -1.6 144.8 -3.8 144.7 -7.4 145.55 L-15.35 147.65 Q-28.15 150.8 -43.2 150.8 -67.6 150.8 -70.8 136.5 -71.85 132.0 -70.6 126.6 L-69.2 122.0 Q-69.2 115.9 -71.2 109.9 -72.1 107.2 -75.6 99.5 -81.65 86.15 -81.95 73.1 L-82.0 71.6 Q-82.6 67.8 -82.45 64.95 -82.15 59.65 -78.4 56.05 -75.95 53.65 -72.05 51.95 -69.35 50.75 -65.85 49.9 -70.75 46.45 -73.85 40.2 -77.15 32.15 -79.0 28.4 -80.85 24.6 -85.75 17.15 L-93.6 5.6 Q-97.7 -0.4 -107.95 -3.9 L-122.1 -8.15 -128.8 -10.0 Q-130.7 -10.65 -134.25 -12.6 L-135.6 -13.35 Q-140.85 -16.4 -144.4 -17.9 -157.8 -23.6 -178.8 -23.6 -194.3 -23.6 -207.2 -18.6 -219.0 -14.0 -219.0 -9.7 -219.0 -8.05 -225.3 -4.35 L-241.2 4.55 Q-268.15 19.85 -283.4 35.4 -290.3 42.45 -301.5 58.35 -316.4 79.45 -316.4 87.9 -316.4 88.5 -314.9 90.3 -313.4 92.1 -313.4 92.7 -313.4 95.95 -316.2 97.2 -319.35 98.6 -328.0 98.6 L-334.2 98.25 Q-339.5 97.55 -342.4 95.6 L-343.6 94.65 -375.1 94.8 -411.0 95.0 Q-414.95 96.1 -419.4 97.85 -424.45 99.15 -437.6 99.8 L-439.9 101.4 -441.95 102.7 -443.2 103.4 -447.65 103.4 -466.4 103.4 Q-495.8 100.75 -505.2 98.4 -517.15 95.35 -525.4 87.2 -530.5 82.15 -542.2 72.45 -551.4 63.85 -551.4 57.5 -551.4 55.05 -550.2 53.6 -548.75 51.8 -545.6 51.8 -542.8 51.8 -540.45 54.1 -538.05 56.4 -532.8 56.4 -520.9 56.4 -517.0 44.4 -515.75 40.55 -515.45 35.8 L-515.4 31.2 Q-515.4 20.85 -516.65 17.65 L-518.55 12.5 Q-521.4 4.8 -523.0 -1.2 L-525.0 -8.45 -525.8 -10.65 Q-527.25 -14.15 -529.3 -16.85 -536.75 -26.95 -553.6 -28.8 -554.3 -24.9 -554.7 -13.25 L-554.8 -10.5 Q-555.3 1.85 -555.7 7.05 -556.25 13.9 -557.3 18.9 -560.05 32.2 -566.0 32.2 -586.0 32.2 -593.65 2.65 -597.5 -12.4 -597.8 -30.4 L-598.4 -46.6 Q-598.55 -53.0 -599.6 -57.85 -600.15 -60.55 -601.0 -62.8 -605.2 -74.0 -622.95 -80.3 L-630.55 -82.9 -634.45 -84.2 Q-639.4 -86.15 -639.4 -88.4 L-639.3 -89.35 -655.2 -89.2 -657.6 -88.8 -661.2 -88.6 Q-667.35 -88.6 -669.15 -91.05 -670.1 -92.25 -669.8 -93.7 -669.8 -96.3 -667.65 -97.5 -664.9 -99.1 -657.6 -99.4 L-636.4 -99.8 Q-635.0 -100.45 -624.6 -102.1 L-611.2 -104.2 -560.8 -104.4 Q-550.75 -106.7 -520.5 -111.05 L-473.6 -117.8 -447.2 -117.8 -444.8 -117.2 -399.2 -117.2 Q-356.7 -119.75 -328.85 -124.05 -294.85 -129.3 -250.4 -133.0 L-210.4 -133.2 Q-202.25 -139.9 -173.0 -131.8 L-169.55 -133.75 Q-166.95 -134.75 -162.65 -135.5 L-88.0 -135.2 Q-74.0 -126.3 -59.7 -118.65 -47.95 -112.35 -38.4 -108.7 -32.15 -104.7 -29.8 -100.85 L-26.3 -101.2 Q-1.8 -102.2 22.6 -104.6 25.1 -112.7 27.15 -117.25 33.7 -121.55 40.15 -127.1 L45.45 -131.85 46.4 -132.0 Q49.7 -132.35 52.85 -131.3 55.4 -139.8 72.4 -162.3 L80.35 -172.7 91.55 -182.75 Q101.55 -191.75 106.1 -197.6 112.4 -205.75 112.4 -212.4 L112.4 -212.5 Q116.95 -217.55 121.2 -221.65 L91.5 -224.3 Q81.95 -226.6 68.0 -228.45 44.6 -231.55 9.6 -234.0 L-14.6 -234.0 -20.9 -234.3 -20.75 -234.0 -32.0 -234.0 -34.7 -233.4 -49.2 -237.0 Q-74.5 -243.6 -74.5 -245.25 -74.5 -249.0 -69.0 -247.6 -62.35 -245.3 -60.1 -245.3 L-53.6 -246.5 Q-46.05 -246.5 -37.9 -245.15 -24.05 -238.65 73.6 -230.85 L82.6 -230.15 98.4 -228.6 103.95 -228.55 117.4 -227.6 120.45 -227.4 126.0 -227.0 149.15 -225.55 149.2 -223.8 Q149.2 -222.25 144.85 -217.3 L134.0 -205.55 Q115.95 -185.8 106.8 -169.2 104.55 -165.0 101.4 -160.05 L90.6 -147.95 Q75.0 -130.15 75.0 -129.2 75.0 -127.65 75.5 -126.55 L72.15 -123.35 92.1 -120.0 Q105.2 -117.6 119.2 -118.6 L144.0 -118.6 161.2 -116.6 Q171.75 -115.25 173.15 -114.05 L173.45 -113.4 175.0 -113.2 190.65 -115.45 209.6 -118.6 244.8 -118.8 Q247.1 -119.95 250.2 -120.6 L272.8 -120.6 274.35 -120.95 279.6 -120.75 284.8 -120.4 310.4 -120.2 317.8 -119.35 325.2 -118.8 Q334.35 -118.8 345.45 -120.7 L350.2 -121.45 362.5 -122.45 Q364.95 -122.0 366.0 -119.6 L366.6 -116.6 366.6 -116.3 Q384.3 -117.3 398.4 -119.4 L402.05 -120.1 Q402.8 -121.8 404.25 -122.85 406.1 -124.15 411.85 -125.4 418.05 -126.8 421.35 -128.65 426.9 -131.7 430.4 -138.0 L410.4 -156.15 406.3 -161.5 388.2 -182.8 385.6 -186.1 Q386.65 -190.75 390.75 -192.0 394.45 -188.65 398.2 -186.0 401.95 -183.4 413.2 -177.9 422.5 -173.35 424.4 -171.0 427.1 -167.55 438.05 -163.05 L438.5 -162.85 Q442.05 -159.8 445.55 -157.6 449.6 -152.95 463.3 -148.55 L464.1 -147.4 Q466.0 -143.95 466.0 -134.8 L465.9 -133.1 474.8 -134.65 503.85 -139.5 506.05 -139.15 522.4 -136.6 565.6 -136.4 568.0 -135.8 593.6 -135.8 Q598.95 -136.25 602.35 -137.2 M-796.0 13.8 Q-802.6 13.65 -804.45 11.4 -805.45 10.2 -805.0 8.7 -805.0 7.45 -804.55 6.55 L-803.5 5.3 Q-800.55 2.95 -792.0 3.6 -789.05 -0.15 -786.7 -4.55 -783.45 -10.55 -783.0 -15.0 L-782.25 -22.35 -781.95 -25.8 Q-781.4 -32.1 -781.4 -33.6 -781.4 -37.1 -783.1 -42.1 -784.65 -46.65 -787.65 -52.5 -793.1 -63.0 -796.8 -66.6 -802.85 -65.95 -806.15 -67.2 -807.45 -67.7 -808.3 -68.5 -809.8 -69.9 -809.8 -72.1 -809.8 -75.0 -789.55 -81.15 -771.45 -86.65 -762.0 -88.0 -739.3 -92.65 -725.8 -94.65 -700.6 -98.35 -700.6 -91.6 -700.6 -91.1 -703.75 -87.25 L-706.75 -83.8 Q-712.2 -76.45 -714.75 -68.5 L-715.8 -64.8 Q-717.4 -57.85 -720.65 -52.85 L-722.45 -50.45 Q-728.5 -43.15 -738.3 -42.15 L-742.4 -42.0 Q-742.15 -37.65 -744.05 -31.35 L-745.4 -27.35 Q-749.05 -17.45 -755.35 -8.8 -771.95 13.8 -795.2 13.8 L-796.0 13.8 M440.1 28.65 L448.6 27.55 437.55 27.6 438.35 29.05 440.1 28.65 M429.25 61.7 Q428.1 64.45 427.3 68.0 430.1 61.9 431.1 58.3 430.0 60.0 429.25 61.7 M7.75 42.95 Q16.3 43.25 20.55 44.25 25.4 45.4 27.85 48.2 26.8 44.75 26.8 42.2 L26.85 41.3 16.8 41.2 7.75 42.95 M30.55 55.05 Q31.1 58.2 31.45 62.9 L32.35 72.35 32.4 72.15 34.8 65.6 Q34.8 64.1 30.8 55.65 L30.55 55.05" fill="#ff0000" fill-rule="evenodd" stroke="none"/>
    <path d="M-37.9 -245.15 Q-40.2 -246.25 -40.2 -247.3 -40.2 -254.35 -1.6 -250.25 -0.7 -253.25 4.5 -254.55 L10.75 -255.85 Q14.85 -256.7 17.6 -257.8 L206.4 -258.0 Q326.65 -255.05 391.55 -244.55 417.7 -240.3 441.8 -233.8 452.85 -230.85 483.2 -221.4 497.45 -217.7 519.6 -206.75 539.9 -196.7 561.0 -183.6 581.8 -170.65 594.95 -159.9 609.0 -148.45 609.0 -143.7 609.0 -140.65 606.35 -138.9 604.85 -137.95 602.35 -137.2 598.95 -136.25 593.6 -135.8 L568.0 -135.8 565.6 -136.4 522.4 -136.6 506.05 -139.15 503.85 -139.5 Q490.05 -141.85 479.45 -144.25 470.15 -146.35 463.3 -148.55 449.6 -152.95 445.55 -157.6 444.15 -159.15 443.9 -160.75 L438.5 -162.85 438.05 -163.05 Q427.1 -167.55 424.4 -171.0 422.5 -173.35 413.2 -177.9 401.95 -183.4 398.2 -186.0 394.45 -188.65 390.75 -192.0 384.95 -197.3 379.35 -204.4 370.25 -216.9 365.6 -222.0 L346.45 -222.55 329.6 -223.95 320.8 -225.2 284.8 -225.4 282.4 -226.0 259.2 -226.0 256.8 -225.4 253.15 -225.35 Q251.85 -226.65 249.6 -226.6 L228.8 -226.6 225.05 -225.55 Q222.2 -224.8 216.0 -224.4 L186.4 -224.2 183.7 -223.6 155.5 -225.2 149.15 -225.55 126.0 -227.0 120.45 -227.4 117.4 -227.6 103.95 -228.55 82.6 -230.15 73.6 -230.85 Q-24.05 -238.65 -37.9 -245.15" fill="#cc9966" fill-rule="evenodd" stroke="none"/>
    <path d="M-162.65 -135.5 L-188.8 -135.6 Q-194.3 -136.45 -199.25 -139.3 L-204.0 -142.0 Q-206.0 -142.0 -209.2 -140.4 -212.4 -138.8 -214.4 -138.8 -220.85 -138.8 -223.2 -143.65 -224.4 -146.1 -224.4 -149.6 -224.4 -164.3 -141.85 -197.2 -110.65 -209.65 -77.4 -220.65 -49.25 -230.0 -34.7 -233.4 L-32.0 -234.0 -20.75 -234.0 -14.6 -234.0 9.6 -234.0 Q44.6 -231.55 68.0 -228.45 81.95 -226.6 91.5 -224.3 112.25 -219.4 112.4 -212.5 L112.4 -212.4 Q112.4 -205.75 106.1 -197.6 101.55 -191.75 91.55 -182.75 L80.35 -172.7 75.2 -168.05 Q66.65 -159.75 63.6 -153.6 62.15 -150.75 56.75 -144.1 51.45 -137.65 45.45 -131.85 L40.15 -127.1 Q33.7 -121.55 27.15 -117.25 6.0 -103.6 -16.0 -103.6 -25.1 -103.6 -38.4 -108.7 -47.95 -112.35 -59.7 -118.65 -74.0 -126.3 -88.0 -135.2 L-162.65 -135.5 M385.6 -186.1 L388.2 -182.8 406.3 -161.5 410.4 -156.15 Q421.0 -141.95 421.0 -136.6 421.0 -131.25 388.9 -126.05 374.1 -123.7 362.5 -122.45 L350.2 -121.45 348.8 -121.4 275.2 -121.2 274.35 -120.95 272.8 -120.6 250.2 -120.6 220.0 -120.6 217.6 -121.2 156.8 -121.4 Q140.5 -124.65 127.7 -125.15 L110.4 -126.0 86.4 -125.8 83.55 -124.35 Q82.15 -123.8 80.8 -123.8 76.65 -123.8 75.5 -126.55 75.0 -127.65 75.0 -129.2 75.0 -130.15 90.6 -147.95 L101.4 -160.05 115.2 -175.0 138.25 -200.8 Q154.65 -219.4 155.6 -219.4 L156.3 -219.35 Q156.6 -220.05 157.2 -220.4 158.3 -221.1 162.05 -221.25 174.5 -221.8 183.7 -223.6 L186.4 -224.2 216.0 -224.4 Q222.2 -224.8 225.05 -225.55 L228.8 -226.6 249.6 -226.6 Q251.85 -226.65 253.15 -225.35 L253.95 -224.25 254.0 -224.2 320.8 -224.2 329.6 -223.95 346.45 -222.55 Q356.0 -221.2 359.5 -218.7 361.75 -217.15 363.95 -213.15 366.4 -208.75 369.2 -206.2 374.75 -201.25 379.55 -194.45 L385.6 -186.1" fill="#00ffff" fill-opacity="0.49803922" fill-rule="evenodd" stroke="none"/>
    <path d="M28.65 -132.1 Q37.45 -130.15 38.35 -126.55 39.0 -124.0 35.25 -118.75 29.85 -111.3 28.8 -109.0 25.95 -102.85 28.65 -97.65 L-48.9 -97.65 Q-53.55 -103.4 -42.2 -105.35 L-13.85 -107.9 Q6.55 -109.65 16.35 -113.9 30.1 -119.85 28.65 -132.1" fill="#373535" fill-rule="evenodd" stroke="none"/>
    <path d="M-556.95 -97.35 L-582.05 -96.6 -609.8 -98.5 -634.8 -97.65 Q-629.75 -104.4 -617.85 -106.55 L-592.75 -107.3 -564.95 -105.4 Q-549.1 -104.55 -540.0 -106.25 -545.05 -99.5 -556.95 -97.35" fill="#373535" fill-rule="evenodd" stroke="none"/>
    <path d="M-121.1 -88.0 L-146.7 -89.85 Q-161.3 -90.7 -169.5 -89.0 -165.4 -95.75 -154.7 -97.85 L-131.75 -98.65 -106.2 -96.75 Q-91.55 -95.95 -83.35 -97.65 -87.45 -90.9 -98.15 -88.75 L-121.1 -88.0" fill="#373535" fill-rule="evenodd" stroke="none"/>
    <path d="M-264.4 -84.8 Q-238.8 -87.7 -195.35 -89.0 -197.0 -80.45 -244.05 -75.2 -286.25 -70.45 -324.6 -71.8 -300.45 -80.75 -264.4 -84.8" fill="#373535" fill-rule="evenodd" stroke="none"/>
    <path d="M614.85 -84.05 Q611.65 -81.2 604.55 -78.75 586.55 -72.55 554.25 -71.8 577.95 -86.15 597.35 -90.1 605.1 -91.65 610.4 -91.15 615.25 -90.65 616.5 -88.65 617.8 -86.65 614.85 -84.05" fill="#373535" fill-rule="evenodd" stroke="none"/>
    <path d="M395.25 -70.8 Q408.65 -65.35 407.75 -54.55 397.1 -52.5 388.0 -54.2 382.55 -55.15 373.3 -58.85 364.05 -62.5 358.6 -63.5 349.5 -65.2 338.85 -63.15 339.7 -56.8 348.5 -55.55 L364.7 -54.55 Q363.25 -41.45 344.25 -45.15 337.45 -46.45 330.2 -49.65 323.8 -52.45 321.6 -54.55 321.25 -62.85 335.0 -68.7 347.65 -74.05 365.25 -74.8 383.45 -75.55 395.25 -70.8" fill="#373535" fill-rule="evenodd" stroke="none"/>
    <path d="M200.95 31.6 Q195.9 38.4 184.0 40.5 L158.9 41.25 131.15 39.35 Q115.3 38.55 106.2 40.25 111.25 33.45 123.15 31.35 L148.25 30.55 176.0 32.45 200.95 31.6" fill="#373535" fill-rule="evenodd" stroke="none"/>
    <path d="M2.8 66.1 Q23.9 57.2 49.6 54.5 74.65 51.9 80.35 57.45 79.75 56.9 70.75 60.5 60.9 64.45 51.5 69.45 24.75 83.6 28.55 91.7 26.45 87.5 26.35 80.45 26.25 71.25 26.0 70.05 25.05 65.25 20.55 64.1 15.05 62.8 2.8 66.1" fill="#373535" fill-rule="evenodd" stroke="none"/>
    <path d="M-403.05 99.7 L-428.0 100.55 Q-422.95 93.75 -411.05 91.65 L-385.95 90.9 -358.2 92.8 -333.2 91.9 Q-338.25 98.7 -350.15 100.8 L-375.25 101.6 -403.05 99.7" fill="#373535" fill-rule="evenodd" stroke="none"/>
    <path d="M246.45 110.95 Q217.85 105.7 192.35 109.15 190.6 100.7 226.3 100.8 256.0 100.9 294.65 106.15 332.1 111.25 335.55 115.15 339.4 119.55 287.15 117.75 279.35 117.5 267.7 115.25 L246.45 110.95" fill="#373535" fill-rule="evenodd" stroke="none"/>
    <path d="M108.8 108.15 Q121.25 107.4 147.75 111.0 L193.95 117.25 Q220.35 120.1 235.45 117.75 229.75 125.85 177.4 130.85 134.4 134.95 88.95 135.0 81.0 129.7 87.45 127.55 92.55 125.8 107.9 125.85 112.4 125.85 136.1 126.6 152.5 127.1 157.9 126.4 155.7 119.7 147.3 117.6 140.9 115.95 128.75 116.75 L107.5 118.6 Q95.4 119.4 88.95 117.75 91.8 109.15 108.8 108.15" fill="#373535" fill-rule="evenodd" stroke="none"/>
    <path d="M812.7 -140.7 Q841.15 -94.65 841.5 -50.1 841.9 -4.4 812.7 40.25 759.45 50.5 747.25 52.35 709.1 58.05 674.85 57.45 682.15 40.8 682.2 22.3 682.3 4.8 675.9 -11.3 669.6 -27.3 658.3 -38.6 646.55 -50.3 631.75 -54.55 638.25 -30.15 643.5 -10.9 L646.05 -6.4 657.6 14.4 Q678.4 117.4 643.5 -10.9 638.15 -20.0 633.6 -26.2 618.05 -47.4 597.3 -54.55 566.7 -45.8 546.45 -24.0 530.6 -6.85 519.95 20.0 515.8 30.6 506.3 63.35 499.8 85.65 493.9 91.9 494.75 97.8 498.65 97.95 499.9 98.05 506.85 96.05 512.3 94.45 515.0 96.35 518.9 99.0 519.75 109.15 520.8 126.4 512.1 131.35 508.25 133.55 503.5 132.25 498.6 131.0 493.9 126.4 496.3 135.7 506.55 136.75 L516.0 136.5 525.65 135.35 Q536.7 134.2 539.65 138.1 543.75 143.55 537.0 160.85 569.95 163.0 591.8 159.65 617.6 155.65 631.75 143.6 636.55 135.5 646.65 119.7 654.85 105.4 657.6 91.9 665.15 79.35 665.45 84.3 665.7 88.6 660.8 103.8 656.2 118.05 650.25 132.4 643.9 147.7 640.4 152.25 629.8 151.95 623.25 156.65 617.3 160.9 614.55 169.45 582.65 170.2 561.6 168.55 534.6 166.45 516.25 160.05 472.7 144.75 468.05 100.55 428.0 111.65 371.45 107.7 323.75 104.4 278.5 91.9 L347.45 91.9 Q368.7 102.05 402.75 100.4 426.45 99.25 459.45 91.9 488.4 64.75 511.15 31.6 L450.85 31.6 Q440.0 38.85 433.95 57.8 432.1 63.55 429.4 74.8 426.55 86.75 425.0 91.9 L381.9 91.9 Q405.65 83.7 416.45 74.75 431.95 61.9 433.6 40.25 421.95 26.1 390.05 23.5 378.9 22.6 360.6 22.75 L330.2 23.0 Q338.5 29.6 345.3 32.0 360.1 29.95 370.55 29.6 L373.7 28.9 Q381.25 28.0 389.85 31.35 383.7 29.15 370.55 29.6 367.35 30.4 361.45 32.15 354.4 34.2 348.6 32.95 L345.3 32.0 341.45 32.55 Q333.15 33.75 299.7 39.9 L304.35 40.25 298.25 40.15 261.85 46.85 Q207.2 56.95 175.5 59.95 129.95 64.25 106.2 57.45 110.3 50.7 121.0 48.6 L143.95 47.8 169.5 49.7 192.35 48.85 Q209.9 41.0 243.9 40.05 261.95 39.55 298.25 40.15 L299.7 39.9 Q242.8 35.25 239.9 29.35 237.3 24.1 275.3 20.1 312.15 16.2 355.35 16.6 403.45 17.05 425.0 23.0 426.65 14.05 424.85 7.0 424.0 3.6 420.85 -2.7 418.5 -7.35 418.9 -10.3 419.45 -14.45 425.0 -20.1 426.2 -24.3 428.8 -19.95 431.2 -15.95 433.35 -7.35 435.55 1.7 435.85 9.65 436.2 18.9 433.6 23.0 L493.9 23.0 Q492.25 15.75 480.5 14.85 465.9 15.15 459.45 14.4 477.25 13.35 489.6 3.6 499.4 -4.1 507.7 -19.25 512.55 -28.05 521.05 -46.8 529.1 -63.25 537.0 -71.8 543.2 -65.4 539.5 -57.0 537.45 -52.4 527.55 -40.3 517.55 -28.05 513.85 -19.95 508.0 -7.1 511.15 5.75 517.3 -13.35 534.25 -29.9 551.1 -46.35 573.35 -55.3 596.9 -64.75 620.1 -63.1 645.7 -61.25 666.25 -45.95 659.0 -64.55 640.4 -71.8 646.1 -77.3 653.7 -72.8 660.45 -68.75 667.35 -57.75 673.8 -47.5 678.3 -34.65 682.85 -21.7 683.45 -11.45 710.25 -8.4 742.25 -13.0 L768.35 -17.05 Q783.8 -19.4 795.5 -20.1 796.65 -7.7 784.65 -0.4 774.3 5.95 756.25 7.4 739.85 8.75 723.75 5.75 707.6 2.8 700.7 -2.85 695.65 1.7 694.45 14.3 693.7 22.5 692.1 48.85 739.6 54.75 774.25 40.0 805.8 26.6 821.85 -1.4 837.05 -28.0 834.7 -60.8 832.35 -93.9 812.7 -123.5 723.3 -133.45 610.4 -133.05 505.15 -132.65 407.75 -123.5 402.75 -117.5 401.8 -114.2 401.1 -111.6 402.65 -108.65 L406.05 -101.9 Q408.0 -96.55 407.75 -89.0 381.45 -111.95 329.25 -115.75 308.0 -117.3 279.85 -115.95 L227.75 -111.95 176.1 -107.25 127.95 -105.3 Q77.4 -105.95 54.5 -123.5 41.5 -136.15 53.85 -154.1 60.9 -164.4 84.4 -184.3 94.9 -193.2 98.95 -197.3 105.4 -203.75 106.45 -207.8 108.9 -217.4 80.35 -218.25 80.7 -224.8 86.75 -226.95 91.4 -228.6 100.9 -227.85 L117.75 -226.1 Q127.35 -225.3 132.05 -226.85 123.75 -216.45 92.9 -179.9 68.5 -151.0 54.5 -132.1 130.35 -121.4 235.45 -121.4 340.5 -121.4 416.35 -132.1 420.25 -140.9 412.2 -150.95 407.5 -156.85 391.6 -169.8 375.15 -183.15 368.25 -191.35 356.95 -204.75 356.05 -218.25 L157.9 -218.25 Q139.65 -201.9 117.7 -176.6 L80.35 -132.1 Q76.6 -142.85 84.1 -155.6 89.85 -165.25 104.4 -179.15 L129.9 -202.85 Q144.0 -216.65 149.3 -226.85 L364.7 -226.85 Q387.7 -202.0 406.4 -186.7 430.8 -166.75 456.65 -155.15 518.55 -127.35 605.9 -140.7 563.4 -191.6 483.9 -219.0 415.1 -242.75 314.0 -250.2 235.0 -256.0 119.9 -252.45 L21.15 -248.5 -74.75 -244.1 Q-32.65 -237.9 38.2 -231.5 55.8 -229.45 48.05 -228.55 L-5.8 -226.85 Q-68.0 -226.05 -128.55 -199.25 -149.8 -189.85 -177.25 -174.35 -207.05 -157.05 -221.2 -149.3 -209.65 -142.55 -189.0 -140.6 -175.85 -139.35 -148.9 -139.75 -120.2 -140.2 -108.35 -139.4 -87.0 -137.95 -74.75 -132.1 -123.5 -133.7 -184.1 -130.95 -230.15 -128.85 -297.75 -123.35 L-414.1 -113.7 Q-482.05 -108.3 -531.4 -106.25 -529.2 -112.95 -520.8 -115.05 -514.35 -116.7 -502.25 -115.85 L-481.0 -114.05 Q-468.9 -113.2 -462.45 -114.85 -340.55 -115.25 -239.6 -154.75 -156.3 -187.4 -74.75 -252.7 L24.9 -257.75 126.75 -261.65 Q242.95 -264.65 325.55 -257.5 428.15 -248.55 498.7 -222.9 579.45 -193.55 623.15 -140.7 L812.7 -140.7 M390.5 -183.8 Q397.7 -181.05 406.45 -169.2 L421.35 -147.9 Q430.3 -136.25 438.1 -133.75 448.15 -130.55 459.45 -140.7 449.3 -141.15 438.25 -150.0 431.85 -155.15 420.1 -168.1 409.4 -179.95 404.45 -183.3 396.45 -188.6 390.5 -183.8" fill="#373535" fill-rule="evenodd" stroke="none"/>
    <path d="M-40.45 65.4 Q-47.6 64.35 -60.65 57.45 -72.35 51.3 -75.0 51.7 -79.4 52.35 -74.75 66.1 -82.0 62.1 -86.6 52.1 -88.2 48.6 -93.3 32.95 -97.2 20.95 -101.5 15.25 -107.6 7.2 -117.8 5.75 -117.6 9.05 -116.3 13.15 -111.5 21.8 -107.35 31.75 L-106.65 32.95 Q-100.45 43.15 -85.2 66.25 -72.0 87.6 -67.1 103.75 -60.6 125.2 -66.1 143.6 -48.05 139.35 -13.7 137.7 14.9 136.35 39.75 137.25 63.95 138.1 57.55 139.95 50.25 142.05 2.8 143.6 -14.45 149.45 -32.25 151.65 -52.4 154.15 -74.75 152.25 -76.1 207.35 -118.1 237.4 -136.65 250.65 -161.1 257.1 -184.55 263.3 -210.4 262.45 -236.0 261.6 -259.95 254.0 -284.6 246.2 -303.8 232.4 -324.15 217.85 -336.0 198.3 -348.7 177.25 -350.45 152.25 -392.0 145.7 -425.8 158.7 -437.55 163.2 -453.4 172.1 -477.6 185.65 -479.7 186.7 -502.65 175.95 -536.8 166.3 -549.15 162.8 -598.6 150.55 -636.85 141.05 -659.1 133.5 -690.8 122.7 -712.3 109.15 L-679.15 118.8 Q-653.95 125.95 -632.55 130.8 -569.1 145.25 -522.75 143.6 -528.3 127.5 -546.6 120.05 -560.45 114.5 -586.5 112.55 L-631.1 109.8 Q-656.1 107.4 -669.25 100.55 -659.15 93.45 -639.25 96.0 -630.95 97.05 -600.1 104.7 -574.05 111.1 -558.95 111.3 -536.85 111.55 -522.75 100.55 -558.75 69.85 -606.8 70.2 -625.65 70.35 -649.6 75.2 -662.45 77.85 -691.95 85.55 -718.7 92.55 -733.05 95.05 -755.2 98.95 -772.2 97.6 -813.85 94.4 -841.5 57.45 -828.5 44.2 -822.45 27.5 -817.65 14.2 -815.9 -6.0 L-813.5 -44.4 Q-811.7 -69.2 -807.05 -89.0 L-750.75 -93.65 Q-715.55 -96.75 -694.2 -96.8 -664.0 -96.95 -642.4 -91.8 -617.0 -85.75 -600.3 -71.8 -595.95 -53.3 -594.4 -32.75 L-592.5 -4.7 Q-590.95 8.1 -585.85 15.65 -579.85 24.55 -565.85 31.6 -558.25 26.6 -558.05 17.85 -557.95 12.05 -561.95 -0.35 -566.75 -15.2 -567.8 -22.0 -569.85 -35.1 -565.85 -45.95 -542.5 -49.25 -488.2 -60.9 -444.05 -70.3 -419.4 -71.8 L-360.35 -74.7 Q-340.75 -74.05 -393.55 -63.15 -399.65 -61.9 -421.9 -59.05 L-467.55 -53.25 Q-532.55 -44.6 -557.25 -37.3 -556.15 -31.1 -548.15 -29.2 -543.5 -28.1 -532.7 -27.4 -523.6 -26.25 -520.9 -21.95 -517.3 -16.15 -522.75 -2.85 -525.4 -4.55 -528.1 -8.25 L-532.65 -14.55 Q-538.5 -21.6 -548.6 -20.1 -559.75 -13.95 -553.5 12.9 -548.8 33.25 -540.0 48.85 -529.95 51.95 -525.65 48.15 -522.15 45.05 -521.95 36.75 -521.9 33.65 -523.0 20.6 -523.85 10.45 -522.75 5.75 -516.2 6.15 -514.1 12.15 -512.45 16.8 -513.2 26.35 -513.6 31.8 -514.9 43.15 -515.7 52.75 -514.15 57.45 L-548.6 57.45 Q-532.45 82.65 -511.15 93.2 -484.85 106.2 -445.25 100.55 -437.9 107.15 -447.2 108.8 -452.8 109.75 -473.3 109.15 -495.3 108.55 -504.75 109.55 -520.55 111.25 -522.75 117.75 -517.55 135.4 -497.3 141.85 -481.3 146.9 -451.75 145.85 L-398.6 142.25 Q-367.35 140.35 -350.45 143.6 -338.15 108.15 -311.95 70.7 -283.05 29.35 -249.15 3.6 -209.95 -26.15 -172.35 -27.95 -129.0 -30.05 -92.0 5.7 -94.65 3.25 -85.85 16.2 -76.4 30.1 -66.25 41.45 -52.65 56.75 -42.3 61.8 -31.1 67.2 -24.85 59.95 -30.5 66.85 -40.45 65.4 M-617.55 -20.1 Q-623.2 -16.0 -626.8 -7.8 -629.3 -2.1 -631.85 8.7 -635.05 22.2 -636.2 25.85 -639.15 35.1 -643.4 40.25 -631.95 44.9 -628.25 40.3 -625.75 37.1 -626.35 27.15 -627.05 14.85 -626.45 11.9 -625.05 4.85 -617.55 5.75 -617.05 9.65 -617.7 18.8 -618.35 28.2 -617.9 32.0 -617.25 38.5 -613.65 40.65 -609.4 43.3 -600.3 40.25 -610.75 8.2 -612.5 -13.1 -614.2 -34.0 -608.95 -63.15 -637.0 -71.85 -651.7 -74.2 -675.75 -77.95 -712.3 -71.8 -713.75 -56.25 -701.4 -50.2 -691.85 -45.55 -672.75 -46.1 L-642.4 -48.4 Q-627.7 -49.4 -626.15 -45.95 -632.75 -36.1 -633.75 -31.5 -634.6 -27.65 -631.7 -26.2 L-624.7 -24.3 Q-619.8 -23.0 -617.55 -20.1 M-646.85 -22.55 Q-651.7 -16.95 -660.65 5.75 -660.0 -5.85 -662.2 -13.25 -664.75 -22.0 -669.25 -11.45 -666.75 -6.65 -665.25 1.75 -664.35 6.65 -663.0 16.8 -660.15 35.25 -652.0 40.25 -647.25 22.6 -644.45 6.0 -641.65 -10.65 -642.1 -18.7 -642.55 -27.5 -646.85 -22.55 M-648.35 47.9 L-673.75 49.25 Q-701.15 48.2 -712.3 31.6 -716.95 25.35 -717.95 16.05 -718.65 9.95 -717.8 -1.6 -716.85 -14.7 -717.05 -19.9 -717.45 -30.05 -720.9 -37.3 -733.4 -40.95 -740.25 -37.25 -745.35 -34.5 -748.65 -26.3 L-753.95 -12.2 Q-757.6 -4.7 -763.95 -2.85 -765.1 -9.65 -763.1 -14.9 -762.15 -17.4 -758.3 -23.05 -755.05 -27.9 -754.2 -31.85 -752.95 -37.75 -755.35 -45.95 -740.35 -41.8 -731.55 -45.8 -724.65 -48.95 -720.2 -58.15 L-713.5 -75.15 Q-709.35 -85.05 -703.65 -89.0 -728.8 -89.95 -758.1 -83.15 L-782.25 -77.15 Q-796.8 -73.55 -807.05 -71.8 L-807.05 5.75 Q-800.55 9.65 -793.65 7.65 -789.5 6.4 -783.2 1.85 -777.8 -2.05 -776.1 -1.95 -773.3 -1.75 -772.6 5.75 -790.15 12.4 -805.9 24.15 -819.15 34.0 -832.9 48.85 -797.85 32.45 -759.35 37.0 -743.15 38.9 -723.55 44.75 -709.4 48.95 -686.5 57.45 -704.4 58.9 -728.15 53.75 L-747.0 49.2 -764.35 45.4 Q-782.9 42.25 -793.9 47.4 -807.55 53.85 -815.65 74.7 -790.05 90.4 -755.55 86.8 -742.0 85.4 -724.1 80.75 L-691.85 71.45 Q-671.4 65.35 -658.95 62.55 -640.6 58.45 -625.45 57.7 -588.0 55.95 -557.25 74.7 -557.3 49.6 -576.75 43.75 -590.0 39.8 -622.1 44.3 L-648.35 47.9 M-179.75 -9.5 Q-209.05 -6.5 -234.65 8.6 -262.1 24.8 -278.55 51.15 -296.8 80.3 -298.75 117.75 -299.05 106.6 -299.8 101.55 -301.05 92.8 -307.35 91.9 -299.5 132.25 -293.55 155.1 -287.9 176.75 -281.55 191.7 -276.8 202.75 -267.35 219.35 -252.75 244.95 -247.05 255.65 -173.3 265.55 -132.35 236.6 -97.6 212.0 -89.3 162.05 -82.3 119.85 -95.0 69.65 -100.25 48.8 -107.35 31.75 -113.85 20.95 -116.3 13.15 -121.05 4.5 -126.45 -2.85 -150.7 -12.5 -179.75 -9.5" fill="#373535" fill-rule="evenodd" stroke="none"/>
    <path d="M-436.6 -89.0 Q-442.3 -80.9 -494.65 -75.95 -537.7 -71.85 -583.1 -71.8 -554.9 -80.85 -514.35 -84.9 -484.5 -87.9 -436.6 -89.0" fill="#373535" fill-rule="evenodd" stroke="none"/>
    <path d="M638.05 28.35 Q644.4 49.15 640.4 74.7 633.3 81.2 627.85 79.85 626.3 79.45 622.2 77.55 617.9 75.6 614.55 74.7 617.2 83.2 623.55 87.65 630.35 92.45 631.75 83.3 637.6 90.35 633.65 99.65 629.95 108.4 619.05 115.9 607.8 123.6 593.55 126.6 577.8 129.95 562.85 126.4 560.85 121.75 551.75 103.05 544.8 88.8 541.4 78.9 531.35 49.35 537.0 14.4 542.75 30.15 551.85 34.5 559.2 37.95 571.45 34.7 L579.45 32.3 580.1 31.6 581.75 31.55 595.3 26.9 Q610.95 22.15 623.15 23.0 623.1 18.25 613.3 14.95 603.95 11.8 592.7 12.05 580.45 12.35 574.4 16.8 567.25 22.05 571.45 31.6 556.6 23.85 551.35 17.3 542.9 6.65 545.6 -11.45 566.0 -19.9 585.3 -17.55 604.0 -15.25 617.9 -3.3 632.0 8.8 638.05 28.35 M579.45 32.3 Q574.6 37.5 573.35 45.5 572.05 53.85 575.25 61.4 578.65 69.5 586.0 73.15 594.35 77.35 605.9 74.7 604.95 52.4 601.7 44.45 596.5 31.45 581.75 31.55 L579.45 32.3" fill="#373535" fill-rule="evenodd" stroke="none"/>
    <path d="M28.65 -2.85 Q22.3 -11.25 24.95 -9.65 27.6 -8.1 32.15 -0.65 37.9 8.6 39.75 18.0 42.25 30.35 37.25 40.25 L88.95 40.25 Q95.4 45.95 86.65 48.1 79.75 49.8 61.6 49.55 L28.65 48.5 Q9.75 47.9 2.8 48.85 2.95 43.65 9.0 42.1 12.45 41.25 20.05 40.25 26.45 40.75 28.6 35.9 30.25 32.1 29.6 23.95 28.4 14.1 27.95 9.35 27.2 1.05 28.65 -2.85" fill="#373535" fill-rule="evenodd" stroke="none"/>
    <path d="M-139.1 53.7 Q-126.1 69.7 -119.75 94.1 -113.65 117.35 -115.05 142.35 -116.5 167.7 -125.25 187.55 -134.7 208.85 -150.55 218.75 -168.1 229.7 -191.1 224.95 -216.7 219.7 -247.05 195.3 -247.35 184.75 -242.65 178.2 -238.4 172.25 -229.85 169.45 -231.95 161.05 -238.8 165.75 -241.6 167.65 -243.9 171.1 -246.3 174.65 -247.05 178.1 -253.95 175.3 -258.55 167.45 -263.0 159.85 -262.9 151.8 -262.8 143.15 -257.15 138.55 -250.7 133.25 -238.45 135.0 -238.75 124.8 -243.25 124.55 -246.2 124.45 -252.7 129.35 -259.6 134.55 -261.5 134.8 -265.2 135.3 -264.3 126.4 -264.85 114.7 -263.55 111.9 -262.5 109.6 -259.0 111.75 L-250.65 116.75 Q-244.45 119.5 -238.45 117.75 -251.85 115.2 -254.45 103.75 -256.65 94.05 -250.85 79.45 -245.8 66.7 -236.75 54.9 -228.0 43.5 -221.2 40.25 -194.85 27.55 -173.0 32.1 -153.35 36.2 -139.1 53.7 M-220.75 76.75 Q-216.15 85.4 -215.6 90.95 -214.8 99.7 -221.2 109.15 L-204.0 109.15 Q-203.85 105.6 -202.1 102.45 L-198.6 97.3 Q-194.05 90.95 -195.35 83.3 -208.85 84.05 -211.2 79.05 -212.65 75.9 -209.55 67.35 -206.25 58.35 -207.25 55.0 -208.9 49.2 -221.2 48.85 -227.15 56.25 -226.05 63.7 -225.45 67.85 -220.75 76.75 M-217.1 124.0 L-229.85 135.0 Q-214.45 128.5 -206.5 132.15 -199.8 135.2 -200.35 143.7 -200.9 151.7 -206.85 157.35 -212.25 162.55 -218.65 161.5 -213.4 163.3 -207.9 169.1 -200.7 176.65 -195.35 178.1 -194.05 168.9 -187.5 162.25 -183.6 158.25 -173.8 152.25 -164.05 146.2 -160.15 142.25 -155.25 137.3 -153.3 130.9 -153.3 128.8 -152.3 126.4 -152.65 128.7 -153.3 130.9 -153.25 135.4 -148.35 138.65 -142.45 142.55 -132.55 143.3 -123.2 144.05 -120.2 141.7 -116.85 139.1 -126.45 135.0 -139.05 134.6 -141.8 133.45 -144.0 132.5 -140.5 130.3 -135.1 127.25 -132.2 125.15 -127.0 121.45 -126.45 117.75 -142.9 123.05 -147.2 122.9 -150.85 122.75 -147.15 118.15 L-136.75 106.75 Q-129.2 98.25 -126.45 91.9 -135.9 91.15 -141.55 96.2 -145.2 99.5 -149.2 107.9 -153.6 117.2 -156.25 120.25 -161.3 126.05 -169.5 126.4 L-169.5 100.55 Q-187.8 102.6 -203.85 113.6 -209.5 117.5 -217.1 124.0" fill="#373535" fill-rule="evenodd" stroke="none"/>
  </g>
</svg>
