<?xml version="1.0" encoding="UTF-8" standalone="no"?>
<svg xmlns:xlink="http://www.w3.org/1999/xlink" height="2526.25px" width="1992.6px" xmlns="http://www.w3.org/2000/svg">
  <g transform="matrix(1, 0, 0, 1, 996.1, 1298.9)">
    <path d="M-161.6 159.5 L-162.05 160.0 Q-159.65 164.0 -156.1 168.0 -153.4 171.0 -148.55 175.5 -145.1 178.65 -145.1 179.25 -145.1 180.55 -146.2 181.2 -147.05 181.7 -148.2 181.7 -152.65 181.7 -159.3 173.95 -163.75 168.75 -167.4 162.5 -170.15 157.95 -171.25 152.8 -172.1 148.75 -172.1 143.45 L-172.0 142.45 -172.1 142.05 -171.6 138.3 -171.3 133.4 Q-169.75 128.2 -167.75 128.65 -165.9 129.05 -165.9 132.45 L-166.0 133.15 -165.9 135.65 Q-165.9 136.55 -166.5 138.65 L-166.85 139.95 -167.05 142.1 -164.1 150.05 -161.1 158.0 Q-161.1 158.8 -161.6 159.5" fill="#cc9933" fill-rule="evenodd" stroke="none"/>
    <path d="M592.55 -933.9 L591.05 -935.35 Q575.6 -950.3 575.6 -961.2 575.6 -968.8 577.65 -973.2 580.8 -980.2 588.85 -981.05 593.1 -988.75 600.05 -999.7 L618.8 -1029.2 Q620.4 -1034.4 628.0 -1046.05 636.85 -1059.6 638.4 -1062.8 640.25 -1066.7 641.0 -1072.65 641.85 -1079.25 642.5 -1081.05 643.95 -1085.05 648.1 -1087.1 653.05 -1089.5 663.2 -1090.0 664.05 -1099.6 671.0 -1112.5 L676.75 -1122.8 Q680.0 -1128.75 681.6 -1132.8 682.45 -1134.9 685.75 -1138.2 L690.0 -1142.4 688.8 -1143.6 Q687.6 -1145.15 687.5 -1147.05 L687.6 -1149.0 Q687.6 -1152.9 699.3 -1175.7 L711.95 -1200.3 Q718.45 -1205.8 725.2 -1216.8 730.9 -1226.05 734.4 -1235.9 737.75 -1245.25 738.0 -1251.9 L739.85 -1254.65 Q755.6 -1276.9 774.0 -1267.2 792.2 -1253.3 825.35 -1233.8 L881.2 -1201.45 Q911.65 -1183.35 926.0 -1171.3 944.4 -1155.85 944.4 -1144.4 944.4 -1134.2 892.8 -1072.25 876.85 -1053.1 834.0 -1004.0 L802.45 -971.2 801.25 -969.55 Q796.95 -963.7 791.6 -959.95 776.8 -944.15 768.8 -933.2 747.25 -903.7 740.15 -894.95 717.3 -866.8 708.8 -866.8 700.85 -866.8 678.35 -879.75 673.7 -884.2 666.95 -888.95 658.35 -895.05 624.8 -914.0 605.2 -927.65 592.55 -933.9 M636.75 -1002.2 Q638.8 -1000.8 641.6 -1000.8 L656.4 -1001.2 Q658.45 -1005.4 663.05 -1012.15 665.75 -1015.1 666.85 -1017.55 L668.65 -1020.1 681.9 -1038.0 Q665.8 -1038.2 657.4 -1040.0 L656.75 -1038.8 Q653.2 -1039.5 648.8 -1038.3 641.35 -1036.25 635.9 -1029.9 630.0 -1023.1 630.0 -1015.0 630.0 -1009.05 630.85 -1007.2 632.45 -1003.7 636.75 -1002.2 M96.2 34.0 Q109.0 18.4 110.4 18.4 120.7 18.4 129.5 26.1 136.4 32.1 143.35 43.9 147.35 50.65 154.1 63.95 159.9 74.8 164.0 78.4 L197.7 108.25 Q218.35 127.35 227.2 140.8 248.2 171.65 261.2 203.05 276.0 238.8 276.0 265.6 276.0 268.6 276.5 276.8 276.7 284.6 275.35 289.7 273.7 296.05 269.45 299.75 272.8 307.3 272.8 313.6 272.8 341.15 248.7 374.15 229.0 401.15 190.25 435.15 168.5 454.25 118.05 494.0 71.9 530.4 52.8 548.0 21.6 576.85 -0.4 608.1 -18.3 633.55 -33.35 665.75 -38.9 677.6 -57.85 723.35 -72.85 759.5 -85.6 783.2 -108.35 825.4 -134.35 898.7 L-155.4 959.5 Q-167.9 995.55 -176.8 1018.4 -185.55 1040.5 -208.5 1076.3 L-227.55 1105.8 Q-238.5 1123.1 -245.6 1136.0 -253.85 1150.9 -278.85 1166.35 -301.1 1180.05 -333.0 1192.15 -362.3 1203.25 -391.6 1210.1 -420.55 1216.8 -438.4 1216.8 -455.8 1216.8 -538.8 1193.35 L-600.15 1175.8 Q-631.45 1166.9 -641.6 1164.8 -676.55 1157.6 -717.75 1133.25 -752.65 1112.6 -781.6 1086.4 -814.85 1056.2 -832.1 1039.55 -860.6 1012.05 -879.65 989.8 -918.15 944.8 -926.5 911.05 -955.7 899.9 -970.3 819.2 -975.6 789.8 -978.35 754.5 L-980.0 724.4 Q-980.0 698.45 -967.75 670.05 -958.3 648.05 -944.8 631.6 L-944.8 630.8 Q-944.8 614.65 -898.4 557.95 -886.6 543.55 -866.5 520.25 -852.0 503.5 -852.0 502.8 -852.0 502.05 -842.15 495.05 L-816.8 476.95 -816.8 474.8 Q-816.8 463.8 -795.55 437.15 -774.55 410.85 -748.8 389.1 -720.0 364.8 -702.05 361.3 -691.2 359.2 -685.85 365.25 -567.65 247.85 -496.8 107.2 -486.65 87.1 -479.25 58.3 L-467.6 7.9 Q-460.35 -22.05 -451.1 -42.65 -438.9 -69.95 -419.2 -92.0 -407.35 -105.15 -394.6 -115.2 -379.65 -127.0 -361.6 -136.0 -351.75 -140.9 -341.9 -149.4 -334.2 -155.95 -327.0 -157.85 -316.3 -160.65 -291.4 -159.8 -265.3 -158.9 -209.6 -153.6 -199.55 -149.5 -169.7 -145.0 L-115.5 -136.45 Q-83.95 -130.4 -67.75 -122.25 -47.2 -111.95 -47.2 -96.8 -47.2 -86.75 -53.6 -77.45 -56.95 -72.55 -58.0 -70.3 -60.0 -65.95 -60.0 -60.8 -60.0 -56.3 -77.45 -29.15 -89.75 -9.95 -119.8 34.15 -165.55 101.35 -192.2 141.9 L-192.55 142.45 -205.2 160.8 -231.8 195.3 Q-256.05 228.0 -257.85 236.95 L-266.4 246.4 Q-269.6 249.75 -273.15 252.7 -302.25 249.85 -334.4 256.8 -375.75 265.8 -405.2 291.3 -429.0 311.9 -437.2 334.8 -443.9 353.6 -456.6 382.9 -466.0 406.65 -466.0 423.6 -466.0 432.75 -461.85 446.2 -457.25 461.15 -456.4 471.6 -455.55 481.45 -448.5 495.75 -442.55 507.8 -434.0 519.6 -429.4 525.85 -414.5 538.2 L-401.7 548.35 Q-386.7 565.85 -369.55 578.0 -333.9 603.2 -291.2 603.2 -289.6 603.2 -274.7 598.2 -249.75 596.15 -226.2 587.2 -208.15 580.35 -192.15 570.05 L-185.6 568.0 Q-165.05 561.8 -158.5 546.65 -157.25 543.85 -155.9 538.85 -150.75 532.8 -146.55 526.5 -135.6 510.05 -135.6 498.6 L-133.8 492.15 Q-127.4 480.35 -124.6 474.0 -116.0 454.7 -116.0 429.6 -116.0 414.9 -120.8 385.5 -125.6 358.6 -125.6 356.4 -125.6 344.75 -109.85 317.3 L-102.95 309.65 Q-93.9 299.25 -87.15 289.4 -80.1 279.1 -78.8 274.0 -77.7 269.55 -75.35 264.35 L-71.5 258.9 Q-55.5 236.45 -33.45 207.55 L-15.4 183.8 19.3 141.85 Q52.1 101.6 70.4 76.0 82.6 58.9 96.2 34.0 M769.85 -1217.1 L766.4 -1217.6 Q765.45 -1217.6 763.35 -1215.1 757.3 -1212.25 752.7 -1206.35 747.4 -1199.55 746.85 -1192.2 738.35 -1182.0 732.8 -1182.0 730.1 -1182.0 728.1 -1182.85 L727.15 -1180.4 Q729.9 -1181.2 733.6 -1181.2 738.15 -1181.2 745.35 -1179.0 L752.0 -1176.8 768.4 -1177.2 Q768.85 -1178.5 771.55 -1182.05 784.4 -1185.85 784.4 -1198.2 L784.4 -1199.4 Q785.2 -1201.2 785.2 -1202.4 785.2 -1204.7 783.35 -1207.3 781.9 -1212.4 778.55 -1215.0 774.85 -1217.8 769.85 -1217.1 M872.6 -1099.55 L875.2 -1099.2 Q884.3 -1099.2 886.9 -1111.6 888.15 -1117.8 887.6 -1123.6 887.6 -1137.25 881.25 -1140.15 875.9 -1142.55 867.2 -1137.2 859.6 -1132.5 853.2 -1124.5 846.8 -1116.55 846.8 -1111.8 846.8 -1108.1 858.9 -1103.7 860.65 -1095.6 868.8 -1095.6 869.85 -1095.6 872.6 -1099.55 M798.05 -1015.85 L799.6 -1014.45 Q804.45 -1010.15 806.75 -1005.95 L807.75 -1003.85 820.8 -1018.8 Q828.7 -1027.55 846.25 -1045.15 841.5 -1042.8 838.4 -1042.8 828.5 -1042.8 821.9 -1046.8 820.6 -1052.7 817.45 -1055.95 812.65 -1060.85 805.6 -1058.45 798.7 -1056.05 793.8 -1048.15 788.4 -1039.45 788.4 -1028.2 787.85 -1024.65 789.25 -1021.6 791.4 -1016.8 798.05 -1015.85 M719.6 -1160.8 L726.8 -1160.3 Q722.75 -1162.05 721.0 -1164.95 L719.6 -1161.6 719.6 -1160.8 M706.95 -1128.4 Q703.1 -1128.1 698.4 -1125.35 690.8 -1121.0 685.5 -1113.05 679.6 -1104.25 679.6 -1095.2 679.6 -1084.4 690.4 -1084.4 L692.15 -1086.15 Q694.6 -1085.4 697.15 -1085.45 700.8 -1085.5 703.6 -1086.8 716.05 -1086.8 722.0 -1104.8 723.2 -1108.55 725.6 -1118.8 L726.8 -1123.35 Q724.75 -1125.05 723.95 -1127.95 L723.8 -1128.5 707.6 -1128.8 706.95 -1128.4 M754.55 -942.1 L764.3 -953.45 Q759.0 -954.1 755.5 -956.25 754.85 -965.35 751.0 -971.95 746.65 -979.35 740.8 -979.85 734.65 -980.35 730.65 -972.5 726.85 -965.1 726.15 -952.15 720.4 -945.95 720.4 -944.6 720.4 -937.65 724.9 -934.9 727.65 -933.25 734.8 -932.4 741.55 -931.6 744.3 -930.25 L748.25 -934.75 Q751.85 -936.65 753.7 -940.0 L754.55 -942.1 M-670.5 654.55 Q-674.0 660.6 -674.0 662.6 L-674.05 664.15 Q-673.95 666.25 -673.25 668.1 -672.05 671.35 -669.4 672.8 L-669.3 675.0 Q-662.65 676.35 -648.55 686.35 -631.0 698.8 -625.2 709.6 -602.95 719.5 -561.75 747.85 L-557.25 751.0 Q-537.65 767.45 -532.0 772.8 -510.35 793.5 -502.2 799.8 -482.7 814.85 -459.2 823.2 L-456.75 824.1 Q-429.95 843.65 -416.8 852.5 -384.95 874.0 -376.0 874.0 -363.35 874.0 -349.6 844.8 -345.3 835.6 -341.45 824.65 L-338.4 815.4 Q-338.4 812.85 -356.6 797.9 L-365.65 790.6 Q-370.8 785.25 -374.1 784.0 -385.7 775.05 -399.6 764.9 -462.95 718.8 -490.4 707.2 -500.35 703.0 -509.5 697.8 L-529.2 683.6 Q-532.8 680.7 -537.4 677.35 -553.05 663.25 -563.2 655.6 -572.65 648.5 -597.5 627.7 -622.0 607.25 -634.4 598.0 -636.6 600.2 -638.85 604.05 -641.1 606.8 -645.6 606.8 L-646.0 606.8 Q-649.4 614.0 -656.0 625.9 -662.8 638.2 -669.6 649.6 -670.4 651.2 -670.5 654.55" fill="#cc9933" fill-rule="evenodd" stroke="none"/>
    <path d="M-192.2 141.9 L-178.8 122.4 Q-173.85 114.95 -169.25 110.2 -160.65 95.25 -120.3 40.5 -77.75 -17.25 -46.8 -56.8 -35.55 -71.2 -15.25 -101.95 L21.1 -158.05 Q42.65 -191.35 52.8 -205.8 67.05 -226.0 70.4 -226.0 L74.6 -223.8 Q78.5 -221.6 78.8 -221.6 81.9 -221.6 89.95 -232.95 96.95 -242.9 100.0 -249.6 101.15 -252.15 109.4 -263.45 116.1 -272.75 116.8 -278.4 118.4 -290.7 125.25 -307.1 131.85 -322.95 140.0 -334.8 145.5 -342.7 163.25 -363.15 179.0 -381.3 185.6 -392.4 198.45 -414.25 206.75 -424.8 206.0 -426.9 206.0 -429.6 206.0 -441.45 250.85 -499.35 262.2 -514.0 282.1 -538.7 296.7 -556.85 297.2 -558.0 309.2 -583.8 337.05 -620.4 353.25 -641.7 389.2 -686.4 L414.65 -719.3 Q427.65 -736.85 435.6 -751.2 440.5 -759.95 456.15 -779.7 470.25 -797.5 476.4 -810.8 487.9 -835.5 520.8 -875.6 527.35 -883.4 531.05 -891.8 533.25 -896.85 537.2 -908.0 L537.5 -908.65 Q537.2 -909.6 537.2 -910.4 537.2 -920.55 545.05 -920.45 548.15 -922.95 551.55 -922.05 554.7 -921.25 556.75 -917.45 L557.15 -916.7 563.1 -913.45 Q571.7 -908.4 586.8 -897.25 L610.0 -880.4 Q627.8 -869.2 645.35 -857.3 680.4 -833.55 680.4 -829.4 680.4 -823.9 671.4 -814.15 L665.2 -807.65 Q662.4 -804.6 662.4 -803.6 662.4 -801.6 664.2 -799.1 666.0 -796.6 666.0 -794.6 666.0 -792.75 657.2 -780.5 648.65 -768.65 637.2 -754.4 618.4 -731.05 609.4 -722.65 L597.85 -704.3 Q579.4 -675.5 569.2 -664.0 550.6 -643.0 539.45 -629.05 524.85 -610.9 515.2 -595.6 L492.8 -558.2 Q476.2 -530.15 465.95 -514.1 444.5 -480.7 431.35 -468.7 426.3 -452.95 397.15 -412.3 385.3 -395.8 364.4 -368.2 L331.6 -324.8 Q321.6 -311.35 271.15 -236.1 230.6 -175.6 227.2 -175.6 L225.95 -175.65 Q216.55 -162.3 196.4 -134.5 154.5 -76.9 142.4 -56.0 135.1 -43.45 125.7 -24.6 L109.35 8.75 Q102.65 22.25 96.2 34.0 82.6 58.9 70.4 76.0 52.1 101.6 19.3 141.85 L-15.4 183.8 -35.6 208.0 Q-53.25 229.15 -61.75 241.3 -70.85 254.2 -75.35 264.35 -77.7 269.55 -78.8 274.0 -80.1 279.1 -87.15 289.4 -93.9 299.25 -102.95 309.65 L-109.85 317.3 Q-126.35 334.8 -133.6 334.8 -136.65 334.8 -155.7 317.85 L-163.95 310.6 Q-166.75 307.35 -169.7 304.25 -198.8 273.55 -236.35 260.65 -245.25 257.6 -254.45 255.6 -261.2 249.85 -261.2 244.8 -261.2 241.65 -259.25 238.85 L-257.9 237.25 -257.85 236.95 Q-256.05 228.0 -231.8 195.3 L-205.2 160.8 -192.55 142.45 -192.2 141.9 M-669.4 672.8 Q-672.05 671.35 -673.25 668.1 -673.95 666.25 -674.05 664.15 L-674.0 662.6 Q-674.0 660.6 -670.5 654.55 L-669.3 652.4 Q-663.6 642.8 -656.35 635.75 -634.55 614.6 -612.0 628.8 -590.15 641.9 -569.15 655.55 -549.7 668.2 -537.4 677.35 -532.8 680.7 -529.2 683.6 L-509.5 697.8 -492.9 709.4 Q-464.75 729.05 -452.4 740.0 -450.05 742.05 -445.85 747.2 -442.5 751.35 -438.0 754.4 -437.2 754.95 -433.65 755.2 L-426.05 755.65 Q-414.95 756.65 -410.8 760.8 -407.15 764.45 -398.8 774.1 L-386.8 788.0 Q-384.15 786.35 -381.55 785.2 -378.0 783.6 -376.0 783.6 L-374.1 784.0 Q-370.8 785.25 -365.65 790.6 -361.6 794.8 -356.4 801.6 -351.6 807.9 -347.4 814.3 -343.6 820.1 -343.6 820.8 -343.6 823.7 -348.25 831.25 -352.65 838.4 -359.15 846.4 -375.05 866.0 -381.6 866.0 -384.35 866.0 -392.2 861.1 L-410.05 849.4 Q-437.3 831.5 -456.75 824.1 L-459.2 823.2 Q-482.7 814.85 -502.2 799.8 -510.35 793.5 -532.0 772.8 -537.65 767.45 -557.25 751.0 L-563.3 745.9 Q-582.05 730.2 -590.4 720.0 -591.6 718.55 -627.65 696.2 -663.4 674.0 -664.0 674.0 -667.2 674.0 -669.4 672.8 M-379.25 357.8 Q-373.45 351.3 -365.15 345.25 -348.1 332.95 -318.4 321.2 L-273.6 321.2 Q-222.35 339.8 -200.7 365.45 -183.6 385.7 -183.6 413.0 -183.6 447.7 -196.55 474.1 -215.75 513.25 -260.8 526.8 L-308.8 526.8 -311.2 525.65 Q-314.0 526.8 -317.6 526.8 -330.05 526.8 -343.2 518.05 -355.6 509.8 -355.6 503.6 L-355.5 501.4 -361.0 497.75 Q-378.5 485.75 -385.95 474.2 -392.4 464.3 -393.65 450.65 -394.0 446.9 -394.0 421.6 L-393.85 394.15 -393.4 389.7 Q-391.95 377.95 -387.25 369.15 -384.15 363.3 -379.25 357.8 M-581.8 686.7 Q-581.45 689.5 -580.4 691.6 L-578.6 691.85 Q-578.0 691.85 -578.0 689.4 -578.0 686.8 -579.55 684.5 -580.65 682.9 -582.0 682.0 L-582.0 682.4 -581.8 686.7 M-563.2 705.6 Q-547.25 716.35 -525.95 733.7 L-490.55 762.7 Q-470.25 778.9 -454.2 788.85 -433.85 801.5 -414.0 808.4 L-397.6 808.4 Q-401.5 804.85 -404.3 800.85 L-407.85 795.35 Q-409.55 792.9 -411.5 791.95 -413.9 790.8 -418.4 790.8 -421.45 790.8 -473.35 751.6 -538.4 702.4 -558.0 688.8 -557.5 691.1 -559.4 695.95 L-563.2 705.6" fill="#996633" fill-rule="evenodd" stroke="none"/>
    <path d="M605.25 -1170.75 Q618.1 -1181.75 635.2 -1186.3 653.4 -1191.2 665.2 -1185.3 678.8 -1178.5 678.8 -1159.0 678.8 -1155.75 675.45 -1147.15 671.7 -1137.4 666.45 -1128.45 651.75 -1103.6 636.8 -1103.6 609.0 -1103.6 597.65 -1124.4 591.6 -1135.45 591.6 -1147.2 591.6 -1159.05 605.25 -1170.75 M556.35 -1062.6 Q566.85 -1074.15 580.8 -1081.25 595.65 -1088.85 605.3 -1086.4 616.4 -1083.55 616.4 -1067.6 616.4 -1064.6 614.55 -1055.55 612.25 -1043.95 608.85 -1034.05 598.6 -1004.4 584.0 -1004.4 564.8 -1004.4 553.2 -1021.6 549.4 -1027.3 547.0 -1034.0 545.2 -1039.0 545.2 -1040.8 545.2 -1050.4 556.35 -1062.6 M711.95 -1200.3 Q705.45 -1194.8 699.2 -1194.8 674.3 -1194.8 665.2 -1213.65 660.4 -1223.5 660.4 -1238.8 660.4 -1254.1 672.55 -1266.0 683.55 -1276.8 699.2 -1280.2 715.05 -1283.7 725.9 -1277.25 738.0 -1270.0 738.0 -1252.8 L738.0 -1251.9 Q737.75 -1245.25 734.4 -1235.9 730.9 -1226.05 725.2 -1216.8 718.45 -1205.8 711.95 -1200.3 M678.35 -879.75 Q688.4 -870.1 688.4 -862.0 688.4 -855.4 686.85 -852.4 683.45 -846.0 672.8 -846.0 665.85 -846.0 614.4 -882.35 588.7 -900.55 564.4 -918.6 564.4 -929.5 567.25 -934.4 570.25 -939.6 577.0 -939.15 582.65 -938.8 592.55 -933.9 605.2 -927.65 624.8 -914.0 658.35 -895.05 666.95 -888.95 673.7 -884.2 678.35 -879.75 M-254.45 255.6 Q-245.25 257.6 -236.35 260.65 -198.8 273.55 -169.7 304.25 -166.75 307.35 -163.95 310.6 -144.2 333.25 -131.65 361.45 -119.6 388.55 -119.6 406.0 -119.6 431.8 -127.6 467.1 -130.7 480.75 -133.8 492.15 L-135.6 498.6 Q-135.6 510.05 -146.55 526.5 -150.75 532.8 -155.9 538.85 -165.2 549.65 -177.65 559.6 -184.65 565.2 -192.15 570.05 -208.15 580.35 -226.2 587.2 -249.75 596.15 -274.7 598.2 L-289.6 598.8 Q-325.0 598.8 -378.05 564.75 -390.4 556.85 -401.7 548.35 L-414.5 538.2 Q-429.4 525.85 -434.0 519.6 -442.55 507.8 -448.5 495.75 -455.55 481.45 -456.4 471.6 -457.25 461.15 -461.85 446.2 -466.0 432.75 -466.0 423.6 -466.0 406.65 -456.6 382.9 -443.9 353.6 -437.2 334.8 -429.0 311.9 -405.2 291.3 -375.75 265.8 -334.4 256.8 -302.25 249.85 -273.15 252.7 -263.65 253.65 -254.45 255.6 M964.8 -1100.4 Q976.4 -1091.15 976.4 -1073.2 976.4 -1071.25 973.0 -1064.45 969.0 -1056.45 963.7 -1049.2 948.3 -1028.4 932.8 -1028.4 915.0 -1028.4 906.9 -1042.0 902.0 -1050.3 902.0 -1058.8 902.0 -1079.35 913.65 -1092.7 923.95 -1104.55 939.2 -1106.7 954.2 -1108.85 964.8 -1100.4 M869.6 -1023.55 Q885.75 -1029.35 896.85 -1023.45 909.2 -1016.9 909.2 -997.8 909.2 -981.95 903.3 -970.8 892.25 -950.0 863.2 -950.0 842.65 -950.0 834.45 -959.65 830.0 -964.95 830.0 -971.6 830.0 -989.2 842.4 -1004.2 853.6 -1017.8 869.6 -1023.55 M773.7 -926.7 Q782.25 -938.9 790.85 -942.8 800.95 -947.4 809.6 -939.6 837.05 -940.35 845.2 -922.5 847.95 -916.5 848.4 -908.4 L848.4 -898.2 Q848.4 -884.1 841.25 -875.95 828.95 -862.0 796.0 -862.0 771.0 -862.0 761.65 -870.8 756.4 -875.8 756.4 -884.0 756.4 -890.85 761.25 -903.2 766.35 -916.25 773.7 -926.7 M-393.4 389.7 Q-404.8 418.05 -404.8 429.6 L-402.8 453.0 Q-402.8 460.45 -398.5 472.1 -392.65 487.85 -381.65 500.8 -349.6 538.4 -286.4 538.4 -279.5 538.4 -265.4 533.4 -250.3 528.1 -235.75 520.05 -197.75 498.9 -194.0 477.2 -192.75 470.2 -189.4 461.0 L-182.95 444.8 Q-174.8 424.4 -174.8 412.4 -174.8 392.85 -185.3 373.4 -197.3 351.25 -220.0 335.6 -246.4 317.4 -276.3 313.3 -301.45 309.8 -326.2 316.55 -347.15 322.2 -361.95 333.15 -375.6 343.25 -375.6 351.0 -375.6 350.25 -379.25 357.8 -384.15 363.3 -387.25 369.15 -391.95 377.95 -393.4 389.7" fill="#ffcc99" fill-rule="evenodd" stroke="none"/>
    <path d="M663.05 -1012.15 L659.65 -1008.8 Q651.2 -1001.2 644.0 -1001.2 639.7 -1001.2 636.75 -1002.2 632.45 -1003.7 630.85 -1007.2 630.0 -1009.05 630.0 -1015.0 630.0 -1023.1 635.9 -1029.9 641.35 -1036.25 648.8 -1038.3 653.2 -1039.5 656.75 -1038.8 659.5 -1038.25 661.75 -1036.5 667.6 -1031.95 667.6 -1020.8 667.6 -1019.3 666.85 -1017.55 665.75 -1015.1 663.05 -1012.15 M763.35 -1215.1 L765.6 -1216.05 Q767.85 -1216.85 769.85 -1217.1 774.85 -1217.8 778.55 -1215.0 781.9 -1212.4 783.35 -1207.3 784.25 -1203.9 784.4 -1199.4 L784.4 -1198.2 Q784.4 -1185.85 771.55 -1182.05 765.85 -1180.4 757.6 -1180.4 750.55 -1180.4 748.0 -1185.25 746.7 -1187.75 746.8 -1190.6 L746.85 -1192.2 Q747.4 -1199.55 752.7 -1206.35 757.3 -1212.25 763.35 -1215.1 M858.9 -1103.7 L858.85 -1104.0 Q858.0 -1108.3 858.8 -1113.6 858.8 -1123.25 863.2 -1130.25 867.05 -1136.4 872.8 -1138.6 878.4 -1140.7 882.45 -1137.95 886.8 -1134.95 886.8 -1127.6 886.8 -1123.8 878.8 -1109.65 875.05 -1103.05 872.6 -1099.55 869.85 -1095.6 868.8 -1095.6 860.65 -1095.6 858.9 -1103.7 M798.05 -1015.85 Q791.4 -1016.8 789.25 -1021.6 787.85 -1024.65 788.4 -1028.2 788.4 -1039.45 793.8 -1048.15 798.7 -1056.05 805.6 -1058.45 812.65 -1060.85 817.45 -1055.95 820.6 -1052.7 821.9 -1046.8 822.8 -1042.75 822.8 -1037.4 822.8 -1030.65 816.85 -1023.55 810.15 -1015.6 801.6 -1015.6 L798.05 -1015.85 M692.15 -1086.15 L690.4 -1084.4 Q679.6 -1084.4 679.6 -1095.2 679.6 -1104.25 685.5 -1113.05 690.8 -1121.0 698.4 -1125.35 703.1 -1128.1 706.95 -1128.4 709.3 -1128.65 711.35 -1127.9 717.2 -1125.8 717.2 -1116.4 717.2 -1115.8 704.05 -1100.1 L692.15 -1086.15 M755.5 -956.25 L755.6 -952.6 Q755.6 -945.8 754.55 -942.1 L753.7 -940.0 Q751.85 -936.65 748.25 -934.75 743.6 -932.4 736.0 -932.4 728.35 -932.4 726.45 -939.05 725.45 -942.45 726.0 -946.2 726.0 -949.3 726.15 -952.15 726.85 -965.1 730.65 -972.5 734.65 -980.35 740.8 -979.85 746.65 -979.35 751.0 -971.95 754.85 -965.35 755.5 -956.25" fill="#cccccc" fill-rule="evenodd" stroke="none"/>
    <path d="M971.15 -1134.15 Q970.35 -1127.3 974.45 -1120.3 977.3 -1115.4 984.5 -1107.75 L996.5 -1094.55 996.5 -1054.8 990.85 -1054.8 Q988.15 -1030.75 969.2 -1019.7 952.85 -1010.15 922.7 -1009.4 928.35 -992.35 925.55 -976.35 922.9 -961.2 913.05 -949.2 903.3 -937.4 888.35 -930.85 872.9 -924.15 854.6 -924.25 859.1 -893.3 847.2 -872.55 836.55 -854.1 815.35 -847.1 795.45 -840.55 773.3 -846.0 750.75 -851.6 735.35 -867.45 684.5 -794.95 432.45 -432.3 247.55 -166.25 127.9 1.15 137.2 15.5 152.45 33.3 162.35 44.85 182.3 66.2 204.5 89.95 214.0 100.75 231.75 120.8 244.25 137.85 276.15 181.55 286.35 223.5 298.75 274.75 281.2 330.35 268.2 371.55 236.45 408.95 211.9 437.95 168.95 471.95 L131.35 500.8 Q105.25 520.45 93.7 529.45 50.25 563.5 25.7 591.5 -0.55 621.4 -24.4 666.55 -44.0 703.75 -65.4 758.05 -75.85 784.65 -102.65 858.45 -126.2 923.4 -141.4 960.1 -164.2 1015.25 -186.95 1055.4 -213.95 1103.2 -244.55 1136.8 -315.6 1214.9 -417.1 1227.35 L-468.2 1227.35 Q-672.45 1179.7 -800.6 1080.1 -940.75 971.15 -996.1 795.9 L-996.1 710.75 Q-980.7 629.55 -920.8 552.8 -895.65 520.6 -860.2 485.75 -832.65 458.7 -791.45 422.95 -743.6 382.2 -719.9 361.75 -678.15 325.75 -650.9 299.35 -576.05 226.8 -542.0 160.05 -526.95 130.55 -506.1 72.4 L-489.15 25.0 Q-479.2 -2.25 -470.85 -22.05 -448.8 -74.2 -424.3 -106.35 -394.1 -145.9 -354.65 -163.5 -282.15 -195.75 -185.65 -169.8 -148.85 -159.9 -106.1 -140.85 -78.65 -128.6 -36.75 -106.7 27.25 -205.45 112.35 -328.1 154.15 -388.35 265.3 -545.55 362.35 -682.8 417.7 -763.6 500.7 -884.75 565.05 -986.65 548.55 -990.0 539.7 -1010.65 531.3 -1030.2 533.95 -1054.1 536.75 -1079.45 550.85 -1095.05 567.05 -1112.95 593.45 -1111.55 583.25 -1124.4 582.3 -1141.85 581.35 -1158.4 588.9 -1173.45 596.7 -1188.95 610.55 -1196.85 625.85 -1205.55 644.55 -1202.4 634.75 -1239.55 644.55 -1263.0 653.6 -1284.6 678.6 -1293.25 689.8 -1297.1 703.85 -1295.7 708.75 -1295.15 727.65 -1291.25 741.6 -1288.4 749.65 -1289.25 761.05 -1290.5 769.45 -1298.9 811.0 -1266.6 873.2 -1223.85 908.5 -1199.55 979.5 -1151.3 972.05 -1142.15 971.15 -1134.15 M951.1 -1100.2 Q945.55 -1102.95 937.75 -1099.8 930.5 -1096.85 923.3 -1089.65 916.1 -1082.45 911.4 -1073.4 906.35 -1063.75 905.7 -1054.8 914.5 -1036.8 930.85 -1036.7 945.15 -1036.65 957.6 -1049.05 970.05 -1061.5 969.75 -1075.65 969.45 -1091.75 951.1 -1100.2 M859.8 -1110.25 Q860.55 -1103.8 865.95 -1100.2 L872.35 -1106.6 Q876.55 -1110.5 878.55 -1113.15 884.9 -1121.6 882.95 -1134.3 876.85 -1135.5 870.95 -1131.8 865.55 -1128.4 862.35 -1122.3 859.15 -1116.1 859.8 -1110.25 M900.0 -1128.6 Q883.25 -1096.35 854.2 -1059.25 837.55 -1037.95 799.7 -994.75 763.6 -953.65 747.05 -931.9 720.45 -897.05 707.0 -867.45 738.95 -906.05 826.95 -1005.8 903.4 -1092.5 945.4 -1145.65 923.35 -1157.05 898.45 -1173.9 883.5 -1183.95 854.6 -1205.25 825.75 -1226.5 810.75 -1236.6 785.8 -1253.45 763.75 -1264.85 750.5 -1238.8 724.45 -1196.3 695.05 -1148.4 684.25 -1128.6 699.5 -1133.9 710.3 -1149.35 715.55 -1156.85 726.6 -1179.95 736.15 -1199.95 744.4 -1209.0 756.7 -1222.45 775.1 -1225.1 785.9 -1220.2 788.9 -1210.35 791.55 -1201.6 787.6 -1190.9 783.9 -1180.8 775.85 -1172.95 767.5 -1164.8 758.05 -1162.65 752.25 -1161.25 748.7 -1163.25 746.6 -1164.45 743.9 -1168.35 741.15 -1172.25 739.05 -1173.45 735.5 -1175.4 729.7 -1174.0 728.1 -1162.8 724.65 -1156.35 720.45 -1148.35 712.65 -1145.65 712.55 -1139.95 715.65 -1135.9 717.15 -1133.9 722.35 -1129.75 726.8 -1126.15 728.45 -1123.05 730.85 -1118.45 729.7 -1111.55 694.4 -1057.65 673.65 -1015.8 644.55 -957.0 638.85 -912.85 664.6 -916.5 688.9 -934.75 707.8 -948.95 730.4 -976.05 743.4 -991.65 768.7 -1024.1 791.3 -1051.8 809.15 -1066.15 815.2 -1067.05 819.25 -1064.9 822.1 -1063.35 825.0 -1059.3 L829.95 -1052.9 Q833.2 -1049.7 837.55 -1049.1 840.1 -1059.35 850.5 -1070.25 L858.85 -1078.9 Q863.45 -1084.05 865.95 -1088.85 853.3 -1086.25 848.2 -1093.8 845.25 -1098.2 843.25 -1111.55 848.3 -1146.25 882.95 -1151.3 885.8 -1147.5 893.0 -1141.45 899.0 -1135.55 900.0 -1128.6 M722.1 -1230.45 Q731.95 -1248.55 724.0 -1264.85 705.75 -1277.75 689.75 -1270.45 675.75 -1264.1 670.0 -1246.8 664.3 -1229.6 671.6 -1216.55 679.85 -1201.7 701.3 -1202.4 L712.0 -1215.7 Q718.7 -1224.15 722.1 -1230.45 M758.05 -1208.1 Q754.2 -1202.75 752.75 -1196.35 751.1 -1189.05 752.4 -1179.7 777.25 -1181.35 775.1 -1208.1 L758.05 -1208.1 M625.2 -1171.85 Q618.3 -1166.5 613.5 -1158.8 608.7 -1151.05 607.45 -1143.1 606.1 -1134.6 609.2 -1127.85 616.5 -1111.75 644.55 -1111.55 658.0 -1123.85 663.55 -1132.3 672.2 -1145.65 672.9 -1162.65 659.25 -1182.5 640.45 -1178.95 632.5 -1177.45 625.2 -1171.85 M692.05 -1109.5 Q687.15 -1101.0 689.95 -1088.85 696.2 -1086.75 702.7 -1091.6 708.65 -1095.95 711.7 -1103.35 714.85 -1110.95 712.65 -1116.4 710.15 -1122.6 701.3 -1122.95 699.95 -1120.2 696.75 -1116.1 L692.05 -1109.5 M769.45 -1015.05 Q756.85 -1002.45 755.95 -991.0 755.2 -981.1 762.65 -977.3 770.1 -973.5 778.4 -979.6 788.0 -986.65 792.15 -1003.7 788.5 -1003.75 786.0 -1006.1 785.25 -1006.85 782.35 -1010.95 780.2 -1014.05 777.95 -1015.05 774.7 -1016.45 769.45 -1015.05 M695.65 -1077.5 Q676.75 -1080.55 668.6 -1070.45 661.95 -1062.2 661.55 -1043.45 677.55 -1042.05 685.35 -1053.7 688.1 -1057.75 690.95 -1065.15 693.95 -1073.5 695.65 -1077.5 M648.3 -1027.65 Q642.0 -1023.35 638.35 -1017.0 634.55 -1010.45 635.75 -1005.35 637.1 -999.65 644.55 -998.05 645.55 -1002.45 649.25 -1006.15 L656.1 -1012.05 Q660.05 -1015.6 661.45 -1019.45 663.25 -1024.6 661.55 -1032.1 655.05 -1032.3 648.3 -1027.65 M633.2 -1032.1 Q651.5 -1054.35 663.95 -1076.55 680.35 -1105.9 678.6 -1122.95 675.0 -1113.1 666.7 -1099.15 L651.4 -1074.9 Q642.35 -1060.6 638.35 -1051.95 632.9 -1040.15 633.2 -1032.1 M629.15 -988.3 Q626.3 -989.4 621.8 -992.35 620.2 -986.15 615.85 -979.85 L607.85 -969.4 Q603.2 -963.15 601.15 -957.65 598.5 -950.3 599.1 -941.25 614.3 -943.5 623.75 -959.2 625.65 -962.35 631.05 -973.2 635.45 -982.05 638.85 -986.65 633.65 -986.5 629.15 -988.3 M644.55 -981.0 Q643.85 -974.7 637.05 -965.65 628.55 -955.4 624.8 -950.45 618.35 -941.9 618.15 -936.35 617.95 -929.2 627.5 -924.25 628.05 -930.45 632.5 -939.35 635.1 -944.5 641.0 -954.7 645.9 -963.6 647.05 -969.0 648.55 -976.25 644.55 -981.0 M667.7 -911.0 Q662.15 -904.8 661.55 -895.85 677.7 -896.3 691.4 -915.65 696.65 -923.1 699.5 -930.7 702.25 -938.0 701.3 -941.25 699.35 -933.85 692.85 -928.45 689.75 -925.85 679.85 -920.1 671.4 -915.2 667.7 -911.0 M736.5 -962.8 Q733.05 -958.3 731.8 -956.2 726.9 -947.75 729.7 -935.6 735.95 -933.5 742.45 -938.3 748.4 -942.65 751.45 -950.05 754.6 -957.65 752.4 -963.1 749.9 -969.3 741.05 -969.65 739.7 -966.9 736.5 -962.8 M707.0 -929.9 Q706.0 -923.35 700.25 -916.0 L689.5 -903.8 Q683.3 -896.8 681.75 -891.9 679.7 -885.25 684.25 -878.8 698.3 -883.95 708.55 -897.1 715.65 -906.2 724.0 -924.25 721.0 -924.35 716.2 -927.8 712.05 -930.8 707.0 -929.9 M792.15 -1020.75 Q806.95 -1017.95 812.25 -1026.15 816.8 -1033.15 814.85 -1049.1 790.0 -1047.45 792.15 -1020.75 M786.2 -928.25 Q777.05 -922.55 771.0 -912.45 764.75 -902.05 763.75 -890.15 766.5 -879.8 774.6 -874.25 781.9 -869.2 792.05 -869.0 801.75 -868.8 811.0 -872.95 820.5 -877.15 826.2 -884.5 L826.2 -924.25 Q816.85 -932.8 805.8 -933.55 795.75 -934.2 786.2 -928.25 M848.9 -952.6 Q879.2 -948.75 892.75 -965.15 898.3 -971.85 900.1 -981.1 901.75 -989.45 900.0 -998.05 896.55 -1015.05 880.9 -1016.9 866.9 -1018.55 852.25 -1008.2 837.15 -997.55 834.65 -983.05 831.75 -966.2 848.9 -952.6 M584.1 -1081.5 Q569.05 -1076.9 560.4 -1060.7 551.7 -1044.45 557.5 -1031.3 564.1 -1016.15 587.75 -1015.05 602.85 -1029.45 607.9 -1037.5 617.0 -1052.15 616.15 -1071.85 601.25 -1086.8 584.1 -1081.5 M588.85 -969.5 Q585.05 -959.9 587.75 -952.6 590.8 -958.8 598.6 -970.35 L611.55 -989.85 Q626.25 -1013.8 621.8 -1026.4 619.8 -1018.05 612.75 -1006.9 L599.45 -987.75 Q591.65 -976.5 588.85 -969.5 M577.55 -914.05 Q579.5 -908.5 587.75 -907.2 588.45 -911.45 593.2 -915.95 598.15 -920.7 599.1 -924.25 594.25 -930.55 588.1 -929.8 582.75 -929.1 579.3 -923.95 575.85 -918.8 577.55 -914.05 M604.15 -915.1 Q599.1 -912.9 593.45 -901.5 601.25 -893.35 610.35 -898.45 618.25 -902.85 621.8 -912.85 609.7 -917.6 604.15 -915.1 M589.4 -886.1 Q586.5 -887.25 582.1 -890.15 579.2 -879.8 570.45 -867.35 L553.9 -846.1 Q543.95 -833.6 540.1 -825.6 534.7 -814.5 536.65 -805.0 556.8 -814.1 572.9 -839.7 576.8 -845.9 585.85 -862.3 593.9 -876.8 599.1 -884.5 593.85 -884.35 589.4 -886.1 M568.6 -899.4 Q564.45 -902.4 559.4 -901.5 558.55 -891.2 548.9 -878.35 545.6 -873.95 539.9 -867.45 L530.65 -856.9 Q520.2 -844.5 518.2 -836.4 515.55 -825.5 525.3 -816.35 532.05 -829.65 551.3 -855.65 569.25 -879.9 576.4 -895.85 573.4 -895.95 568.6 -899.4 M608.8 -852.45 Q612.35 -866.9 604.8 -873.15 599.95 -866.05 591.05 -854.25 L577.15 -835.45 Q561.2 -813.0 553.7 -793.65 561.2 -791.65 573.45 -801.2 584.95 -810.15 595.1 -824.65 605.6 -839.7 608.8 -852.45 M496.95 -833.4 Q518.45 -848.45 533.65 -869.05 552.35 -894.35 548.0 -912.85 540.5 -893.55 524.55 -871.05 505.8 -846.3 496.95 -833.4 M506.4 -775.3 L488.3 -752.7 Q477.5 -739.4 473.1 -730.75 467.05 -718.8 468.55 -708.5 495.2 -727.3 511.95 -749.95 534.8 -781.0 519.65 -799.35 516.1 -788.5 506.4 -775.3 M484.55 -803.75 Q489.3 -813.4 485.55 -816.35 481.95 -808.0 472.75 -796.35 L456.2 -776.25 Q446.75 -764.45 442.95 -756.3 437.95 -745.65 440.15 -736.9 443.5 -744.7 453.25 -758.45 L470.9 -782.6 Q481.0 -796.5 484.55 -803.75 M502.6 -788.15 Q507.6 -800.85 508.3 -810.7 488.8 -797.75 472.3 -772.85 464.2 -760.6 445.85 -725.55 469.8 -733.9 489.25 -762.9 497.45 -775.15 502.6 -788.15 M602.65 -780.05 Q597.0 -769.2 599.1 -759.6 617.95 -770.05 634.5 -795.15 638.7 -801.5 647.95 -817.2 656.4 -831.55 661.55 -839.05 658.55 -839.2 653.75 -842.65 649.6 -845.65 644.55 -844.75 642.45 -833.45 633.9 -820.9 629.85 -815.0 617.1 -799.9 606.55 -787.4 602.65 -780.05 M564.55 -740.25 L576.4 -765.25 Q551.15 -757.85 531.8 -729.1 523.5 -716.75 518.7 -703.55 513.95 -690.5 513.95 -680.1 535.35 -690.85 551.5 -716.35 557.5 -725.9 564.55 -740.25 M599.1 -736.9 Q591.6 -720.05 574.45 -696.3 554.05 -668.1 548.0 -657.4 556.6 -663.0 567.55 -673.95 578.9 -685.25 587.6 -697.15 597.35 -710.45 600.65 -720.35 604.45 -731.75 599.1 -736.9 M593.45 -753.9 Q573.95 -741.0 557.45 -716.1 549.4 -703.9 531.0 -668.75 540.15 -668.2 551.45 -678.2 561.35 -686.95 571.3 -702.25 580.3 -716.1 586.55 -730.85 592.75 -745.3 593.45 -753.9 M612.95 -804.05 Q627.65 -825.5 638.85 -856.1 614.75 -848.55 598.95 -825.05 588.95 -810.1 576.4 -776.6 594.0 -776.45 612.95 -804.05 M508.6 -739.55 Q485.7 -709.2 496.95 -697.15 514.4 -712.2 529.65 -732.45 553.45 -764.0 548.0 -782.3 520.8 -755.75 508.6 -739.55 M383.4 -629.0 Q393.75 -636.55 404.55 -647.0 417.35 -659.35 425.95 -671.3 448.45 -702.7 434.5 -719.85 431.05 -708.85 421.5 -695.55 418.65 -691.55 403.55 -672.85 392.7 -659.4 388.3 -650.9 382.1 -639.05 383.4 -629.0 M432.15 -627.1 Q425.1 -614.6 423.1 -600.65 433.8 -607.2 446.55 -619.0 460.5 -631.95 469.95 -645.0 480.85 -660.1 482.7 -671.5 484.8 -684.75 474.2 -691.45 470.8 -679.3 462.7 -667.45 459.05 -662.15 447.0 -647.7 436.9 -635.6 432.15 -627.1 M442.1 -649.8 Q451.8 -663.8 457.55 -678.2 463.55 -693.15 462.85 -702.8 443.35 -689.9 426.85 -665.0 418.8 -652.8 400.4 -617.65 409.65 -617.1 421.4 -626.6 432.0 -635.2 442.1 -649.8 M309.05 -563.75 Q303.2 -552.4 303.9 -543.85 308.3 -552.55 318.1 -565.35 L335.45 -587.5 Q345.35 -600.4 349.85 -609.1 355.7 -620.45 355.0 -629.0 350.6 -620.3 340.8 -607.5 L323.45 -585.35 Q313.55 -572.45 309.05 -563.75 M302.75 -525.65 Q301.5 -527.5 298.25 -526.85 294.85 -515.05 287.45 -503.55 282.9 -496.4 272.9 -484.0 262.6 -471.25 258.25 -464.6 250.75 -453.15 247.15 -441.65 257.45 -440.95 267.5 -449.55 275.65 -456.5 284.85 -470.8 288.95 -477.2 300.35 -497.35 309.65 -513.8 315.25 -521.15 L303.9 -521.15 Q303.6 -524.45 302.75 -525.65 M359.75 -522.0 Q356.35 -509.55 366.35 -498.45 371.25 -509.75 379.7 -522.0 383.7 -527.75 395.6 -543.0 405.75 -556.05 411.05 -564.45 418.85 -576.9 423.1 -589.25 420.1 -589.4 415.3 -592.85 411.15 -595.85 406.1 -594.95 405.05 -583.15 394.4 -568.9 390.7 -563.95 384.35 -556.8 L374.0 -545.05 Q362.3 -531.25 359.75 -522.0 M337.95 -515.45 Q359.95 -534.9 374.65 -555.45 391.45 -579.05 400.4 -606.3 375.7 -593.85 356.45 -566.65 336.45 -538.5 337.95 -515.45 M315.25 -532.5 Q337.95 -546.25 357.25 -574.15 376.8 -602.35 377.7 -623.35 356.45 -607.2 337.35 -580.05 317.45 -551.75 315.25 -532.5 M423.25 -521.05 Q402.4 -492.35 394.75 -475.75 403.3 -475.0 416.4 -485.8 428.85 -496.05 439.55 -511.65 450.8 -528.0 454.5 -542.25 458.65 -558.3 451.5 -566.55 443.75 -549.35 423.25 -521.05 M398.15 -536.3 Q378.6 -508.1 377.7 -487.1 401.25 -498.85 420.7 -527.7 429.5 -540.75 434.65 -553.8 439.9 -567.25 440.15 -577.9 417.45 -564.15 398.15 -536.3 M372.05 -640.35 Q379.5 -653.35 401.05 -682.35 420.3 -708.25 428.8 -725.55 409.4 -709.95 391.75 -684.5 372.85 -657.2 372.05 -640.35 M501.1 -650.05 Q504.65 -665.85 496.95 -674.45 491.65 -666.05 467.5 -632.9 449.1 -607.65 440.15 -589.25 450.0 -587.1 463.65 -596.6 476.3 -605.5 486.95 -620.5 497.9 -635.9 501.1 -650.05 M524.95 -623.5 L508.0 -602.35 Q497.85 -589.9 494.0 -581.8 488.7 -570.55 491.25 -560.9 494.95 -569.6 504.35 -582.1 L521.0 -603.55 Q530.35 -616.05 534.1 -624.95 539.0 -636.5 536.65 -646.05 533.9 -635.9 524.95 -623.5 M525.3 -657.4 Q506.7 -643.05 490.1 -618.8 479.55 -603.4 462.85 -572.25 487.15 -580.95 506.65 -609.25 515.1 -621.55 520.1 -634.4 525.1 -647.25 525.3 -657.4 M468.55 -549.55 Q459.0 -529.9 441.65 -505.45 421.45 -478.35 411.75 -464.4 421.4 -469.9 433.4 -481.6 445.3 -493.2 454.85 -506.35 465.05 -520.45 468.9 -531.45 473.25 -543.75 468.55 -549.55 M653.75 -888.05 Q649.6 -891.05 644.55 -890.15 641.65 -887.45 640.15 -882.75 638.6 -878.1 639.05 -873.5 640.1 -862.2 650.2 -861.8 650.25 -865.45 652.6 -867.9 653.3 -868.65 657.45 -871.55 660.55 -873.7 661.55 -876.0 662.95 -879.25 661.55 -884.5 658.55 -884.6 653.75 -888.05 M638.85 -901.5 Q623.45 -902.2 616.15 -895.85 614.6 -877.3 633.2 -878.8 632.55 -884.35 635.8 -890.35 639.2 -896.6 638.85 -901.5 M667.25 -833.4 Q664.5 -823.25 655.5 -810.85 L638.55 -789.7 Q628.4 -777.25 624.55 -769.15 619.25 -757.9 621.8 -748.25 625.05 -757.7 634.3 -770.0 639.65 -777.15 651.3 -791.1 661.15 -803.5 664.95 -812.05 669.95 -823.5 667.25 -833.4 M661.55 -850.4 Q672.2 -849.2 676.3 -855.55 679.9 -861.2 678.6 -873.15 666.7 -872.85 660.5 -865.3 654.1 -857.5 661.55 -850.4 M389.9 -429.3 Q385.8 -423.35 372.95 -408.15 362.25 -395.5 358.35 -388.15 352.65 -377.25 355.0 -367.85 358.65 -375.35 369.7 -389.25 L388.9 -413.35 Q399.3 -427.2 402.5 -436.0 406.5 -447.1 400.4 -453.0 398.5 -441.85 389.9 -429.3 M306.5 -488.2 Q293.05 -472.4 286.85 -464.5 276.1 -450.85 272.95 -442.2 268.85 -431.1 275.5 -424.65 280.1 -427.85 289.75 -437.7 301.75 -449.85 310.5 -461.75 336.05 -496.4 320.95 -509.8 317.55 -501.8 306.5 -488.2 M331.4 -441.25 Q311.5 -413.2 315.25 -390.55 342.75 -417.5 354.0 -432.6 374.8 -460.6 372.05 -481.4 347.8 -464.4 331.4 -441.25 M310.85 -456.1 Q302.55 -443.8 297.65 -430.75 292.8 -417.8 292.55 -407.6 312.05 -420.5 328.55 -445.4 336.6 -457.6 355.0 -492.75 330.3 -484.85 310.85 -456.1 M301.75 -382.8 Q297.6 -385.8 292.55 -384.9 285.4 -369.0 267.45 -344.7 248.25 -318.7 241.45 -305.4 254.05 -302.5 264.75 -309.55 273.55 -315.4 282.15 -328.95 287.05 -336.65 296.2 -355.0 304.85 -372.15 309.6 -379.2 306.55 -379.35 301.75 -382.8 M334.95 -337.3 Q340.05 -347.85 337.95 -356.5 333.9 -349.1 324.45 -337.15 L308.25 -316.7 Q289.4 -291.6 292.55 -277.05 295.9 -285.8 304.95 -297.5 310.2 -304.25 321.5 -317.6 331.1 -329.4 334.95 -337.3 M318.65 -346.0 Q326.3 -359.9 332.3 -367.85 307.55 -361.7 292.05 -337.15 286.25 -327.95 280.1 -313.6 276.6 -305.3 269.85 -288.4 281.4 -293.2 290.8 -302.9 298.35 -310.65 305.95 -323.25 L318.65 -346.0 M332.3 -379.2 Q354.35 -392.15 370.35 -414.95 384.4 -435.05 394.75 -464.4 372.7 -451.45 356.7 -428.6 342.6 -408.5 332.3 -379.2 M286.85 -532.5 Q283.3 -524.0 274.45 -512.1 L258.3 -491.55 Q249.0 -479.5 245.1 -471.55 239.95 -461.05 241.45 -453.0 244.8 -461.75 253.85 -473.5 259.1 -480.25 270.4 -493.6 280.0 -505.4 283.85 -513.3 288.95 -523.85 286.85 -532.5 M-478.15 56.5 Q-505.6 131.0 -518.75 160.85 -543.7 217.45 -570.4 250.9 -599.9 287.9 -641.25 327.1 -672.15 356.4 -718.25 394.6 L-792.25 455.5 Q-831.85 488.7 -854.25 512.05 -914.5 574.9 -941.95 632.15 -980.5 712.65 -967.75 801.6 -961.75 843.3 -936.75 889.2 -912.85 933.1 -873.75 977.05 -835.45 1020.0 -786.7 1058.45 -737.8 1097.05 -683.85 1126.8 -628.25 1157.45 -573.15 1175.45 -515.25 1194.35 -462.75 1197.7 -406.95 1201.3 -360.7 1186.95 -311.3 1171.65 -275.15 1136.55 -230.6 1093.3 -194.0 1018.35 -169.05 967.35 -135.45 872.05 L-108.6 795.9 Q-93.0 752.7 -80.1 721.75 -46.15 640.6 -8.35 591.5 14.1 562.4 58.5 527.9 72.35 517.2 98.25 498.35 127.0 477.45 138.85 468.45 186.2 432.5 212.3 402.4 246.7 362.7 258.5 319.0 282.6 229.65 223.05 147.3 200.5 116.1 163.6 82.7 143.25 64.25 99.55 29.5 76.75 67.7 45.55 113.2 27.7 139.25 -11.4 193.85 -49.05 246.4 -68.3 274.7 -99.2 320.1 -121.9 358.75 -102.45 411.0 -110.4 461.45 -118.0 509.6 -148.6 545.85 -179.4 582.4 -225.95 597.8 -275.25 614.1 -331.95 602.9 -346.4 625.9 -380.4 673.65 -412.7 719.0 -428.45 744.8 -411.15 756.85 -375.7 780.05 -344.85 801.1 -326.25 818.6 -333.2 824.25 -339.85 834.85 -343.65 840.95 -350.75 853.75 -357.3 864.8 -363.6 870.7 -371.95 878.55 -383.05 881.05 -414.9 856.45 -457.7 826.55 -476.65 813.25 -534.25 773.95 -632.95 706.65 -683.9 665.3 -663.2 627.2 -638.5 597.2 -627.55 604.1 -613.2 614.5 L-588.65 632.5 Q-558.4 654.5 -536.3 665.3 -520.25 637.55 -488.7 593.75 -452.55 543.5 -439.8 523.4 -470.15 480.75 -472.7 427.6 -475.15 376.95 -452.05 332.4 -428.3 286.7 -385.5 263.15 -338.85 237.45 -280.85 245.2 -203.2 137.4 -164.95 82.95 -99.0 -10.9 -53.75 -84.0 -84.3 -106.6 -127.3 -123.75 -172.35 -141.75 -218.45 -148.5 -269.05 -155.9 -311.05 -148.1 -357.9 -139.35 -388.7 -112.4 -414.65 -89.7 -438.25 -41.45 -453.7 -9.9 -478.15 56.5 M206.7 -415.2 L190.65 -394.55 Q181.2 -382.4 177.3 -374.75 172.0 -364.35 173.35 -356.5 176.95 -364.85 186.15 -376.55 L202.75 -396.65 Q212.15 -408.4 215.95 -416.55 220.95 -427.25 218.75 -436.0 215.4 -427.15 206.7 -415.2 M141.45 -324.6 Q136.45 -318.5 135.5 -314.45 134.35 -309.2 139.25 -305.4 140.05 -309.45 145.0 -315.55 L154.1 -326.0 Q159.15 -332.1 160.05 -336.1 161.25 -341.35 156.3 -345.15 155.5 -341.1 150.55 -335.05 L141.45 -324.6 M156.3 -316.75 Q150.95 -310.75 148.85 -307.15 145.4 -301.2 144.95 -294.05 154.85 -293.35 161.45 -297.45 166.8 -300.7 170.9 -307.85 172.25 -310.15 177.35 -321.3 181.15 -329.65 184.7 -333.8 181.65 -333.9 176.85 -337.35 172.7 -340.4 167.65 -339.5 167.2 -332.35 163.7 -326.4 161.65 -322.8 156.3 -316.75 M186.4 -316.25 Q178.65 -310.7 173.8 -303.05 168.7 -294.9 169.5 -288.2 170.4 -280.6 179.0 -277.05 180.35 -282.65 186.0 -289.35 189.2 -293.25 196.3 -300.5 202.1 -306.85 203.6 -311.25 205.65 -317.1 201.7 -322.45 194.5 -322.0 186.4 -316.25 M205.7 -361.9 Q217.75 -373.4 226.4 -385.4 248.2 -415.75 235.8 -430.3 231.1 -421.95 221.1 -409.1 L203.85 -387.2 Q183.65 -360.5 184.7 -345.15 194.45 -351.2 205.7 -361.9 M262.5 -380.85 L247.25 -362.05 Q238.25 -350.8 233.35 -341.85 226.8 -329.85 224.4 -316.75 234.9 -321.65 246.85 -332.1 259.2 -342.85 268.0 -355.15 277.75 -368.8 280.1 -380.35 282.85 -393.5 275.5 -401.95 270.95 -392.0 262.5 -380.85 M223.65 -375.85 Q204.4 -349.25 207.4 -328.15 228.55 -346.5 244.7 -368.75 264.2 -395.65 264.15 -413.3 241.0 -399.75 223.65 -375.85 M122.7 -270.35 Q118.95 -265.9 118.5 -262.75 117.95 -258.6 122.25 -254.3 128.95 -253.5 134.85 -258.2 140.2 -262.45 142.65 -269.2 145.1 -276.05 143.05 -281.3 140.8 -287.15 133.6 -288.4 133.15 -283.55 129.45 -278.4 L122.7 -270.35 M89.95 -225.55 Q87.15 -221.3 88.15 -214.6 98.05 -206.55 108.3 -219.1 111.95 -223.5 116.1 -231.15 L122.25 -242.95 Q117.0 -242.8 112.5 -244.6 109.65 -245.7 105.2 -248.65 106.25 -241.95 103.4 -237.7 101.7 -235.1 96.7 -231.6 91.65 -228.15 89.95 -225.55 M48.45 -174.85 Q48.15 -180.2 52.9 -186.25 54.45 -188.15 62.5 -196.2 68.25 -201.9 69.3 -205.45 70.8 -210.35 65.45 -214.6 64.65 -210.5 59.7 -204.45 L50.6 -194.0 Q45.6 -187.9 44.7 -183.9 43.5 -178.65 48.45 -174.85 M39.15 -148.65 Q37.85 -146.7 33.4 -141.6 25.75 -132.8 25.7 -123.75 30.4 -118.0 37.55 -121.45 43.95 -124.55 48.7 -132.75 53.55 -141.1 52.65 -148.05 51.55 -156.0 42.75 -157.8 42.0 -152.95 39.15 -148.65 M131.5 -195.35 Q128.65 -191.05 127.9 -186.2 133.15 -186.35 137.65 -184.55 140.5 -183.45 144.95 -180.5 145.7 -185.35 148.55 -189.7 149.85 -191.65 154.3 -196.75 158.0 -201.0 159.6 -204.2 161.95 -208.9 161.95 -214.6 156.7 -214.45 152.25 -216.2 149.35 -217.35 144.95 -220.25 144.9 -214.55 142.55 -209.85 140.95 -206.65 137.25 -202.4 132.8 -197.3 131.5 -195.35 M108.85 -184.95 Q106.3 -190.4 93.85 -191.85 93.85 -186.4 89.2 -178.8 L80.95 -166.4 Q76.85 -159.6 77.75 -155.4 78.9 -149.95 88.15 -146.45 89.55 -150.1 96.25 -158.7 104.05 -168.65 106.4 -172.7 110.85 -180.45 108.85 -184.95 M119.2 -172.4 Q112.35 -170.15 106.25 -162.45 100.5 -155.3 98.45 -147.35 96.25 -139.05 99.55 -135.1 112.8 -135.45 120.55 -148.15 L126.5 -159.2 Q130.1 -165.8 133.6 -169.15 127.1 -175.0 119.2 -172.4 M132.55 -207.1 Q137.85 -214.95 139.25 -231.6 124.4 -232.1 117.6 -222.05 112.3 -214.2 110.9 -197.55 125.75 -197.05 132.55 -207.1 M59.35 -176.7 L54.1 -163.5 Q71.2 -163.1 79.3 -175.2 85.1 -183.75 88.15 -203.25 74.0 -201.25 65.65 -188.85 62.5 -184.1 59.35 -176.7 M57.25 -129.2 Q55.4 -126.65 49.55 -122.05 44.8 -118.3 44.15 -115.7 43.2 -111.9 48.45 -106.7 73.05 -110.45 76.8 -135.1 73.8 -135.2 69.0 -138.65 64.85 -141.7 59.8 -140.8 60.9 -134.25 57.25 -129.2 M79.15 -117.45 Q77.95 -115.5 71.9 -108.1 67.65 -102.9 67.1 -99.5 66.35 -94.7 71.15 -89.7 82.2 -93.45 89.4 -102.65 95.75 -110.75 99.55 -123.75 94.3 -123.6 89.8 -125.35 86.9 -126.5 82.5 -129.45 82.8 -123.4 79.15 -117.45 M122.25 -118.05 Q130.45 -119.65 138.4 -125.9 146.1 -131.95 150.05 -139.5 154.2 -147.55 152.05 -153.7 149.55 -160.75 139.25 -163.5 138.8 -157.4 133.75 -151.05 130.8 -147.4 124.15 -140.75 118.75 -134.9 117.9 -130.5 116.7 -124.55 122.25 -118.05 M224.4 -305.4 Q219.0 -309.15 209.75 -303.65 201.15 -298.5 194.75 -289.05 188.0 -279.05 188.9 -271.3 189.95 -262.25 201.7 -260.0 202.15 -267.15 205.65 -273.1 207.7 -276.7 213.05 -282.7 218.4 -288.7 220.5 -292.3 223.95 -298.3 224.4 -305.4 M228.0 -286.85 Q221.1 -281.75 216.45 -275.45 205.3 -260.3 213.05 -248.65 220.35 -249.95 227.4 -254.95 234.15 -259.8 238.75 -266.6 243.45 -273.6 244.35 -280.6 245.35 -288.2 241.45 -294.05 234.75 -291.85 228.0 -286.85 M247.15 -225.95 Q252.75 -226.1 260.25 -232.3 267.2 -238.0 272.25 -245.8 277.5 -253.9 277.4 -259.35 277.25 -265.5 269.85 -265.7 268.6 -255.1 259.95 -244.35 L252.95 -235.75 Q249.1 -230.65 247.15 -225.95 M230.1 -237.3 Q241.4 -229.8 252.45 -245.1 257.05 -251.5 260.25 -260.3 263.35 -268.9 264.15 -277.05 250.0 -275.05 241.65 -262.65 238.5 -257.9 235.35 -250.5 L230.1 -237.3 M159.85 -269.25 Q155.65 -272.25 150.6 -271.35 152.0 -265.55 150.05 -262.0 148.85 -259.9 144.95 -257.15 141.05 -254.45 139.85 -252.3 137.85 -248.8 139.25 -242.95 147.3 -235.4 157.0 -244.4 166.0 -252.85 167.65 -265.7 164.65 -265.8 159.85 -269.25 M171.85 -250.1 Q170.7 -248.15 166.4 -244.2 162.65 -240.8 161.55 -237.7 159.9 -233.1 161.95 -225.95 186.6 -229.7 190.35 -254.3 185.1 -254.15 180.65 -255.95 177.75 -257.1 173.35 -260.0 174.25 -254.1 171.85 -250.1 M184.1 -225.95 Q177.4 -216.1 184.7 -208.9 196.85 -208.65 203.4 -218.55 205.4 -221.55 208.3 -227.85 211.4 -234.6 213.05 -237.3 207.8 -237.15 203.35 -238.9 200.45 -240.05 196.05 -242.95 194.65 -239.4 190.6 -234.3 L184.1 -225.95 M201.7 -197.55 Q216.55 -195.25 223.1 -204.55 226.75 -209.85 230.1 -225.95 216.4 -227.25 209.8 -217.85 207.3 -214.3 205.15 -208.3 L201.7 -197.55 M207.45 -168.4 Q200.95 -163.5 197.0 -158.25 192.5 -152.2 193.15 -147.85 193.9 -142.8 201.7 -140.8 201.75 -149.85 209.4 -158.65 213.85 -163.75 215.15 -165.7 218.0 -170.0 218.75 -174.85 213.7 -173.1 207.45 -168.4 M184.7 -197.55 Q172.65 -207.65 161.85 -195.75 157.45 -190.95 154.35 -183.4 151.4 -176.3 150.6 -169.15 155.85 -169.3 160.35 -167.55 163.25 -166.4 167.65 -163.5 167.7 -172.55 175.35 -181.35 179.8 -186.45 181.1 -188.4 183.95 -192.7 184.7 -197.55 M149.15 -128.05 Q140.5 -117.3 139.25 -106.7 143.9 -101.65 151.9 -105.9 159.2 -109.8 165.1 -118.65 171.15 -127.8 171.0 -135.35 170.85 -144.05 161.95 -146.45 160.0 -141.75 156.15 -136.65 L149.15 -128.05 M179.0 -135.1 Q177.75 -124.5 169.1 -113.75 L162.1 -105.15 Q158.25 -100.05 156.3 -95.35 162.25 -95.7 168.6 -100.35 174.6 -104.75 178.7 -111.25 182.95 -117.95 183.3 -124.1 183.65 -130.95 179.0 -135.1 M173.35 -157.8 Q182.95 -149.35 191.9 -161.1 199.5 -171.05 201.7 -186.2 177.1 -182.45 173.35 -157.8 M247.15 -214.6 Q240.3 -214.95 235.8 -211.75 232.3 -209.25 229.45 -203.9 L224.8 -194.3 Q222.0 -188.8 218.75 -186.2 230.9 -185.95 237.5 -195.85 239.45 -198.85 242.4 -205.15 245.45 -211.85 247.15 -214.6 M-44.85 -27.65 Q-45.95 -20.9 -42.4 -15.9 -28.9 -18.4 -21.85 -29.4 -15.85 -38.85 -14.0 -55.6 -21.05 -54.65 -28.0 -50.3 -34.6 -46.1 -39.15 -40.0 -43.8 -33.8 -44.85 -27.65 M-126.55 72.85 Q-119.75 67.25 -114.85 60.65 -102.75 44.45 -110.55 35.15 -114.7 45.25 -124.0 58.55 -136.35 76.25 -138.9 80.6 -133.2 78.25 -126.55 72.85 M-117.75 78.4 Q-123.1 88.35 -127.55 91.95 -118.1 96.9 -111.25 93.65 -105.8 91.05 -100.75 82.45 L-92.3 66.05 Q-87.1 56.3 -82.15 52.2 -90.8 46.5 -97.75 49.8 -103.2 52.35 -108.7 61.45 -111.9 66.7 -117.75 78.4 M-59.45 -10.2 Q-60.45 -3.65 -66.15 3.7 -69.45 7.95 -76.95 15.85 -83.1 22.85 -84.65 27.75 -86.7 34.4 -82.15 40.85 -75.25 39.45 -67.45 32.75 -59.75 26.15 -54.95 17.8 -49.8 8.75 -50.4 1.6 -51.15 -6.55 -59.45 -10.2 M-33.2 8.95 Q-37.35 5.95 -42.4 6.85 -43.3 11.95 -49.2 20.25 L-59.35 34.2 Q-64.4 42.1 -63.85 47.25 -63.15 53.75 -53.75 57.85 -51.1 53.35 -38.85 35.85 -29.5 22.55 -25.35 12.5 -28.4 12.4 -33.2 8.95 M-68.95 -9.55 Q-68.15 -14.65 -76.45 -15.9 -75.7 -9.45 -80.3 -2.45 -82.35 0.65 -89.85 8.95 -95.8 15.5 -97.0 19.3 -98.7 24.75 -93.5 29.5 -93.55 24.3 -87.5 16.05 L-75.95 2.05 Q-69.5 -5.75 -68.95 -9.55 M-84.25 70.65 L-94.5 83.4 Q-100.0 90.75 -101.4 96.15 -103.15 103.0 -99.15 108.95 -92.3 107.55 -84.45 100.85 -76.8 94.25 -72.0 85.9 -66.85 76.85 -67.45 69.65 -68.15 61.5 -76.45 57.85 -78.35 63.15 -84.25 70.65 M-36.5 44.95 Q-42.45 52.25 -44.05 57.0 -46.2 63.5 -42.4 69.2 -27.25 67.0 -17.75 51.3 -15.8 48.05 -10.45 37.3 -6.05 28.4 -2.65 23.8 -7.9 23.95 -12.4 22.2 -15.3 21.05 -19.7 18.15 -20.8 24.6 -26.25 32.2 L-36.5 44.95 M-59.45 74.9 Q-59.5 81.05 -65.4 89.2 -68.7 93.85 -76.05 102.65 -81.65 110.15 -81.25 115.0 -80.75 121.3 -70.8 126.0 -68.2 121.55 -55.9 104.0 -46.55 90.65 -42.4 80.6 -45.4 80.45 -50.2 77.0 -54.4 74.0 -59.45 74.9 M-187.55 161.3 Q-187.15 155.8 -195.7 154.4 -194.95 160.85 -199.55 167.85 -201.6 170.95 -209.1 179.3 -215.05 185.85 -216.2 189.6 -217.9 195.1 -212.7 199.8 -211.9 195.6 -205.5 187.55 -197.45 178.15 -193.95 173.55 -187.85 165.6 -187.55 161.3 M-200.4 196.5 Q-204.9 207.15 -207.05 211.15 -188.85 211.1 -179.65 195.95 -176.45 190.7 -173.0 181.35 L-167.3 165.75 Q-184.1 166.85 -193.4 182.2 -196.35 187.0 -200.4 196.5 M-222.55 226.85 L-229.0 234.6 Q-232.95 239.25 -234.45 243.4 -236.5 249.1 -235.45 256.55 -228.45 256.85 -221.4 251.65 -214.8 246.8 -211.1 239.5 -207.3 232.0 -208.75 226.0 -210.4 219.2 -218.4 216.85 -219.2 222.1 -222.55 226.85 M-236.2 220.6 L-245.5 230.85 Q-250.45 236.85 -251.2 241.2 -252.15 246.7 -246.8 250.9 -246.4 246.3 -241.95 239.85 L-233.4 228.85 Q-228.4 222.5 -227.25 218.9 -225.75 214.05 -229.75 211.15 -230.9 214.75 -236.2 220.6 M-203.9 245.45 Q-205.75 248.0 -211.6 252.6 -216.35 256.35 -217.0 258.9 -217.95 262.7 -212.7 267.9 -188.1 264.15 -184.35 239.55 -187.35 239.45 -192.15 236.0 -196.3 232.95 -201.35 233.85 -200.25 240.4 -203.9 245.45 M-189.15 277.6 Q-187.15 282.35 -178.65 284.95 -177.35 278.65 -172.8 271.55 -167.75 264.5 -166.2 261.55 -163.7 256.75 -165.85 253.35 -168.5 249.25 -178.65 245.2 -179.1 249.45 -182.75 256.4 L-188.4 267.65 Q-190.8 273.75 -189.15 277.6 M-61.0 130.75 Q-60.0 140.6 -48.1 143.05 -45.3 133.55 -33.9 120.35 -28.2 113.75 -25.7 110.05 -21.55 103.95 -19.7 97.6 -27.2 91.95 -37.9 96.95 -47.55 101.5 -54.65 111.7 -61.9 122.15 -61.0 130.75 M-76.45 143.05 Q-77.5 151.25 -82.5 158.3 -84.55 161.2 -92.45 169.6 -98.85 176.4 -101.5 181.85 -105.35 189.7 -104.85 199.8 -85.75 197.85 -74.7 181.7 -70.5 175.6 -66.35 165.9 L-59.45 148.7 Q-64.7 148.85 -69.15 147.1 -72.05 145.95 -76.45 143.05 M-99.15 131.65 Q-99.55 139.35 -105.45 147.35 L-117.0 160.35 Q-123.75 167.8 -125.3 173.2 -127.35 180.55 -121.9 188.45 -108.5 181.85 -98.2 166.75 -93.1 159.25 -82.15 137.35 -85.15 137.25 -89.95 133.8 -94.1 130.75 -99.15 131.65 M-36.75 154.4 Q-30.5 151.8 -23.0 145.3 -14.95 138.4 -10.0 130.85 -4.35 122.2 -4.7 115.4 -5.2 107.5 -14.0 103.3 -15.1 109.75 -20.55 117.35 L-30.85 130.1 Q-36.75 137.4 -38.35 142.2 -40.55 148.7 -36.75 154.4 M-53.6 165.8 Q-62.55 170.75 -69.95 181.85 -77.35 192.95 -78.2 202.65 -79.15 213.5 -70.8 216.85 -66.45 205.85 -54.3 190.7 -40.95 174.05 -36.75 165.75 -43.6 160.2 -53.6 165.8 M-125.0 129.25 L-136.6 143.6 Q-143.05 151.9 -145.15 157.7 -147.85 165.2 -144.6 171.4 -136.95 169.7 -128.1 162.45 -119.45 155.25 -113.75 146.15 -107.65 136.35 -107.75 128.3 -107.85 119.2 -116.2 114.65 -118.45 120.8 -125.0 129.25 M-121.9 108.95 Q-137.35 99.95 -149.9 119.55 -153.85 125.65 -159.3 137.65 -165.35 150.95 -167.3 154.4 -159.65 158.5 -153.0 154.2 -147.8 150.8 -142.0 141.1 L-132.3 123.3 Q-126.5 113.0 -121.9 108.95 M-156.55 105.75 L-167.3 118.9 Q-173.55 126.55 -175.15 131.35 -177.35 137.9 -173.0 143.05 -172.4 136.9 -166.55 129.4 L-155.3 116.75 Q-148.75 109.4 -147.25 104.5 -145.15 97.85 -150.25 91.95 -151.0 98.0 -156.55 105.75 M-161.6 177.1 Q-163.75 188.45 -174.7 200.9 L-183.2 210.85 Q-187.75 216.75 -190.0 222.5 -173.85 230.35 -161.85 214.35 -157.85 209.0 -152.7 198.7 L-144.6 182.75 Q-147.6 182.65 -152.4 179.2 -156.55 176.2 -161.6 177.1 M-129.45 210.7 Q-124.55 204.85 -121.9 199.8 -136.9 190.4 -150.35 207.1 -158.6 217.25 -167.3 239.55 -162.1 239.4 -157.55 241.15 -154.75 242.3 -150.25 245.2 -148.3 232.85 -138.0 220.55 L-129.45 210.7 M-123.75 218.55 L-134.8 230.45 Q-140.9 237.35 -142.25 242.65 -144.0 249.55 -138.9 256.55 -131.5 255.75 -123.35 249.3 -115.45 243.05 -110.6 234.65 -105.45 225.6 -106.35 218.15 -107.35 209.65 -116.2 205.5 -117.65 211.45 -123.75 218.55 M-155.95 262.25 Q-167.75 277.3 -169.5 284.55 -172.5 296.9 -155.95 302.0 -155.9 296.3 -153.55 291.6 -151.95 288.4 -148.25 284.15 -143.8 279.05 -142.5 277.1 -139.65 272.75 -138.9 267.9 -144.15 268.05 -148.65 266.3 -151.55 265.15 -155.95 262.25 M-121.9 267.9 Q-109.85 275.6 -98.75 258.05 -96.05 253.8 -90.2 242.15 -85.1 232.05 -82.15 228.2 -85.15 228.05 -89.95 224.6 -94.1 221.6 -99.15 222.5 -99.6 229.65 -103.1 235.6 -105.2 239.2 -110.5 245.2 -115.9 251.25 -117.95 254.8 -121.45 260.8 -121.9 267.9 M-59.45 228.2 L-42.4 202.65 -25.35 177.1 Q-32.35 179.05 -39.85 185.55 -46.8 191.6 -52.3 199.8 -57.8 208.05 -59.8 215.5 -62.0 223.5 -59.45 228.2 M-76.45 233.85 Q-80.6 243.95 -89.95 257.25 -102.25 274.85 -104.85 279.3 -98.3 278.25 -91.4 272.65 -84.95 267.4 -80.2 259.95 -75.45 252.4 -74.25 245.55 -73.0 238.15 -76.45 233.85 M122.25 -106.7 Q117.0 -106.55 112.5 -108.35 109.65 -109.45 105.2 -112.4 103.65 -108.65 100.35 -104.45 L94.7 -97.35 Q88.0 -88.5 88.15 -78.35 93.4 -78.5 97.9 -76.7 100.75 -75.6 105.2 -72.65 105.25 -78.35 107.6 -83.05 109.2 -86.25 112.9 -90.5 117.35 -95.6 118.65 -97.55 121.5 -101.85 122.25 -106.7 M86.7 -60.0 Q85.65 -68.45 76.8 -72.65 74.9 -67.35 69.0 -59.85 L58.75 -47.1 Q53.25 -39.75 51.85 -34.35 50.1 -27.5 54.1 -21.55 61.5 -22.4 69.7 -28.8 77.6 -35.05 82.4 -43.5 87.55 -52.5 86.7 -60.0 M103.5 -20.45 L94.95 -10.5 Q90.4 -4.6 88.15 1.15 95.0 0.25 102.2 -4.9 109.15 -9.9 114.0 -16.95 119.1 -24.35 120.0 -31.3 121.0 -39.0 116.55 -44.25 114.45 -32.9 103.5 -20.45 M110.9 -49.95 Q99.05 -57.15 86.85 -41.0 78.6 -30.15 71.15 -10.2 77.95 -5.85 84.05 -9.15 89.05 -11.85 94.25 -20.1 96.95 -24.3 102.85 -36.0 107.95 -46.1 110.9 -49.95 M71.15 -78.35 Q55.85 -88.3 43.5 -70.15 40.15 -65.25 34.2 -53.45 28.65 -42.5 25.7 -38.6 L37.1 -38.6 Q37.4 -35.3 38.25 -34.05 39.55 -32.2 42.75 -32.9 44.85 -44.3 55.8 -56.75 L64.35 -66.7 Q68.9 -72.55 71.15 -78.35 M110.9 -61.3 Q124.15 -62.2 131.0 -72.4 135.9 -79.6 139.25 -95.35 124.4 -95.85 117.6 -85.8 112.3 -77.95 110.9 -61.3 M38.7 -97.0 Q35.85 -98.1 31.4 -101.05 31.0 -93.35 27.0 -87.0 25.1 -84.0 18.7 -76.85 13.2 -70.75 11.1 -66.0 7.9 -59.05 8.7 -49.95 24.4 -53.25 34.35 -66.85 40.6 -75.35 48.45 -95.35 43.2 -95.2 38.7 -97.0 M25.7 -106.7 Q13.9 -113.9 1.65 -97.8 -6.6 -86.9 -14.0 -67.0 2.9 -67.0 12.3 -80.4 15.5 -84.9 19.35 -93.2 L25.7 -106.7 M4.35 -114.3 Q6.4 -120.2 3.0 -123.75 2.05 -118.55 -3.65 -111.7 -6.95 -107.75 -14.45 -100.1 -20.65 -93.35 -22.2 -88.95 -24.25 -83.05 -19.7 -78.35 -18.15 -82.75 -12.65 -90.0 L-2.75 -102.5 Q2.75 -109.75 4.35 -114.3 M-21.2 -18.8 Q-25.35 -12.0 -24.4 -7.8 -23.25 -2.35 -14.0 1.15 -12.6 -2.5 -5.9 -11.1 1.9 -21.05 4.2 -25.1 8.7 -32.85 6.65 -37.35 4.1 -42.8 -8.35 -44.25 -8.35 -38.8 -13.0 -31.2 -15.6 -26.9 -21.2 -18.8 M17.0 -24.8 Q10.15 -22.55 4.05 -14.85 -1.65 -7.65 -3.75 0.25 -5.95 8.55 -2.65 12.5 10.6 12.15 18.35 -0.55 L24.3 -11.6 Q27.9 -18.2 31.4 -21.55 24.95 -27.4 17.0 -24.8 M37.1 -15.9 Q35.6 -11.15 30.3 -4.7 L21.3 6.15 Q16.55 12.35 15.9 17.25 15.05 23.5 20.05 29.5 26.9 29.15 34.0 23.2 40.8 17.55 44.6 9.7 48.6 1.4 47.2 -5.25 45.55 -12.8 37.1 -15.9 M41.85 24.55 Q32.1 40.1 48.45 46.5 49.05 41.35 54.6 33.7 L64.3 21.05 Q69.25 14.05 68.95 9.8 68.5 4.35 59.8 1.15 58.2 4.25 51.65 11.95 44.5 20.35 41.85 24.55 M5.85 63.55 Q11.55 56.95 14.05 53.25 18.2 47.15 20.05 40.85 5.05 31.45 -8.45 48.15 -16.75 58.35 -25.35 80.6 -20.1 80.45 -15.65 82.2 -12.75 83.35 -8.35 86.25 -6.45 79.95 -2.3 73.8 0.15 70.15 5.85 63.55 M39.75 70.5 Q35.1 74.7 30.7 82.75 28.2 87.3 23.4 96.75 19.0 104.75 14.35 108.95 22.7 107.55 28.7 102.05 33.35 97.8 37.75 89.8 L45.05 75.8 Q49.45 67.8 54.1 63.55 45.75 64.95 39.75 70.5 M20.9 58.05 Q14.05 62.85 9.0 70.65 4.3 77.9 2.6 85.35 0.9 92.9 3.0 97.6 29.0 86.15 37.1 52.2 28.65 52.65 20.9 58.05 M73.15 24.45 Q71.05 27.95 66.05 32.9 60.55 38.4 58.6 41.1 55.0 46.2 54.1 52.2 60.05 51.85 66.4 47.2 72.4 42.8 76.5 36.35 80.75 29.6 81.1 23.45 81.45 16.65 76.8 12.5 76.45 19.1 73.15 24.45 M0.95 126.95 Q-5.5 132.2 -10.25 139.65 -15.0 147.2 -16.2 154.05 -17.45 161.45 -14.0 165.75 -9.85 155.65 -0.5 142.35 11.8 124.7 14.35 120.3 7.8 121.35 0.95 126.95 M-361.6 268.45 Q-406.15 287.3 -433.45 329.6 -460.35 371.3 -460.25 419.55 -460.1 471.0 -428.45 512.05 -427.65 501.7 -419.2 492.95 L-412.0 485.9 Q-407.9 481.75 -405.75 478.0 -412.15 441.8 -407.7 410.95 -403.25 379.9 -388.25 357.15 -372.9 333.8 -347.75 321.25 -321.5 308.1 -286.5 307.65 -282.35 297.55 -273.05 284.25 -260.7 266.65 -258.15 262.25 -313.0 247.9 -361.6 268.45 M-116.2 290.65 Q-118.85 298.4 -127.55 310.5 -136.25 322.6 -138.9 330.35 -133.6 329.3 -127.65 324.3 -121.95 319.55 -117.9 313.1 -113.65 306.35 -112.95 300.55 -112.2 294.1 -116.2 290.65 M-174.25 312.6 Q-175.9 305.05 -184.35 302.0 -185.85 306.75 -191.1 313.2 L-200.15 324.0 Q-204.85 330.25 -205.55 335.15 -206.4 341.4 -201.35 347.4 -194.5 347.05 -187.4 341.1 -180.6 335.45 -176.8 327.6 -172.8 319.3 -174.25 312.6 M-184.75 351.25 L-190.0 364.45 Q-178.7 371.9 -167.65 356.6 -163.05 350.25 -159.85 341.4 -156.75 332.85 -155.95 324.7 -170.1 326.7 -178.45 339.1 -181.6 343.85 -184.75 351.25 M-163.75 362.3 Q-171.85 375.0 -178.65 381.45 -170.6 415.7 -175.0 445.9 -179.25 475.2 -194.75 497.45 -210.2 519.6 -234.85 532.1 -260.15 544.95 -292.2 546.1 -294.8 550.55 -307.1 568.1 -316.45 581.45 -320.6 591.5 -263.1 601.05 -216.2 580.2 -173.0 561.0 -147.85 520.65 -123.35 481.35 -123.3 434.1 -123.25 384.85 -150.25 341.75 -152.55 344.8 -163.75 362.3 M-150.25 319.0 Q-138.2 315.75 -131.2 304.05 -126.5 296.15 -121.9 279.3 -137.95 279.15 -144.75 290.45 -150.45 299.95 -150.25 319.0 M-206.15 292.95 Q-211.4 295.65 -215.55 302.0 -216.55 303.45 -222.15 313.85 -226.05 321.15 -229.75 324.7 -214.5 332.85 -204.1 319.55 -200.25 314.6 -196.3 305.75 L-190.0 290.65 Q-199.65 289.55 -206.15 292.95 M-216.25 288.8 Q-214.55 279.65 -218.4 273.6 -230.15 276.15 -238.25 290.65 L-244.65 302.7 Q-248.5 309.6 -252.45 313.35 -244.9 318.25 -236.65 315.3 -229.3 312.7 -223.45 304.95 -217.85 297.45 -216.25 288.8 M-241.8 281.4 L-235.45 267.9 Q-253.2 267.25 -262.55 280.55 -265.9 285.3 -269.35 293.6 L-275.15 307.65 Q-258.25 307.65 -248.85 294.25 -245.65 289.75 -241.8 281.4 M-224.05 358.75 Q-233.35 376.65 -250.8 400.4 -260.9 414.1 -282.05 441.25 -300.25 465.35 -309.8 482.05 -322.55 504.3 -326.25 523.4 -293.95 498.3 -261.25 449.3 -253.0 436.95 -234.3 406.75 -217.2 379.2 -207.05 364.45 -210.05 364.3 -214.85 360.85 -219.0 357.85 -224.05 358.75 M-344.65 343.35 Q-361.05 353.4 -371.8 368.55 -383.0 384.3 -386.15 403.0 -389.5 423.05 -383.05 443.9 -375.8 431.0 -364.7 415.4 L-344.85 388.45 Q-319.85 354.6 -309.25 330.35 -328.25 333.35 -344.65 343.35 M-275.15 324.7 Q-310.6 346.45 -338.75 388.85 -357.15 416.5 -383.05 472.3 -354.0 446.65 -324.5 403.1 -314.25 388.0 -299.55 364.15 L-275.15 324.7 M-198.65 387.25 Q-201.4 383.45 -207.05 381.45 -223.2 406.9 -255.15 452.55 -288.85 500.65 -303.55 523.4 -284.25 516.25 -268.75 500.0 -257.35 488.0 -244.25 466.3 -230.1 441.65 -222.45 429.95 -209.25 409.8 -195.7 398.5 -195.5 391.55 -198.65 387.25 M-236.65 468.25 L-256.55 495.15 Q-267.8 510.85 -275.15 523.4 -256.45 521.7 -238.15 510.25 -220.5 499.1 -208.5 482.3 -196.05 464.8 -193.7 446.5 -191.1 426.5 -201.35 409.85 -212.0 434.75 -236.65 468.25 M-301.05 422.25 Q-334.35 470.2 -348.95 512.05 -277.15 439.95 -229.75 341.75 -267.0 373.25 -301.05 422.25 M-321.9 407.05 Q-355.5 454.65 -366.0 495.0 -329.4 454.75 -303.6 418.35 -272.9 375.0 -252.45 330.35 -290.4 362.45 -321.9 407.05 M-337.5 571.8 L-343.3 585.85 Q-333.4 586.55 -326.8 582.45 -321.45 579.2 -317.3 572.05 -315.95 569.75 -310.9 558.6 -307.1 550.25 -303.55 546.1 -321.3 545.45 -330.65 558.75 -334.0 563.5 -337.5 571.8 M-326.25 540.45 Q-342.35 531.9 -353.65 543.9 -363.3 554.2 -366.0 574.5 -356.35 575.6 -349.85 572.2 -344.6 569.45 -340.4 563.15 L-333.85 551.3 Q-329.95 544.0 -326.25 540.45 M-666.9 665.3 Q-618.55 696.9 -522.2 764.75 -427.5 831.4 -377.35 864.0 -374.7 858.5 -369.25 852.25 L-359.85 841.8 Q-348.75 828.75 -348.95 812.95 -360.5 811.05 -375.35 800.15 L-400.4 779.5 Q-414.9 767.5 -423.9 764.25 -436.15 759.8 -445.5 767.5 -426.05 777.85 -411.9 787.85 -395.1 799.75 -383.05 812.95 -409.8 820.6 -447.0 799.0 -459.85 791.5 -478.35 777.9 -498.5 762.8 -507.95 756.15 -535.15 737.0 -570.0 710.1 L-627.15 665.3 Q-622.9 664.6 -618.4 659.9 -613.6 654.9 -610.1 653.95 -602.45 654.35 -592.5 661.8 -586.75 666.1 -575.85 675.85 -566.5 683.65 -560.75 684.6 -553.1 685.85 -547.65 676.7 -556.6 671.75 -580.9 653.85 -602.95 637.6 -614.85 632.15 -633.05 623.8 -645.05 629.85 -659.35 637.1 -666.9 665.3 M-377.35 506.35 Q-385.55 507.95 -393.5 514.2 -401.2 520.25 -405.15 527.8 -409.35 535.85 -407.15 542.0 -404.7 549.05 -394.4 551.8 -394.65 544.85 -390.2 538.0 -388.25 535.0 -381.2 527.15 -375.75 521.05 -374.55 517.25 -372.85 511.8 -377.35 506.35 M-394.4 483.65 Q-407.55 489.15 -417.55 504.05 -428.1 519.75 -422.75 529.05 -415.75 527.55 -409.05 522.15 -402.8 517.05 -398.35 509.9 -393.9 502.75 -392.75 495.9 -391.5 488.55 -394.4 483.65 M-422.75 551.8 Q-428.4 567.1 -443.5 588.25 -447.25 593.5 -471.65 624.95 -488.4 646.6 -495.2 659.1 -504.6 676.5 -502.25 688.05 -490.9 681.9 -477.85 666.15 -468.05 654.35 -454.0 632.7 -438.15 607.7 -430.15 595.7 -416.3 574.9 -405.75 563.15 -410.0 562.45 -414.5 557.7 -419.25 552.75 -422.75 551.8 M-400.05 568.8 Q-409.3 583.5 -423.1 602.55 L-447.15 635.25 Q-476.6 675.6 -490.9 705.05 -472.75 698.05 -458.2 682.4 -447.45 671.0 -435.0 650.25 L-424.8 632.8 Q-418.65 622.3 -414.25 615.65 -401.7 596.55 -388.7 585.85 -388.5 578.9 -391.65 574.6 -394.45 570.8 -400.05 568.8 M-358.3 534.75 Q-357.45 527.8 -360.3 523.4 -373.8 525.9 -380.85 536.95 -386.85 546.35 -388.7 563.15 -380.65 563.45 -373.6 558.95 -367.3 554.95 -363.1 548.05 -359.1 541.55 -358.3 534.75 M-461.65 571.1 Q-467.75 579.9 -486.25 604.7 -501.85 625.55 -510.3 638.8 -522.85 658.35 -530.65 676.7 -514.6 664.45 -498.1 647.65 -480.0 629.2 -466.45 610.4 -433.15 564.15 -439.8 534.75 -448.3 551.75 -461.65 571.1 M-408.9 670.55 Q-426.0 691.45 -432.0 705.0 -440.2 723.55 -434.15 739.15 -418.05 711.45 -386.5 667.55 -350.4 617.35 -337.6 597.2 L-360.3 597.2 Q-364.6 614.0 -379.95 634.9 -385.4 642.3 -394.25 652.95 L-408.9 670.55 M-427.95 647.3 Q-455.35 686.7 -462.5 722.1 -432.65 695.55 -408.0 660.25 -385.0 627.25 -366.0 585.85 -399.65 606.6 -427.95 647.3" fill="#373535" fill-rule="evenodd" stroke="none"/>
  </g>
</svg>
