<?xml version="1.0" encoding="UTF-8" standalone="no"?>
<svg xmlns:xlink="http://www.w3.org/1999/xlink" height="604.45px" width="1040.3px" xmlns="http://www.w3.org/2000/svg">
  <g transform="matrix(1, 0, 0, 1, 527.95, 241.55)">
    <path d="M141.9 -96.75 Q148.9 -96.25 163.0 -88.55 170.65 -84.4 190.35 -72.15 208.6 -60.75 217.45 -56.2 239.35 -42.85 257.15 -31.25 268.2 -24.05 275.75 -18.65 288.4 -15.55 320.65 5.3 343.0 19.8 410.2 68.3 447.9 91.75 475.65 119.95 507.95 152.75 507.95 174.8 507.95 179.65 503.2 188.65 501.55 191.7 499.9 193.9 L499.95 195.4 Q499.95 205.15 458.5 243.05 445.15 255.25 429.4 268.6 L414.95 280.55 Q408.25 285.25 357.45 325.8 316.4 358.55 311.7 358.55 307.3 358.55 305.95 354.8 305.25 352.9 305.45 350.65 305.45 341.55 329.15 314.55 341.3 300.75 356.7 285.05 361.6 279.35 371.5 270.25 L388.6 254.6 Q409.15 235.05 412.45 222.05 L411.95 221.55 Q407.2 224.55 397.2 229.1 390.2 232.3 385.95 233.6 380.85 239.25 367.25 248.8 343.5 264.6 339.45 268.3 329.45 277.45 307.6 292.9 L287.7 306.55 Q285.2 306.55 283.7 305.5 269.4 319.55 266.2 319.55 261.0 319.55 259.25 316.55 258.45 315.2 258.45 313.15 258.45 312.3 285.6 283.55 315.3 252.1 329.95 239.3 338.75 231.65 345.8 221.2 352.45 211.35 355.7 201.8 356.25 200.1 358.1 197.0 L350.45 202.8 Q319.15 226.3 313.95 230.8 292.8 250.05 279.45 261.4 255.8 281.5 248.45 282.5 238.85 293.55 233.7 293.55 229.7 293.55 228.2 290.5 227.45 289.05 227.45 287.15 227.45 284.05 239.95 269.0 L255.7 250.05 268.05 232.15 Q275.85 221.2 283.95 213.3 290.65 206.7 303.95 191.05 L308.45 185.8 303.3 189.55 Q267.85 214.6 264.2 217.55 L228.0 248.1 Q202.25 269.55 198.7 269.55 194.75 269.55 193.25 266.5 192.45 264.9 192.45 262.8 192.45 260.0 206.8 247.3 206.25 245.6 206.45 243.65 206.45 239.05 210.0 235.35 212.25 233.05 218.5 229.15 L222.6 226.55 Q223.15 223.5 225.8 220.35 227.85 217.85 230.5 216.1 230.9 215.2 231.55 214.5 233.45 212.3 236.2 212.1 L236.7 212.1 237.2 211.05 Q241.0 203.1 251.6 192.1 262.4 180.9 263.45 178.8 269.95 166.1 276.8 155.2 262.5 164.2 260.95 165.55 L243.9 180.85 Q234.5 189.05 227.2 193.3 218.3 198.65 208.5 208.65 204.5 212.7 194.45 224.3 191.45 227.75 184.0 230.9 175.8 234.35 172.7 237.05 156.15 251.55 154.7 251.55 150.75 251.55 149.25 248.5 148.45 246.9 148.45 244.8 148.45 241.9 169.55 222.25 L169.45 220.8 Q169.45 214.85 197.15 186.55 211.05 172.35 225.7 158.05 L235.45 141.8 Q238.8 135.8 240.65 131.25 234.2 136.5 224.35 143.55 L202.95 158.75 Q192.15 166.45 189.7 169.05 179.9 179.35 157.25 199.0 133.5 219.55 130.7 219.55 128.9 219.55 127.65 218.95 L123.7 223.55 Q119.3 223.55 117.95 219.8 117.25 217.9 117.45 215.65 117.45 206.0 142.4 176.6 156.15 160.35 171.45 144.8 177.85 138.3 188.15 125.85 L152.2 154.55 118.45 183.85 Q90.6 207.55 87.7 207.55 83.75 207.55 82.25 204.55 81.45 203.0 81.45 201.15 81.45 198.8 98.75 182.3 98.45 181.2 98.45 179.8 98.45 178.5 105.05 171.75 L113.85 162.7 Q113.45 161.55 113.45 160.15 113.45 159.75 119.0 152.25 125.55 143.45 131.2 137.4 137.1 131.1 141.05 128.9 146.3 120.05 148.45 112.3 150.3 105.45 158.1 95.25 L162.8 89.15 149.95 99.5 Q118.05 124.6 116.45 126.3 99.7 144.8 89.1 155.85 70.7 175.15 65.4 176.45 53.65 190.55 51.7 190.55 47.3 190.55 45.95 186.8 45.25 184.9 45.45 182.65 45.45 179.55 69.1 149.95 L102.7 108.05 Q119.55 86.1 134.65 69.7 104.05 86.05 82.2 105.55 77.7 109.6 66.35 121.15 L45.65 142.15 Q19.3 168.55 14.2 168.55 9.8 168.55 8.2 165.55 7.45 164.1 7.45 162.15 7.45 158.95 21.45 144.95 L21.45 143.4 Q21.45 138.1 48.5 106.7 62.3 90.7 78.7 72.55 L95.9 49.9 101.45 42.6 95.7 44.05 Q90.8 45.4 85.5 48.35 80.95 50.85 78.95 52.8 L68.0 64.0 Q60.45 71.9 56.2 75.3 L48.1 82.35 47.95 82.55 Q46.75 84.65 44.7 85.3 38.05 91.1 27.55 100.35 6.8 118.55 4.7 118.55 L4.45 118.55 3.8 119.4 Q-14.1 143.55 -19.3 143.55 -23.3 143.55 -24.8 140.5 -25.55 139.0 -25.55 137.15 -25.55 133.8 -5.0 105.75 14.65 78.9 25.2 67.05 33.15 58.15 39.2 48.95 43.95 41.7 49.6 35.05 L18.95 59.05 Q14.35 62.8 -10.1 88.7 -30.75 110.55 -34.3 110.55 L-35.8 110.45 Q-39.3 113.55 -41.8 113.55 L-43.2 113.45 -51.8 124.4 Q-56.2 124.4 -57.8 121.35 -58.6 119.8 -58.55 118.05 -58.55 108.9 -29.25 72.35 -8.1 45.95 2.2 35.3 10.05 27.2 16.9 14.95 L21.35 6.7 Q9.5 14.65 7.7 16.05 L-4.5 27.4 Q-13.6 35.85 -19.3 38.55 -26.1 41.8 -32.0 49.4 -34.7 52.9 -41.25 63.75 -46.55 72.55 -50.4 76.2 -55.95 81.55 -62.8 81.55 -65.0 81.55 -66.5 80.8 L-70.1 87.75 Q-77.55 101.55 -84.3 101.55 -89.15 101.55 -90.85 98.5 -91.65 96.95 -91.55 95.15 -91.55 90.75 -74.6 65.75 -58.8 42.5 -40.05 18.7 -45.65 22.8 -49.55 25.3 -58.85 31.3 -66.05 38.9 L-81.05 54.55 -94.1 68.35 Q-104.15 78.55 -107.8 78.55 L-110.8 78.1 Q-118.65 91.55 -123.3 91.55 -127.75 91.55 -129.1 87.8 -129.75 85.9 -129.55 83.65 -129.55 71.25 -103.85 40.6 -97.0 32.4 -84.55 18.6 -74.2 7.15 -72.3 4.55 -67.75 -1.7 -61.6 -14.7 L-58.4 -21.45 Q-85.25 -7.95 -94.05 0.55 -97.4 3.8 -106.15 14.25 L-122.25 33.3 Q-143.35 57.55 -150.8 57.55 L-152.5 57.45 -153.5 59.45 Q-159.75 71.5 -167.45 72.5 L-168.8 74.5 Q-170.7 76.55 -173.3 76.55 -177.25 76.55 -178.75 73.55 -179.55 72.0 -179.55 70.15 -179.55 67.3 -177.6 65.6 -176.55 64.7 -175.2 64.35 -174.25 61.55 -170.4 57.8 -164.55 52.2 -163.55 49.3 -160.25 39.5 -152.8 33.55 -147.05 28.9 -138.0 18.35 L-124.05 2.3 Q-114.7 -7.3 -95.4 -34.85 -115.1 -22.85 -127.55 -12.7 -135.2 -6.45 -162.7 19.0 -178.15 33.35 -184.1 38.55 L-184.05 39.4 Q-184.05 42.65 -186.75 44.3 -188.8 45.55 -191.3 45.55 L-193.7 45.35 Q-201.05 53.55 -202.3 53.55 -206.3 53.55 -207.8 50.5 -208.55 48.95 -208.55 46.8 -208.55 41.6 -184.5 12.2 L-158.55 -19.2 -139.9 -48.8 Q-153.4 -38.55 -165.05 -26.45 -170.4 -20.95 -181.85 -13.5 -192.5 -6.65 -197.3 -0.95 -203.55 6.5 -210.8 13.65 -220.9 23.55 -224.15 23.55 -225.95 23.55 -227.2 23.0 -241.75 41.55 -244.65 41.55 -249.15 41.55 -250.7 38.5 -251.4 37.15 -251.4 35.15 -251.4 29.85 -227.3 -1.75 -215.0 -17.9 -200.3 -36.45 L-185.45 -58.25 -175.9 -71.75 -179.8 -69.2 Q-212.15 -47.95 -217.15 -42.95 -219.2 -40.9 -224.2 -32.55 L-233.8 -16.55 Q-247.4 4.55 -256.65 4.55 -258.85 4.55 -260.35 3.85 -276.1 23.55 -280.15 23.55 -284.1 23.55 -285.6 20.5 -286.4 18.9 -286.4 16.8 -286.4 12.0 -265.0 -15.95 L-240.65 -47.7 Q-232.2 -62.25 -225.2 -73.1 -241.35 -62.4 -242.65 -60.7 -251.95 -48.7 -269.45 -31.5 -287.85 -13.45 -291.65 -13.45 L-293.05 -13.5 Q-307.5 5.55 -311.15 5.55 -315.25 5.55 -316.7 2.5 -317.4 1.1 -317.4 -0.85 -317.4 -5.35 -296.0 -34.15 L-270.15 -68.7 -258.4 -85.5 -252.1 -94.3 Q-276.1 -76.85 -283.9 -68.95 -301.95 -50.0 -313.2 -38.65 -334.2 -17.45 -337.65 -17.45 L-338.2 -17.45 Q-343.65 -9.45 -344.15 -9.45 -348.25 -9.45 -349.7 -12.5 -350.4 -13.9 -350.4 -15.85 -350.4 -23.0 -332.7 -50.25 -318.85 -71.6 -313.15 -78.45 -306.85 -86.3 -296.0 -103.4 -308.55 -93.65 -316.9 -85.7 -333.45 -69.15 -344.5 -58.5 -364.6 -39.2 -368.85 -38.45 -376.15 -27.45 -377.15 -27.45 -381.65 -27.45 -382.95 -31.25 -383.4 -32.55 -383.4 -35.7 -383.4 -47.75 -366.2 -71.45 -360.3 -79.55 -353.5 -87.45 -348.0 -93.9 -345.9 -95.7 -339.95 -100.95 -330.0 -113.65 L-326.65 -117.9 Q-340.7 -105.6 -345.9 -99.2 -354.85 -88.0 -371.05 -72.7 -389.3 -55.45 -394.15 -55.45 L-394.7 -55.45 -396.0 -52.9 Q-402.65 -40.45 -407.65 -40.45 -412.05 -40.45 -413.65 -43.45 -414.4 -44.9 -414.4 -46.85 -414.4 -50.2 -399.65 -72.6 -384.35 -95.75 -367.15 -118.05 -352.15 -137.45 -341.55 -148.45 L-348.6 -142.25 Q-369.1 -124.25 -377.15 -116.2 L-399.95 -91.7 Q-409.7 -81.3 -414.9 -76.85 -414.95 -74.5 -416.2 -72.2 -418.15 -68.45 -422.15 -68.45 L-424.25 -68.65 -426.9 -64.55 Q-437.9 -47.45 -442.15 -47.45 -446.55 -47.45 -447.9 -50.85 -448.6 -52.6 -448.4 -54.6 -448.4 -62.05 -425.4 -92.1 -413.8 -107.25 -401.15 -122.45 L-386.85 -139.45 Q-378.05 -149.65 -377.15 -156.2 -376.9 -158.05 -374.2 -163.3 -394.85 -152.0 -412.65 -133.2 -414.85 -130.9 -421.35 -121.85 L-433.85 -104.8 Q-450.8 -82.45 -457.65 -82.45 L-458.45 -82.45 Q-475.25 -60.45 -477.15 -60.45 -481.55 -60.45 -482.9 -63.85 -483.6 -65.6 -483.4 -67.6 -483.4 -75.45 -461.5 -104.45 -450.45 -119.1 -438.15 -133.95 -416.1 -164.7 -406.4 -176.35 L-407.95 -175.25 Q-431.85 -158.45 -451.4 -136.45 -468.75 -116.2 -479.8 -104.4 -500.3 -82.45 -506.15 -82.45 -509.2 -82.45 -511.15 -83.3 -516.7 -75.45 -517.15 -75.45 -522.0 -75.45 -523.7 -78.5 -524.5 -80.05 -524.4 -81.85 -524.4 -84.85 -512.45 -104.3 -500.05 -124.45 -486.15 -143.6 -472.45 -162.4 -463.3 -171.75 L-463.4 -174.35 Q-463.4 -184.4 -452.35 -196.35 -444.05 -205.3 -428.15 -216.7 -423.55 -219.95 -415.75 -229.05 -410.5 -235.1 -403.65 -236.45 -380.2 -241.05 -361.4 -237.65 -340.9 -232.4 -326.15 -230.95 -264.15 -225.7 -199.7 -210.2 -179.6 -205.4 -154.05 -198.25 L-121.3 -189.2 Q-50.05 -171.1 34.2 -138.95 41.8 -136.05 51.55 -133.55 L68.1 -129.5 Q88.3 -124.3 104.2 -114.95 113.35 -109.6 135.3 -94.5 137.4 -97.05 141.9 -96.75 M42.7 69.15 L45.65 66.75 45.35 66.6 42.7 69.15" fill="#996633" fill-rule="evenodd" stroke="none"/>
    <path d="M-385.25 -139.0 Q-392.9 -129.25 -408.85 -110.1 -422.7 -93.0 -430.35 -80.8 -440.6 -64.5 -444.95 -49.6 -432.75 -60.65 -416.95 -77.4 L-390.1 -106.3 Q-357.0 -141.4 -330.8 -158.55 -344.8 -140.15 -373.4 -103.9 -397.6 -71.65 -411.2 -44.4 -396.45 -53.2 -381.15 -66.9 -370.95 -75.95 -354.65 -92.9 -336.0 -112.25 -328.55 -119.35 -313.4 -133.7 -299.65 -143.0 -307.15 -130.85 -321.4 -115.35 L-346.25 -89.05 Q-360.4 -73.55 -367.9 -61.15 -377.65 -45.1 -380.1 -28.85 -368.0 -38.5 -352.05 -54.1 L-324.45 -81.55 Q-290.45 -115.25 -268.55 -127.4 -276.0 -115.2 -289.25 -98.75 L-312.35 -70.7 Q-325.55 -54.25 -333.0 -41.8 -342.6 -25.7 -346.35 -10.7 -333.65 -20.75 -317.5 -37.05 L-289.7 -66.25 Q-273.15 -83.6 -261.65 -93.55 -246.1 -107.1 -232.2 -114.45 -267.55 -68.9 -275.6 -57.95 -299.55 -25.4 -315.25 2.3 -299.75 -6.6 -282.75 -21.7 -271.6 -31.6 -253.25 -50.5 -233.1 -71.25 -224.9 -78.8 -209.1 -93.5 -195.9 -101.45 -222.25 -69.1 -241.85 -42.35 -265.6 -9.95 -284.1 20.45 -268.75 14.15 -252.15 -4.95 L-238.6 -21.2 Q-230.5 -30.9 -224.45 -36.6 L-209.2 -51.25 Q-200.0 -60.05 -193.5 -65.55 -175.1 -81.05 -159.6 -85.9 -168.15 -74.45 -183.25 -56.4 L-207.3 -27.25 Q-235.05 7.85 -247.8 38.6 -226.15 23.05 -199.3 -0.6 -183.1 -14.85 -154.4 -41.8 -151.9 -44.1 -147.75 -49.5 L-140.95 -57.8 Q-132.35 -67.0 -123.25 -65.15 -131.2 -52.4 -143.95 -36.55 L-166.2 -9.5 Q-193.3 23.9 -203.7 51.6 -190.9 43.7 -175.2 29.05 -169.1 23.35 -147.1 1.15 -129.3 -16.8 -117.45 -26.8 -100.3 -41.3 -84.35 -49.6 -91.55 -33.15 -104.6 -16.7 -112.45 -6.8 -129.75 11.35 -147.05 29.45 -154.9 39.35 -168.0 55.85 -175.15 72.35 -160.5 63.2 -143.6 48.0 -134.3 39.65 -114.25 19.75 -95.75 1.3 -85.55 -7.55 -69.55 -21.4 -55.8 -28.85 -58.1 -14.2 -69.0 1.9 -75.1 10.85 -91.65 30.0 -107.25 48.05 -113.85 58.5 -124.25 75.0 -125.85 90.5 -112.6 80.2 -96.55 65.35 L-68.6 38.8 Q-33.5 5.3 -9.1 -10.7 -16.65 0.55 -30.0 16.5 L-52.8 43.55 Q-79.9 76.6 -86.95 100.85 -77.45 91.95 -60.15 74.4 -40.95 55.0 -32.55 46.95 0.5 15.15 24.6 2.3 17.3 16.2 4.25 33.25 L-19.4 62.7 Q-33.55 80.3 -41.15 92.4 -51.55 109.0 -55.8 124.2 -46.8 116.15 -25.95 98.35 -6.6 81.85 3.85 72.35 9.3 67.35 17.65 57.85 27.95 46.1 31.4 42.5 48.5 24.85 66.1 20.45 57.8 32.75 43.0 50.0 L17.85 79.2 Q3.65 96.2 -4.65 109.5 -15.15 126.45 -19.5 142.4 -7.95 129.6 10.3 113.4 L42.75 85.3 Q47.8 80.9 57.8 70.75 67.85 60.5 73.25 55.8 92.1 39.3 110.2 38.6 100.4 51.0 83.85 68.7 L56.7 97.95 Q24.9 133.55 11.65 165.75 24.65 156.65 43.4 139.9 L77.05 109.2 Q120.25 69.9 146.55 56.75 130.0 78.7 95.4 121.05 65.05 159.45 47.95 189.1 63.4 179.45 80.85 162.85 89.7 154.4 110.85 132.0 129.5 112.2 140.55 102.45 157.3 87.6 172.5 80.1 167.8 94.15 155.05 111.75 147.55 122.05 130.95 142.4 122.95 152.65 106.1 172.7 91.65 190.65 84.25 204.65 100.0 195.75 118.0 180.55 128.15 171.95 149.15 152.15 169.0 133.45 179.65 124.7 196.7 110.75 211.4 103.45 203.1 116.05 187.5 132.2 L160.5 159.55 Q145.1 175.65 136.85 188.7 126.15 205.5 123.2 222.8 136.4 212.7 154.5 196.95 L185.75 169.3 Q224.25 135.45 247.7 121.65 249.2 129.9 242.45 139.9 240.5 142.8 229.55 155.35 216.2 170.7 187.95 200.5 163.75 227.3 151.7 248.75 169.7 238.35 189.55 222.35 200.8 213.3 224.05 192.65 246.2 172.9 258.7 163.1 278.55 147.4 297.0 137.2 288.65 154.05 273.3 172.6 264.75 182.95 244.3 204.45 225.15 224.55 216.3 235.75 202.35 253.45 195.8 269.5 221.6 252.4 262.6 216.95 307.7 177.9 328.15 163.15 318.35 178.1 303.85 195.95 L277.75 226.9 Q244.45 266.15 229.55 292.85 247.3 282.7 268.0 267.0 281.6 256.65 304.5 237.45 329.9 216.2 339.9 208.35 359.4 193.05 374.8 183.9 364.5 201.75 349.0 220.35 338.05 233.4 319.2 252.8 294.5 278.25 288.7 284.55 271.85 302.9 260.7 318.8 293.8 302.2 341.35 265.85 L379.25 236.95 Q401.1 220.75 418.9 209.85 412.2 230.1 394.1 249.85 L377.95 266.15 Q367.05 276.75 361.85 282.45 356.95 289.55 346.9 299.4 L329.95 316.05 Q320.55 325.85 315.95 334.1 310.1 344.5 309.95 355.1 358.35 318.05 387.5 294.2 429.75 259.65 463.05 228.0 L484.9 207.15 Q495.3 196.45 499.1 188.1 503.7 177.95 501.05 166.95 498.2 154.95 486.35 139.8 467.35 115.45 422.5 81.75 407.35 70.4 382.75 53.15 L343.7 25.65 Q235.15 -52.25 91.65 -112.7 -52.3 -173.35 -198.5 -202.65 L-248.7 -213.7 Q-282.9 -221.45 -303.75 -225.3 -370.2 -237.55 -408.6 -231.2 -445.3 -196.4 -471.35 -161.65 -501.2 -121.8 -520.15 -78.15 -503.85 -86.75 -486.95 -103.35 -477.45 -112.65 -458.35 -134.95 -440.4 -155.85 -430.15 -165.4 -413.95 -180.5 -398.25 -187.1 -411.8 -166.9 -441.0 -128.65 -466.3 -93.7 -478.65 -65.15 -465.0 -74.25 -449.85 -91.6 L-424.3 -123.0 Q-409.05 -141.65 -397.4 -151.4 -381.5 -164.65 -364.5 -168.9 -372.0 -155.75 -385.25 -139.0 M-377.5 -158.55 Q-393.5 -150.5 -408.15 -134.75 -416.2 -126.1 -432.3 -104.4 -447.3 -84.25 -456.95 -74.6 -472.0 -59.5 -489.05 -52.2 -481.95 -77.6 -465.85 -102.9 -457.7 -115.7 -434.55 -145.55 -444.5 -140.85 -455.75 -128.75 -462.35 -121.65 -475.5 -105.45 -487.85 -91.05 -498.15 -83.45 -512.15 -73.1 -527.95 -70.35 -512.75 -118.05 -476.85 -164.3 -462.5 -182.75 -442.6 -204.05 -430.65 -216.85 -406.05 -241.55 -228.1 -225.65 -70.5 -178.2 79.85 -132.95 216.6 -57.35 250.5 -38.6 289.05 -13.75 317.6 4.65 359.25 33.4 L395.4 58.15 Q416.6 72.7 430.5 83.0 469.0 111.45 488.95 134.6 496.75 143.7 504.35 157.85 513.0 173.95 512.3 181.3 511.35 191.45 493.9 208.05 484.3 217.25 465.6 233.2 425.0 272.15 386.9 302.7 344.85 336.4 302.2 362.9 300.95 342.7 316.6 321.1 322.1 313.5 331.35 303.55 L346.3 287.65 Q355.7 277.3 377.95 256.25 398.95 236.45 408.55 225.4 392.35 233.2 370.7 249.7 358.15 259.3 332.45 280.3 309.1 298.75 292.0 308.75 269.0 322.15 247.7 326.55 256.65 311.5 270.1 295.8 279.5 284.8 295.8 268.3 L322.1 241.4 Q336.6 225.9 346.3 212.4 331.6 220.65 314.75 234.7 305.0 242.9 286.1 259.9 269.0 274.85 255.75 283.4 237.95 294.95 219.15 300.65 228.25 277.95 250.65 250.4 L269.2 228.1 Q279.9 214.95 286.6 204.65 275.2 211.6 261.7 223.85 L238.95 245.15 Q225.45 257.4 214.05 264.4 199.25 273.5 182.85 277.3 190.05 260.15 202.1 243.35 211.4 230.45 226.25 214.3 L252.0 186.9 Q266.95 170.75 276.25 157.95 262.0 165.3 244.85 180.15 L214.4 208.3 Q195.4 226.05 181.8 235.9 162.7 249.75 143.95 256.5 150.0 239.6 160.8 223.45 169.25 210.85 182.95 195.65 L206.95 169.75 Q221.05 154.4 229.55 142.4 216.95 148.8 201.65 162.25 L174.4 187.8 Q157.4 203.75 144.9 212.65 127.55 225.0 110.2 230.6 114.95 207.15 131.3 185.5 136.85 178.2 146.45 167.6 L162.1 150.15 Q151.15 155.8 139.6 165.95 136.6 168.65 120.05 184.7 108.25 196.15 99.5 202.35 87.2 211.0 73.9 215.0 86.35 185.55 113.25 151.9 L136.55 124.0 Q151.2 106.65 159.5 95.7 146.35 103.6 130.65 118.45 123.3 125.4 102.6 147.1 84.65 165.85 73.2 175.95 56.15 190.95 40.15 199.45 49.15 169.6 73.0 138.9 79.65 130.35 94.25 113.45 108.5 96.9 115.4 87.9 103.25 94.3 88.6 106.9 81.5 113.0 62.25 131.4 45.25 147.55 34.55 156.15 18.55 169.0 3.85 176.1 7.2 158.4 17.45 140.65 25.8 126.2 40.25 109.35 46.65 101.9 66.9 80.35 83.55 62.6 92.05 51.6 78.6 58.9 62.6 73.15 55.45 79.55 34.1 100.6 15.9 118.55 4.05 128.2 -13.4 142.45 -29.85 150.15 -23.5 123.35 -1.9 96.4 1.55 92.05 16.9 74.35 28.5 60.9 35.0 51.6 24.75 57.85 11.6 70.1 L-12.15 93.3 Q-27.0 107.95 -37.6 116.4 -52.3 128.2 -66.2 134.6 -59.65 106.75 -36.55 77.35 L-16.95 53.5 Q-5.45 39.3 1.25 28.25 -9.7 33.45 -22.3 45.3 -27.45 50.1 -44.75 68.5 -59.0 83.65 -68.8 91.65 -83.05 103.35 -97.3 108.65 -92.5 86.8 -76.7 65.7 -71.9 59.2 -62.45 48.2 -52.25 36.3 -48.05 30.85 -56.7 35.5 -67.85 45.8 -74.4 51.9 -87.9 65.55 -100.45 77.85 -110.1 84.8 -123.2 94.25 -136.25 98.3 -132.55 81.15 -123.85 65.3 -117.1 53.05 -105.35 38.35 L-84.85 13.5 Q-73.0 -1.2 -66.2 -13.25 -79.8 -6.75 -95.1 7.55 -100.95 13.05 -122.0 35.35 -138.95 53.3 -150.85 62.85 -168.0 76.55 -185.5 82.7 -175.25 54.15 -147.9 23.05 L-124.7 -2.4 Q-110.8 -17.6 -102.5 -28.85 -114.85 -22.6 -129.15 -9.65 -136.65 -2.85 -154.6 15.7 -171.15 32.8 -181.3 41.45 -196.85 54.85 -211.45 61.95 -210.6 48.75 -203.95 35.3 -198.75 24.8 -188.55 11.6 L-170.3 -10.9 Q-159.75 -24.2 -154.4 -34.05 -166.45 -26.7 -179.6 -13.85 -187.25 -6.35 -201.85 9.35 -215.15 23.15 -225.65 30.9 -239.9 41.4 -255.55 46.4 -249.6 20.7 -229.45 -6.65 -205.85 -35.75 -195.9 -52.2 -207.9 -45.25 -220.1 -32.3 L-240.55 -8.65 Q-252.85 5.65 -262.65 13.35 -276.2 23.95 -291.9 28.25 -285.8 7.75 -268.7 -14.75 -248.75 -38.9 -240.0 -52.2 -249.3 -48.75 -259.7 -39.05 -263.8 -35.2 -278.1 -19.6 -289.9 -6.85 -298.25 -0.3 -310.4 9.25 -323.0 12.65 -317.15 -9.7 -300.05 -34.4 -279.9 -61.0 -271.15 -75.55 -280.05 -70.25 -290.7 -59.05 -295.2 -54.35 -309.95 -37.15 -322.25 -22.8 -330.5 -15.0 -342.55 -3.6 -354.15 2.3 -357.0 -9.95 -352.15 -22.85 -348.3 -33.15 -338.55 -45.8 L-320.4 -67.4 Q-309.5 -80.2 -304.85 -88.5 -313.35 -84.25 -324.9 -73.0 -331.7 -66.45 -345.75 -51.6 -358.65 -38.45 -368.2 -31.75 -381.1 -22.7 -393.05 -21.05 -390.65 -35.9 -383.25 -48.85 -377.55 -58.85 -367.1 -70.35 -371.9 -68.85 -378.05 -62.7 L-389.5 -50.55 Q-405.35 -34.25 -421.6 -34.05 -416.3 -50.9 -404.15 -69.75 -389.6 -90.65 -382.7 -101.45 -392.05 -96.7 -401.0 -87.35 -404.4 -83.8 -415.85 -69.8 -424.85 -58.75 -431.6 -53.15 -441.35 -45.05 -452.7 -41.8 -447.4 -70.05 -422.0 -103.8 -414.55 -113.65 -399.4 -131.7 -384.05 -149.9 -377.5 -158.55" fill="#373535" fill-rule="evenodd" stroke="none"/>
  </g>
</svg>
