<?xml version="1.0" encoding="UTF-8" standalone="no"?>
<svg xmlns:xlink="http://www.w3.org/1999/xlink" height="1528.1px" width="825.05px" xmlns="http://www.w3.org/2000/svg">
  <g transform="matrix(1, 0, 0, 1, 412.5, 764.05)">
    <path d="M-4.6 -508.0 L12.8 -510.8 62.4 -510.8 Q155.1 -509.75 188.5 -474.25 201.0 -461.0 205.5 -442.5 208.4 -430.6 208.4 -412.4 208.4 -379.7 188.65 -354.1 177.05 -339.1 159.65 -328.4 145.9 -327.9 134.45 -322.1 125.45 -317.55 123.4 -312.55 115.65 -310.25 107.2 -308.4 L54.4 -308.4 Q20.2 -324.35 -3.45 -341.5 -21.8 -354.8 -29.15 -365.9 L-28.8 -366.85 Q-28.1 -369.25 -28.15 -372.5 L-28.4 -376.4 Q-28.4 -382.7 -31.4 -389.9 L-31.65 -390.5 -31.6 -390.7 -29.2 -401.8 -29.7 -408.2 Q-28.4 -410.55 -28.4 -411.2 -28.4 -414.7 -30.7 -419.85 L-30.8 -421.15 Q-32.4 -439.95 -32.4 -449.2 -32.4 -463.15 -35.6 -475.8 L-37.4 -483.55 -38.2 -499.45 Q-37.6 -501.7 -36.4 -502.95 -14.9 -500.25 -7.75 -505.05 -6.25 -506.05 -4.6 -508.0 M341.75 -50.35 Q344.95 -47.8 348.0 -44.0 352.8 -35.05 360.5 -24.5 L372.85 -7.85 Q379.3 1.25 382.25 8.25 386.0 17.1 386.0 26.2 386.0 37.15 383.7 43.65 379.15 56.4 366.4 56.4 359.55 56.4 355.45 51.0 352.35 46.95 350.1 38.45 L346.45 24.15 Q344.15 16.5 340.8 13.6 339.3 15.4 337.7 23.15 L334.45 38.15 Q329.15 58.0 317.6 58.0 303.95 58.0 294.45 27.95 289.65 12.85 287.6 -2.6 287.6 -10.25 292.8 -22.25 298.45 -35.25 306.55 -44.2 310.7 -48.8 314.9 -51.6 L324.0 -51.6 Q335.2 -47.05 341.75 -50.35 M-260.8 -92.35 Q-263.35 -90.1 -266.8 -88.45 -282.2 -81.2 -322.4 -81.2 -336.2 -81.2 -348.5 -86.9 -353.8 -89.4 -362.0 -95.2 -364.3 -93.9 -368.55 -88.45 -371.7 -84.4 -376.0 -84.4 -381.05 -84.4 -384.95 -94.55 -391.7 -96.6 -393.6 -106.0 -394.85 -112.1 -394.0 -119.2 -394.0 -124.8 -392.4 -130.85 -393.5 -139.8 -394.0 -148.6 -394.0 -156.6 -388.9 -163.75 -383.15 -171.95 -372.55 -176.1 -345.45 -186.7 -299.2 -167.6 -296.65 -165.05 -290.3 -161.9 -282.5 -158.2 -278.45 -156.1 -270.25 -151.85 -265.6 -147.2 -266.0 -145.05 -266.0 -142.2 -266.0 -138.05 -262.0 -128.6 -258.0 -119.15 -258.0 -111.0 -258.0 -103.35 -260.8 -92.35 M-132.0 522.95 Q-147.5 518.65 -152.95 485.15 -154.75 474.3 -156.25 453.65 -157.65 434.45 -158.8 428.8 -163.45 405.95 -165.9 381.2 -168.4 356.6 -168.4 334.0 -168.4 316.8 -165.6 303.2 -160.55 278.25 -158.8 265.6 -156.85 251.3 -134.8 247.2 -116.4 243.8 -87.5 247.85 -62.5 251.3 -41.25 258.35 -20.4 265.3 -20.4 269.8 -20.4 272.35 -24.15 283.45 -29.9 300.6 -32.4 309.1 -44.4 350.2 -44.4 386.8 -44.4 395.45 -36.4 442.15 -28.4 488.85 -28.4 496.0 -28.4 501.8 -28.55 502.9 -29.3 507.75 -32.75 511.25 -36.8 515.4 -44.65 517.95 L-47.1 517.2 Q-62.15 512.85 -84.8 513.6 -106.65 514.3 -122.45 519.2 -128.2 520.95 -132.0 522.95 M27.55 574.3 Q15.6 566.15 15.6 549.6 15.6 543.35 22.95 490.45 30.5 435.95 34.8 412.8 L34.8 296.4 Q36.75 285.7 42.8 279.2 53.25 267.75 75.2 268.4 L115.2 268.0 159.15 264.4 186.75 261.95 Q197.2 261.5 201.1 263.7 205.2 266.0 205.2 272.8 205.2 274.9 199.6 293.9 L186.6 337.3 Q166.7 404.75 162.0 433.6 158.65 454.0 154.35 496.3 150.95 530.05 147.2 544.4 141.65 565.5 129.9 575.15 116.75 586.0 92.0 586.0 L82.25 585.9 54.2 579.85 27.55 574.3" fill="#ffcccc" fill-rule="evenodd" stroke="none"/>
    <path d="M-29.15 -365.9 Q-31.7 -359.6 -40.8 -359.6 -44.0 -359.6 -53.95 -367.15 -64.15 -374.9 -75.5 -386.2 -104.85 -415.35 -112.8 -437.6 -116.75 -448.7 -118.55 -457.3 -120.8 -468.05 -120.4 -477.2 -119.6 -492.65 -124.65 -501.8 L-128.3 -508.1 Q-130.0 -511.6 -130.0 -515.6 -130.0 -517.6 -128.4 -521.0 -126.8 -524.4 -126.8 -526.4 -126.8 -528.4 -128.4 -536.9 -130.0 -545.4 -130.0 -547.4 -130.0 -559.05 -128.75 -564.05 -127.65 -568.55 -124.1 -572.8 L-114.45 -584.05 Q-106.7 -593.8 -98.4 -608.0 -96.2 -611.7 -88.55 -622.6 -81.95 -632.85 -81.6 -638.0 -81.2 -642.8 -82.45 -652.25 -82.35 -660.6 -75.2 -666.8 -67.45 -673.55 -45.8 -696.55 -28.8 -714.55 -14.55 -724.15 5.85 -738.0 34.5 -745.9 68.0 -755.2 117.6 -758.0 166.85 -751.65 188.8 -740.55 197.65 -736.1 206.1 -729.05 L221.6 -715.2 Q225.35 -711.9 231.55 -709.55 234.2 -708.5 243.0 -705.9 257.95 -701.45 263.2 -694.8 281.5 -671.25 285.2 -664.8 298.55 -641.35 306.6 -606.65 314.0 -574.5 314.0 -546.0 314.0 -543.3 309.0 -524.45 L304.0 -505.8 Q304.0 -504.2 308.2 -496.85 312.4 -489.5 312.4 -486.6 L310.8 -467.4 Q310.8 -461.15 305.35 -445.75 298.6 -426.8 288.4 -410.35 258.8 -362.8 216.8 -362.8 207.9 -362.8 206.1 -370.65 205.15 -374.65 206.0 -379.0 206.0 -381.15 211.6 -402.9 L217.2 -424.6 Q217.2 -444.7 195.15 -471.45 187.0 -481.4 178.2 -489.15 170.2 -496.2 166.8 -497.2 147.2 -500.6 111.6 -507.85 L72.0 -516.0 1.6 -515.6 Q-0.4 -514.05 -3.0 -510.15 L-4.6 -508.0 Q-6.25 -506.05 -7.75 -505.05 -14.9 -500.25 -36.4 -502.95 L-38.4 -503.2 -38.2 -499.45 -37.4 -483.55 -36.5 -464.8 -36.4 -435.6 Q-36.4 -431.0 -32.4 -423.4 L-30.7 -419.85 Q-28.4 -414.7 -28.4 -411.2 -28.4 -410.55 -29.7 -408.2 L-31.4 -405.35 Q-34.4 -400.45 -34.4 -398.0 -34.4 -397.15 -31.65 -390.5 L-31.4 -389.9 Q-28.4 -382.7 -28.4 -376.4 L-28.15 -372.5 Q-28.1 -369.25 -28.8 -366.85 L-29.15 -365.9 M164.4 -603.1 Q166.0 -600.0 166.0 -598.0 166.0 -597.15 163.6 -587.4 161.2 -577.65 161.2 -572.8 161.2 -565.3 162.85 -558.4 165.95 -545.2 173.6 -545.2 187.8 -545.2 193.35 -550.25 195.35 -552.1 197.1 -555.45 L200.15 -561.4 Q204.45 -568.95 213.85 -572.55 227.1 -577.6 254.4 -577.6 259.4 -577.6 265.6 -573.4 270.95 -569.75 275.45 -569.25 277.8 -567.6 281.6 -567.6 285.85 -567.6 288.85 -570.85 291.6 -573.85 291.6 -577.4 291.6 -582.3 288.5 -585.1 L288.1 -585.45 Q287.65 -590.75 286.4 -597.85 283.95 -611.85 283.2 -622.0 280.45 -630.2 273.45 -629.2 267.65 -628.4 259.65 -621.55 253.05 -615.85 247.15 -608.1 241.7 -600.95 241.2 -598.0 L222.4 -597.6 Q220.3 -597.6 199.85 -608.6 179.4 -619.6 174.4 -619.6 168.3 -619.6 165.3 -616.0 162.8 -613.0 162.8 -608.2 162.8 -606.2 164.4 -603.1" fill="#ffcc33" fill-rule="evenodd" stroke="none"/>
    <path d="M170.1 -327.75 Q177.1 -327.3 181.9 -323.75 176.7 -326.7 170.1 -327.75 M245.0 216.75 Q254.05 214.0 260.0 214.0 268.4 214.0 271.25 220.0 272.65 223.05 272.4 226.6 272.4 236.65 263.9 242.7 255.85 248.45 238.1 252.05 223.1 255.05 194.5 257.7 L132.8 262.8 24.0 262.8 Q-15.8 255.1 -60.5 248.65 -139.9 237.2 -188.8 237.2 -195.05 237.2 -216.5 222.8 L-234.75 210.3 Q-245.55 202.85 -251.6 199.2 -277.35 201.7 -284.65 194.2 -288.3 190.45 -286.8 186.2 -286.8 178.4 -282.75 175.7 -277.3 172.1 -265.2 178.4 L-253.55 180.6 Q-239.2 190.7 -206.0 199.15 -205.25 199.5 -204.65 199.8 -197.1 203.6 -191.2 205.2 -174.1 209.65 -153.95 213.3 -135.4 216.65 -119.6 218.4 -66.4 224.75 4.35 231.7 96.85 240.8 123.2 240.8 172.7 240.8 213.3 227.8 225.95 224.5 237.9 219.75 L245.0 216.75 M-43.2 -270.05 Q-43.65 -271.2 -43.75 -272.45 L-43.6 -275.2 Q-43.6 -279.4 -41.95 -282.15 -41.05 -283.6 -38.1 -286.45 -32.05 -292.3 -30.8 -301.6 -29.3 -303.6 -28.15 -307.65 L-26.1 -314.85 Q-23.0 -323.95 -14.4 -326.8 -3.6 -326.1 9.5 -321.65 33.25 -313.65 36.4 -312.8 44.8 -310.6 56.4 -287.2 56.4 -268.55 29.55 -227.55 20.5 -216.35 5.2 -194.2 L-4.1 -180.9 Q-13.8 -168.5 -23.85 -156.55 L-31.95 -147.0 Q-38.05 -141.65 -43.2 -139.65 -51.05 -143.25 -66.6 -162.6 L-67.0 -163.15 Q-84.4 -187.9 -84.4 -188.4 -84.4 -197.15 -53.2 -225.45 L-39.95 -237.25 Q-28.4 -245.65 -17.25 -252.5 -2.6 -261.6 2.8 -262.8 L3.2 -263.2 -8.3 -262.6 -19.2 -262.0 -25.95 -262.25 Q-27.6 -263.75 -29.85 -265.1 -35.5 -268.5 -43.2 -270.05 M87.7 -228.35 L87.6 -231.8 Q87.6 -234.25 88.65 -236.65 90.05 -240.0 92.8 -240.8 82.75 -244.25 74.55 -251.95 66.8 -259.25 66.8 -264.2 66.8 -270.8 84.2 -278.15 L97.2 -283.55 Q103.65 -286.5 105.2 -288.8 103.85 -295.2 104.4 -298.6 104.85 -301.9 107.3 -303.95 109.05 -305.45 114.0 -307.7 L123.25 -312.2 Q122.8 -310.9 122.8 -309.6 122.8 -298.8 133.6 -298.8 147.8 -298.8 157.3 -292.8 164.3 -288.35 169.85 -279.6 L173.75 -272.75 169.6 -270.8 170.9 -261.35 Q171.6 -255.9 171.6 -253.4 171.6 -243.5 162.0 -227.65 152.4 -213.5 152.4 -212.0 152.4 -209.8 154.8 -201.2 155.0 -189.45 159.4 -176.05 161.8 -168.7 162.95 -161.8 161.2 -159.15 158.15 -155.95 151.35 -148.85 140.8 -141.65 135.05 -137.7 129.7 -134.65 L119.4 -131.15 101.3 -124.5 98.4 -124.4 Q90.5 -124.4 86.9 -128.2 L88.45 -137.25 Q90.65 -151.15 92.1 -167.5 L92.4 -170.7 93.85 -174.0 Q95.6 -178.8 95.6 -185.0 95.6 -188.45 93.25 -198.5 92.75 -208.85 90.85 -217.6 89.55 -223.55 87.7 -228.35 M164.4 -603.1 Q162.8 -606.2 162.8 -608.2 162.8 -613.0 165.3 -616.0 168.3 -619.6 174.4 -619.6 179.4 -619.6 199.85 -608.6 220.3 -597.6 222.4 -597.6 L241.2 -598.0 Q241.7 -600.95 247.15 -608.1 253.05 -615.85 259.65 -621.55 267.65 -628.4 273.45 -629.2 280.45 -630.2 283.2 -622.0 283.95 -611.85 286.4 -597.85 287.65 -590.75 288.1 -585.45 L288.5 -585.1 Q291.6 -582.3 291.6 -577.4 291.6 -573.85 288.85 -570.85 285.85 -567.6 281.6 -567.6 277.8 -567.6 275.45 -569.25 270.95 -569.75 265.6 -573.4 259.4 -577.6 254.4 -577.6 227.1 -577.6 213.85 -572.55 204.45 -568.95 200.15 -561.4 L197.1 -555.45 Q195.35 -552.1 193.35 -550.25 187.8 -545.2 173.6 -545.2 165.95 -545.2 162.85 -558.4 161.2 -565.3 161.2 -572.8 161.2 -577.65 163.6 -587.4 166.0 -597.15 166.0 -598.0 166.0 -600.0 164.4 -603.1 M-28.4 587.25 Q-25.35 586.8 -22.8 587.95 -20.1 589.15 -18.55 591.95 -17.2 594.4 -17.2 597.0 -17.2 597.9 -19.35 608.05 -21.65 618.6 -22.0 624.0 -22.1 625.45 -21.3 631.45 -20.75 635.7 -22.2 637.95 -26.35 644.35 -53.6 646.0 -59.4 653.55 -70.8 659.75 -85.35 667.6 -100.8 667.6 L-101.0 667.6 Q-104.5 673.1 -127.2 678.45 -136.55 680.6 -146.9 682.2 L-158.4 683.6 Q-197.05 683.6 -210.4 670.85 -215.35 666.1 -217.0 659.4 -218.0 655.4 -218.0 648.6 -218.0 644.5 -213.15 637.4 -207.75 629.5 -200.1 624.2 -187.2 615.2 -174.35 617.85 -173.65 615.45 -171.65 613.65 -169.5 611.65 -166.6 611.05 L-164.0 610.8 Q-157.3 610.8 -154.2 613.65 L-151.5 616.7 Q-149.65 618.95 -148.0 620.4 -144.85 623.15 -137.75 623.95 -130.85 624.75 -128.4 627.2 -124.6 631.0 -112.95 639.4 -111.75 640.25 -110.65 641.05 -102.0 647.2 -101.4 647.2 -92.85 647.2 -85.2 636.85 -82.4 632.95 -80.5 628.7 -78.8 624.9 -78.8 623.0 -78.8 619.55 -83.6 611.1 -88.4 602.65 -88.4 598.4 -88.4 593.85 -85.25 591.25 -83.45 589.75 -80.75 589.05 L-75.2 588.4 Q-67.5 588.4 -62.95 591.4 L-62.35 591.8 -59.85 593.45 Q-58.15 594.4 -56.0 594.4 L-41.6 594.0 -38.65 591.85 Q-32.95 587.85 -28.4 587.25 M0.0 696.05 L3.2 697.25 Q20.25 704.2 36.5 718.35 51.6 731.55 51.6 737.4 51.6 747.7 38.75 752.75 23.4 758.8 -12.8 758.8 -35.0 758.8 -42.05 749.65 -44.45 746.5 -45.05 742.35 L-45.2 737.0 Q-45.2 705.1 -30.05 696.1 -20.8 690.55 -6.75 693.95 -3.5 694.75 0.0 696.05 M60.85 673.4 L59.8 671.9 Q52.0 661.5 33.5 658.2 L23.2 658.2 17.6 659.1 16.45 661.45 Q15.6 662.9 14.0 662.9 12.4 662.9 11.8 661.7 11.5 661.15 11.5 660.35 11.5 657.0 14.15 653.2 17.15 648.8 21.2 648.3 L32.0 648.3 Q36.05 650.05 53.9 656.5 69.8 663.0 69.9 667.8 76.5 668.95 80.05 672.8 L82.85 676.3 Q84.6 678.55 86.2 679.9 93.5 686.15 99.2 687.0 100.95 687.25 101.25 687.75 101.7 688.4 101.7 691.3 101.7 694.65 100.25 700.65 98.15 709.35 94.1 716.5 81.9 738.1 56.8 738.1 52.9 738.1 51.85 736.9 51.5 736.55 51.5 735.4 51.5 734.0 54.5 730.1 L61.1 721.6 Q70.7 708.35 70.7 697.3 L70.7 697.25 Q70.7 696.7 70.1 694.9 L69.5 692.5 Q69.5 691.8 69.85 690.9 L70.25 689.8 70.6 688.9 69.9 688.1 Q67.6 685.45 65.05 680.75 L60.85 673.4 M75.1 702.0 Q74.15 702.4 73.7 704.15 73.3 705.6 73.3 707.5 L73.3 707.6 Q74.1 706.7 74.65 704.85 L75.1 702.0 M71.7 712.8 Q72.25 712.2 72.7 710.7 73.15 709.2 72.9 708.7 L72.9 708.8 71.7 712.7 71.7 712.8" fill="#ff0000" fill-rule="evenodd" stroke="none"/>
    <path d="M-44.65 517.95 Q-30.0 522.85 -30.0 532.0 -30.0 532.5 -32.4 536.2 -34.8 539.9 -34.8 541.6 -34.8 542.3 -30.8 554.45 -26.8 566.6 -26.8 574.6 L-26.45 580.25 Q-26.4 583.8 -27.6 586.05 L-28.4 587.25 Q-32.95 587.85 -38.65 591.85 L-47.2 592.4 -62.35 591.8 -62.95 591.4 Q-67.5 588.4 -75.2 588.4 L-80.75 589.05 Q-105.9 583.45 -121.6 568.5 -130.95 559.6 -135.75 548.45 -139.6 539.45 -139.6 531.8 -139.6 526.9 -132.0 522.95 -128.2 520.95 -122.45 519.2 -106.65 514.3 -84.8 513.6 -62.15 512.85 -47.1 517.2 L-44.65 517.95 M-166.6 611.05 L-166.8 610.4 Q-166.8 608.65 -162.0 604.95 -157.35 601.35 -150.4 597.6 -133.3 588.4 -123.2 588.4 -103.4 588.4 -91.2 605.65 -87.25 611.2 -84.7 617.85 -82.8 622.75 -82.8 624.2 -82.8 629.85 -88.45 635.65 -94.7 642.0 -102.4 642.0 L-110.65 641.05 Q-111.75 640.25 -112.95 639.4 -124.6 631.0 -128.4 627.2 -130.85 624.75 -137.75 623.95 -144.85 623.15 -148.0 620.4 -149.65 618.95 -151.5 616.7 L-154.2 613.65 Q-157.3 610.8 -164.0 610.8 L-166.6 611.05 M-6.75 693.95 Q-8.4 692.1 -8.4 688.2 -8.4 674.5 4.0 667.15 15.2 660.55 31.2 661.7 47.35 662.9 58.45 671.4 L60.85 673.4 65.05 680.75 Q67.6 685.45 69.9 688.1 L70.25 689.8 69.85 690.9 Q69.5 691.8 69.5 692.5 L70.1 694.9 Q70.7 696.7 70.7 697.25 70.1 701.8 66.05 709.6 60.4 720.4 54.4 720.4 41.15 720.4 30.1 712.4 26.55 709.8 23.2 706.3 L19.6 702.4 Q15.45 698.25 9.9 696.9 L0.9 696.05 0.0 696.05 Q-3.5 694.75 -6.75 693.95 M82.25 585.9 L88.8 587.2 Q111.2 591.65 116.5 594.65 118.45 595.75 118.7 597.0 L118.8 599.2 Q119.8 603.5 122.75 607.25 125.2 610.35 125.2 613.0 125.2 614.15 120.25 626.45 114.85 639.65 113.6 648.4 113.35 650.0 114.05 656.25 114.85 663.2 114.7 666.95 114.05 680.4 102.4 680.4 101.7 680.4 84.95 668.65 66.8 655.85 60.0 652.8 53.35 649.75 43.35 647.9 L27.45 645.35 Q19.2 643.85 15.5 641.4 10.8 638.25 10.8 632.2 10.8 621.3 17.4 594.7 24.0 567.9 25.6 574.0 L27.55 574.3 54.2 579.85 82.25 585.9" fill="#ffffff" fill-rule="evenodd" stroke="none"/>
    <path d="M159.65 -328.4 L160.0 -328.4 170.1 -327.75 Q176.7 -326.7 181.9 -323.75 L185.6 -321.35 Q197.2 -312.4 197.2 -293.8 197.2 -292.4 196.35 -289.6 199.8 -290.15 204.15 -288.9 215.8 -285.6 232.95 -270.25 246.0 -258.55 259.3 -242.85 266.0 -234.9 268.8 -230.95 271.3 -228.6 274.0 -224.4 275.4 -221.55 282.75 -214.4 289.4 -207.95 291.2 -202.0 293.55 -193.95 297.15 -178.35 L302.8 -154.0 Q306.2 -140.4 327.55 -100.2 L341.45 -73.75 Q347.6 -61.6 347.6 -59.0 347.6 -54.05 342.8 -50.95 L341.75 -50.35 Q335.2 -47.05 324.0 -51.6 L314.9 -51.6 312.0 -51.6 Q298.35 -43.85 292.75 -34.35 288.75 -27.55 287.9 -17.0 286.65 -1.95 286.2 0.1 284.0 9.75 276.4 16.8 274.5 18.6 272.0 18.4 L267.4 17.2 Q261.05 15.45 256.4 21.2 L252.7 25.1 Q250.0 28.1 250.0 29.6 249.9 32.45 249.95 37.55 L250.0 46.4 250.35 51.45 250.4 54.85 252.2 57.8 Q256.1 64.5 258.0 71.6 265.5 94.1 266.0 110.0 266.45 120.9 271.2 148.4 275.6 174.15 275.6 187.4 275.6 196.0 265.15 204.65 257.4 211.1 245.0 216.75 L237.9 219.75 Q225.95 224.5 213.3 227.8 186.7 234.8 156.8 235.6 L80.0 235.6 Q68.9 234.25 61.15 232.6 55.3 231.4 49.6 229.6 L8.0 229.2 Q2.75 228.1 -14.55 225.75 L-32.0 223.2 -75.2 222.8 Q-85.0 220.45 -122.5 214.7 -163.45 208.35 -185.55 203.8 L-206.0 199.15 Q-239.2 190.7 -253.55 180.6 -261.35 175.15 -263.5 169.2 -266.5 168.0 -268.0 165.3 -269.2 163.05 -269.2 159.8 -269.2 153.6 -261.4 144.75 L-254.95 137.35 Q-251.35 132.9 -249.6 129.2 -247.3 124.15 -244.45 112.85 -242.1 103.4 -239.2 99.2 -234.25 92.0 -231.3 82.2 -227.85 70.5 -227.2 69.2 -224.6 64.05 -217.25 54.75 -210.75 46.4 -208.4 40.4 -204.55 30.6 -197.7 11.15 L-187.2 -18.4 -180.8 -33.3 Q-176.25 -43.7 -175.2 -48.4 L-174.95 -49.25 Q-181.55 -49.75 -195.6 -52.6 L-219.2 -57.2 Q-256.9 -62.65 -262.6 -64.05 -266.4 -65.05 -267.25 -66.15 -267.6 -66.7 -267.6 -69.0 L-262.8 -85.25 Q-261.65 -88.95 -260.8 -92.35 -258.0 -103.35 -258.0 -111.0 -258.0 -119.15 -262.0 -128.6 -266.0 -138.05 -266.0 -142.2 -266.0 -145.05 -265.6 -147.2 -264.75 -152.55 -261.6 -153.6 -259.2 -154.4 -256.15 -152.5 -247.4 -156.65 -227.05 -162.7 L-200.85 -170.25 Q-187.85 -174.0 -185.6 -175.2 -181.65 -177.25 -165.6 -192.85 -148.35 -209.55 -143.2 -213.2 -134.9 -218.95 -120.8 -233.65 -103.5 -251.75 -99.6 -255.2 -88.9 -264.8 -74.65 -268.8 -62.2 -272.3 -49.4 -271.0 L-43.2 -270.05 Q-35.5 -268.5 -29.85 -265.1 -27.6 -263.75 -25.95 -262.25 -22.0 -258.65 -22.0 -254.4 -22.0 -253.2 -31.75 -244.5 L-39.95 -237.25 -53.2 -225.45 Q-84.4 -197.15 -84.4 -188.4 -84.4 -187.9 -67.0 -163.15 L-66.6 -162.6 Q-49.65 -138.4 -49.2 -138.4 -46.4 -138.4 -43.2 -139.65 -38.05 -141.65 -31.95 -147.0 -27.85 -150.65 -23.3 -155.85 -16.5 -163.55 -4.1 -180.9 L5.2 -194.2 Q20.5 -216.35 29.55 -227.55 L33.75 -232.55 Q49.2 -250.0 60.0 -250.0 79.4 -250.0 87.7 -228.35 89.55 -223.55 90.85 -217.6 92.75 -208.85 93.25 -198.5 L93.35 -195.15 93.2 -184.6 Q93.2 -180.75 92.4 -170.7 L92.1 -167.5 Q90.65 -151.15 88.45 -137.25 L86.9 -128.2 84.4 -116.7 88.75 -119.05 Q93.7 -121.55 101.3 -124.5 L119.4 -131.15 129.7 -134.65 150.05 -141.65 Q164.0 -146.9 164.0 -149.6 164.0 -155.5 162.95 -161.8 161.8 -168.7 159.4 -176.05 155.0 -189.45 154.8 -201.2 L154.8 -202.4 Q154.8 -204.75 167.15 -232.7 175.35 -251.15 180.15 -263.55 178.85 -264.75 177.7 -266.4 L173.75 -272.75 169.85 -279.6 Q164.3 -288.35 157.3 -292.8 147.8 -298.8 133.6 -298.8 122.8 -298.8 122.8 -309.6 122.8 -310.9 123.25 -312.2 L123.4 -312.55 Q125.45 -317.55 134.45 -322.1 145.9 -327.9 159.65 -328.4" fill="#ffccff" fill-rule="evenodd" stroke="none"/>
    <path d="M2.3 -448.75 L19.85 -448.1 Q37.8 -445.2 34.75 -426.75 27.9 -432.95 24.0 -431.25 19.95 -429.45 20.25 -419.45 16.2 -421.15 7.1 -422.7 -2.6 -424.3 -6.3 -425.6 -13.05 -428.0 -15.55 -432.7 -18.55 -438.45 -16.1 -448.5 -12.45 -448.35 2.3 -448.75" fill="#373535" fill-rule="evenodd" stroke="none"/>
    <path d="M129.45 -448.75 Q138.45 -448.95 143.85 -448.6 159.55 -447.65 165.55 -441.25 159.15 -439.7 153.75 -434.9 151.4 -432.8 145.1 -425.35 139.9 -419.25 135.8 -416.5 129.8 -412.55 121.95 -412.2 L115.2 -421.9 Q112.1 -426.05 111.3 -428.25 110.2 -431.3 110.9 -435.6 111.65 -439.9 114.7 -448.5 L129.45 -448.75" fill="#373535" fill-rule="evenodd" stroke="none"/>
    <path d="M260.0 110.85 Q267.85 122.8 269.1 157.55 269.6 170.5 268.95 182.8 268.35 194.05 267.25 198.05 256.65 176.6 255.35 152.45 254.2 131.5 260.0 110.85" fill="#373535" fill-rule="evenodd" stroke="none"/>
    <path d="M245.15 -689.25 Q246.4 -685.05 245.45 -681.0 220.15 -722.3 173.25 -740.65 129.6 -757.75 78.15 -751.3 27.2 -744.95 -15.05 -717.75 -59.75 -688.9 -81.45 -644.7 -72.6 -638.75 -80.25 -625.75 -83.15 -620.8 -89.7 -612.7 L-102.05 -597.55 Q-118.55 -577.0 -124.5 -562.0 -133.05 -540.35 -125.05 -521.15 L-119.75 -490.25 Q-116.65 -471.85 -114.15 -460.25 -108.9 -435.65 -101.5 -417.25 L-92.65 -405.6 -91.2 -403.85 Q-79.05 -401.1 -77.85 -401.1 -76.45 -401.1 -59.7 -404.95 -61.35 -393.0 -59.2 -383.6 -57.35 -375.45 -52.4 -368.6 -30.7 -366.85 -1.6 -346.9 4.4 -342.75 23.4 -328.65 39.25 -316.85 49.3 -310.5 97.85 -307.3 135.5 -322.35 165.85 -334.5 194.6 -361.35 210.8 -418.1 196.8 -450.7 184.4 -479.6 147.05 -491.8 116.75 -501.65 62.9 -502.15 43.1 -502.35 13.5 -501.3 L-37.9 -499.4 Q-35.5 -489.65 -33.15 -467.8 -30.25 -448.9 -23.35 -441.25 -28.85 -439.4 -30.3 -426.05 -31.15 -418.1 -30.6 -399.55 -30.15 -382.25 -30.95 -377.5 -32.35 -369.7 -37.9 -375.9 -37.65 -433.65 -37.85 -441.25 -38.95 -477.3 -45.15 -499.4 -51.2 -515.05 -66.95 -521.15 -61.9 -527.55 -56.3 -525.0 -53.65 -523.8 -45.05 -515.75 -36.8 -508.0 -30.25 -505.55 -20.25 -501.8 -8.8 -506.65 -8.9 -511.05 -14.05 -512.3 -20.5 -513.1 -23.35 -513.9 91.45 -523.95 153.3 -500.1 240.45 -466.45 209.1 -368.6 221.4 -368.15 242.2 -379.1 264.35 -390.75 280.75 -407.7 299.85 -427.5 303.4 -447.65 307.65 -471.4 289.05 -492.1 314.75 -551.25 301.9 -605.8 290.05 -656.0 245.45 -702.8 241.75 -701.7 241.3 -699.8 241.0 -698.45 242.45 -695.4 244.6 -691.05 245.15 -689.25 M267.25 -702.8 Q298.5 -674.7 312.85 -615.65 326.9 -557.65 318.3 -497.0 309.05 -431.65 276.45 -390.4 239.4 -343.5 180.05 -339.55 183.55 -316.4 202.75 -296.5 213.3 -285.55 241.7 -265.05 267.55 -246.4 277.1 -234.55 291.9 -216.1 289.05 -194.25 283.35 -201.7 271.2 -220.0 259.95 -236.85 253.05 -245.45 230.45 -273.45 201.85 -281.45 189.05 -275.4 182.2 -264.95 177.35 -257.45 173.4 -243.4 167.95 -223.9 166.1 -219.1 160.6 -204.8 151.0 -194.25 161.1 -189.45 164.25 -174.8 166.6 -164.0 165.55 -143.4 149.1 -138.8 121.8 -125.35 93.85 -111.65 78.35 -107.05 79.45 -114.6 84.9 -144.1 88.9 -165.55 89.6 -178.4 90.65 -196.55 86.85 -211.55 82.5 -228.9 71.1 -245.1 59.25 -189.35 19.4 -27.8 -17.65 128.4 -30.6 219.85 3.1 226.9 42.4 231.05 88.05 235.95 128.4 235.3 231.3 233.75 267.25 198.05 268.6 205.35 273.75 211.5 275.55 213.65 283.9 221.35 290.3 227.25 293.0 232.25 296.8 239.35 296.3 248.9 276.95 255.75 254.55 257.95 L236.6 259.75 Q226.0 261.05 216.4 263.45 201.95 287.55 192.35 319.55 184.55 345.65 178.6 382.35 176.35 396.2 169.2 449.25 163.45 491.55 158.25 517.7 147.8 570.25 130.25 634.8 109.75 710.15 100.15 721.1 75.35 749.45 37.8 759.35 -1.25 769.6 -45.15 757.45 -43.45 745.45 -52.4 742.9 -52.9 738.9 -51.3 734.7 L-48.35 728.5 Q-46.85 725.45 -47.4 724.05 -48.1 722.15 -52.4 721.1 -14.3 672.85 3.6 615.9 18.1 569.65 22.15 506.3 23.6 483.25 24.25 449.05 24.8 409.9 25.25 389.7 26.85 315.4 34.75 263.45 27.35 261.7 21.7 263.1 18.3 263.95 13.0 267.05 7.65 270.2 4.25 271.05 -1.4 272.45 -8.8 270.7 -30.25 291.35 -37.7 331.4 -40.25 345.2 -42.15 366.7 L-45.15 401.45 Q-34.35 435.85 -30.4 469.2 -26.25 504.55 -30.6 532.25 -22.75 545.15 -20.45 558.55 -18.85 568.1 -19.7 583.05 -20.85 603.75 -20.75 609.4 -20.45 625.75 -16.1 641.2 L-63.45 661.5 Q-94.7 675.0 -116.3 681.4 -181.1 700.55 -226.75 677.55 -230.75 653.15 -208.9 630.6 -192.65 613.75 -161.4 597.6 -155.1 606.5 -161.45 613.3 -166.05 618.25 -180.25 624.15 -201.2 632.9 -204.15 634.45 -216.7 641.0 -219.5 648.45 -215.75 654.1 -214.3 657.8 -212.05 663.55 -212.25 670.25 -190.45 682.6 -165.95 682.1 -146.5 681.65 -120.9 672.6 -105.95 667.3 -76.1 654.7 -49.2 644.0 -30.6 641.2 -26.85 634.45 -26.85 627.4 -26.85 623.9 -28.55 615.6 -30.05 608.35 -29.45 603.85 -28.6 597.1 -23.35 590.35 L-37.45 594.35 Q-46.5 596.7 -53.3 597.5 -72.25 599.65 -81.45 590.35 -86.2 595.95 -84.95 603.8 -84.55 606.15 -80.45 618.2 -77.3 627.3 -78.25 633.2 -79.6 641.6 -88.75 648.45 -100.0 650.55 -108.55 648.3 -115.1 646.6 -121.9 641.65 -129.25 635.7 -133.15 632.95 -139.95 628.2 -146.85 626.7 -156.25 618.4 -151.55 620.0 -148.4 621.1 -133.0 628.45 -95.4 645.5 -88.75 633.95 -87.2 623.5 -91.95 613.2 -96.4 603.6 -104.75 597.35 -113.2 590.95 -122.25 590.65 -132.15 590.35 -139.6 597.6 -139.7 567.45 -148.9 516.35 -160.7 456.3 -165.95 425.3 -175.1 371.0 -175.25 333.2 -175.4 284.4 -161.4 248.9 -174.45 243.1 -196.2 236.5 -220.65 229.5 -232.5 225.6 -252.85 218.95 -265.95 211.8 -282.4 202.85 -292.15 190.8 L-284.9 177.15 -284.9 176.25 -284.5 176.45 Q-254.1 118.7 -232.1 70.45 -206.7 14.6 -183.2 -48.95 -211.3 -44.05 -242.2 -51.55 -253.9 -54.4 -268.45 -59.6 L-293.2 -68.9 Q-323.0 -80.25 -340.05 -81.75 -365.1 -84.0 -386.6 -70.75 -414.4 -93.15 -412.35 -121.0 -411.45 -133.15 -404.7 -144.45 -398.25 -155.3 -387.5 -163.65 L-386.5 -164.4 -386.6 -165.2 Q-384.05 -166.7 -381.5 -167.85 -373.25 -173.15 -363.8 -176.25 -350.35 -180.7 -336.75 -179.85 -305.65 -177.95 -284.9 -150.65 -203.5 -169.15 -134.7 -222.05 -106.15 -243.95 -76.2 -274.35 -53.95 -296.9 -23.35 -332.3 -14.25 -334.1 -6.8 -330.65 -4.75 -329.7 -0.85 -327.55 2.75 -325.7 5.7 -325.0 -54.15 -358.75 -91.2 -403.85 L-96.0 -404.95 Q-98.9 -410.7 -101.5 -417.25 -136.6 -466.25 -139.6 -521.15 -133.25 -516.75 -130.5 -516.2 -126.1 -515.3 -125.05 -521.15 -135.9 -540.35 -130.4 -564.05 -126.15 -582.5 -110.25 -608.3 -101.1 -623.1 -81.15 -652.55 -64.65 -678.3 -59.7 -695.55 -26.05 -720.5 0.05 -734.8 31.8 -752.2 61.1 -759.15 128.0 -775.05 201.85 -739.1 219.1 -730.75 238.55 -720.2 262.15 -707.4 267.25 -702.8 M111.1 -295.9 Q107.0 -294.1 107.4 -288.7 110.7 -287.45 117.7 -288.1 L130.0 -289.5 Q136.9 -290.05 140.05 -288.65 144.15 -286.85 143.75 -281.45 L119.6 -281.95 97.2 -280.75 Q74.1 -277.1 71.1 -259.65 80.65 -256.15 90.35 -248.05 96.0 -243.35 106.55 -233.35 116.2 -224.8 124.95 -220.9 136.55 -215.7 151.0 -216.05 169.8 -235.65 165.45 -255.4 163.65 -263.75 157.4 -274.65 154.05 -280.5 143.75 -295.95 140.45 -294.7 133.45 -295.35 L121.15 -296.75 Q114.25 -297.3 111.1 -295.9 M143.4 -321.15 Q128.85 -317.05 121.95 -303.25 136.65 -307.95 145.8 -305.3 152.8 -303.3 158.3 -296.05 L167.15 -283.1 Q172.75 -275.95 180.05 -274.15 190.5 -289.2 186.3 -302.25 182.55 -313.75 169.45 -319.35 156.65 -324.85 143.4 -321.15 M145.85 -185.3 Q146.3 -189.75 151.0 -194.25 145.05 -198.4 120.9 -211.35 101.9 -221.55 92.9 -230.6 97.0 -214.2 97.7 -202.35 98.3 -193.2 96.9 -182.25 L94.05 -160.9 Q92.5 -146.05 92.9 -128.85 112.05 -132.0 129.05 -139.95 143.75 -146.8 158.25 -157.95 157.0 -162.5 153.5 -168.2 149.5 -174.15 148.05 -176.95 145.5 -181.65 145.85 -185.3 M-327.2 -164.4 Q-343.05 -172.15 -355.0 -173.1 -368.25 -174.15 -381.5 -167.85 L-386.5 -164.4 Q-385.45 -157.1 -377.15 -156.9 L-368.3 -157.75 -358.15 -159.4 Q-345.4 -161.2 -338.9 -157.55 -329.8 -152.5 -328.5 -136.15 -327.55 -130.45 -332.25 -129.0 L-342.5 -128.4 Q-349.25 -128.35 -351.2 -126.2 -354.05 -123.05 -350.25 -114.35 -351.75 -99.95 -340.45 -91.9 -330.7 -84.9 -313.7 -84.0 -298.1 -83.15 -283.45 -87.65 -268.45 -92.2 -263.1 -99.8 -261.35 -107.2 -262.75 -112.9 -263.6 -116.25 -266.75 -121.6 -269.85 -126.95 -270.7 -130.35 -272.1 -136.0 -270.35 -143.4 -283.9 -143.5 -300.05 -150.7 -305.35 -153.05 -313.75 -157.5 L-327.2 -164.4 M-357.65 -118.05 Q-352.1 -128.0 -343.0 -150.65 L-372.05 -150.65 Q-359.85 -134.6 -372.55 -107.4 -375.1 -101.95 -380.4 -93.2 L-381.65 -90.75 Q-381.5 -90.55 -379.35 -92.55 -367.1 -101.25 -357.65 -118.05 M-31.35 -293.05 Q-32.15 -290.95 -35.4 -286.2 -38.15 -282.1 -38.9 -278.8 -39.9 -273.8 -37.9 -266.9 -29.75 -263.3 -12.55 -263.4 4.65 -263.5 20.7 -267.2 38.4 -271.3 46.4 -278.1 55.7 -286.05 49.3 -295.95 36.65 -283.65 7.25 -288.5 -4.45 -290.4 -15.25 -294.7 -25.55 -298.8 -30.6 -303.25 -29.65 -297.5 -31.35 -293.05 M-108.6 -241.35 Q-118.05 -233.7 -133.95 -218.35 -153.45 -199.5 -160.5 -193.25 -176.1 -179.3 -189.75 -170.55 -225.15 -147.95 -263.1 -150.65 -263.4 -141.75 -260.9 -128.15 L-256.5 -105.15 Q-254.35 -92.05 -255.4 -83.15 -256.65 -71.75 -263.1 -63.5 L-240.2 -62.8 Q-234.65 -62.0 -220.55 -58.8 -208.4 -56.05 -200.4 -55.35 -188.45 -54.3 -175.9 -56.2 -171.35 -66.35 -160.1 -93.05 -150.2 -116.55 -144.05 -129.7 -124.55 -171.15 -103.25 -194.25 -142.9 -115.25 -185.2 -17.65 L-221.65 67.2 Q-244.35 120.0 -263.1 161.75 -238.55 198.05 -173.65 210.3 -148.3 215.1 -111.6 217.25 L-45.15 219.85 Q-38.45 172.35 -20.4 102.75 1.6 22.3 12.1 -17.75 30.55 -88.2 37.75 -135.7 47.2 -197.9 42.05 -245.1 18.25 -203.9 -0.35 -178.5 -25.4 -144.2 -52.4 -121.6 -51.9 -131.85 -56.1 -139.7 -58.85 -144.8 -65.8 -151.75 -73.55 -159.45 -76.1 -163.25 -80.95 -170.6 -81.45 -179.7 -77.05 -175.35 -71.25 -168.1 L-61.6 -155.95 Q-49.75 -141.65 -37.9 -136.15 -32.2 -154.8 -19.85 -172.6 -11.9 -184.05 4.75 -202.5 22.8 -222.5 29.8 -231.9 42.8 -249.35 49.3 -266.9 5.1 -261.35 -33.5 -233.45 -46.9 -223.75 -65.35 -207.15 L-96.0 -179.7 -80.05 -200.1 Q-70.7 -211.9 -63.5 -219.85 -43.85 -241.4 -23.35 -252.35 -53.85 -270.25 -82.8 -257.7 -94.8 -252.5 -108.6 -241.35 M42.05 -303.25 Q36.4 -306.2 27.6 -308.75 L11.75 -312.9 Q-8.15 -318.05 -16.1 -325.0 -21.0 -312.35 -14.65 -304.35 -9.25 -297.45 3.05 -295.15 14.15 -293.1 25.75 -295.5 37.4 -297.9 42.05 -303.25 M-146.85 248.9 Q-159.2 288.6 -163.05 324.1 -166.5 355.8 -163.6 388.7 -161.35 414.65 -154.0 450.6 -149.7 471.65 -139.6 517.7 L-52.4 517.7 Q-41.7 507.7 -39.8 492.15 -38.45 480.85 -41.8 461.95 L-47.3 430.55 Q-49.3 412.95 -45.15 401.45 -57.5 375.75 -47.6 336.95 -43.95 322.6 -36.45 303.2 L-23.35 270.7 Q-41.85 258.4 -87.35 254.2 L-121.45 251.7 Q-139.65 250.5 -146.85 248.9 M-236.75 204.25 Q-230.35 208.4 -217.5 219.25 -204.9 229.85 -197.7 234.4 L-117.1 242.45 -37.2 251.0 Q54.4 259.95 100.15 256.15 120.45 254.45 152.1 255.65 189.65 257.1 199.3 256.85 223.65 256.25 238.75 250.45 256.95 243.4 267.25 227.1 200.6 239.75 121.55 241.95 46.5 244.0 -30.55 236.45 -105.95 229.05 -171.75 213.55 -238.35 197.9 -284.5 176.45 L-284.9 177.15 -284.9 198.05 Q-270.9 193.05 -258.3 195.2 -247.85 197.0 -236.75 204.25 M-108.5 531.1 Q-122.75 531.35 -132.35 524.95 -137.15 536.75 -131.0 548.4 -125.5 558.85 -111.95 568.15 -99.65 576.6 -83.1 582.65 -67.4 588.35 -52.4 590.35 -46.75 586.6 -43.05 585.15 -37.3 582.9 -30.6 583.1 -28.65 574.6 -30.35 566.35 -31.1 562.85 -34.5 553.8 -37.0 547.05 -36.65 543.15 -36.2 537.6 -30.6 532.25 -40.7 524.8 -55.15 524.4 -64.35 524.2 -81.95 527.5 -100.55 530.95 -108.5 531.1 M16.7 597.25 Q16.45 602.5 17.3 611.05 18.1 618.7 17.6 623.6 16.8 631.2 12.95 641.2 28.15 640.25 40.95 644.05 51.1 647.1 61.95 654.0 68.25 658.0 80.2 666.6 91.15 674.05 100.15 677.55 109.0 661.05 112.7 642.85 116.85 622.15 114.7 597.6 L67.05 587.15 Q37.65 580.85 20.25 575.85 17.1 587.9 16.7 597.25 M-45.15 742.9 Q-38.9 751.3 -24.6 755.25 -11.35 758.9 4.5 757.75 20.4 756.55 32.4 751.0 45.4 744.95 49.3 735.65 43.95 732.2 33.5 724.25 23.3 716.5 17.6 712.9 -1.8 700.55 -23.35 699.35 -25.35 704.1 -29.5 709.5 L-36.8 718.6 Q-45.3 729.9 -45.15 742.9 M20.25 663.0 Q1.05 672.85 -8.8 692.05 2.7 690.4 10.9 694.15 16.75 696.75 23.2 703.6 32.05 712.95 34.05 714.6 40.85 720.1 49.3 721.1 55.5 720.85 59.1 716.35 61.25 713.65 63.85 706.6 66.45 699.5 68.55 696.8 72.15 692.3 78.35 692.05 80.5 701.7 78.15 708.25 76.4 713.15 71.35 717.75 L62.55 725.3 Q57.85 730.0 56.55 735.65 75.4 736.1 85.55 721.05 88.75 716.25 93.05 706.75 98.0 695.8 100.15 692.05 95.5 689.6 78.55 677.1 60.1 663.55 50.15 657.6 14.7 636.45 12.95 663.0 18.65 655.05 30.85 655.75 41.65 656.4 52.8 663.15 63.8 669.75 67.55 677.7 71.7 686.5 63.85 692.05 61.2 689.4 55.4 682.35 50.1 675.95 46.7 672.85 35.75 662.8 20.25 663.0 M20.25 554.05 Q37.0 571.4 60.95 578.7 86.85 586.65 121.95 583.1 134.2 543.55 144.05 498.6 146.9 485.55 159.15 423.2 167.85 378.8 175.65 349.65 186.5 308.8 201.85 270.7 181.1 273.65 156.15 274.05 L115.35 273.95 Q92.55 273.95 77.85 275.85 58.3 278.4 42.05 285.25 40.3 361.0 34.5 426.7 30.55 471.75 20.25 554.05" fill="#373535" fill-rule="evenodd" stroke="none"/>
    <path d="M213.2 -53.05 Q224.75 -27.15 237.3 -11.7 253.1 7.7 274.5 16.45 275.3 14.2 279.8 -7.55 284.15 -28.85 289.05 -41.7 296.6 -41.3 302.95 -44.15 305.85 -45.45 313.1 -50.3 319.25 -54.4 323.95 -55.8 330.95 -57.8 339.9 -56.2 335.55 -70.25 324.9 -90.75 312.15 -114.15 306.15 -125.85 295.7 -146.25 291.55 -160.65 286.25 -179.25 289.05 -194.25 298.9 -173.65 316.85 -133.95 336.35 -90.8 345.55 -71.15 380.85 3.85 412.55 52.75 409.1 60.2 401.65 74.55 394.25 88.95 390.75 96.35 363.65 99.4 352.15 80.45 347.65 73.05 344.55 60.8 343.2 55.55 339.9 38.2 333.1 40.6 332.7 44.4 332.45 46.75 335.3 51.8 338.35 57.1 338.45 59.65 338.55 64.1 332.65 67.3 319.9 66.9 309.85 61.0 302.9 56.95 294.05 47.75 283.0 36.3 279.35 33.35 270.3 26.05 260.0 23.7 251.9 31.3 253.1 43.65 253.8 51.1 259.8 67.1 265.8 83.15 266.6 90.6 267.9 103.1 260.0 110.85 259.4 82.8 247.8 48.5 239.85 24.9 221.6 -14.3 199.0 -62.85 192.75 -78.1 177.9 -114.5 172.8 -143.4 183.05 -127.45 194.35 -99.55 L203.6 -76.15 Q209.2 -62.05 213.2 -53.05 M345.95 -29.05 Q330.75 -43.15 325.35 -48.95 314.3 -46.7 305.3 -37.85 297.3 -30.05 292.9 -19.3 288.7 -9.1 289.45 -1.05 290.25 7.4 296.3 9.15 L296.7 0.45 Q297.0 -4.5 298.05 -7.3 300.75 -14.85 310.85 -12.65 305.6 -2.9 303.9 11.6 302.35 25.2 304.45 37.2 306.65 49.65 311.85 54.25 317.6 59.4 325.35 52.75 321.8 38.15 321.4 27.6 320.65 7.6 332.65 1.9 359.7 0.25 368.95 16.45 371.0 22.05 367.9 28.55 366.2 32.1 360.85 39.1 356.4 44.9 356.05 47.35 355.55 51.05 361.7 52.75 387.95 26.5 367.1 -4.85 360.15 -15.3 345.95 -29.05" fill="#373535" fill-rule="evenodd" stroke="none"/>
    <path d="M188.2 -609.25 Q177.05 -613.55 172.8 -615.6 165.35 -608.2 165.15 -586.9 165.1 -582.75 165.6 -568.35 165.95 -556.7 165.55 -550.25 175.6 -549.8 182.45 -555.15 185.85 -557.75 192.65 -566.7 198.6 -574.55 203.8 -577.35 211.65 -581.5 223.65 -579.3 219.9 -593.9 203.35 -602.6 198.15 -605.35 188.2 -609.25 M165.55 -630.15 Q179.5 -626.6 193.25 -617.9 199.1 -614.2 216.4 -601.1 226.55 -601.2 234.0 -607.1 236.55 -609.1 245.4 -619.3 252.15 -627.05 258.65 -629.65 267.85 -633.4 281.75 -630.15 L285.85 -606.55 289.05 -579.3 Q277.1 -579.8 274.85 -594.15 274.05 -599.25 274.2 -608.05 L274.5 -622.9 Q266.0 -623.95 260.4 -620.65 256.15 -618.15 252.45 -612.25 248.65 -605.15 246.5 -601.85 242.75 -596.1 238.2 -593.8 239.1 -584.5 249.25 -581.3 253.0 -580.1 259.15 -579.4 L269.85 -578.25 Q282.8 -576.75 287.3 -572.15 293.75 -565.6 289.05 -550.25 268.1 -559.95 248.9 -556.7 236.7 -554.65 217.45 -544.5 197.1 -533.8 187.25 -531.55 169.45 -527.4 151.0 -535.7 155.3 -549.55 155.85 -562.5 156.05 -567.45 155.3 -583.2 154.65 -595.15 156.2 -603.7 158.35 -615.95 165.55 -630.15" fill="#373535" fill-rule="evenodd" stroke="none"/>
    <path d="M82.6 -371.4 Q102.35 -372.7 121.95 -368.6 106.7 -360.8 97.2 -353.4 85.1 -343.9 78.35 -332.3 58.25 -336.55 48.95 -342.85 35.9 -351.65 34.75 -368.6 L62.45 -369.8 82.6 -371.4" fill="#373535" fill-rule="evenodd" stroke="none"/>
  </g>
</svg>
