<?xml version="1.0" encoding="UTF-8" standalone="no"?>
<svg xmlns:xlink="http://www.w3.org/1999/xlink" height="479.7px" width="483.45px" xmlns="http://www.w3.org/2000/svg">
  <g transform="matrix(1, 0, 0, 1, 241.7, 239.85)">
    <path d="M15.05 -167.15 L14.8 -167.5 Q13.4 -169.3 13.4 -170.2 L14.8 -177.95 Q16.2 -185.35 16.2 -187.0 16.2 -190.95 14.45 -203.3 L13.2 -211.4 14.95 -203.9 Q17.8 -189.65 17.8 -178.6 17.8 -176.85 15.05 -167.15 M9.65 -221.25 Q7.7 -223.95 4.5 -227.05 L2.95 -228.45 Q4.1 -227.85 5.2 -227.2 7.6 -225.3 9.65 -221.25 M-23.55 -236.1 Q-24.2 -234.5 -24.2 -232.1 -24.2 -230.0 -19.45 -227.85 -11.6 -224.25 -9.0 -222.45 6.2 -212.2 6.2 -187.1 6.2 -180.9 -3.0 -157.0 -12.2 -133.1 -12.2 -128.9 L-12.0 -127.3 Q-18.05 -122.2 -21.2 -115.2 L-26.9 -105.05 Q-30.6 -98.45 -30.6 -94.5 -30.6 -88.8 -27.8 -83.4 -22.95 -74.2 -12.0 -74.2 -7.25 -74.2 1.05 -77.9 L8.8 -81.6 Q10.1 -81.6 11.0 -75.6 L11.6 -69.3 Q11.1 -61.95 11.0 -54.45 10.75 -39.55 12.6 -34.8 13.8 -31.9 19.65 -25.8 25.75 -19.4 26.8 -17.4 27.2 -16.55 27.45 -13.5 27.8 -9.45 28.1 -7.85 29.4 -0.6 34.4 -0.6 38.3 -0.6 39.25 -4.4 L39.35 -5.05 39.4 0.0 39.25 5.4 Q38.65 8.45 36.2 10.8 46.95 12.4 57.85 15.5 55.0 16.8 55.0 20.6 55.0 23.65 64.25 29.95 71.65 35.0 76.8 37.2 79.0 38.15 82.75 38.55 L88.4 39.3 Q94.2 40.9 94.2 50.2 94.2 63.25 95.75 70.6 98.85 85.0 107.6 85.0 114.15 85.0 114.6 80.7 119.15 88.65 127.25 92.85 L132.25 95.1 Q130.65 95.3 129.4 96.4 127.8 97.85 127.8 100.0 127.8 104.6 140.4 109.0 154.4 113.9 172.4 113.4 169.25 118.4 171.6 123.5 173.15 126.95 179.05 132.85 186.2 140.05 188.6 143.35 193.5 150.1 194.2 157.0 195.1 166.2 201.6 179.3 L212.8 201.4 Q178.85 175.35 143.1 138.75 133.4 128.8 84.4 75.4 L33.0 23.75 Q5.8 -3.45 -9.15 -17.3 -28.35 -35.0 -37.7 -40.4 -48.2 -46.4 -48.2 -38.2 -48.2 -36.35 -33.3 -22.1 L2.9 11.7 Q64.2 68.5 88.2 94.4 98.15 105.15 118.05 127.8 136.3 148.2 150.0 161.0 L192.25 200.35 Q221.3 226.6 226.0 226.6 228.25 226.6 229.65 225.45 L229.35 226.95 Q228.85 228.2 226.55 228.9 L219.15 230.85 Q212.5 232.85 204.8 236.2 L182.4 236.2 Q160.0 224.0 142.0 205.7 136.55 200.15 127.1 189.45 L111.8 172.6 96.5 155.55 Q88.5 146.7 80.4 141.0 77.75 139.1 66.5 126.1 61.3 120.15 58.3 116.2 55.7 115.65 35.1 92.7 10.9 65.75 3.0 59.2 L-13.3 45.45 Q-20.05 39.25 -27.0 30.4 -29.4 27.35 -37.4 23.35 -45.05 19.5 -46.2 17.6 L-51.1 11.1 -53.25 7.95 -61.2 10.05 -78.0 13.8 Q-86.7 13.8 -89.8 8.85 -91.4 6.25 -91.4 1.9 L-87.8 -10.75 Q-84.2 -23.35 -84.2 -23.9 -84.2 -24.5 -85.7 -26.7 -87.3 -29.1 -88.6 -30.0 -98.2 -23.85 -113.2 -16.85 -125.5 -11.05 -133.0 -8.4 -135.9 -7.35 -141.4 -4.2 -147.5 -0.7 -151.6 1.05 -166.75 7.4 -191.6 7.4 -224.5 7.4 -233.0 -14.0 -235.8 -21.05 -235.85 -30.5 -235.9 -35.45 -235.4 -41.6 -235.4 -46.05 -234.1 -53.35 -232.45 -62.5 -232.2 -65.0 -231.65 -70.1 -229.3 -76.45 L-224.2 -88.4 Q-216.85 -105.2 -212.8 -111.8 -211.65 -113.75 -210.7 -117.7 -209.6 -122.1 -208.8 -123.8 L-207.8 -125.5 Q-210.35 -130.9 -212.4 -141.45 -214.5 -152.25 -215.4 -163.3 L-215.45 -171.4 Q-215.35 -178.8 -214.6 -182.8 -214.15 -185.5 -208.65 -192.1 -203.15 -198.8 -202.6 -201.4 -202.05 -204.1 -196.25 -208.6 -190.35 -213.15 -181.75 -217.45 -160.45 -228.2 -142.8 -228.2 -128.15 -228.2 -118.15 -221.8 -111.95 -217.85 -111.05 -217.4 -107.0 -215.4 -102.2 -215.4 -94.4 -219.05 -85.25 -222.95 -66.9 -230.85 -59.2 -232.2 -35.75 -236.3 -26.45 -236.2 L-23.55 -236.1 M24.0 -35.65 L23.2 -36.4 Q20.2 -39.9 20.2 -44.6 L21.0 -57.05 21.8 -69.5 21.8 -73.45 Q21.65 -78.05 20.8 -81.8 18.2 -93.4 10.15 -93.75 L10.8 -93.8 Q18.65 -93.8 20.3 -87.75 20.75 -86.2 21.2 -81.8 21.7 -77.55 22.4 -75.2 24.2 -69.15 24.2 -56.3 L24.2 -50.6 Q23.8 -48.6 22.75 -47.5 L23.05 -41.95 Q23.3 -38.45 24.0 -35.65 M9.2 -93.7 Q7.65 -93.25 1.25 -90.2 L1.35 -90.3 Q4.65 -93.3 9.2 -93.7 M-5.3 -87.1 Q-11.65 -84.4 -14.4 -84.4 -16.15 -84.4 -18.15 -88.2 L-18.95 -89.8 Q-16.25 -86.8 -9.1 -86.8 L-5.3 -87.1 M-10.4 -111.9 Q-3.8 -124.55 -3.8 -123.9 L-3.8 -124.15 Q-2.85 -124.45 -1.95 -124.9 L-9.15 -113.85 -10.4 -111.9 M183.9 111.6 Q185.1 114.0 185.0 118.2 186.0 121.65 190.6 126.1 L199.6 135.0 Q202.6 138.55 207.6 153.65 212.2 167.6 212.2 170.4 212.2 172.0 211.6 173.35 216.6 179.95 221.85 194.25 L223.0 197.45 216.15 185.45 Q212.25 178.4 210.4 173.2 L205.7 160.55 Q203.15 153.15 203.2 148.6 203.35 142.6 196.95 135.8 191.75 130.3 184.2 126.0 184.0 124.65 183.05 122.05 182.2 119.75 182.2 118.7 182.2 117.7 183.2 114.2 L183.9 111.6 M105.35 54.25 Q104.2 48.2 104.2 42.6 104.2 37.25 97.25 32.05 L97.1 31.95 Q108.2 39.05 108.2 45.7 108.2 49.05 105.35 54.25 M147.3 99.75 L160.15 102.7 153.2 102.6 147.3 99.75 M-148.0 -139.75 L-152.6 -138.95 -160.85 -137.5 Q-164.2 -136.25 -164.2 -132.9 -164.2 -131.15 -163.65 -130.2 -162.2 -127.8 -157.6 -127.8 -132.15 -127.8 -120.0 -146.6 -116.0 -152.85 -114.0 -160.4 -112.6 -165.55 -112.6 -168.5 -112.6 -176.75 -118.9 -185.4 -124.4 -192.95 -132.8 -198.6 -140.75 -203.95 -146.7 -204.6 -150.65 -205.0 -152.1 -203.05 L-154.0 -203.0 Q-161.9 -202.65 -167.6 -200.6 -173.8 -198.4 -173.8 -195.3 -173.8 -193.55 -173.25 -192.6 -171.9 -190.2 -167.6 -190.2 L-165.55 -190.45 Q-170.75 -188.35 -174.75 -184.15 -183.8 -174.6 -183.8 -156.7 -183.8 -152.55 -178.7 -147.0 -173.35 -141.1 -167.2 -139.6 L-148.0 -139.75 M13.6 63.8 Q20.0 69.6 33.95 84.9 L59.6 113.35 Q92.05 149.0 97.6 149.0 100.25 149.0 101.6 147.0 102.6 145.5 102.6 143.7 102.6 141.55 69.1 105.85 36.4 71.1 19.8 55.2 11.8 47.5 -4.05 33.25 L-28.8 10.8 Q-32.35 7.7 -40.35 -1.75 L-53.6 -17.1 Q-60.85 -24.95 -64.5 -26.35 -69.0 -28.1 -69.0 -20.6 -69.0 -10.15 -31.05 24.85 -11.5 42.9 13.6 63.8 M-159.8 -192.1 L-158.4 -192.4 -157.7 -192.4 -159.8 -192.1 M-147.3 -192.1 L-144.4 -191.9 -141.1 -191.65 -137.8 -190.05 Q-122.6 -182.35 -122.6 -168.6 -122.6 -162.45 -124.1 -159.8 L-129.45 -152.75 -128.35 -155.0 Q-125.8 -160.95 -125.8 -172.5 -125.8 -181.05 -134.85 -187.1 -140.6 -190.9 -147.3 -192.1" fill="#ffcc00" fill-rule="evenodd" stroke="none"/>
    <path d="M13.2 -211.4 L14.45 -203.3 Q16.2 -190.95 16.2 -187.0 16.2 -185.35 14.8 -177.95 L13.4 -170.2 Q13.4 -169.3 14.8 -167.5 L15.05 -167.15 Q16.2 -165.65 16.2 -165.1 16.2 -163.3 14.8 -157.25 13.05 -149.75 10.6 -143.2 5.0 -128.4 -1.95 -124.9 -2.85 -124.45 -3.8 -124.15 L-3.8 -123.9 Q-3.8 -124.55 -10.4 -111.9 L-20.0 -93.3 Q-20.0 -92.05 -18.95 -89.8 L-18.15 -88.2 Q-16.15 -84.4 -14.4 -84.4 -11.65 -84.4 -5.3 -87.1 L-1.05 -89.1 1.25 -90.2 Q7.65 -93.25 9.2 -93.7 L9.6 -93.8 10.15 -93.75 Q18.2 -93.4 20.8 -81.8 21.65 -78.05 21.8 -73.45 L21.8 -69.5 21.0 -57.05 20.2 -44.6 Q20.2 -39.9 23.2 -36.4 L24.0 -35.65 29.8 -30.65 Q34.3 -26.9 36.4 -23.0 39.4 -17.45 39.4 -9.2 L39.35 -5.05 39.25 -4.4 Q38.3 -0.6 34.4 -0.6 29.4 -0.6 28.1 -7.85 27.8 -9.45 27.45 -13.5 27.2 -16.55 26.8 -17.4 25.75 -19.4 19.65 -25.8 13.8 -31.9 12.6 -34.8 10.75 -39.55 11.0 -54.45 11.1 -61.95 11.6 -69.3 L11.0 -75.6 Q10.1 -81.6 8.8 -81.6 L1.05 -77.9 Q-7.25 -74.2 -12.0 -74.2 -22.95 -74.2 -27.8 -83.4 -30.6 -88.8 -30.6 -94.5 -30.6 -98.45 -26.9 -105.05 L-21.2 -115.2 Q-18.05 -122.2 -12.0 -127.3 L-12.2 -128.9 Q-12.2 -133.1 -3.0 -157.0 6.2 -180.9 6.2 -187.1 6.2 -212.2 -9.0 -222.45 -11.6 -224.25 -19.45 -227.85 -24.2 -230.0 -24.2 -232.1 -24.2 -234.5 -23.55 -236.1 -22.4 -239.05 -19.15 -239.45 -14.8 -240.05 -7.75 -236.15 -2.1 -233.05 2.95 -228.45 L4.5 -227.05 Q7.7 -223.95 9.65 -221.25 11.25 -219.0 12.0 -217.0 12.4 -216.1 13.2 -211.4 M160.15 102.7 L174.4 102.8 Q181.15 100.9 183.3 104.45 184.2 106.0 184.2 109.7 L183.9 111.6 183.2 114.2 Q182.2 117.7 182.2 118.7 182.2 119.75 183.05 122.05 184.0 124.65 184.2 126.0 191.75 130.3 196.95 135.8 203.35 142.6 203.2 148.6 203.15 153.15 205.7 160.55 L210.4 173.2 Q212.25 178.4 216.15 185.45 L223.0 197.45 223.1 197.65 Q231.4 212.5 231.4 221.5 231.4 223.45 230.25 224.85 L229.65 225.45 Q228.25 226.6 226.0 226.6 221.3 226.6 192.25 200.35 L150.0 161.0 Q136.3 148.2 118.05 127.8 98.15 105.15 88.2 94.4 64.2 68.5 2.9 11.7 L-33.3 -22.1 Q-48.2 -36.35 -48.2 -38.2 -48.2 -46.4 -37.7 -40.4 -28.35 -35.0 -9.15 -17.3 5.8 -3.45 33.0 23.75 L84.4 75.4 Q133.4 128.8 143.1 138.75 178.85 175.35 212.8 201.4 L201.6 179.3 Q195.1 166.2 194.2 157.0 193.5 150.1 188.6 143.35 186.2 140.05 179.05 132.85 173.15 126.95 171.6 123.5 169.25 118.4 172.4 113.4 154.4 113.9 140.4 109.0 127.8 104.6 127.8 100.0 127.8 97.85 129.4 96.4 130.65 95.3 132.25 95.1 L133.2 95.0 Q137.3 95.0 143.0 97.7 144.7 98.45 147.3 99.75 L153.2 102.6 160.15 102.7 M114.6 80.7 Q114.15 85.0 107.6 85.0 98.85 85.0 95.75 70.6 94.2 63.25 94.2 50.2 94.2 40.9 88.4 39.3 L82.75 38.55 Q79.0 38.15 76.8 37.2 71.65 35.0 64.25 29.95 55.0 23.65 55.0 20.6 55.0 16.8 57.85 15.5 59.8 14.55 63.25 14.85 72.05 15.65 83.6 24.8 91.8 28.05 97.1 31.95 L97.25 32.05 Q104.2 37.25 104.2 42.6 104.2 48.2 105.35 54.25 106.6 61.1 109.4 68.5 112.0 75.4 114.6 80.1 L114.6 80.7 M13.6 63.8 Q-11.5 42.9 -31.05 24.85 -69.0 -10.15 -69.0 -20.6 -69.0 -28.1 -64.5 -26.35 -60.85 -24.95 -53.6 -17.1 L-40.35 -1.75 Q-32.35 7.7 -28.8 10.8 L-4.05 33.25 Q11.8 47.5 19.8 55.2 36.4 71.1 69.1 105.85 102.6 141.55 102.6 143.7 102.6 145.5 101.6 147.0 100.25 149.0 97.6 149.0 92.05 149.0 59.6 113.35 L33.95 84.9 Q20.0 69.6 13.6 63.8 M-165.55 -190.45 L-167.6 -190.2 Q-171.9 -190.2 -173.25 -192.6 -173.8 -193.55 -173.8 -195.3 -173.8 -198.4 -167.6 -200.6 -161.9 -202.65 -154.0 -203.0 L-152.1 -203.05 Q-150.65 -205.0 -146.7 -204.6 -140.75 -203.95 -132.8 -198.6 -124.4 -192.95 -118.9 -185.4 -112.6 -176.75 -112.6 -168.5 -112.6 -165.55 -114.0 -160.4 -116.0 -152.85 -120.0 -146.6 -132.15 -127.8 -157.6 -127.8 -162.2 -127.8 -163.65 -130.2 -164.2 -131.15 -164.2 -132.9 -164.2 -136.25 -160.85 -137.5 L-152.6 -138.95 -148.0 -139.75 Q-137.35 -142.25 -132.0 -149.4 L-129.45 -152.75 -124.1 -159.8 Q-122.6 -162.45 -122.6 -168.6 -122.6 -182.35 -137.8 -190.05 L-141.1 -191.65 -144.4 -191.9 -147.3 -192.1 -157.7 -192.4 -158.4 -192.4 -159.8 -192.1 -162.45 -191.3 Q-164.25 -190.7 -165.55 -190.45" fill="#ffff00" fill-rule="evenodd" stroke="none"/>
    <path d="M-44.7 -239.05 Q-3.85 -243.5 14.95 -222.7 21.8 -197.95 20.35 -176.0 18.6 -149.3 4.3 -137.65 12.05 -162.0 13.8 -179.8 16.35 -205.2 7.85 -222.7 -13.6 -239.75 -49.9 -233.35 -78.2 -228.35 -105.55 -212.05 -126.25 -227.5 -151.15 -225.7 -174.2 -224.0 -192.2 -208.75 -210.5 -193.3 -214.75 -171.3 -219.45 -147.05 -204.8 -123.45 -213.95 -107.95 -221.0 -90.7 -229.6 -69.65 -232.3 -52.1 -239.45 -5.9 -204.8 4.1 -188.3 8.85 -171.6 6.05 -158.25 3.85 -141.9 -3.95 L-113.5 -18.75 Q-96.4 -27.75 -84.3 -31.35 -77.85 -21.1 -83.5 -8.15 -88.65 3.75 -98.45 7.65 -98.6 2.9 -96.45 -1.0 -95.6 -2.55 -91.95 -7.1 -89.05 -10.8 -88.05 -13.85 -86.65 -18.25 -87.85 -24.25 -118.35 -8.95 -121.8 -7.35 -143.2 2.65 -159.6 7.25 -204.65 19.9 -229.6 -3.0 -249.45 -21.2 -236.7 -66.1 -228.9 -93.5 -211.9 -123.45 -226.7 -147.85 -222.0 -172.7 -217.7 -195.45 -199.0 -211.65 -180.45 -227.7 -155.85 -230.4 -129.35 -233.35 -105.55 -219.15 -93.95 -226.2 -78.3 -231.5 -61.25 -237.3 -44.7 -239.05" fill="#373535" fill-rule="evenodd" stroke="none"/>
    <path d="M93.95 27.35 Q106.95 34.35 110.6 36.0 111.3 55.1 112.25 62.55 114.5 79.75 120.55 91.35 L122.4 92.9 152.7 96.8 Q170.9 98.85 185.05 103.35 188.45 106.85 188.45 112.2 188.45 117.55 185.05 121.05 195.75 128.7 203.45 143.4 208.6 153.3 215.05 172.55 222.5 194.9 225.85 202.55 232.75 218.5 241.75 227.4 L224.7 233.35 Q215.55 236.55 209.05 237.95 191.85 241.7 170.85 238.0 132.75 197.85 59.35 124.45 -17.65 47.5 -52.4 11.2 -68.05 19.05 -75.75 20.25 -90.7 22.6 -91.4 7.65 -84.5 14.65 -73.5 13.05 -67.0 12.1 -52.4 7.65 -25.25 30.45 6.9 62.65 20.3 76.0 63.15 120.7 97.85 156.95 120.05 178.05 152.2 208.7 181.5 230.9 157.4 203.05 122.35 167.25 104.05 148.6 57.45 102.5 15.0 60.55 -8.35 36.4 -44.1 -0.65 -70.1 -31.35 -1.8 33.6 28.15 63.55 82.05 117.4 121.25 163.6 140.8 176.0 162.2 197.9 181.6 217.8 192.15 234.45 199.05 235.7 205.75 233.9 L216.95 230.9 Q159.4 172.75 82.5 96.0 L-52.4 -38.4 Q-32.95 -29.95 -11.3 -7.4 -6.45 -2.35 6.9 12.55 18.3 25.35 25.55 32.45 57.7 64.05 124.25 131.4 184.15 190.9 227.55 227.4 227.7 216.85 222.95 205.5 220.9 200.55 212.95 186.05 206.35 174.0 204.05 165.95 200.65 154.2 202.75 142.3 189.4 136.95 185.0 131.75 177.8 123.2 181.5 106.9 142.35 108.85 122.4 92.9 L121.25 92.7 120.55 91.35 117.1 88.0 Q100.0 69.6 103.55 36.0 94.95 34.1 87.25 30.3 L74.85 23.45 Q59.75 15.2 39.75 14.75 50.0 7.05 74.3 17.55 81.8 20.8 93.95 27.35" fill="#373535" fill-rule="evenodd" stroke="none"/>
    <path d="M4.3 -137.65 Q6.1 -132.6 3.8 -126.6 2.1 -122.15 -2.75 -115.35 L-11.1 -103.75 Q-15.55 -96.95 -16.95 -91.6 -12.7 -86.05 -2.8 -90.7 -0.1 -92.0 5.0 -95.1 9.7 -97.95 11.4 -98.65 14.1 -98.3 16.15 -96.3 L19.2 -92.3 Q23.0 -87.1 29.1 -88.05 22.65 -72.05 24.45 -57.55 25.65 -48.05 31.8 -34.55 38.4 -20.1 39.55 -14.4 41.85 -3.2 36.2 7.65 40.4 -1.6 35.95 -11.35 31.6 -21.05 22.0 -24.25 20.9 -47.45 19.95 -58.8 18.4 -78.25 14.95 -91.6 10.45 -91.4 6.35 -89.5 4.5 -88.65 -0.3 -85.55 -8.65 -80.25 -16.95 -80.95 -18.6 -84.2 -19.6 -85.4 -21.4 -87.55 -24.05 -88.05 -17.95 -105.75 -10.45 -118.2 -4.5 -128.15 4.3 -137.65" fill="#373535" fill-rule="evenodd" stroke="none"/>
    <path d="M-144.9 -193.8 Q-135.45 -190.55 -130.35 -180.15 -118.85 -165.55 -126.4 -152.7 -133.1 -141.4 -149.35 -137.5 -165.75 -133.55 -176.95 -141.0 -189.85 -149.55 -187.05 -169.55 -186.0 -177.2 -179.0 -184.1 -172.2 -190.8 -163.05 -193.65 -153.2 -196.7 -144.9 -193.8 M-130.35 -180.15 Q-142.5 -193.65 -156.1 -191.05 -167.9 -188.75 -174.8 -176.5 -181.7 -164.35 -177.5 -153.2 -172.75 -140.5 -155.15 -137.65 -137.3 -144.15 -132.4 -152.65 -127.7 -160.95 -130.35 -180.15" fill="#373535" fill-rule="evenodd" stroke="none"/>
  </g>
</svg>
