<?xml version="1.0" encoding="UTF-8" standalone="no"?>
<svg xmlns:xlink="http://www.w3.org/1999/xlink" height="648.6px" width="701.25px" xmlns="http://www.w3.org/2000/svg">
  <g transform="matrix(1, 0, 0, 1, 340.5, 317.9)">
    <path d="M49.95 -59.15 Q38.4 -71.65 2.25 -105.25 L-56.1 -159.1 Q-78.35 -184.35 -104.95 -204.45 -127.55 -221.35 -149.2 -231.6 -168.35 -240.7 -178.85 -241.1 -183.7 -241.3 -185.1 -239.3 -186.5 -237.25 -183.95 -233.2 -183.15 -231.95 -157.55 -219.45 -127.75 -205.0 -111.5 -193.95 -99.65 -185.85 -83.5 -168.85 -64.2 -148.45 -57.7 -142.9 -46.7 -133.6 9.55 -80.5 51.65 -40.8 54.55 -42.7 57.2 -44.35 57.05 -47.6 L56.95 -48.5 68.3 -29.25 76.75 -14.85 Q80.1 -9.15 82.15 -5.95 84.6 -2.1 83.95 2.1 83.25 6.35 79.65 8.65 L78.9 9.15 Q76.15 10.7 73.4 11.3 62.65 13.7 49.85 2.4 44.6 -2.2 37.55 -10.55 L28.35 -21.25 Q18.1 -31.55 -0.15 -44.15 L-4.4 -47.05 -5.55 -47.9 -6.05 -45.5 Q-9.05 -30.5 -17.25 -11.65 -25.3 6.75 -34.95 21.4 -45.25 37.0 -53.55 42.3 -64.65 49.35 -71.9 42.6 -75.65 39.15 -77.65 33.45 -84.05 23.5 -84.0 19.75 -83.9 17.7 -81.25 14.9 L-78.25 12.25 Q-69.2 5.0 -63.7 -1.2 -52.85 -13.6 -43.2 -33.05 -42.1 -35.35 -38.4 -48.4 -34.95 -60.35 -32.1 -66.85 L-31.5 -68.35 -31.15 -69.05 -29.0 -73.05 Q-26.75 -76.6 -24.35 -78.2 -33.4 -88.6 -48.8 -102.15 -62.15 -113.85 -96.7 -141.2 -129.85 -167.55 -145.15 -181.2 L-145.8 -181.85 Q-169.55 -203.1 -178.95 -217.9 L-184.3 -225.9 Q-187.75 -231.55 -187.7 -235.25 -187.7 -237.4 -186.45 -239.1 -181.75 -245.55 -158.75 -243.55 -146.9 -241.45 -137.45 -234.2 -127.4 -225.2 -120.95 -220.7 L-104.2 -209.65 Q-94.5 -202.95 -87.5 -195.0 -81.65 -188.25 -72.1 -181.1 -62.1 -173.55 -57.25 -168.3 -45.7 -156.15 -27.8 -139.6 L2.3 -111.8 Q33.4 -82.65 49.95 -59.15 M-29.2 -64.85 L-32.45 -48.5 Q-34.45 -38.8 -36.3 -35.6 -39.2 -30.65 -60.7 -3.1 -80.3 21.9 -79.7 22.9 -79.15 23.75 -77.2 23.95 L-71.65 24.35 -60.85 17.5 Q-53.3 10.9 -44.2 -1.75 -35.2 -14.15 -27.9 -27.8 -20.1 -42.25 -16.95 -53.2 -13.55 -65.4 -16.8 -70.5 -21.35 -77.7 -24.5 -75.35 -27.1 -73.45 -29.2 -64.85 M337.7 226.85 Q342.05 226.35 347.95 235.7 350.25 239.3 353.2 247.75 L353.3 248.05 349.05 241.85 Q341.2 229.55 337.7 226.85 M358.45 273.25 Q360.3 304.15 337.65 318.55 327.75 324.85 318.3 319.5 313.55 316.85 310.85 312.9 310.05 311.65 314.1 299.05 315.65 294.05 318.05 287.35 L323.8 271.2 Q322.1 287.45 322.65 288.25 323.85 290.15 324.65 290.65 327.15 292.1 331.4 289.35 335.95 286.45 338.2 276.9 L338.2 276.95 Q339.65 279.25 340.5 279.85 343.35 281.75 347.6 279.05 L349.15 277.7 Q351.5 278.45 355.2 276.1 357.15 274.85 358.45 273.25" fill="#cccccc" fill-rule="evenodd" stroke="none"/>
    <path d="M56.95 -48.5 L57.05 -47.6 Q57.2 -44.35 54.55 -42.7 51.65 -40.8 9.55 -80.5 -46.7 -133.6 -57.7 -142.9 -64.2 -148.45 -83.5 -168.85 -99.65 -185.85 -111.5 -193.95 -127.75 -205.0 -157.55 -219.45 -183.15 -231.95 -183.95 -233.2 -186.5 -237.25 -185.1 -239.3 -183.7 -241.3 -178.85 -241.1 -168.35 -240.7 -149.2 -231.6 -127.55 -221.35 -104.95 -204.45 -78.35 -184.35 -56.1 -159.1 L2.25 -105.25 Q38.4 -71.65 49.95 -59.15 53.7 -55.15 54.85 -53.3 56.45 -50.8 56.95 -48.5 M-29.2 -64.85 Q-27.1 -73.45 -24.5 -75.35 -21.35 -77.7 -16.8 -70.5 -13.55 -65.4 -16.95 -53.2 -20.1 -42.25 -27.9 -27.8 -35.2 -14.15 -44.2 -1.75 -53.3 10.9 -60.85 17.5 L-71.65 24.35 -77.2 23.95 Q-79.15 23.75 -79.7 22.9 -80.3 21.9 -60.7 -3.1 -39.2 -30.65 -36.3 -35.6 -34.45 -38.8 -32.45 -48.5 L-29.2 -64.85 M329.2 230.15 Q331.9 222.65 337.45 226.65 L337.7 226.85 Q341.2 229.55 349.05 241.85 L353.3 248.05 353.45 248.3 Q356.95 253.55 358.75 257.75 362.85 267.6 358.45 273.25 357.15 274.85 355.2 276.1 351.5 278.45 349.15 277.7 L347.6 279.05 Q343.35 281.75 340.5 279.85 339.65 279.25 338.2 276.95 L338.2 276.9 Q335.95 286.45 331.4 289.35 327.15 292.1 324.65 290.65 323.85 290.15 322.65 288.25 322.1 287.45 323.8 271.2 L323.85 270.65 327.0 241.45 Q327.65 234.15 329.2 230.15" fill="#ffffff" fill-rule="evenodd" stroke="none"/>
    <path d="M-186.45 -239.1 Q-187.7 -237.4 -187.7 -235.25 -187.75 -231.55 -184.3 -225.9 L-178.95 -217.9 Q-169.55 -203.1 -145.8 -181.85 -132.15 -167.75 -115.2 -153.5 -103.95 -144.15 -87.55 -131.65 -75.5 -122.5 -74.65 -121.15 -72.6 -117.9 -73.2 -114.5 -62.15 -109.6 -51.35 -102.05 -37.1 -92.0 -30.85 -82.2 -28.65 -78.75 -28.75 -75.0 -28.75 -74.0 -29.0 -73.05 L-31.15 -69.05 -32.1 -68.2 -32.1 -66.85 Q-34.95 -60.35 -38.4 -48.4 -42.1 -35.35 -43.2 -33.05 -52.85 -13.6 -63.7 -1.2 -69.2 5.0 -78.25 12.25 L-81.25 14.9 Q-88.15 15.1 -100.5 5.85 -113.45 -3.8 -135.4 -26.1 L-173.95 -66.4 -174.55 -67.05 Q-178.35 -67.5 -193.35 -76.0 -210.45 -85.75 -211.4 -87.2 -212.4 -88.75 -212.45 -92.9 -212.55 -97.15 -213.5 -98.65 -214.35 -100.0 -233.5 -116.2 -253.95 -134.25 -260.8 -143.9 -265.2 -150.25 -279.85 -168.8 -292.75 -185.15 -299.05 -195.0 -304.25 -203.2 -303.7 -208.1 L-315.4 -223.7 Q-320.3 -231.35 -325.75 -246.05 -332.7 -264.7 -334.1 -279.55 -336.0 -298.6 -328.0 -307.7 -318.25 -318.65 -294.7 -313.95 -277.3 -305.8 -236.4 -282.6 -194.6 -258.9 -192.65 -255.85 L-187.4 -241.65 -186.45 -239.1 M-4.4 -47.05 L-0.15 -44.15 Q18.1 -31.55 28.35 -21.25 L37.55 -10.55 Q44.6 -2.2 49.85 2.4 62.65 13.7 73.4 11.3 77.45 13.05 80.65 13.25 80.35 11.65 78.9 9.15 L79.65 8.65 Q83.25 6.35 83.95 2.1 84.6 -2.1 82.15 -5.95 80.1 -9.15 76.75 -14.85 L78.85 -16.4 Q82.95 -19.05 90.95 -12.95 96.05 -9.05 110.4 5.45 127.95 23.15 139.4 33.45 159.3 51.45 180.0 65.7 188.5 71.7 202.65 87.55 218.85 105.75 224.95 111.05 228.95 114.55 234.05 123.05 240.25 133.1 243.05 136.5 244.8 138.6 255.4 146.35 263.25 152.1 265.9 154.85 275.45 160.45 289.65 177.0 302.75 192.3 314.35 209.65 L320.65 213.6 Q326.65 217.1 327.15 217.9 328.4 219.9 329.2 230.15 327.65 234.15 327.0 241.45 L323.85 270.65 323.8 271.2 318.05 287.35 Q315.65 294.05 314.1 299.05 L310.75 301.55 Q300.3 308.2 233.35 263.3 185.8 231.35 127.7 186.25 91.8 158.5 47.4 122.35 -23.95 64.2 -31.9 51.7 L-33.15 49.05 -36.3 48.4 Q-38.35 47.5 -40.25 44.5 -41.85 42.1 -27.25 16.05 -11.55 -11.05 -9.95 -14.4 -8.6 -17.55 -7.7 -27.15 -6.7 -38.85 -5.85 -42.45 -5.3 -45.2 -4.4 -47.05" fill="#0033ff" fill-rule="evenodd" stroke="none"/>
    <path d="M-117.1 -209.8 Q-130.65 -220.9 -140.7 -227.5 -152.95 -235.45 -162.8 -238.65 -173.9 -242.2 -182.95 -240.1 -184.6 -236.4 -182.65 -230.95 -167.8 -210.5 -149.45 -191.45 -134.65 -176.05 -114.7 -158.7 L-96.95 -143.6 -79.25 -128.85 Q-57.45 -110.6 -43.85 -98.0 L-28.6 -84.0 -13.35 -70.15 Q4.75 -53.65 15.75 -42.45 21.0 -37.05 30.45 -26.05 L45.2 -9.4 Q53.6 -0.6 60.5 4.45 68.85 10.55 76.75 12.3 77.15 -3.2 64.55 -27.8 54.0 -48.45 38.0 -69.05 L-27.15 -130.0 Q-64.3 -164.5 -92.35 -188.65 L-117.1 -209.8 M-23.0 -137.65 Q0.95 -114.75 19.7 -94.8 24.85 -89.4 30.3 -82.25 L40.0 -68.9 50.05 -54.9 Q56.05 -47.0 61.75 -40.5 69.3 -32.05 79.85 -22.55 L98.95 -6.1 117.9 10.2 Q128.05 19.55 135.25 28.0 130.65 28.05 123.05 22.7 117.5 18.7 108.1 9.95 L100.1 2.55 92.15 -4.8 Q83.15 -12.75 77.25 -16.1 78.5 -11.9 80.85 -5.65 L85.05 5.1 Q90.05 18.25 90.6 25.25 77.6 23.05 62.2 11.75 49.9 2.8 33.45 -14.1 L18.95 -29.35 4.5 -44.85 Q-12.75 -63.3 -24.25 -73.05 -27.15 -66.45 -32.45 -52.6 -37.6 -38.95 -40.6 -32.15 -50.8 -8.65 -64.0 5.25 -60.9 -1.85 -54.25 -15.2 -47.45 -28.9 -44.45 -35.6 -39.35 -47.1 -36.55 -56.95 -33.2 -68.75 -32.55 -80.25 -49.1 -96.45 -72.7 -115.4 L-92.75 -131.2 -112.8 -147.1 Q-135.9 -165.95 -153.0 -183.6 -174.8 -206.15 -193.55 -233.35 -192.85 -235.05 -193.35 -238.2 L-194.45 -243.6 Q-194.95 -246.75 -194.2 -248.4 -193.2 -250.6 -190.0 -251.2 L-220.95 -271.3 Q-238.55 -282.55 -251.85 -290.05 -286.55 -309.65 -313.35 -316.05 -315.15 -313.0 -317.95 -309.9 L-322.8 -304.8 Q-328.65 -298.65 -330.3 -292.8 -331.25 -289.6 -331.15 -285.3 L-330.55 -277.65 Q-330.15 -273.0 -330.3 -270.3 -330.65 -266.4 -332.2 -263.5 -342.25 -281.05 -340.1 -294.7 -338.35 -305.3 -328.25 -315.9 L-326.9 -316.75 Q-298.95 -322.15 -259.2 -301.75 -229.3 -286.35 -187.35 -252.9 L-172.8 -252.2 Q-164.35 -250.75 -157.45 -247.0 -142.25 -238.7 -119.0 -220.9 -97.55 -204.55 -71.7 -182.05 -47.25 -160.8 -23.0 -137.65" fill="#373535" fill-rule="evenodd" stroke="none"/>
    <path d="M338.1 238.25 L341.65 247.3 Q344.05 253.9 345.75 257.55 348.35 263.4 351.3 267.6 352.15 266.75 350.9 264.4 L348.4 260.1 Q349.25 259.65 350.45 261.05 L352.6 263.75 Q352.7 262.9 350.1 258.6 L345.3 250.5 Q342.65 245.9 342.6 244.5 342.6 242.75 346.65 245.65 347.6 244.15 346.95 243.5 346.6 243.05 344.85 242.45 342.95 241.85 341.9 241.1 340.25 239.8 339.7 237.6 340.95 237.0 341.55 234.8 342.15 232.6 343.6 232.0 355.1 245.7 358.05 258.45 360.4 268.6 357.55 280.2 356.5 284.3 354.45 290.1 L350.95 299.85 Q347.0 311.55 347.35 320.0 L342.75 319.85 Q341.25 320.6 339.95 322.9 L337.95 327.15 Q336.7 329.65 335.5 330.7 335.45 325.6 332.7 326.35 331.75 326.6 330.1 327.75 L327.35 329.6 Q327.35 327.15 326.55 326.0 326.0 325.2 324.55 324.5 322.65 323.65 321.85 323.05 320.25 321.8 319.0 319.4 322.15 317.6 326.35 317.9 L333.8 319.3 Q335.2 316.8 336.05 313.85 L337.05 309.45 Q337.5 307.35 338.05 306.6 338.75 305.65 340.25 305.9 340.75 304.6 340.25 302.5 339.9 300.95 338.75 298.3 L336.85 294.0 Q335.9 291.5 335.7 290.0 335.6 287.55 335.9 287.85 336.2 288.05 337.1 290.3 339.75 297.05 341.35 298.9 344.55 300.15 341.7 294.8 L339.4 290.75 Q338.25 288.6 338.4 288.3 339.05 286.9 341.35 290.35 L342.9 293.0 Q343.7 294.2 343.95 294.1 346.45 293.35 345.85 290.0 345.4 287.55 342.75 282.1 L337.6 271.7 Q334.65 265.2 333.5 260.25 334.45 258.95 335.75 261.3 L338.55 268.1 Q340.8 273.95 342.4 277.25 345.0 282.55 347.75 285.5 347.85 281.4 342.8 266.45 L341.7 262.95 346.1 274.05 Q349.8 273.85 348.8 268.75 348.05 265.0 344.25 256.9 L337.6 243.05 Q334.2 235.4 334.1 231.8 336.1 233.85 338.1 238.25" fill="#373535" fill-rule="evenodd" stroke="none"/>
    <path d="M-325.1 -249.35 Q-309.3 -215.05 -287.95 -184.95 -270.0 -159.55 -246.5 -135.05 -229.85 -117.75 -204.1 -94.6 L-183.7 -76.4 -164.4 -58.65 Q-159.6 -54.15 -153.25 -46.0 -146.75 -37.75 -143.45 -34.6 -135.75 -27.2 -122.95 -17.6 L-112.4 -9.75 -102.0 -1.7 Q-90.35 7.8 -82.35 17.35 -72.45 29.15 -65.65 43.65 -52.25 38.8 -41.95 27.3 -33.5 17.85 -26.4 2.95 -22.15 -6.0 -15.55 -23.85 -9.3 -40.75 -6.0 -47.3 -2.05 -24.55 -13.95 1.6 -19.0 12.8 -26.5 23.25 -33.45 33.0 -41.4 40.75 53.95 129.85 132.25 189.85 224.15 260.15 304.9 300.25 309.25 295.25 312.95 286.9 315.15 281.9 318.9 271.4 322.45 261.2 324.55 256.7 327.95 249.35 331.8 245.75 332.05 265.65 326.05 283.65 320.5 300.45 309.4 316.1 227.35 269.95 131.1 195.4 54.3 135.9 -48.05 44.95 -54.7 47.65 -60.8 47.25 -67.45 46.8 -73.8 42.6 -75.85 38.3 -79.3 33.45 L-85.3 25.4 -90.55 18.25 Q-92.9 14.5 -93.55 11.55 -120.9 -7.65 -142.15 -24.25 -168.25 -44.65 -190.95 -65.4 -244.05 -114.15 -289.25 -175.55 L-304.8 -199.95 Q-306.1 -204.7 -311.15 -213.0 L-320.2 -227.3 Q-325.3 -235.6 -326.65 -240.35 -328.45 -246.6 -325.1 -249.35" fill="#373535" fill-rule="evenodd" stroke="none"/>
    <path d="M146.3 36.55 Q174.55 57.45 216.15 98.55 230.75 112.95 252.75 135.6 L289.25 173.1 302.15 185.85 Q310.6 194.1 315.65 200.15 322.6 208.4 326.1 215.5 330.3 223.9 330.05 231.25 318.0 215.1 302.35 198.1 290.5 185.15 273.55 168.6 L245.85 141.8 Q230.7 126.95 221.45 116.5 222.0 118.2 221.75 118.3 L220.7 117.55 Q219.55 116.5 219.0 116.15 217.95 115.55 217.4 115.95 216.5 114.15 217.25 114.1 218.0 114.05 218.7 115.05 212.75 105.75 201.75 94.75 195.9 88.85 181.0 75.3 167.45 63.0 160.95 56.15 150.95 45.5 146.3 36.55" fill="#373535" fill-rule="evenodd" stroke="none"/>
  </g>
</svg>
