<?xml version="1.0" encoding="UTF-8" standalone="no"?>
<svg xmlns:xlink="http://www.w3.org/1999/xlink" height="1129.4px" width="1795.2px" xmlns="http://www.w3.org/2000/svg">
  <g transform="matrix(1, 0, 0, 1, 897.6, 564.7)">
    <path d="M-663.85 411.6 Q-668.15 409.65 -670.7 406.85 -673.6 403.7 -674.25 399.3 L-674.4 393.2 Q-674.4 389.2 -671.2 382.4 -668.0 375.6 -668.0 371.6 -668.0 368.65 -671.0 365.75 -672.85 364.0 -677.6 360.85 L-684.2 356.0 Q-687.2 353.2 -687.2 350.4 -687.2 337.85 -678.5 332.6 -670.25 327.65 -660.55 332.35 L-657.2 334.3 Q-625.85 307.5 -465.35 211.75 -406.65 176.75 -316.65 124.2 L-224.8 70.4 Q-186.85 47.45 -97.4 -12.4 6.9 -82.25 46.75 -107.65 125.0 -157.5 164.75 -175.35 178.6 -181.6 188.55 -184.3 201.4 -204.55 291.55 -255.45 L369.5 -298.25 Q409.1 -319.85 416.8 -325.6 464.05 -360.7 500.9 -374.2 511.85 -378.2 521.7 -380.2 L520.85 -381.25 Q520.2 -382.2 520.25 -383.25 520.25 -383.7 520.4 -383.6 520.4 -385.45 523.95 -388.25 527.8 -391.25 532.65 -392.85 545.85 -397.15 552.8 -386.8 555.9 -384.3 558.9 -379.9 577.9 -374.3 587.95 -356.5 597.6 -339.45 597.6 -314.4 L597.6 -313.2 Q599.6 -309.2 599.6 -308.2 599.6 -306.9 598.55 -304.5 601.2 -304.05 601.2 -301.6 601.2 -300.4 592.95 -294.6 L588.1 -288.4 Q574.05 -272.4 558.4 -272.4 L558.25 -272.4 537.5 -259.75 Q462.9 -215.3 441.2 -202.0 434.15 -197.7 399.45 -180.6 368.0 -165.1 354.4 -155.6 344.25 -148.55 315.65 -131.5 288.8 -115.55 275.2 -105.6 247.7 -85.5 192.6 -54.4 149.9 -30.3 105.2 -7.6 103.75 -6.9 24.2 45.35 -54.9 97.2 -55.2 97.2 L-56.85 97.15 Q-75.75 115.2 -162.75 168.05 -186.75 182.6 -247.75 218.85 -293.2 245.8 -304.4 253.2 -332.85 271.95 -370.9 293.9 -393.25 306.75 -440.4 333.2 -452.6 340.1 -517.9 378.35 L-560.7 403.15 -560.8 403.6 Q-560.8 410.75 -570.2 415.95 -581.3 422.1 -602.4 423.2 -606.1 426.9 -609.35 431.0 L-613.6 436.5 Q-617.15 440.8 -622.4 440.8 -636.4 440.8 -637.2 429.0 -637.45 425.35 -636.35 420.55 -635.2 416.4 -635.2 416.0 -645.7 416.0 -653.4 414.65 -656.7 413.35 -661.2 412.25 L-663.85 411.6" fill="#ffcc33" fill-rule="evenodd" stroke="none"/>
    <path d="M-653.4 414.65 Q-650.1 415.9 -648.0 417.35 -642.0 421.45 -642.0 428.4 -642.0 434.45 -658.75 448.15 -675.7 462.05 -700.45 476.0 -728.05 491.55 -754.45 500.85 -785.05 511.6 -808.0 511.6 -814.5 511.6 -815.7 506.95 -816.05 505.45 -815.85 503.6 L-815.6 501.8 Q-815.6 472.9 -799.6 451.05 -793.2 442.3 -783.2 433.1 -777.45 427.8 -764.4 417.2 -749.45 405.95 -740.35 398.6 -723.55 384.95 -718.4 376.8 -716.8 374.25 -716.35 369.05 -715.75 362.6 -715.35 361.2 -714.2 357.45 -710.7 356.65 -706.4 355.75 -697.6 358.8 -678.8 365.15 -676.95 366.5 -674.9 367.9 -674.35 370.3 -674.0 371.95 -674.0 377.0 -674.0 381.95 -677.2 390.3 -680.4 398.65 -680.4 402.8 -680.4 406.55 -674.4 408.8 L-663.85 411.6 -661.2 412.25 Q-656.7 413.35 -653.4 414.65" fill="#ffcc99" fill-rule="evenodd" stroke="none"/>
    <path d="M755.6 -528.0 Q755.6 -542.7 775.0 -553.1 794.0 -563.3 817.6 -562.0 843.8 -560.55 860.25 -544.65 879.6 -525.85 879.6 -491.0 879.6 -485.85 874.0 -476.35 868.0 -466.2 858.85 -456.8 834.95 -432.4 809.6 -432.4 806.75 -432.4 798.1 -452.15 787.4 -476.5 785.2 -480.0 L767.85 -506.85 Q755.6 -525.9 755.6 -528.0" fill="#ff3333" fill-rule="evenodd" stroke="none"/>
    <path d="M769.15 -482.45 L768.9 -482.85 Q765.0 -489.45 756.0 -492.8 753.55 -493.65 749.8 -498.2 749.05 -499.05 748.7 -499.1 L747.15 -499.2 Q742.75 -499.5 731.8 -503.4 L720.6 -506.5 Q716.2 -507.55 716.2 -503.8 716.2 -502.75 716.8 -502.0 717.6 -501.0 719.3 -500.8 717.05 -500.9 716.05 -499.45 715.4 -498.55 715.4 -497.4 715.4 -496.2 715.6 -495.9 716.3 -494.9 718.6 -494.65 L718.6 -494.2 724.8 -487.1 738.5 -471.6 Q758.4 -447.7 758.4 -436.4 757.8 -434.85 758.0 -433.4 758.4 -430.6 762.4 -430.6 766.2 -430.6 766.2 -434.0 766.2 -439.6 758.75 -452.85 751.9 -465.05 742.4 -477.5 733.6 -489.0 727.45 -494.35 750.3 -492.8 759.1 -481.05 762.25 -476.8 764.3 -470.0 766.55 -462.55 767.2 -461.4 768.5 -459.2 777.0 -438.6 783.6 -422.6 786.4 -422.6 789.4 -422.6 789.4 -426.2 789.4 -429.5 783.55 -447.05 L778.8 -460.65 780.8 -457.75 Q783.7 -453.75 787.9 -448.5 790.85 -444.55 791.9 -440.95 793.2 -436.65 793.2 -429.0 793.2 -417.85 762.7 -398.45 755.8 -394.1 736.9 -383.05 721.45 -374.0 715.2 -369.6 693.85 -354.8 672.05 -341.1 628.8 -314.0 618.4 -314.0 615.5 -314.0 606.75 -335.4 596.75 -359.9 592.4 -365.2 589.05 -369.25 582.95 -378.6 L574.4 -391.6 Q568.3 -400.45 556.5 -405.1 551.6 -407.0 550.1 -408.3 547.6 -410.4 547.6 -414.4 547.6 -416.15 554.7 -419.85 558.35 -421.7 573.45 -428.65 608.25 -444.7 630.0 -458.4 635.95 -462.15 646.7 -469.95 L665.55 -483.7 Q689.0 -500.5 700.0 -503.6 751.1 -518.1 763.8 -502.15 767.8 -497.1 768.75 -487.45 L769.15 -482.45 M559.6 -411.4 Q561.05 -411.4 566.4 -414.45 L569.75 -416.45 571.2 -415.4 Q593.95 -409.95 602.05 -400.05 604.7 -396.85 607.35 -391.1 610.5 -384.2 612.0 -381.8 613.55 -379.35 616.05 -372.95 L620.55 -361.25 Q626.4 -346.6 630.4 -346.6 632.3 -346.6 633.05 -348.2 633.4 -349.05 633.4 -350.0 633.4 -351.75 626.0 -367.35 618.8 -382.6 614.8 -389.6 612.65 -393.35 608.15 -399.6 L601.2 -409.4 Q584.75 -421.1 578.1 -423.7 570.1 -426.85 568.6 -421.3 L564.0 -421.1 Q560.85 -420.4 558.65 -418.9 556.2 -417.25 556.2 -415.4 555.95 -414.25 556.2 -413.3 556.8 -411.4 559.6 -411.4 M661.6 -351.4 Q664.6 -353.35 664.6 -361.1 664.6 -372.25 656.55 -387.3 649.75 -400.0 638.8 -412.75 629.0 -424.2 621.05 -430.0 613.0 -435.85 613.0 -431.3 613.0 -429.45 620.0 -423.05 630.55 -413.4 635.55 -407.85 658.2 -382.5 658.8 -352.4 L661.6 -351.4 M655.75 -421.5 Q657.65 -418.45 660.6 -412.0 L668.85 -393.4 Q673.2 -382.2 673.2 -374.8 L676.0 -373.8 Q677.9 -375.05 678.65 -377.35 L679.0 -379.6 Q679.0 -382.55 672.45 -399.45 666.1 -415.85 664.0 -419.2 660.4 -425.85 657.9 -429.15 653.6 -434.85 646.6 -438.4 636.8 -444.5 629.5 -447.85 615.4 -454.3 615.4 -446.2 615.4 -445.9 628.35 -441.2 642.6 -435.5 648.2 -430.6 652.5 -426.8 655.75 -421.5 M672.2 -471.0 Q672.2 -469.6 687.6 -458.9 704.6 -445.2 711.2 -430.2 714.0 -423.8 716.5 -405.0 718.65 -389.0 720.0 -389.0 721.6 -389.0 722.4 -390.4 723.0 -391.45 723.0 -392.8 723.0 -404.25 721.15 -414.4 719.1 -425.35 714.6 -436.6 706.4 -452.45 689.4 -466.6 682.0 -472.75 677.3 -474.2 672.2 -475.8 672.2 -471.0 M655.45 -458.55 Q659.2 -455.35 661.65 -452.55 671.85 -441.05 678.6 -420.6 679.5 -417.8 682.55 -410.45 L686.6 -400.2 Q687.1 -398.7 687.15 -394.85 L687.3 -387.9 Q687.85 -379.4 692.0 -379.4 693.6 -379.4 694.4 -380.8 695.0 -381.85 695.0 -383.2 695.0 -395.75 692.55 -403.1 690.7 -408.6 682.8 -427.0 673.65 -447.6 663.05 -458.85 658.6 -463.55 655.85 -464.3 653.0 -465.05 653.0 -461.4 653.0 -460.7 655.45 -458.55 M727.95 -475.45 L727.15 -476.05 726.9 -476.2 Q716.15 -484.0 704.75 -485.55 698.85 -486.35 695.1 -484.95 691.4 -483.55 691.4 -480.6 691.4 -480.05 692.15 -479.45 L694.4 -477.8 Q712.55 -475.75 724.35 -470.05 727.05 -465.75 734.0 -451.4 742.3 -434.15 746.15 -428.5 746.75 -423.5 747.7 -417.2 750.0 -401.8 750.4 -401.8 753.3 -401.8 754.05 -406.2 L754.2 -412.2 Q754.2 -417.7 752.15 -434.0 750.1 -450.4 749.2 -451.8 743.25 -461.55 732.6 -471.6 L727.95 -475.45" fill="#cccccc" fill-rule="evenodd" stroke="none"/>
    <path d="M778.8 -460.65 L783.55 -447.05 Q789.4 -429.5 789.4 -426.2 789.4 -422.6 786.4 -422.6 783.6 -422.6 777.0 -438.6 768.5 -459.2 767.2 -461.4 766.55 -462.55 764.3 -470.0 762.25 -476.8 759.1 -481.05 750.3 -492.8 727.45 -494.35 733.6 -489.0 742.4 -477.5 751.9 -465.05 758.75 -452.85 766.2 -439.6 766.2 -434.0 766.2 -430.6 762.4 -430.6 758.4 -430.6 758.0 -433.4 757.8 -434.85 758.4 -436.4 758.4 -447.7 738.5 -471.6 L724.8 -487.1 718.6 -494.2 718.6 -494.65 Q716.3 -494.9 715.6 -495.9 715.4 -496.2 715.4 -497.4 715.4 -498.55 716.05 -499.45 717.05 -500.9 719.3 -500.8 717.6 -501.0 716.8 -502.0 716.2 -502.75 716.2 -503.8 716.2 -507.55 720.6 -506.5 L731.8 -503.4 Q742.75 -499.5 747.15 -499.2 L748.7 -499.1 Q749.05 -499.05 749.8 -498.2 753.55 -493.65 756.0 -492.8 765.0 -489.45 768.9 -482.85 L769.15 -482.45 Q771.3 -478.65 774.2 -471.2 776.1 -467.75 778.8 -460.65 M727.95 -475.45 L732.6 -471.6 Q743.25 -461.55 749.2 -451.8 750.1 -450.4 752.15 -434.0 754.2 -417.7 754.2 -412.2 L754.05 -406.2 Q753.3 -401.8 750.4 -401.8 750.0 -401.8 747.7 -417.2 746.75 -423.5 746.15 -428.5 742.3 -434.15 734.0 -451.4 727.05 -465.75 724.35 -470.05 712.55 -475.75 694.4 -477.8 L692.15 -479.45 Q691.4 -480.05 691.4 -480.6 691.4 -483.55 695.1 -484.95 698.85 -486.35 704.75 -485.55 716.15 -484.0 726.9 -476.2 L727.15 -476.05 727.95 -475.45 M655.45 -458.55 Q653.0 -460.7 653.0 -461.4 653.0 -465.05 655.85 -464.3 658.6 -463.55 663.05 -458.85 673.65 -447.6 682.8 -427.0 690.7 -408.6 692.55 -403.1 695.0 -395.75 695.0 -383.2 695.0 -381.85 694.4 -380.8 693.6 -379.4 692.0 -379.4 687.85 -379.4 687.3 -387.9 L687.15 -394.85 Q687.1 -398.7 686.6 -400.2 L682.55 -410.45 Q679.5 -417.8 678.6 -420.6 671.85 -441.05 661.65 -452.55 659.2 -455.35 655.45 -458.55 M672.2 -471.0 Q672.2 -475.8 677.3 -474.2 682.0 -472.75 689.4 -466.6 706.4 -452.45 714.6 -436.6 719.1 -425.35 721.15 -414.4 723.0 -404.25 723.0 -392.8 723.0 -391.45 722.4 -390.4 721.6 -389.0 720.0 -389.0 718.65 -389.0 716.5 -405.0 714.0 -423.8 711.2 -430.2 704.6 -445.2 687.6 -458.9 672.2 -469.6 672.2 -471.0 M655.75 -421.5 Q652.5 -426.8 648.2 -430.6 642.6 -435.5 628.35 -441.2 615.4 -445.9 615.4 -446.2 615.4 -454.3 629.5 -447.85 636.8 -444.5 646.6 -438.4 653.6 -434.85 657.9 -429.15 660.4 -425.85 664.0 -419.2 666.1 -415.85 672.45 -399.45 679.0 -382.55 679.0 -379.6 L678.65 -377.35 Q677.9 -375.05 676.0 -373.8 L673.2 -374.8 Q673.2 -382.2 668.85 -393.4 L660.6 -412.0 Q657.65 -418.45 655.75 -421.5 M661.6 -351.4 L658.8 -352.4 Q658.2 -382.5 635.55 -407.85 630.55 -413.4 620.0 -423.05 613.0 -429.45 613.0 -431.3 613.0 -435.85 621.05 -430.0 629.0 -424.2 638.8 -412.75 649.75 -400.0 656.55 -387.3 664.6 -372.25 664.6 -361.1 664.6 -353.35 661.6 -351.4 M559.6 -411.4 Q556.8 -411.4 556.2 -413.3 555.95 -414.25 556.2 -415.4 556.2 -417.25 558.65 -418.9 560.85 -420.4 564.0 -421.1 L568.6 -421.3 Q570.1 -426.85 578.1 -423.7 584.75 -421.1 601.2 -409.4 L608.15 -399.6 Q612.65 -393.35 614.8 -389.6 618.8 -382.6 626.0 -367.35 633.4 -351.75 633.4 -350.0 633.4 -349.05 633.05 -348.2 632.3 -346.6 630.4 -346.6 626.4 -346.6 620.55 -361.25 L616.05 -372.95 Q613.55 -379.35 612.0 -381.8 610.5 -384.2 607.35 -391.1 604.7 -396.85 602.05 -400.05 593.95 -409.95 571.2 -415.4 L569.75 -416.45 566.4 -414.45 Q561.05 -411.4 559.6 -411.4" fill="#ffffff" fill-rule="evenodd" stroke="none"/>
    <path d="M868.1 -523.0 Q861.95 -536.1 851.25 -545.35 839.95 -555.1 826.2 -558.25 811.25 -561.7 795.75 -556.7 778.6 -551.15 762.45 -535.65 764.0 -523.55 773.65 -509.45 777.0 -504.55 782.65 -497.55 L791.9 -486.05 Q802.45 -472.55 805.1 -463.35 808.65 -450.8 801.1 -439.15 849.65 -442.05 866.85 -469.95 874.1 -481.7 874.2 -496.2 874.3 -509.8 868.1 -523.0 M897.6 -497.05 Q893.0 -479.85 879.0 -465.35 867.45 -453.3 847.5 -441.3 836.3 -434.6 809.65 -421.05 784.4 -408.15 772.1 -400.5 385.75 -159.6 254.6 -78.9 -53.1 110.45 -270.25 236.5 159.5 -56.3 598.4 -294.35 L590.85 -318.45 Q586.35 -332.4 581.7 -342.05 568.75 -368.6 540.5 -390.85 296.75 -250.65 -75.05 -21.9 L-379.55 165.85 Q-557.5 275.4 -685.3 352.35 -668.2 359.7 -650.85 352.9 -638.85 348.2 -620.1 332.75 -596.2 313.05 -588.15 307.9 -568.7 295.5 -550.15 294.4 -558.7 309.85 -578.0 322.05 -585.0 326.5 -595.8 332.0 L-614.3 341.25 Q-636.6 352.7 -647.5 363.55 -662.65 378.75 -665.95 400.6 -633.05 402.25 -589.8 383.05 -557.4 368.65 -507.65 336.5 -451.05 298.7 -422.6 280.95 -373.3 250.15 -337.8 236.5 -365.3 262.75 -406.0 288.95 -431.2 305.1 -482.15 333.45 -534.6 362.65 -558.5 377.75 -599.6 403.8 -627.35 429.55 -590.75 418.2 -544.35 392.85 -511.65 374.95 -458.05 340.7 -387.2 295.45 -369.5 284.75 -318.9 254.1 -279.9 236.5 -404.0 335.8 -568.4 420.95 -711.25 495.0 -897.6 564.7 -842.1 466.35 -731.4 374.35 -645.6 303.1 -504.6 219.3 -460.7 193.2 -382.5 148.9 -295.65 99.75 -262.0 80.05 -196.2 41.6 -148.7 10.35 -91.2 -27.55 -48.25 -62.7 90.25 -138.6 250.55 -236.85 366.25 -307.75 540.5 -419.85 574.5 -406.0 592.8 -385.3 614.45 -360.75 617.7 -323.3 627.6 -320.9 633.6 -324.3 637.2 -326.3 641.85 -332.95 646.45 -339.55 650.05 -341.6 656.05 -345.0 665.95 -342.6 664.7 -371.55 649.95 -394.2 640.55 -408.65 617.7 -429.5 628.35 -438.85 637.35 -433.0 644.5 -428.35 651.8 -412.85 L663.7 -384.15 Q670.5 -367.45 675.6 -361.9 678.4 -370.05 674.1 -387.9 669.5 -407.05 659.9 -422.4 648.55 -440.6 634.25 -446.0 617.2 -452.35 598.4 -439.15 599.45 -424.25 607.5 -412.1 611.65 -405.8 624.35 -392.75 635.75 -381.0 640.3 -372.45 647.25 -359.4 646.65 -342.6 635.05 -348.4 626.1 -363.1 623.2 -367.9 618.9 -376.4 L612.0 -390.0 Q603.4 -405.65 593.45 -412.5 580.25 -421.6 559.8 -419.85 589.45 -432.1 636.2 -467.5 L675.2 -497.4 Q698.35 -515.0 715.05 -526.0 761.05 -556.25 798.25 -562.75 844.75 -570.9 887.95 -545.3 889.6 -540.95 888.75 -531.6 L886.9 -515.3 Q886.15 -506.15 888.0 -501.9 890.4 -496.5 897.6 -497.05 M764.45 -482.05 Q741.9 -516.25 714.2 -497.05 724.9 -491.05 733.5 -480.1 740.25 -471.55 747.25 -457.65 751.3 -449.65 758.95 -433.2 765.95 -418.85 772.1 -410.2 775.5 -422.05 791.45 -419.85 L780.35 -450.1 Q772.4 -470.0 764.45 -482.05 M713.7 -481.9 Q698.05 -488.2 685.25 -477.75 706.15 -468.8 720.45 -440.5 723.9 -433.6 731.6 -415.5 738.45 -399.3 743.15 -390.85 753.85 -404.25 751.85 -424.45 750.05 -442.8 739.0 -459.45 727.9 -476.15 713.7 -481.9 M705.55 -404.15 Q712.95 -392.5 723.85 -381.2 723.25 -400.9 720.8 -414.0 718.0 -428.95 712.0 -439.9 699.6 -462.55 665.95 -477.75 675.65 -463.8 683.15 -449.15 L694.15 -425.7 Q700.2 -412.6 705.55 -404.15 M-704.6 362.0 Q-712.7 379.7 -733.8 399.1 -745.95 410.3 -772.2 431.4 -794.4 450.3 -803.35 465.15 -815.3 485.05 -810.75 506.75 -794.9 502.5 -762.95 494.2 -735.35 486.7 -717.15 479.7 -667.85 460.7 -646.65 429.55 -660.2 424.5 -666.4 421.35 -675.9 416.5 -680.3 410.8 -690.8 397.2 -675.65 371.65 -684.5 371.9 -692.15 368.9 -697.0 367.0 -704.6 362.0" fill="#373535" fill-rule="evenodd" stroke="none"/>
    <path d="M400.6 -221.9 Q489.0 -276.05 579.1 -313.65 410.95 -203.2 241.25 -110.95 323.6 -174.8 400.6 -221.9" fill="#373535" fill-rule="evenodd" stroke="none"/>
    <path d="M11.75 19.0 Q78.05 -21.5 125.45 -53.05 56.6 9.5 -85.75 95.25 -128.85 121.2 -208.9 167.25 -293.8 216.0 -328.15 236.5 -279.7 200.25 -218.45 160.45 -172.6 130.65 -104.0 89.05 L11.75 19.0" fill="#373535" fill-rule="evenodd" stroke="none"/>
  </g>
</svg>
