<?xml version="1.0" encoding="UTF-8" standalone="no"?>
<svg xmlns:xlink="http://www.w3.org/1999/xlink" height="512.4px" width="850.65px" xmlns="http://www.w3.org/2000/svg">
  <g transform="matrix(1, 0, 0, 1, 425.3, 256.2)">
    <path d="M27.1 -38.1 Q42.65 -29.65 53.0 -25.6 67.3 -21.75 98.95 -3.95 129.4 13.15 129.4 15.9 L129.15 17.2 Q166.85 33.85 261.6 86.2 276.1 93.35 301.7 105.5 324.7 116.6 343.4 126.6 346.4 128.2 360.2 137.0 371.7 144.35 380.2 148.0 384.45 149.8 399.7 158.4 410.95 164.7 413.95 166.75 414.75 165.95 416.0 165.4 419.8 163.75 419.8 168.9 419.8 174.4 412.6 189.85 L403.8 208.2 Q396.8 226.35 388.05 236.8 L383.2 242.3 Q381.4 244.5 381.4 246.4 381.4 248.05 380.05 248.85 379.05 249.4 377.6 249.4 376.15 249.4 345.2 234.45 316.3 220.45 300.2 212.2 L263.95 192.2 231.4 173.8 231.4 173.7 Q223.4 171.35 197.5 157.95 171.9 144.75 153.4 134.0 150.9 132.55 111.05 111.9 88.55 100.3 85.5 96.15 L39.3 72.5 Q-12.15 46.15 -30.6 37.2 -40.55 32.35 -56.3 23.15 -73.2 13.25 -82.0 8.8 -137.85 -20.6 -138.2 -22.55 L-191.15 -50.35 Q-253.4 -83.0 -281.0 -96.8 -287.05 -99.8 -317.9 -116.35 -340.05 -128.2 -353.8 -134.0 -370.15 -140.8 -394.15 -153.2 -421.4 -167.3 -421.4 -170.2 L-421.25 -170.8 Q-421.5 -171.55 -421.4 -172.4 -421.4 -173.3 -411.5 -192.8 -400.55 -214.35 -397.8 -221.6 -396.05 -226.1 -391.45 -234.0 -386.35 -242.6 -384.4 -246.2 -379.65 -254.85 -363.1 -245.35 -357.7 -242.25 -352.15 -237.85 L-349.9 -236.05 Q-342.85 -234.5 -327.25 -226.05 -292.45 -205.85 -280.0 -199.8 -259.65 -190.7 -239.8 -180.75 -203.85 -162.75 -200.5 -156.45 -192.4 -154.3 -170.55 -143.05 L-115.8 -113.6 Q-107.45 -109.8 -62.8 -84.7 L-24.5 -62.95 Q-22.75 -64.05 -17.7 -62.2 -11.9 -60.0 1.65 -52.4 18.2 -42.9 27.1 -38.1" fill="#ffffcc" fill-opacity="0.6627451" fill-rule="evenodd" stroke="none"/>
    <path d="M-272.95 -157.4 Q-272.8 -160.0 -269.9 -159.15 -269.5 -159.05 -266.25 -157.4 -268.35 -155.2 -268.6 -153.2 -268.95 -150.35 -269.6 -149.0 -276.95 -148.25 -276.3 -154.05 -274.8 -153.3 -274.2 -152.8 -273.2 -151.95 -272.95 -150.7 -271.3 -150.85 -270.95 -153.75 -270.65 -156.95 -269.6 -157.4 L-272.95 -157.4" fill="#373535" fill-rule="evenodd" stroke="none"/>
    <path d="M-227.7 -137.3 Q-228.5 -136.55 -228.95 -134.75 L-229.7 -131.75 Q-230.75 -128.2 -234.4 -128.9 -234.3 -130.35 -235.3 -132.2 -236.3 -134.0 -236.1 -135.6 -234.25 -135.3 -232.15 -136.75 -230.25 -138.05 -227.7 -137.3" fill="#373535" fill-rule="evenodd" stroke="none"/>
    <path d="M-194.25 -118.85 L-190.9 -118.85 Q-191.1 -117.9 -190.55 -117.55 -190.2 -117.3 -189.2 -117.2 -191.55 -113.9 -190.9 -108.8 -194.45 -108.6 -195.95 -108.75 -198.65 -109.05 -197.6 -112.15 -196.25 -111.3 -195.45 -111.0 L-192.55 -110.5 Q-192.15 -112.4 -193.25 -113.15 -193.95 -113.65 -195.9 -113.85 -195.05 -115.15 -194.7 -116.0 -194.2 -117.3 -194.25 -118.85" fill="#373535" fill-rule="evenodd" stroke="none"/>
    <path d="M120.6 45.25 L118.1 50.25 115.55 55.3 Q113.15 54.15 115.05 49.3 116.95 44.4 120.6 45.25" fill="#373535" fill-rule="evenodd" stroke="none"/>
    <path d="M262.9 87.1 Q262.5 90.65 260.4 93.75 L256.2 98.8 Q255.7 96.3 259.5 91.65 262.55 87.9 259.55 85.4 L255.85 92.95 Q253.15 97.7 251.2 95.45 L255.1 90.15 Q257.1 86.95 257.9 83.75 253.25 86.05 249.55 93.8 245.1 103.2 242.8 105.5 244.25 99.85 248.1 93.2 L254.55 82.05 Q250.4 81.95 248.55 86.95 L247.05 90.95 Q246.05 93.05 244.5 93.8 244.65 90.85 247.0 87.1 249.4 83.35 249.5 80.4 246.05 80.3 244.65 84.75 243.05 89.75 241.15 90.45 241.4 87.5 243.3 84.2 245.7 80.1 246.15 78.7 242.2 78.35 240.5 83.1 L239.05 86.65 Q237.95 88.4 236.1 88.75 236.3 87.55 237.55 85.5 L239.8 82.0 Q242.3 77.6 239.45 75.35 238.75 76.4 236.5 81.6 234.75 85.55 232.75 87.1 232.4 84.75 235.8 79.7 238.55 75.6 236.1 73.7 234.05 75.95 231.15 82.15 228.35 88.15 226.1 90.45 227.0 86.25 229.9 80.9 L234.45 72.0 Q230.5 71.65 228.8 76.4 L227.35 79.95 Q226.25 81.7 224.4 82.05 224.6 80.85 225.85 78.85 L228.1 75.3 Q230.6 70.95 227.75 68.7 226.95 71.9 224.95 75.1 L221.05 80.4 Q220.7 78.05 224.1 73.0 226.8 68.9 224.4 67.0 222.95 68.3 220.6 73.25 218.6 77.55 216.05 78.7 L222.75 65.35 Q219.1 65.8 216.95 70.4 214.3 76.0 212.7 77.05 212.35 74.7 215.75 69.65 218.45 65.55 216.05 63.65 213.55 66.35 209.7 74.9 206.25 82.7 202.65 85.4 L214.35 62.0 Q210.9 61.9 209.5 66.3 207.9 71.3 206.0 72.0 205.8 70.15 207.0 67.85 207.7 66.5 209.3 64.05 211.8 60.0 207.65 58.65 206.4 63.4 205.35 65.55 203.65 68.95 200.95 70.35 201.15 69.15 202.4 67.1 L204.65 63.55 Q207.15 59.2 204.3 56.95 203.6 58.05 201.35 63.15 199.6 67.1 197.6 68.7 197.75 65.7 200.15 62.0 202.55 58.25 202.65 55.3 199.2 55.2 197.8 59.65 196.15 64.65 194.25 65.35 194.5 62.4 196.4 59.1 198.85 54.95 199.3 53.6 194.55 54.2 191.95 61.3 L189.75 66.65 Q188.25 69.4 185.9 70.35 186.35 68.35 188.1 65.4 L191.3 60.25 Q195.0 54.0 192.6 50.25 191.8 51.4 189.6 56.45 187.85 60.4 185.9 62.0 186.0 59.0 188.4 55.3 190.8 51.55 190.9 48.6 187.3 48.8 185.5 54.1 183.65 59.7 180.85 60.3 L187.55 46.9 Q183.4 46.8 181.55 51.8 L180.1 55.75 Q179.05 57.85 177.5 58.65 177.65 55.65 180.05 51.95 182.45 48.2 182.55 45.25 179.1 45.15 177.7 49.6 176.05 54.6 174.15 55.3 174.3 52.3 176.7 48.6 179.1 44.85 179.2 41.9 174.65 43.8 171.3 52.4 167.75 61.5 164.1 63.65 L175.85 40.2 Q172.25 40.4 170.45 45.7 168.6 51.35 165.8 51.95 166.0 50.75 167.25 48.7 L169.45 45.15 Q171.95 40.8 169.15 38.55 168.35 39.7 166.15 44.75 164.45 48.7 162.45 50.25 162.6 47.3 164.95 43.55 167.35 39.8 167.45 36.85 164.0 36.75 162.6 41.2 161.0 46.2 159.1 46.9 158.9 45.05 160.15 42.7 160.85 41.35 162.45 38.95 164.9 34.85 160.75 33.5 159.55 38.15 158.45 40.4 156.75 43.85 154.05 45.25 154.25 44.05 155.5 42.0 L157.75 38.45 Q160.25 34.1 157.4 31.85 156.4 33.55 152.75 41.4 149.95 47.35 147.35 50.25 148.1 46.25 151.55 40.2 155.05 34.2 155.75 30.15 152.15 30.35 150.35 35.65 148.5 41.3 145.7 41.9 L152.4 28.5 Q148.45 28.15 146.75 32.85 L145.25 36.45 Q144.2 38.2 142.35 38.55 142.55 37.35 143.8 35.3 L146.05 31.75 Q148.55 27.4 145.7 25.15 144.9 26.3 142.7 31.35 141.0 35.3 139.0 36.85 139.15 33.9 141.5 30.15 143.9 26.4 144.0 23.45 140.4 23.65 138.65 28.95 136.8 34.6 134.0 35.2 L140.65 21.8 Q137.2 22.6 135.0 25.75 133.6 27.75 131.95 32.35 130.2 37.25 129.1 39.1 127.1 42.45 123.95 43.55 124.3 42.65 130.95 31.75 135.5 24.3 134.0 20.1 133.5 20.75 131.3 25.8 129.75 29.35 127.3 30.15 127.75 28.75 130.15 24.65 132.05 21.4 132.3 18.45 129.95 18.3 128.75 19.9 128.0 20.85 127.3 23.5 126.55 26.1 125.8 27.05 124.6 28.65 122.25 28.5 L127.1 21.15 Q129.85 16.45 125.6 15.1 124.35 19.85 123.3 22.0 121.6 25.4 118.9 26.8 119.1 25.6 120.35 23.55 L122.6 20.05 Q125.1 15.65 122.25 13.4 121.55 14.45 119.3 19.65 117.55 23.6 115.55 25.15 115.7 22.2 118.1 18.45 120.5 14.7 120.6 11.75 116.5 13.3 113.45 20.5 110.15 28.3 107.2 30.15 108.25 25.85 112.0 19.9 116.1 13.45 117.25 10.05 113.25 9.7 111.55 14.45 L110.1 18.0 Q109.05 19.75 107.2 20.1 107.4 18.9 108.65 16.85 L110.85 13.35 Q113.35 8.95 110.55 6.7 109.8 7.85 107.55 12.95 105.8 16.9 103.85 18.45 103.95 15.5 106.35 11.75 108.75 8.0 108.85 5.05 105.25 5.25 103.45 10.55 101.6 16.15 98.8 16.75 L105.5 3.35 Q101.55 3.0 99.85 7.75 L98.4 11.3 Q97.3 13.05 95.45 13.4 95.9 12.05 98.35 7.9 100.25 4.65 100.5 1.7 96.05 3.8 92.5 12.15 88.7 21.15 85.4 23.45 86.65 18.3 91.0 11.45 95.8 3.7 97.15 0.0 94.25 -0.35 91.5 5.7 90.3 8.3 89.6 8.95 88.5 9.95 87.1 8.4 87.95 6.65 91.9 1.9 94.55 -2.2 90.45 -3.35 90.05 0.25 87.9 3.35 L83.75 8.4 Q83.2 5.9 87.0 1.25 90.1 -2.5 87.1 -5.0 L84.0 1.5 Q81.95 5.8 80.4 3.35 80.7 1.4 83.15 -1.45 85.4 -4.0 85.4 -6.7 82.0 -6.15 79.85 -1.35 77.5 4.0 75.35 5.05 75.1 2.9 76.65 0.35 L79.65 -3.75 Q81.4 -5.95 81.4 -7.2 81.4 -8.9 78.7 -10.05 77.6 -5.1 74.45 -0.05 L68.65 8.4 Q68.55 4.85 73.5 -2.25 77.65 -8.15 75.35 -11.7 73.1 -6.7 71.65 -4.15 68.95 0.6 67.0 -1.65 L71.15 -6.7 Q73.3 -9.8 73.7 -13.4 70.35 -13.8 67.95 -7.0 66.8 -3.9 66.2 -3.2 65.15 -1.9 63.65 -3.35 64.4 -5.6 67.0 -9.2 69.55 -12.75 70.35 -15.05 66.65 -16.05 64.3 -9.8 63.15 -6.9 62.65 -6.3 61.7 -5.15 60.3 -6.7 L63.4 -11.1 Q65.35 -13.75 65.3 -16.75 62.95 -16.85 61.75 -15.25 61.0 -14.3 60.3 -11.7 59.55 -9.1 58.8 -8.15 57.6 -6.55 55.25 -6.7 55.45 -8.2 57.05 -10.45 L59.95 -14.2 Q62.95 -18.45 58.6 -20.05 57.1 -14.6 53.45 -8.5 L46.9 1.7 Q46.95 -1.35 48.85 -4.8 L52.7 -10.5 Q57.55 -17.35 55.25 -21.75 54.45 -18.55 52.45 -15.35 L48.55 -10.05 Q48.2 -12.4 51.6 -17.45 54.35 -21.5 51.9 -23.4 50.65 -22.1 48.7 -18.3 46.85 -14.75 45.25 -13.4 45.5 -16.35 47.4 -19.6 49.8 -23.75 50.25 -25.1 46.65 -24.6 44.5 -20.0 41.85 -14.5 40.2 -13.4 39.95 -15.65 43.55 -21.35 46.35 -25.85 43.55 -28.45 42.75 -25.25 40.75 -22.05 L36.85 -16.75 Q36.5 -19.1 39.9 -24.15 42.6 -28.2 40.2 -30.1 38.9 -28.3 34.85 -20.4 31.7 -14.3 28.5 -11.7 L38.55 -31.8 Q34.9 -31.3 32.75 -26.7 30.1 -21.15 28.5 -20.05 28.15 -22.4 31.55 -27.45 34.25 -31.55 31.85 -33.45 28.55 -26.55 25.15 -23.4 25.4 -26.35 27.3 -29.65 L30.15 -35.15 Q26.8 -34.95 24.75 -30.5 22.5 -25.75 20.1 -25.1 20.3 -26.3 21.55 -28.35 L23.8 -31.9 Q26.3 -36.25 23.45 -38.5 23.05 -34.95 20.95 -31.85 L16.75 -26.75 Q16.4 -29.1 19.8 -34.15 22.5 -38.25 20.1 -40.15 18.3 -37.75 13.85 -28.8 10.25 -21.5 6.7 -18.4 L18.45 -41.85 Q15.0 -41.95 13.6 -37.5 11.95 -32.5 10.05 -31.8 10.3 -34.75 12.2 -38.0 14.65 -42.2 15.1 -43.5 11.1 -43.9 9.4 -39.15 L7.95 -35.55 Q6.9 -33.8 5.05 -33.45 5.25 -34.65 6.5 -36.7 L8.7 -40.25 Q11.2 -44.6 8.4 -46.85 7.6 -45.7 5.4 -40.65 3.65 -36.7 1.7 -35.15 1.8 -38.1 4.2 -41.85 6.6 -45.6 6.7 -48.55 3.1 -48.35 1.3 -43.05 -0.55 -37.4 -3.35 -36.8 L3.35 -50.2 Q-1.4 -49.6 -4.0 -42.5 -5.5 -38.4 -6.2 -37.15 -7.7 -34.4 -10.05 -33.45 L-5.5 -42.35 Q-2.6 -47.7 -1.65 -51.9 -5.1 -52.0 -6.5 -47.55 -8.15 -42.55 -10.05 -41.85 -9.85 -44.0 -8.65 -46.45 L-6.65 -50.2 Q-4.7 -54.2 -8.35 -56.9 -12.5 -57.0 -14.35 -52.0 L-15.85 -48.05 Q-16.85 -45.95 -18.4 -45.2 -18.3 -48.15 -15.9 -51.9 -13.5 -55.65 -13.4 -58.6 -16.85 -58.7 -18.25 -54.25 -19.85 -49.25 -21.75 -48.55 -21.5 -51.5 -19.6 -54.75 -17.2 -58.85 -16.75 -60.25 -22.0 -58.7 -25.3 -50.4 L-27.95 -43.85 Q-29.6 -40.3 -31.8 -38.5 -31.55 -41.5 -29.65 -45.2 L-25.9 -51.45 Q-21.3 -59.0 -23.45 -63.6 -24.65 -58.95 -25.75 -56.7 -27.45 -53.3 -30.15 -51.9 -29.95 -53.1 -28.7 -55.15 L-26.45 -58.65 Q-23.95 -63.05 -26.8 -65.3 L-29.75 -59.05 Q-31.5 -55.1 -33.5 -53.55 -33.35 -56.5 -30.95 -60.25 -28.55 -64.0 -28.45 -66.95 -32.05 -66.75 -33.85 -61.45 -35.7 -55.85 -38.5 -55.25 L-31.8 -68.65 Q-35.75 -69.0 -37.45 -64.25 -38.45 -61.45 -38.95 -60.7 -40.0 -58.95 -41.85 -58.6 -41.65 -59.8 -40.4 -61.85 L-38.15 -65.35 Q-35.65 -69.75 -38.5 -72.0 L-43.15 -62.4 Q-45.95 -56.45 -48.55 -53.55 -47.8 -57.6 -44.35 -63.6 -40.9 -69.6 -40.2 -73.65 -43.8 -73.45 -45.55 -68.15 -47.4 -62.55 -50.2 -61.95 L-43.55 -75.35 Q-47.7 -75.45 -49.5 -70.45 L-51.0 -66.5 Q-52.0 -64.4 -53.55 -63.6 -53.45 -66.55 -51.05 -70.3 -48.65 -74.05 -48.55 -77.0 -52.0 -77.1 -53.4 -72.65 -55.0 -67.65 -56.9 -66.95 -56.65 -69.9 -54.75 -73.2 -52.35 -77.4 -51.9 -78.7 -55.85 -79.05 -57.55 -74.3 -58.55 -71.5 -59.0 -70.75 -60.1 -69.0 -61.95 -68.65 -61.75 -69.85 -60.5 -71.9 L-58.25 -75.4 Q-55.75 -79.8 -58.6 -82.05 -59.65 -80.65 -64.95 -68.75 -68.85 -60.05 -72.0 -60.25 -70.3 -63.6 -64.9 -72.0 -60.6 -79.6 -61.95 -83.7 L-64.9 -77.5 Q-66.65 -73.55 -68.65 -72.0 -68.5 -74.95 -66.1 -78.7 -63.7 -82.4 -63.6 -85.4 -67.2 -85.2 -69.0 -79.9 -70.85 -74.25 -73.65 -73.65 L-66.95 -87.05 Q-70.95 -87.4 -72.65 -82.65 L-74.1 -79.1 Q-75.15 -77.35 -77.0 -77.0 -76.8 -78.2 -75.55 -80.25 L-73.35 -83.8 Q-70.85 -88.15 -73.65 -90.4 -74.45 -89.25 -76.65 -84.2 -78.4 -80.25 -80.35 -78.7 -80.25 -81.65 -77.85 -85.4 -75.45 -89.1 -75.35 -92.1 -79.3 -91.5 -82.75 -82.35 -84.4 -78.05 -85.3 -76.75 -86.8 -74.55 -88.75 -75.35 -86.25 -78.65 -83.4 -84.25 L-78.7 -93.75 Q-82.85 -93.85 -84.7 -88.85 L-86.15 -84.9 Q-87.2 -82.8 -88.75 -82.05 -88.6 -85.0 -86.2 -88.75 -83.8 -92.45 -83.7 -95.45 -87.15 -95.55 -88.55 -91.1 -90.2 -86.1 -92.1 -85.4 -92.3 -87.25 -91.05 -89.55 L-88.75 -93.35 Q-86.25 -97.4 -90.4 -98.8 -91.65 -94.05 -92.7 -91.85 -94.4 -88.45 -97.1 -87.05 -96.9 -88.25 -95.65 -90.3 L-93.45 -93.85 Q-90.95 -98.2 -93.75 -100.45 -94.55 -99.3 -96.75 -94.25 -98.5 -90.3 -100.45 -88.75 -100.35 -91.7 -97.95 -95.45 -95.55 -99.15 -95.45 -102.15 -99.7 -101.0 -103.7 -90.7 -105.6 -85.85 -106.6 -84.25 -108.35 -81.55 -110.5 -82.05 L-104.4 -92.7 Q-101.0 -98.85 -98.8 -103.8 -102.1 -104.2 -104.55 -97.45 -105.65 -94.35 -106.3 -93.6 -107.35 -92.3 -108.85 -93.75 -108.65 -95.25 -107.05 -97.55 L-104.15 -101.25 Q-101.15 -105.55 -105.5 -107.15 -106.3 -103.1 -108.2 -99.4 -110.55 -94.8 -112.2 -97.1 L-108.25 -102.8 Q-105.8 -106.7 -108.85 -108.8 L-111.8 -102.6 Q-113.55 -98.65 -115.55 -97.1 -116.05 -100.85 -113.25 -104.05 -110.3 -107.4 -110.5 -110.5 -113.8 -110.9 -116.25 -104.15 -117.35 -101.05 -118.0 -100.3 -119.05 -99.0 -120.55 -100.45 -116.8 -105.6 -113.85 -112.15 -118.45 -111.25 -121.3 -104.55 -123.1 -100.3 -123.65 -99.35 -125.15 -96.65 -127.25 -95.45 -126.85 -99.6 -123.15 -104.75 -119.4 -110.0 -118.9 -113.85 -121.25 -114.0 -122.45 -112.4 -123.15 -111.45 -123.9 -108.8 -124.65 -106.2 -125.4 -105.25 -126.6 -103.65 -128.95 -103.8 -125.55 -108.55 -124.05 -111.1 -121.35 -115.8 -125.6 -117.2 -126.4 -113.15 -128.3 -109.45 -130.65 -104.85 -132.3 -107.15 -129.65 -110.7 -128.35 -112.85 -125.9 -116.75 -128.95 -118.85 -129.7 -117.75 -131.9 -112.65 -133.65 -108.7 -135.6 -107.15 -135.5 -110.1 -133.1 -113.85 -130.7 -117.6 -130.6 -120.55 -133.9 -120.95 -136.35 -114.2 -137.45 -111.1 -138.1 -110.35 -139.15 -109.05 -140.65 -110.5 L-135.8 -117.8 Q-133.05 -122.5 -137.3 -123.9 -140.15 -115.85 -142.75 -110.9 -146.25 -104.4 -150.7 -100.45 -150.1 -103.25 -147.85 -106.85 L-143.6 -113.05 Q-138.55 -120.6 -140.65 -125.55 -141.05 -122.0 -143.15 -118.9 L-147.35 -113.85 Q-147.7 -116.2 -144.3 -121.25 -141.6 -125.35 -144.0 -127.25 -146.3 -122.85 -147.55 -120.75 -149.7 -117.05 -152.35 -115.5 -151.65 -117.95 -148.85 -122.05 -146.25 -125.95 -145.65 -128.9 -149.1 -128.4 -151.2 -123.6 -153.6 -118.25 -155.7 -117.2 -155.25 -120.85 -153.0 -124.5 L-149.0 -130.6 Q-152.8 -130.6 -154.85 -126.4 -157.35 -121.4 -159.05 -120.55 -159.3 -123.65 -156.7 -126.55 -154.05 -129.6 -154.05 -132.25 -158.05 -130.95 -161.1 -124.25 -164.4 -117.15 -167.45 -115.5 -167.15 -117.7 -165.1 -121.05 L-161.3 -126.75 Q-157.0 -133.45 -160.75 -135.6 -161.15 -132.05 -163.25 -128.95 L-167.45 -123.9 Q-167.8 -126.25 -164.4 -131.3 -161.65 -135.4 -164.1 -137.3 L-167.15 -130.75 Q-169.25 -126.45 -170.8 -128.9 -170.5 -130.85 -168.05 -133.7 -165.8 -136.25 -165.75 -138.95 -169.2 -138.45 -171.3 -133.65 -173.7 -128.3 -175.8 -127.25 -176.2 -130.15 -171.7 -136.2 -170.0 -138.5 -169.95 -139.65 -169.9 -141.3 -172.45 -142.3 -173.3 -138.2 -175.2 -134.55 -177.55 -130.0 -179.15 -132.25 -179.15 -133.4 -175.5 -138.2 -172.8 -141.85 -175.8 -144.0 L-182.25 -132.05 Q-186.1 -125.1 -189.2 -120.55 -187.85 -125.95 -183.65 -133.4 -178.85 -141.9 -177.5 -145.65 -181.1 -145.45 -182.9 -140.15 -184.75 -134.55 -187.55 -133.95 L-180.85 -147.35 Q-185.0 -147.45 -186.85 -142.45 L-188.3 -138.5 Q-189.35 -136.4 -190.9 -135.6 -190.75 -138.6 -188.35 -142.3 -185.95 -146.05 -185.85 -149.0 -189.3 -149.1 -190.7 -144.65 -192.35 -139.65 -194.25 -138.95 -194.0 -141.9 -192.1 -145.2 -189.65 -149.35 -189.2 -150.7 -193.15 -151.05 -194.85 -146.3 -195.85 -143.5 -196.35 -142.75 -197.4 -141.0 -199.25 -140.65 L-192.55 -154.05 Q-197.5 -153.05 -200.3 -145.85 L-202.55 -140.15 Q-204.0 -137.05 -205.95 -135.6 -205.85 -138.9 -201.2 -146.35 -197.35 -152.55 -199.25 -155.7 -200.5 -154.4 -202.5 -150.6 -204.35 -147.0 -205.95 -145.65 -205.7 -148.6 -203.8 -151.9 -201.4 -156.0 -200.95 -157.4 -204.9 -157.75 -206.6 -153.0 -207.6 -150.2 -208.05 -149.45 -209.15 -147.7 -211.0 -147.35 -210.8 -148.55 -209.55 -150.6 L-207.3 -154.1 Q-204.8 -158.5 -207.65 -160.75 -208.45 -157.55 -210.45 -154.35 L-214.35 -149.0 Q-214.7 -151.35 -211.3 -156.4 -208.55 -160.5 -211.0 -162.4 -212.4 -161.15 -214.75 -156.15 -216.8 -151.85 -219.35 -150.7 L-212.65 -164.1 Q-217.6 -162.15 -221.15 -154.15 -225.3 -144.55 -227.7 -142.3 -227.4 -146.05 -222.15 -154.75 -217.75 -162.0 -219.35 -165.75 L-222.0 -160.05 Q-223.55 -156.5 -226.05 -155.7 -225.85 -156.9 -224.6 -158.95 L-222.35 -162.5 Q-219.85 -166.85 -222.7 -169.1 -223.5 -167.95 -225.7 -162.9 -227.4 -158.95 -229.4 -157.4 -229.25 -160.35 -226.85 -164.1 -224.45 -167.8 -224.35 -170.8 -228.0 -170.6 -229.75 -165.3 -231.6 -159.65 -234.4 -159.05 -234.2 -160.25 -232.95 -162.3 L-230.75 -165.85 Q-228.25 -170.2 -231.05 -172.45 -231.85 -171.3 -234.05 -166.25 -235.8 -162.3 -237.75 -160.75 -237.65 -163.7 -235.25 -167.45 -232.85 -171.2 -232.75 -174.15 -236.85 -173.0 -239.3 -166.45 -242.1 -159.05 -244.45 -157.4 -243.5 -161.6 -240.65 -166.95 -236.85 -173.95 -236.1 -175.8 -240.05 -176.15 -241.75 -171.4 L-243.2 -167.85 Q-244.3 -166.1 -246.15 -165.75 -245.95 -166.95 -244.7 -169.0 L-242.45 -172.55 Q-239.95 -176.9 -242.8 -179.15 L-245.75 -172.95 Q-247.5 -169.0 -249.5 -167.45 -249.35 -170.4 -246.95 -174.15 -244.55 -177.85 -244.45 -180.85 -248.05 -180.65 -249.85 -175.35 -251.7 -169.7 -254.5 -169.1 L-247.8 -182.5 Q-251.95 -182.6 -253.8 -177.6 L-255.3 -173.65 Q-256.3 -171.55 -257.85 -170.8 -258.1 -173.05 -254.5 -178.75 -251.7 -183.25 -254.5 -185.85 -255.75 -183.9 -260.5 -173.45 -264.05 -165.7 -267.9 -162.4 -267.25 -164.6 -261.15 -175.35 -256.6 -183.35 -257.85 -187.55 L-260.85 -181.3 Q-262.6 -177.35 -264.55 -175.8 -264.45 -178.75 -262.05 -182.5 -259.65 -186.25 -259.55 -189.2 -263.15 -189.0 -264.95 -183.7 -266.8 -178.1 -269.6 -177.5 L-262.9 -190.9 Q-267.05 -191.0 -268.9 -186.0 L-270.35 -182.0 Q-271.4 -179.9 -272.95 -179.15 -272.8 -182.1 -270.4 -185.85 -268.0 -189.6 -267.9 -192.55 -271.35 -192.65 -272.75 -188.2 -274.4 -183.2 -276.3 -182.5 -276.5 -184.35 -275.25 -186.7 L-272.95 -190.45 Q-270.45 -194.55 -274.6 -195.9 -277.6 -187.75 -278.6 -185.65 -281.2 -180.2 -284.65 -177.5 -284.2 -179.5 -282.45 -182.45 L-279.25 -187.55 Q-275.55 -193.8 -277.95 -197.55 -278.75 -196.4 -280.95 -191.35 -282.7 -187.4 -284.65 -185.85 -284.55 -188.8 -282.15 -192.55 -279.75 -196.3 -279.65 -199.25 -283.25 -199.05 -285.0 -193.75 -286.85 -188.15 -289.7 -187.55 L-283.0 -200.9 Q-286.95 -201.25 -288.65 -196.55 -289.65 -193.75 -290.1 -193.0 -291.2 -191.25 -293.05 -190.9 -292.85 -192.1 -291.6 -194.1 L-289.35 -197.65 Q-286.85 -202.0 -289.7 -204.25 L-292.65 -198.05 Q-294.4 -194.1 -296.4 -192.55 -296.25 -195.5 -293.85 -199.25 -291.45 -203.0 -291.35 -205.95 -295.6 -204.8 -299.6 -194.55 -301.5 -189.65 -302.55 -188.1 -304.3 -185.4 -306.45 -185.85 -303.55 -189.7 -300.25 -196.4 L-294.7 -207.6 Q-298.0 -208.05 -300.45 -201.25 -301.55 -198.15 -302.2 -197.4 -303.25 -196.1 -304.75 -197.55 -300.95 -202.8 -298.05 -209.3 -302.0 -209.65 -303.7 -204.9 -304.7 -202.1 -305.2 -201.35 -306.25 -199.6 -308.1 -199.25 -307.65 -200.6 -305.2 -204.75 -303.35 -208.0 -303.1 -210.95 -305.45 -211.1 -306.65 -209.5 -307.35 -208.55 -308.1 -205.95 -308.85 -203.35 -309.6 -202.4 -310.8 -200.8 -313.15 -200.9 -309.75 -205.65 -308.25 -208.25 -305.55 -212.95 -309.8 -214.3 -311.0 -209.6 -312.05 -207.4 -313.75 -204.0 -316.45 -202.6 -316.3 -203.8 -315.05 -205.85 L-312.8 -209.4 Q-310.35 -213.75 -313.15 -216.0 L-317.85 -206.05 Q-320.75 -199.5 -323.15 -200.9 -322.35 -203.05 -318.5 -208.8 -315.35 -213.45 -314.8 -217.65 -318.4 -217.45 -320.2 -212.15 -322.05 -206.55 -324.85 -205.95 L-318.15 -219.35 Q-322.1 -219.7 -323.8 -214.95 -324.8 -212.15 -325.25 -211.4 -326.35 -209.65 -328.2 -209.3 -328.0 -210.5 -326.75 -212.55 L-324.5 -216.1 Q-322.0 -220.45 -324.85 -222.7 L-327.8 -216.5 Q-329.55 -212.55 -331.55 -210.95 -331.4 -213.95 -329.0 -217.65 -326.6 -221.4 -326.5 -224.35 -330.1 -224.15 -331.9 -218.85 -333.75 -213.25 -336.55 -212.65 L-329.85 -226.05 Q-333.1 -225.55 -335.5 -222.0 -337.0 -219.8 -339.0 -214.65 -341.0 -209.6 -342.15 -208.0 -344.05 -205.25 -346.6 -205.95 -341.75 -212.8 -339.35 -216.65 -335.0 -223.7 -336.55 -227.7 L-339.65 -221.2 Q-341.7 -216.9 -343.25 -219.35 -342.95 -221.3 -340.5 -224.15 -338.25 -226.7 -338.25 -229.4 -341.1 -229.75 -343.85 -223.7 -345.05 -221.1 -345.75 -220.45 -346.85 -219.45 -348.3 -221.0 L-343.25 -227.25 Q-340.65 -231.5 -344.95 -232.75 -345.75 -228.7 -347.65 -225.0 -350.0 -220.4 -351.65 -222.7 -351.65 -223.85 -348.0 -228.65 -345.25 -232.25 -348.3 -234.4 L-351.35 -227.9 Q-353.45 -223.6 -355.0 -226.05 L-351.9 -230.5 Q-349.9 -233.1 -349.95 -236.1 -353.8 -234.8 -356.85 -227.95 -360.0 -220.85 -363.35 -219.35 -363.1 -221.6 -361.0 -224.9 L-357.05 -230.45 Q-352.6 -237.0 -356.65 -239.45 -357.5 -235.35 -359.4 -231.7 -361.75 -227.1 -363.35 -229.4 -360.75 -232.95 -359.45 -235.1 -357.0 -239.0 -360.0 -241.1 -360.8 -239.95 -363.0 -234.9 -364.75 -230.95 -366.7 -229.4 -367.25 -233.1 -364.4 -236.3 -361.5 -239.65 -361.7 -242.8 -365.0 -243.2 -367.45 -236.4 -368.55 -233.35 -369.2 -232.6 -370.25 -231.3 -371.75 -232.75 -367.8 -238.15 -365.05 -244.45 -368.7 -245.4 -371.1 -239.2 -372.25 -236.3 -372.75 -235.7 -373.7 -234.55 -375.1 -236.1 L-372.0 -240.55 Q-370.0 -243.15 -370.05 -246.15 -374.5 -243.7 -378.25 -235.9 -382.7 -226.75 -385.15 -224.35 -383.95 -229.75 -379.7 -236.5 -374.65 -244.7 -373.4 -247.8 -377.75 -251.8 -381.75 -246.0 -383.95 -242.85 -386.8 -236.1 -395.6 -220.25 -404.55 -202.3 -413.35 -184.7 -420.3 -169.1 -292.2 -103.15 -21.1 40.4 239.3 178.3 378.45 249.55 383.65 237.85 399.0 209.8 412.55 185.15 418.65 169.15 417.5 168.9 414.85 167.1 412.65 165.65 410.25 165.8 406.75 175.1 405.45 177.75 402.4 184.1 398.55 187.55 L410.25 164.1 Q406.65 164.3 404.9 169.65 403.05 175.25 400.25 175.85 L406.95 162.45 Q402.8 162.35 400.95 167.35 L399.45 171.3 Q398.45 173.4 396.9 174.15 397.0 171.2 399.4 167.5 401.8 163.75 401.9 160.8 398.45 160.7 397.05 165.1 395.45 170.1 393.55 170.8 393.8 167.85 395.7 164.6 L398.55 159.1 Q394.6 158.75 392.9 163.5 L391.45 167.05 Q390.35 168.8 388.5 169.15 388.7 167.95 389.95 165.9 L392.2 162.35 Q394.7 158.0 391.85 155.75 390.9 157.4 387.2 165.35 384.4 171.3 381.8 174.15 382.55 170.15 386.0 164.15 389.5 158.15 390.2 154.1 386.75 154.0 385.35 158.4 383.7 163.4 381.8 164.1 382.05 161.2 383.95 157.9 386.4 153.75 386.85 152.4 382.85 152.05 381.15 156.8 L379.7 160.35 Q378.65 162.1 376.8 162.45 377.0 161.25 378.25 159.2 L380.45 155.65 Q382.95 151.3 380.15 149.05 379.35 150.2 377.15 155.25 375.4 159.2 373.45 160.8 373.1 158.45 376.5 153.4 379.2 149.3 376.8 147.4 375.35 148.65 373.0 153.65 371.0 157.95 368.4 159.1 L375.1 145.7 Q370.7 148.1 366.9 155.9 362.5 165.05 360.05 167.45 361.45 161.85 365.3 155.15 L371.75 144.05 Q368.45 143.65 366.0 150.4 364.9 153.5 364.25 154.25 363.2 155.55 361.7 154.1 365.7 148.6 368.4 142.35 364.75 141.4 362.35 147.6 361.2 150.5 360.7 151.1 359.75 152.3 358.35 150.75 L362.3 145.05 Q364.7 141.1 361.7 139.0 360.9 139.85 358.6 145.9 356.9 150.35 353.35 150.75 L357.3 144.65 Q359.55 141.0 360.05 137.35 356.7 136.95 354.25 143.7 353.15 146.8 352.55 147.55 351.5 148.85 350.0 147.4 L353.9 141.7 Q356.35 137.75 353.35 135.65 L348.9 144.6 Q346.2 149.7 343.3 152.4 343.8 148.55 347.6 143.3 351.25 138.15 351.65 134.0 349.3 133.85 348.1 135.45 347.35 136.4 346.65 139.05 345.9 141.65 345.15 142.6 343.95 144.2 341.6 144.05 L346.5 136.7 Q349.2 132.0 344.95 130.65 343.75 135.3 342.65 137.55 340.95 140.95 338.25 142.35 338.45 141.15 339.7 139.1 L341.95 135.6 Q344.45 131.2 341.6 128.95 340.9 130.05 338.65 135.15 336.9 139.1 334.9 140.7 335.05 137.7 337.45 134.0 339.85 130.25 339.95 127.3 336.35 127.5 334.55 132.8 332.7 138.4 329.9 139.0 L336.6 125.6 Q331.45 127.25 327.75 136.05 L324.7 142.6 Q322.65 145.95 319.85 147.4 320.45 144.6 322.7 141.0 L326.95 134.8 Q332.0 127.25 329.9 122.25 329.05 126.35 327.15 130.0 324.8 134.6 323.2 132.3 323.2 131.15 326.85 126.35 329.6 122.75 326.55 120.6 325.7 121.45 323.4 127.5 321.7 131.9 318.2 132.3 318.75 130.15 321.9 126.0 324.65 122.4 324.85 118.9 321.25 119.1 319.5 124.4 317.65 130.05 314.85 130.65 314.3 128.1 318.1 123.45 321.2 119.7 318.2 117.25 L315.1 123.75 Q313.05 128.05 311.5 125.6 311.85 124.8 314.6 121.15 316.55 118.55 316.5 115.55 312.65 116.85 309.6 123.7 306.45 130.8 303.1 132.3 303.35 130.05 305.45 126.75 L309.4 121.2 Q313.85 114.65 309.8 112.2 308.95 116.3 307.05 119.95 304.7 124.55 303.1 122.25 L307.05 116.55 Q309.45 112.65 306.45 110.55 305.75 111.6 303.5 116.75 301.75 120.7 299.75 122.25 299.2 118.55 302.05 115.35 305.0 112.0 304.8 108.85 301.45 108.45 299.0 115.25 297.9 118.35 297.3 119.05 296.25 120.35 294.75 118.9 L299.6 111.6 Q302.35 106.9 298.1 105.5 297.25 109.6 295.35 113.25 293.0 117.85 291.4 115.55 L295.3 109.85 Q297.75 105.95 294.75 103.85 L288.55 116.1 Q284.85 122.9 281.35 127.3 281.65 122.75 287.7 114.0 292.9 106.4 291.4 102.15 L287.85 108.65 Q285.65 112.35 283.0 113.9 L289.7 100.5 Q286.1 101.0 283.95 105.6 281.3 111.1 279.65 112.2 279.3 109.85 282.7 104.8 285.45 100.7 283.0 98.8 279.7 105.75 276.3 108.85 276.55 105.9 278.45 102.65 280.9 98.5 281.35 97.15 277.95 97.35 275.9 101.75 273.7 106.55 271.3 107.2 271.4 105.55 272.95 103.25 L275.75 99.45 Q278.75 95.2 274.65 93.8 273.3 98.45 270.2 103.6 L264.6 112.2 Q264.7 108.95 269.3 101.45 273.2 95.25 271.3 92.1 268.0 99.05 264.6 102.15 264.35 99.05 266.95 96.15 269.6 93.15 269.6 90.45 266.2 91.0 264.05 95.8 261.7 101.15 259.55 102.15 259.25 99.95 260.7 97.35 261.2 96.5 263.65 93.2 265.35 90.95 265.4 89.75 265.45 88.15 262.9 87.1 M423.65 170.8 Q417.3 184.45 401.75 213.35 387.15 240.55 380.15 256.2 L378.45 256.2 Q265.1 195.7 -23.75 43.85 -279.65 -90.65 -425.3 -169.1 -418.9 -184.85 -403.6 -212.7 -388.05 -241.1 -381.8 -256.2 L-378.45 -256.2 -378.45 -254.5 Q-236.05 -181.05 23.65 -43.7 300.7 102.8 425.35 167.45 L425.35 170.8 423.65 170.8" fill="#373535" fill-rule="evenodd" stroke="none"/>
    <path d="M-392.5 -218.1 Q-390.15 -221.95 -385.15 -221.0 -384.05 -211.3 -391.85 -210.95 -394.8 -214.3 -392.5 -218.1" fill="#373535" fill-rule="evenodd" stroke="none"/>
    <path d="M-309.9 -178.9 Q-311.45 -178.8 -311.45 -177.5 -313.05 -178.0 -312.8 -178.9 -312.55 -179.65 -311.2 -180.25 -307.5 -181.8 -306.45 -179.15 -305.2 -176.4 -309.45 -174.25 -311.25 -173.35 -311.5 -172.8 -311.85 -172.0 -309.8 -170.8 -310.75 -167.8 -312.9 -169.8 -315.9 -172.5 -316.45 -172.45 -315.95 -174.05 -312.1 -174.75 -308.4 -175.45 -308.1 -177.5 -308.4 -179.0 -309.9 -178.9" fill="#373535" fill-rule="evenodd" stroke="none"/>
    <path d="M-157.4 -87.05 Q-159.0 -88.6 -158.75 -91.0 -158.5 -93.15 -156.95 -94.95 -155.3 -96.8 -153.25 -97.1 -150.9 -97.4 -149.0 -95.45 -152.1 -95.65 -152.6 -94.65 -152.85 -94.2 -152.25 -92.25 -151.05 -88.2 -157.4 -87.05" fill="#373535" fill-rule="evenodd" stroke="none"/>
    <path d="M-113.85 -75.35 Q-116.35 -77.2 -113.75 -76.55 L-108.85 -75.35 Q-109.4 -73.2 -113.15 -71.3 -116.8 -69.45 -117.2 -66.95 -120.3 -68.2 -115.8 -71.45 L-113.0 -73.7 Q-112.1 -74.8 -113.85 -75.35" fill="#373535" fill-rule="evenodd" stroke="none"/>
    <path d="M-75.35 -56.9 Q-71.25 -55.95 -72.3 -51.65 -72.8 -49.75 -75.35 -45.2 L-77.5 -46.4 Q-78.8 -46.9 -80.35 -46.85 -81.1 -50.35 -78.4 -52.45 -75.4 -54.8 -75.35 -56.9" fill="#373535" fill-rule="evenodd" stroke="none"/>
    <path d="M-31.8 -35.15 Q-30.8 -25.4 -38.5 -25.1 -41.05 -28.05 -38.9 -32.0 -36.7 -36.1 -31.8 -35.15" fill="#373535" fill-rule="evenodd" stroke="none"/>
    <path d="M3.35 -13.4 L8.4 -13.4 Q10.95 -10.45 8.8 -6.5 6.6 -2.4 1.7 -3.35 1.05 -6.2 2.1 -8.8 3.35 -11.9 3.35 -13.4" fill="#373535" fill-rule="evenodd" stroke="none"/>
    <path d="M86.6 31.0 Q86.2 30.45 82.05 30.15 82.4 28.75 84.65 28.6 L88.75 28.5 Q89.5 32.25 87.3 33.75 86.0 34.6 82.05 35.2 82.1 36.2 83.25 36.5 L85.4 36.85 Q84.8 39.6 82.8 38.15 80.1 36.15 78.7 36.85 78.75 35.35 84.9 32.4 86.9 31.45 86.6 31.0" fill="#373535" fill-rule="evenodd" stroke="none"/>
    <path d="M127.3 48.6 Q127.9 51.15 126.45 53.6 125.0 56.05 125.6 58.65 122.05 59.0 120.4 57.95 118.55 56.75 118.9 53.6 119.35 56.45 122.65 56.45 123.8 56.45 123.9 55.75 123.95 54.9 122.25 53.6 122.35 52.85 125.0 51.2 126.2 50.4 122.25 50.25 122.4 49.05 124.1 48.8 L127.3 48.6" fill="#373535" fill-rule="evenodd" stroke="none"/>
    <path d="M160.75 73.7 Q162.35 75.65 165.8 77.05 165.6 77.85 164.0 78.6 162.45 79.25 162.45 80.4 159.45 78.95 159.1 73.7 160.25 73.45 162.9 71.65 165.1 70.2 167.45 70.35 L166.25 72.5 Q165.75 73.85 165.8 75.35 L163.65 74.2 Q162.3 73.65 160.75 73.7" fill="#373535" fill-rule="evenodd" stroke="none"/>
    <path d="M207.5 93.25 L206.8 93.1 Q203.95 92.05 202.65 92.1 202.65 93.5 204.8 95.0 206.65 96.3 206.0 98.8 204.35 100.4 201.8 100.4 199.25 100.4 197.6 98.8 198.45 96.45 200.75 97.75 203.2 99.2 204.3 97.15 204.15 95.95 202.45 95.7 L199.3 95.45 Q199.6 94.4 201.05 93.05 202.45 91.7 202.65 90.45 205.35 90.05 206.0 92.1 L207.5 93.25" fill="#373535" fill-rule="evenodd" stroke="none"/>
    <path d="M241.15 110.55 Q242.65 110.3 243.9 111.15 245.3 112.15 246.15 112.2 246.45 114.05 245.05 116.15 243.75 118.1 244.5 120.6 L237.8 120.6 Q236.95 117.0 238.4 114.5 L241.15 110.55" fill="#373535" fill-rule="evenodd" stroke="none"/>
    <path d="M279.65 132.3 Q280.15 129.2 283.0 131.15 285.8 133.05 284.7 135.65 282.5 135.65 280.6 138.25 278.75 140.85 276.3 140.7 276.3 139.7 279.95 136.35 282.65 133.85 279.65 132.3" fill="#373535" fill-rule="evenodd" stroke="none"/>
    <path d="M311.5 149.05 L316.5 149.05 Q316.45 151.7 314.25 154.3 311.8 157.15 311.5 159.1 310.1 158.1 311.75 154.95 313.55 151.5 311.5 149.05" fill="#373535" fill-rule="evenodd" stroke="none"/>
    <path d="M323.2 152.4 Q323.8 154.95 322.35 157.45 320.9 159.9 321.5 162.45 317.7 163.1 316.15 161.45 314.8 160.05 315.5 157.6 316.2 155.25 318.3 153.7 320.6 151.95 323.2 152.4" fill="#373535" fill-rule="evenodd" stroke="none"/>
    <path d="M363.4 180.85 Q360.15 183.3 355.0 182.55 354.85 178.95 356.05 179.7 358.65 181.3 360.05 180.85 359.9 180.25 357.35 178.5 355.55 177.25 356.7 174.15 358.05 173.3 358.85 173.0 360.15 172.45 361.7 172.5 364.05 175.8 363.4 180.85" fill="#373535" fill-rule="evenodd" stroke="none"/>
    <path d="M390.45 189.85 Q394.1 188.3 395.2 190.9 396.45 193.65 392.2 195.85 390.4 196.75 390.15 197.25 389.8 198.1 391.85 199.3 391.6 201.55 389.2 199.85 385.9 197.5 385.15 197.6 387.35 193.9 393.55 194.25 394.2 191.85 392.25 191.25 390.3 190.7 390.2 192.6 388.6 192.1 388.85 191.2 389.05 190.4 390.45 189.85" fill="#373535" fill-rule="evenodd" stroke="none"/>
    <path d="M393.55 202.65 Q392.45 192.9 400.25 192.6 403.1 195.85 401.15 199.95 399.05 204.25 393.55 202.65" fill="#373535" fill-rule="evenodd" stroke="none"/>
  </g>
</svg>
