<?xml version="1.0" encoding="UTF-8" standalone="no"?>
<svg xmlns:xlink="http://www.w3.org/1999/xlink" height="1192.5px" width="1355.1px" xmlns="http://www.w3.org/2000/svg">
  <g transform="matrix(1, 0, 0, 1, 678.0, 596.25)">
    <path d="M-72.6 -550.85 L-71.2 -551.2 Q-60.0 -553.9 -58.7 -545.95 -58.45 -544.45 -58.5 -539.0 -58.5 -534.8 -57.6 -533.2 -45.4 -516.6 -24.7 -474.15 -5.2 -434.1 -5.2 -428.8 -5.2 -426.4 -6.15 -424.45 L-4.5 -422.0 Q3.75 -409.5 21.2 -376.0 29.35 -362.85 41.75 -337.35 54.0 -312.15 54.0 -308.8 L53.9 -304.9 57.45 -299.6 Q61.15 -293.65 69.75 -277.2 77.8 -261.95 81.2 -256.8 89.3 -248.3 101.3 -221.7 112.4 -197.1 112.4 -192.0 L140.0 -144.9 163.7 -104.6 Q167.35 -102.4 174.3 -92.45 178.55 -86.4 188.85 -70.1 198.85 -54.3 203.6 -47.6 209.85 -38.1 228.7 -15.7 248.7 8.0 256.8 19.6 269.55 37.85 291.4 60.5 300.1 69.5 329.3 97.85 351.0 118.85 359.85 129.65 367.85 139.4 370.75 146.6 L375.65 150.35 Q380.45 154.4 391.45 164.8 401.5 174.0 407.6 177.2 L428.7 197.7 Q443.7 212.0 452.0 219.2 471.15 235.85 528.65 268.7 557.25 285.05 582.0 298.4 582.0 302.1 561.6 310.0 540.95 318.0 530.4 318.0 L513.85 316.9 Q498.85 315.9 492.8 316.4 L451.2 316.4 Q448.35 315.65 445.7 315.8 L441.75 316.25 Q437.7 316.5 433.2 312.0 415.45 311.9 405.6 312.2 L399.45 312.5 Q400.0 312.2 399.15 311.45 397.45 309.95 389.2 307.6 L337.2 307.6 Q317.55 306.45 283.25 313.65 L259.55 318.8 Q247.95 321.2 243.2 321.2 236.2 321.2 229.7 319.3 222.5 316.8 218.0 315.6 L177.6 314.8 163.2 314.2 148.8 314.8 78.4 314.8 Q65.4 313.8 51.2 315.85 30.75 318.8 6.4 319.6 L-40.0 319.6 Q-54.2 315.6 -74.4 315.0 L-85.5 314.15 Q-90.4 313.2 -93.2 310.4 -101.0 310.3 -119.8 312.7 -140.15 315.3 -152.4 315.6 -151.05 318.35 -153.7 322.0 -156.6 326.0 -161.6 326.0 -168.0 326.0 -169.2 322.25 -169.6 321.05 -169.45 319.5 L-169.2 318.0 Q-169.2 316.45 -164.95 303.75 L-165.25 300.75 -165.85 292.25 Q-168.15 289.55 -169.8 285.75 -179.0 292.35 -195.85 301.55 -228.15 319.2 -279.55 341.65 -327.7 362.65 -368.8 377.6 -411.65 393.2 -422.4 393.2 -427.6 393.2 -429.25 391.05 L-433.95 392.75 Q-448.2 397.75 -464.0 401.2 L-524.8 401.2 Q-545.7 396.15 -568.55 385.05 -590.45 374.45 -609.15 360.7 -628.15 346.8 -639.15 333.2 -650.8 318.7 -650.8 307.6 L-650.75 306.35 Q-657.25 298.05 -666.35 270.85 -670.55 258.35 -674.65 243.75 L-678.0 231.2 -674.8 222.6 Q-671.6 214.4 -671.6 211.0 L-673.2 189.5 -674.8 168.0 Q-674.8 151.45 -669.7 129.85 -667.3 119.55 -659.2 92.4 -651.0 65.2 -638.2 41.5 L-634.1 34.5 -634.4 34.4 -634.6 32.75 -634.8 29.0 Q-634.8 27.05 -628.0 14.85 -621.15 2.6 -611.75 -12.15 -587.5 -50.4 -576.4 -59.2 -572.25 -62.5 -570.2 -70.65 -568.15 -79.05 -564.8 -82.0 -558.5 -87.7 -553.3 -93.1 L-543.2 -103.6 Q-534.3 -112.5 -524.05 -126.9 -516.25 -137.95 -504.8 -146.8 -484.95 -162.25 -437.3 -201.3 -388.3 -241.5 -366.1 -258.9 -328.7 -288.25 -309.7 -299.3 -300.85 -304.5 -295.45 -306.1 -294.1 -312.15 -280.9 -322.75 -268.1 -333.1 -246.55 -345.85 -226.9 -357.55 -207.0 -367.15 -187.15 -376.75 -176.8 -379.6 -170.9 -394.3 -160.55 -423.6 -150.7 -449.95 -140.4 -468.4 -136.4 -475.55 -130.05 -490.2 L-120.0 -512.8 Q-118.2 -516.45 -117.75 -524.1 -117.2 -532.85 -116.4 -535.6 -115.8 -537.75 -112.6 -541.2 -109.3 -544.75 -105.8 -546.85 -96.4 -552.55 -96.4 -542.2 -96.4 -536.15 -104.15 -516.0 -102.8 -511.9 -102.8 -500.4 -102.8 -494.15 -102.25 -482.25 L-101.95 -490.65 -101.6 -517.6 Q-100.35 -517.8 -96.95 -517.65 L-91.3 -516.95 -91.45 -514.55 -92.4 -498.8 Q-92.4 -479.6 -92.0 -471.2 L-86.4 -469.2 -86.25 -469.35 -84.8 -469.2 Q-79.85 -469.2 -78.85 -475.6 L-78.8 -484.6 -78.8 -485.1 Q-76.0 -493.55 -74.1 -504.55 -70.8 -523.45 -70.8 -544.4 -70.8 -547.45 -72.6 -550.85 M-91.05 -521.0 Q-91.5 -530.35 -90.4 -536.05 -90.55 -530.35 -91.05 -521.0 M-127.55 -141.8 L-118.4 -169.7 Q-111.6 -190.05 -108.95 -204.9 -105.2 -225.75 -105.2 -254.8 -105.2 -272.3 -106.45 -281.4 -107.25 -287.1 -109.2 -292.3 -111.25 -297.7 -111.95 -302.15 -113.2 -310.05 -113.2 -325.6 -113.2 -327.6 -111.6 -346.0 -110.0 -364.4 -110.0 -366.4 L-110.25 -370.65 Q-113.15 -348.7 -116.95 -321.75 -124.9 -265.9 -133.2 -211.2 L-133.2 -210.4 Q-127.6 -213.55 -123.85 -211.9 -120.4 -210.35 -120.4 -205.6 L-131.05 -155.05 -136.0 -130.8 Q-140.25 -121.4 -143.6 -108.4 -143.6 -101.2 -146.05 -84.25 -148.5 -67.6 -148.4 -60.4 L-148.4 -58.65 -155.8 0.7 -158.2 18.25 Q-162.95 50.85 -168.4 74.0 L-168.0 74.4 -165.0 71.85 Q-163.6 70.95 -161.5 70.85 -169.25 99.7 -175.6 157.6 L-174.0 187.65 Q-171.4 217.2 -166.4 217.2 -162.0 217.2 -160.85 213.25 -160.4 211.75 -160.4 206.6 -160.4 164.5 -157.2 135.2 -154.7 112.35 -147.3 94.05 -144.1 86.05 -143.0 81.15 -141.2 73.3 -141.2 62.0 -141.2 58.55 -144.0 46.25 L-146.8 33.8 Q-146.8 30.5 -142.4 19.7 -138.0 8.9 -138.0 0.8 -138.0 -10.0 -137.2 -31.65 -136.4 -53.3 -136.4 -62.8 -136.4 -66.3 -134.6 -75.6 L-134.4 -75.6 Q-129.9 -75.6 -128.75 -79.6 -128.4 -80.95 -128.4 -86.2 -128.4 -91.65 -130.25 -94.85 L-130.35 -95.0 Q-125.2 -117.55 -125.2 -126.4 -125.2 -139.95 -127.55 -141.8 M-170.5 82.0 Q-171.0 83.5 -171.6 84.4 L-171.6 98.8 -171.2 98.8 Q-170.25 84.25 -169.6 79.2 L-170.0 79.6 Q-170.0 80.5 -170.5 82.0 M-174.4 183.1 Q-176.75 187.25 -179.05 190.15 -178.35 196.15 -176.95 202.95 L-172.85 220.95 -174.0 193.0 -174.4 183.1 M-185.65 341.25 Q-187.3 340.4 -189.0 340.4 -191.6 340.4 -191.85 347.2 -192.0 350.9 -191.6 358.0 -192.7 362.2 -192.9 367.1 L-192.9 367.75 -193.2 366.45 -198.0 343.0 Q-198.0 336.65 -194.6 336.2 -191.65 335.75 -187.2 339.75 L-185.65 341.25 M-193.0 372.3 L-193.0 375.9 -193.0 383.05 Q-192.4 390.0 -189.4 390.0 -188.45 390.0 -187.6 390.9 -186.75 391.8 -185.6 391.8 -183.15 391.8 -182.8 388.3 L-182.75 383.6 -182.5 382.6 -182.45 382.65 -181.65 383.6 -179.2 383.6 Q-178.4 382.65 -177.15 380.4 -176.9 374.25 -175.3 370.05 -173.65 365.6 -171.2 364.95 -168.85 364.35 -167.15 367.5 -164.0 365.55 -160.0 365.2 L-105.6 365.2 Q-78.7 372.05 -62.4 379.35 -48.65 385.5 -39.35 393.5 -34.75 397.5 -24.55 409.0 -15.0 419.85 -6.0 427.2 110.4 427.6 113.2 428.4 L169.6 429.2 172.4 430.0 187.6 430.0 Q188.0 428.55 189.55 426.5 191.5 423.85 193.6 422.8 L249.6 422.8 Q266.6 426.4 324.8 434.0 L390.4 434.0 Q393.35 436.2 395.95 440.55 398.0 444.1 398.0 445.0 398.0 448.2 394.85 450.45 392.0 452.4 388.8 452.4 L378.75 451.7 Q378.55 454.6 377.85 456.25 377.05 458.15 374.85 459.8 L369.5 463.5 Q365.95 466.2 362.45 469.9 L388.0 469.6 Q392.25 468.4 407.7 466.2 L444.8 461.6 462.1 461.6 Q471.25 458.4 489.6 458.4 505.1 458.4 508.1 480.35 509.6 491.4 508.0 503.2 508.0 507.5 508.5 516.5 508.75 524.65 507.7 530.25 506.8 535.15 504.7 539.55 L504.4 539.2 504.6 538.2 504.1 535.3 Q503.6 532.65 503.6 531.6 L503.4 524.85 503.8 513.5 Q503.8 507.85 503.3 504.1 502.8 500.4 502.8 498.15 502.8 495.6 503.3 492.6 503.8 489.55 503.8 486.0 503.8 481.35 503.4 480.1 L500.05 472.65 498.8 469.15 Q498.0 467.25 496.05 466.05 492.45 464.25 490.1 463.8 486.8 463.2 486.8 465.55 486.8 466.15 487.25 466.7 487.9 467.45 488.2 468.4 L488.2 476.35 489.0 481.8 Q489.6 486.35 489.6 487.95 L489.6 490.65 Q487.6 488.55 484.9 487.55 482.05 486.4 478.4 486.4 L411.15 500.95 Q338.05 516.55 307.6 521.2 L169.6 521.6 Q157.75 523.7 134.45 525.65 112.75 527.4 104.4 529.2 L-53.2 529.2 -214.15 512.05 -376.0 494.4 Q-381.0 493.7 -420.15 484.4 -462.5 474.3 -489.75 469.5 -554.85 458.0 -574.2 467.85 L-587.5 465.3 -592.25 464.1 Q-602.75 461.0 -607.65 456.55 -612.8 451.85 -612.8 444.8 -612.8 441.6 -612.25 439.1 -616.8 433.35 -616.8 431.2 -616.8 419.05 -605.55 422.5 L-604.9 422.05 Q-596.05 416.35 -566.4 410.4 L-476.0 408.8 -473.2 408.3 Q-470.4 407.7 -470.4 407.2 L-358.55 407.2 Q-354.9 397.9 -338.05 389.15 -314.05 376.7 -273.6 371.6 L-230.4 371.6 Q-228.55 372.05 -215.6 376.85 L-197.8 383.4 -198.0 383.0 Q-198.0 378.3 -195.1 377.15 L-194.15 376.9 -193.0 372.3 M-177.65 364.95 Q-177.0 360.85 -177.0 357.5 -177.0 355.8 -177.9 353.05 L-178.1 352.45 Q-176.4 356.55 -176.4 360.0 -176.4 360.8 -177.65 364.95 M-178.55 351.35 L-178.85 350.45 Q-178.85 348.7 -177.3 346.4 -176.4 345.1 -175.35 344.3 -176.8 346.75 -178.55 351.35 M-159.5 343.1 L-152.95 342.25 Q-151.7 343.1 -148.6 343.2 L-159.5 343.1 M-148.2 343.2 L-148.0 343.2 -144.8 343.0 -143.6 343.2 -137.95 343.25 -134.4 343.6 -123.95 343.65 -120.9 344.0 -122.4 344.6 -144.8 344.6 Q-146.2 344.2 -148.2 343.2 M-108.7 339.85 Q-105.6 337.7 -105.6 336.4 -105.6 334.0 -108.6 334.7 L-114.55 335.95 -127.45 335.95 -130.4 335.7 -133.8 335.4 -139.65 335.35 -142.0 335.0 -153.05 334.95 -154.4 334.6 -163.6 334.6 Q-171.05 334.25 -175.45 338.3 -177.9 340.55 -181.4 344.9 -182.65 343.35 -183.9 342.4 -181.55 335.85 -169.6 333.8 L-107.8 333.4 Q-92.35 332.95 -89.65 333.9 L-88.05 334.65 -87.0 334.85 -95.65 336.0 Q-97.2 336.5 -97.2 338.8 -97.2 340.9 -95.95 341.75 -94.65 342.65 -89.9 343.75 -97.0 343.95 -98.7 342.15 L-99.55 340.2 Q-99.85 339.2 -101.0 339.2 L-108.7 339.85 M-80.65 333.95 Q-79.0 333.0 -78.0 333.0 L-75.55 333.25 -80.65 333.95 M-55.45 333.8 L-46.4 333.8 -45.85 334.0 -54.65 333.95 -55.45 333.8 M-43.65 338.5 Q-44.45 340.8 -47.8 342.0 -55.1 344.6 -76.4 344.6 L-79.75 344.2 -65.6 344.2 Q-63.4 343.9 -59.1 342.5 L-52.0 340.35 -45.0 338.9 -43.65 338.5 M502.7 543.15 Q497.85 550.8 488.9 556.8 462.35 574.6 391.15 583.6 364.5 588.55 336.0 592.0 L164.8 592.0 160.8 591.2 158.8 590.8 25.35 590.45 3.2 590.4 -42.2 587.2 -66.35 585.45 -92.4 582.8 -157.95 582.8 -294.4 582.4 -328.7 579.4 -362.8 576.4 -425.6 576.0 Q-434.95 574.35 -443.1 572.0 -454.35 568.8 -463.25 564.3 -467.4 562.2 -470.55 560.05 -473.65 557.95 -475.9 555.8 L-480.9 554.65 Q-520.0 545.65 -520.0 535.4 -520.0 532.7 -519.6 530.4 -534.8 519.3 -545.6 508.0 L-555.4 497.8 -553.05 498.05 -520.8 500.9 Q-498.85 503.35 -480.8 508.4 -461.85 513.8 -440.5 518.4 -414.9 523.95 -396.0 526.0 -318.1 535.05 -218.3 545.25 L-168.45 550.25 -54.4 561.6 107.2 561.6 137.05 558.35 140.85 557.95 172.4 554.0 312.0 553.6 369.85 544.05 Q407.6 537.95 429.3 533.35 480.5 522.45 491.45 510.3 L492.85 523.9 Q493.25 525.5 494.85 528.85 496.4 532.1 496.75 533.8 497.35 536.65 499.3 539.75 500.95 542.3 502.7 543.15 M-151.95 428.95 Q-155.95 426.4 -161.6 427.2 -167.35 428.0 -171.2 431.9 -175.6 436.25 -175.6 442.8 -175.6 451.25 -169.6 455.6 L-155.2 455.6 Q-152.25 453.6 -149.75 446.65 -147.6 440.7 -147.6 437.4 -147.6 431.8 -151.95 428.95 M-275.2 416.8 Q-279.5 420.75 -279.6 428.15 -279.65 426.35 -280.05 430.75 -280.35 434.0 -279.65 436.85 -277.3 446.0 -265.6 446.0 -254.95 446.0 -252.45 441.3 -251.55 439.55 -251.5 436.8 L-251.6 432.2 Q-251.6 424.2 -255.95 419.05 -259.9 414.45 -265.6 413.8 -271.25 413.15 -275.2 416.8 M202.75 483.2 L207.2 483.4 210.7 483.05 202.75 483.2" fill="#ffffff" fill-rule="evenodd" stroke="none"/>
    <path d="M-91.3 -516.95 L-91.05 -521.0 Q-90.55 -530.35 -90.4 -536.05 L-90.4 -537.2 Q-90.05 -549.9 -86.9 -555.2 -84.3 -559.65 -80.2 -558.35 -76.7 -557.25 -73.7 -552.7 L-72.6 -550.85 Q-70.8 -547.45 -70.8 -544.4 -70.8 -523.45 -74.1 -504.55 -76.0 -493.55 -78.8 -485.1 L-78.8 -484.6 -78.85 -475.6 Q-79.85 -469.2 -84.8 -469.2 L-86.25 -469.35 -86.4 -469.2 -92.0 -471.2 Q-92.4 -479.6 -92.4 -498.8 L-91.45 -514.55 -91.3 -516.95 M-136.0 -130.8 L-133.1 -136.75 Q-129.5 -143.35 -127.55 -141.8 -125.2 -139.95 -125.2 -126.4 -125.2 -117.55 -130.35 -95.0 L-130.25 -94.85 Q-128.4 -91.65 -128.4 -86.2 -128.4 -80.95 -128.75 -79.6 -129.9 -75.6 -134.4 -75.6 L-134.6 -75.6 Q-136.4 -66.3 -136.4 -62.8 -136.4 -53.3 -137.2 -31.65 -138.0 -10.0 -138.0 0.8 -138.0 8.9 -142.4 19.7 -146.8 30.5 -146.8 33.8 L-144.0 46.25 Q-141.2 58.55 -141.2 62.0 -141.2 73.3 -143.0 81.15 -144.1 86.05 -147.3 94.05 -154.7 112.35 -157.2 135.2 -160.4 164.5 -160.4 206.6 -160.4 211.75 -160.85 213.25 -162.0 217.2 -166.4 217.2 -171.4 217.2 -174.0 187.65 L-175.6 157.6 Q-169.25 99.7 -161.5 70.85 -157.7 56.8 -153.6 49.6 L-158.7 41.7 Q-159.6 39.9 -159.6 35.6 -159.6 29.75 -158.2 18.25 L-155.8 0.7 -153.85 -11.85 Q-148.55 -44.7 -148.4 -58.65 L-148.4 -60.4 Q-148.5 -67.6 -146.05 -84.25 -143.6 -101.2 -143.6 -108.4 -140.25 -121.4 -136.0 -130.8 M-192.9 367.75 L-192.9 367.1 Q-192.7 362.2 -191.6 358.0 -192.0 350.9 -191.85 347.2 -191.6 340.4 -189.0 340.4 -187.3 340.4 -185.65 341.25 L-183.9 342.4 Q-182.65 343.35 -181.4 344.9 -177.9 340.55 -175.45 338.3 -171.05 334.25 -163.6 334.6 L-154.4 334.6 -153.05 334.95 -142.0 335.0 -139.65 335.35 -133.8 335.4 -130.4 335.7 -127.45 335.95 -114.55 335.95 -108.6 334.7 Q-105.6 334.0 -105.6 336.4 -105.6 337.7 -108.7 339.85 L-110.25 340.85 Q-115.4 344.0 -120.0 344.0 L-120.9 344.0 -123.95 343.65 -134.4 343.6 -137.95 343.25 -143.6 343.2 -144.8 343.0 -148.0 343.2 -148.2 343.2 -148.6 343.2 Q-151.7 343.1 -152.95 342.25 L-159.5 343.1 -160.2 343.2 -173.25 343.3 Q-174.4 343.55 -175.35 344.3 -176.4 345.1 -177.3 346.4 -178.85 348.7 -178.85 350.45 L-178.55 351.35 -178.1 352.45 -177.9 353.05 Q-177.0 355.8 -177.0 357.5 -177.0 360.85 -177.65 364.95 L-177.9 366.25 Q-178.55 369.6 -179.95 374.9 L-181.45 379.25 -182.5 382.6 -182.75 383.6 -182.8 388.3 Q-183.15 391.8 -185.6 391.8 -186.75 391.8 -187.6 390.9 -188.45 390.0 -189.4 390.0 -192.4 390.0 -193.0 383.05 L-193.0 375.9 -193.0 372.3 -192.9 367.75 M-87.0 334.85 L-86.15 334.75 -80.65 333.95 -75.55 333.25 -72.4 332.8 Q-67.85 332.25 -64.85 333.35 L-57.6 333.4 -55.45 333.8 -54.65 333.95 -45.85 334.0 -42.8 334.0 Q-40.8 334.35 -40.8 336.0 -40.8 337.5 -43.65 338.5 L-45.0 338.9 -52.0 340.35 -59.1 342.5 Q-63.4 343.9 -65.6 344.2 L-79.75 344.2 -80.6 344.2 -83.35 343.85 -89.6 343.8 -89.9 343.75 Q-94.65 342.65 -95.95 341.75 -97.2 340.9 -97.2 338.8 -97.2 336.5 -95.65 336.0 L-87.0 334.85 M160.8 591.2 L28.8 591.2 25.35 590.45 158.8 590.8 160.8 591.2 M-66.35 585.45 L-67.5 585.4 Q-136.5 584.2 -140.0 583.2 L-157.95 582.8 -92.4 582.8 -66.35 585.45 M-328.7 579.4 L-422.4 578.4 Q-432.45 575.9 -443.1 572.0 -434.95 574.35 -425.6 576.0 L-362.8 576.4 -328.7 579.4 M-470.55 560.05 L-480.9 554.65 -475.9 555.8 Q-473.65 557.95 -470.55 560.05 M-580.15 472.7 L-587.5 465.3 -574.2 467.85 Q-578.1 469.85 -580.15 472.7 M-28.05 345.1 Q-31.0 344.4 -31.0 341.8 -31.0 339.0 -26.9 337.65 -22.3 336.15 -8.0 334.6 L52.0 334.6 56.7 335.2 61.4 335.8 86.6 335.8 Q91.65 335.05 97.8 333.45 101.4 332.9 101.4 336.4 101.4 339.1 91.65 342.15 81.85 345.15 69.6 346.2 L13.6 346.2 Q0.8 344.4 -19.4 345.3 -25.85 345.6 -28.05 345.1 M386.5 330.0 Q388.35 330.7 389.2 332.0 L400.4 331.8 Q401.6 330.75 404.75 329.55 408.15 328.2 412.0 327.4 L444.8 327.4 446.2 327.8 483.2 328.2 485.8 328.8 Q515.45 328.7 536.75 326.55 L542.45 326.35 Q543.0 326.6 543.0 328.9 543.0 330.95 540.4 331.65 L527.8 333.8 Q525.2 337.95 514.05 339.6 L492.0 342.2 469.6 342.2 Q464.3 340.7 453.25 340.5 441.75 340.2 435.2 338.6 L366.2 338.6 Q360.45 340.2 340.7 340.7 320.95 341.15 314.4 343.0 L291.8 343.2 284.7 344.05 277.6 344.6 Q274.1 344.6 273.2 343.3 L273.0 341.8 Q273.0 339.35 277.05 336.95 282.9 333.5 294.4 333.0 L317.0 332.6 324.55 330.75 Q330.75 329.4 344.8 327.4 L377.6 327.4 386.5 330.0 M108.95 342.2 Q108.2 341.6 108.2 341.0 108.2 339.25 109.65 338.45 111.4 337.45 116.7 336.65 L163.2 331.8 163.2 331.4 187.2 331.4 193.25 331.2 Q200.05 331.35 210.2 334.2 L244.8 334.6 246.6 334.15 248.8 333.8 Q251.3 333.8 252.2 335.25 252.6 335.9 252.6 336.9 252.6 339.7 238.65 343.0 221.65 347.0 197.6 347.0 L166.0 345.5 136.2 344.2 111.2 343.8 108.95 342.2" fill="#996600" fill-rule="evenodd" stroke="none"/>
    <path d="M-555.4 497.8 Q-568.85 496.25 -574.55 493.25 -582.4 489.15 -582.4 480.0 -582.4 475.8 -580.15 472.7 -578.1 469.85 -574.2 467.85 -554.85 458.0 -489.75 469.5 -462.5 474.3 -420.15 484.4 -381.0 493.7 -376.0 494.4 L-214.15 512.05 -53.2 529.2 104.4 529.2 Q112.75 527.4 134.45 525.65 157.75 523.7 169.6 521.6 L307.6 521.2 Q338.05 516.55 411.15 500.95 L478.4 486.4 Q482.05 486.4 484.9 487.55 487.6 488.55 489.6 490.65 L489.55 494.95 Q489.95 497.55 491.4 498.9 491.0 501.1 491.0 503.95 L491.45 510.3 Q480.5 522.45 429.3 533.35 407.6 537.95 369.85 544.05 L312.0 553.6 172.4 554.0 140.85 557.95 137.05 558.35 107.2 561.6 -54.4 561.6 -168.45 550.25 -218.3 545.25 Q-318.1 535.05 -396.0 526.0 -414.9 523.95 -440.5 518.4 -461.85 513.8 -480.8 508.4 -498.85 503.35 -520.8 500.9 L-553.05 498.05 -555.4 497.8 M-151.95 428.95 Q-147.6 431.8 -147.6 437.4 -147.6 440.7 -149.75 446.65 -152.25 453.6 -155.2 455.6 L-169.6 455.6 Q-175.6 451.25 -175.6 442.8 -175.6 436.25 -171.2 431.9 -167.35 428.0 -161.6 427.2 -155.95 426.4 -151.95 428.95 M-275.2 416.8 Q-271.25 413.15 -265.6 413.8 -259.9 414.45 -255.95 419.05 -251.6 424.2 -251.6 432.2 L-251.5 436.8 Q-251.55 439.55 -252.45 441.3 -254.95 446.0 -265.6 446.0 -277.3 446.0 -279.65 436.85 -280.35 434.0 -280.05 430.75 -279.65 426.35 -279.6 428.15 -279.5 420.75 -275.2 416.8" fill="#00ffff" fill-rule="evenodd" stroke="none"/>
    <path d="M504.7 539.55 L506.6 541.6 Q506.6 542.25 506.2 542.8 505.65 543.6 504.5 543.6 503.55 543.6 502.7 543.15 500.95 542.3 499.3 539.75 497.35 536.65 496.75 533.8 496.4 532.1 494.85 528.85 493.25 525.5 492.85 523.9 L491.45 510.3 491.0 503.95 Q491.0 501.1 491.4 498.9 489.95 497.55 489.55 494.95 L489.6 490.65 489.6 487.95 Q489.6 486.35 489.0 481.8 L488.2 476.35 488.2 468.4 Q487.9 467.45 487.25 466.7 486.8 466.15 486.8 465.55 486.8 463.2 490.1 463.8 492.45 464.25 496.05 466.05 498.0 467.25 498.8 469.15 L500.05 472.65 503.4 480.1 Q503.8 481.35 503.8 486.0 503.8 489.55 503.3 492.6 502.8 495.6 502.8 498.15 502.8 500.4 503.3 504.1 503.8 507.85 503.8 513.5 L503.4 524.85 503.6 531.6 Q503.6 532.65 504.1 535.3 L504.6 538.2 504.4 539.2 504.7 539.55 M538.45 528.55 L548.2 527.25 573.0 529.9 Q579.45 530.8 582.6 532.0 L583.8 531.8 Q585.8 531.7 588.6 532.7 595.6 535.35 595.6 539.4 595.6 540.35 594.8 543.75 593.85 547.75 592.9 548.85 L591.05 551.45 Q590.05 552.85 588.9 553.65 L585.95 555.6 576.15 556.3 575.4 557.15 573.1 557.4 572.4 557.4 Q570.85 558.4 566.7 558.4 550.8 558.4 530.85 553.05 510.6 547.6 510.6 543.05 510.6 542.3 511.0 541.45 511.05 537.3 514.05 533.65 518.5 528.15 527.4 528.6 L538.45 528.55" fill="#cccccc" fill-rule="evenodd" stroke="none"/>
    <path d="M-143.5 425.05 Q-143.35 432.0 -142.35 437.25 L-140.85 444.05 Q-139.7 449.7 -143.5 460.45 -156.9 461.2 -164.05 460.35 -174.2 459.15 -178.95 454.55 -181.85 432.8 -170.7 424.35 -159.95 416.25 -143.5 425.05 M-149.4 430.95 Q-165.5 430.25 -173.05 436.85 -173.2 442.25 -171.35 446.95 -170.2 449.9 -167.15 454.55 -156.05 455.85 -151.8 449.2 -148.05 443.4 -149.4 430.95" fill="#373535" fill-rule="evenodd" stroke="none"/>
    <path d="M600.35 336.5 Q529.3 345.9 437.0 348.8 366.3 351.0 262.35 349.75 143.2 347.7 84.0 347.05 -19.35 345.9 -90.4 348.3 -82.5 357.85 -69.3 367.05 -63.4 371.15 -44.75 382.4 -29.25 391.75 -20.95 398.4 -8.75 408.15 -1.85 419.15 99.2 417.55 256.8 423.25 L383.5 427.85 Q456.35 430.3 511.8 430.95 521.6 455.45 521.85 472.85 521.95 480.15 520.65 491.0 L517.7 513.6 Q520.2 523.95 535.4 525.4 541.05 526.0 550.1 525.45 L566.0 524.35 Q585.45 523.05 593.1 526.75 604.0 532.0 600.35 549.0 L620.05 548.05 637.55 544.9 Q659.7 540.65 677.1 543.1 648.6 555.25 604.5 559.05 L564.45 561.1 523.55 561.8 Q472.2 562.65 444.05 567.05 402.55 573.45 376.0 590.35 354.15 579.1 328.65 577.3 308.35 575.85 280.8 580.4 L231.8 589.95 Q202.05 595.65 181.2 596.25 168.65 596.6 145.8 591.0 121.05 584.95 110.35 584.45 36.5 581.05 -59.8 579.75 -117.7 578.95 -235.35 578.55 -353.55 578.15 -412.2 577.35 -510.1 576.05 -586.3 572.65 -584.8 568.05 -579.05 566.6 L-566.3 566.0 -551.75 567.25 -539.05 566.7 Q-516.75 562.55 -506.0 561.4 -486.75 559.3 -468.2 560.8 -502.6 538.9 -516.6 529.5 -543.35 511.6 -562.85 496.1 -612.35 456.75 -639.4 413.25 -605.9 409.25 -582.8 407.85 -550.9 405.85 -521.35 407.3 -563.45 395.2 -592.95 377.1 -624.75 357.6 -644.15 329.85 -685.5 270.75 -674.85 165.3 -665.15 69.1 -610.25 -20.5 -563.45 -96.75 -481.9 -171.05 -419.3 -228.05 -326.05 -292.2 -295.8 -313.0 -249.15 -343.5 -192.3 -380.7 -178.95 -389.65 -170.4 -409.75 -155.85 -441.95 L-131.0 -496.65 Q-101.35 -562.65 -90.4 -596.25 -78.55 -590.15 -68.8 -576.6 -60.75 -565.4 -52.8 -547.1 -48.65 -537.5 -39.35 -512.7 -30.9 -490.0 -25.45 -478.15 59.15 -294.6 136.6 -164.95 234.75 -0.55 340.6 112.15 400.3 175.75 461.4 220.8 530.9 272.0 612.15 306.95 605.45 312.7 587.3 314.6 L572.55 316.05 Q564.15 317.05 559.0 318.75 559.5 324.75 567.1 325.45 L582.95 324.4 Q593.3 323.25 597.15 324.95 602.8 327.4 600.35 336.5 M576.5 532.1 Q562.9 529.55 549.6 529.3 534.05 528.95 524.45 531.9 513.1 535.4 511.8 543.1 515.5 547.25 528.95 551.55 543.05 556.0 557.35 557.05 574.0 558.3 583.65 554.15 595.1 549.2 594.45 537.2 589.25 534.45 576.5 532.1 M-81.9 -536.0 Q-81.2 -528.65 -84.5 -519.5 -83.4 -515.65 -83.95 -508.25 L-85.15 -495.2 Q-85.65 -487.75 -84.55 -483.95 -83.1 -479.05 -78.55 -478.15 -80.9 -494.8 -76.85 -523.75 -75.25 -535.4 -75.3 -539.85 -75.4 -546.75 -78.55 -549.0 -82.45 -541.95 -81.9 -536.0 M-6.05 -422.3 L-66.75 -549.0 Q-79.1 -426.0 -104.85 -223.8 -129.7 -29.05 -137.6 53.1 -139.5 72.7 -144.55 115.1 -148.85 153.95 -149.55 180.75 -151.45 257.85 -125.8 306.95 -84.75 315.5 -35.15 317.3 -0.65 318.55 54.45 316.55 123.7 314.05 142.45 313.95 191.45 313.7 228.4 318.75 217.8 320.05 199.4 319.25 L168.5 317.9 Q151.25 317.55 141.0 319.9 128.05 322.85 122.15 330.6 146.1 331.9 174.55 328.75 194.3 326.55 226.0 320.8 265.95 313.55 277.15 311.85 306.1 307.45 328.75 306.95 353.35 306.4 392.2 310.4 L457.3 316.95 Q494.5 319.8 521.6 317.05 555.6 313.65 582.65 301.05 463.75 241.9 363.15 145.65 274.2 60.6 193.5 -59.55 127.65 -157.65 56.1 -297.0 28.9 -349.95 -6.05 -422.3 M-320.2 -289.05 Q-403.05 -231.2 -464.05 -176.1 -626.9 -29.0 -663.05 123.95 -676.1 179.15 -669.15 236.9 -661.65 299.1 -633.5 336.5 -561.75 431.85 -392.4 382.55 -334.35 365.65 -259.3 329.75 -219.05 310.55 -157.8 278.75 -195.25 224.5 -217.0 158.35 -243.35 78.05 -246.0 -17.75 -248.4 -104.9 -231.15 -201.2 -215.55 -288.65 -184.85 -377.85 -271.2 -323.3 -320.2 -289.05 M-141.35 -104.7 Q-147.05 -83.25 -131.7 -82.65 -135.5 -87.2 -135.1 -95.55 -134.9 -101.0 -132.35 -111.25 -129.65 -122.3 -129.25 -125.95 -128.55 -133.05 -131.7 -135.8 -131.9 -132.2 -135.55 -122.15 -140.15 -109.4 -141.35 -104.7 M-138.55 -22.5 Q-136.05 -46.25 -143.5 -70.85 -146.0 -35.5 -147.3 -24.2 -149.65 -3.2 -155.3 23.6 -156.9 32.7 -155.9 40.45 -155.0 47.15 -152.9 49.25 -150.8 51.35 -149.65 46.7 -148.3 41.3 -149.4 29.5 L-142.7 1.45 Q-139.6 -12.55 -138.55 -22.5 M-155.3 59.0 Q-163.6 105.75 -166.6 131.9 -171.8 177.95 -167.15 200.7 -162.85 190.85 -161.05 170.5 L-159.05 133.9 Q-157.9 112.5 -155.2 102.65 -151.7 89.9 -144.3 88.65 -149.05 89.1 -150.0 84.7 -150.55 81.85 -149.4 73.8 -148.25 65.75 -148.85 62.85 -149.85 58.1 -155.3 59.0 M-139.55 -157.35 Q-116.0 -360.35 -102.2 -549.0 -196.5 -349.3 -226.65 -182.15 -268.5 49.8 -184.85 206.6 L-161.5 22.55 Q-148.25 -82.35 -139.55 -157.35 M-157.8 278.75 L-153.65 284.65 Q-153.35 288.85 -154.65 293.15 -156.1 297.85 -161.0 305.65 -165.45 312.8 -165.95 315.9 -166.75 320.9 -161.2 324.65 -153.75 311.55 -131.7 312.85 -143.25 299.2 -153.65 284.65 -153.9 281.05 -155.3 277.45 L-157.8 278.75 M-269.15 370.25 Q-237.2 366.65 -202.55 371.9 -198.85 363.15 -197.5 346.6 -196.4 332.6 -196.65 306.95 -254.1 337.25 -309.25 359.65 -370.6 384.65 -432.8 401.4 -404.0 402.05 -373.8 395.45 -362.65 393.0 -347.95 388.85 L-322.75 381.55 Q-291.8 372.8 -269.15 370.25 M-259.95 420.45 Q-266.0 417.65 -273.4 419.15 L-273.4 442.75 Q-261.45 446.0 -256.4 439.05 -254.85 436.9 -253.0 432.15 -250.9 426.9 -249.8 425.05 -252.2 424.5 -255.1 423.0 L-259.95 420.45 M-258.7 411.45 Q-244.95 416.35 -243.85 436.85 -243.25 441.95 -246.6 444.4 -248.3 445.65 -254.0 447.35 -259.05 448.85 -260.75 450.95 -263.35 454.1 -261.6 460.45 L-234.55 464.4 -207.05 467.95 Q-174.05 472.35 -155.3 478.15 -173.6 477.7 -183.5 477.95 -201.9 478.4 -190.75 484.05 -168.9 478.85 -138.55 479.25 L-84.5 482.25 Q-51.25 484.45 -31.9 483.2 -4.1 481.35 15.9 472.25 7.25 469.3 -1.85 463.2 -11.55 456.75 -18.25 448.9 -33.15 431.5 -27.1 416.6 -35.5 407.35 -42.3 400.55 -52.15 390.7 -66.75 377.8 -69.3 385.05 -62.3 396.7 -58.3 403.35 -45.65 418.7 -33.45 433.55 -29.25 440.95 -22.45 452.8 -25.45 460.45 -32.55 451.9 -49.4 425.4 -63.85 402.7 -74.95 391.9 -91.35 375.8 -112.6 370.5 -137.75 364.25 -173.05 371.9 -171.7 384.35 -175.45 390.15 -179.7 396.8 -190.75 395.5 -203.45 383.85 -230.7 378.85 -256.6 374.1 -285.4 377.05 -315.3 380.15 -335.55 390.4 -358.15 401.8 -361.95 419.15 -332.2 434.95 -315.0 441.55 -283.9 453.45 -267.5 448.65 -279.95 450.5 -283.7 441.25 -286.25 434.9 -285.2 419.15 -278.9 413.3 -271.8 411.3 -264.8 409.3 -258.7 411.45 M-309.65 452.45 Q-356.45 437.3 -373.75 407.3 -391.15 410.5 -423.0 411.0 L-483.25 411.1 Q-521.15 411.3 -546.35 413.75 -580.3 417.0 -604.0 425.05 -568.7 429.9 -510.2 440.65 L-414.05 457.95 Q-359.2 467.05 -316.95 470.6 -264.7 475.05 -220.25 472.25 L-265.95 463.35 Q-292.55 458.0 -309.65 452.45 M-103.9 328.1 Q-96.05 331.3 -84.35 331.9 -73.2 332.55 -63.45 330.65 -53.15 328.6 -49.05 324.65 -55.1 324.6 -65.15 321.3 -76.7 317.15 -82.5 315.35 -92.65 312.3 -99.4 312.6 -108.1 313.0 -114.0 318.75 -112.7 324.55 -103.9 328.1 M-124.1 319.5 L-136.65 319.1 Q-143.3 320.05 -148.25 323.0 -153.55 326.1 -155.3 330.6 L-144.05 330.05 -131.05 331.25 Q-123.6 331.8 -119.8 330.65 -114.9 329.2 -114.0 324.65 -117.7 320.95 -124.1 319.5 M-108.1 336.5 L-126.65 337.1 -147.2 335.8 Q-159.0 335.15 -165.85 336.3 -174.8 337.75 -178.95 342.4 L-160.35 341.8 -139.85 343.1 Q-128.05 343.7 -121.2 342.6 -112.25 341.15 -108.1 336.5 M-132.1 346.0 Q-147.9 345.45 -158.9 348.75 -171.3 352.5 -173.05 360.1 -154.25 365.6 -133.5 366.25 -108.7 367.05 -90.4 360.1 -92.5 354.35 -105.1 350.35 -116.9 346.6 -132.1 346.0 M-190.2 355.1 L-191.45 369.65 Q-192.0 377.95 -190.9 382.35 -189.4 388.1 -184.85 389.6 -184.95 386.75 -183.0 378.9 -180.65 369.4 -180.1 365.15 -177.85 347.6 -190.75 342.4 -189.6 346.8 -190.2 355.1 M-579.55 466.0 L-534.4 507.45 Q-507.15 531.05 -484.15 544.6 -455.2 561.6 -426.9 566.7 -393.6 572.65 -344.2 574.25 -306.8 575.45 -246.65 574.25 L-141.85 571.95 Q-80.3 571.0 -37.25 572.65 L19.15 576.3 78.15 581.3 Q150.95 587.15 193.0 584.45 207.65 583.5 240.45 575.0 271.45 566.9 287.45 566.7 306.1 566.45 344.25 567.95 379.95 569.35 397.85 568.85 426.35 568.05 447.85 562.75 473.35 556.55 494.05 543.1 488.0 529.25 485.25 507.65 483.35 493.0 482.25 466.35 248.7 515.45 -85.55 496.85 -345.45 482.4 -621.7 430.95 -605.45 442.1 -579.55 466.0 M384.25 332.8 L352.35 331.6 Q324.95 331.95 304.25 334.35 278.8 337.35 275.65 342.4 305.4 342.5 331.0 340.05 L364.2 336.5 Q391.35 334.4 384.25 332.8 M325.1 318.05 Q296.7 316.75 287.45 324.65 295.5 323.45 308.95 324.05 L332.45 325.4 Q360.85 326.65 370.1 318.75 L348.6 319.4 325.1 318.05 M393.7 442.75 Q304.2 435.0 194.6 432.3 105.25 430.05 -13.65 430.95 -14.1 440.7 -6.4 449.05 -1.4 454.5 10.1 461.8 22.1 469.4 25.1 472.4 30.85 478.2 27.7 484.05 3.9 483.45 -6.85 484.95 -24.1 487.35 -31.35 495.9 96.5 497.4 183.15 493.45 301.5 488.05 364.2 472.25 L313.4 474.8 259.7 478.45 Q194.65 481.8 157.55 472.25 180.05 470.85 222.8 471.1 270.05 471.35 288.75 470.6 324.45 469.2 348.1 463.6 376.8 456.8 393.7 442.75 M500.0 318.75 L481.4 319.4 460.9 318.05 Q449.05 317.45 442.2 318.55 433.25 320.0 429.15 324.65 L447.7 324.05 468.25 325.4 486.9 324.85 Q495.85 323.4 500.0 318.75 M507.05 337.7 Q522.05 336.1 535.4 330.6 524.15 331.65 501.75 331.1 L462.45 329.95 Q440.05 329.45 428.6 330.55 413.75 332.05 411.4 336.5 427.8 335.35 447.35 336.25 L478.45 338.15 Q495.4 339.0 507.05 337.7 M491.95 500.35 Q491.75 515.1 494.1 524.2 497.3 536.65 505.8 543.05 502.35 540.3 501.65 526.45 L501.45 498.4 Q501.3 480.9 499.05 473.5 495.95 463.35 488.15 466.35 491.95 468.65 492.35 478.7 492.6 484.8 491.95 500.35 M29.9 318.3 Q-5.7 317.0 -19.55 330.6 -9.05 329.4 7.85 329.95 L37.3 331.3 Q72.95 332.6 86.75 324.65 L59.9 321.05 Q42.05 318.7 29.9 318.3 M29.9 335.75 Q-13.0 334.45 -31.35 342.4 -18.35 341.2 2.0 341.75 L37.3 343.15 Q80.25 344.45 98.55 336.5 85.55 337.7 65.2 337.1 L29.9 335.75 M-43.15 336.5 Q-69.75 334.2 -84.35 336.05 -96.5 337.6 -93.85 340.45 -91.25 343.3 -78.05 342.9 -62.2 342.4 -43.15 336.5 M-27.1 416.6 L-24.25 419.75 -24.15 420.8 Q-23.1 424.95 -19.55 425.05 L-24.25 419.75 Q-24.8 415.3 -25.45 413.25 L-27.1 416.6 M174.55 335.75 Q129.8 334.45 110.35 342.4 123.95 341.2 145.15 341.75 L181.9 343.15 Q226.65 344.45 246.1 336.5 232.5 337.7 211.35 337.1 L174.55 335.75" fill="#373535" fill-rule="evenodd" stroke="none"/>
    <path d="M-222.9 -347.8 Q-215.2 -353.15 -208.45 -354.25 -217.95 -342.3 -222.2 -335.5 -229.1 -324.4 -232.05 -312.9 -236.65 -313.7 -235.8 -316.3 -235.0 -318.85 -232.05 -318.8 -233.5 -324.55 -238.2 -321.4 -242.65 -318.35 -243.85 -312.9 -246.3 -316.2 -243.85 -322.8 -241.55 -328.95 -235.8 -335.85 -229.95 -342.9 -222.9 -347.8" fill="#373535" fill-rule="evenodd" stroke="none"/>
    <path d="M-176.65 253.7 Q-167.55 263.2 -167.15 271.55 -174.2 274.4 -183.1 279.15 L-198.35 287.55 Q-217.15 297.75 -232.05 301.05 -235.0 298.6 -230.5 295.65 -227.25 293.5 -217.95 290.05 L-202.1 284.05 Q-193.6 280.45 -190.75 277.45 -197.85 268.25 -216.55 273.8 -221.2 275.2 -231.5 279.2 -240.25 282.65 -243.85 283.35 -252.7 282.0 -246.25 277.65 -240.2 273.6 -226.2 270.0 -211.2 266.15 -198.75 266.05 -184.0 265.95 -178.95 271.55 -179.85 263.0 -184.75 256.7 -188.55 251.85 -195.9 247.2 L-208.9 239.55 Q-216.4 234.9 -220.25 230.2 -222.15 227.0 -214.2 229.75 -206.15 232.5 -196.0 238.65 -184.15 245.9 -176.65 253.7" fill="#373535" fill-rule="evenodd" stroke="none"/>
  </g>
</svg>
