<?xml version="1.0" encoding="UTF-8" standalone="no"?>
<svg xmlns:xlink="http://www.w3.org/1999/xlink" height="831.8px" width="969.0px" xmlns="http://www.w3.org/2000/svg">
  <g transform="matrix(1, 0, 0, 1, 484.5, 415.9)">
    <path d="M-88.2 -185.3 L-83.15 -177.85 -70.2 -159.7 Q-66.75 -154.85 -53.55 -139.0 L-46.95 -130.95 Q-45.75 -130.25 -44.4 -128.8 -43.15 -126.45 -37.5 -120.4 -34.05 -116.75 -27.8 -111.7 -22.6 -107.5 -19.3 -103.3 -11.55 -93.45 5.45 -85.75 6.45 -89.15 12.35 -86.9 22.25 -82.15 27.7 -80.8 L42.25 -77.35 55.7 -74.0 Q62.4 -71.55 80.55 -66.45 L107.5 -58.5 146.2 -45.85 Q142.0 -45.8 142.0 -42.0 142.0 -38.7 156.4 -34.4 L177.1 -28.8 Q187.4 -25.55 197.65 -23.45 L220.6 -19.2 Q228.75 -17.65 239.85 -14.2 253.5 -9.95 258.2 -8.8 265.5 -7.0 279.8 -1.35 293.95 4.2 300.5 5.8 353.35 18.65 412.8 38.25 442.4 48.05 461.8 55.2 464.1 55.2 465.2 53.6 466.0 52.5 466.0 51.2 466.0 49.1 458.2 45.35 465.75 46.95 469.55 48.15 480.8 51.8 480.8 56.65 480.8 59.9 477.7 61.05 471.75 62.6 466.0 64.4 L450.4 64.4 Q424.6 57.5 369.15 48.05 L288.9 34.1 Q273.5 31.0 246.45 27.35 218.55 23.6 200.5 20.1 L162.9 12.5 158.5 11.95 Q157.2 13.2 154.6 13.2 L126.4 8.4 116.1 6.35 Q108.05 4.7 100.7 4.0 L77.8 0.35 61.3 -2.7 59.2 -2.6 59.2 -0.5 64.1 10.9 Q68.4 21.35 68.8 24.4 69.75 26.6 70.8 30.8 72.05 35.55 73.7 45.2 74.65 49.65 79.75 59.5 84.55 68.7 85.2 73.8 85.95 79.9 89.1 88.35 L94.8 102.6 Q96.8 107.85 99.2 117.0 L102.55 123.9 Q104.75 128.2 105.35 130.2 L106.0 131.2 Q106.9 133.05 107.7 135.75 L109.0 140.2 Q112.05 149.5 113.8 158.2 114.95 163.65 120.45 179.15 L124.45 190.6 Q125.05 190.7 125.55 191.25 126.8 192.6 126.8 196.1 126.35 199.3 127.1 203.15 127.9 207.15 129.6 209.9 133.5 216.25 135.55 223.8 L138.4 237.8 Q140.5 248.45 149.1 271.45 L157.2 293.15 156.75 295.05 157.5 296.6 Q161.25 303.65 163.4 312.8 L166.5 329.2 Q173.55 333.6 176.75 342.4 L179.0 349.75 Q180.35 354.25 181.7 356.9 183.15 359.75 183.15 364.15 183.1 369.6 183.5 371.3 L185.6 379.8 185.7 385.55 189.25 394.1 Q192.8 403.05 192.8 405.65 192.8 407.05 191.8 408.2 190.55 409.6 188.4 409.6 184.65 409.6 181.55 399.4 178.1 387.75 175.9 386.0 173.7 384.25 172.35 379.9 170.9 375.2 169.5 373.7 167.15 371.1 165.05 367.8 L161.1 361.7 Q155.7 354.3 152.6 348.95 L146.6 337.4 139.6 324.95 Q134.0 315.0 134.0 313.4 L134.05 312.65 Q129.25 305.35 121.1 290.7 L95.9 245.5 Q94.1 242.45 92.0 235.9 91.55 234.5 89.0 231.15 86.25 227.6 85.8 226.6 L81.35 217.35 Q78.75 211.75 77.3 208.0 L67.55 191.3 Q59.65 177.4 58.6 172.0 55.05 169.6 50.45 159.85 44.25 145.15 42.1 141.5 41.05 139.7 37.75 132.35 35.1 126.45 34.2 125.9 31.95 124.6 28.8 117.8 L26.7 112.8 Q23.3 111.3 19.2 104.15 15.15 97.0 13.2 90.3 11.85 85.7 7.7 78.5 L1.0 66.9 -12.6 40.0 Q-20.75 23.75 -22.9 20.1 -29.4 8.9 -35.45 -3.65 -40.15 -13.4 -45.8 -26.7 -47.15 -29.9 -52.65 -31.75 -61.55 -34.8 -61.9 -35.0 -64.95 -36.6 -71.75 -38.6 -78.5 -40.6 -81.5 -42.2 L-90.85 -47.4 Q-96.65 -50.6 -100.4 -52.2 -103.75 -53.65 -110.95 -56.05 -113.9 -57.3 -115.25 -58.75 L-127.2 -64.95 Q-143.5 -73.4 -147.8 -75.3 L-166.3 -82.8 Q-178.85 -87.75 -183.9 -90.3 -209.55 -103.3 -218.5 -108.1 -237.75 -118.5 -243.7 -123.3 L-251.3 -121.8 Q-251.65 -120.55 -253.1 -119.35 -255.05 -117.75 -257.6 -118.0 L-271.2 -118.0 Q-275.7 -118.15 -279.5 -116.65 -284.45 -114.65 -286.0 -114.4 L-301.2 -114.4 Q-326.0 -116.6 -340.8 -119.8 -352.75 -122.35 -368.7 -128.2 -378.6 -131.8 -395.55 -140.8 -410.5 -148.75 -414.3 -152.85 -424.1 -153.8 -442.1 -170.8 -458.3 -186.15 -463.7 -195.6 -468.2 -203.45 -477.2 -217.8 -484.0 -230.05 -484.0 -239.4 -484.0 -242.45 -481.0 -249.45 -478.1 -256.2 -476.4 -257.7 -470.1 -264.6 -465.9 -267.95 -463.6 -269.8 -461.95 -270.4 -459.6 -273.65 -450.7 -276.9 -440.8 -280.55 -433.6 -281.2 L-421.1 -281.3 -419.6 -281.6 -407.6 -281.6 -396.1 -278.8 Q-399.2 -277.65 -399.2 -274.4 -399.2 -271.5 -389.4 -270.0 -373.4 -267.45 -366.6 -265.3 -359.75 -263.1 -348.75 -258.9 -338.8 -255.15 -332.0 -253.1 -314.85 -247.95 -300.65 -240.75 -287.65 -234.1 -272.8 -223.5 -263.0 -216.45 -255.15 -206.25 -248.65 -197.8 -244.2 -188.1 -238.9 -176.75 -237.6 -170.4 -238.0 -164.2 -237.9 -160.35 -237.8 -154.45 -234.6 -153.4 -232.75 -149.85 -209.1 -141.5 L-182.6 -132.9 Q-179.15 -132.0 -151.3 -122.7 -127.6 -114.8 -123.4 -114.8 L-123.15 -114.8 -108.7 -111.5 -80.7 -104.4 -53.55 -96.0 Q-31.3 -89.2 -27.6 -89.2 -25.5 -89.2 -24.4 -90.8 -23.6 -91.95 -23.6 -93.2 -23.6 -96.85 -34.4 -99.7 -40.05 -101.2 -47.8 -102.5 -54.8 -104.35 -62.25 -106.8 -72.35 -110.15 -78.1 -111.9 L-91.95 -116.3 Q-101.45 -119.1 -108.5 -119.7 -111.4 -119.85 -115.9 -121.6 L-122.95 -124.5 Q-126.65 -125.9 -128.3 -125.5 L-129.15 -125.1 Q-135.8 -127.8 -146.9 -131.25 -160.85 -135.6 -176.3 -139.6 L-192.05 -143.85 Q-201.25 -146.45 -209.4 -149.5 L-216.8 -152.4 -221.0 -154.15 -216.1 -153.0 -203.3 -149.7 Q-184.8 -143.8 -154.9 -135.2 L-104.4 -120.4 Q-104.4 -122.6 -104.05 -123.65 L-103.5 -124.75 Q-105.85 -128.25 -108.05 -133.2 L-111.7 -141.6 Q-119.1 -157.15 -128.6 -173.4 -134.75 -183.9 -155.35 -211.55 -169.2 -230.1 -172.5 -235.3 -179.55 -236.05 -198.8 -240.75 L-228.7 -248.3 Q-242.5 -251.55 -253.25 -256.4 -263.25 -260.95 -276.9 -269.8 -279.05 -271.2 -287.15 -278.75 -296.15 -287.15 -304.75 -296.05 -328.8 -321.05 -328.8 -328.5 L-328.6 -330.3 -330.65 -334.75 Q-334.15 -342.85 -335.6 -348.7 L-338.7 -361.35 Q-339.6 -365.95 -339.6 -372.7 -339.6 -382.65 -333.0 -391.45 -324.0 -403.35 -306.6 -405.0 -306.05 -407.25 -299.5 -409.05 -293.55 -410.65 -286.0 -411.1 -267.65 -410.85 -252.45 -408.05 L-254.5 -408.1 -268.1 -408.8 -278.4 -409.95 -284.9 -409.65 Q-287.2 -408.8 -287.2 -406.0 -287.2 -401.95 -280.75 -401.15 L-261.1 -399.5 Q-255.2 -398.75 -245.5 -395.7 L-235.2 -392.2 Q-222.6 -387.95 -210.05 -381.6 -197.45 -374.8 -191.3 -372.0 -182.55 -368.6 -175.9 -365.4 -163.35 -359.45 -157.1 -353.0 -154.3 -350.1 -144.2 -338.25 -137.5 -330.4 -136.0 -330.4 -134.65 -330.4 -133.65 -330.9 L-124.75 -319.95 Q-109.9 -300.65 -109.9 -284.9 -109.9 -284.3 -110.55 -283.1 L-111.2 -281.6 Q-111.2 -280.55 -110.6 -279.5 -109.6 -277.6 -107.2 -277.6 -103.7 -277.6 -102.4 -279.7 -101.6 -281.0 -101.6 -283.6 L-102.25 -288.5 Q-101.2 -284.75 -101.2 -280.0 -101.2 -276.95 -102.2 -272.85 -103.2 -268.7 -103.2 -265.15 -103.2 -262.95 -107.3 -254.5 -109.85 -249.3 -112.05 -246.85 -112.1 -244.0 -111.3 -239.55 -110.1 -232.9 -110.0 -230.5 -109.85 -226.5 -108.1 -221.4 -111.5 -227.65 -113.3 -234.7 -113.75 -236.45 -113.9 -239.3 L-114.2 -244.0 Q-115.95 -249.75 -119.1 -247.1 -122.0 -244.65 -122.0 -241.45 -122.0 -228.75 -113.15 -212.8 -99.3 -189.85 -89.2 -169.9 -85.55 -162.75 -75.5 -151.15 -64.8 -138.85 -61.9 -133.9 -56.95 -125.4 -42.8 -111.9 -29.05 -98.8 -25.8 -98.8 -23.2 -98.8 -22.0 -100.4 -21.2 -101.45 -21.2 -102.8 L-35.4 -116.85 Q-50.9 -132.15 -56.0 -140.2 -59.05 -145.0 -70.4 -158.55 -80.8 -170.95 -84.6 -178.0 L-88.2 -185.3 M180.05 -36.5 L183.0 -35.8 192.65 -32.85 Q185.9 -34.4 180.05 -36.5 M291.2 -5.4 L303.8 -2.1 319.85 2.6 302.9 -2.0 291.2 -5.4 M-357.75 -270.55 L-353.2 -269.5 Q-324.9 -262.75 -307.9 -252.75 -318.45 -257.55 -328.7 -260.4 -335.5 -262.55 -352.45 -268.65 L-357.75 -270.55 M-245.95 -206.85 Q-241.55 -202.0 -238.9 -197.5 -230.65 -183.6 -229.8 -170.2 -231.95 -182.85 -241.25 -199.2 L-245.95 -206.85 M-148.8 -359.0 Q-141.5 -353.15 -135.5 -347.6 -131.7 -344.1 -129.15 -338.95 L-128.65 -337.9 Q-131.0 -340.8 -133.5 -342.85 -136.05 -344.95 -137.55 -344.8 L-145.15 -354.55 -148.8 -359.0 M-458.9 -250.25 Q-459.2 -248.75 -459.2 -241.15 L-459.05 -232.9 Q-458.8 -230.45 -457.4 -228.6 -451.05 -222.5 -442.0 -211.6 -440.15 -209.35 -434.35 -204.45 -428.2 -199.15 -426.1 -196.9 -423.2 -193.75 -414.85 -190.55 -405.5 -187.0 -402.2 -184.5 -399.15 -182.15 -391.0 -178.7 L-377.9 -173.0 -366.7 -166.65 Q-359.45 -162.35 -354.9 -160.6 -344.55 -156.55 -322.7 -151.7 L-290.1 -144.5 -271.1 -144.5 -263.3 -145.6 Q-258.0 -146.45 -256.8 -149.0 -256.8 -151.25 -255.0 -153.65 -253.2 -156.0 -253.2 -156.8 -253.2 -158.3 -254.3 -161.05 -255.45 -164.0 -255.6 -166.7 -255.75 -169.8 -256.1 -171.4 -256.7 -174.3 -258.3 -176.3 L-266.65 -186.55 Q-270.85 -191.5 -274.9 -195.5 -283.9 -204.4 -301.6 -213.25 -311.65 -218.3 -332.7 -228.3 L-347.7 -236.95 Q-356.5 -242.0 -363.5 -244.6 -375.0 -248.85 -396.9 -252.8 -407.4 -254.75 -415.95 -258.1 -425.75 -260.45 -454.1 -260.5 -458.15 -254.05 -458.9 -250.25 M-148.05 -318.35 Q-154.55 -326.05 -164.3 -335.0 -167.5 -337.95 -175.7 -342.35 L-189.0 -349.7 Q-190.6 -350.7 -198.9 -357.65 -204.6 -362.35 -211.5 -364.7 L-241.35 -374.7 Q-257.95 -379.75 -277.9 -383.1 L-289.6 -383.2 -292.35 -383.45 -297.5 -384.3 -310.5 -384.3 Q-311.4 -382.05 -313.5 -378.7 -314.8 -376.7 -314.8 -374.3 -314.8 -371.1 -314.2 -366.05 L-313.2 -357.8 Q-312.75 -354.2 -310.85 -349.45 L-307.3 -341.6 Q-302.75 -331.95 -297.95 -325.85 -291.3 -317.4 -279.7 -308.9 L-269.55 -300.9 -258.4 -292.4 -247.4 -285.1 Q-240.6 -280.8 -235.1 -278.4 -219.15 -270.4 -210.45 -266.8 -195.55 -260.65 -172.9 -257.3 L-153.0 -257.4 -140.0 -261.7 Q-128.7 -265.6 -128.7 -269.3 -128.7 -270.25 -129.75 -272.7 -130.8 -275.2 -130.8 -277.7 L-130.6 -281.75 -130.4 -285.8 Q-130.4 -289.2 -132.75 -294.25 -134.1 -297.1 -137.0 -302.3 -141.05 -310.05 -148.05 -318.35 M-28.6 -60.15 Q-26.15 -57.6 -22.4 -57.6 -19.65 -57.6 -18.4 -59.2 -17.6 -60.25 -17.6 -61.6 -17.6 -62.6 -20.7 -65.2 -23.95 -67.9 -27.6 -69.8 -37.6 -74.95 -37.6 -67.6 -37.6 -66.15 -36.05 -65.15 -35.15 -64.6 -31.1 -63.0 L-28.6 -60.15" fill="#cccccc" fill-rule="evenodd" stroke="none"/>
    <path d="M146.2 -45.85 L147.05 -45.85 Q151.0 -45.65 160.3 -42.3 L169.3 -40.1 Q174.4 -38.75 177.8 -37.4 L180.05 -36.5 Q185.9 -34.4 192.65 -32.85 L196.6 -32.0 219.2 -27.6 Q233.35 -24.45 259.6 -15.65 278.9 -9.2 291.2 -5.4 L302.9 -2.0 319.85 2.6 Q369.7 16.15 394.5 23.55 442.4 37.8 458.2 45.35 466.0 49.1 466.0 51.2 466.0 52.5 465.2 53.6 464.1 55.2 461.8 55.2 442.4 48.05 412.8 38.25 353.35 18.65 300.5 5.8 293.95 4.2 279.8 -1.35 265.5 -7.0 258.2 -8.8 253.5 -9.95 239.85 -14.2 228.75 -17.65 220.6 -19.2 L197.65 -23.45 Q187.4 -25.55 177.1 -28.8 L156.4 -34.4 Q142.0 -38.7 142.0 -42.0 142.0 -45.8 146.2 -45.85 M-396.1 -278.8 Q-390.6 -280.85 -375.25 -276.35 -369.15 -274.55 -357.75 -270.55 L-352.45 -268.65 Q-335.5 -262.55 -328.7 -260.4 -318.45 -257.55 -307.9 -252.75 -303.15 -250.65 -298.35 -248.1 -290.8 -244.1 -270.3 -231.6 -257.0 -223.5 -245.95 -206.85 L-241.25 -199.2 Q-231.95 -182.85 -229.8 -170.2 -229.2 -166.45 -229.2 -163.0 L-229.2 -157.8 Q-227.3 -157.35 -224.9 -155.8 L-221.0 -154.15 -216.8 -152.4 -209.4 -149.5 Q-201.25 -146.45 -192.05 -143.85 L-176.3 -139.6 Q-160.85 -135.6 -146.9 -131.25 -135.8 -127.8 -129.15 -125.1 L-128.3 -125.5 Q-126.65 -125.9 -122.95 -124.5 L-115.9 -121.6 Q-111.4 -119.85 -108.5 -119.7 -101.45 -119.1 -91.95 -116.3 L-78.1 -111.9 Q-72.35 -110.15 -62.25 -106.8 -54.8 -104.35 -47.8 -102.5 -40.05 -101.2 -34.4 -99.7 -23.6 -96.85 -23.6 -93.2 -23.6 -91.95 -24.4 -90.8 -25.5 -89.2 -27.6 -89.2 -31.3 -89.2 -53.55 -96.0 L-80.7 -104.4 -108.7 -111.5 -123.15 -114.8 -123.4 -114.8 Q-127.6 -114.8 -151.3 -122.7 -179.15 -132.0 -182.6 -132.9 L-209.1 -141.5 Q-232.75 -149.85 -234.6 -153.4 -237.8 -154.45 -237.9 -160.35 -238.0 -164.2 -237.6 -170.4 -238.9 -176.75 -244.2 -188.1 -248.65 -197.8 -255.15 -206.25 -263.0 -216.45 -272.8 -223.5 -287.65 -234.1 -300.65 -240.75 -314.85 -247.95 -332.0 -253.1 -338.8 -255.15 -348.75 -258.9 -359.75 -263.1 -366.6 -265.3 -373.4 -267.45 -389.4 -270.0 -399.2 -271.5 -399.2 -274.4 -399.2 -277.65 -396.1 -278.8 M-252.45 -408.05 L-241.6 -408.0 Q-213.0 -398.8 -202.45 -394.75 -180.9 -386.45 -166.9 -377.0 -160.15 -372.45 -148.8 -359.0 L-145.15 -354.55 -137.55 -344.8 Q-136.05 -344.95 -133.5 -342.85 -131.0 -340.8 -128.65 -337.9 L-125.3 -333.4 Q-122.05 -330.25 -118.25 -325.05 L-112.4 -316.9 Q-107.25 -309.8 -104.3 -300.1 -103.7 -298.15 -102.65 -291.15 L-102.25 -288.5 -101.6 -283.6 Q-101.6 -281.0 -102.4 -279.7 -103.7 -277.6 -107.2 -277.6 -109.6 -277.6 -110.6 -279.5 -111.2 -280.55 -111.2 -281.6 L-110.55 -283.1 Q-109.9 -284.3 -109.9 -284.9 -109.9 -300.65 -124.75 -319.95 L-133.65 -330.9 Q-134.65 -330.4 -136.0 -330.4 -137.5 -330.4 -144.2 -338.25 -154.3 -350.1 -157.1 -353.0 -163.35 -359.45 -175.9 -365.4 -182.55 -368.6 -191.3 -372.0 -197.45 -374.8 -210.05 -381.6 -222.6 -387.95 -235.2 -392.2 L-245.5 -395.7 Q-255.2 -398.75 -261.1 -399.5 L-280.75 -401.15 Q-287.2 -401.95 -287.2 -406.0 -287.2 -408.8 -284.9 -409.65 L-278.4 -409.95 -268.1 -408.8 -254.5 -408.1 -252.45 -408.05 M-108.1 -221.4 L-104.6 -215.8 Q-99.35 -208.35 -93.75 -196.8 L-88.2 -185.3 -84.6 -178.0 Q-80.8 -170.95 -70.4 -158.55 -59.05 -145.0 -56.0 -140.2 -50.9 -132.15 -35.4 -116.85 L-21.2 -102.8 Q-21.2 -101.45 -22.0 -100.4 -23.2 -98.8 -25.8 -98.8 -29.05 -98.8 -42.8 -111.9 -56.95 -125.4 -61.9 -133.9 -64.8 -138.85 -75.5 -151.15 -85.55 -162.75 -89.2 -169.9 -99.3 -189.85 -113.15 -212.8 -122.0 -228.75 -122.0 -241.45 -122.0 -244.65 -119.1 -247.1 -115.95 -249.75 -114.2 -244.0 L-113.9 -239.3 Q-113.75 -236.45 -113.3 -234.7 -111.5 -227.65 -108.1 -221.4 M-28.6 -60.15 L-31.1 -63.0 Q-35.15 -64.6 -36.05 -65.15 -37.6 -66.15 -37.6 -67.6 -37.6 -74.95 -27.6 -69.8 -23.95 -67.9 -20.7 -65.2 -17.6 -62.6 -17.6 -61.6 -17.6 -60.25 -18.4 -59.2 -19.65 -57.6 -22.4 -57.6 -26.15 -57.6 -28.6 -60.15" fill="#ffffff" fill-rule="evenodd" stroke="none"/>
    <path d="M-318.9 -375.35 Q-316.05 -385.75 -306.3 -394.2 -299.05 -393.75 -301.1 -390.15 -302.25 -388.1 -306.3 -383.4 -289.85 -388.05 -267.95 -385.05 -247.85 -382.3 -225.55 -373.45 -204.5 -365.1 -185.2 -352.8 -166.1 -340.6 -152.95 -327.25 -141.15 -315.35 -134.25 -300.1 -126.3 -282.5 -127.0 -264.6 -150.7 -252.85 -181.75 -257.0 -209.65 -260.75 -238.95 -276.5 -266.35 -291.15 -287.7 -312.15 -309.05 -333.1 -317.1 -353.2 -321.75 -364.8 -318.9 -375.35 M-284.15 -316.55 Q-266.1 -296.15 -235.0 -279.7 -225.2 -274.55 -210.0 -269.5 -192.5 -263.65 -177.1 -261.25 -135.95 -254.85 -131.35 -275.4 -129.8 -282.35 -138.55 -298.05 -145.1 -309.85 -150.8 -316.45 -162.35 -329.85 -180.75 -342.9 -200.65 -357.05 -222.2 -366.1 -246.55 -376.35 -268.45 -378.0 -293.35 -379.9 -312.75 -370.45 -303.55 -338.55 -284.15 -316.55" fill="#373535" fill-rule="evenodd" stroke="none"/>
    <path d="M-319.25 -219.25 Q-342.1 -232.4 -367.25 -241.45 -393.35 -250.8 -416.45 -253.8 -432.95 -255.9 -441.7 -254.85 -454.45 -253.3 -459.65 -245.15 -455.15 -227.05 -435.15 -209.55 -424.05 -199.8 -397.0 -182.5 -365.8 -162.55 -332.8 -154.2 -293.7 -144.35 -256.6 -152.25 -258.0 -171.85 -277.95 -190.5 -291.85 -203.5 -319.25 -219.25 M-424.65 -195.05 Q-441.65 -206.15 -451.05 -215.7 -477.05 -242.05 -453.2 -264.6 -406.35 -262.4 -354.65 -242.4 -301.55 -221.85 -271.7 -193.3 -261.55 -183.55 -256.0 -174.0 -249.95 -163.45 -251.15 -155.8 -254.15 -137.1 -297.65 -141.45 -322.8 -144.0 -346.55 -152.9 -369.35 -161.45 -397.0 -178.2 -420.95 -192.65 -424.65 -195.05" fill="#373535" fill-rule="evenodd" stroke="none"/>
    <path d="M-42.75 -72.3 Q-33.65 -76.6 -23.7 -71.3 -16.0 -67.25 -10.35 -59.35 -13.05 -54.5 -18.6 -53.65 -23.55 -52.95 -29.25 -55.55 -34.85 -58.1 -38.6 -62.55 -42.6 -67.35 -42.75 -72.3 M-28.15 -68.1 Q-34.45 -71.5 -36.3 -65.85 -34.2 -66.05 -31.75 -64.35 L-27.65 -60.95 Q-22.8 -57.0 -19.0 -61.5 -24.75 -66.2 -28.15 -68.1" fill="#373535" fill-rule="evenodd" stroke="none"/>
    <path d="M473.55 53.0 Q475.2 54.75 474.85 56.15 L473.55 59.45 Q391.95 44.3 224.0 16.3 57.45 -11.5 -25.5 -26.95 29.85 -21.25 97.05 -10.45 143.7 -2.95 219.6 11.1 L342.75 33.6 Q412.55 45.85 467.1 53.0 L470.35 53.0 473.55 53.0" fill="#373535" fill-rule="evenodd" stroke="none"/>
    <path d="M-140.25 -244.35 L-161.55 -247.3 Q-153.8 -251.25 -141.05 -248.9 -132.1 -247.25 -122.7 -243.0 -126.8 -242.65 -140.25 -244.35" fill="#373535" fill-rule="evenodd" stroke="none"/>
    <path d="M-341.0 -382.55 Q-335.7 -397.4 -322.2 -405.95 -307.45 -415.25 -284.65 -415.85 -247.9 -416.75 -208.45 -399.3 -174.6 -384.3 -146.45 -359.65 -115.15 -332.3 -102.65 -302.25 -87.1 -264.9 -109.75 -238.7 -96.5 -198.9 -66.0 -160.3 -54.75 -146.0 -37.7 -127.6 L-8.2 -96.1 Q41.25 -79.05 106.55 -60.15 140.45 -50.35 224.55 -27.25 300.55 -6.35 343.4 6.35 408.85 25.8 460.6 44.35 L468.0 46.35 Q473.35 47.7 476.15 48.8 485.4 52.45 484.4 59.45 483.0 69.0 463.0 66.75 456.75 66.0 447.55 63.95 L436.85 61.6 Q372.4 51.5 251.65 31.4 121.85 9.8 67.4 1.15 88.6 75.1 123.45 181.4 143.45 242.45 184.1 364.05 185.2 367.35 188.85 376.5 192.15 384.7 193.6 389.6 198.1 405.15 192.7 415.9 185.4 415.25 180.25 406.6 178.6 403.85 176.5 399.05 L173.3 392.15 Q105.05 265.85 61.8 185.0 -0.25 68.95 -49.25 -24.8 -113.8 -55.25 -146.0 -70.6 -202.35 -97.5 -241.45 -117.7 -270.55 -106.9 -305.5 -110.0 -336.85 -112.8 -370.05 -126.4 -400.2 -138.75 -427.0 -157.85 -452.35 -175.95 -468.3 -195.45 -477.65 -206.85 -481.75 -220.5 -485.9 -234.15 -483.8 -246.6 -481.55 -259.8 -472.65 -268.75 -462.95 -278.55 -446.7 -281.9 -425.8 -286.15 -399.7 -283.1 -379.8 -280.75 -351.65 -273.25 -314.1 -263.25 -278.8 -238.4 -244.6 -214.35 -232.8 -191.15 -229.45 -184.5 -227.9 -177.45 -226.25 -169.95 -226.35 -160.9 -202.05 -152.55 -168.75 -142.9 L-109.75 -126.35 Q-114.4 -138.75 -122.8 -153.9 -128.65 -164.4 -140.0 -182.5 -149.8 -199.9 -156.2 -209.5 -167.85 -226.85 -178.8 -232.2 -190.95 -238.15 -219.65 -243.25 -233.95 -245.75 -240.5 -247.4 -251.5 -250.1 -258.75 -253.8 -275.1 -262.2 -297.4 -282.25 -320.3 -302.85 -330.05 -318.6 -340.0 -334.7 -342.95 -351.5 -346.0 -368.6 -341.0 -382.55 M-336.45 -352.0 Q-329.8 -330.6 -312.75 -309.95 -287.25 -279.1 -255.65 -261.65 -219.6 -241.75 -174.5 -238.7 -151.6 -211.15 -134.2 -183.95 -114.85 -153.65 -101.1 -122.0 -83.95 -118.4 -62.5 -112.0 L-25.5 -100.4 Q-22.0 -104.1 -26.55 -107.85 -32.6 -111.6 -34.1 -113.35 L-59.1 -142.85 Q-73.15 -160.0 -82.75 -174.15 -107.8 -210.95 -116.2 -247.3 -90.75 -269.1 -111.8 -308.35 -119.6 -323.0 -133.05 -338.25 -144.05 -350.7 -155.1 -359.65 -178.25 -378.45 -206.35 -391.2 -235.25 -404.35 -260.9 -407.2 -278.8 -409.15 -297.95 -406.6 -319.5 -403.65 -327.9 -396.4 -345.45 -381.1 -336.45 -352.0 M-376.0 -272.05 Q-412.1 -279.45 -440.2 -275.4 -457.45 -272.9 -469.05 -262.1 -480.1 -251.8 -483.45 -236.5 -470.65 -206.2 -445.85 -180.95 -421.25 -155.95 -388.85 -139.9 -355.55 -123.45 -319.25 -119.1 -280.75 -114.45 -243.65 -124.15 -243.5 -127.85 -241.25 -133.55 L-236.5 -144.25 Q-229.95 -158.85 -230.65 -167.4 -232.5 -190.2 -254.85 -212.6 -275.35 -233.15 -308.75 -249.3 -341.05 -264.95 -376.0 -272.05 M-219.3 -118.75 Q-229.85 -122.75 -237.15 -122.0 -207.65 -105.2 -165.45 -84.9 -140.6 -72.95 -88.15 -48.55 L-47.9 -29.5 Q-25.3 -19.7 -6.05 -16.15 79.4 -0.35 215.05 21.6 L434.7 57.3 Q437.55 57.8 445.55 59.95 453.2 62.0 457.6 62.65 472.3 64.9 480.05 57.3 479.75 55.7 478.45 54.6 L475.75 53.0 Q351.95 15.85 123.75 -50.85 -120.5 -122.2 -228.5 -154.4 -228.65 -148.7 -231.15 -141.9 L-235.0 -130.65 Q-228.2 -127.05 -194.6 -110.6 -169.75 -98.4 -155.1 -89.6 -164.5 -91.65 -177.05 -97.65 -181.8 -99.9 -198.85 -109.0 -211.9 -116.0 -219.3 -118.75 M-42.75 -18.3 Q-20.2 22.55 72.85 196.65 143.55 328.95 190.55 409.45 183.65 387.2 170.4 360.05 161.3 341.45 144.25 311.0 123.5 273.95 117.5 262.55 103.3 235.55 95.5 215.0 109.9 241.3 137.75 294.85 163.0 342.6 181.9 372.7 L120.9 186.4 Q84.7 76.05 58.8 1.15 32.7 -4.85 6.65 -9.95 -23.05 -15.75 -42.75 -18.3" fill="#373535" fill-rule="evenodd" stroke="none"/>
    <path d="M0.45 33.55 Q6.25 44.15 19.8 72.6 32.65 99.5 39.35 111.3 40.35 114.45 35.6 107.45 31.4 101.3 28.55 96.2 19.55 80.3 8.3 57.6 -1.25 38.3 -10.35 18.4 -12.05 15.05 -6.8 22.45 -1.55 29.85 0.45 33.55" fill="#373535" fill-rule="evenodd" stroke="none"/>
    <path d="M82.5 191.35 Q89.5 205.4 93.35 208.55 90.9 212.0 84.55 200.0 79.6 190.7 76.05 180.45 76.5 179.35 82.5 191.35" fill="#373535" fill-rule="evenodd" stroke="none"/>
  </g>
</svg>
