<?xml version="1.0" encoding="UTF-8" standalone="no"?>
<svg xmlns:xlink="http://www.w3.org/1999/xlink" height="1507.9px" width="1117.45px" xmlns="http://www.w3.org/2000/svg">
  <g transform="matrix(1, 0, 0, 1, 558.7, 752.7)">
    <path d="M404.8 -504.0 Q408.6 -488.2 414.8 -474.05 416.65 -469.7 425.25 -452.6 431.05 -441.0 433.45 -432.6 436.8 -420.95 436.8 -406.8 436.8 -400.35 435.8 -396.45 439.75 -393.2 443.3 -389.1 450.7 -380.5 451.6 -373.6 454.4 -363.25 458.05 -344.8 462.25 -323.4 464.0 -316.0 473.5 -276.6 477.3 -258.15 483.75 -227.0 486.4 -200.8 492.0 -146.3 501.0 -79.6 507.2 -26.8 507.2 29.6 507.2 33.55 505.75 36.95 507.15 43.85 508.05 52.35 L510.0 74.0 Q514.95 120.95 515.2 160.4 515.8 245.35 534.4 333.2 L534.4 400.4 Q534.4 404.4 533.6 413.0 L532.8 423.2 Q532.8 431.95 536.75 449.15 540.7 466.55 540.8 477.2 540.9 492.95 545.7 505.7 548.15 512.3 548.95 515.6 550.4 521.85 550.4 530.0 550.4 554.1 534.9 575.2 521.7 593.2 498.4 607.6 478.75 619.75 455.9 627.1 435.65 633.6 422.4 633.6 L418.5 633.4 Q414.35 636.8 407.2 636.8 397.1 636.8 391.65 620.4 387.6 608.25 384.95 581.95 382.4 551.5 380.6 537.5 377.5 513.4 372.0 503.2 358.6 478.6 351.5 437.15 349.6 426.05 346.35 401.85 343.3 379.15 341.2 367.6 330.7 309.4 324.5 234.85 318.4 161.95 318.4 97.6 318.4 62.05 318.6 53.95 319.15 28.0 321.6 8.8 L321.6 -58.4 Q324.8 -68.0 324.8 -72.8 324.8 -75.35 323.3 -79.15 L320.0 -86.65 Q315.2 -97.7 315.2 -107.6 314.95 -107.6 314.55 -108.35 L313.6 -110.0 Q302.05 -105.7 298.95 -95.15 297.6 -90.65 297.6 -77.6 L292.0 -15.05 Q286.4 49.55 286.4 61.6 286.4 66.65 289.9 81.85 L297.6 114.65 Q308.8 164.4 308.8 197.2 308.8 200.75 307.65 203.95 309.55 211.8 311.1 221.9 L315.2 249.2 Q317.1 260.15 318.1 275.9 L319.5 303.75 Q321.35 338.6 328.0 358.4 L328.0 431.6 Q329.15 435.35 330.2 444.65 331.2 453.55 331.2 459.2 331.2 464.15 328.85 483.8 325.65 510.9 320.8 533.65 308.65 590.25 290.55 601.85 286.4 626.4 256.15 651.55 228.1 674.85 179.05 697.6 143.85 713.85 101.8 728.15 80.7 735.3 66.4 739.2 50.95 739.2 43.75 706.3 41.8 697.45 39.25 679.45 37.0 663.4 35.6 658.4 30.55 640.0 27.35 617.6 24.0 594.45 24.0 576.2 24.0 572.95 15.35 543.5 6.2 512.35 5.2 505.2 L3.2 504.8 -8.2 568.85 Q-14.15 606.0 -14.4 632.0 -14.4 642.3 -19.4 663.15 -24.85 685.9 -25.6 695.6 L-25.85 708.95 Q-26.25 720.6 -27.9 729.0 -33.25 755.2 -52.0 755.2 -113.8 746.8 -137.2 734.0 -146.95 728.7 -168.4 722.4 -197.05 713.9 -204.4 711.2 -231.05 701.45 -262.7 678.75 -286.45 661.75 -306.8 642.4 -324.25 625.85 -336.95 606.1 -346.85 590.6 -356.05 569.4 L-371.05 532.7 Q-380.05 511.1 -388.8 496.4 -388.8 508.15 -394.5 521.25 -401.85 538.05 -414.25 539.15 -413.6 546.0 -409.6 572.55 L-404.8 603.8 -404.7 617.95 Q-405.1 630.05 -407.95 639.25 -416.65 667.2 -446.4 667.2 -464.05 667.2 -495.6 651.35 L-516.3 640.1 Q-525.85 634.7 -526.8 634.4 -544.55 628.95 -548.85 616.4 -550.45 611.85 -550.55 605.4 L-550.4 594.8 Q-550.4 577.45 -549.0 569.6 -546.5 555.55 -538.0 544.4 -549.15 535.6 -547.2 522.8 -546.85 520.3 -544.6 512.0 -542.8 505.3 -542.8 501.2 L-548.2 454.05 Q-553.6 404.7 -553.6 392.0 -553.6 383.15 -550.6 362.7 -547.6 342.25 -547.6 333.2 L-550.6 321.65 Q-553.6 309.45 -553.6 303.2 -553.6 282.15 -547.85 269.9 L-545.75 266.1 Q-550.1 263.0 -551.65 256.45 -552.55 252.6 -552.35 247.9 L-552.0 243.8 Q-552.0 209.6 -548.5 186.3 L-544.5 160.15 Q-541.65 140.65 -539.2 117.2 L-539.2 -56.8 Q-540.95 -59.35 -540.95 -65.1 L-540.65 -69.4 -541.55 -70.4 Q-545.75 -75.6 -546.2 -85.7 -546.45 -91.2 -545.15 -104.1 -544.05 -115.3 -544.8 -119.6 -546.7 -130.65 -547.1 -152.6 L-547.2 -175.4 Q-547.2 -194.05 -546.4 -211.0 -545.6 -227.95 -545.6 -254.0 -545.6 -322.8 -539.05 -365.2 -530.8 -418.7 -506.4 -480.8 -492.65 -515.95 -472.3 -537.2 -440.75 -570.25 -386.8 -581.6 -368.15 -585.45 -334.45 -599.8 -298.4 -616.0 -286.0 -621.2 -276.5 -625.15 -265.25 -631.35 -253.25 -638.05 -246.8 -643.2 L-242.8 -646.1 Q-243.2 -647.85 -243.2 -649.6 -243.2 -654.3 -222.8 -682.2 -202.75 -709.75 -198.4 -712.0 -176.1 -723.7 -153.45 -729.05 -120.0 -735.8 -88.0 -744.0 L-8.0 -744.0 24.65 -741.6 Q43.4 -740.4 53.55 -738.6 68.05 -736.0 78.2 -730.5 89.85 -724.15 98.0 -712.8 109.6 -696.6 117.35 -687.75 128.7 -674.7 142.8 -663.6 166.45 -645.0 215.05 -624.7 253.25 -608.8 303.2 -593.2 331.5 -584.35 348.35 -576.2 371.35 -565.1 378.8 -553.2 L393.4 -529.85 Q402.35 -514.25 404.8 -504.0 M240.4 -236.85 L223.95 -235.25 195.2 -233.6 Q137.9 -233.6 97.6 -222.4 79.4 -217.35 69.35 -211.0 59.2 -204.55 59.2 -198.0 59.2 -187.5 65.1 -181.55 74.6 -172.0 99.2 -172.8 L166.4 -172.8 Q200.3 -169.3 226.9 -188.5 237.35 -196.05 243.7 -205.25 249.6 -213.75 249.6 -220.0 249.6 -230.15 247.85 -233.45 246.05 -236.8 240.4 -236.85 M53.95 -659.45 Q53.05 -663.85 50.0 -666.9 41.95 -674.95 16.0 -676.8 L-40.4 -677.2 Q-64.75 -682.05 -98.2 -678.5 -115.1 -676.75 -129.2 -674.0 -142.9 -674.0 -147.65 -670.45 -152.0 -667.25 -152.0 -658.4 -152.0 -655.3 -129.45 -630.2 L-102.0 -599.6 -95.4 -588.95 Q-88.65 -578.5 -81.55 -570.65 -59.0 -545.6 -32.8 -545.6 -14.3 -545.6 21.55 -596.05 34.25 -614.05 44.8 -632.25 54.4 -648.9 54.4 -651.8 54.4 -657.15 53.95 -659.45" fill="#ccffff" fill-rule="evenodd" stroke="none"/>
    <path d="M53.95 -659.45 Q54.4 -657.15 54.4 -651.8 54.4 -648.9 44.8 -632.25 34.25 -614.05 21.55 -596.05 -14.3 -545.6 -32.8 -545.6 -59.0 -545.6 -81.55 -570.65 -88.65 -578.5 -95.4 -588.95 L-102.0 -599.6 -129.45 -630.2 Q-152.0 -655.3 -152.0 -658.4 -152.0 -667.25 -147.65 -670.45 -142.9 -674.0 -129.2 -674.0 -115.1 -676.75 -98.2 -678.5 -64.75 -682.05 -40.4 -677.2 L16.0 -676.8 Q41.95 -674.95 50.0 -666.9 53.05 -663.85 53.95 -659.45 M240.4 -236.85 Q246.05 -236.8 247.85 -233.45 249.6 -230.15 249.6 -220.0 249.6 -213.75 243.7 -205.25 237.35 -196.05 226.9 -188.5 200.3 -169.3 166.4 -172.8 L99.2 -172.8 Q74.6 -172.0 65.1 -181.55 59.2 -187.5 59.2 -198.0 59.2 -204.55 69.35 -211.0 79.4 -217.35 97.6 -222.4 137.9 -233.6 195.2 -233.6 L223.95 -235.25 240.4 -236.85" fill="#99ccff" fill-rule="evenodd" stroke="none"/>
    <path d="M82.05 -717.75 Q84.0 -675.2 52.5 -623.95 28.2 -584.4 -11.7 -545.85 -3.15 -533.3 10.65 -517.4 18.5 -508.35 34.5 -490.45 48.2 -474.6 56.7 -461.9 67.75 -445.4 74.25 -428.6 59.35 -437.8 43.9 -457.75 39.5 -463.45 31.4 -474.9 L19.4 -491.35 Q5.5 -509.3 -6.95 -515.1 -23.0 -522.6 -43.0 -514.55 -38.15 -483.7 -35.8 -444.1 -34.2 -416.35 -33.3 -372.3 L-31.7 -303.3 Q-30.4 -266.05 -27.35 -241.05 -26.95 -236.15 -22.65 -234.05 -19.7 -232.6 -13.05 -231.9 L-2.85 -230.4 Q2.35 -229.0 3.9 -225.45 3.65 -218.6 -1.15 -214.85 -4.7 -212.05 -12.2 -210.25 L-24.95 -207.4 Q-32.0 -205.45 -35.15 -202.0 -29.85 -153.2 -29.05 -82.95 -28.65 -49.75 -29.65 44.6 -30.5 125.2 -29.1 169.95 -27.05 236.4 -19.55 282.55 -19.3 287.5 -14.5 287.3 -12.55 287.25 -3.45 284.6 4.7 282.25 9.35 282.85 16.2 283.65 19.55 290.35 18.15 300.35 9.9 304.15 2.2 307.7 -11.7 306.0 -6.7 343.9 -0.95 411.15 3.35 462.1 11.75 509.15 14.1 516.2 17.65 514.8 19.4 514.15 24.85 508.25 29.95 502.75 33.3 502.15 38.4 501.2 43.0 509.15 39.85 513.7 26.4 527.75 15.75 538.85 11.75 548.25 20.2 571.6 26.35 598.0 30.0 613.75 35.5 644.0 40.95 673.8 44.5 688.95 50.4 714.15 58.6 735.8 107.05 728.15 156.05 704.25 174.3 695.35 197.85 681.65 224.8 665.6 238.35 657.65 224.35 676.05 200.55 692.5 178.2 707.9 150.15 719.75 123.0 731.2 95.0 737.45 66.85 743.75 43.0 743.6 43.85 731.3 38.55 705.85 L26.6 654.05 Q18.5 619.0 15.0 594.25 10.15 559.9 11.75 532.6 5.2 556.7 1.15 586.0 -1.5 605.1 -4.5 639.4 -7.85 677.65 -9.85 694.15 -13.65 725.45 -19.55 751.45 -78.95 756.6 -133.4 740.25 -153.4 734.25 -179.1 723.4 -208.05 710.75 -222.7 704.55 -206.3 701.85 -184.55 708.7 -175.85 711.45 -143.55 725.05 -116.2 736.55 -97.2 740.9 -69.45 747.25 -43.0 743.6 -15.65 662.9 -9.5 565.85 -4.55 488.3 -12.95 389.3 -16.05 352.95 -21.7 304.55 L-31.45 223.8 Q-42.7 129.4 -43.0 79.35 -43.15 56.05 -45.55 6.35 L-49.5 -78.7 Q-53.3 -182.35 -43.0 -209.8 -41.35 -214.15 -34.25 -213.25 -31.5 -212.9 -29.45 -211.9 -27.35 -210.85 -27.35 -209.8 -26.85 -236.2 -31.4 -274.0 L-41.3 -346.45 Q-47.65 -394.2 -50.05 -432.65 -53.35 -485.15 -50.8 -538.0 -69.4 -529.9 -83.1 -511.7 -93.3 -498.15 -103.95 -473.95 L-112.7 -453.35 Q-118.0 -440.75 -121.65 -433.05 -132.5 -410.25 -144.55 -397.35 -185.7 -436.0 -213.6 -500.25 -236.35 -552.55 -254.0 -631.8 -276.5 -618.55 -306.6 -607.7 -319.35 -603.15 -359.65 -590.8 -392.1 -580.85 -410.65 -572.9 -437.55 -561.3 -457.1 -545.85 -494.5 -516.25 -513.85 -445.75 -530.05 -386.7 -534.8 -292.9 -538.05 -229.0 -536.45 -118.05 L-535.15 -31.95 Q-534.65 15.7 -535.25 48.1 -535.9 82.85 -540.05 154.9 -544.95 239.75 -546.25 274.05 -551.8 419.2 -535.25 485.7 -525.65 493.65 -511.65 501.2 -502.15 506.3 -485.25 513.85 -465.1 522.85 -458.45 526.1 -443.7 533.35 -433.65 540.45 -431.6 536.9 -429.55 529.3 -427.5 521.75 -426.4 519.9 -424.4 516.45 -421.0 518.8 -417.1 521.5 -410.2 532.6 -400.75 524.5 -397.9 507.8 -395.6 494.5 -397.1 471.65 L-400.9 428.85 Q-403.2 402.0 -402.4 384.15 -401.35 360.7 -395.95 329.35 -393.05 312.55 -385.05 273.75 -377.75 238.7 -374.95 220.6 -370.65 192.65 -371.15 173.15 -371.35 165.3 -374.9 156.4 -377.2 150.65 -382.7 140.85 -388.65 130.2 -390.6 125.75 -394.25 117.4 -394.6 110.6 -395.0 102.5 -387.5 106.9 L-382.05 110.4 Q-379.35 111.9 -378.95 110.6 -372.45 89.35 -371.6 64.6 L-372.6 47.05 -375.25 14.1 Q-380.9 -20.0 -394.9 -59.3 -408.6 -97.7 -432.15 -146.1 -442.25 -166.8 -472.75 -225.45 -461.2 -228.05 -459.5 -236.05 -458.25 -241.8 -462.2 -252.55 L-468.25 -269.2 Q-470.2 -277.45 -464.95 -280.15 -457.55 -252.4 -432.75 -179.6 L-394.6 -69.15 Q-387.25 -91.55 -383.7 -112.95 -381.1 -128.5 -379.8 -149.7 L-377.4 -185.25 Q-375.5 -206.3 -371.15 -225.45 -365.85 -209.7 -365.1 -190.3 -364.75 -181.45 -365.8 -155.25 -366.65 -132.7 -365.25 -118.2 -363.15 -96.7 -355.5 -76.95 -363.25 -79.7 -367.1 -84.9 -371.45 -90.8 -371.15 -100.4 -377.15 -76.9 -378.15 -52.1 -378.95 -33.1 -376.8 -5.05 L-375.25 14.1 Q-370.85 40.95 -371.6 64.6 -370.6 88.45 -371.15 110.6 -358.0 68.15 -361.9 10.25 -363.05 -7.0 -366.65 -36.0 -370.35 -65.75 -371.15 -76.95 -358.85 -39.05 -356.6 13.3 -354.8 56.45 -359.7 117.2 -362.15 147.55 -371.1 228.7 -379.1 300.85 -381.65 341.8 -385.55 403.65 -382.1 450.4 -378.0 506.0 -363.25 548.5 -328.9 647.1 -230.55 688.9 -254.35 684.15 -279.0 667.75 -302.3 652.2 -323.8 627.9 -344.8 604.2 -361.1 575.55 -377.55 546.65 -386.8 517.0 -397.95 528.75 -402.55 553.45 -405.95 571.7 -406.1 600.6 L-405.85 643.05 Q-406.2 662.4 -410.2 665.45 -429.35 673.65 -450.8 671.55 -468.4 669.85 -489.6 660.8 -501.95 655.55 -525.85 642.65 -548.25 630.5 -558.7 626.4 -555.95 611.95 -556.2 591.15 L-557.25 556.45 Q-557.65 537.05 -555.15 525.45 -551.95 510.35 -543.05 501.35 -553.25 456.7 -556.75 403.15 -559.6 359.25 -558.3 301.65 -557.65 273.65 -554.15 198.4 -551.15 133.0 -550.9 95.0 -550.75 76.3 -550.95 32.65 -551.15 -7.5 -550.9 -30.05 -550.45 -65.7 -550.95 -124.6 L-551.6 -218.0 Q-551.55 -325.25 -543.05 -381.7 -537.75 -417.3 -523.65 -461.05 -508.6 -507.7 -496.2 -522.4 -470.1 -553.25 -422.05 -575.8 -404.9 -583.85 -378.45 -593.85 L-333.7 -610.65 Q-279.9 -631.6 -250.4 -654.15 -209.75 -685.2 -191.45 -733.4 L-120.2 -744.75 Q-70.55 -751.65 -33.2 -752.55 73.3 -755.05 97.7 -709.95 84.8 -708.1 82.05 -717.75 M58.6 -733.4 Q36.1 -730.0 -17.4 -732.75 L-60.85 -734.95 Q-85.55 -735.95 -102.2 -735.5 -146.15 -734.2 -161.3 -721.55 -180.0 -705.95 -160.2 -670.85 L-109.15 -678.85 Q-80.6 -683.15 -61.2 -684.35 -8.95 -687.5 35.15 -670.85 16.4 -669.1 -14.9 -670.15 L-67.6 -672.05 Q-97.2 -672.5 -115.75 -669.4 -139.25 -665.55 -152.4 -655.25 -143.7 -649.95 -127.35 -630.85 -117.85 -619.65 -96.6 -593.65 -77.45 -570.9 -64.45 -559.9 -47.15 -545.3 -35.15 -545.85 -20.8 -546.5 1.05 -571.1 21.6 -594.15 39.45 -627.4 58.0 -661.9 63.95 -689.8 70.7 -721.2 58.6 -733.4 M-229.35 -565.2 Q-209.35 -502.15 -144.55 -413.0 -124.5 -463.65 -109.15 -490.9 -86.7 -530.75 -58.6 -553.65 -102.75 -578.15 -140.55 -624.95 -173.7 -666.05 -191.45 -709.95 -260.6 -663.65 -229.35 -565.2 M-536.65 540.45 Q-533.65 549.0 -528.65 561.2 -525.95 569.8 -529.85 573.5 -534.45 577.8 -550.9 579.5 -544.95 579.85 -543.05 585.3 -541.55 589.5 -542.2 598.15 -542.55 603.1 -543.75 613.4 -544.45 622.1 -543.05 626.4 -531.8 630.35 -515.5 637.9 L-488.65 650.1 Q-456.0 663.95 -425.85 665.45 -414.05 636.0 -412.55 610.85 -411.2 587.5 -418.05 548.25 -436.0 549.3 -454.75 541.35 -465.25 536.9 -485.6 524.2 -504.15 512.65 -513.9 509.35 -529.3 504.1 -543.05 509.15 -542.2 524.55 -536.65 540.45" fill="#373535" fill-rule="evenodd" stroke="none"/>
    <path d="M-449.3 454.45 Q-443.5 449.75 -436.6 454.9 -430.55 459.4 -424.5 470.75 -419.0 481.1 -415.0 494.1 -411.1 506.85 -410.2 517.0 -416.6 512.3 -421.45 505.3 -424.95 500.15 -429.35 490.85 L-437.45 473.85 Q-442.9 463.3 -449.3 454.45" fill="#373535" fill-rule="evenodd" stroke="none"/>
    <path d="M320.55 -160.55 L320.15 -114.9 Q320.4 -89.5 324.3 -76.95 327.75 -81.15 328.55 -89.4 L329.0 -105.55 Q329.25 -116.2 331.05 -123.05 333.6 -132.65 339.95 -139.45 318.15 24.75 324.65 181.2 331.65 349.95 371.2 493.55 390.15 502.9 413.05 500.3 435.15 497.8 449.35 485.7 443.25 479.45 441.7 466.05 440.6 456.65 441.55 438.85 449.35 446.3 454.3 443.65 458.2 441.5 461.25 432.15 L466.15 414.25 Q469.2 403.65 472.8 399.75 475.75 387.05 472.0 419.9 468.3 452.45 465.0 470.1 465.65 476.95 468.15 477.1 469.7 477.2 474.65 473.65 480.35 469.5 484.1 468.4 490.35 466.55 496.25 470.1 458.95 508.95 386.85 509.15 381.8 521.15 382.45 533.95 382.85 542.6 386.9 558.6 391.8 578.05 393.3 587.8 396.15 606.75 394.65 626.4 457.85 621.6 497.7 599.55 543.7 574.15 543.15 532.6 542.9 527.65 538.1 527.85 536.15 527.9 527.05 530.55 518.9 532.9 514.25 532.3 507.4 531.5 504.05 524.8 L509.05 516.1 Q512.05 511.2 514.9 508.3 522.55 500.5 535.3 501.35 533.35 427.9 522.35 296.05 L512.85 184.75 Q507.3 118.45 504.05 71.55 496.35 -39.8 489.6 -105.25 479.9 -199.0 465.65 -271.75 449.0 -356.75 423.8 -426.85 395.9 -504.25 355.6 -569.3 313.55 -579.45 255.75 -602.35 L208.4 -621.4 Q180.45 -632.55 160.2 -639.6 150.5 -619.6 143.85 -583.55 142.25 -574.75 138.55 -551.95 135.3 -531.5 133.0 -519.8 125.65 -482.55 114.2 -459.3 99.45 -429.3 74.25 -413.0 119.4 -495.85 132.65 -564.7 147.85 -643.9 116.25 -689.45 105.95 -699.3 97.7 -709.95 108.4 -700.75 116.25 -689.45 132.0 -674.3 152.5 -661.2 180.15 -643.45 221.4 -626.55 241.1 -618.5 296.85 -598.5 344.85 -581.25 371.2 -569.3 434.8 -446.75 469.4 -300.7 497.25 -182.95 511.3 -23.8 516.4 33.9 521.5 117.85 L530.05 261.7 Q541.15 438.35 558.75 556.05 533.8 592.15 491.45 613.8 451.15 634.35 394.65 642.0 387.7 597.1 370.2 528.1 348.9 444.2 339.95 399.75 337.75 419.7 335.1 475.45 333.05 519.25 328.1 543.35 320.95 578.05 303.55 603.9 283.45 633.8 246.15 657.65 311.0 577.8 323.15 468.9 328.25 423.35 325.0 367.45 322.5 324.9 314.0 263.15 303.65 192.75 298.95 157.4 290.7 95.8 288.5 51.5 285.7 -5.6 291.45 -53.1 294.75 -80.6 301.1 -106.25 L300.9 -108.2 301.55 -108.0 Q307.65 -132.4 316.5 -155.1 306.3 -172.35 305.6 -197.45 L305.0 -213.8 Q304.2 -221.55 300.9 -225.45 312.4 -220.3 317.0 -201.55 320.45 -187.3 320.55 -160.55 M301.55 -108.0 L301.1 -106.25 Q305.1 -64.05 301.35 9.45 299.4 48.15 299.2 57.0 298.7 78.85 300.9 87.15 305.4 104.35 306.55 100.55 307.0 99.0 307.5 92.65 L308.7 79.35 Q311.0 59.15 310.6 33.0 L309.1 -11.4 Q308.2 -37.2 309.3 -53.4 310.85 -75.45 316.5 -92.55 313.05 -92.6 310.9 -94.75 309.5 -96.25 308.0 -99.7 306.3 -103.7 305.45 -104.95 303.9 -107.25 301.55 -108.0" fill="#373535" fill-rule="evenodd" stroke="none"/>
    <path d="M355.6 -538.0 Q353.8 -517.35 343.85 -479.9 340.35 -466.8 340.95 -470.75 341.6 -474.9 347.75 -498.95 348.55 -501.95 347.35 -506.55 345.45 -513.7 345.3 -514.8 343.8 -525.9 355.6 -538.0" fill="#373535" fill-rule="evenodd" stroke="none"/>
    <path d="M-457.1 -506.75 Q-459.8 -491.6 -455.85 -476.75 L-452.2 -464.75 Q-450.05 -457.6 -449.3 -452.05 -447.75 -442.35 -452.2 -439.8 -453.95 -438.85 -455.4 -440.05 -456.95 -441.3 -457.1 -444.25 -456.55 -452.45 -458.45 -460.5 -459.15 -463.35 -462.65 -473.9 -465.35 -482.0 -466.0 -488.1 -467.0 -496.75 -464.95 -506.75 -471.8 -512.65 -468.3 -511.4 -466.05 -510.6 -457.1 -506.75" fill="#373535" fill-rule="evenodd" stroke="none"/>
    <path d="M322.15 -383.65 Q322.95 -356.45 321.25 -327.4 319.75 -301.55 317.95 -296.4 316.1 -291.0 316.5 -319.2 316.65 -329.7 315.25 -346.4 313.4 -365.5 312.75 -375.4 310.2 -411.8 316.5 -436.45 321.2 -417.55 322.15 -383.65" fill="#373535" fill-rule="evenodd" stroke="none"/>
    <path d="M-519.65 -366.1 Q-510.75 -373.95 -506.25 -362.1 -502.8 -352.95 -502.35 -333.55 -502.0 -318.9 -503.2 -307.6 -503.6 -303.35 -503.9 -304.05 -504.2 -304.85 -504.0 -311.4 -511.6 -320.8 -513.7 -344.15 -514.7 -355.75 -515.3 -358.65 -516.6 -365.05 -519.65 -366.1" fill="#373535" fill-rule="evenodd" stroke="none"/>
    <path d="M66.45 -186.35 Q76.55 -177.3 95.5 -176.45 108.3 -175.9 131.85 -179.5 158.95 -183.7 166.75 -184.05 184.15 -184.85 191.45 -178.55 168.8 -172.6 136.55 -170.95 112.1 -169.7 74.25 -170.7 60.9 -131.95 69.5 -97.15 77.65 -64.05 103.3 -43.1 129.3 -21.85 165.55 -19.65 204.5 -17.25 246.15 -37.85 255.0 -55.85 256.8 -80.2 258.2 -99.4 255.3 -128.05 251.2 -162.05 249.25 -179.7 245.8 -211.1 246.15 -233.25 L196.15 -230.5 Q167.25 -228.75 147.65 -226.25 94.65 -219.55 66.45 -202.0 L66.45 -186.35 M111.95 -226.8 Q132.2 -228.8 159.55 -233.9 L205.5 -242.65 Q232.25 -247.35 254.0 -248.85 259.3 -207.55 262.85 -159.2 L269.6 -53.5 Q261.85 -50.75 258.05 -45.55 253.7 -39.6 254.0 -30.05 193.55 0.9 147.9 -8.8 108.0 -17.25 83.1 -55.4 61.2 -89.0 54.95 -138.15 49.15 -183.9 58.6 -225.45 84.9 -224.1 111.95 -226.8" fill="#373535" fill-rule="evenodd" stroke="none"/>
    <path d="M440.35 -17.55 Q438.35 -16.1 426.45 -9.95 417.85 -5.45 414.25 -0.7 409.25 6.05 410.3 16.85 404.55 16.05 403.4 8.1 403.1 -2.0 402.45 -6.6 410.3 -6.45 415.9 -10.75 418.6 -12.8 424.3 -19.95 429.25 -26.1 433.5 -28.3 439.85 -31.65 449.35 -30.05 447.45 -22.6 440.35 -17.55" fill="#373535" fill-rule="evenodd" stroke="none"/>
    <path d="M-285.2 40.3 Q-269.8 60.45 -265.9 67.35 -262.45 73.55 -269.1 67.0 -286.15 50.25 -316.45 9.0 -315.5 -7.55 -301.5 13.1 -294.25 23.7 -285.2 40.3" fill="#373535" fill-rule="evenodd" stroke="none"/>
    <path d="M-449.15 67.8 Q-455.95 57.35 -457.1 48.1 -451.35 52.75 -444.15 60.5 L-431.95 73.75 Q-416.9 89.45 -402.4 95.0 -407.4 98.9 -416.35 95.85 -424.65 93.05 -433.75 85.25 -442.85 77.45 -449.15 67.8" fill="#373535" fill-rule="evenodd" stroke="none"/>
    <path d="M-207.1 126.25 Q-220.1 127.7 -238.15 121.1 -252.0 116.05 -264.8 108.05 -276.4 100.75 -274.3 100.15 -272.15 99.55 -254.0 110.6 -246.05 115.4 -233.95 118.45 -216.1 122.95 -207.1 126.25" fill="#373535" fill-rule="evenodd" stroke="none"/>
    <path d="M-504.0 399.75 L-491.75 482.85 Q-490.4 492.55 -490.65 493.75 -490.8 494.85 -492.6 489.25 -499.1 466.85 -505.0 448.95 -516.1 415.2 -527.45 391.95 -524.8 383.05 -521.7 382.35 -519.25 381.85 -515.85 386.5 -513.9 389.15 -509.95 395.25 -506.5 400.05 -504.0 399.75" fill="#373535" fill-rule="evenodd" stroke="none"/>
  </g>
</svg>
