<?xml version="1.0" encoding="UTF-8" standalone="no"?>
<svg xmlns:xlink="http://www.w3.org/1999/xlink" height="933.5px" width="1795.9px" xmlns="http://www.w3.org/2000/svg">
  <g transform="matrix(1, 0, 0, 1, 897.95, 466.75)">
    <path d="M-2.65 -329.0 Q-2.25 -326.55 -2.15 -323.55 -1.8 -314.8 0.9 -310.95 5.45 -304.55 19.6 -300.8 38.65 -295.75 61.75 -284.2 56.9 -285.3 49.1 -282.3 30.8 -275.35 4.0 -249.85 -20.2 -226.85 -37.75 -201.75 -43.1 -206.25 -48.85 -211.55 -67.85 -229.05 -79.6 -234.8 -136.0 -262.4 -175.2 -273.6 -183.4 -277.5 -190.05 -277.15 -195.3 -276.85 -201.45 -273.5 -208.7 -269.05 -212.95 -266.65 -220.6 -262.3 -228.0 -260.4 -237.8 -257.9 -254.2 -254.65 -267.45 -251.1 -276.4 -242.8 -280.35 -239.0 -294.2 -215.65 -308.0 -192.5 -308.0 -190.0 -308.0 -184.0 -308.4 -182.4 -310.9 -183.05 -314.6 -185.95 -317.25 -188.0 -324.0 -188.0 -332.35 -188.0 -336.0 -183.25 -338.4 -180.2 -338.4 -176.0 -338.4 -171.5 -278.75 -133.65 L-235.55 -106.15 Q-214.65 -92.6 -211.2 -88.8 -201.0 -77.6 -183.2 -64.1 -170.9 -54.8 -148.7 -39.95 -121.55 -21.75 -114.3 -16.65 -96.2 -3.85 -86.4 5.6 -68.8 22.45 -56.4 29.8 -53.0 31.85 -48.25 34.1 L-42.2 37.3 Q-36.55 41.05 -29.45 52.75 -22.0 65.05 -4.0 100.8 -0.7 107.4 3.2 113.4 7.85 120.65 12.0 124.8 18.15 131.05 46.4 136.25 L80.8 142.0 Q89.3 144.3 106.35 149.9 124.85 156.0 134.3 158.7 169.65 168.8 200.8 168.8 210.65 168.8 214.5 164.1 216.8 161.25 216.8 156.8 216.8 155.0 213.8 151.4 210.8 147.8 210.8 146.0 210.8 142.45 214.5 128.6 L222.6 98.3 Q234.4 52.1 234.4 24.2 234.4 9.35 231.5 -1.0 229.4 -8.4 223.75 -20.35 L229.45 -33.15 Q234.3 -44.25 236.0 -46.8 248.25 -65.45 276.2 -87.15 L293.05 -100.3 294.7 -101.7 Q317.5 -89.45 342.15 -81.75 376.05 -71.2 408.0 -71.2 425.2 -71.2 430.45 -76.0 431.9 -77.3 432.45 -79.65 L439.35 -74.5 Q453.85 -63.35 459.8 -56.15 463.35 -55.8 467.75 -54.3 474.5 -52.0 485.8 -45.8 496.65 -39.85 498.8 -39.2 514.5 -34.7 534.8 -26.95 556.65 -18.55 568.8 -12.0 580.05 -5.85 597.6 1.35 L630.55 14.25 Q675.2 31.45 698.0 44.8 728.15 62.35 776.05 89.35 812.6 110.45 830.25 124.2 852.1 141.2 861.75 158.95 872.0 177.75 872.0 203.4 872.0 214.5 871.6 219.9 872.5 221.05 873.2 222.45 883.6 222.95 886.85 232.45 888.55 237.45 888.0 242.6 888.0 249.45 882.6 261.6 L877.2 273.8 Q877.2 274.85 882.6 280.85 888.0 286.85 888.0 291.2 888.0 316.35 850.65 345.1 816.4 371.4 757.7 395.85 701.25 419.35 637.9 434.7 572.9 450.45 520.0 452.8 L454.0 453.2 Q433.3 459.0 422.4 460.8 L337.2 461.2 331.2 462.4 249.6 462.4 216.05 454.65 Q201.25 451.3 170.0 445.2 L158.9 445.8 Q153.65 449.6 144.0 449.6 127.0 449.6 79.7 440.45 33.1 431.4 -17.15 418.5 -55.15 408.75 -82.9 399.9 L-84.8 400.0 Q-99.05 400.0 -121.2 390.8 L-129.5 387.1 -132.0 387.2 Q-140.1 387.2 -208.4 351.55 -272.7 318.0 -295.2 303.6 -320.7 287.15 -385.5 253.5 -448.5 220.8 -453.2 220.8 L-464.0 231.55 Q-477.4 244.95 -489.2 255.2 -528.8 289.6 -550.4 289.6 L-560.0 288.0 Q-567.6 286.4 -569.6 286.4 -576.4 286.4 -608.05 277.2 -641.35 267.5 -680.15 253.95 -782.65 218.05 -821.6 191.6 -842.9 177.05 -867.9 116.7 -876.9 94.9 -883.6 73.8 -889.6 54.75 -889.6 50.0 -889.6 45.95 -886.7 39.25 -885.15 35.7 -883.4 32.95 L-887.0 27.7 Q-892.8 19.0 -892.8 16.6 -892.8 11.55 -892.25 7.75 -896.0 1.65 -896.0 -4.0 -896.0 -24.5 -882.0 -25.45 L-876.4 -25.1 -878.65 -31.4 Q-882.9 -43.35 -884.8 -46.8 -891.3 -58.5 -893.3 -63.65 -896.55 -71.9 -896.0 -79.2 -895.65 -85.1 -895.75 -96.9 L-896.0 -110.4 Q-896.0 -154.35 -892.05 -180.05 -888.75 -201.5 -874.0 -260.4 -870.65 -274.05 -865.1 -298.25 L-856.4 -336.0 Q-855.0 -341.85 -850.65 -354.75 -846.05 -368.65 -844.8 -373.2 -843.6 -377.75 -841.35 -380.95 L-841.9 -383.8 Q-843.2 -391.35 -843.2 -404.0 -843.2 -408.4 -842.0 -415.1 -840.45 -424.05 -837.65 -429.6 -833.3 -438.35 -827.0 -437.1 L-827.2 -432.4 Q-827.2 -420.3 -825.35 -414.1 -823.8 -409.0 -819.5 -403.8 -813.45 -397.15 -809.3 -391.65 L-807.9 -389.75 Q-806.95 -386.6 -805.6 -384.0 -798.75 -370.7 -795.3 -364.55 -789.55 -354.25 -783.4 -346.35 -780.05 -342.05 -775.9 -337.55 -774.8 -328.5 -757.4 -313.65 -740.75 -299.4 -714.05 -283.65 -688.45 -268.55 -664.7 -258.55 -655.75 -254.75 -648.45 -252.3 L-635.9 -247.1 Q-629.95 -238.4 -618.4 -238.4 -614.75 -238.4 -611.8 -239.2 L-601.2 -236.8 -593.4 -235.25 Q-549.55 -220.15 -502.4 -212.8 L-464.25 -212.8 -416.4 -206.8 -414.7 -206.8 Q-407.35 -212.0 -391.05 -217.5 L-373.95 -219.1 Q-315.85 -225.25 -302.85 -237.55 -295.7 -239.8 -288.75 -244.45 L-281.3 -249.35 Q-273.5 -252.15 -258.05 -256.75 -240.95 -261.9 -233.55 -264.85 L-233.35 -264.95 Q-227.95 -266.9 -225.7 -268.6 -220.4 -271.7 -218.4 -274.8 -212.4 -284.05 -207.0 -301.25 L-199.7 -324.6 Q-194.25 -330.0 -187.6 -335.85 -176.4 -345.7 -164.95 -354.35 -153.95 -359.55 -149.8 -362.8 -146.05 -365.7 -144.2 -369.05 -133.2 -376.25 -122.0 -382.4 -100.75 -394.0 -81.1 -388.65 -70.6 -385.8 -55.2 -374.8 -50.2 -370.5 -46.5 -366.0 L-41.4 -359.65 Q-36.4 -353.7 -24.8 -349.6 -16.8 -346.75 -11.75 -343.15 L-12.0 -340.8 Q-11.95 -337.8 -10.4 -334.8 -7.95 -329.95 -2.65 -329.0 M65.75 -282.15 Q82.75 -273.35 101.95 -261.15 144.65 -233.95 166.4 -211.2 177.85 -199.15 203.1 -186.25 213.1 -181.1 235.9 -171.1 234.45 -169.8 233.3 -167.8 231.2 -164.2 231.2 -160.4 231.2 -151.2 246.1 -136.35 257.05 -125.4 272.55 -115.0 259.15 -106.9 241.6 -89.75 221.4 -70.0 206.2 -48.65 203.05 -51.95 199.6 -54.4 193.95 -58.55 174.4 -66.85 152.3 -76.3 149.2 -78.0 L141.55 -82.4 148.8 -93.6 Q157.35 -107.05 192.0 -136.05 209.25 -150.5 224.8 -162.6 224.8 -182.3 203.3 -171.65 184.7 -162.4 156.0 -134.1 136.5 -114.9 120.45 -95.15 98.25 -109.0 70.1 -128.1 73.15 -135.15 75.2 -138.4 101.2 -179.55 129.4 -197.6 134.75 -201.0 145.4 -206.25 151.2 -209.1 151.2 -211.2 151.2 -232.35 131.7 -225.9 113.9 -219.95 88.8 -195.0 64.65 -171.0 47.9 -143.15 4.2 -172.7 -12.4 -182.8 L-17.1 -185.8 Q-10.35 -195.1 -8.0 -199.2 7.4 -226.0 40.85 -247.6 48.9 -252.8 61.25 -260.45 69.6 -266.1 69.6 -269.8 69.6 -278.65 65.75 -282.15 M256.55 -162.15 Q280.05 -151.75 290.1 -145.7 307.2 -135.4 307.2 -126.4 307.2 -124.5 306.8 -122.85 L296.4 -129.2 Q286.35 -135.1 274.75 -145.15 L257.6 -160.4 256.55 -162.15 M326.1 -111.05 L352.45 -109.35 Q372.3 -108.2 383.75 -106.05 400.15 -102.85 408.8 -96.4 410.0 -95.5 414.1 -92.65 381.15 -94.95 346.0 -103.6 336.15 -106.0 326.1 -111.05 M22.95 -129.1 L36.05 -120.65 Q26.4 -99.0 26.4 -81.6 25.65 -77.4 26.8 -73.2 29.05 -64.8 38.4 -64.8 44.6 -64.8 57.1 -95.75 L60.65 -104.5 77.6 -92.8 Q88.35 -85.1 104.45 -74.05 87.2 -49.6 87.2 -39.2 86.75 -35.3 88.05 -31.75 90.55 -24.8 99.2 -24.8 101.05 -24.8 120.1 -51.45 L125.8 -59.5 145.4 -46.35 Q187.3 -18.4 188.0 -18.4 L188.15 -18.4 Q183.2 -7.1 183.2 1.0 183.2 4.35 184.85 7.6 187.9 13.6 195.2 13.6 200.95 13.6 207.25 6.95 210.4 16.65 210.4 24.8 210.4 45.3 199.8 89.0 188.95 133.4 181.2 142.8 170.4 140.7 152.15 135.4 L117.75 125.2 Q70.25 111.6 31.6 107.6 24.75 100.6 19.6 90.95 16.25 84.6 11.85 73.1 6.85 60.05 4.5 55.15 -0.15 45.35 -6.0 38.4 -14.1 28.85 -46.9 3.1 -80.95 -23.6 -88.0 -31.2 -95.35 -39.0 -133.2 -62.4 -171.8 -86.2 -181.6 -96.0 -193.15 -107.45 -224.95 -129.35 -260.05 -153.55 -271.2 -163.2 -267.35 -164.45 -255.95 -167.1 -243.4 -170.0 -236.15 -172.1 -209.95 -179.75 -194.8 -192.4 -182.8 -202.45 -169.3 -211.45 -152.8 -222.55 -141.6 -226.8 -130.5 -233.15 -92.45 -209.7 -74.45 -198.65 -50.8 -181.05 -61.6 -161.35 -61.6 -148.0 -62.6 -143.2 -61.6 -138.4 -59.6 -128.8 -49.6 -128.8 -37.6 -128.8 -35.35 -143.3 -34.85 -146.6 -34.6 -154.45 -34.4 -160.5 -33.6 -162.0 L-31.15 -166.15 -30.4 -165.6 Q-13.6 -152.6 22.95 -129.1 M-239.35 -220.25 Q-232.75 -228.6 -224.4 -233.7 -213.8 -240.2 -197.6 -243.6 -198.25 -226.45 -206.15 -215.8 -218.7 -199.0 -251.6 -190.0 L-263.6 -190.0 Q-263.6 -190.4 -262.8 -191.2 -256.0 -196.45 -249.75 -205.35 -243.15 -215.4 -239.35 -220.25" fill="#663300" fill-rule="evenodd" stroke="none"/>
    <path d="M-11.75 -343.15 Q-10.9 -346.85 -7.45 -349.5 -5.15 -351.3 2.5 -354.75 9.45 -357.95 12.4 -360.75 16.85 -365.0 16.8 -371.6 16.8 -383.3 23.2 -402.8 25.9 -411.2 32.75 -416.35 39.2 -421.15 47.4 -421.8 55.65 -422.45 62.7 -418.55 70.35 -414.35 74.4 -406.0 76.15 -403.1 79.25 -391.15 82.4 -378.7 82.4 -373.6 82.4 -368.8 79.6 -365.25 76.1 -360.8 69.6 -360.8 61.9 -360.8 54.1 -369.25 L47.9 -375.8 Q44.3 -379.25 40.8 -380.4 L41.2 -365.85 Q41.2 -357.35 39.6 -351.6 38.8 -348.4 22.35 -338.7 5.6 -328.8 0.0 -328.8 L-2.65 -329.0 Q-7.95 -329.95 -10.4 -334.8 -11.95 -337.8 -12.0 -340.8 L-11.75 -343.15 M61.75 -284.2 Q64.1 -283.65 65.75 -282.15 69.6 -278.65 69.6 -269.8 69.6 -266.1 61.25 -260.45 48.9 -252.8 40.85 -247.6 7.4 -226.0 -8.0 -199.2 -10.35 -195.1 -17.1 -185.8 L-12.4 -182.8 Q4.2 -172.7 47.9 -143.15 64.65 -171.0 88.8 -195.0 113.9 -219.95 131.7 -225.9 151.2 -232.35 151.2 -211.2 151.2 -209.1 145.4 -206.25 134.75 -201.0 129.4 -197.6 101.2 -179.55 75.2 -138.4 73.15 -135.15 70.1 -128.1 98.25 -109.0 120.45 -95.15 136.5 -114.9 156.0 -134.1 184.7 -162.4 203.3 -171.65 224.8 -182.3 224.8 -162.6 209.25 -150.5 192.0 -136.05 157.35 -107.05 148.8 -93.6 L141.55 -82.4 149.2 -78.0 Q152.3 -76.3 174.4 -66.85 193.95 -58.55 199.6 -54.4 203.05 -51.95 206.2 -48.65 221.4 -70.0 241.6 -89.75 259.15 -106.9 272.55 -115.0 257.05 -125.4 246.1 -136.35 231.2 -151.2 231.2 -160.4 231.2 -164.2 233.3 -167.8 234.45 -169.8 235.9 -171.1 237.3 -172.35 239.0 -173.0 247.5 -176.2 256.55 -162.15 L257.6 -160.4 274.75 -145.15 Q286.35 -135.1 296.4 -129.2 L306.8 -122.85 319.1 -114.9 Q322.6 -112.8 326.1 -111.05 336.15 -106.0 346.0 -103.6 381.15 -94.95 414.1 -92.65 L418.35 -92.4 Q427.9 -91.9 430.1 -90.65 432.8 -89.1 432.8 -83.2 432.8 -81.2 432.45 -79.65 431.9 -77.3 430.45 -76.0 425.2 -71.2 408.0 -71.2 376.05 -71.2 342.15 -81.75 317.5 -89.45 294.7 -101.7 L293.05 -100.3 276.2 -87.15 Q248.25 -65.45 236.0 -46.8 234.3 -44.25 229.45 -33.15 L223.75 -20.35 Q229.4 -8.4 231.5 -1.0 234.4 9.35 234.4 24.2 234.4 52.1 222.6 98.3 L214.5 128.6 Q210.8 142.45 210.8 146.0 210.8 147.8 213.8 151.4 216.8 155.0 216.8 156.8 216.8 161.25 214.5 164.1 210.65 168.8 200.8 168.8 169.65 168.8 134.3 158.7 124.85 156.0 106.35 149.9 89.3 144.3 80.8 142.0 L46.4 136.25 Q18.15 131.05 12.0 124.8 7.85 120.65 3.2 113.4 -0.7 107.4 -4.0 100.8 -22.0 65.05 -29.45 52.75 -36.55 41.05 -42.2 37.3 L-48.25 34.1 Q-53.0 31.85 -56.4 29.8 -68.8 22.45 -86.4 5.6 -96.2 -3.85 -114.3 -16.65 -121.55 -21.75 -148.7 -39.95 -170.9 -54.8 -183.2 -64.1 -201.0 -77.6 -211.2 -88.8 -214.65 -92.6 -235.55 -106.15 L-278.75 -133.65 Q-338.4 -171.5 -338.4 -176.0 -338.4 -180.2 -336.0 -183.25 -332.35 -188.0 -324.0 -188.0 -317.25 -188.0 -314.6 -185.95 -310.9 -183.05 -308.4 -182.4 -308.0 -184.0 -308.0 -190.0 -308.0 -192.5 -294.2 -215.65 -280.35 -239.0 -276.4 -242.8 -267.45 -251.1 -254.2 -254.65 -237.8 -257.9 -228.0 -260.4 -220.6 -262.3 -212.95 -266.65 -208.7 -269.05 -201.45 -273.5 -195.3 -276.85 -190.05 -277.15 -183.4 -277.5 -175.2 -273.6 -136.0 -262.4 -79.6 -234.8 -67.85 -229.05 -48.85 -211.55 -43.1 -206.25 -37.75 -201.75 -20.2 -226.85 4.0 -249.85 30.8 -275.35 49.1 -282.3 56.9 -285.3 61.75 -284.2 M-827.0 -437.1 Q-826.15 -446.15 -821.9 -450.1 -812.45 -458.9 -786.0 -448.8 -762.8 -443.75 -713.6 -435.5 -679.65 -429.8 -673.2 -426.4 -650.1 -413.15 -639.05 -408.65 -621.95 -401.65 -590.4 -398.4 -584.5 -397.8 -576.0 -394.45 L-559.9 -387.4 Q-537.65 -377.4 -523.6 -376.4 L-292.4 -376.4 Q-281.7 -378.45 -231.9 -385.1 -180.15 -392.0 -172.8 -392.0 -151.4 -392.0 -144.85 -384.45 -142.75 -382.05 -142.35 -379.0 L-142.4 -376.0 Q-142.4 -372.3 -144.2 -369.05 -146.05 -365.7 -149.8 -362.8 -153.95 -359.55 -164.95 -354.35 L-166.85 -353.5 Q-180.0 -347.45 -185.75 -343.4 -195.5 -336.55 -198.8 -327.6 L-199.7 -324.6 -207.0 -301.25 Q-212.4 -284.05 -218.4 -274.8 -220.4 -271.7 -225.7 -268.6 -228.95 -266.8 -233.35 -264.95 L-233.55 -264.85 Q-240.95 -261.9 -258.05 -256.75 -273.5 -252.15 -281.3 -249.35 L-283.95 -248.4 Q-297.15 -243.3 -302.4 -238.0 L-302.85 -237.55 Q-315.85 -225.25 -373.95 -219.1 L-391.05 -217.5 -419.1 -215.4 -451.2 -212.8 -464.25 -212.8 -502.4 -212.8 Q-549.55 -220.15 -593.4 -235.25 -600.85 -237.85 -608.15 -240.6 -609.85 -239.75 -611.8 -239.2 -614.75 -238.4 -618.4 -238.4 -629.95 -238.4 -635.9 -247.1 L-636.0 -247.2 -637.25 -249.15 Q-642.2 -250.25 -648.45 -252.3 -655.75 -254.75 -664.7 -258.55 -688.45 -268.55 -714.05 -283.65 -740.75 -299.4 -757.4 -313.65 -774.8 -328.5 -775.9 -337.55 L-776.0 -338.7 Q-781.2 -344.55 -785.65 -351.7 -788.5 -356.35 -794.4 -367.6 -801.1 -380.4 -807.9 -389.75 L-809.3 -391.65 Q-813.45 -397.15 -819.5 -403.8 -823.8 -409.0 -825.35 -414.1 -827.2 -420.3 -827.2 -432.4 L-827.0 -437.1 M22.95 -129.1 Q-13.6 -152.6 -30.4 -165.6 L-31.15 -166.15 -33.6 -162.0 Q-34.4 -160.5 -34.6 -154.45 -34.85 -146.6 -35.35 -143.3 -37.6 -128.8 -49.6 -128.8 -59.6 -128.8 -61.6 -138.4 -62.6 -143.2 -61.6 -148.0 -61.6 -161.35 -50.8 -181.05 -74.45 -198.65 -92.45 -209.7 -130.5 -233.15 -141.6 -226.8 -152.8 -222.55 -169.3 -211.45 -182.8 -202.45 -194.8 -192.4 -209.95 -179.75 -236.15 -172.1 -243.4 -170.0 -255.95 -167.1 -267.35 -164.45 -271.2 -163.2 -260.05 -153.55 -224.95 -129.35 -193.15 -107.45 -181.6 -96.0 -171.8 -86.2 -133.2 -62.4 -95.35 -39.0 -88.0 -31.2 -80.95 -23.6 -46.9 3.1 -14.1 28.85 -6.0 38.4 -0.15 45.35 4.5 55.15 6.85 60.05 11.85 73.1 16.25 84.6 19.6 90.95 24.75 100.6 31.6 107.6 70.25 111.6 117.75 125.2 L152.15 135.4 Q170.4 140.7 181.2 142.8 188.95 133.4 199.8 89.0 210.4 45.3 210.4 24.8 210.4 16.65 207.25 6.95 200.95 13.6 195.2 13.6 187.9 13.6 184.85 7.6 183.2 4.35 183.2 1.0 183.2 -7.1 188.15 -18.4 L188.0 -18.4 Q187.3 -18.4 145.4 -46.35 L125.8 -59.5 120.1 -51.45 Q101.05 -24.8 99.2 -24.8 90.55 -24.8 88.05 -31.75 86.75 -35.3 87.2 -39.2 87.2 -49.6 104.45 -74.05 88.35 -85.1 77.6 -92.8 L60.65 -104.5 57.1 -95.75 Q44.6 -64.8 38.4 -64.8 29.05 -64.8 26.8 -73.2 25.65 -77.4 26.4 -81.6 26.4 -99.0 36.05 -120.65 L22.95 -129.1 M-239.35 -220.25 Q-243.15 -215.4 -249.75 -205.35 -256.0 -196.45 -262.8 -191.2 -263.6 -190.4 -263.6 -190.0 L-251.6 -190.0 Q-218.7 -199.0 -206.15 -215.8 -198.25 -226.45 -197.6 -243.6 -213.8 -240.2 -224.4 -233.7 -232.75 -228.6 -239.35 -220.25" fill="#330000" fill-rule="evenodd" stroke="none"/>
    <path d="M47.65 -376.85 Q46.1 -373.25 46.1 -368.45 46.1 -363.7 47.65 -360.1 49.3 -356.2 52.25 -355.25 39.0 -338.65 32.85 -353.95 31.95 -356.25 29.15 -366.45 27.4 -373.05 25.8 -372.9 24.25 -379.0 30.7 -384.6 36.6 -389.75 45.0 -391.2 53.85 -392.75 58.5 -388.7 64.0 -383.9 61.05 -372.9 56.0 -371.8 54.05 -374.65 52.75 -376.55 52.25 -381.7 49.3 -380.75 47.65 -376.85" fill="#373535" fill-rule="evenodd" stroke="none"/>
    <path d="M96.3 -55.75 Q98.35 -41.25 87.5 -38.15 88.35 -33.35 93.35 -32.95 L103.3 -33.45 Q109.4 -33.45 111.95 -29.7 115.35 -24.65 113.9 -11.7 108.65 -12.1 104.1 -10.55 101.55 -9.7 96.6 -7.0 92.0 -4.5 89.0 -3.6 84.3 -2.25 78.7 -2.9 76.3 -5.15 74.5 -9.7 L71.7 -17.9 Q68.1 -28.05 61.05 -29.35 65.45 -31.45 69.3 -36.5 L75.6 -45.65 Q79.4 -50.9 83.4 -53.2 88.75 -56.3 96.3 -55.75" fill="#373535" fill-rule="evenodd" stroke="none"/>
    <path d="M-819.8 -399.3 L-842.05 -339.25 Q-854.7 -305.05 -862.55 -281.75 -883.8 -218.65 -890.85 -173.4 -899.45 -117.95 -890.2 -72.3 -879.9 -21.3 -846.25 23.5 -855.75 27.15 -859.75 23.8 -862.2 21.85 -863.85 14.7 -865.55 7.6 -868.0 5.6 -872.0 2.25 -881.5 5.9 -889.6 69.95 -863.1 119.65 -839.7 163.65 -788.3 197.85 -745.3 226.45 -678.6 250.5 -633.05 266.95 -555.6 287.8 -549.9 278.95 -546.9 263.45 -545.3 255.05 -543.2 234.15 -541.25 214.8 -539.05 205.25 -535.65 190.35 -529.15 182.1 -459.15 208.0 -378.4 251.55 -348.1 267.9 -307.95 291.2 L-238.45 331.85 Q-257.0 328.45 -283.55 316.1 -302.4 307.3 -334.6 289.25 L-388.25 259.5 Q-418.85 243.3 -441.05 234.95 -456.45 238.8 -470.4 247.45 -481.3 254.25 -493.85 265.85 -501.1 272.5 -515.15 286.4 -527.8 298.45 -537.95 305.4 -573.95 290.05 -633.7 273.0 L-682.0 259.4 Q-709.85 251.45 -728.75 245.2 -780.1 228.15 -812.1 207.85 -851.55 182.8 -872.65 146.85 L-877.55 136.3 Q-881.85 127.15 -881.5 129.2 -893.4 67.1 -896.7 -6.35 -899.9 -77.1 -894.9 -151.25 -889.9 -224.4 -877.55 -292.4 -865.0 -361.45 -846.25 -416.95 -841.1 -428.4 -837.45 -428.05 -834.75 -427.8 -831.9 -420.05 L-826.85 -406.1 Q-823.6 -398.8 -819.8 -399.3 M-487.9 206.9 Q-495.35 201.9 -501.05 200.2 -509.5 197.75 -520.35 199.7 -522.55 207.05 -527.35 230.25 -531.8 251.55 -537.95 270.2 -521.45 278.0 -495.8 256.85 -480.2 244.0 -458.7 217.35 -467.85 217.8 -475.55 214.35 -479.1 212.8 -487.9 206.9" fill="#373535" fill-rule="evenodd" stroke="none"/>
    <path d="M-818.65 18.6 Q-825.5 16.2 -835.95 6.55 -847.85 -5.05 -854.0 -10.2 -864.6 -19.05 -872.65 -20.5 -865.35 -27.6 -856.2 -24.4 -849.4 -22.05 -838.9 -12.4 -833.0 -7.0 -820.85 4.35 -810.25 13.25 -802.2 14.7 -809.5 21.8 -818.65 18.6" fill="#373535" fill-rule="evenodd" stroke="none"/>
    <path d="M693.8 42.7 Q768.45 77.55 813.05 112.85 870.2 158.05 897.95 217.35 887.85 230.05 888.45 265.05 888.6 274.75 889.5 294.8 890.15 312.45 889.15 323.05 881.35 323.05 875.85 327.35 872.7 329.8 867.65 336.8 862.8 343.4 859.2 345.95 853.45 349.95 845.1 349.45 847.95 341.15 854.6 332.55 858.45 327.6 866.65 318.15 873.6 309.55 876.7 301.8 880.8 291.6 880.3 279.0 804.35 321.85 687.7 349.85 575.25 376.8 443.65 385.65 311.6 394.55 184.55 383.6 51.85 372.1 -53.45 340.65 -92.35 329.05 -138.15 307.2 -168.75 292.55 -220.6 264.0 -280.3 231.15 -303.15 219.55 -350.0 195.75 -388.2 182.1 -437.85 164.35 -507.45 145.5 L-624.25 114.65 Q-690.65 96.6 -735.35 80.1 -793.15 58.75 -837.45 32.35 -826.3 29.25 -809.5 34.5 -797.65 38.15 -776.5 48.55 -748.5 62.25 -740.95 65.5 -720.45 74.3 -705.3 76.4 -708.55 69.05 -725.8 60.4 -732.05 57.25 -758.4 46.25 -777.35 38.35 -782.05 33.95 -788.6 27.85 -775.75 23.5 -722.0 52.3 -652.4 76.1 -619.0 87.5 -566.4 102.65 -529.25 109.6 -489.95 122.0 -469.5 128.45 -446.1 137.3 -390.75 155.05 -325.9 180.4 -296.25 191.95 -241.1 214.45 -183.65 237.9 -156.85 248.45 -58.25 287.25 15.45 307.55 111.55 334.05 202.0 340.65 334.45 350.3 453.9 346.35 578.95 342.2 695.35 323.05 722.0 318.65 752.4 307.4 785.9 294.95 811.65 278.45 841.15 259.55 854.6 238.8 870.0 215.0 862.7 190.9 848.55 144.1 794.65 106.25 754.0 77.7 677.1 46.4 658.9 39.0 611.15 20.65 569.4 4.6 546.6 -5.05 474.75 -35.45 439.85 -64.55 387.15 -62.25 354.15 -66.95 312.65 -72.95 290.1 -91.0 282.95 -85.8 275.75 -74.55 L269.85 -65.0 Q266.35 -59.3 263.65 -55.75 254.35 -58.7 253.85 -63.25 253.4 -66.75 258.45 -72.2 261.3 -75.35 267.85 -81.75 272.9 -87.3 272.5 -91.0 263.95 -91.45 258.35 -87.5 254.0 -84.45 250.45 -77.75 L244.8 -65.8 Q241.35 -58.95 237.25 -55.75 229.2 -60.1 229.4 -67.55 229.6 -73.95 235.75 -81.6 241.3 -88.45 249.45 -93.75 257.5 -98.95 263.65 -99.8 260.65 -107.65 253.35 -113.7 248.4 -117.75 238.45 -123.0 226.75 -129.15 222.95 -131.75 214.8 -137.2 210.8 -143.85 196.85 -134.3 179.1 -118.3 L149.15 -91.0 Q230.0 -66.45 240.75 17.15 245.35 52.85 236.65 97.5 228.8 137.75 210.8 182.1 186.05 179.65 158.4 172.85 143.6 169.2 110.3 159.25 79.75 150.2 61.8 146.1 34.0 139.8 8.2 138.05 -2.35 108.8 -21.65 82.05 -37.35 60.35 -61.95 36.4 -70.9 27.7 -106.8 -4.65 -134.6 -29.7 -150.35 -46.95 -119.3 -27.05 -105.2 -17.25 -80.6 -0.15 -63.05 15.5 -19.05 54.8 -0.6 102.8 6.0 77.95 -5.9 56.05 -15.2 39.0 -38.7 19.8 -46.2 13.65 -59.85 3.6 -75.5 -8.05 -81.1 -12.4 -105.3 -31.4 -115.15 -46.95 -136.4 -52.7 -161.4 -71.15 L-181.55 -86.2 Q-193.4 -94.75 -203.2 -99.8 -203.7 -88.55 -196.75 -82.05 -192.6 -78.15 -181.2 -73.35 -169.8 -68.6 -165.6 -64.7 -158.65 -58.2 -159.15 -46.95 -180.05 -60.45 -209.4 -80.4 L-259.2 -114.3 Q-319.75 -155.3 -361.8 -179.1 -529.35 -168.75 -645.05 -217.3 -755.45 -263.65 -819.8 -364.1 -809.35 -386.55 -812.55 -406.8 -816.25 -430.05 -837.45 -434.55 -836.25 -450.4 -811.25 -459.05 -790.8 -466.15 -761.35 -466.7 -734.65 -467.15 -723.1 -462.65 -717.6 -460.5 -719.35 -457.9 -721.25 -455.05 -731.7 -452.2 -728.0 -443.05 -722.05 -442.25 -717.8 -441.65 -709.7 -445.75 -698.35 -451.45 -695.1 -452.45 -686.2 -455.3 -678.85 -452.2 -616.7 -404.35 -521.95 -391.45 -480.6 -385.8 -428.6 -386.0 -385.6 -386.15 -326.55 -390.5 -294.4 -392.85 -232.5 -398.75 -179.25 -403.2 -145.75 -401.8 -101.65 -399.95 -70.15 -388.15 -38.8 -376.45 -16.1 -353.65 -16.55 -355.25 -16.5 -357.15 -16.25 -363.35 -11.45 -368.15 -6.6 -373.0 -3.15 -370.5 0.3 -368.0 -0.25 -358.6 1.75 -376.6 10.2 -389.75 21.1 -406.55 43.45 -416.95 56.25 -415.5 66.3 -408.25 75.7 -401.45 80.05 -391.6 84.4 -381.7 82.1 -372.2 79.6 -362.0 69.85 -355.25 63.85 -359.4 63.35 -365.6 63.1 -369.15 65.3 -377.9 67.55 -386.85 67.3 -392.1 66.9 -400.65 61.05 -408.15 40.3 -406.7 31.25 -397.0 25.25 -390.65 21.95 -375.85 L19.2 -364.15 Q17.35 -357.65 14.6 -353.2 7.55 -341.65 -9.4 -337.65 8.5 -341.05 45.6 -337.8 L122.75 -328.85 Q122.05 -319.3 114.65 -314.9 108.55 -311.3 96.75 -310.8 90.6 -310.5 74.25 -311.3 59.5 -312.0 52.25 -311.25 L146.7 -245.75 Q200.95 -208.05 236.05 -185.65 335.15 -122.4 422.25 -91.0 409.7 -82.4 369.05 -88.5 357.05 -90.3 335.85 -94.55 L307.7 -99.8 Q317.75 -91.25 334.5 -85.2 350.5 -79.4 369.65 -76.85 410.95 -71.4 439.85 -82.2 485.1 -49.65 562.05 -15.0 579.95 -6.95 628.1 13.65 669.95 31.6 693.8 42.7 M259.55 -146.35 Q264.5 -142.7 263.65 -135.05 253.2 -133.4 254.9 -129.1 256.25 -125.8 263.65 -122.15 270.65 -118.75 272.4 -119.45 274.25 -120.2 263.65 -126.25 263.7 -131.15 267.55 -133.35 270.05 -134.8 276.2 -135.75 282.8 -136.8 285.15 -137.8 289.45 -139.65 290.1 -143.85 281.1 -148.05 263.7 -157.05 246.25 -166.05 237.25 -170.3 234.65 -160.8 238.5 -156.1 241.05 -153.0 248.55 -150.75 257.1 -148.15 259.55 -146.35 M228.45 -11.7 Q215.05 -2.65 208.9 21.6 205.2 36.0 202.0 69.9 198.85 103.2 195.15 117.05 189.0 139.85 175.6 146.85 158.65 141.6 134.65 137.15 L91.0 130.1 Q63.4 125.85 47.85 122.6 24.75 117.8 8.2 111.6 24.55 124.1 50.95 132.7 69.45 138.75 102.15 145.45 144.25 154.0 154.8 156.65 183.65 163.85 202.0 173.3 215.7 140.85 221.8 85.7 224.05 65.15 225.8 36.7 L228.45 -11.7 M466.3 358.3 Q356.3 366.15 245.3 362.25 124.15 357.95 43.45 340.65 -36.15 323.6 -137.8 278.75 -173.8 262.9 -226.25 237.45 -284.85 208.75 -314.05 194.75 -388.95 158.9 -446.1 137.3 -475.8 127.8 -502.75 120.45 L-566.4 102.65 Q-620.55 92.5 -670.05 94.0 -572.8 106.05 -459.9 148.75 -416.25 165.3 -359.95 190.2 -344.5 197.05 -260.5 235.35 -199.45 263.2 -159.4 279.9 -103.15 303.35 -54.45 319.55 64.45 359.15 175.6 367.1 328.95 378.1 476.6 370.4 642.1 361.8 739.35 331.85 L785.8 317.25 Q813.65 307.55 830.8 297.3 877.3 269.3 862.7 226.15 845.15 269.0 802.05 296.25 764.6 319.95 705.1 333.35 658.4 343.9 587.8 349.9 L526.6 354.35 466.3 358.3 M-423.45 -372.9 Q-474.85 -372.05 -483.4 -368.9 -490.9 -366.1 -464.65 -364.1 -437.35 -361.95 -405.55 -363.65 -366.75 -365.7 -344.15 -372.9 -356.6 -372.75 -383.35 -372.95 -409.15 -373.15 -423.45 -372.9 M-140.95 -363.45 Q-159.8 -352.9 -173.25 -342.9 -206.95 -317.8 -220.85 -284.8 L-175.8 -287.55 Q-148.65 -289.1 -132.3 -291.3 -84.0 -297.85 -53.45 -320.05 -50.3 -331.05 -54.55 -336.55 -57.25 -340.05 -65.65 -343.1 -74.5 -346.35 -77.25 -349.15 -82.1 -354.1 -79.9 -364.1 -70.5 -365.5 -64.25 -362.1 -59.85 -359.7 -55.3 -353.45 -49.2 -345.1 -47.6 -343.5 -42.6 -338.55 -35.85 -337.65 -36.8 -355.9 -46.25 -362.7 -52.95 -367.5 -67.35 -367.7 L-79.15 -367.7 Q-85.95 -367.8 -90.35 -368.7 -102.15 -371.15 -106.3 -381.7 -130.4 -369.4 -140.95 -363.45 M-141.55 -381.7 Q-214.05 -365.3 -293.1 -359.2 -374.15 -353.0 -450.4 -358.5 -530.8 -364.3 -596.4 -382.6 -666.75 -402.2 -714.1 -434.55 -729.8 -437.35 -748.3 -435.35 L-777.25 -430.85 Q-792.55 -428.5 -801.1 -430.4 -812.35 -432.9 -819.8 -443.35 -809.0 -391.55 -781.4 -346.3 -753.3 -300.35 -711.6 -267.45 -667.95 -233.05 -614.4 -217.1 -557.35 -200.05 -493.9 -205.5 -542.75 -209.65 -589.25 -222.75 -635.95 -235.95 -674.15 -256.5 -713.7 -277.75 -739.4 -304.35 -766.6 -332.5 -775.75 -364.1 -746.3 -308.8 -679.3 -271.4 -616.55 -236.4 -533.95 -223.95 -452.45 -211.7 -373.0 -224.55 -289.9 -238.05 -229.65 -276.0 -228.15 -297.1 -218.85 -313.65 -211.15 -327.4 -196.7 -339.95 -188.45 -347.15 -169.0 -360.7 -150.35 -373.7 -141.55 -381.7 M-199.2 -263.15 Q-179.4 -269.6 -168.0 -276.0 -199.1 -272.75 -231.55 -262.45 -251.75 -256.05 -287.5 -241.35 -324.65 -226.0 -343.15 -219.9 -375.45 -209.25 -405.85 -205.5 -475.4 -201.65 -473.2 -199.35 -471.2 -197.25 -424.1 -198.2 -374.1 -199.25 -335.0 -202.95 -286.45 -207.55 -282.5 -214.35 -276.15 -228.35 -262.2 -238.1 -251.15 -245.8 -232.5 -252.45 -221.7 -256.3 -199.2 -263.15 M-168.0 -249.55 Q-157.1 -239.25 -164.9 -229.1 -169.7 -222.85 -183.3 -215.55 -178.8 -218.55 -177.85 -225.1 -176.85 -232.05 -179.95 -239.4 -182.95 -246.6 -187.05 -247.75 -191.7 -249.05 -194.4 -240.75 -188.9 -240.45 -189.1 -235.0 L-191.55 -223.1 Q-193.25 -215.15 -191.0 -211.25 -187.9 -205.8 -176.8 -205.5 -174.4 -209.7 -165.2 -216.4 L-148.75 -228.05 Q-139.7 -234.8 -137.5 -239.4 -134.65 -245.35 -141.55 -249.55 -143.6 -232.1 -164.9 -248.85 L-174.3 -257.05 -168.0 -249.55 M-16.1 -353.65 Q-14.85 -349.0 -9.4 -346.45 L-16.1 -353.65 M-70.2 -244.25 Q-72.3 -238.9 -71.1 -231.95 -62.5 -232.7 -55.6 -229.85 -51.4 -228.1 -44.65 -223.15 -37.85 -218.15 -33.7 -216.45 -28.2 -214.15 -21.6 -214.2 L-18.45 -217.2 Q-19.05 -228.55 -12.9 -235.45 -8.65 -240.3 3.15 -245.85 15.3 -251.6 19.5 -255.9 26.8 -263.3 25.8 -276.0 9.35 -287.35 0.55 -290.9 -8.05 -294.35 -15.7 -292.85 -20.1 -292.0 -33.25 -286.4 -48.4 -279.95 -62.25 -276.0 -59.8 -267.6 -61.1 -261.6 -61.95 -257.55 -65.3 -252.6 -69.25 -246.8 -70.2 -244.25 M81.7 -243.85 L105.1 -223.15 Q92.1 -220.0 83.75 -223.85 78.2 -226.35 72.05 -234.15 65.0 -243.05 61.45 -245.55 54.2 -250.65 43.45 -249.55 41.3 -240.05 34.25 -232.3 30.7 -228.4 20.1 -220.0 10.75 -212.6 6.65 -207.05 0.4 -198.75 -0.6 -187.9 6.9 -186.75 13.6 -182.3 16.65 -180.3 24.55 -173.4 31.2 -167.65 36.1 -165.15 43.4 -161.5 52.25 -161.45 69.8 -171.4 89.6 -194.55 L105.7 -213.75 Q115.2 -224.9 122.75 -231.95 111.15 -236.4 91.85 -244.5 79.6 -249.6 77.7 -249.75 75.3 -249.85 81.7 -243.85 M23.1 -248.4 Q-0.7 -233.85 -18.45 -217.2 L-18.2 -214.35 -21.6 -214.2 -22.5 -213.3 Q-45.9 -190.15 -52.75 -167.7 -60.9 -141.0 -44.65 -117.4 -49.9 -117.8 -54.5 -116.25 -57.05 -115.4 -61.95 -112.7 -66.6 -110.2 -69.6 -109.3 -74.3 -107.95 -79.9 -108.6 -89.1 -118.15 -89.05 -126.7 -89.0 -132.9 -83.35 -141.75 -75.15 -154.6 -73.7 -157.85 -69.1 -168.2 -71.1 -179.1 -75.6 -184.8 -82.8 -189.4 -88.7 -193.1 -97.5 -196.7 -135.4 -154.55 -141.65 -120.4 -149.0 -80.7 -115.15 -46.95 -77.95 -25.0 -68.35 -18.85 -42.65 -2.3 -25.75 13.45 17.65 53.85 25.8 111.6 43.9 111.15 63.1 114.0 74.6 115.7 96.3 120.45 118.0 125.2 129.5 126.85 148.7 129.7 166.75 129.25 177.95 126.65 182.3 113.95 185.15 105.75 186.15 86.95 187.25 66.5 189.1 59.1 192.5 45.25 202.0 41.15 199.75 38.75 193.1 37.8 L179.15 36.35 Q158.7 33.95 149.15 23.5 146.5 13.85 149.55 8.45 151.75 4.5 158.15 1.65 L168.85 -3.0 Q174.45 -6.25 175.6 -11.7 159.7 -32.15 145.85 -39.3 126.3 -49.4 105.1 -38.15 105.05 -49.85 98.15 -62.4 91.75 -74.0 81.55 -82.8 71.3 -91.65 61.3 -94.15 50.5 -96.85 43.45 -91.0 39.25 -103.3 46.95 -117.55 52.75 -128.35 67.8 -143.7 L94.1 -169.95 Q108.6 -185.25 113.9 -196.7 121.8 -190.55 119.35 -183.05 117.35 -177.1 108.25 -169.25 L91.2 -155.95 Q81.4 -148.35 78.7 -143.85 79.65 -136.8 84.25 -131.8 87.55 -128.2 94.35 -124.3 L105.45 -117.75 Q111.3 -113.65 113.9 -108.6 134.3 -112.25 150.25 -129.55 155.1 -134.85 163.0 -145.4 171.55 -156.8 175.6 -161.45 157.05 -200.25 129.25 -201.75 105.1 -203.05 79.85 -177.15 56.5 -153.15 43.15 -118.25 29.35 -82.25 34.65 -55.75 23.3 -52.55 16.1 -54.85 10.45 -56.65 6.15 -62.5 L-0.55 -73.45 Q-4.65 -79.8 -9.4 -82.2 14.4 -93.6 25.8 -117.4 20.7 -119.75 10.05 -128.45 -3.25 -139.25 -8.35 -142.65 -19.15 -149.95 -27.25 -150.85 -37.25 -152.0 -44.65 -143.85 -44.55 -170.5 -6.35 -209.05 7.5 -223.05 28.1 -240.35 L61.05 -267.2 Q45.35 -262.0 23.1 -248.4 M219.65 -170.3 Q193.05 -161.15 166.6 -135.2 L145.0 -112.75 Q131.85 -98.9 122.75 -91.0 114.05 -91.0 103.65 -99.4 100.15 -102.2 95.05 -107.15 L87.1 -114.85 Q78.15 -123.05 72.95 -122.75 66.0 -122.4 61.05 -108.6 69.25 -100.15 78.95 -95.45 84.85 -92.6 95.45 -89.65 105.75 -86.75 110.15 -84.5 117.65 -80.65 122.75 -73.4 119.55 -73.35 117.45 -70.9 115.45 -68.6 115.25 -65.35 115.05 -62.0 116.8 -59.4 118.85 -56.55 122.75 -55.75 126.9 -75.95 138.5 -92.8 147.7 -106.1 163.9 -120.3 173.3 -128.5 192.9 -144.15 210.05 -158.4 219.65 -170.3 M163.95 -44.15 Q169.6 -39.9 166.75 -29.35 190.65 -28.25 202.0 -38.15 201.7 -29.75 204.55 -25.1 207.6 -20.05 210.8 -29.35 205.65 -37.25 196.45 -43.6 189.55 -48.35 177.9 -53.7 164.65 -59.5 158.25 -62.65 147.15 -68.0 140.35 -73.4 134.8 -59.95 138.7 -54.15 141.35 -50.3 150.6 -48.4 161.15 -46.2 163.95 -44.15 M5.65 -142.9 Q18.25 -136.25 27.9 -137.95 38.95 -139.85 43.45 -152.65 32.0 -151.9 23.15 -156.6 18.4 -159.1 9.4 -167.05 1.1 -174.35 -4.95 -176.95 -14.4 -180.9 -27.05 -179.1 -24.85 -169.85 -15.35 -159.4 -5.9 -149.0 5.65 -142.9 M-53.6 -213.05 Q-62.05 -222.65 -88.7 -223.15 -84.35 -200.4 -72.15 -194.5 -67.3 -192.15 -62.25 -193.15 -57.55 -194.05 -54.25 -197.3 -51.0 -200.6 -50.65 -204.75 -50.25 -209.25 -53.6 -213.05 M-177.75 -189.1 Q-180.2 -195.55 -185.6 -196.7 -188.0 -185.9 -196.45 -178.9 -203.0 -173.45 -215.2 -169.05 L-236.75 -162.0 Q-249.25 -157.65 -256.05 -152.65 -226.8 -136.35 -214.25 -128.4 -191.7 -114.05 -176.8 -99.8 -167.45 -117.25 -162.9 -134.35 -157.6 -154.4 -150.35 -170.3 -162.15 -165.5 -168.0 -168.05 -172.45 -169.95 -174.55 -176.95 -176.35 -185.4 -177.75 -189.1 M-209.3 -240.75 Q-210.8 -243.0 -212.05 -240.75 -215.1 -233.0 -221.5 -225.95 -225.3 -221.75 -234.05 -214.3 -242.75 -206.9 -246.6 -202.7 -253.0 -195.65 -256.05 -187.9 -250.5 -187.2 -249.65 -184.7 -249.1 -183.1 -250.65 -179.45 -252.3 -175.55 -252.15 -174.05 -251.8 -171.3 -247.25 -170.3 -227.7 -166.0 -216.75 -177.8 -208.0 -187.25 -205.75 -205.5 -203.95 -220.2 -206.7 -233.2 -207.8 -238.6 -209.3 -240.75 M-254.3 -225.75 Q-259.95 -222.15 -274.5 -215.1 -287.9 -208.65 -294.3 -204.1 -304.25 -197.0 -308.95 -187.9 -300.6 -188.35 -294.85 -184.35 -291.25 -181.85 -286.4 -175.2 -281.3 -168.25 -278.2 -165.8 -272.7 -161.45 -264.9 -161.45 -269.9 -176.5 -264.8 -190.4 -261.25 -200.15 -251.35 -211.75 L-243.85 -220.3 Q-239.85 -224.9 -238.05 -227.8 -233.3 -235.45 -238.45 -240.75 -243.8 -232.45 -254.3 -225.75 M-335.35 -187.9 Q-313.25 -160.95 -275.25 -135.7 -235.0 -108.95 -212.05 -108.6 -249.0 -136.15 -271.1 -150.85 -304.7 -173.2 -335.35 -187.9" fill="#373535" fill-rule="evenodd" stroke="none"/>
    <path d="M827.45 349.45 Q811.8 378.4 762.7 403.5 721.7 424.45 668.9 437.55 583.35 458.85 458.35 464.7 336.6 470.45 208.4 460.2 75.95 449.6 -29.35 424.5 -143.2 397.4 -203.2 358.3 -220.9 346.75 -216.25 347.5 -212.5 348.05 -195.65 356.2 -181.05 363.2 -167.75 370.35 -154.8 377.3 -158.8 376.05 -54.65 412.55 76.95 433.05 211.6 454.1 346.65 453.9 490.4 453.65 610.1 429.1 740.55 402.35 827.45 349.45" fill="#373535" fill-rule="evenodd" stroke="none"/>
  </g>
</svg>
