<?xml version="1.0" encoding="UTF-8" standalone="no"?>
<svg xmlns:xlink="http://www.w3.org/1999/xlink" height="999.8px" width="762.35px" xmlns="http://www.w3.org/2000/svg">
  <g transform="matrix(1, 0, 0, 1, 381.6, 499.8)">
    <path d="M354.8 -353.4 Q356.0 -350.35 356.0 -346.4 356.0 -342.05 354.85 -338.95 355.9 -329.8 357.6 -320.8 360.15 -307.3 360.9 -301.3 362.4 -289.6 362.4 -276.2 362.4 -266.15 359.9 -240.65 357.5 -216.85 356.0 -208.4 L356.0 -89.6 Q355.35 -87.55 355.1 -80.1 354.8 -71.3 354.15 -67.0 353.2 -61.05 351.05 -57.2 354.0 -50.15 354.4 -42.8 355.75 -26.4 360.2 -18.55 362.25 -14.9 362.85 -12.75 364.0 -8.75 364.0 -1.4 364.0 0.2 360.0 36.95 356.0 73.7 356.0 88.6 356.0 98.4 357.85 109.95 351.25 91.6 326.9 97.25 317.9 99.35 304.85 105.2 L286.0 114.0 Q279.1 117.0 263.2 122.7 247.35 128.45 240.2 131.55 215.2 142.35 215.2 153.6 215.2 155.45 216.7 160.2 L220.0 170.4 Q224.8 186.1 224.8 198.6 224.8 205.95 222.3 212.05 220.8 215.7 216.8 223.2 208.8 240.05 208.8 270.4 L208.1 276.05 Q207.65 282.8 208.85 288.4 212.7 306.2 231.6 306.4 L177.2 312.0 Q157.8 314.0 129.9 323.75 L83.2 341.2 Q41.2 356.45 0.35 379.65 -22.15 392.45 -67.85 422.5 -110.3 450.4 -136.1 464.35 -176.55 486.25 -219.2 500.0 L-267.2 500.0 Q-326.65 493.65 -355.0 458.4 -365.8 445.05 -371.0 428.6 -373.15 421.9 -374.15 415.45 -368.6 430.55 -359.15 443.2 -321.6 493.6 -232.8 493.6 -212.2 493.6 -206.4 488.8 -204.35 487.1 -204.0 484.65 L-204.0 481.0 Q-204.0 477.65 -255.2 409.6 -266.5 394.35 -276.25 372.95 L-291.6 336.4 Q-294.6 332.95 -303.0 318.45 -311.3 304.1 -317.0 297.7 -325.9 287.8 -334.85 287.9 -340.2 287.95 -345.75 291.6 -338.85 284.45 -330.6 284.05 -329.15 280.8 -327.0 277.9 -321.65 270.7 -309.7 263.15 L-285.35 248.85 Q-269.05 239.15 -257.6 229.6 -254.25 226.85 -238.05 216.55 -217.25 203.35 -199.45 193.95 -191.55 189.75 -184.75 186.65 -184.1 181.55 -172.4 172.75 -168.15 169.55 -140.45 151.0 -83.85 113.0 -50.4 76.8 -11.45 34.7 2.75 17.5 27.8 -12.95 42.4 -40.8 56.9 -68.3 65.95 -99.05 74.5 -128.3 77.6 -158.4 79.1 -173.25 85.95 -219.3 90.4 -249.25 90.4 -274.8 90.4 -300.55 87.55 -341.4 L89.35 -339.6 Q95.0 -334.85 107.4 -334.7 L132.35 -335.9 Q148.8 -336.5 160.0 -333.6 L246.4 -333.6 281.9 -335.95 297.6 -336.8 344.0 -336.8 Q351.35 -343.8 354.8 -353.4 M364.45 140.3 L364.8 141.8 Q368.8 157.9 370.6 168.0 L370.1 165.85 364.45 140.3 M343.25 274.35 Q328.05 285.0 304.8 293.6 290.15 299.05 265.6 302.6 L271.7 300.05 Q275.15 298.15 281.45 293.85 287.95 289.8 295.6 287.2 304.45 284.2 317.15 281.05 L336.75 276.25 343.25 274.35 M84.55 -379.65 Q80.8 -425.2 80.8 -427.2 80.8 -458.45 83.45 -472.5 86.3 -487.55 93.95 -493.15 96.15 -494.75 99.25 -495.9 94.65 -493.25 92.5 -488.65 90.65 -484.85 90.4 -479.2 L90.4 -471.6 Q89.9 -462.0 86.85 -452.25 84.0 -443.25 84.0 -436.2 84.0 -434.2 85.6 -419.1 87.2 -404.0 87.2 -402.0 87.2 -398.8 84.8 -381.65 L84.55 -379.65" fill="#ffffff" fill-rule="evenodd" stroke="none"/>
    <path d="M99.25 -495.9 Q106.1 -499.9 118.4 -499.6 118.4 -499.95 135.95 -499.65 L155.6 -498.8 208.0 -498.4 217.85 -496.85 Q225.05 -495.65 228.0 -494.4 L290.8 -494.0 Q291.8 -494.5 296.0 -495.2 L345.6 -495.2 Q355.8 -495.3 360.8 -481.0 364.0 -471.9 364.0 -463.4 364.0 -455.6 360.95 -428.95 L357.6 -399.2 Q357.2 -394.4 357.6 -384.1 358.05 -373.35 357.7 -368.0 357.2 -360.1 354.8 -353.4 351.35 -343.8 344.0 -336.8 L297.6 -336.8 281.9 -335.95 246.4 -333.6 160.0 -333.6 Q148.8 -336.5 132.35 -335.9 L107.4 -334.7 Q95.0 -334.85 89.35 -339.6 L87.55 -341.4 Q82.4 -347.45 82.4 -360.0 82.4 -364.25 84.55 -379.65 L84.8 -381.65 Q87.2 -398.8 87.2 -402.0 87.2 -404.0 85.6 -419.1 84.0 -434.2 84.0 -436.2 84.0 -443.25 86.85 -452.25 89.9 -462.0 90.4 -471.6 L90.4 -479.2 Q90.65 -484.85 92.5 -488.65 94.65 -493.25 99.25 -495.9 M357.85 109.95 L358.8 113.2 Q360.05 120.3 364.45 140.3 L370.1 165.85 370.6 168.0 Q378.4 202.9 378.4 205.6 378.4 220.15 373.4 234.35 370.6 242.2 360.0 264.4 357.45 269.8 343.25 274.35 L336.75 276.25 317.15 281.05 Q304.45 284.2 295.6 287.2 287.95 289.8 281.45 293.85 275.15 298.15 271.7 300.05 L265.6 302.6 Q253.6 306.4 232.0 306.4 L231.6 306.4 Q212.7 306.2 208.85 288.4 207.65 282.8 208.1 276.05 L208.8 270.4 Q208.8 240.05 216.8 223.2 220.8 215.7 222.3 212.05 224.8 205.95 224.8 198.6 224.8 186.1 220.0 170.4 L216.7 160.2 Q215.2 155.45 215.2 153.6 215.2 142.35 240.2 131.55 247.35 128.45 263.2 122.7 279.1 117.0 286.0 114.0 L304.85 105.2 Q317.9 99.35 326.9 97.25 351.25 91.6 357.85 109.95 M-374.15 415.45 Q-376.3 409.7 -377.85 403.65 -381.6 389.0 -381.6 375.4 -381.6 370.8 -378.4 338.8 -379.65 331.15 -372.5 321.05 L-357.6 302.8 Q-351.55 295.3 -345.75 291.6 -340.2 287.95 -334.85 287.9 -325.9 287.8 -317.0 297.7 -311.3 304.1 -303.0 318.45 -294.6 332.95 -291.6 336.4 L-276.25 372.95 Q-266.5 394.35 -255.2 409.6 -204.0 477.65 -204.0 481.0 L-204.0 484.65 Q-204.35 487.1 -206.4 488.8 -212.2 493.6 -232.8 493.6 -321.6 493.6 -359.15 443.2 -368.6 430.55 -374.15 415.45" fill="#99ffff" fill-rule="evenodd" stroke="none"/>
    <path d="M355.25 -458.65 Q354.65 -477.0 344.15 -486.75 339.9 -454.85 340.3 -418.1 340.6 -388.75 344.15 -346.45 334.7 -361.4 333.05 -380.15 332.0 -391.75 334.2 -414.5 336.45 -438.15 335.75 -449.85 334.55 -470.0 325.85 -486.75 321.7 -448.85 321.2 -427.35 320.35 -391.65 325.85 -352.55 313.35 -353.75 311.1 -367.7 309.6 -376.9 312.6 -401.45 316.2 -430.8 316.15 -444.3 316.05 -469.65 307.5 -486.75 302.1 -452.25 302.5 -414.95 302.85 -382.95 307.5 -346.45 309.05 -341.7 315.0 -340.2 L328.15 -339.6 343.2 -340.9 356.35 -340.35 Q365.4 -295.6 366.55 -245.75 367.4 -208.35 363.65 -157.8 L357.1 -75.7 Q354.1 -30.3 356.35 1.3 347.95 -34.75 347.8 -79.2 347.7 -109.85 352.15 -160.25 357.75 -222.85 358.65 -241.4 360.85 -287.0 356.35 -322.0 336.2 -330.2 298.55 -330.95 279.2 -331.3 225.55 -328.75 176.65 -326.45 150.85 -327.8 111.4 -329.9 87.9 -340.35 102.1 -214.15 72.1 -113.25 45.3 -23.1 -18.55 51.85 -72.25 114.85 -159.7 174.9 -195.35 199.4 -241.6 226.9 -273.45 245.85 -326.95 275.85 -289.1 242.35 -223.3 199.55 L-168.45 164.4 Q-135.95 143.45 -114.45 128.4 -54.2 86.15 -17.3 45.55 28.8 -5.15 51.3 -65.8 70.05 -155.85 77.2 -287.7 78.3 -307.35 82.05 -395.55 84.85 -460.0 87.9 -498.95 148.75 -500.65 224.5 -498.25 L356.35 -492.85 Q361.8 -473.3 361.9 -451.35 361.95 -437.95 359.4 -413.35 356.85 -388.85 356.9 -377.05 357.0 -357.0 362.45 -340.35 350.4 -357.3 348.85 -380.5 347.8 -395.4 351.65 -421.55 355.6 -448.8 355.25 -458.65 M130.6 -492.85 Q129.25 -475.45 128.7 -454.4 L127.9 -421.25 Q126.5 -383.5 118.4 -346.45 112.6 -357.25 113.85 -378.65 114.15 -383.2 118.75 -419.5 122.0 -445.45 120.4 -460.45 118.1 -481.4 106.2 -492.85 L108.7 -458.0 Q110.05 -439.15 110.05 -426.7 110.1 -392.75 100.1 -352.55 95.1 -355.25 94.65 -359.55 94.35 -362.35 96.25 -367.15 98.25 -372.2 98.25 -373.55 98.25 -376.4 94.0 -376.95 89.85 -371.2 88.3 -364.3 86.5 -356.45 87.9 -346.45 129.75 -337.3 189.1 -334.8 230.9 -333.0 301.4 -334.25 295.65 -349.0 295.3 -371.55 295.15 -379.15 296.85 -412.4 298.1 -437.7 296.1 -452.3 293.25 -473.1 283.1 -486.75 283.45 -474.35 285.0 -450.1 286.3 -428.8 286.45 -417.2 286.75 -380.65 277.0 -340.35 275.5 -358.55 277.5 -384.05 L280.55 -423.8 Q281.3 -445.1 277.25 -459.95 272.2 -478.25 258.7 -492.85 264.05 -446.1 263.05 -409.55 262.4 -387.2 258.7 -340.35 252.1 -359.45 252.6 -384.15 252.75 -392.8 256.05 -425.8 258.45 -449.8 256.25 -462.85 253.2 -481.2 240.4 -492.85 234.35 -480.6 233.4 -458.7 232.8 -445.55 234.3 -416.6 235.8 -387.65 235.25 -374.5 234.25 -352.6 228.2 -340.35 224.05 -351.05 225.65 -375.6 228.55 -405.85 229.7 -421.45 231.7 -449.2 228.45 -464.85 224.1 -485.6 209.9 -492.85 213.15 -451.7 210.2 -408.5 208.55 -383.8 203.8 -340.35 196.6 -353.1 197.9 -374.9 198.35 -382.75 200.1 -394.85 L203.2 -415.65 Q206.7 -441.25 204.2 -456.9 200.75 -478.65 185.5 -492.85 193.6 -458.05 189.0 -412.75 187.7 -400.0 184.05 -375.55 180.5 -351.65 179.4 -340.35 172.55 -355.4 174.0 -377.95 174.5 -385.95 179.7 -418.65 183.65 -443.85 182.2 -458.35 180.05 -479.1 167.2 -492.85 170.5 -460.7 166.5 -412.75 L163.1 -376.7 Q161.3 -357.15 161.1 -346.45 153.55 -363.55 154.15 -385.35 154.45 -396.2 158.75 -423.35 162.45 -446.8 161.45 -459.55 160.0 -478.65 148.9 -492.85 148.25 -480.7 148.1 -457.3 L147.65 -419.25 Q146.15 -373.15 136.7 -346.45 132.1 -360.85 133.95 -382.3 134.45 -387.8 139.55 -420.95 143.2 -444.65 142.2 -458.95 140.8 -478.95 130.6 -492.85 M94.0 -480.65 Q95.0 -473.3 93.55 -442.1 93.3 -416.85 100.1 -425.75 99.5 -430.1 99.9 -442.6 L100.55 -464.25 Q100.8 -489.55 94.0 -480.65" fill="#373535" fill-rule="evenodd" stroke="none"/>
    <path d="M361.75 28.85 Q361.9 40.1 359.3 59.5 355.9 84.65 355.35 91.55 353.9 109.85 356.35 123.35 357.6 130.25 367.45 159.35 376.9 187.4 379.45 204.6 383.35 230.55 375.35 247.3 365.65 267.7 338.05 275.85 360.25 259.6 367.3 236.1 373.05 217.0 369.15 190.25 367.2 176.65 358.55 142.9 351.05 113.75 350.25 98.95 331.75 100.95 313.35 107.8 301.1 112.35 281.9 122.1 259.9 133.25 251.05 137.0 233.05 144.65 216.0 147.75 225.1 166.55 225.8 186.2 226.35 201.15 221.8 222.0 L213.35 258.75 Q209.0 281.2 209.9 300.25 223.7 305.2 239.95 302.95 252.05 301.25 269.9 294.5 L300.35 282.85 Q318.2 276.7 331.95 275.85 311.4 291.05 287.85 299.25 269.05 305.8 242.95 309.5 L195.25 315.15 Q165.4 318.85 142.8 324.65 98.45 336.1 46.65 363.15 14.55 379.95 -42.85 415.85 -100.75 452.15 -126.45 465.7 -171.1 489.25 -204.95 495.5 -239.55 501.9 -272.1 498.55 -304.7 495.2 -329.1 482.7 -354.55 469.65 -366.75 448.8 -379.8 426.45 -375.75 397.85 -382.05 379.8 -380.45 360.2 -378.95 342.15 -371.05 324.8 -363.6 308.45 -351.8 295.45 -340.2 282.65 -326.95 275.85 -315.45 295.95 -298.45 331.25 -277.75 374.1 -270.75 387.45 -254.55 418.45 -239.15 439.75 -220.35 465.85 -198.85 483.3 -154.85 466.6 -100.6 436.6 L-54.5 410.3 -8.4 383.9 Q46.05 353.55 89.25 336.65 145.75 314.6 203.8 306.35 198.75 288.1 201.15 265.9 202.4 254.45 208.8 226.25 214.55 200.65 215.45 185.45 216.8 162.2 209.9 141.65 227.85 139.0 246.3 130.75 253.5 127.5 277.45 114.6 296.45 104.3 309.9 99.75 329.3 93.2 350.25 92.85 351.1 83.7 350.65 68.8 L349.65 43.45 Q348.95 13.15 356.35 1.3 361.5 12.8 361.75 28.85 M-276.95 396.7 Q-286.5 378.25 -302.1 342.55 -318.8 304.45 -326.95 288.05 -351.4 301.65 -364.65 336.25 -375.75 365.2 -375.75 397.85 -375.8 420.15 -361.8 440.85 -348.0 461.25 -324.2 474.65 -299.35 488.65 -269.7 491.4 -237.35 494.4 -204.95 483.3 -227.6 468.85 -246.3 445.35 -262.0 425.6 -276.95 396.7" fill="#373535" fill-rule="evenodd" stroke="none"/>
  </g>
</svg>
