<?xml version="1.0" encoding="UTF-8" standalone="no"?>
<svg xmlns:xlink="http://www.w3.org/1999/xlink" height="626.0px" width="816.45px" xmlns="http://www.w3.org/2000/svg">
  <g transform="matrix(1, 0, 0, 1, 408.2, 313.0)">
    <path d="M-260.7 -174.9 Q-264.45 -175.5 -265.6 -178.4 -266.35 -180.2 -266.0 -182.0 -266.0 -186.1 -260.85 -190.85 -261.2 -191.8 -261.2 -192.8 -261.2 -198.45 -249.05 -214.9 -237.7 -230.2 -232.6 -233.6 -227.95 -236.65 -218.25 -241.9 -205.4 -248.8 -194.6 -253.3 -180.3 -259.25 -172.45 -259.85 -168.2 -265.1 -152.05 -269.6 -145.0 -271.6 -133.35 -274.0 L-117.2 -277.4 Q-91.45 -284.8 -76.65 -287.6 -58.55 -291.0 -52.35 -287.65 -42.15 -292.45 -10.05 -297.6 33.3 -304.55 59.2 -304.4 L80.6 -304.6 83.2 -305.2 110.2 -305.4 131.45 -306.55 132.9 -307.15 135.2 -307.6 182.4 -307.6 Q239.4 -306.0 259.55 -301.35 268.8 -299.25 273.7 -295.9 277.4 -293.35 280.4 -288.6 283.55 -283.55 286.7 -274.8 290.8 -263.4 292.2 -260.4 293.55 -257.45 297.35 -234.05 301.2 -210.3 301.2 -204.3 301.2 -196.1 299.85 -187.2 L299.6 -185.55 299.7 -185.5 Q302.8 -183.55 302.8 -179.7 302.8 -167.7 288.35 -155.85 272.4 -142.8 249.2 -140.0 253.3 -134.8 271.95 -115.4 287.1 -99.65 292.4 -90.2 298.85 -78.6 307.9 -65.3 313.8 -56.65 325.6 -40.4 330.8 -33.25 344.8 -16.35 356.25 -0.95 356.6 9.4 356.75 12.75 360.75 19.6 L369.45 33.05 Q381.3 50.7 381.95 57.8 L383.6 59.2 Q384.7 61.15 385.95 64.9 L387.6 70.6 Q388.4 73.8 392.1 81.5 395.9 89.3 397.0 93.4 400.0 104.5 402.2 115.5 405.2 130.7 405.2 139.3 405.2 148.9 403.2 158.85 401.1 169.2 397.2 178.0 395.85 181.1 395.9 187.5 394.7 193.25 386.2 197.2 L372.75 205.65 Q361.2 212.4 352.8 212.4 349.45 212.4 347.3 211.55 L345.6 211.6 Q331.6 211.6 331.6 201.4 331.6 200.8 331.0 200.4 L283.55 217.4 Q250.25 228.95 228.6 234.4 181.1 246.0 166.0 250.0 L142.8 258.8 Q121.5 266.8 118.0 266.8 115.1 266.8 113.35 265.65 L97.2 271.1 Q96.95 273.2 94.15 277.15 L92.2 279.8 Q91.4 283.45 88.25 284.2 L86.4 286.0 Q74.7 297.2 66.0 297.2 L65.25 297.2 Q58.4 301.6 44.0 301.6 9.95 301.6 -6.8 278.8 -12.1 271.6 -14.95 262.95 -16.8 257.4 -16.8 255.4 -16.8 248.1 -15.2 244.3 -19.8 237.7 -30.55 228.1 L-43.65 216.3 Q-50.45 209.75 -53.2 205.2 -55.6 201.15 -68.15 187.2 L-93.75 159.15 Q-120.7 129.7 -126.9 119.9 -137.85 116.8 -140.2 102.8 -141.2 97.05 -140.7 89.1 -140.0 81.6 -140.0 80.0 L-149.2 80.0 -153.2 84.5 Q-156.6 87.2 -161.6 87.2 -185.65 87.2 -193.2 56.45 -197.0 40.9 -196.0 24.0 L-195.9 21.8 Q-198.45 19.8 -199.4 15.8 -200.3 11.85 -199.6 7.4 L-199.1 -1.05 -198.0 -13.0 Q-198.0 -23.1 -194.55 -23.3 L-196.8 -37.05 Q-200.7 -60.0 -200.8 -57.15 L-200.8 -58.0 -202.0 -58.0 Q-226.95 -58.0 -246.0 -66.45 -253.4 -69.7 -257.9 -73.45 L-258.55 -74.0 -258.8 -74.0 Q-265.55 -74.0 -267.75 -85.65 L-268.9 -94.9 Q-269.45 -100.05 -270.0 -101.6 -272.4 -108.05 -273.0 -115.75 -273.2 -118.6 -273.2 -128.9 -273.2 -137.45 -265.95 -145.95 L-265.05 -147.0 -262.55 -149.05 -253.6 -156.45 -250.0 -158.55 Q-243.05 -162.3 -237.45 -163.3 -236.65 -164.55 -235.3 -165.7 L-227.6 -170.6 Q-222.25 -173.7 -219.9 -176.4 -216.4 -180.4 -216.4 -185.9 -216.4 -186.4 -218.15 -188.65 -218.75 -191.7 -221.5 -192.9 L-222.6 -194.45 -227.15 -193.6 -232.0 -192.7 Q-237.4 -191.2 -241.6 -188.3 -244.25 -186.5 -245.3 -184.9 L-249.8 -179.75 Q-252.25 -176.8 -255.0 -175.6 L-255.2 -175.6 -255.3 -175.45 -256.1 -175.2 Q-257.85 -175.95 -260.7 -174.9 M160.0 -138.8 L130.4 -138.8 Q61.4 -134.8 24.85 -87.1 11.15 -69.2 3.95 -47.3 -2.0 -29.3 -2.0 -14.2 -2.0 -9.7 9.8 23.95 21.8 58.15 26.4 66.0 31.7 75.05 43.6 86.45 56.6 98.85 72.6 109.3 112.85 135.6 149.2 135.6 L156.7 135.15 164.2 134.2 186.4 134.0 Q209.75 132.95 230.3 125.45 252.0 117.55 268.0 103.25 304.4 70.85 304.4 14.1 304.4 -4.9 295.85 -25.5 292.7 -33.05 286.7 -45.05 L275.6 -67.2 Q264.05 -90.9 238.15 -109.05 206.15 -131.45 160.0 -138.8" fill="#ff0000" fill-rule="evenodd" stroke="none"/>
    <path d="M160.0 -138.8 Q206.15 -131.45 238.15 -109.05 264.05 -90.9 275.6 -67.2 L286.7 -45.05 Q292.7 -33.05 295.85 -25.5 304.4 -4.9 304.4 14.1 304.4 70.85 268.0 103.25 252.0 117.55 230.3 125.45 209.75 132.95 186.4 134.0 L164.2 134.2 156.7 135.15 149.2 135.6 Q112.85 135.6 72.6 109.3 56.6 98.85 43.6 86.45 31.7 75.05 26.4 66.0 21.8 58.15 9.8 23.95 -2.0 -9.7 -2.0 -14.2 -2.0 -29.3 3.95 -47.3 11.15 -69.2 24.85 -87.1 61.4 -134.8 130.4 -138.8 L160.0 -138.8 M146.6 -112.0 Q144.6 -110.0 125.65 -105.8 L104.2 -101.0 Q96.35 -98.3 88.7 -94.6 80.6 -90.7 74.2 -86.4 66.2 -81.0 55.45 -66.85 L48.8 -58.35 46.75 -56.2 46.8 -54.3 41.6 -43.45 Q36.4 -32.4 36.4 -28.2 36.4 -18.85 38.35 -12.35 41.65 -3.1 44.4 6.6 46.5 14.2 53.3 23.6 58.9 31.25 68.6 41.4 71.25 44.2 83.3 59.5 91.85 70.35 100.3 76.35 124.9 93.85 183.4 96.2 L211.0 96.0 210.85 95.8 210.8 94.5 Q210.8 90.0 219.3 85.95 224.6 83.45 240.6 77.4 246.4 75.05 250.7 68.9 254.0 64.15 255.6 58.6 260.9 40.65 271.0 31.95 279.45 24.65 290.45 24.4 291.6 16.4 291.6 8.2 291.6 4.7 289.9 -1.3 L285.6 3.6 Q278.75 10.8 276.0 10.8 271.0 10.8 270.0 6.0 269.5 3.55 270.0 0.6 L270.8 -5.4 271.6 -11.4 Q271.6 -16.8 259.55 -42.05 248.25 -65.8 247.2 -66.6 213.7 -95.4 196.15 -104.0 186.55 -108.7 176.55 -110.55 167.7 -112.2 155.0 -112.2 L146.6 -112.0 M63.45 -27.0 Q62.8 -28.15 62.8 -31.8 62.8 -37.75 67.45 -43.2 71.65 -48.2 77.6 -50.45 83.7 -52.8 87.8 -50.75 92.4 -48.4 92.4 -41.1 92.4 -36.65 89.25 -31.2 84.3 -22.8 74.8 -22.8 65.8 -22.8 63.45 -27.0 M139.8 -83.8 Q137.25 -78.8 130.8 -78.8 122.4 -78.8 120.2 -83.8 119.05 -86.35 119.6 -89.2 119.6 -94.75 123.0 -97.85 125.95 -100.65 130.4 -100.65 134.75 -100.65 137.85 -98.0 141.2 -95.1 141.2 -90.4 141.2 -86.6 139.8 -83.8 M158.65 -85.5 Q158.65 -86.3 158.8 -86.9 158.8 -93.0 162.7 -96.0 165.95 -98.5 171.2 -98.35 175.95 -98.2 179.75 -96.05 183.6 -93.9 183.6 -91.2 183.6 -78.8 170.8 -78.8 161.85 -78.8 159.45 -82.75 158.7 -84.0 158.65 -85.5 M106.8 -74.4 Q106.8 -71.45 104.0 -67.8 100.1 -62.8 93.6 -62.8 85.55 -62.8 83.8 -67.05 82.9 -69.2 83.6 -71.8 83.6 -76.75 87.25 -79.35 90.35 -81.6 95.2 -81.55 99.75 -81.55 103.2 -79.55 106.8 -77.45 106.8 -74.4 M92.85 -7.2 Q97.2 -4.5 97.2 0.0 97.2 4.2 94.4 8.4 90.15 14.8 81.6 14.8 72.6 14.8 70.0 10.45 69.2 9.05 69.1 7.4 L69.2 5.9 Q69.2 -1.35 73.6 -5.5 77.35 -9.1 83.2 -9.45 88.7 -9.8 92.85 -7.2 M107.1 -31.15 Q109.25 -39.35 112.95 -46.7 122.65 -65.8 137.6 -69.2 L171.2 -69.2 Q201.95 -61.3 213.7 -40.4 221.2 -27.1 221.2 -6.2 221.2 9.9 216.45 19.0 206.5 38.0 177.2 38.0 134.7 38.0 116.4 14.2 105.2 -0.4 105.2 -18.8 105.2 -23.85 107.1 -31.15 M221.85 -78.8 Q222.4 -77.1 222.25 -74.95 L222.0 -73.1 222.2 -70.2 Q222.25 -68.2 221.6 -66.8 219.7 -62.8 211.2 -62.8 200.2 -62.8 197.2 -69.45 196.25 -71.5 196.25 -74.05 196.25 -75.35 196.4 -76.3 196.4 -81.1 196.9 -82.85 197.45 -84.7 199.0 -85.05 L211.6 -84.4 Q220.0 -84.4 221.85 -78.8 M219.6 44.55 Q225.2 43.9 228.95 46.8 233.2 50.1 233.2 56.9 233.2 62.5 232.4 65.0 230.6 70.8 224.8 70.8 212.5 70.8 208.2 65.25 206.0 62.4 206.0 57.4 206.0 52.3 210.25 48.6 214.2 45.15 219.6 44.55 M191.2 71.15 Q190.8 73.2 190.05 74.85 189.1 76.9 187.65 78.35 187.4 79.65 186.7 80.75 184.95 83.6 180.8 83.6 177.65 83.6 175.9 82.0 166.35 81.7 163.25 77.25 162.2 75.75 162.0 73.85 L162.0 72.1 Q162.0 67.55 166.65 63.6 170.85 59.95 176.8 58.55 182.9 57.05 187.0 58.85 L188.4 59.6 Q190.95 58.6 192.9 59.05 196.4 59.85 196.4 65.1 196.4 66.6 193.45 69.1 L191.2 71.15 M88.0 29.4 Q91.85 24.7 97.6 23.7 103.25 22.7 107.25 25.85 111.6 29.3 111.6 36.2 111.6 41.6 108.8 45.8 104.4 52.4 94.4 52.4 86.4 52.4 84.2 47.6 83.5 46.1 83.5 44.3 L83.6 42.8 Q83.6 34.75 88.0 29.4 M117.65 62.7 L118.0 60.2 Q118.0 52.95 122.9 49.75 127.1 46.95 133.6 47.8 139.7 48.6 144.35 51.95 149.2 55.55 149.2 59.9 149.2 64.2 146.0 68.0 141.0 74.0 130.0 74.0 120.05 74.0 118.05 67.4 117.4 65.3 117.65 62.7" fill="#ffffff" fill-rule="evenodd" stroke="none"/>
    <path d="M-265.05 -147.0 Q-275.0 -138.8 -276.0 -138.8 -279.6 -138.8 -281.1 -141.55 L-291.2 -133.2 -293.35 -130.9 Q-288.4 -131.95 -288.4 -125.5 -288.4 -123.75 -292.9 -119.75 -297.45 -115.75 -304.0 -111.6 -314.0 -105.35 -321.75 -102.85 L-317.0 -100.7 -306.2 -95.8 Q-298.5 -91.3 -295.5 -85.1 -293.65 -81.3 -292.6 -73.0 -290.55 -58.0 -287.55 -46.5 -286.0 -40.5 -286.0 -27.7 L-286.05 -26.85 Q-284.65 -24.65 -283.4 -21.0 -281.85 -18.15 -281.9 -11.7 -282.05 -4.7 -281.2 -2.4 L-281.2 45.0 Q-279.6 49.8 -279.6 52.5 -279.6 70.55 -309.6 124.8 -324.6 151.95 -339.6 175.8 -339.6 182.05 -338.8 184.8 -337.95 187.65 -335.15 190.35 -324.55 198.6 -312.2 210.6 L-302.2 218.8 Q-294.7 224.65 -292.4 227.2 -289.8 230.1 -274.65 233.2 -255.05 237.25 -253.4 237.8 L-231.2 238.0 -214.0 238.8 Q-208.45 238.8 -204.55 241.4 -202.6 242.7 -201.6 244.0 -185.45 244.0 -180.6 225.0 -179.0 218.85 -178.75 210.9 L-178.8 202.2 Q-178.8 187.3 -187.2 164.25 L-192.95 149.05 Q-195.6 142.05 -195.6 139.8 -194.0 115.8 -191.0 111.6 -188.0 107.55 -174.55 97.5 -160.3 86.8 -156.4 86.8 L-153.65 87.25 Q-147.6 80.75 -144.35 83.7 -142.0 85.75 -142.0 90.3 -142.0 91.3 -142.8 93.6 -143.6 95.9 -143.6 96.9 -143.6 98.6 -141.6 103.95 -139.6 109.3 -139.6 110.4 L-140.0 117.55 -140.4 123.0 Q-140.4 128.5 -134.8 148.15 -129.05 168.1 -126.4 171.0 -121.75 176.15 -117.35 192.85 -113.2 208.6 -113.2 218.4 -113.2 246.2 -124.0 258.65 L-131.4 266.55 Q-134.8 270.85 -134.8 276.9 -134.8 281.65 -139.85 287.65 -144.8 293.5 -151.8 297.4 L-162.2 299.9 Q-172.05 302.05 -174.6 303.2 -177.35 304.45 -184.2 306.85 -193.45 310.0 -196.8 310.0 L-203.1 309.45 -209.0 308.6 -232.0 308.4 Q-235.45 307.15 -237.2 305.4 L-264.0 305.2 Q-269.3 304.0 -270.4 302.05 -270.7 299.9 -271.2 298.85 -273.15 295.2 -299.0 294.4 -303.45 294.3 -310.6 291.2 -319.1 287.5 -323.6 286.6 -337.05 283.85 -348.25 276.9 -353.55 273.6 -365.2 264.0 -367.4 262.25 -369.65 258.2 -372.3 253.5 -374.2 251.4 -375.4 250.1 -384.55 246.25 -392.75 242.8 -393.6 240.0 -396.75 229.75 -401.75 225.25 -403.7 223.5 -404.25 222.05 -405.2 219.8 -405.2 214.8 -405.2 211.35 -403.6 207.15 -402.0 202.95 -402.0 202.2 -402.0 200.4 -404.0 196.85 -406.0 193.25 -406.0 190.8 -403.3 172.6 -398.6 155.4 -395.2 143.0 -391.7 135.1 L-392.4 133.65 Q-394.0 129.75 -394.0 127.3 -394.0 124.75 -379.05 106.95 -368.45 94.25 -361.6 86.8 L-351.95 77.9 Q-345.25 71.25 -344.0 66.4 -342.6 61.15 -339.25 54.35 -336.6 49.05 -336.6 46.3 L-339.7 39.45 Q-342.8 32.8 -342.8 26.8 -342.8 23.35 -340.9 19.15 -339.0 14.95 -339.0 14.2 L-340.9 7.8 Q-342.8 1.7 -342.8 -2.3 -342.8 -3.75 -341.7 -8.65 -340.6 -13.5 -340.6 -14.6 -340.6 -15.55 -344.9 -21.2 -349.2 -27.85 -349.2 -33.8 -349.2 -36.35 -347.2 -38.65 -345.2 -40.9 -345.2 -43.4 -345.2 -46.15 -349.2 -49.0 -353.2 -51.85 -353.2 -56.0 L-352.3 -64.25 Q-351.4 -71.5 -351.4 -72.5 -351.4 -73.0 -353.1 -77.25 -354.8 -81.55 -354.8 -83.3 -354.8 -90.7 -351.3 -98.4 -349.35 -102.7 -346.8 -106.15 L-346.8 -106.4 Q-346.8 -113.2 -325.35 -126.65 -301.9 -140.2 -297.8 -143.6 -295.45 -145.55 -285.8 -154.9 -276.4 -164.05 -271.05 -168.4 -264.8 -173.45 -260.7 -174.9 -257.85 -175.95 -256.1 -175.2 L-255.75 -175.0 -255.3 -175.45 -255.2 -175.6 -255.0 -175.6 Q-254.1 -175.5 -253.1 -174.8 -252.0 -174.0 -251.0 -174.0 -250.5 -174.0 -248.3 -175.65 L-244.4 -178.4 Q-246.0 -180.3 -246.0 -182.9 -246.0 -183.85 -245.3 -184.9 -244.25 -186.5 -241.6 -188.3 -237.4 -191.2 -232.0 -192.7 L-227.15 -193.6 -222.35 -193.2 -221.5 -192.9 Q-218.75 -191.7 -218.15 -188.65 -218.0 -187.85 -218.0 -186.9 -218.0 -180.85 -227.25 -174.3 -232.7 -170.45 -246.4 -162.2 L-253.6 -156.45 -262.55 -149.05 -265.05 -147.0 M221.85 -78.8 Q220.0 -84.4 211.6 -84.4 L199.0 -85.05 Q197.45 -84.7 196.9 -82.85 196.4 -81.1 196.4 -76.3 196.25 -75.35 196.25 -74.05 196.25 -71.5 197.2 -69.45 200.2 -62.8 211.2 -62.8 219.7 -62.8 221.6 -66.8 222.25 -68.2 222.2 -70.2 L222.0 -73.1 222.25 -74.95 Q222.4 -77.1 221.85 -78.8 M107.1 -31.15 Q105.2 -23.85 105.2 -18.8 105.2 -0.4 116.4 14.2 134.7 38.0 177.2 38.0 206.5 38.0 216.45 19.0 221.2 9.9 221.2 -6.2 221.2 -27.1 213.7 -40.4 201.95 -61.3 171.2 -69.2 L137.6 -69.2 Q122.65 -65.8 112.95 -46.7 109.25 -39.35 107.1 -31.15 M92.85 -7.2 Q88.7 -9.8 83.2 -9.45 77.35 -9.1 73.6 -5.5 69.2 -1.35 69.2 5.9 L69.1 7.4 Q69.2 9.05 70.0 10.45 72.6 14.8 81.6 14.8 90.15 14.8 94.4 8.4 97.2 4.2 97.2 0.0 97.2 -4.5 92.85 -7.2 M106.8 -74.4 Q106.8 -77.45 103.2 -79.55 99.75 -81.55 95.2 -81.55 90.35 -81.6 87.25 -79.35 83.6 -76.75 83.6 -71.8 82.9 -69.2 83.8 -67.05 85.55 -62.8 93.6 -62.8 100.1 -62.8 104.0 -67.8 106.8 -71.45 106.8 -74.4 M158.65 -85.5 Q158.7 -84.0 159.45 -82.75 161.85 -78.8 170.8 -78.8 183.6 -78.8 183.6 -91.2 183.6 -93.9 179.75 -96.05 175.95 -98.2 171.2 -98.35 165.95 -98.5 162.7 -96.0 158.8 -93.0 158.8 -86.9 158.65 -86.3 158.65 -85.5 M139.8 -83.8 Q141.2 -86.6 141.2 -90.4 141.2 -95.1 137.85 -98.0 134.75 -100.65 130.4 -100.65 125.95 -100.65 123.0 -97.85 119.6 -94.75 119.6 -89.2 119.05 -86.35 120.2 -83.8 122.4 -78.8 130.8 -78.8 137.25 -78.8 139.8 -83.8 M63.45 -27.0 Q65.8 -22.8 74.8 -22.8 84.3 -22.8 89.25 -31.2 92.4 -36.65 92.4 -41.1 92.4 -48.4 87.8 -50.75 83.7 -52.8 77.6 -50.45 71.65 -48.2 67.45 -43.2 62.8 -37.75 62.8 -31.8 62.8 -28.15 63.45 -27.0 M146.6 -112.0 L155.0 -112.2 Q167.7 -112.2 176.55 -110.55 186.55 -108.7 196.15 -104.0 213.7 -95.4 247.2 -66.6 248.25 -65.8 259.55 -42.05 271.6 -16.8 271.6 -11.4 L270.8 -5.4 270.0 0.6 Q269.5 3.55 270.0 6.0 271.0 10.8 276.0 10.8 278.75 10.8 285.6 3.6 L289.9 -1.3 Q291.6 4.7 291.6 8.2 291.6 16.4 290.45 24.4 279.45 24.65 271.0 31.95 260.9 40.65 255.6 58.6 254.0 64.15 250.7 68.9 246.4 75.05 240.6 77.4 224.6 83.45 219.3 85.95 210.8 90.0 210.8 94.5 L210.85 95.8 211.0 96.0 183.4 96.2 Q124.9 93.85 100.3 76.35 91.85 70.35 83.3 59.5 71.25 44.2 68.6 41.4 58.9 31.25 53.3 23.6 46.5 14.2 44.4 6.6 41.65 -3.1 38.35 -12.35 36.4 -18.85 36.4 -28.2 36.4 -32.4 41.6 -43.45 L46.8 -54.3 46.75 -56.2 48.8 -58.35 55.45 -66.85 Q66.2 -81.0 74.2 -86.4 80.6 -90.7 88.7 -94.6 96.35 -98.3 104.2 -101.0 L125.65 -105.8 Q144.6 -110.0 146.6 -112.0 M117.65 62.7 Q117.4 65.3 118.05 67.4 120.05 74.0 130.0 74.0 141.0 74.0 146.0 68.0 149.2 64.2 149.2 59.9 149.2 55.55 144.35 51.95 139.7 48.6 133.6 47.8 127.1 46.95 122.9 49.75 118.0 52.95 118.0 60.2 L117.65 62.7 M88.0 29.4 Q83.6 34.75 83.6 42.8 L83.5 44.3 Q83.5 46.1 84.2 47.6 86.4 52.4 94.4 52.4 104.4 52.4 108.8 45.8 111.6 41.6 111.6 36.2 111.6 29.3 107.25 25.85 103.25 22.7 97.6 23.7 91.85 24.7 88.0 29.4 M191.2 71.15 L193.45 69.1 Q196.4 66.6 196.4 65.1 196.4 59.85 192.9 59.05 190.95 58.6 188.4 59.6 L187.0 58.85 Q182.9 57.05 176.8 58.55 170.85 59.95 166.65 63.6 162.0 67.55 162.0 72.1 L162.0 73.85 Q162.2 75.75 163.25 77.25 166.35 81.7 175.9 82.0 177.65 83.6 180.8 83.6 184.95 83.6 186.7 80.75 187.4 79.65 187.65 78.35 189.1 76.9 190.05 74.85 190.8 73.2 191.2 71.15 M219.6 44.55 Q214.2 45.15 210.25 48.6 206.0 52.3 206.0 57.4 206.0 62.4 208.2 65.25 212.5 70.8 224.8 70.8 230.6 70.8 232.4 65.0 233.2 62.5 233.2 56.9 233.2 50.1 228.95 46.8 225.2 43.9 219.6 44.55" fill="#cccccc" fill-rule="evenodd" stroke="none"/>
    <path d="M-39.35 -193.7 Q-36.7 -186.6 -35.9 -174.3 L-34.7 -154.8 Q-33.55 -144.75 -29.9 -140.5 -35.4 -139.35 -38.55 -147.25 -40.9 -153.1 -42.65 -166.6 -44.45 -182.4 -45.65 -189.75 -47.65 -202.4 -50.9 -207.7 -42.95 -203.4 -39.35 -193.7" fill="#373535" fill-rule="evenodd" stroke="none"/>
    <path d="M-340.65 -77.5 Q-350.4 -64.9 -351.6 -59.4 -353.9 -49.0 -336.45 -48.1 -334.7 -41.4 -340.2 -39.25 L-345.05 -37.8 Q-347.85 -36.9 -349.05 -35.55 L-342.65 -23.05 Q-338.4 -16.5 -332.25 -14.55 -334.6 -10.85 -338.55 -11.15 -342.1 -11.4 -345.8 -14.65 -349.45 -17.85 -351.55 -22.35 -353.8 -27.15 -353.25 -31.35 -347.3 -41.3 -346.85 -44.45 -346.15 -49.1 -357.45 -52.3 -356.75 -64.35 -353.95 -69.85 -350.05 -77.4 -340.65 -77.5" fill="#373535" fill-rule="evenodd" stroke="none"/>
    <path d="M-328.05 40.05 Q-339.1 67.4 -353.0 86.25 -362.45 99.0 -386.85 124.05 -381.45 128.6 -383.15 135.75 -384.25 140.55 -390.3 150.45 -397.65 162.4 -400.0 167.7 -404.6 178.15 -403.65 187.05 -403.0 189.2 -401.9 189.45 -401.1 189.6 -399.35 188.75 -394.3 186.3 -391.05 187.05 -394.7 191.75 -395.75 198.15 L-396.4 208.55 Q-396.7 214.05 -398.6 216.55 -401.15 219.95 -407.85 220.65 -409.2 202.3 -405.6 180.45 -401.95 158.2 -393.95 137.2 -375.55 88.95 -344.85 69.45 -343.2 47.0 -344.4 27.15 -345.55 8.65 -349.05 -6.15 -342.0 -11.6 -340.4 -9.5 -339.5 -8.4 -339.95 -1.5 -340.45 5.6 -338.85 8.35 -336.3 12.7 -328.05 10.65 -332.15 12.65 -335.5 17.2 -338.8 21.75 -339.65 26.6 -340.55 31.9 -338.0 35.4 -335.05 39.35 -328.05 40.05" fill="#373535" fill-rule="evenodd" stroke="none"/>
    <path d="M-361.65 237.4 Q-368.25 244.4 -365.1 255.0 -363.7 259.65 -360.65 262.8 -357.4 266.2 -353.25 266.8 -348.7 268.55 -346.8 266.95 -345.65 266.0 -344.85 262.6 -344.05 259.2 -342.9 258.25 -341.0 256.7 -336.45 258.4 -341.1 263.8 -340.65 275.2 -340.35 277.55 -336.05 280.2 -331.8 282.85 -326.9 283.85 -321.4 285.0 -318.3 283.2 -314.65 281.05 -315.45 275.2 -305.2 276.65 -307.05 292.0 -290.45 292.8 -284.1 289.8 -274.65 285.35 -277.65 271.0 -270.8 276.3 -270.9 285.2 -270.9 288.35 -271.85 292.9 L-273.35 300.1 -273.15 300.4 Q-266.5 299.6 -265.05 304.6 -258.4 304.3 -252.9 299.95 -247.2 294.45 -244.05 292.0 -241.65 293.75 -238.35 300.95 -236.9 304.1 -235.15 306.1 -231.7 306.45 -228.45 307.6 -222.7 305.1 -219.6 301.75 -214.7 296.5 -214.7 287.8 -208.75 289.95 -212.8 299.2 L-216.55 306.7 Q-218.7 311.0 -218.9 313.0 -223.35 309.4 -228.45 307.6 L-231.45 308.8 Q-233.45 308.05 -235.15 306.1 L-236.45 305.95 -252.7 306.95 Q-261.95 307.95 -266.75 305.75 -270.35 304.1 -273.15 300.4 L-273.45 300.4 -273.35 300.1 Q-275.8 296.8 -277.65 292.0 L-289.5 296.95 Q-296.5 299.5 -302.85 300.4 -313.8 290.95 -331.9 283.25 -341.8 279.0 -365.85 271.0 -366.1 258.75 -374.75 252.65 -381.4 247.95 -395.25 245.8 -393.3 244.0 -392.65 241.0 -392.1 238.1 -393.05 235.3 -395.45 228.55 -403.65 229.0 -402.9 223.55 -396.15 219.7 L-390.9 216.6 Q-388.1 214.65 -386.85 212.25 -385.5 215.6 -386.25 219.7 L-388.4 227.2 Q-391.4 237.4 -386.85 245.8 L-378.15 246.1 Q-375.85 245.3 -373.35 242.55 -370.4 239.35 -368.95 238.5 -366.0 236.75 -361.65 237.4" fill="#373535" fill-rule="evenodd" stroke="none"/>
    <path d="M-281.85 -6.15 Q-268.15 39.6 -287.3 90.85 -301.6 129.05 -336.45 174.45 -332.4 184.15 -325.55 192.9 -319.8 200.3 -311.25 208.05 -314.1 209.1 -319.1 209.65 L-328.55 210.45 Q-341.35 211.65 -349.05 216.45 -350.0 208.75 -341.85 206.8 L-334.65 205.65 Q-330.2 205.0 -328.05 203.85 -332.3 193.0 -344.05 193.35 -351.95 193.6 -365.85 199.65 -368.45 198.35 -366.55 196.0 -364.85 193.9 -360.15 191.65 -349.15 186.3 -340.65 187.05 -340.95 180.1 -349.25 178.85 L-357.25 178.45 -365.85 178.65 Q-373.8 174.65 -360.7 174.3 -353.65 174.15 -340.65 174.45 -340.9 168.3 -349.3 166.3 L-356.15 164.75 Q-359.95 163.7 -361.65 161.85 -360.45 157.65 -358.35 157.4 -356.9 157.25 -353.75 159.25 -349.75 161.8 -347.85 162.4 -344.05 163.65 -340.65 161.85 -346.8 155.4 -353.25 149.25 -350.35 144.6 -347.8 145.7 -346.05 146.45 -343.45 151.0 -340.0 157.1 -338.7 158.6 -335.65 162.35 -332.25 161.85 -331.55 152.2 -333.35 146.15 -335.4 139.4 -340.65 136.65 -345.6 129.5 -336.7 135.45 L-323.85 145.05 Q-324.2 136.2 -325.95 130.35 -328.05 123.45 -332.25 119.85 -335.15 116.05 -333.5 115.95 -331.95 115.9 -328.3 118.65 -324.4 121.65 -321.95 125.1 -318.95 129.35 -319.65 132.45 -317.55 131.95 -315.8 127.9 -314.2 124.1 -311.25 124.05 -309.9 115.25 -314.05 110.05 -316.6 106.85 -323.85 103.05 -319.65 94.8 -313.8 102.55 -310.9 106.4 -307.05 115.65 -304.95 115.15 -303.2 111.1 -301.6 107.3 -298.65 107.25 -298.85 99.4 -304.45 94.15 -306.35 92.4 -309.85 90.1 L-315.45 86.25 Q-312.95 78.75 -306.15 84.35 -303.6 86.45 -301.3 89.7 -299.2 92.7 -298.65 94.65 -292.2 92.4 -290.9 87.25 -289.75 82.75 -292.7 77.35 -295.55 72.15 -300.65 68.7 -306.05 65.05 -311.25 65.25 -309.35 61.6 -305.8 61.7 -303.2 61.75 -298.5 64.1 L-290.2 68.1 Q-285.3 70.1 -281.85 69.45 -283.15 58.75 -291.2 53.6 -298.3 49.1 -311.25 48.45 -315.75 46.3 -312.9 45.0 -310.4 43.85 -303.85 43.85 -297.3 43.85 -292.2 45.0 -286.35 46.3 -286.05 48.45 -284.4 37.65 -309.15 34.4 L-316.4 33.35 -298.65 31.65 Q-294.95 31.0 -291.85 33.25 -288.3 35.75 -286.05 35.85 -281.8 31.0 -282.2 25.0 -282.6 19.4 -286.8 14.55 -291.0 9.65 -297.3 7.4 -304.1 4.95 -311.25 6.45 -313.35 2.2 -308.55 2.05 L-296.8 3.45 Q-288.45 4.65 -284.9 3.25 -279.9 1.25 -281.85 -6.15" fill="#373535" fill-rule="evenodd" stroke="none"/>
    <path d="M-311.25 212.25 Q-307.3 214.6 -298.4 218.3 -291.3 222.25 -290.25 229.0 -303.1 218.35 -315.1 225.25 -318.7 227.3 -325.45 233.1 -332.6 239.2 -336.45 241.6 -330.95 231.95 -325.45 225.3 -318.85 217.3 -311.25 212.25" fill="#373535" fill-rule="evenodd" stroke="none"/>
    <path d="M-276.35 232.5 Q-268.45 233.15 -250.05 236.3 -232.35 238.75 -218.9 237.4 L-214.95 246.85 Q-211.8 254.65 -210.5 260.2 -206.6 277.4 -218.9 279.4 -214.45 265.1 -218.35 255.4 -222.55 245.15 -235.65 241.6 -241.9 246.6 -242.6 259.2 -243.3 270.3 -239.85 279.4 -245.4 281.8 -246.7 277.5 -247.5 274.8 -246.8 265.85 -246.0 255.9 -246.55 251.55 -247.55 243.95 -252.45 241.6 -259.25 246.9 -265.8 249.85 -271.95 252.25 -274.2 253.45 -277.8 255.4 -280.15 259.55 -282.85 264.25 -286.05 275.2 -288.75 272.45 -288.35 266.95 -288.0 261.85 -285.15 256.15 -282.35 250.4 -278.25 246.45 -273.75 242.2 -269.25 241.6 -269.75 239.5 -273.8 237.8 -277.6 236.15 -277.65 233.2 -283.85 233.1 -288.35 236.2 -291.2 238.2 -295.05 243.1 -299.25 248.5 -301.5 250.35 -305.65 253.75 -311.25 254.2 -306.25 240.2 -297.0 235.35 -289.5 231.35 -276.35 232.5" fill="#373535" fill-rule="evenodd" stroke="none"/>
    <path d="M280.85 -291.7 Q284.8 -288.1 294.0 -264.75 304.55 -238.0 306.05 -220.3 307.4 -204.5 306.0 -188.9 304.95 -177.55 301.85 -161.5 281.65 -142.3 247.25 -132.1 241.5 -149.9 215.7 -159.95 203.4 -164.7 175.85 -169.9 175.45 -185.95 168.85 -205.45 L168.25 -207.25 Q172.1 -197.55 178.95 -189.45 192.75 -173.1 214.95 -167.05 236.7 -161.15 258.7 -167.1 281.95 -173.35 297.65 -190.9 303.1 -217.6 295.25 -242.95 290.25 -259.2 272.45 -291.7 214.85 -300.55 143.65 -301.6 71.05 -302.7 0.85 -295.35 -73.95 -287.55 -132.1 -271.55 -195.7 -254.0 -231.45 -228.7 -244.0 -219.8 -252.4 -205.85 -257.8 -196.85 -265.05 -178.3 -260.5 -175.2 -255.8 -178.15 -253.95 -179.3 -246.9 -186.4 -240.7 -192.6 -235.55 -194.8 -227.95 -198.0 -218.9 -195.1 -214.15 -184.5 -218.2 -177.05 -221.3 -171.35 -230.9 -165.85 -236.4 -162.75 -248.1 -156.7 -257.7 -151.0 -260.85 -144.7 -264.95 -148.45 -262.85 -151.65 -261.55 -153.55 -255.5 -157.2 -249.05 -161.15 -246.65 -163.9 -242.65 -168.45 -244.05 -174.1 -268.85 -165.65 -295.75 -141.8 L-317.65 -121.7 Q-330.7 -109.8 -340.65 -102.7 -330.55 -99.65 -321.05 -103.95 -313.65 -107.3 -304.75 -116.2 L-289.6 -132.2 Q-280.65 -141.25 -273.45 -144.7 -269.1 -137.35 -269.95 -126.3 -271.1 -111.6 -269.25 -102.7 -248.25 -92.7 -219.85 -90.55 -191.15 -88.4 -165.55 -95.1 -137.85 -102.4 -122.2 -118.15 -104.6 -135.9 -105.5 -161.5 L-97.75 -167.4 Q-93.05 -170.95 -89.65 -172.95 -79.7 -178.65 -67.7 -178.3 -69.45 -186.95 -66.5 -195.95 -64.6 -201.65 -64.25 -203.15 -63.2 -207.5 -63.5 -211.9 -45.45 -222.6 -13.1 -220.3 -13.75 -215.95 -12.05 -213.0 -11.15 -211.55 -8.0 -208.6 -5.25 -206.1 -4.4 -203.8 -3.2 -200.4 -4.7 -195.1 36.5 -199.1 55.95 -201.6 89.0 -205.95 112.85 -211.9 118.5 -217.5 118.65 -227.7 L118.85 -235.15 Q119.3 -239.0 121.25 -241.3 134.6 -246.05 146.5 -245.7 163.0 -245.2 163.25 -232.9 163.45 -224.25 165.35 -216.45 L164.65 -219.0 Q162.9 -226.3 163.25 -232.9 159.9 -233.45 154.95 -235.95 L146.75 -240.0 Q136.9 -244.05 129.65 -237.1 125.2 -233.5 123.65 -229.75 122.4 -226.9 122.55 -222.55 L122.9 -214.25 Q122.85 -208.75 121.25 -203.5 108.85 -205.25 93.15 -202.2 75.6 -198.85 66.65 -199.3 78.1 -193.2 100.2 -182.45 123.5 -171.15 133.85 -165.7 137.6 -173.85 137.35 -183.3 137.15 -190.15 134.55 -200.3 L130.35 -216.8 Q128.5 -226.05 129.65 -232.9 138.8 -217.8 141.8 -199.8 143.7 -188.3 146.45 -157.3 134.25 -160.8 115.0 -170.45 90.75 -182.6 82.65 -185.9 63.3 -193.75 45.45 -195.45 23.4 -197.55 -0.5 -190.9 0.5 -179.75 4.55 -163.45 8.6 -147.15 12.1 -140.5 4.2 -141.55 0.35 -152.55 -1.65 -158.35 -4.5 -176.55 -7.15 -193.65 -10.5 -201.45 -15.65 -213.5 -25.7 -216.1 -43.1 -220.65 -53.9 -205.65 -63.05 -192.95 -63.5 -174.1 -73.75 -174.2 -82.65 -170.15 -87.1 -168.15 -97.1 -161.5 -93.8 -141.25 -97.25 -123.35 -100.95 -104.2 -111.9 -89.95 -137.05 -57.3 -193.7 -56.5 -193.5 -46.3 -194.35 -14.4 -195.0 9.15 -193.5 22.25 -191.45 40.8 -184.35 55.2 -176.25 71.7 -160.1 86.25 -157.0 83.55 -154.3 73.15 -151.8 63.45 -147.5 61.05 -137.55 67.45 -136.95 80.8 -136.6 88.7 -139.1 107.25 -123.95 122.25 -104.85 144.35 L-72.05 183.0 Q-31.5 230.4 -0.5 254.2 -2.35 258.75 -6.1 257.25 -10.6 254.5 -13.1 254.2 -11.85 272.5 -0.2 283.9 10.25 294.15 27.35 297.35 43.3 300.35 60.9 296.6 73.6 293.9 84.15 288.3 L90.85 282.95 Q85.85 279.85 79.25 280.15 74.2 280.35 65.1 283.1 53.45 286.6 49.6 287.35 40.45 289.2 33.1 287.8 29.85 260.15 32.85 241.5 36.55 218.25 49.85 208.05 27.15 181.95 7.8 144.5 -5.8 118.2 -23.6 73.6 -46.75 15.6 -52.9 1.75 -70.45 -38.0 -88.7 -64.9 -95.2 -62.1 -100.55 -54.7 -103.6 -50.45 -109.1 -41.25 -114.3 -33.45 -120.05 -30.15 -127.7 -25.8 -139.1 -27.15 -123.4 -34.6 -109.55 -49.05 -100.05 -58.9 -86.7 -77.65 -70.6 -100.35 -64.9 -107.25 -51.8 -123.15 -38.3 -132.1 -43.1 -126.6 -49.3 -117.9 L-59.7 -103.15 Q-72.55 -85.5 -84.5 -77.5 -68.1 -46.55 -49.9 -3.45 -39.5 21.3 -19.9 69.85 -2.5 111.95 11.4 138.8 29.75 174.2 49.85 199.65 71.9 194.0 100.3 185.95 109.45 182.55 120.05 179.3 134.95 174.75 156.15 169.65 L208.15 154.3 Q303.45 126.85 373.2 115.65 347.75 127.6 298.85 139.1 284.75 142.4 207.35 158.35 178.3 164.3 156.15 169.65 L129.5 177.5 100.3 185.95 Q72.5 196.3 58.25 208.05 43.1 220.55 39.05 241.8 35.3 261.3 41.45 283.6 120.7 266.5 221.95 233.15 251.15 223.5 308.1 203.8 365.85 183.85 394.2 174.45 404.15 153.55 402.0 129.15 400.25 109.1 389.8 83.55 384.2 70.0 368.2 38.25 353.7 9.55 348.0 -6.15 357.4 10.85 375.85 41.15 391.35 67.5 398.35 85.8 407.65 110.35 408.2 134.9 408.85 162.9 398.4 195.45 394.1 197.1 379.9 204.05 367.5 210.15 359.95 212.5 336.2 219.9 322.8 203.85 304.75 214.85 273.7 224.4 253.8 230.5 213.7 240.0 170.55 250.2 152.65 255.35 120.05 264.75 100.25 275.2 L92.1 281.85 90.85 282.95 91.85 283.6 Q88.15 286.15 84.15 288.3 L76.2 294.05 Q51.55 310.75 33.1 308.8 20.5 307.45 6.3 294.65 L-5.1 284.05 Q-11.8 278.15 -17.3 275.2 -23.7 249.8 -37.95 228.15 -48.9 211.6 -68.3 192.2 -91.1 170.5 -102.5 158.9 -122.5 138.65 -134.9 119.85 -136.15 135.35 -128.25 161.2 L-121.05 183.35 Q-116.65 197.0 -114.4 206.15 -107.9 232.6 -111.85 252.05 -116.9 276.7 -139.1 296.2 -148.85 296.0 -151.7 304.6 -160.8 301.6 -167.95 302.9 -172.1 303.65 -179.05 307.25 -185.8 310.65 -190.15 311.3 -197.2 312.3 -206.3 308.8 -203.55 306.85 -195.4 302.8 -187.6 298.95 -183.95 296.15 -171.7 286.85 -176.9 271.0 -172.15 271.05 -170.2 274.85 -168.8 277.55 -168.5 283.6 L-167.8 293.45 Q-167.0 298.55 -164.3 300.4 -160.95 298.25 -158.9 297.4 -155.55 296.1 -151.7 296.2 -142.0 287.6 -147.95 273.8 -152.9 262.25 -164.3 254.2 -158.9 249.4 -155.05 252.0 -152.1 254.05 -149.35 261.35 -147.75 265.5 -144.8 274.45 -142.05 281.7 -139.1 283.6 -134.95 283.3 -134.15 275.95 L-133.35 270.45 Q-132.6 267.65 -130.7 266.8 -134.4 258.1 -142.1 248.8 L-155.9 233.2 Q-164.05 232.6 -173.35 236.75 -183.6 241.35 -189.5 241.6 -190.9 247.2 -189.35 250.9 -188.45 253.15 -185.3 256.3 -182.15 259.45 -181.25 261.7 -179.7 265.4 -181.1 271.0 -182.75 271.3 -185.7 266.5 -189.55 259.65 -192.1 255.8 -202.4 240.15 -214.7 241.6 -214.3 238.15 -211.35 237.15 -208.75 236.3 -205.2 237.5 -201.75 238.65 -199.6 240.9 -197.25 243.4 -197.9 245.8 -180.15 232.5 -181.3 209.4 -181.75 200.5 -185.0 188.2 L-191.6 166.4 Q-195.65 153.15 -197.1 145.1 -199.1 133.75 -197.7 125.35 -194.2 104.8 -168.5 94.65 -196.0 71.15 -199.9 26.6 -201.3 10.9 -200.1 -11.8 -198.35 -36.75 -197.9 -48.1 -204.75 -51.15 -218.35 -52.85 L-240.5 -55.9 Q-252.4 -58.3 -258.15 -63.45 -265.3 -69.8 -265.05 -81.7 -272.7 -92.5 -275.0 -105.95 -275.75 -110.45 -276.4 -118.4 L-277.65 -132.1 Q-285.35 -128.3 -296.7 -117.55 -308.35 -106.45 -315.45 -102.7 -313.25 -98.85 -306.45 -97.05 L-294.45 -94.3 Q-294.95 -79.85 -290.0 -58.4 -283.2 -28.75 -281.85 -18.75 -286.15 -14.85 -290.2 -15.5 -292.7 -15.85 -297.7 -19.05 -303.15 -22.55 -306.75 -23.55 -312.75 -25.2 -319.65 -22.95 -316.1 -29.65 -303.65 -27.35 L-293.8 -24.85 Q-288.05 -23.15 -286.05 -22.95 -289.95 -33.95 -297.2 -39.05 -305.7 -45.05 -319.65 -43.95 -326.65 -49.5 -310.6 -48.25 L-298.25 -46.45 Q-292.0 -45.15 -290.25 -43.95 -289.45 -56.4 -299.5 -62.0 -302.95 -63.9 -309.25 -65.85 L-319.65 -69.1 Q-318.7 -73.4 -316.95 -73.85 -315.7 -74.15 -313.15 -72.3 -309.55 -69.7 -308.4 -69.2 -305.4 -67.8 -302.85 -69.1 -300.05 -70.05 -299.85 -72.55 -299.7 -74.0 -300.75 -77.5 -301.8 -81.0 -301.65 -82.5 -301.45 -84.95 -298.65 -85.9 -300.45 -91.1 -307.4 -92.9 -311.55 -94.0 -321.75 -94.3 -331.95 -94.6 -336.1 -95.7 -343.05 -97.5 -344.85 -102.7 -350.5 -97.1 -350.65 -86.85 L-350.85 -79.45 Q-351.3 -75.6 -353.25 -73.3 -361.35 -87.25 -354.75 -98.9 -349.7 -107.8 -333.05 -118.85 -312.15 -131.65 -301.45 -139.15 -282.65 -152.3 -273.45 -165.7 -268.9 -172.3 -265.1 -182.3 -263.55 -186.35 -259.15 -200.0 -255.7 -210.75 -253.0 -216.35 -249.1 -224.4 -244.05 -228.7 -211.35 -256.6 -97.4 -281.8 -51.15 -292.05 -1.6 -299.4 44.85 -306.3 79.25 -308.5 L136.4 -311.9 Q170.35 -313.5 194.75 -312.75 259.7 -310.8 280.85 -291.7 M269.55 -168.6 Q250.4 -160.3 238.85 -153.1 247.45 -150.3 247.25 -140.5 290.15 -146.15 301.85 -182.5 L269.55 -168.6 M394.2 178.65 Q388.3 181.55 377.9 184.4 L360.55 189.05 Q340.35 195.3 335.4 208.05 347.75 212.35 367.0 204.85 385.05 197.85 394.2 187.05 390.85 186.45 391.35 183.9 391.7 182.3 394.2 178.65 M-223.1 -190.9 Q-229.4 -192.75 -234.25 -189.45 -236.95 -187.6 -238.2 -187.1 -240.75 -186.15 -244.05 -186.7 -244.55 -182.6 -242.1 -178.15 -239.6 -173.55 -239.85 -169.9 -233.2 -170.2 -227.7 -174.55 L-218.9 -182.5 Q-224.0 -184.0 -223.1 -190.9 M-225.7 -84.55 L-265.05 -81.7 Q-256.2 -66.05 -228.5 -61.15 -202.7 -56.55 -172.75 -62.95 -141.75 -69.6 -123.2 -84.65 -102.35 -101.65 -105.5 -123.7 -125.65 -98.05 -180.4 -89.3 -198.15 -86.45 -225.7 -84.55 M-188.7 151.35 Q-188.95 155.3 -185.3 157.65 -184.7 154.95 -181.45 151.8 -178.2 148.7 -174.1 146.8 -163.8 142.05 -160.1 149.25 -182.5 147.85 -181.1 170.25 -177.1 170.95 -172.55 168.1 L-165.05 162.15 Q-160.8 158.6 -158.25 158.2 -154.7 157.6 -151.7 161.85 -153.85 163.8 -160.75 166.6 -170.3 170.45 -172.45 171.55 -185.6 178.2 -176.9 187.05 -176.6 179.3 -163.15 174.55 -157.8 172.65 -153.3 172.55 -148.6 172.45 -147.5 174.45 L-157.05 178.55 Q-162.6 180.95 -166.0 183.25 -175.3 189.4 -176.9 199.65 -162.0 195.75 -155.3 195.0 -139.75 193.2 -134.9 199.65 -152.15 199.35 -160.6 201.2 -172.9 203.95 -176.9 212.25 -171.85 214.95 -164.85 214.1 -161.75 213.7 -151.75 211.0 -143.1 208.6 -137.6 208.5 -129.4 208.35 -122.3 212.25 -124.15 227.6 -113.9 229.0 -113.25 222.25 -115.75 217.4 -116.45 215.95 -121.0 210.2 -124.25 206.05 -124.85 201.9 -125.65 196.1 -122.3 187.05 L-131.25 181.3 Q-136.6 177.85 -139.1 174.45 -134.15 173.95 -132.4 172.75 -129.65 170.85 -130.7 166.05 -143.85 165.05 -147.5 157.65 L-142.1 156.7 Q-139.15 155.95 -139.1 153.45 L-148.05 147.7 Q-153.4 144.25 -155.9 140.85 -153.35 139.55 -150.35 140.9 -149.2 141.45 -145.6 144.05 -143.05 145.9 -141.8 145.6 -140.05 145.15 -139.1 140.85 -141.6 137.65 -149.5 134.5 -157.55 131.2 -160.1 128.25 -144.1 128.55 -150.55 123.8 -152.35 122.5 -157.8 119.55 -162.95 116.75 -164.3 115.65 -157.1 113.95 -150.6 116.65 L-145.4 118.8 Q-142.3 119.9 -139.1 119.85 -140.8 111.75 -141.8 107.85 -143.65 101.05 -147.5 98.85 -150.7 103.65 -161.1 110.15 L-179.4 121.25 Q-189.45 127.7 -192.3 132.7 -195.95 139.1 -189.5 145.05 -190.55 141.35 -187.9 138.0 -185.5 135.0 -181.25 133.4 -177.0 131.8 -173.5 132.55 -169.6 133.3 -168.5 136.65 -172.7 136.1 -177.5 138.3 -182.0 140.4 -185.15 144.05 -188.45 147.8 -188.7 151.35 M-171.15 98.25 Q-184.35 106.8 -189.5 119.85 -174.35 112.5 -164.1 105.35 -151.45 96.6 -143.3 86.25 -161.3 91.9 -171.15 98.25 M-133.4 217.1 Q-139.1 213.3 -143.3 216.45 -141.65 218.8 -147.05 218.9 -155.35 218.55 -160.45 218.7 -181.4 219.2 -181.1 233.2 -156.6 225.45 -142.55 231.45 -128.45 237.45 -122.3 258.4 -118.0 252.95 -118.8 244.1 -119.5 236.2 -123.85 228.3 -128.1 220.65 -133.4 217.1" fill="#373535" fill-rule="evenodd" stroke="none"/>
    <path d="M255.65 -132.1 Q269.0 -121.55 281.9 -105.85 291.4 -94.25 304.0 -75.5 L325.05 -44.05 Q337.35 -26.3 348.0 -14.55 340.7 -7.45 323.55 -34.6 319.85 -40.45 309.7 -58.05 301.5 -72.25 297.65 -77.5 292.95 -83.9 285.6 -91.95 L273.3 -105.2 Q259.25 -120.7 255.65 -132.1" fill="#373535" fill-rule="evenodd" stroke="none"/>
    <path d="M59.2 -269.75 Q-31.55 -262.25 -88.7 -245.5 -31.45 -267.05 54.3 -274.65 119.85 -280.45 222.05 -279.1 L140.15 -274.9 59.2 -269.75" fill="#373535" fill-rule="evenodd" stroke="none"/>
    <path d="M-93.75 -242.15 Q-94.65 -241.55 -97.1 -241.3 -107.5 -241.1 -117.8 -236.8 -129.1 -231.3 -134.9 -228.7 -140.1 -229.7 -136.85 -232.65 -133.95 -235.25 -125.6 -238.5 -117.4 -241.65 -108.45 -243.65 -98.8 -245.8 -92.9 -245.5 -92.4 -243.1 -93.75 -242.15" fill="#373535" fill-rule="evenodd" stroke="none"/>
    <path d="M-214.7 -211.9 Q-217.3 -216.05 -213.6 -216.05 -211.7 -216.05 -203.1 -214.0 -194.5 -211.9 -190.05 -211.9 -183.15 -211.9 -181.1 -216.1 -175.8 -209.3 -190.75 -208.7 -204.45 -208.15 -214.7 -211.9" fill="#373535" fill-rule="evenodd" stroke="none"/>
    <path d="M159.05 -136.3 Q134.4 -139.45 112.15 -136.0 L124.65 -137.8 Q168.1 -142.75 204.15 -129.6 244.05 -115.1 264.05 -81.7 L240.05 -99.05 Q225.8 -109.3 215.6 -115.45 186.9 -132.75 159.05 -136.3 M301.85 19.05 Q303.6 68.4 273.05 102.4 259.25 117.75 240.4 127.7 222.0 137.4 201.05 140.85 153.6 148.6 109.05 131.85 67.85 116.3 38.0 83.5 8.75 51.4 -0.9 12.4 -10.95 -28.35 3.7 -64.9 15.2 -93.55 49.75 -113.75 71.6 -126.55 97.3 -132.9 L93.75 -131.9 Q65.75 -123.7 44.35 -104.85 24.15 -87.0 12.45 -62.0 1.0 -37.6 -0.5 -10.35 6.4 -0.25 9.55 16.9 L12.05 30.55 Q13.75 38.4 16.3 44.25 34.95 86.9 81.75 111.75 103.1 123.15 127.55 128.8 151.75 134.45 175.9 133.8 227.8 132.4 261.7 104.75 299.5 73.85 301.85 19.05" fill="#373535" fill-rule="evenodd" stroke="none"/>
    <path d="M297.65 -14.55 Q304.7 -12.0 306.05 0.65 307.4 13.05 301.85 19.05 298.65 11.1 298.15 0.15 298.2 -10.75 297.65 -14.55" fill="#373535" fill-rule="evenodd" stroke="none"/>
    <path d="M272.5 -64.95 Q267.1 -74.0 264.05 -81.7 278.95 -69.75 289.25 -51.4 301.05 -30.3 297.65 -14.55 294.25 -30.1 282.15 -49.45 L272.5 -64.95" fill="#373535" fill-rule="evenodd" stroke="none"/>
    <path d="M217.85 -73.3 Q213.2 -92.0 190.35 -100.55 169.85 -108.25 141.15 -105.85 113.2 -103.5 90.35 -92.75 66.0 -81.3 58.25 -64.9 53.95 -51.25 52.95 -38.2 52.3 -29.7 53.05 -16.95 53.85 -3.1 53.65 2.4 53.2 13.2 49.85 23.25 51.65 31.95 56.6 39.65 60.2 45.2 67.0 52.3 L78.3 64.1 Q84.45 71.15 87.65 77.85 53.55 55.25 41.45 10.65 46.65 13.5 47.75 14.3 45.1 12.3 43.05 9.75 32.7 -2.85 45.65 -14.55 41.8 -12.6 40.4 -11.4 37.85 -9.25 37.3 -6.15 29.6 -30.5 46.25 -56.1 62.0 -80.35 92.8 -96.05 124.7 -112.4 158.85 -112.1 196.85 -111.7 226.25 -90.1 227.9 -83.8 223.2 -80.55 L219.6 -77.85 Q217.85 -76.0 217.85 -73.3" fill="#373535" fill-rule="evenodd" stroke="none"/>
    <path d="M150.65 69.45 Q147.25 73.05 140.5 75.05 136.55 76.25 127.4 77.7 118.45 79.2 114.4 80.45 107.75 82.55 104.45 86.25 102.7 80.15 94.95 72.4 L78.95 58.0 Q68.55 48.55 63.15 40.9 55.65 30.3 54.05 19.05 63.4 29.35 80.8 51.15 96.9 69.55 112.85 77.85 117.3 75.9 117.7 72.1 117.95 69.55 116.15 64.75 114.2 59.35 114.05 57.65 113.75 54.15 117.05 52.65 120.5 48.95 129.6 48.4 134.9 48.1 146.45 48.45 145.9 51.75 146.85 54.35 147.35 55.5 149.2 58.3 152.5 63.15 150.65 69.45 M140.3 70.2 Q144.25 67.2 145.0 62.65 145.85 57.65 142.25 52.65 129.6 50.9 121.25 56.85 L121.25 69.45 Q125.8 73.2 131.3 73.2 136.35 73.2 140.3 70.2" fill="#373535" fill-rule="evenodd" stroke="none"/>
    <path d="M246.75 4.8 L252.1 8.75 Q255.9 11.0 259.85 10.65 272.5 -9.65 259.7 -35.9 249.75 -56.35 226.25 -77.5 237.4 -76.65 247.5 -66.15 256.35 -57.0 263.1 -42.05 269.2 -28.6 271.8 -14.7 274.35 -1.1 272.45 6.45 274.25 10.4 276.25 9.4 277.45 8.85 280.35 4.85 283.5 0.55 285.7 -1.0 289.35 -3.55 293.45 -1.95 293.9 5.35 291.8 14.4 290.4 20.3 293.45 27.45 285.2 33.45 272.45 31.65 265.45 41.5 262.05 48.55 257.1 58.6 255.65 69.45 231.6 89.35 205.55 98.05 170.65 109.75 138.05 98.85 147.2 96.25 156.15 97.15 161.15 97.65 170.45 100.2 178.8 102.5 183.25 102.6 190.2 102.7 196.75 98.9 193.25 100.85 184.65 99.45 L166.5 95.75 Q139.7 90.55 125.45 98.85 125.5 96.3 128.45 95.55 L133.85 94.65 Q131.9 90.65 127.35 88.55 126.5 88.15 125.55 87.85 L117.05 86.25 Q122.05 86.65 125.55 87.85 142.5 90.6 160.5 90.4 184.45 90.15 204.9 84.7 227.3 78.65 242.1 67.15 258.5 54.35 264.05 35.85 265.8 29.15 260.3 27.0 L255.45 25.55 Q252.65 24.6 251.45 23.25 253.85 19.1 257.05 19.5 259.15 19.75 263.55 22.75 268.65 26.3 271.3 27.35 276.2 29.2 280.85 27.45 283.9 27.05 284.55 22.75 284.7 17.35 285.05 14.85 281.9 13.15 275.0 14.2 L261.85 16.75 248.75 17.35 Q242.15 16.15 238.85 10.65 240.75 4.8 242.65 3.7 244.2 2.9 246.75 4.8" fill="#373535" fill-rule="evenodd" stroke="none"/>
    <path d="M196.85 -85.9 L213.65 -85.9 Q213.3 -81.75 205.95 -81.0 L200.45 -80.2 Q197.7 -79.4 196.85 -77.5 197.55 -74.9 201.25 -71.4 204.75 -68.05 205.25 -64.9 215.0 -64.7 217.85 -73.3 222.2 -70.75 221.4 -67.9 220.65 -65.4 216.3 -63.3 212.15 -61.3 206.7 -60.55 201.05 -59.75 196.85 -60.7 196.75 -65.25 194.95 -74.25 194.15 -78.25 196.85 -85.9" fill="#373535" fill-rule="evenodd" stroke="none"/>
    <path d="M113.3 41.0 Q109.55 49.65 100.4 52.65 89.9 56.1 79.25 48.45 80.15 42.05 82.7 35.1 L87.65 23.25 Q104.5 20.35 111.25 26.75 117.05 32.25 113.3 41.0 M108.65 27.45 Q96.9 24.95 90.9 30.7 87.75 33.75 83.45 44.25 87.7 48.1 92.9 48.65 97.85 49.15 102.0 46.6 106.25 44.05 108.1 39.2 110.1 33.95 108.65 27.45" fill="#373535" fill-rule="evenodd" stroke="none"/>
    <path d="M135.85 -100.2 Q142.5 -97.65 146.45 -90.1 144.3 -80.0 133.25 -78.25 123.6 -76.75 112.85 -81.7 111.2 -87.85 114.6 -93.2 117.75 -98.25 123.75 -100.3 129.9 -102.5 135.85 -100.2 M121.25 -94.3 L121.25 -85.9 Q127.05 -80.1 131.65 -82.3 135.6 -84.15 136.25 -89.7 136.95 -95.25 133.35 -97.3 129.1 -99.7 121.25 -94.3" fill="#373535" fill-rule="evenodd" stroke="none"/>
    <path d="M176.85 -97.45 Q181.4 -95.7 188.45 -90.1 186.3 -86.8 185.45 -84.7 184.1 -81.35 184.25 -77.5 176.1 -76.05 168.15 -78.2 L161.7 -80.15 154.85 -81.7 Q159.5 -87.1 159.05 -98.5 169.3 -100.35 176.85 -97.45 M163.25 -94.3 L163.25 -81.7 Q172.1 -80.75 176.25 -83.4 180.95 -86.45 180.05 -94.3 L163.25 -94.3" fill="#373535" fill-rule="evenodd" stroke="none"/>
    <path d="M110.5 -69.9 Q109.1 -64.6 104.05 -61.15 99.05 -57.65 92.55 -57.4 85.55 -57.1 79.25 -60.7 81.4 -63.5 83.45 -71.2 85.55 -78.95 87.65 -81.7 L108.65 -81.7 Q112.05 -75.65 110.5 -69.9 M98.25 -77.6 Q91.0 -77.3 87.65 -77.5 84.55 -72.15 87.15 -68.25 89.4 -64.9 94.4 -64.1 99.35 -63.3 102.5 -65.6 106.05 -68.15 104.45 -73.3 104.0 -77.2 98.25 -77.6" fill="#373535" fill-rule="evenodd" stroke="none"/>
    <path d="M146.45 -69.1 Q126.1 -65.5 117.4 -51.45 114.0 -45.95 111.7 -37.8 110.45 -33.55 108.35 -22.9 104.4 -3.4 98.35 4.6 88.75 17.3 66.65 19.05 60.7 12.1 65.25 3.45 L68.1 -2.05 Q68.9 -4.7 66.65 -6.15 68.45 -12.15 81.0 -10.95 85.9 -10.5 90.35 -9.05 94.7 -7.65 96.05 -6.15 99.05 -10.8 102.2 -22.9 106.1 -37.6 108.45 -43.3 113.25 -54.75 121.1 -60.85 130.85 -68.45 146.45 -69.1 M91.85 -6.15 Q72.1 -7.75 70.85 10.65 75.15 15.3 80.7 14.9 85.6 14.5 89.7 10.6 93.65 6.8 94.5 2.15 95.4 -2.95 91.85 -6.15" fill="#373535" fill-rule="evenodd" stroke="none"/>
    <path d="M171.65 -64.9 Q186.7 -67.3 201.5 -54.25 215.45 -41.95 222.15 -22.75 229.15 -2.55 223.8 13.9 217.7 32.7 196.85 40.05 211.9 29.85 217.55 13.2 222.75 -2.3 218.6 -19.1 214.5 -35.8 202.5 -48.05 189.75 -61.1 171.65 -64.9" fill="#373535" fill-rule="evenodd" stroke="none"/>
    <path d="M96.05 -48.1 Q94.7 -38.85 94.25 -31.05 93.4 -26.45 87.65 -18.75 L66.65 -18.75 Q60.1 -24.75 60.4 -32.2 60.7 -38.9 66.3 -44.35 71.85 -49.75 79.7 -51.05 88.3 -52.45 96.05 -48.1 M76.25 -44.85 Q69.5 -40.4 66.65 -39.75 66.2 -35.65 68.6 -31.2 71.1 -26.6 70.85 -22.95 83.3 -20.0 88.15 -31.45 90.0 -35.95 89.8 -40.85 89.65 -45.65 87.65 -48.1 81.7 -48.45 76.25 -44.85" fill="#373535" fill-rule="evenodd" stroke="none"/>
    <path d="M112.75 3.05 L118.4 14.55 Q127.4 31.45 138.05 31.65 134.45 33.6 129.15 31.45 124.0 29.4 119.1 24.3 107.55 12.3 108.65 -1.95 110.15 -2.1 112.75 3.05" fill="#373535" fill-rule="evenodd" stroke="none"/>
    <path d="M217.8 44.2 Q223.1 43.9 234.65 44.25 237.35 49.55 236.4 55.2 236.0 57.45 236.25 58.35 236.7 59.8 238.85 61.05 232.7 75.15 209.45 73.65 204.5 65.05 203.45 61.65 202.0 56.65 205.25 48.45 208.7 44.75 217.8 44.2 M226.25 69.45 Q232.2 61.2 230.45 48.45 221.95 45.3 215.95 48.7 210.75 51.65 209.85 57.65 208.9 63.6 212.95 67.25 217.55 71.4 226.25 69.45" fill="#373535" fill-rule="evenodd" stroke="none"/>
    <path d="M167.45 56.85 L184.3 56.8 Q193.4 57.35 196.85 61.05 198.05 68.85 194.3 75.3 L191.05 80.45 Q189.2 83.55 188.45 86.25 178.55 88.15 171.55 85.9 165.2 83.9 162.35 78.9 159.65 74.15 160.95 68.25 162.3 62.15 167.45 56.85 M163.25 77.85 Q166.55 77.3 169.15 78.25 L173.1 80.6 Q177.95 83.9 184.25 82.05 182.6 75.75 187.3 72.5 190.35 70.35 190.9 69.8 192.65 67.95 192.65 65.25 184.0 57.5 173.85 62.65 169.5 64.85 166.6 68.9 163.65 73.05 163.25 77.85" fill="#373535" fill-rule="evenodd" stroke="none"/>
  </g>
</svg>
