<?xml version="1.0" encoding="UTF-8" standalone="no"?>
<svg xmlns:xlink="http://www.w3.org/1999/xlink" height="1158.0px" width="1646.65px" xmlns="http://www.w3.org/2000/svg">
  <g transform="matrix(1, 0, 0, 1, 823.3, 579.0)">
    <path d="M420.8 -241.35 L428.95 -225.75 Q441.85 -202.9 460.8 -191.2 L507.2 -191.2 Q517.2 -194.65 539.6 -211.45 L544.15 -214.9 Q563.5 -222.95 567.2 -226.8 579.6 -239.5 600.05 -248.6 L604.35 -249.95 Q613.9 -253.3 621.55 -257.25 L624.65 -258.5 Q633.75 -262.55 638.8 -267.2 L648.2 -278.75 Q655.6 -288.0 661.2 -291.2 667.9 -295.1 686.5 -300.8 703.1 -305.9 706.8 -309.2 L714.2 -315.8 Q726.0 -322.75 733.0 -330.8 736.55 -334.85 739.2 -339.4 752.4 -352.6 752.4 -354.8 752.4 -360.35 750.2 -366.1 748.0 -371.85 748.0 -379.4 748.0 -398.45 757.25 -397.8 765.4 -397.2 777.6 -382.35 789.4 -368.05 797.95 -349.2 800.85 -342.85 802.85 -337.05 790.5 -336.95 758.1 -315.0 738.9 -302.05 707.55 -277.95 L654.0 -236.4 Q633.7 -220.75 601.1 -206.0 590.95 -201.4 573.3 -194.1 L546.4 -182.8 Q526.1 -172.95 515.25 -167.8 495.7 -158.6 480.8 -154.8 462.45 -150.1 453.95 -144.6 450.6 -142.45 448.4 -140.0 L382.4 -140.0 Q330.45 -133.7 288.05 -117.95 249.45 -103.7 222.8 -83.2 L218.2 -79.75 211.8 -80.25 Q200.9 -79.35 183.2 -69.4 167.6 -60.7 154.6 -49.65 L152.65 -47.95 152.45 -47.95 Q142.4 -47.4 126.25 -37.9 116.75 -32.35 108.0 -25.4 L97.35 -21.1 Q84.0 -15.15 84.0 -11.2 L84.2 -9.3 Q84.6 -7.05 85.65 -5.2 L86.25 -4.25 Q82.25 0.85 80.4 5.2 72.8 23.35 44.7 52.0 L26.3 70.0 20.4 75.9 Q13.15 75.9 1.7 78.85 -23.2 85.25 -72.5 107.25 -90.15 115.1 -161.2 148.65 -213.4 173.3 -235.6 181.6 -269.15 194.15 -302.8 216.65 -310.5 221.8 -329.6 235.45 -345.8 247.0 -355.6 253.2 -376.95 266.7 -408.3 289.75 -428.75 304.75 -439.6 314.3 -444.4 312.25 -453.65 318.15 -461.55 323.15 -476.4 338.0 -488.55 349.8 -498.75 357.8 -512.55 368.6 -528.8 377.6 -533.25 380.05 -547.15 388.7 -565.8 400.3 -581.5 411.05 -629.6 443.9 -629.6 454.4 -629.65 456.5 -628.9 458.6 L-636.6 462.9 Q-664.7 478.55 -671.6 486.0 -682.9 498.4 -712.7 511.85 L-736.9 522.1 Q-751.15 528.0 -757.6 531.2 L-768.85 531.4 -775.0 531.6 Q-779.65 531.6 -787.75 527.0 -795.85 522.4 -798.4 522.4 -804.2 522.4 -807.6 526.8 L-808.8 528.6 -808.0 523.2 -807.9 513.15 Q-807.5 506.35 -805.75 501.55 -802.4 492.55 -793.85 489.55 -794.4 487.0 -794.4 484.4 -794.4 469.85 -760.6 427.8 -748.15 412.25 -735.25 398.25 -723.3 385.3 -719.2 382.4 -717.55 381.2 -697.8 361.8 -675.75 340.15 -660.9 327.4 -641.5 310.75 -629.55 304.7 -622.65 295.45 -601.15 280.15 -565.4 256.3 -557.2 249.2 L-520.3 217.3 Q-502.95 203.25 -478.8 188.4 -457.4 175.2 -423.55 159.1 -386.85 141.6 -372.4 133.2 -366.3 129.7 -317.1 102.8 -271.0 77.6 -261.2 71.6 -214.35 42.9 -158.55 12.9 -123.05 -6.2 -51.6 -42.8 -48.0 -44.65 -27.45 -48.25 L16.5 -55.85 Q80.55 -67.65 98.8 -79.6 102.05 -81.7 119.7 -93.75 138.7 -106.25 153.1 -113.45 187.45 -130.75 195.3 -118.6 208.0 -127.55 224.0 -134.6 241.85 -142.45 253.15 -142.8 261.6 -143.1 264.65 -138.95 283.95 -147.45 301.95 -154.05 347.25 -170.75 379.9 -173.75 L380.0 -175.8 Q380.0 -181.2 385.45 -193.2 391.0 -205.4 391.2 -211.2 L390.35 -219.35 Q389.65 -225.9 390.3 -230.3 392.35 -244.0 408.0 -244.0 414.55 -244.0 420.8 -241.35 M807.2 -315.15 L807.2 -314.4 Q807.2 -307.85 799.85 -296.55 793.1 -286.15 781.75 -274.15 770.65 -262.4 758.75 -252.85 746.3 -242.85 736.8 -238.4 711.3 -220.8 684.85 -204.45 667.3 -193.6 653.65 -186.4 L659.25 -190.1 Q681.75 -205.0 688.8 -211.2 699.3 -220.5 723.75 -238.3 753.45 -259.9 763.8 -268.05 785.65 -285.4 796.7 -298.85 803.75 -307.4 807.2 -315.15 M550.0 -128.95 Q540.65 -124.6 531.7 -121.0 499.45 -108.0 477.85 -107.25 480.5 -108.25 482.45 -110.4 L483.15 -111.2 484.8 -111.2 Q491.9 -111.2 500.3 -112.65 506.25 -113.25 510.2 -114.8 527.65 -119.2 550.0 -128.95 M444.05 -108.7 L435.45 -110.05 Q426.2 -111.95 420.15 -115.6 L428.3 -115.6 Q430.6 -113.35 434.4 -111.65 438.4 -109.9 444.05 -108.7 M147.55 -17.95 Q122.05 4.4 115.2 24.0 109.75 39.3 97.05 54.8 102.05 43.85 106.05 32.1 109.6 21.6 109.6 19.2 109.6 14.95 109.0 11.8 119.05 -0.85 134.1 -12.2 L147.55 -17.95 M64.45 85.9 Q4.95 132.55 -119.2 180.8 -190.1 208.25 -261.85 253.0 -271.4 258.95 -321.75 291.6 -358.8 315.65 -385.6 331.2 -396.7 337.7 -434.1 364.15 -491.6 404.85 -506.0 414.8 -595.2 476.4 -620.2 481.2 L-621.7 485.5 Q-625.1 494.1 -631.5 500.7 -644.4 514.0 -665.9 515.8 -661.9 512.95 -657.95 509.75 L-643.55 497.6 Q-625.15 482.25 -601.6 470.8 -579.85 460.25 -562.8 443.5 L-549.15 430.25 Q-540.8 422.7 -531.2 416.8 -507.7 404.9 -491.3 395.3 -463.55 378.95 -460.4 368.9 L-420.5 341.5 Q-367.55 305.2 -349.2 294.4 L-281.35 254.8 Q-244.75 233.65 -209.2 214.0 -168.4 191.4 -111.2 165.25 L-19.7 124.55 Q28.1 103.35 48.0 92.05 55.95 87.55 61.55 83.55 62.75 85.0 64.45 85.9 M-762.1 560.05 Q-767.4 561.6 -771.2 561.6 -800.7 561.6 -807.3 542.4 L-807.65 541.25 Q-804.85 545.7 -800.4 549.6 -787.7 560.8 -769.6 560.8 L-762.1 560.05 M-715.6 465.85 Q-711.2 459.0 -711.2 454.6 -711.2 444.65 -721.2 442.5 -730.35 440.6 -743.2 445.75 -756.3 450.95 -765.2 460.35 -775.2 470.95 -775.2 482.6 -775.2 486.15 -773.6 489.3 -770.65 495.2 -763.2 495.2 -744.95 495.2 -727.2 479.25 -720.05 472.8 -715.6 465.85" fill="#00cc00" fill-rule="evenodd" stroke="none"/>
    <path d="M802.85 -337.05 Q810.4 -337.15 810.4 -329.0 810.4 -322.45 807.2 -315.15 803.75 -307.4 796.7 -298.85 785.65 -285.4 763.8 -268.05 753.45 -259.9 723.75 -238.3 699.3 -220.5 688.8 -211.2 681.75 -205.0 659.25 -190.1 L653.65 -186.4 Q629.1 -170.45 604.05 -156.3 574.15 -139.5 550.0 -128.95 527.65 -119.2 510.2 -114.8 506.25 -113.25 500.3 -112.65 491.9 -111.2 484.8 -111.2 L483.15 -111.2 482.45 -110.4 Q480.5 -108.25 477.85 -107.25 475.55 -106.4 472.8 -106.4 455.2 -106.4 444.05 -108.7 438.4 -109.9 434.4 -111.65 430.6 -113.35 428.3 -115.6 L420.15 -115.6 386.0 -115.6 338.9 -103.45 Q314.1 -96.9 298.5 -91.9 258.15 -78.95 232.4 -60.4 223.9 -54.25 206.9 -45.5 L200.4 -40.45 Q175.55 -22.3 155.95 -21.6 L147.55 -17.95 134.1 -12.2 Q119.05 -0.85 109.0 11.8 109.6 14.95 109.6 19.2 109.6 21.6 106.05 32.1 102.05 43.85 97.05 54.8 L96.85 55.25 Q82.1 87.2 70.4 87.2 66.95 87.2 64.45 85.9 62.75 85.0 61.55 83.55 55.95 87.55 48.0 92.05 28.1 103.35 -19.7 124.55 L-111.2 165.25 Q-168.4 191.4 -209.2 214.0 -244.75 233.65 -281.35 254.8 L-349.2 294.4 Q-367.55 305.2 -420.5 341.5 L-460.4 368.9 Q-463.55 378.95 -491.3 395.3 -507.7 404.9 -531.2 416.8 -540.8 422.7 -549.15 430.25 L-562.8 443.5 Q-579.85 460.25 -601.6 470.8 -625.15 482.25 -643.55 497.6 L-657.95 509.75 Q-661.9 512.95 -665.9 515.8 L-675.2 522.0 Q-692.95 532.8 -719.3 544.8 -746.95 557.35 -762.1 560.05 L-769.6 560.8 Q-787.7 560.8 -800.4 549.6 -804.85 545.7 -807.65 541.25 L-807.95 540.8 Q-810.4 536.8 -810.4 534.6 -810.4 531.4 -808.8 528.6 L-807.6 526.8 Q-804.2 522.4 -798.4 522.4 -795.85 522.4 -787.75 527.0 -779.65 531.6 -775.0 531.6 L-768.85 531.4 -757.6 531.2 Q-751.15 528.0 -736.9 522.1 L-712.7 511.85 Q-682.9 498.4 -671.6 486.0 -664.7 478.55 -636.6 462.9 L-628.9 458.6 Q-629.65 456.5 -629.6 454.4 -629.6 443.9 -581.5 411.05 -565.8 400.3 -547.15 388.7 -533.25 380.05 -528.8 377.6 -512.55 368.6 -498.75 357.8 -488.55 349.8 -476.4 338.0 -461.55 323.15 -453.65 318.15 -444.4 312.25 -439.6 314.3 -428.75 304.75 -408.3 289.75 -376.95 266.7 -355.6 253.2 -345.8 247.0 -329.6 235.45 -310.5 221.8 -302.8 216.65 -269.15 194.15 -235.6 181.6 -213.4 173.3 -161.2 148.65 -90.15 115.1 -72.5 107.25 -23.2 85.25 1.7 78.85 13.15 75.9 20.4 75.9 L26.3 70.0 44.7 52.0 Q72.8 23.35 80.4 5.2 82.25 0.85 86.25 -4.25 L85.65 -5.2 Q84.6 -7.05 84.2 -9.3 L84.0 -11.2 Q84.0 -15.15 97.35 -21.1 L108.0 -25.4 Q116.75 -32.35 126.25 -37.9 142.4 -47.4 152.45 -47.95 L152.65 -47.95 154.6 -49.65 Q167.6 -60.7 183.2 -69.4 200.9 -79.35 211.8 -80.25 L218.2 -79.75 222.8 -83.2 Q249.45 -103.7 288.05 -117.95 330.45 -133.7 382.4 -140.0 L448.4 -140.0 Q450.6 -142.45 453.95 -144.6 462.45 -150.1 480.8 -154.8 495.7 -158.6 515.25 -167.8 526.1 -172.95 546.4 -182.8 L573.3 -194.1 Q590.95 -201.4 601.1 -206.0 633.7 -220.75 654.0 -236.4 L707.55 -277.95 Q738.9 -302.05 758.1 -315.0 790.5 -336.95 802.85 -337.05 M-715.6 465.85 Q-720.05 472.8 -727.2 479.25 -744.95 495.2 -763.2 495.2 -770.65 495.2 -773.6 489.3 -775.2 486.15 -775.2 482.6 -775.2 470.95 -765.2 460.35 -756.3 450.95 -743.2 445.75 -730.35 440.6 -721.2 442.5 -711.2 444.65 -711.2 454.6 -711.2 459.0 -715.6 465.85" fill="#006600" fill-rule="evenodd" stroke="none"/>
    <path d="M353.25 -336.6 Q353.35 -333.8 354.55 -329.45 356.6 -321.95 360.65 -315.8 372.85 -297.2 398.8 -297.2 408.85 -297.2 424.5 -309.05 430.7 -313.75 439.8 -322.4 451.0 -317.45 474.25 -332.5 482.35 -337.75 489.35 -343.8 494.8 -348.55 495.5 -350.0 514.1 -350.45 532.25 -355.9 538.7 -357.85 545.35 -360.55 L553.2 -363.8 Q564.1 -368.0 569.6 -376.0 L573.45 -382.45 Q575.6 -386.25 577.4 -388.2 584.4 -395.75 609.55 -412.4 632.85 -427.9 639.4 -436.8 647.4 -447.7 662.75 -457.1 666.55 -459.45 675.9 -464.65 L688.8 -472.25 Q703.2 -481.55 710.05 -492.85 718.8 -507.35 718.8 -529.6 718.8 -540.9 711.35 -548.85 701.45 -559.45 680.0 -562.0 L654.4 -562.0 Q642.6 -557.1 636.3 -553.7 631.8 -551.25 628.4 -548.85 631.6 -552.65 634.45 -555.1 641.0 -560.8 649.6 -564.0 L694.4 -564.0 Q717.55 -554.55 723.5 -516.15 725.2 -504.95 725.85 -487.0 726.5 -470.05 727.2 -466.4 L737.4 -421.3 Q746.4 -380.4 746.4 -368.6 746.4 -352.05 739.2 -339.4 736.55 -334.85 733.0 -330.8 726.0 -322.75 714.2 -315.8 708.8 -312.7 702.45 -309.75 696.2 -306.9 685.2 -302.55 L669.05 -296.0 Q651.85 -288.35 647.2 -280.0 640.0 -266.85 621.55 -257.25 613.9 -253.3 604.35 -249.95 L600.05 -248.6 581.65 -242.75 Q570.85 -239.25 568.4 -236.4 561.85 -228.55 544.15 -214.9 L539.6 -211.45 Q517.2 -194.65 507.2 -191.2 L460.8 -191.2 Q441.85 -202.9 428.95 -225.75 L420.8 -241.35 419.3 -244.15 Q413.7 -254.7 408.8 -260.8 397.05 -275.3 384.45 -285.8 L366.95 -299.1 Q359.2 -305.0 356.35 -310.6 352.8 -317.55 352.8 -330.2 352.8 -333.6 353.25 -336.6 M611.8 -528.7 L611.4 -528.2 Q603.6 -518.4 596.2 -518.4 593.3 -518.4 590.15 -520.2 L588.75 -520.85 602.4 -521.6 Q607.35 -524.5 611.8 -528.7 M564.75 -517.75 Q559.6 -515.1 554.2 -510.65 538.05 -497.45 527.4 -474.6 524.65 -468.65 512.5 -468.5 498.3 -469.4 493.0 -468.8 487.35 -468.15 480.55 -465.55 470.1 -461.5 468.4 -461.0 450.0 -455.3 443.7 -452.4 441.85 -451.55 440.15 -450.6 453.75 -464.6 472.0 -472.8 L516.0 -473.6 Q523.2 -477.75 526.65 -486.6 L529.3 -494.15 Q531.0 -498.6 533.1 -501.65 538.9 -510.05 552.6 -514.65 557.95 -516.45 564.75 -517.75 M403.1 -387.5 L401.95 -384.5 Q400.65 -380.8 399.5 -379.0 396.15 -373.8 385.55 -368.75 389.7 -371.8 392.65 -374.65 398.4 -380.2 403.1 -387.5" fill="#ffffcc" fill-rule="evenodd" stroke="none"/>
    <path d="M628.4 -548.85 Q631.8 -551.25 636.3 -553.7 642.6 -557.1 654.4 -562.0 L680.0 -562.0 Q701.45 -559.45 711.35 -548.85 718.8 -540.9 718.8 -529.6 718.8 -507.35 710.05 -492.85 703.2 -481.55 688.8 -472.25 L675.9 -464.65 Q666.55 -459.45 662.75 -457.1 647.4 -447.7 639.4 -436.8 632.85 -427.9 609.55 -412.4 584.4 -395.75 577.4 -388.2 575.6 -386.25 573.45 -382.45 L569.6 -376.0 Q564.1 -368.0 553.2 -363.8 L545.35 -360.55 Q538.7 -357.85 532.25 -355.9 514.1 -350.45 495.5 -350.0 494.8 -348.55 489.35 -343.8 482.35 -337.75 474.25 -332.5 451.0 -317.45 439.8 -322.4 430.7 -313.75 424.5 -309.05 408.85 -297.2 398.8 -297.2 372.85 -297.2 360.65 -315.8 356.6 -321.95 354.55 -329.45 353.35 -333.8 353.25 -336.6 L353.2 -337.4 Q353.2 -340.2 354.0 -343.15 354.1 -350.9 361.05 -356.35 366.55 -360.7 382.0 -367.2 L385.55 -368.75 Q396.15 -373.8 399.5 -379.0 400.65 -380.8 401.95 -384.5 L403.1 -387.5 404.6 -390.6 Q408.2 -396.65 415.55 -415.25 422.15 -431.95 428.2 -440.4 432.45 -446.35 440.15 -450.6 441.85 -451.55 443.7 -452.4 450.0 -455.3 468.4 -461.0 470.1 -461.5 480.55 -465.55 487.35 -468.15 493.0 -468.8 498.3 -469.4 512.5 -468.5 524.65 -468.65 527.4 -474.6 538.05 -497.45 554.2 -510.65 559.6 -515.1 564.75 -517.75 572.75 -522.0 580.0 -522.0 585.6 -522.0 588.75 -520.85 L590.15 -520.2 Q593.3 -518.4 596.2 -518.4 603.6 -518.4 611.4 -528.2 L611.8 -528.7 Q615.85 -533.9 621.2 -542.4 623.8 -545.6 628.4 -548.85" fill="#ffffff" fill-rule="evenodd" stroke="none"/>
    <path d="M-732.3 447.7 Q-742.45 449.75 -751.3 455.8 -760.2 461.9 -765.95 470.7 -771.95 480.0 -773.3 490.55 -754.4 494.65 -735.4 481.25 -716.7 468.1 -711.75 448.2 -721.7 445.55 -732.3 447.7 M-730.1 486.5 Q-740.5 493.9 -753.6 496.0 -767.05 498.2 -781.0 494.35 -777.75 466.95 -755.95 451.4 -734.7 436.25 -707.9 440.5 -707.75 455.3 -713.8 467.5 -719.6 479.0 -730.1 486.5" fill="#373535" fill-rule="evenodd" stroke="none"/>
    <path d="M819.5 -302.0 Q791.1 -268.25 748.0 -236.1 719.95 -215.25 661.75 -178.9 633.3 -160.85 617.9 -151.45 591.05 -135.05 569.9 -124.5 512.25 -95.7 465.55 -94.25 454.25 -93.9 432.8 -99.7 410.7 -105.75 400.15 -105.8 366.65 -106.0 321.7 -88.45 305.7 -82.2 284.3 -72.1 260.8 -60.8 250.1 -55.8 186.75 -26.1 123.15 13.45 118.55 46.5 102.15 69.25 87.9 88.95 62.7 103.45 44.55 113.9 11.15 126.3 -36.85 144.15 -46.15 148.1 -120.85 179.85 -199.45 222.7 -267.3 259.75 -346.25 309.7 -390.35 337.65 -452.15 380.8 L-554.55 452.5 Q-613.15 492.8 -658.65 520.1 -716.0 554.55 -769.45 579.0 L-784.85 579.0 Q-799.2 575.15 -809.0 562.8 -815.85 554.15 -823.3 536.7 L-823.3 513.6 Q-775.1 409.1 -659.8 308.65 -574.25 234.05 -438.55 151.95 -366.2 108.15 -335.4 90.05 -275.15 54.65 -226.85 29.05 -101.65 -37.35 -7.65 -63.5 6.3 -67.35 32.4 -69.55 57.85 -71.65 69.25 -75.05 92.8 -82.05 136.8 -105.65 L171.85 -124.2 Q191.95 -134.35 207.8 -140.45 243.2 -154.05 287.8 -166.5 307.35 -171.95 365.5 -186.6 374.95 -228.2 392.45 -252.0 374.25 -268.0 361.4 -284.9 346.0 -305.05 341.4 -322.65 329.7 -367.4 388.6 -386.6 398.6 -434.6 429.15 -459.55 461.05 -485.55 515.55 -486.65 521.75 -494.4 531.85 -512.2 541.8 -527.4 554.05 -532.8 561.35 -536.05 577.6 -535.1 594.05 -534.15 600.2 -536.65 608.05 -539.85 614.65 -547.35 617.5 -550.6 624.9 -561.35 630.85 -569.95 635.35 -573.6 641.85 -578.85 650.2 -579.0 L684.85 -579.0 684.85 -575.15 Q708.75 -572.35 721.8 -554.4 732.3 -539.95 737.5 -512.4 739.4 -502.35 741.2 -487.25 L744.2 -461.35 Q748.0 -430.0 754.1 -413.55 784.0 -405.9 801.35 -379.95 815.55 -358.7 823.35 -321.2 L823.35 -313.5 819.5 -313.5 819.5 -302.0 M682.1 -557.35 Q667.3 -560.05 651.15 -554.05 636.55 -548.65 623.6 -537.25 611.25 -526.45 604.05 -513.55 576.55 -523.65 555.15 -507.55 545.95 -500.65 539.55 -489.8 533.4 -479.4 530.95 -467.4 416.6 -470.7 407.85 -375.05 402.95 -372.05 392.2 -366.65 381.6 -361.35 376.55 -358.25 359.2 -347.6 354.0 -332.75 357.35 -315.05 368.3 -305.95 378.2 -297.8 391.9 -298.3 405.0 -298.75 416.7 -306.9 428.9 -315.3 434.75 -328.9 443.15 -324.5 451.4 -325.75 457.9 -326.75 465.75 -331.7 470.25 -334.6 479.0 -341.1 486.85 -346.55 492.5 -348.15 479.4 -330.8 468.55 -323.1 451.25 -310.8 434.75 -317.35 423.3 -289.95 396.3 -282.8 405.35 -273.8 414.3 -256.55 L429.2 -227.15 Q438.35 -210.85 448.75 -202.5 462.05 -191.9 480.95 -190.45 476.15 -206.05 465.15 -224.65 452.25 -245.1 446.3 -255.85 454.05 -250.8 461.25 -241.95 465.55 -236.7 473.2 -225.0 480.8 -213.45 485.15 -208.15 492.35 -199.3 500.15 -194.3 500.45 -198.1 507.2 -198.8 L512.25 -199.55 Q514.8 -200.25 515.55 -202.0 513.05 -212.45 505.25 -224.4 L498.7 -234.15 Q494.8 -239.95 492.5 -244.3 513.4 -228.0 523.25 -205.85 L536.15 -212.15 Q543.85 -215.95 548.55 -219.05 561.75 -227.75 565.6 -240.45 558.3 -254.95 554.55 -263.05 547.7 -277.8 550.2 -282.8 555.2 -276.2 562.7 -260.7 570.3 -247.65 580.95 -244.3 597.55 -244.0 609.65 -252.15 617.2 -257.25 627.95 -270.4 639.15 -284.15 645.85 -289.1 657.55 -297.75 673.3 -298.15 675.0 -303.65 673.85 -310.4 673.4 -313.2 670.9 -321.65 669.0 -328.2 669.15 -331.75 669.4 -336.85 673.3 -340.45 673.05 -330.95 678.15 -320.25 L682.1 -311.75 Q684.2 -306.75 684.85 -302.0 690.45 -301.5 696.4 -305.8 702.3 -310.15 707.95 -309.65 706.35 -317.7 701.9 -332.6 696.55 -350.6 694.9 -357.2 687.35 -387.25 692.55 -405.85 694.45 -384.9 701.8 -361.25 706.1 -347.55 715.6 -321.2 734.05 -329.7 739.05 -351.45 743.15 -369.25 738.35 -397.55 735.3 -415.25 726.25 -447.8 717.35 -479.75 715.6 -490.5 701.1 -456.55 657.9 -452.0 639.6 -414.45 592.5 -402.0 617.6 -420.05 625.25 -426.95 642.35 -442.3 650.2 -459.7 683.45 -467.75 697.95 -483.2 716.55 -503.05 711.75 -540.5 698.75 -554.3 682.1 -557.35 M523.25 -190.45 Q492.4 -177.95 450.15 -178.9 441.8 -187.85 429.0 -209.65 416.2 -231.5 407.85 -240.45 398.1 -227.85 391.2 -207.05 386.85 -194.0 380.9 -167.35 297.2 -153.95 212.25 -120.55 153.5 -97.5 65.45 -51.95 3.2 -50.85 -69.75 -20.75 -97.45 -9.3 -132.45 8.65 L-192.35 40.4 Q-285.5 89.95 -339.45 120.25 -419.25 165.1 -481.05 204.85 -632.8 302.5 -730.95 405.9 L-753.95 429.4 Q-768.0 444.2 -775.95 456.0 -798.35 489.1 -788.65 521.3 -752.2 523.4 -711.2 500.55 -696.25 492.2 -677.25 478.65 L-646.3 455.9 Q-615.2 433.3 -552.15 385.5 -490.85 339.05 -458.5 315.65 -348.5 236.05 -257.75 190.45 -331.55 237.1 -443.2 319.6 -474.2 342.45 -538.05 390.4 L-630.95 459.75 -661.3 482.6 Q-681.9 497.9 -697.35 507.8 -742.25 536.6 -769.45 536.7 -775.85 536.7 -782.1 534.25 -785.35 532.95 -791.4 529.45 -796.2 526.65 -798.4 526.35 -801.65 525.9 -804.05 529.0 -787.95 567.3 -748.75 552.75 -735.85 547.95 -718.7 536.55 -701.75 524.6 -696.35 521.3 -633.2 482.7 -542.6 420.65 -441.65 350.7 -390.55 316.3 -302.55 257.1 -233.6 217.3 -146.55 167.0 -65.4 132.75 -48.8 125.75 -4.7 110.4 30.1 98.25 47.3 89.05 72.25 75.65 86.3 56.85 102.45 35.15 107.75 1.9 133.75 -17.6 171.15 -38.0 203.0 -55.35 246.25 -75.05 258.15 -80.45 284.2 -92.75 308.15 -103.7 325.7 -110.2 375.45 -128.6 411.7 -125.05 418.4 -124.4 431.1 -119.05 443.4 -113.9 450.15 -113.5 496.0 -110.8 561.05 -142.15 584.6 -153.55 613.45 -170.75 L657.9 -198.15 Q677.1 -210.0 700.35 -227.15 717.6 -239.9 742.55 -259.7 L763.4 -274.25 Q777.7 -284.0 785.1 -291.05 808.05 -312.9 796.4 -336.6 750.75 -299.65 723.05 -280.15 674.85 -246.2 634.85 -228.9 641.4 -235.3 681.15 -260.7 724.95 -288.65 746.05 -305.8 779.95 -333.35 784.2 -352.85 789.5 -377.05 750.25 -390.45 749.55 -382.05 752.7 -367.95 755.7 -354.75 754.1 -344.3 736.95 -316.8 716.25 -303.3 690.65 -286.6 654.05 -286.65 652.1 -271.7 643.75 -262.45 636.95 -254.95 624.35 -249.85 620.05 -248.1 600.6 -242.2 585.5 -237.6 577.1 -232.75 570.5 -228.95 563.15 -222.45 L550.55 -210.45 Q534.8 -195.1 523.25 -190.45" fill="#373535" fill-rule="evenodd" stroke="none"/>
    <path d="M653.2 -551.4 Q665.0 -557.8 677.15 -552.05 678.05 -544.65 674.3 -539.05 670.9 -534.0 664.45 -531.3 658.3 -528.75 651.3 -529.1 644.2 -529.45 638.7 -532.8 641.95 -545.25 653.2 -551.4 M673.3 -548.2 Q647.1 -551.2 642.5 -532.8 657.15 -532.45 663.6 -534.8 672.95 -538.15 673.3 -548.2" fill="#373535" fill-rule="evenodd" stroke="none"/>
    <path d="M639.35 -509.05 Q633.35 -505.85 619.45 -505.9 618.25 -517.95 625.85 -522.55 632.45 -526.5 646.35 -525.1 647.6 -513.4 639.35 -509.05 M642.5 -521.25 Q632.5 -520.8 629.0 -519.35 622.95 -516.9 623.3 -509.7 633.25 -510.15 636.8 -511.6 642.9 -514.05 642.5 -521.25" fill="#373535" fill-rule="evenodd" stroke="none"/>
    <path d="M471.25 -370.3 Q480.4 -371.0 488.65 -367.35 486.3 -349.75 470.9 -340.2 455.4 -330.6 438.6 -336.6 438.45 -345.85 443.1 -353.6 447.45 -360.8 455.05 -365.25 462.55 -369.7 471.25 -370.3 M442.45 -340.45 Q454.9 -335.8 468.05 -343.15 481.05 -350.45 484.8 -363.55 471.75 -370.95 458.15 -362.1 452.45 -358.35 448.15 -352.45 444.0 -346.65 442.45 -340.45" fill="#373535" fill-rule="evenodd" stroke="none"/>
    <path d="M407.85 -332.75 Q408.3 -357.55 434.75 -355.85 436.95 -342.1 428.9 -336.7 422.45 -332.35 407.85 -332.75 M411.7 -336.6 Q422.25 -339.05 425.0 -340.55 431.25 -344.05 430.9 -352.0 420.25 -349.5 417.6 -348.0 411.35 -344.55 411.7 -336.6" fill="#373535" fill-rule="evenodd" stroke="none"/>
    <path d="M513.45 -157.55 Q501.05 -150.25 482.0 -146.0 466.75 -142.6 442.35 -140.3 L396.3 -136.6 Q353.95 -133.1 310.0 -118.55 274.45 -106.85 232.3 -85.85 214.9 -77.2 160.6 -47.75 117.9 -24.55 92.35 -13.45 86.5 23.2 62.05 47.65 41.95 67.75 5.6 82.55 -13.4 90.25 -63.3 105.05 -108.35 118.4 -130.8 128.9 -110.4 112.25 -71.45 97.8 -62.9 94.65 -37.9 86.15 -16.75 78.95 -4.7 74.15 32.6 59.25 51.9 40.35 76.6 16.2 80.8 -21.15 107.05 -32.3 150.45 -56.05 210.9 -89.05 224.5 -95.95 268.2 -118.2 303.65 -130.25 347.95 -145.35 388.6 -148.15 L428.2 -149.35 466.5 -151.15 Q487.0 -153.35 502.4 -159.15 520.6 -166.0 534.8 -178.9 527.3 -165.75 513.45 -157.55" fill="#373535" fill-rule="evenodd" stroke="none"/>
  </g>
</svg>
