<?xml version="1.0" encoding="UTF-8" standalone="no"?>
<svg xmlns:xlink="http://www.w3.org/1999/xlink" height="638.2px" width="1010.4px" xmlns="http://www.w3.org/2000/svg">
  <g transform="matrix(1, 0, 0, 1, 505.2, 319.1)">
    <path d="M208.25 -188.85 L205.8 -191.4 182.15 -213.6 Q169.65 -225.05 162.0 -232.8 158.7 -236.1 150.4 -242.85 142.0 -249.65 138.8 -252.8 129.15 -262.0 108.55 -259.85 102.4 -259.2 94.5 -257.4 L86.8 -255.8 Q29.85 -255.8 -25.75 -242.2 -49.7 -236.35 -64.1 -229.85 -78.8 -223.2 -78.8 -217.9 -78.8 -216.2 -78.0 -214.7 -78.8 -211.85 -78.8 -208.1 -78.8 -188.55 -72.2 -164.05 -66.6 -143.25 -56.6 -120.2 -48.75 -95.35 -38.1 -74.35 -17.15 -33.2 5.6 -33.2 L6.0 -33.2 15.2 -32.4 Q41.05 -32.4 77.45 -38.55 110.7 -44.2 144.05 -53.4 176.65 -62.45 197.15 -71.45 212.25 -78.1 216.8 -83.1 222.9 -85.8 233.4 -94.6 L233.85 -94.95 Q236.35 -96.4 239.4 -99.0 244.25 -103.1 245.55 -105.7 247.6 -108.0 247.6 -108.9 247.6 -110.25 246.0 -115.75 L246.7 -114.45 247.9 -112.4 Q247.6 -111.5 247.6 -110.4 L248.45 -107.4 Q250.0 -104.4 253.6 -104.4 L254.15 -104.4 Q262.45 -96.7 273.0 -100.2 273.65 -99.55 274.4 -97.4 275.85 -95.6 280.8 -95.6 286.9 -95.6 288.2 -100.2 288.4 -100.9 288.4 -107.1 288.4 -114.75 286.9 -117.05 283.05 -123.0 280.0 -131.4 277.6 -137.6 270.7 -141.5 264.6 -144.95 256.85 -145.75 249.45 -146.5 244.3 -144.55 238.8 -142.5 238.8 -138.4 L238.85 -137.75 Q235.55 -146.85 233.4 -150.0 L221.5 -170.35 Q218.0 -176.3 214.55 -181.1 222.55 -171.1 229.75 -161.35 237.7 -150.5 239.4 -148.95 241.95 -146.65 246.65 -147.0 L263.2 -148.0 Q282.75 -148.0 290.1 -121.6 292.4 -113.3 293.25 -103.3 L293.45 -98.15 Q299.8 -97.0 308.4 -93.4 318.8 -89.1 331.0 -81.85 340.6 -76.2 342.0 -74.8 355.05 -74.1 379.95 -58.8 403.05 -44.6 428.2 -23.15 453.55 -1.5 469.6 17.95 487.2 39.25 487.2 50.4 487.2 53.0 486.4 55.3 493.0 62.7 497.25 81.6 500.75 97.3 501.6 114.0 501.6 127.5 501.2 135.6 501.2 129.85 499.3 112.4 497.25 93.75 496.0 92.4 493.3 88.8 488.8 91.25 L482.2 96.2 474.55 100.95 Q470.05 103.7 467.0 106.2 461.6 110.65 450.5 116.25 437.1 122.95 433.6 125.2 410.0 140.35 352.1 156.15 293.55 172.15 243.0 177.0 L201.6 177.2 199.0 177.8 143.2 178.0 Q137.2 178.8 132.35 187.15 131.9 182.4 126.85 166.05 121.1 147.5 116.55 142.5 108.55 129.75 93.45 116.95 91.3 114.6 88.15 112.65 L86.8 111.6 86.35 111.6 Q80.05 108.15 70.35 105.95 53.05 102.05 41.2 105.8 34.95 107.8 29.3 110.2 L28.4 110.0 28.2 110.7 Q-1.4 123.7 -12.25 148.1 -17.2 159.15 -18.75 173.6 L-19.3 181.9 -19.6 182.1 Q-22.95 184.6 -25.1 190.05 -27.6 196.35 -27.6 204.9 -27.6 213.15 -25.95 223.2 L-99.2 223.2 Q-114.65 218.5 -150.5 211.15 -198.35 201.35 -212.1 198.15 L-230.3 193.65 Q-232.25 194.8 -234.8 194.8 -240.55 194.8 -244.0 193.15 -247.15 191.65 -247.4 189.4 -278.35 185.25 -280.8 184.5 L-282.05 184.05 Q-284.15 183.1 -284.75 181.7 -285.1 180.8 -285.15 177.8 L-285.2 176.5 -285.05 173.35 -288.3 171.3 Q-294.3 158.15 -294.8 150.2 -295.05 146.5 -296.7 139.95 L-299.4 129.8 -300.2 126.45 Q-299.6 125.0 -299.6 123.2 -299.6 117.45 -303.8 106.25 -308.55 93.75 -315.75 82.45 -335.2 52.05 -358.4 51.6 L-385.6 51.6 Q-402.25 54.35 -419.65 75.85 -426.7 84.5 -431.2 93.25 -435.6 101.9 -435.6 106.8 L-435.2 110.1 -438.35 116.0 Q-445.2 130.25 -445.2 142.8 L-444.85 151.6 Q-444.45 160.05 -444.4 163.8 -444.3 167.25 -442.95 170.95 -446.05 173.6 -449.6 173.6 -452.9 173.6 -455.45 172.4 -451.8 169.95 -451.45 164.9 -451.25 161.9 -452.25 156.75 L-453.2 150.2 -452.25 134.9 -451.6 124.4 -451.45 118.9 Q-451.55 116.0 -452.7 113.95 -455.6 108.7 -468.8 103.0 -475.85 96.4 -485.2 93.35 -485.6 91.1 -485.6 88.4 -485.6 81.3 -484.05 76.45 -483.25 73.9 -482.05 72.05 -481.35 69.25 -478.9 65.3 L-474.75 59.05 Q-467.9 56.5 -462.0 43.2 -455.6 28.75 -455.6 17.1 -455.6 13.0 -458.05 5.95 -460.2 -0.3 -462.8 -4.45 -464.8 -14.9 -464.8 -20.4 -464.8 -53.4 -436.6 -107.25 -424.45 -130.5 -409.7 -151.9 -395.1 -173.1 -381.6 -187.2 L-361.0 -209.0 Q-349.0 -221.6 -340.4 -229.85 -316.55 -252.8 -292.05 -267.7 -261.75 -286.15 -221.85 -298.2 -177.0 -311.75 -115.2 -318.8 -44.75 -315.6 0.1 -310.0 43.4 -304.6 71.6 -295.8 96.75 -287.95 116.75 -275.0 130.35 -266.2 153.2 -246.4 168.85 -232.6 182.4 -218.3 193.4 -206.7 206.0 -191.6 L208.25 -188.85 M486.35 181.45 Q477.5 192.6 463.1 201.25 452.45 207.65 437.7 213.45 L439.0 212.8 Q471.75 196.95 486.35 181.45 M158.5 255.2 L153.2 255.2 153.1 253.9 158.5 255.2 M475.6 42.5 Q475.6 25.55 460.25 16.55 446.3 8.4 426.4 9.9 406.35 11.4 392.6 21.8 377.2 33.45 377.2 51.6 377.2 64.3 381.45 71.4 390.25 86.0 416.0 86.0 448.4 86.0 464.45 68.6 470.3 62.25 473.3 54.2 475.6 47.9 475.6 42.5 M319.6 79.9 Q317.9 71.9 312.15 66.2 296.1 50.35 247.4 50.4 209.5 50.45 192.4 66.05 180.4 76.95 180.4 92.9 180.4 105.85 190.8 116.0 206.8 131.6 242.4 131.6 285.1 131.6 305.8 116.2 313.55 110.45 317.35 103.1 320.4 97.3 320.4 91.9 320.4 83.7 319.6 79.9 M-339.0 -177.6 Q-341.15 -175.2 -354.15 -163.55 -367.05 -151.25 -371.6 -142.8 -398.8 -83.4 -398.8 -72.6 -398.8 -69.5 -397.9 -68.45 -397.0 -67.4 -393.85 -67.1 L-368.0 -65.2 -346.6 -65.0 -344.0 -64.4 -320.0 -64.4 Q-312.8 -64.2 -308.45 -71.05 -304.95 -76.6 -302.75 -87.95 -302.1 -91.3 -299.55 -109.1 -297.75 -122.0 -295.6 -128.4 -292.25 -138.5 -285.8 -165.35 -279.6 -191.25 -279.6 -194.1 -279.6 -199.85 -287.95 -199.5 -294.95 -199.25 -306.8 -194.8 -316.95 -191.0 -326.9 -185.6 -336.4 -180.5 -339.0 -177.6 M-102.2 -63.9 L-99.4 -68.8 Q-92.95 -67.8 -90.1 -71.2 -88.4 -73.25 -88.4 -75.7 -88.4 -88.85 -94.9 -108.0 -102.6 -130.8 -116.1 -149.9 -132.55 -173.15 -154.8 -186.5 -181.1 -202.25 -213.6 -202.8 L-240.2 -202.8 -240.4 -202.8 -242.4 -202.8 Q-245.85 -202.65 -247.35 -200.45 -248.4 -198.95 -248.4 -196.8 -248.4 -194.65 -247.35 -193.1 L-246.95 -192.65 Q-248.35 -187.05 -248.6 -179.4 -248.85 -171.8 -251.65 -160.0 L-256.4 -141.0 -260.45 -105.8 Q-264.4 -71.1 -264.4 -64.2 -264.4 -61.1 -264.0 -60.0 -262.8 -56.4 -258.4 -56.4 -257.25 -56.4 -256.25 -57.15 -253.35 -56.4 -248.8 -56.4 L-247.0 -56.4 Q-238.9 -54.45 -224.8 -52.4 -210.85 -50.35 -177.6 -46.8 L-146.6 -46.6 -142.55 -44.65 Q-140.95 -44.4 -130.0 -44.4 -121.0 -44.4 -112.8 -51.3 -119.6 -38.65 -119.6 -20.9 -119.6 -9.95 -118.9 -4.2 -117.8 4.75 -114.6 10.6 -106.45 25.2 -81.6 25.2 -61.15 25.2 -55.6 8.8 -53.85 3.55 -53.75 -3.1 -53.7 -6.5 -54.0 -9.8 -54.0 -18.35 -56.15 -36.7 -59.0 -61.1 -63.0 -67.4 -87.9 -74.2 -102.2 -63.9 M-247.2 -2.0 L-272.0 -2.0 Q-278.2 2.35 -279.55 5.1 -280.4 6.85 -280.4 12.9 -280.4 17.1 -280.0 18.4 -278.85 22.4 -274.4 22.8 L-242.4 22.8 Q-231.8 23.6 -228.05 20.2 -226.0 18.35 -226.0 14.6 -226.0 7.9 -228.7 3.6 -233.8 -4.55 -247.2 -2.0" fill="#ff0000" fill-rule="evenodd" stroke="none"/>
    <path d="M-462.8 -4.45 Q-460.2 -0.3 -458.05 5.95 -455.6 13.0 -455.6 17.1 -455.6 28.75 -462.0 43.2 -467.9 56.5 -474.75 59.05 L-478.0 59.6 Q-484.05 59.6 -485.25 53.6 -485.6 51.75 -485.45 49.5 L-485.2 47.6 Q-485.2 40.95 -481.4 24.7 L-476.4 3.2 Q-474.4 -8.05 -470.7 -9.75 -467.6 -11.2 -463.8 -5.95 L-462.8 -4.45 M475.6 42.5 Q475.6 47.9 473.3 54.2 470.3 62.25 464.45 68.6 448.4 86.0 416.0 86.0 390.25 86.0 381.45 71.4 377.2 64.3 377.2 51.6 377.2 33.45 392.6 21.8 406.35 11.4 426.4 9.9 446.3 8.4 460.25 16.55 475.6 25.55 475.6 42.5 M319.6 79.9 Q320.4 83.7 320.4 91.9 320.4 97.3 317.35 103.1 313.55 110.45 305.8 116.2 285.1 131.6 242.4 131.6 206.8 131.6 190.8 116.0 180.4 105.85 180.4 92.9 180.4 76.95 192.4 66.05 209.5 50.45 247.4 50.4 296.1 50.35 312.15 66.2 317.9 71.9 319.6 79.9" fill="#ffff00" fill-rule="evenodd" stroke="none"/>
    <path d="M-485.2 93.35 Q-475.85 96.4 -468.8 103.0 -455.6 108.7 -452.7 113.95 -451.55 116.0 -451.45 118.9 L-451.6 124.4 -452.25 134.9 -453.2 150.2 -452.25 156.75 Q-451.25 161.9 -451.45 164.9 -451.8 169.95 -455.45 172.4 -459.0 174.8 -465.6 174.8 -488.85 174.8 -496.95 151.4 -501.2 139.25 -501.2 117.5 -501.2 114.6 -500.4 106.65 L-499.6 97.7 Q-499.6 89.4 -487.55 92.65 L-485.2 93.35 M132.35 187.15 Q137.2 178.8 143.2 178.0 L199.0 177.8 201.6 177.2 243.0 177.0 Q293.55 172.15 352.1 156.15 410.0 140.35 433.6 125.2 437.1 122.95 450.5 116.25 461.6 110.65 467.0 106.2 470.05 103.7 474.55 100.95 L482.2 96.2 488.8 91.25 Q493.3 88.8 496.0 92.4 497.25 93.75 499.3 112.4 501.2 129.85 501.2 135.6 501.2 148.3 499.6 156.1 497.5 166.3 491.8 174.7 489.5 178.05 486.35 181.45 471.75 196.95 439.0 212.8 L437.7 213.45 429.15 217.5 Q425.5 213.75 414.15 218.1 410.85 219.4 400.05 224.45 391.6 228.4 388.0 229.2 367.35 234.05 353.65 238.35 340.45 242.5 336.15 245.45 L331.9 245.9 244.0 255.6 217.8 255.8 215.2 256.4 164.8 256.4 158.5 255.2 153.1 253.9 Q152.65 251.95 150.85 250.8 147.15 248.4 136.7 247.4 L136.5 247.3 Q127.75 238.9 126.15 236.9 L125.25 235.0 125.15 234.05 125.2 229.0 Q125.2 222.1 128.8 208.3 132.4 194.5 132.4 187.9 L132.35 187.15 M238.85 -137.75 L238.8 -138.4 Q238.8 -142.5 244.3 -144.55 249.45 -146.5 256.85 -145.75 264.6 -144.95 270.7 -141.5 277.6 -137.6 280.0 -131.4 283.05 -123.0 286.9 -117.05 288.4 -114.75 288.4 -107.1 288.4 -100.9 288.2 -100.2 286.9 -95.6 280.8 -95.6 275.85 -95.6 274.4 -97.4 273.65 -99.55 273.0 -100.2 262.45 -96.7 254.15 -104.4 L253.6 -104.4 Q250.0 -104.4 248.45 -107.4 L247.6 -110.4 Q247.6 -111.5 247.9 -112.4 L246.7 -114.45 246.0 -115.75 242.25 -127.7 238.85 -137.75 M13.1 148.25 Q16.8 146.1 20.3 144.75 L24.5 143.7 Q28.5 142.65 31.95 142.35 L37.55 143.0 Q41.7 145.05 49.95 152.5 L56.2 158.0 56.75 158.9 Q61.8 167.15 65.1 178.45 67.85 189.8 68.3 203.2 67.85 220.5 64.95 234.3 L62.8 241.55 58.95 252.0 Q57.65 255.5 57.3 257.15 48.1 274.8 32.0 274.8 L29.8 274.75 Q17.4 271.95 10.2 262.15 6.95 257.75 4.0 250.8 L0.0 241.4 -1.5 237.95 -2.55 233.45 -2.85 230.75 -2.8 221.0 Q-2.8 215.65 -4.8 209.15 L-5.3 207.4 -5.3 201.65 Q-5.15 191.45 -4.1 185.3 -1.45 175.75 2.3 166.9 7.6 154.6 13.1 148.25 M-102.2 -63.9 Q-87.9 -74.2 -63.0 -67.4 -59.0 -61.1 -56.15 -36.7 -54.0 -18.35 -54.0 -9.8 -53.7 -6.5 -53.75 -3.1 -53.85 3.55 -55.6 8.8 -61.15 25.2 -81.6 25.2 -106.45 25.2 -114.6 10.6 -117.8 4.75 -118.9 -4.2 -119.6 -9.95 -119.6 -20.9 -119.6 -38.65 -112.8 -51.3 -110.6 -53.15 -108.5 -55.5 -105.05 -59.3 -102.2 -63.9 M-247.2 -2.0 Q-233.8 -4.55 -228.7 3.6 -226.0 7.9 -226.0 14.6 -226.0 18.35 -228.05 20.2 -231.8 23.6 -242.4 22.8 L-274.4 22.8 Q-278.85 22.4 -280.0 18.4 -280.4 17.1 -280.4 12.9 -280.4 6.85 -279.55 5.1 -278.2 2.35 -272.0 -2.0 L-247.2 -2.0 M-404.4 92.5 Q-399.55 91.85 -393.6 94.0 -384.05 95.25 -375.5 108.15 L-375.4 108.3 -374.8 109.8 Q-373.95 112.1 -371.05 124.45 -369.75 128.35 -368.2 130.9 -367.85 137.25 -366.8 141.35 L-366.6 142.05 -366.8 155.4 Q-366.8 170.1 -369.2 183.0 -370.05 187.5 -378.1 197.4 -385.3 206.3 -385.95 210.7 L-387.05 211.25 -392.6 211.4 Q-411.55 211.4 -420.8 190.65 L-422.6 183.8 Q-425.2 171.85 -425.2 149.6 -425.2 134.8 -423.9 124.55 -422.15 118.25 -419.85 112.8 -413.2 96.85 -404.4 92.5" fill="#cccccc" fill-rule="evenodd" stroke="none"/>
    <path d="M-442.95 170.95 Q-444.3 167.25 -444.4 163.8 -444.45 160.05 -444.85 151.6 L-445.2 142.8 Q-445.2 130.25 -438.35 116.0 L-435.2 110.1 -435.6 106.8 Q-435.6 101.9 -431.2 93.25 -426.7 84.5 -419.65 75.85 -402.25 54.35 -385.6 51.6 L-358.4 51.6 Q-335.2 52.05 -315.75 82.45 -308.55 93.75 -303.8 106.25 -299.6 117.45 -299.6 123.2 -299.6 125.0 -300.2 126.45 L-299.4 129.8 -296.7 139.95 Q-295.05 146.5 -294.8 150.2 -294.3 158.15 -288.3 171.3 L-286.4 175.3 -285.15 177.8 Q-285.1 180.8 -284.75 181.7 -284.15 183.1 -282.05 184.05 L-278.8 190.4 Q-278.8 204.8 -295.35 221.55 -312.5 238.85 -338.4 249.2 L-375.2 249.2 Q-400.75 249.2 -423.8 220.25 -432.6 209.2 -438.3 197.1 -443.6 185.9 -443.6 179.7 -443.6 174.7 -443.4 174.0 L-442.55 172.1 -442.95 170.95 M-25.95 223.2 Q-27.6 213.15 -27.6 204.9 -27.6 196.35 -25.1 190.05 -22.95 184.6 -19.6 182.1 L-19.3 181.9 -18.75 173.6 Q-17.2 159.15 -12.25 148.1 -1.4 123.7 28.2 110.7 L29.3 110.2 Q34.95 107.8 41.2 105.8 53.05 102.05 70.35 105.95 80.05 108.15 86.35 111.6 L88.15 112.65 Q91.3 114.6 93.45 116.95 L94.0 117.6 Q101.35 123.4 106.15 130.55 111.1 137.9 115.6 141.6 L116.55 142.5 Q121.1 147.5 126.85 166.05 131.9 182.4 132.35 187.15 L132.4 187.9 Q132.4 194.5 128.8 208.3 125.2 222.1 125.2 229.0 L125.15 234.05 125.25 235.0 Q125.45 235.95 125.95 236.65 L126.15 236.9 Q127.75 238.9 136.5 247.3 L136.6 247.4 136.7 247.4 Q147.15 248.4 150.85 250.8 152.65 251.95 153.1 253.9 L153.2 255.2 Q153.2 256.95 150.65 259.9 149.8 261.6 148.2 263.55 L141.8 271.4 Q140.55 273.35 138.75 278.5 L135.8 286.4 Q132.3 293.8 118.6 300.5 111.4 304.0 90.4 311.6 L62.8 311.8 60.0 312.4 38.4 312.4 Q4.4 303.85 -14.0 263.35 -20.9 248.2 -24.55 230.65 L-25.95 223.2 M429.15 217.5 Q430.8 219.2 430.8 222.7 430.8 226.15 426.85 231.3 422.25 237.2 414.6 242.25 394.15 255.6 363.6 255.6 L353.2 254.8 344.4 254.0 Q337.1 254.0 334.8 251.0 334.1 250.05 334.0 248.95 L334.0 248.0 Q334.0 246.85 336.15 245.45 340.45 242.5 353.65 238.35 367.35 234.05 388.0 229.2 391.6 228.4 400.05 224.45 410.85 219.4 414.15 218.1 425.5 213.75 429.15 217.5 M20.3 144.75 L18.0 145.2 16.25 145.1 Q14.65 146.4 13.1 148.25 7.6 154.6 2.3 166.9 -1.45 175.75 -4.1 185.3 L-4.4 186.4 Q-6.8 195.55 -6.8 199.7 -6.8 202.25 -5.3 207.4 L-4.8 209.15 Q-2.8 215.65 -2.8 221.0 L-2.85 230.75 -2.55 233.45 -1.5 237.95 0.0 241.4 4.0 250.8 Q6.95 257.75 10.2 262.15 17.4 271.95 29.8 274.75 34.65 275.8 40.3 275.8 49.4 275.8 54.2 267.0 55.7 264.25 56.6 260.9 L57.2 258.0 57.3 257.15 Q57.65 255.5 58.95 252.0 L62.8 241.55 64.95 234.3 Q68.4 221.2 68.4 208.5 L68.3 203.2 Q67.85 189.8 65.1 178.45 62.8 169.1 58.95 161.1 L58.3 159.75 56.2 158.0 49.95 152.5 Q41.7 145.05 37.55 143.0 36.0 142.2 35.0 142.2 L31.95 142.35 Q28.5 142.65 24.5 143.7 L20.3 144.75 M-375.4 108.3 Q-381.1 95.1 -394.5 92.6 L-401.3 91.35 Q-402.9 91.7 -404.4 92.5 -413.2 96.85 -419.85 112.8 -422.15 118.25 -423.9 124.55 -425.3 129.45 -426.4 134.85 -428.4 144.75 -428.4 150.2 -428.4 167.65 -423.8 182.6 -422.45 186.95 -420.8 190.65 -411.55 211.4 -392.6 211.4 L-387.05 211.25 -386.0 211.2 -385.95 210.7 Q-385.3 206.3 -378.1 197.4 -370.05 187.5 -369.2 183.0 -366.8 170.1 -366.8 155.4 L-366.6 142.05 -366.65 139.0 -366.85 132.85 -368.2 130.9 Q-369.75 128.35 -371.05 124.45 -373.95 112.1 -374.8 109.8 L-375.4 108.3" fill="#666666" fill-rule="evenodd" stroke="none"/>
    <path d="M246.0 -115.75 Q247.6 -110.25 247.6 -108.9 247.6 -108.0 245.55 -105.7 244.25 -103.1 239.4 -99.0 236.35 -96.4 233.85 -94.95 L233.4 -94.6 Q222.9 -85.8 216.8 -83.1 212.25 -78.1 197.15 -71.45 176.65 -62.45 144.05 -53.4 110.7 -44.2 77.45 -38.55 41.05 -32.4 15.2 -32.4 L6.0 -33.2 5.6 -33.2 Q-17.15 -33.2 -38.1 -74.35 -48.75 -95.35 -56.6 -120.2 -66.6 -143.25 -72.2 -164.05 -78.8 -188.55 -78.8 -208.1 -78.8 -211.85 -78.0 -214.7 -78.8 -216.2 -78.8 -217.9 -78.8 -223.2 -64.1 -229.85 -49.7 -236.35 -25.75 -242.2 29.85 -255.8 86.8 -255.8 L94.5 -257.4 Q102.4 -259.2 108.55 -259.85 129.15 -262.0 138.8 -252.8 142.0 -249.65 150.4 -242.85 158.7 -236.1 162.0 -232.8 169.65 -225.05 182.15 -213.6 L205.8 -191.4 208.25 -188.85 214.55 -181.1 Q218.0 -176.3 221.5 -170.35 L233.4 -150.0 Q235.55 -146.85 238.85 -137.75 L242.25 -127.7 246.0 -115.75 M-339.0 -177.6 Q-336.4 -180.5 -326.9 -185.6 -316.95 -191.0 -306.8 -194.8 -294.95 -199.25 -287.95 -199.5 -279.6 -199.85 -279.6 -194.1 -279.6 -191.25 -285.8 -165.35 -292.25 -138.5 -295.6 -128.4 -297.75 -122.0 -299.55 -109.1 -302.1 -91.3 -302.75 -87.95 -304.95 -76.6 -308.45 -71.05 -312.8 -64.2 -320.0 -64.4 L-344.0 -64.4 -346.6 -65.0 -368.0 -65.2 -393.85 -67.1 Q-397.0 -67.4 -397.9 -68.45 -398.8 -69.5 -398.8 -72.6 -398.8 -83.4 -371.6 -142.8 -367.05 -151.25 -354.15 -163.55 -341.15 -175.2 -339.0 -177.6 M-112.8 -51.3 Q-121.0 -44.4 -130.0 -44.4 -140.95 -44.4 -142.55 -44.65 L-146.6 -46.6 -177.6 -46.8 Q-210.85 -50.35 -224.8 -52.4 -238.9 -54.45 -247.0 -56.4 L-248.8 -56.4 Q-253.35 -56.4 -256.25 -57.15 -257.25 -56.4 -258.4 -56.4 -262.8 -56.4 -264.0 -60.0 -264.4 -61.1 -264.4 -64.2 -264.4 -71.1 -260.45 -105.8 L-256.4 -141.0 -251.65 -160.0 Q-248.85 -171.8 -248.6 -179.4 -248.35 -187.05 -246.95 -192.65 L-247.35 -193.1 Q-248.4 -194.65 -248.4 -196.8 -248.4 -198.95 -247.35 -200.45 -245.85 -202.65 -242.4 -202.8 L-240.4 -202.8 -240.2 -202.8 -213.6 -202.8 Q-181.1 -202.25 -154.8 -186.5 -132.55 -173.15 -116.1 -149.9 -102.6 -130.8 -94.9 -108.0 -88.4 -88.85 -88.4 -75.7 -88.4 -73.25 -90.1 -71.2 -92.95 -67.8 -99.4 -68.8 L-102.2 -63.9 Q-105.05 -59.3 -108.5 -55.5 -110.6 -53.15 -112.8 -51.3" fill="#00ffff" fill-opacity="0.73333335" fill-rule="evenodd" stroke="none"/>
    <path d="M-277.95 -4.95 L-251.15 -3.4 -224.85 -1.3 Q-225.6 5.15 -224.35 13.75 -222.9 23.55 -223.05 28.0 L-251.7 25.55 -281.6 24.35 Q-283.05 20.35 -281.0 10.7 -278.15 -2.65 -277.95 -4.95 M-277.95 20.65 Q-270.3 19.65 -251.25 21.85 -235.15 23.75 -226.7 20.65 -229.1 19.2 -228.75 12.65 -228.25 3.8 -228.55 2.35 L-246.2 0.9 Q-258.4 -0.8 -263.5 -0.6 -272.1 -0.35 -275.65 3.95 -279.95 9.05 -277.95 20.65" fill="#373535" fill-rule="evenodd" stroke="none"/>
    <path d="M-404.3 92.1 Q-387.6 87.15 -376.65 105.5 -366.9 121.85 -365.35 148.8 -363.8 175.5 -371.25 194.85 -379.5 216.35 -395.15 216.6 -409.6 216.8 -418.9 198.9 -427.25 182.85 -428.65 158.6 -430.0 134.65 -423.9 116.15 -417.25 95.95 -404.3 92.1 M-420.4 117.45 Q-426.1 134.55 -425.05 156.95 -424.0 179.7 -416.6 194.7 -408.3 211.45 -395.15 211.1 -381.25 210.7 -374.1 191.15 -367.7 173.6 -369.1 149.15 -370.55 124.6 -378.95 109.3 -388.35 92.15 -402.45 95.75 -414.15 98.75 -420.4 117.45" fill="#373535" fill-rule="evenodd" stroke="none"/>
    <path d="M56.4 156.75 Q67.55 174.5 69.15 203.75 70.7 232.55 62.1 253.95 52.65 277.55 35.1 278.85 16.85 280.2 5.2 260.55 -5.3 242.95 -6.95 215.75 -8.55 188.9 -0.75 168.2 7.8 145.45 24.15 141.5 43.85 136.75 56.4 156.75 M24.15 145.15 Q9.6 148.85 2.1 170.0 -4.7 189.25 -3.25 214.5 -1.75 239.95 7.4 256.8 17.55 275.6 33.3 275.15 50.0 274.7 58.9 252.5 67.0 232.45 65.5 204.85 64.05 176.95 53.7 159.85 42.1 140.6 24.15 145.15" fill="#373535" fill-rule="evenodd" stroke="none"/>
    <path d="M478.2 46.3 Q476.15 59.55 465.1 69.65 454.8 79.05 439.6 83.3 424.45 87.55 409.55 85.3 393.75 82.95 383.0 73.75 371.05 79.4 354.7 84.8 344.15 88.3 324.4 93.9 319.0 111.95 298.3 122.75 279.35 132.65 253.9 133.7 228.65 134.7 208.1 126.55 185.95 117.75 177.95 101.25 137.15 89.3 98.85 66.35 63.55 45.2 36.95 18.85 100.0 72.75 177.95 99.4 177.9 74.9 199.5 60.7 218.75 48.1 247.9 47.55 276.35 47.0 298.4 58.0 322.3 69.95 326.25 90.25 334.6 87.65 353.65 81.05 371.1 74.95 381.15 71.95 373.75 56.2 378.65 41.7 383.05 28.55 396.35 19.45 409.25 10.65 425.7 8.75 443.0 6.8 458.05 13.35 424.9 -29.25 367.75 -59.25 320.8 -83.9 249.35 -103.85 209.15 -70.4 139.05 -51.85 107.6 -43.5 69.4 -38.05 36.5 -30.8 14.1 -31.9 L-3.35 -30.6 Q-21.35 -42.4 -35.95 -67.0 -45.95 -83.85 -58.25 -114.8 -71.1 -147.1 -75.9 -168.15 -83.15 -200.1 -78.4 -226.5 -46.3 -243.1 14.05 -251.25 L66.75 -257.1 Q101.75 -260.65 119.35 -263.1 90.05 -286.75 42.8 -298.35 3.05 -308.1 -56.45 -310.7 -226.8 -318.2 -332.95 -232.65 -428.3 -155.75 -462.9 -12.3 -455.1 -4.55 -453.0 7.8 -451.15 18.95 -454.2 31.75 -457.05 43.8 -463.4 53.8 -469.8 63.9 -477.55 68.3 -479.3 71.0 -479.25 80.3 -479.2 89.4 -481.2 92.1 -459.1 103.6 -446.4 117.7 -447.15 125.0 -451.3 144.85 -454.1 162.5 -450.05 168.95 -444.85 114.15 -427.15 84.2 -403.05 43.25 -356.7 49.95 -337.4 52.75 -324.15 66.5 -312.95 78.2 -305.05 99.15 -299.5 113.85 -293.45 140.15 -285.55 174.4 -283.45 181.8 -196.75 201.15 -160.85 207.5 -90.25 219.95 -27.15 222.05 -27.3 196.25 -20.8 173.75 -14.1 150.65 -1.35 134.45 12.1 117.4 30.8 110.15 50.9 102.35 75.4 106.7 97.7 110.65 112.05 134.5 122.55 151.85 130.3 183.6 140.9 175.6 166.0 175.6 L188.75 176.2 Q203.5 176.7 212.7 176.3 271.1 173.65 331.6 159.1 394.9 143.95 436.1 121.35 458.55 109.1 467.3 103.25 487.35 90.0 489.2 81.1 490.65 74.05 485.95 63.2 480.05 51.4 478.2 46.3 M186.95 -204.4 L159.6 -230.15 Q154.35 -201.8 146.8 -184.4 148.7 -193.85 152.15 -208.3 L157.8 -232.0 Q148.55 -241.9 141.05 -247.3 130.9 -254.6 119.35 -257.6 L103.6 -212.0 Q94.35 -185.8 86.4 -167.9 89.1 -178.6 101.85 -214.25 112.05 -242.85 113.85 -259.45 95.1 -256.25 62.0 -253.15 L9.25 -247.8 Q-19.8 -244.1 -39.3 -238.2 -63.25 -231.0 -78.4 -219.15 -78.1 -189.15 -70.6 -161.05 -64.7 -139.0 -52.75 -113.0 -47.3 -123.6 -35.65 -150.8 -25.1 -175.3 -18.0 -188.05 -22.7 -174.45 -34.6 -146.1 -45.9 -119.3 -50.95 -103.85 -46.2 -95.1 -37.55 -76.9 -29.5 -61.15 -21.65 -52.55 -18.45 -58.65 -3.7 -88.65 7.15 -110.8 15.0 -123.95 7.9 -107.65 -2.15 -86.15 L-19.8 -48.9 Q-13.8 -41.4 -8.0 -37.65 -1.3 -33.4 7.65 -32.4 L14.1 -31.9 Q43.3 -34.3 69.4 -38.05 L71.9 -38.6 Q85.5 -41.7 105.6 -47.3 L137.65 -56.2 Q177.35 -66.85 199.75 -75.95 230.9 -88.55 245.65 -103.85 239.9 -143.9 212.75 -177.1 202.95 -189.15 186.95 -204.4 M245.75 -126.35 Q250.55 -115.35 249.35 -107.5 L268.25 -102.6 Q278.35 -99.7 285.95 -96.5 287.3 -121.25 277.1 -133.85 265.35 -148.3 242.0 -140.45 241.35 -137.75 242.6 -133.9 243.1 -132.4 245.75 -126.35 M291.0 -122.55 Q294.1 -111.35 293.25 -98.35 356.25 -76.7 400.1 -49.15 458.45 -12.55 481.85 33.5 497.55 64.45 502.95 98.05 509.65 139.7 496.5 168.95 489.5 184.5 473.35 196.75 462.95 204.6 439.75 216.6 428.7 237.6 411.5 249.3 391.35 263.0 364.7 262.35 357.5 262.2 344.05 257.05 330.3 251.8 322.55 251.35 309.4 250.65 283.4 254.4 254.75 258.55 242.0 258.7 L199.0 258.95 157.8 256.85 Q145.1 281.8 128.0 296.6 108.3 313.6 80.9 319.1 L60.75 319.1 Q-12.1 302.55 -25.3 229.4 -84.95 228.75 -154.3 216.5 -177.5 212.45 -213.65 204.9 L-272.45 192.8 -284.75 213.5 Q-291.5 224.9 -298.1 231.2 -315.95 248.25 -340.7 252.5 -363.9 256.45 -387.1 248.4 -410.35 240.35 -426.1 222.9 -442.9 204.3 -446.4 179.95 -468.1 186.5 -485.85 173.5 -494.05 167.45 -499.05 158.35 -504.2 148.95 -505.0 137.85 L-505.0 112.2 Q-506.35 103.7 -498.15 93.75 L-491.5 85.85 Q-487.9 81.25 -486.7 77.45 -484.65 71.15 -485.7 59.0 -487.05 43.75 -486.7 39.0 -485.2 20.15 -476.05 -5.0 -465.2 -32.2 -461.05 -45.25 -416.5 -185.3 -316.85 -254.6 -204.3 -332.85 -27.15 -316.2 L20.3 -311.4 Q47.9 -307.8 66.25 -301.55 91.35 -293.05 119.35 -273.15 139.0 -259.2 165.1 -235.65 186.5 -216.35 205.3 -194.65 222.35 -174.95 242.0 -147.75 254.3 -152.7 264.7 -150.65 274.3 -148.75 281.25 -141.1 287.85 -133.85 291.0 -122.55 M245.65 51.8 Q216.9 53.7 201.35 61.55 180.3 72.15 181.6 93.9 182.65 111.75 203.55 122.0 222.4 131.25 249.3 131.1 276.15 130.95 295.55 121.55 316.95 111.25 318.9 93.9 321.6 69.95 297.6 58.95 277.45 49.7 245.65 51.8 M421.45 13.35 Q374.75 22.1 379.3 57.3 381.4 73.2 397.6 80.0 412.3 86.15 431.6 82.6 451.15 78.95 463.3 67.5 476.9 54.65 474.55 37.15 472.6 22.75 458.9 16.1 444.35 9.05 421.45 13.35 M335.4 247.7 Q361.65 258.05 390.05 250.15 403.2 246.5 412.75 239.35 422.8 231.9 426.95 222.05 428.55 221.95 427.95 220.9 427.35 219.85 425.1 220.25 409.3 228.45 382.0 235.75 350.6 243.4 335.4 247.7 M428.9 215.15 Q479.55 192.7 491.0 165.3 497.6 149.6 496.9 126.0 496.3 105.3 491.0 90.25 432.45 137.5 344.0 160.65 253.25 184.4 141.3 179.95 136.5 183.85 132.25 191.4 128.0 199.1 125.85 207.9 120.65 229.0 130.3 240.4 138.75 250.25 173.85 251.75 193.65 252.6 232.85 251.35 291.25 251.05 339.05 242.2 388.7 233.0 428.9 215.15 M-475.6 23.55 Q-479.45 42.6 -479.35 59.1 -471.0 57.8 -464.6 48.55 -458.75 40.05 -456.65 28.1 -454.5 16.05 -457.25 6.2 -460.3 -4.6 -468.35 -8.6 -470.55 2.3 -475.6 23.55 M-414.2 73.6 Q-424.0 84.5 -431.05 100.1 -437.9 115.1 -440.95 131.7 -444.05 148.5 -442.75 163.5 -439.7 197.9 -417.15 220.3 -396.55 240.7 -367.2 244.8 -338.1 248.9 -314.35 235.05 -288.55 220.0 -279.8 189.1 -284.1 186.0 -286.85 180.9 -288.7 177.5 -290.8 170.8 -294.15 160.2 -298.6 140.35 -303.45 118.55 -305.9 110.05 -315.65 75.9 -334.7 62.8 -347.65 53.9 -363.95 53.0 -378.05 52.2 -391.5 57.3 -403.65 61.9 -414.2 73.6 M-460.4 110.2 Q-465.5 105.75 -469.3 103.05 -480.0 95.5 -492.15 93.9 -496.4 106.65 -497.1 120.45 -497.9 135.05 -494.45 146.8 -490.65 159.75 -482.4 166.85 -473.15 174.75 -459.2 174.45 -453.3 142.25 -451.9 117.7 L-460.4 110.2 M80.9 112.2 Q56.5 104.35 35.9 110.6 17.65 116.15 3.9 132.25 -8.45 146.7 -15.3 167.25 -21.65 186.4 -21.65 205.6 -21.65 243.5 0.05 271.8 20.0 297.8 50.55 306.55 81.3 315.4 107.95 302.3 137.25 287.95 150.45 251.35 135.9 250.8 128.9 244.4 123.05 238.95 121.15 227.55 119.8 219.15 123.9 205.9 L127.0 196.05 Q128.5 190.75 128.5 187.3 128.55 164.15 112.75 140.35 105.75 129.8 97.35 122.35 88.85 114.75 80.9 112.2" fill="#373535" fill-rule="evenodd" stroke="none"/>
    <path d="M-122.35 -156.9 Q-140.75 -181.55 -171.4 -193.45 -204.7 -206.35 -245.0 -200.85 L-256.35 -133.0 Q-262.1 -92.55 -261.5 -63.55 -230.45 -104.5 -191.9 -145.95 -199.85 -135.6 -227.1 -102.4 -249.15 -75.55 -261.5 -58.05 L-190.9 -50.8 Q-149.8 -46.8 -118.7 -45.25 -114.35 -56.15 -108.15 -62.15 -100.7 -69.35 -89.4 -70.85 -91.6 -92.9 -99.7 -114.55 -105.1 -128.9 -116.85 -151.45 -127.65 -143.55 -146.95 -119.8 -156.05 -108.6 -161.0 -103.4 -168.75 -95.15 -175.45 -91.0 -157.85 -110.1 -147.5 -122.6 -132.75 -140.45 -122.35 -156.9 M-60.1 -67.2 Q-53.0 -48.95 -51.4 -24.05 -49.7 3.3 -56.45 20.65 -70.9 28.7 -85.4 27.5 -99.1 26.35 -109.15 17.25 -119.35 8.1 -122.6 -6.4 -126.1 -21.9 -120.5 -39.75 -150.05 -44.4 -192.6 -48.25 L-267.0 -54.4 Q-265.05 -90.55 -259.8 -130.05 -254.35 -171.35 -246.85 -204.55 -175.7 -211.1 -134.35 -174.6 -96.2 -140.9 -87.55 -74.55 -84.4 -73.2 -73.15 -71.5 -63.65 -70.1 -60.1 -67.2 M-63.75 -65.4 Q-91.1 -75.05 -106.55 -58.1 -113.1 -50.9 -116.2 -40.0 -119.1 -29.65 -118.35 -18.2 -117.6 -6.75 -113.35 2.85 -108.85 13.0 -101.45 18.7 -84.0 32.2 -58.25 17.0 -55.4 -5.85 -56.15 -26.8 -57.15 -52.7 -63.75 -65.4" fill="#373535" fill-rule="evenodd" stroke="none"/>
    <path d="M-292.6 -131.25 Q-304.55 -85.65 -309.1 -61.7 -323.75 -61.45 -356.4 -62.95 -386.15 -64.3 -404.3 -63.55 -393.2 -97.75 -387.15 -112.75 -376.5 -139.1 -364.15 -156.1 -333.0 -198.85 -276.15 -200.85 -280.7 -176.55 -292.6 -131.25 M-279.8 -197.2 Q-331.0 -195.45 -360.9 -155.15 -372.8 -139.1 -382.4 -115.65 -389.2 -99.0 -396.95 -72.7 -371.45 -102.7 -332.9 -140.45 -339.5 -132.65 -365.35 -104.25 -385.55 -82.1 -396.95 -67.2 L-379.55 -67.25 Q-369.75 -67.0 -364.0 -65.4 -357.0 -71.15 -346.5 -80.8 L-329.25 -96.5 Q-331.2 -93.4 -336.0 -88.5 L-344.65 -79.9 Q-354.85 -69.5 -353.05 -65.4 L-312.75 -65.4 Q-301.2 -108.75 -295.55 -130.55 -285.5 -169.05 -279.8 -197.2" fill="#373535" fill-rule="evenodd" stroke="none"/>
  </g>
</svg>
