<?xml version="1.0" encoding="UTF-8" standalone="no"?>
<svg xmlns:xlink="http://www.w3.org/1999/xlink" height="150.8px" width="485.75px" xmlns="http://www.w3.org/2000/svg">
  <g transform="matrix(1, 0, 0, 1, 242.75, 75.8)">
    <path d="M-93.4 38.0 Q-89.75 33.35 -84.4 31.7 L-77.8 31.7 Q-54.9 33.9 -54.9 53.85 L-54.95 56.25 -56.15 59.5 Q-57.85 64.35 -58.75 65.05 L-62.0 67.9 Q-62.8 68.75 -65.2 70.3 L-67.55 71.5 Q-69.25 72.4 -69.6 72.85 L-70.5 74.1 Q-71.45 74.95 -73.4 74.9 L-79.8 74.9 -80.95 74.35 Q-89.45 73.2 -92.0 70.1 L-94.6 67.7 -97.35 64.85 Q-99.3 61.85 -99.3 54.35 -99.3 48.45 -96.1 42.2 L-94.85 40.0 -93.9 39.1 -93.4 38.0 M-188.45 31.15 L-188.0 32.1 Q-187.45 33.55 -187.1 35.75 L-185.6 38.9 Q-184.65 41.0 -184.35 42.2 L-182.1 49.5 Q-181.7 50.9 -181.7 55.1 -181.7 59.0 -183.3 61.3 L-184.9 63.85 Q-184.9 65.5 -189.6 68.5 L-195.8 72.1 -204.8 72.1 Q-215.5 69.1 -221.4 60.2 -226.1 53.15 -226.1 46.0 -226.1 41.9 -225.4 40.2 -224.45 38.0 -220.55 34.05 L-213.45 30.3 Q-212.4 29.75 -211.4 29.3 L-209.55 29.1 Q-206.7 28.35 -204.85 28.55 -202.8 28.8 -200.6 30.3 -199.85 31.25 -197.95 31.55 L-194.0 32.2 -194.1 30.95 -193.8 29.9 -193.4 29.6 -188.45 31.15 M190.85 34.4 Q192.6 35.9 193.95 38.0 197.9 44.1 197.9 52.2 197.9 58.25 193.7 63.85 188.6 70.6 179.0 73.7 L168.8 73.7 Q159.95 72.3 154.7 65.5 150.5 60.1 150.5 55.15 L151.35 53.75 151.55 52.4 152.1 49.3 Q152.5 46.3 153.9 46.3 L154.55 46.5 154.95 45.7 156.7 42.4 Q158.6 38.55 161.95 35.6 166.65 31.5 173.0 30.5 178.85 29.55 183.45 30.6 185.45 31.95 189.25 33.65 L190.85 34.4" fill="#666666" fill-rule="evenodd" stroke="none"/>
    <path d="M-134.85 20.7 Q-133.05 18.6 -131.2 18.6 -126.0 18.6 -125.75 26.9 L-125.95 34.0 -126.0 34.95 -124.4 34.6 -96.4 34.6 Q-94.95 34.7 -94.1 35.8 -93.4 36.65 -93.4 37.6 L-93.4 38.0 -93.9 39.1 -94.85 40.0 Q-95.5 40.4 -96.4 40.6 L-100.1 40.6 Q-99.55 41.15 -99.15 42.15 -98.6 43.65 -98.6 45.35 -98.6 47.0 -98.8 47.45 -99.35 48.8 -101.6 49.4 L-129.5 49.5 -131.05 49.7 -133.2 49.8 -137.15 49.55 -140.9 49.1 -154.8 49.0 Q-174.85 49.05 -178.65 46.85 -179.95 46.15 -180.4 44.55 -180.9 42.55 -181.7 41.7 -183.15 40.15 -185.0 36.75 L-188.2 31.2 -188.45 31.15 -193.4 29.6 -197.75 27.8 Q-201.0 26.3 -203.8 26.3 -205.4 26.3 -211.4 29.3 -212.4 29.75 -213.45 30.3 L-220.55 34.05 -224.9 36.4 Q-226.35 37.2 -227.05 39.15 L-228.05 42.85 Q-229.35 47.4 -234.8 47.4 -241.0 47.4 -242.4 38.7 -242.85 36.0 -242.75 32.7 L-242.6 30.0 Q-242.6 23.55 -242.05 21.75 -240.85 17.9 -237.55 17.05 L-237.0 17.1 Q-236.65 17.1 -236.35 16.8 L-235.95 16.8 -235.0 17.1 -228.25 17.15 -224.15 17.55 -219.2 17.9 -216.7 17.9 -209.15 18.75 -206.3 18.5 -193.9 18.6 Q-192.45 19.1 -191.25 19.75 L-186.55 22.2 Q-183.65 23.7 -182.1 25.0 -178.55 27.9 -176.5 30.7 -173.15 35.05 -170.4 36.7 L-168.1 36.7 -167.55 36.8 -157.1 37.3 -142.7 37.2 -141.8 35.05 Q-140.9 34.45 -140.9 33.1 L-140.9 32.9 -138.35 26.7 -136.55 23.05 Q-135.5 22.15 -135.4 21.85 L-134.85 20.7 M238.65 19.25 Q241.25 20.35 241.95 23.65 L242.2 28.75 Q242.2 33.95 240.1 39.3 236.75 47.75 230.0 46.2 L206.4 46.2 Q201.5 44.95 199.9 42.2 L198.75 39.9 Q198.05 38.55 196.9 37.7 195.1 36.35 190.85 34.4 L189.25 33.65 Q185.45 31.95 183.45 30.6 L182.1 29.6 177.3 29.5 Q168.4 29.5 157.25 37.65 L145.6 47.4 130.5 47.5 129.2 47.8 56.9 47.9 55.6 48.2 24.9 48.3 Q22.35 49.55 16.6 49.5 L4.0 49.4 -22.4 49.4 Q-29.8 51.3 -37.7 46.65 -41.8 44.2 -48.1 38.1 -50.5 35.8 -61.05 33.8 L-77.7 31.1 -90.4 31.0 Q-92.6 30.15 -104.85 27.9 -113.0 26.35 -113.0 23.6 -113.0 21.7 -111.8 21.2 L-107.5 20.9 -105.5 20.45 Q-104.65 19.9 -104.0 19.8 L-93.5 19.7 -82.3 18.65 -70.1 17.05 -48.0 17.1 -43.1 17.7 -37.25 17.75 -34.0 18.2 6.3 18.3 7.6 18.6 51.35 18.7 55.6 18.95 Q58.4 19.05 59.7 19.7 L88.1 19.7 92.8 19.9 101.6 20.6 117.9 20.7 119.2 21.0 144.3 21.1 145.6 21.4 159.5 21.5 164.8 22.2 227.2 22.2 Q234.8 22.05 238.65 19.25" fill="#cccccc" fill-rule="evenodd" stroke="none"/>
    <path d="M-237.55 17.05 Q-238.3 16.8 -238.5 15.9 L-238.5 3.6 Q-239.25 1.95 -239.45 -0.5 L-239.5 -4.65 Q-239.5 -8.35 -238.2 -13.05 -236.8 -18.2 -234.7 -21.0 L-232.0 -25.0 Q-230.15 -27.55 -227.45 -29.05 -225.2 -30.3 -218.0 -31.3 L-207.8 -32.7 -196.5 -32.75 Q-193.2 -32.45 -189.75 -33.7 -186.5 -34.85 -186.5 -35.9 -186.5 -37.0 -187.8 -38.75 -189.1 -40.5 -189.1 -42.75 -189.1 -46.1 -186.75 -45.0 -184.65 -44.0 -184.05 -42.4 L-183.8 -39.25 Q-183.5 -37.4 -181.65 -36.15 L-173.05 -35.4 -164.55 -34.35 -154.9 -34.4 -153.3 -35.1 -151.8 -35.5 -143.2 -35.5 -142.7 -38.2 Q-141.9 -43.2 -141.9 -46.8 -141.9 -52.5 -142.15 -54.5 -142.8 -59.2 -145.1 -61.2 L-151.0 -61.3 -151.65 -61.45 -159.15 -61.45 -159.8 -61.3 -166.2 -61.3 Q-167.4 -61.5 -168.6 -61.3 L-181.75 -61.25 -182.6 -61.1 -183.9 -55.7 -184.55 -54.45 Q-183.4 -52.6 -183.4 -48.3 -183.4 -47.05 -184.4 -46.2 -185.35 -45.4 -186.6 -45.4 -189.3 -45.4 -189.8 -47.8 -190.05 -49.0 -189.8 -50.5 -189.8 -53.25 -188.8 -54.8 L-188.5 -55.15 -188.7 -58.45 Q-188.7 -61.5 -192.3 -61.9 -195.9 -62.3 -195.9 -63.9 -195.9 -65.25 -195.35 -65.55 L-191.55 -65.95 -180.6 -67.7 -168.0 -69.9 -157.8 -69.9 Q-148.75 -69.25 -139.7 -66.4 -129.3 -63.2 -129.3 -59.8 -129.3 -58.45 -129.9 -57.95 L-129.9 -45.4 -128.75 -29.75 -128.1 -16.65 Q-128.1 -13.2 -128.9 -5.8 -129.75 2.15 -130.9 4.0 L-130.9 4.2 Q-131.55 7.45 -129.45 9.4 -127.1 11.5 -127.1 12.8 L-130.15 15.1 Q-133.15 17.15 -134.85 20.7 L-135.4 21.85 Q-135.5 22.15 -136.55 23.05 L-137.75 24.25 -139.15 26.65 -141.3 31.2 -141.1 32.15 -140.9 32.9 -140.9 33.1 Q-140.9 34.45 -141.8 35.05 L-142.65 35.35 -155.4 36.7 -168.1 36.7 -170.4 36.7 Q-173.15 35.05 -176.5 30.7 -178.55 27.9 -182.1 25.0 -183.65 23.7 -186.55 22.2 L-191.25 19.75 Q-192.45 19.1 -193.9 18.6 -197.0 17.55 -201.35 17.25 L-211.8 16.7 -212.45 17.45 Q-213.0 17.95 -213.6 17.9 L-216.7 17.9 -219.2 17.9 -224.15 17.55 -228.25 17.15 -235.0 17.1 -235.95 16.8 -236.2 16.65 -236.35 16.8 Q-236.65 17.1 -237.0 17.1 L-237.55 17.05" fill="#ff0000" fill-rule="evenodd" stroke="none"/>
    <path d="M-70.1 17.05 L-77.2 17.0 -82.6 16.65 -87.7 16.3 -105.5 16.3 Q-111.55 19.7 -114.35 14.0 -116.55 9.6 -115.8 4.3 -115.2 0.15 -116.0 -3.35 -117.0 -7.75 -117.0 -9.95 L-116.75 -14.3 -116.2 -20.6 -116.2 -38.0 Q-116.6 -41.3 -116.6 -47.9 -116.6 -59.85 -116.4 -61.8 -115.35 -72.0 -110.8 -73.0 L-98.1 -73.1 -91.2 -74.2 -74.0 -74.2 -67.85 -73.75 -61.8 -73.5 -48.0 -74.8 Q-36.55 -75.9 -29.4 -75.1 L1.5 -75.1 Q12.5 -75.55 15.2 -75.05 L18.9 -74.3 60.3 -74.3 64.8 -75.0 86.4 -75.0 87.7 -74.7 98.3 -74.7 Q99.5 -75.3 101.85 -75.45 L105.2 -75.8 120.4 -75.8 136.9 -74.3 176.3 -74.3 177.6 -74.6 234.0 -74.6 Q239.55 -73.1 239.8 -69.8 239.1 -65.8 239.5 -63.7 241.0 -55.7 241.8 -52.6 L241.8 -30.4 Q243.1 -15.95 243.0 -10.15 242.6 -3.3 242.6 5.45 L242.75 10.1 Q242.65 13.35 241.65 15.55 240.65 17.75 238.65 19.25 234.8 22.05 227.2 22.2 L164.8 22.2 159.5 21.5 145.6 21.4 144.3 21.1 119.2 21.0 117.9 20.7 101.6 20.6 92.8 19.9 88.1 19.7 83.9 19.5 72.8 19.4 69.4 18.7 51.35 18.7 7.6 18.6 6.3 18.3 -34.0 18.2 -37.25 17.75 -40.5 17.1 -48.0 17.1 -70.1 17.05" fill="#ffcc99" fill-rule="evenodd" stroke="none"/>
    <path d="M190.9 32.55 Q199.35 37.15 203.6 45.35 L219.3 46.05 Q227.75 46.1 232.55 44.35 244.95 39.95 239.55 21.4 201.55 22.8 150.0 22.2 L59.5 20.45 Q5.15 19.35 -29.15 19.75 -76.5 20.35 -113.1 23.8 -105.95 26.75 -92.75 28.05 L-70.0 29.9 Q-57.15 31.3 -50.2 34.7 -41.25 39.05 -38.7 47.75 -9.45 49.45 51.05 48.2 117.25 46.8 146.0 47.75 149.15 38.4 157.05 33.2 164.35 28.45 173.7 28.35 182.9 28.2 190.9 32.55 M162.25 37.85 Q152.25 46.4 151.75 56.45 151.6 59.05 152.25 61.25 L153.3 62.85 Q155.4 65.8 159.75 69.65 162.1 70.9 165.2 71.75 179.35 75.75 189.15 68.05 193.15 64.9 195.1 60.55 197.05 56.35 196.4 52.55 193.25 34.15 182.0 31.4 172.45 29.05 162.25 37.85 M150.8 50.15 Q132.4 50.9 85.3 50.0 39.05 49.15 16.45 50.15 L-7.4 51.65 Q-20.4 52.45 -28.1 51.8 -45.35 50.4 -54.5 40.25 -49.2 48.85 -53.1 57.7 -56.25 64.95 -63.65 69.4 L-64.55 70.15 Q-72.15 76.05 -82.1 74.6 -86.8 74.3 -90.85 72.15 -101.45 66.5 -101.1 50.15 L-177.85 50.15 Q-177.55 57.4 -182.55 63.7 -187.2 69.65 -194.75 72.75 -202.45 75.85 -209.9 74.65 -218.1 73.3 -223.45 66.95 -224.7 65.45 -225.7 61.35 -227.0 55.95 -227.55 54.6 -230.6 46.85 -240.2 50.15 -244.6 21.95 -239.7 -1.95 -242.2 -13.0 -238.4 -19.5 -236.35 -23.05 -232.2 -25.35 -229.05 -32.65 -224.7 -40.45 L-211.45 -62.6 Q-188.15 -68.1 -170.85 -69.5 -145.2 -71.5 -129.85 -65.0 -127.35 -40.65 -126.6 -11.25 -125.75 19.5 -127.45 35.8 -121.05 38.0 -109.7 38.85 -98.1 39.75 -93.9 38.15 -95.8 35.0 -104.4 35.5 L-111.55 36.05 -117.9 35.8 Q-122.1 33.3 -113.75 33.25 L-101.1 33.4 Q-102.5 31.1 -107.6 30.3 -114.15 29.3 -115.5 28.6 -118.15 4.9 -118.4 -21.85 -118.65 -51.95 -115.5 -72.15 -49.4 -75.4 60.55 -74.85 208.6 -74.15 239.55 -74.55 239.15 -62.1 240.05 -44.35 L241.75 -13.8 Q243.65 23.55 239.55 45.35 234.5 48.3 221.8 48.0 203.4 47.55 201.2 47.75 L197.75 57.7 Q195.25 63.7 192.05 67.4 183.2 77.45 165.2 74.15 L159.75 69.65 Q153.8 66.55 152.25 61.25 149.0 55.7 150.8 50.15 M237.7 -33.1 Q236.25 -56.2 237.15 -72.15 L-110.7 -72.15 Q-115.65 -70.6 -115.5 -65.0 L-115.5 4.6 239.55 4.6 Q239.5 -4.45 237.7 -33.1 M224.65 20.4 Q236.5 20.25 239.55 11.8 155.5 5.5 60.65 5.85 -40.3 6.25 -115.5 14.2 -63.2 15.15 45.55 17.9 142.45 20.0 205.95 19.0 L214.7 19.7 224.65 20.4 M-141.55 -45.5 Q-141.05 -36.2 -144.25 -33.8 -146.05 -34.8 -152.0 -34.45 L-164.05 -33.45 Q-180.55 -32.15 -184.85 -36.0 L-187.45 -33.8 Q-191.05 -31.45 -203.0 -30.65 -218.4 -29.7 -223.35 -28.6 -228.55 -27.45 -232.2 -25.35 L-235.8 -16.2 Q-238.2 -9.25 -239.7 -1.95 L-237.8 4.6 -144.25 4.6 -144.25 -21.8 Q-150.65 -24.15 -165.65 -25.6 -181.4 -27.1 -187.45 -29.0 -183.6 -28.6 -163.15 -29.3 -147.95 -29.85 -141.85 -26.6 -141.05 -23.7 -141.45 -18.0 L-142.35 -8.1 Q-143.1 3.65 -137.05 4.6 L-132.25 4.6 Q-129.05 -5.15 -129.55 -26.3 -130.3 -54.45 -129.85 -60.2 -139.5 -67.6 -160.85 -67.5 -177.2 -67.4 -191.45 -63.5 L-189.8 -63.1 Q-188.0 -62.2 -187.25 -59.8 -186.55 -57.55 -187.25 -55.55 -187.95 -53.35 -189.85 -53.0 -187.8 -60.4 -195.5 -60.55 -205.45 -59.35 -209.05 -60.2 -209.2 -54.9 -214.05 -48.4 -218.75 -42.05 -218.65 -36.2 L-189.85 -36.2 Q-190.9 -44.2 -188.05 -51.2 -184.2 -58.55 -182.65 -62.6 -180.1 -62.35 -160.8 -62.8 -147.35 -63.15 -141.85 -60.2 -142.25 -58.05 -141.55 -45.5 M-144.25 -60.2 L-182.65 -60.2 Q-181.25 -54.8 -181.95 -49.25 -182.9 -41.4 -182.65 -36.2 L-144.25 -36.2 -144.25 -60.2 M-184.85 -36.0 Q-183.8 -37.45 -183.95 -38.9 -184.2 -41.0 -186.4 -42.1 -188.6 -43.2 -188.8 -41.75 -189.0 -40.1 -185.05 -36.2 L-184.85 -36.0 M-191.45 -63.5 Q-192.9 -63.55 -194.65 -62.6 L-191.45 -63.5 M-185.35 8.5 Q-222.0 7.65 -237.8 11.8 L-237.8 16.6 Q-226.75 15.6 -209.55 16.1 L-179.65 17.2 Q-143.3 18.25 -127.45 11.8 L-185.35 8.5 M-237.45 27.0 L-238.3 36.25 Q-239.0 47.2 -233.0 47.75 -232.65 40.3 -225.55 33.95 -219.25 28.3 -210.55 25.85 -201.85 23.4 -196.55 25.7 -190.65 28.25 -192.25 35.8 -195.65 33.1 -203.65 31.05 -212.15 28.85 -213.85 31.0 -224.25 35.2 -224.65 45.55 -225.05 54.8 -217.9 63.15 -210.55 71.75 -201.3 71.9 -190.6 72.05 -182.65 59.75 -181.95 53.1 -186.35 41.9 -190.5 31.25 -189.85 28.6 -187.55 31.95 -185.25 33.75 L-182.05 35.9 Q-179.4 37.95 -177.85 47.75 -172.8 47.2 -164.25 47.55 L-149.85 48.15 Q-132.95 48.45 -127.45 42.95 L-129.25 30.3 Q-130.0 24.8 -127.45 19.0 -134.5 18.85 -137.4 25.8 -138.05 27.3 -139.5 32.15 -140.7 36.15 -141.85 38.15 L-175.45 38.15 Q-177.2 22.45 -197.6 19.55 L-217.1 18.7 -237.8 19.0 Q-237.0 21.7 -237.45 27.0 M-139.5 23.75 Q-136.0 20.85 -134.65 19.0 -139.1 19.4 -162.55 18.7 -179.95 18.15 -187.45 21.4 -172.25 34.05 -141.85 31.0 -142.2 26.7 -139.5 23.75 M-158.65 33.4 Q-169.45 33.7 -171.2 34.55 -172.75 35.3 -167.2 35.8 -161.5 36.35 -154.75 35.9 -146.6 35.35 -141.85 33.4 L-150.35 33.4 -158.65 33.4 M-61.9 38.8 Q-70.2 31.75 -86.7 33.4 -93.1 37.25 -96.1 43.8 -98.85 49.8 -98.15 56.5 -97.5 63.0 -93.9 67.8 -90.1 72.85 -84.3 74.15 L-82.1 74.6 Q-76.25 74.9 -69.45 72.25 -66.25 71.0 -63.65 69.4 -56.8 63.6 -55.8 54.7 -54.65 44.85 -61.9 38.8 M-116.2 40.4 Q-127.0 39.15 -127.45 47.75 -124.6 47.25 -119.25 47.55 L-110.35 48.1 Q-100.0 48.35 -98.7 42.95 -101.35 43.2 -106.95 42.1 L-116.2 40.4" fill="#373535" fill-rule="evenodd" stroke="none"/>
    <path d="M-65.1 59.75 Q-68.2 63.8 -72.9 65.35 -77.4 66.8 -81.75 65.5 -86.25 64.2 -88.9 60.4 -91.75 56.25 -91.5 50.15 L-86.1 45.95 -81.9 40.55 Q-63.25 39.3 -65.1 59.75" fill="#373535" fill-rule="evenodd" stroke="none"/>
    <path d="M-216.25 42.95 Q-205.55 35.55 -200.35 40.75 -197.7 43.4 -197.05 47.75 -196.8 48.1 -193.3 48.85 -190.0 49.6 -189.85 50.15 -188.25 57.1 -193.4 61.3 -198.15 65.15 -205.0 64.55 -212.2 63.95 -215.65 58.8 -219.65 52.8 -216.25 42.95" fill="#373535" fill-rule="evenodd" stroke="none"/>
    <path d="M182.0 40.55 L185.95 48.65 Q187.7 53.7 186.8 59.75 179.65 63.5 174.3 64.3 166.05 65.55 162.8 59.75 164.0 58.3 163.5 54.4 162.85 49.4 163.05 47.85 164.25 39.95 182.0 40.55" fill="#373535" fill-rule="evenodd" stroke="none"/>
  </g>
</svg>
