<?xml version="1.0" encoding="UTF-8" standalone="no"?>
<svg xmlns:xlink="http://www.w3.org/1999/xlink" height="930.55px" width="898.0px" xmlns="http://www.w3.org/2000/svg">
  <g transform="matrix(1, 0, 0, 1, 449.0, 465.25)">
    <path d="M-0.8 -31.95 Q-0.8 -28.55 -3.1 -25.05 L-0.55 -21.6 6.6 -11.25 7.4 -10.6 Q8.8 -9.0 10.55 -5.75 L11.3 -4.3 17.7 5.25 19.0 7.2 20.65 9.35 Q27.1 17.95 27.6 19.8 34.65 30.0 40.2 37.4 L59.7 60.4 Q70.85 73.0 75.4 76.6 86.9 85.6 96.25 97.7 99.8 102.3 109.4 116.8 118.5 130.6 135.55 158.0 150.95 182.25 163.0 197.8 L178.0 217.6 Q184.7 226.0 196.4 237.2 203.2 243.7 212.4 277.1 212.4 280.6 211.65 282.2 210.25 285.2 206.0 285.2 197.9 285.2 175.75 255.15 157.65 230.6 144.6 207.2 140.0 198.95 131.1 187.85 L114.35 167.85 Q92.5 142.2 87.0 129.2 84.15 122.45 73.65 109.65 62.55 96.25 59.6 90.2 49.25 68.95 34.8 51.2 26.8 41.35 10.2 17.2 L8.05 14.05 4.85 9.35 Q-9.15 -11.3 -14.25 -20.3 -16.3 -21.1 -19.3 -23.9 L-31.4 -41.0 -45.95 -62.2 Q-54.9 -75.35 -60.4 -82.4 L-67.5 -92.45 -67.7 -92.75 -80.2 -113.55 -83.85 -119.8 Q-85.3 -118.8 -86.8 -118.8 L-88.4 -118.9 -93.25 -127.0 -93.2 -127.5 Q-93.2 -131.2 -91.25 -134.8 -94.95 -137.65 -99.1 -145.55 -102.5 -152.1 -107.0 -162.6 -111.05 -170.05 -120.7 -181.5 -129.2 -191.5 -129.2 -192.0 -129.2 -201.0 -121.7 -197.15 -115.15 -193.75 -105.2 -182.1 -95.65 -170.9 -88.7 -158.85 -84.8 -152.1 -82.9 -147.15 -81.35 -146.95 -79.45 -145.95 L-78.4 -146.45 -76.35 -147.3 Q-73.6 -145.0 -67.55 -137.4 L-66.3 -135.8 -66.45 -135.8 -67.5 -135.65 -61.0 -128.0 Q-60.8 -118.85 -38.05 -86.55 L-21.0 -63.1 Q-12.2 -51.15 -10.6 -48.4 L-0.8 -31.95 M163.85 217.8 Q164.85 219.15 165.4 219.4 165.35 218.5 164.15 216.95 L162.6 215.2 162.6 215.4 Q162.8 216.35 163.85 217.8" fill="#cccccc" fill-rule="evenodd" stroke="none"/>
    <path d="M-401.9 217.8 Q-406.05 217.15 -407.6 214.65 -408.65 213.0 -408.4 211.1 -408.4 207.2 -406.35 199.75 -405.05 195.05 -403.45 192.5 L-403.6 193.6 Q-404.55 201.95 -404.4 211.6 L-404.0 215.25 Q-403.35 216.9 -401.9 217.8 M-391.4 202.6 L-391.55 200.3 -391.0 202.55 -391.4 202.6" fill="#666666" fill-rule="evenodd" stroke="none"/>
    <path d="M-403.6 185.7 L-405.6 186.0 Q-413.3 186.0 -414.85 177.6 -415.25 175.2 -415.3 170.8 -415.35 166.65 -415.6 165.6 -416.05 163.8 -419.7 155.5 -422.8 148.65 -422.8 144.6 L-422.65 141.9 Q-428.55 135.0 -433.5 113.8 -435.75 104.0 -442.0 64.2 L-442.0 15.6 Q-443.2 11.05 -443.5 2.45 L-443.6 -11.1 Q-443.6 -20.8 -442.6 -32.95 L-440.6 -54.6 -439.2 -65.35 Q-438.2 -72.15 -438.0 -76.2 -437.95 -77.6 -437.3 -79.3 -438.4 -81.35 -438.8 -84.8 -439.3 -89.0 -438.8 -93.2 -438.8 -107.9 -427.85 -150.85 -421.35 -176.3 -415.6 -195.2 -409.0 -217.25 -398.7 -238.35 -389.6 -257.05 -379.8 -270.8 -372.1 -281.5 -366.6 -285.65 L-366.8 -287.2 Q-366.8 -299.5 -322.35 -338.85 -310.0 -349.75 -288.45 -367.7 -269.6 -383.4 -266.0 -386.8 -238.7 -412.65 -187.25 -432.7 -138.7 -451.6 -77.6 -462.0 L-54.6 -462.2 -52.0 -462.8 -28.2 -463.0 -22.4 -464.4 5.6 -464.4 Q48.3 -459.15 83.9 -452.55 134.0 -443.2 134.0 -436.8 L133.85 -435.35 Q155.3 -433.3 170.4 -427.0 173.85 -425.6 182.85 -421.2 190.4 -417.55 195.8 -415.6 L222.9 -405.55 251.0 -394.8 268.8 -386.95 Q287.4 -378.5 303.45 -370.5 352.4 -346.1 352.4 -338.6 352.4 -336.75 351.0 -334.95 349.3 -332.8 346.4 -332.4 L303.2 -332.4 300.6 -333.0 269.0 -333.0 Q262.8 -329.9 257.1 -330.5 250.2 -331.25 247.2 -330.4 L242.6 -328.8 Q238.9 -327.6 236.0 -327.6 235.0 -327.6 232.6 -328.4 L229.2 -329.2 Q228.1 -329.2 225.9 -328.15 224.45 -325.2 220.8 -325.2 217.4 -325.2 216.4 -326.65 215.85 -327.55 215.3 -329.9 213.35 -334.6 198.8 -334.6 169.5 -334.6 115.85 -318.05 97.15 -312.3 78.8 -305.55 64.05 -300.1 58.4 -297.4 55.1 -295.8 44.4 -289.4 L38.6 -288.0 Q31.3 -286.35 27.35 -283.9 25.0 -282.4 22.5 -279.35 20.05 -276.4 17.95 -275.1 14.4 -272.95 7.6 -271.8 -0.65 -270.4 -19.45 -263.7 -34.1 -258.45 -48.05 -252.5 L-52.0 -251.0 Q-74.55 -242.3 -100.8 -224.7 -123.45 -209.5 -139.4 -194.4 -143.5 -190.5 -157.25 -179.75 -170.0 -169.8 -175.2 -164.4 -183.25 -155.45 -189.2 -149.2 L-194.95 -143.3 Q-194.8 -142.4 -194.8 -141.3 L-194.8 -140.9 -199.35 -136.0 -203.25 -131.6 Q-208.75 -128.05 -220.95 -122.05 -237.6 -113.8 -242.95 -110.85 -255.15 -104.05 -261.4 -98.2 L-266.85 -93.05 Q-272.6 -88.6 -277.35 -83.25 L-285.65 -75.6 Q-300.2 -61.65 -307.4 -52.0 -313.4 -43.9 -321.5 -29.3 L-334.0 -5.8 -339.9 5.95 Q-342.65 12.55 -342.0 17.6 -340.95 26.3 -341.35 29.45 -342.5 38.8 -350.8 38.8 L-353.55 38.35 -356.6 42.65 Q-373.3 66.85 -383.6 92.8 L-393.7 123.35 Q-403.6 154.7 -403.6 161.8 -403.6 162.7 -402.8 165.95 -402.15 168.55 -402.0 170.1 -403.5 178.6 -403.6 185.7" fill="#ffff00" fill-rule="evenodd" stroke="none"/>
    <path d="M44.4 -289.4 Q53.05 -291.75 58.7 -294.65 69.2 -300.0 76.2 -302.4 87.0 -306.15 114.55 -316.05 140.1 -324.4 158.4 -326.0 L180.8 -326.0 197.65 -323.05 Q207.7 -321.4 211.0 -321.4 216.25 -321.4 240.35 -324.8 263.6 -328.15 274.6 -327.8 L344.0 -327.6 Q356.6 -327.25 360.65 -324.2 362.8 -322.55 362.8 -318.8 362.8 -316.85 326.0 -269.45 326.8 -267.9 326.8 -265.5 326.8 -253.65 311.3 -224.0 295.85 -194.45 287.0 -189.0 256.0 -170.05 235.1 -152.1 211.95 -132.2 202.8 -114.8 L192.2 -95.65 Q185.9 -83.85 184.4 -76.4 184.2 -69.9 183.05 -66.5 181.0 -60.45 172.4 -57.4 166.05 -55.2 154.35 -49.65 142.85 -44.15 139.4 -43.0 121.2 -36.9 107.55 -26.5 103.55 -23.45 95.9 -16.85 87.95 -9.9 83.2 -6.2 79.4 -3.2 63.2 13.9 L47.6 30.0 Q40.4 30.0 19.05 -1.1 9.6 -14.95 -0.8 -31.95 L-10.6 -48.4 Q-12.2 -51.15 -21.0 -63.1 L-38.05 -86.55 Q-60.8 -118.85 -61.0 -128.0 L-61.0 -128.2 Q-61.0 -129.05 -66.3 -135.8 L-67.55 -137.4 Q-73.6 -145.0 -76.35 -147.3 L-77.0 -147.8 Q-82.0 -151.5 -84.9 -157.45 -86.55 -160.8 -89.2 -167.6 -92.25 -173.95 -104.85 -190.8 -116.4 -206.2 -116.4 -207.2 -116.4 -209.7 -115.4 -211.4 -113.85 -214.0 -110.4 -214.0 L-109.6 -213.85 Q-103.0 -227.45 -59.2 -247.55 L-48.05 -252.5 Q-34.1 -258.45 -19.45 -263.7 -0.65 -270.4 7.6 -271.8 14.4 -272.95 17.95 -275.1 20.05 -276.4 22.5 -279.35 25.0 -282.4 27.35 -283.9 31.3 -286.35 38.6 -288.0 L44.4 -289.4 M-19.3 -23.9 L0.2 3.95 Q23.6 38.0 23.6 41.5 23.6 44.35 22.55 45.55 21.65 46.65 18.8 47.45 5.05 51.4 -0.8 54.0 -5.25 55.95 -11.15 60.35 -18.4 65.75 -21.6 67.6 -31.5 73.4 -39.6 82.1 -44.85 87.75 -51.2 97.0 -55.35 103.1 -65.3 112.25 -74.6 120.85 -82.6 126.4 -91.2 132.4 -116.45 135.65 L-135.95 137.8 -151.0 139.8 Q-176.1 144.95 -202.85 161.2 -210.15 165.65 -224.1 175.05 -237.2 183.9 -243.8 187.8 L-255.05 194.8 Q-260.55 198.1 -266.3 199.8 -279.9 203.8 -319.6 205.0 -331.95 205.35 -364.8 212.15 L-397.6 218.8 Q-400.3 218.8 -401.9 217.8 -403.35 216.9 -404.0 215.25 L-404.4 211.6 Q-404.55 201.95 -403.6 193.6 L-403.45 192.5 -403.2 190.8 Q-403.6 189.2 -403.6 186.6 L-403.6 185.7 Q-403.5 178.6 -402.0 170.1 -400.05 158.7 -395.6 144.85 -385.65 117.1 -381.8 103.8 -379.3 95.05 -371.75 83.2 -362.5 69.5 -358.0 62.4 -351.5 52.15 -345.5 45.65 L-337.6 38.25 Q-334.5 35.45 -333.55 32.6 -332.4 29.15 -332.4 21.0 -332.4 8.15 -317.65 -21.05 -305.15 -45.9 -295.6 -58.2 -287.0 -71.05 -281.95 -77.75 L-277.35 -83.25 Q-272.6 -88.6 -266.85 -93.05 -263.7 -95.55 -260.2 -97.8 -251.35 -104.05 -246.45 -107.0 -238.1 -112.05 -227.8 -114.8 -226.45 -115.15 -221.6 -118.15 -215.65 -121.9 -213.0 -123.2 -210.65 -124.4 -208.75 -124.9 L-203.25 -131.6 -199.35 -136.0 -194.8 -140.9 Q-184.2 -152.2 -172.4 -163.0 -155.65 -178.35 -145.45 -184.15 -143.1 -185.5 -141.2 -186.25 -141.05 -197.8 -133.5 -191.4 -127.8 -186.5 -123.4 -178.4 L-118.05 -167.55 -113.0 -156.8 -98.55 -135.05 -93.25 -127.0 -88.4 -118.9 Q-86.5 -115.4 -86.1 -113.75 L-83.85 -112.3 Q-78.15 -108.1 -74.4 -102.8 L-67.7 -92.75 -67.5 -92.45 -60.4 -82.4 Q-54.9 -75.35 -45.95 -62.2 L-31.4 -41.0 -19.3 -23.9 M394.65 339.6 Q396.6 336.4 404.8 336.4 425.4 336.4 435.65 356.05 439.0 362.45 440.75 370.25 442.0 375.55 442.0 378.2 442.0 388.05 438.6 399.9 434.05 415.9 424.65 428.6 398.2 464.4 342.0 464.4 326.8 464.4 307.75 446.4 301.15 440.2 295.15 432.8 290.5 427.0 288.8 424.0 L276.85 402.6 Q268.9 389.8 259.6 381.6 250.65 373.7 243.5 359.95 239.65 352.55 234.0 337.8 225.7 316.1 213.25 305.3 210.6 303.0 205.75 299.8 202.8 297.85 202.8 296.8 202.8 295.25 205.65 292.15 208.55 289.0 212.5 286.45 222.8 279.75 228.0 284.4 237.45 298.7 242.6 304.8 248.55 311.85 257.35 323.55 L273.2 345.0 Q277.9 351.4 284.05 364.3 290.95 378.75 294.9 384.95 310.65 409.75 344.2 422.6 L388.4 422.4 398.2 413.45 Q403.9 408.1 405.0 405.0 410.0 390.8 410.0 388.5 410.0 387.8 408.45 385.85 L405.05 381.4 Q399.95 374.15 399.6 366.6 399.35 360.1 396.6 354.8 394.0 349.7 394.0 345.3 394.0 340.65 394.65 339.6 M-391.4 202.6 L-391.0 202.55 -391.55 200.3 -391.4 202.6" fill="#ffcc00" fill-rule="evenodd" stroke="none"/>
    <path d="M175.6 242.25 Q183.05 249.25 187.3 255.5 198.95 272.75 179.55 273.8 183.75 268.75 181.95 264.15 180.8 261.2 175.4 255.9 169.2 249.9 167.1 246.45 163.25 240.25 164.3 233.15 169.15 236.2 175.6 242.25" fill="#373535" fill-rule="evenodd" stroke="none"/>
    <path d="M403.3 329.75 Q435.85 338.6 445.6 364.45 449.9 375.95 448.75 389.2 447.65 402.1 441.5 414.7 428.4 441.8 400.55 455.55 369.3 471.0 332.1 462.0 310.3 456.75 290.05 434.55 275.6 418.7 256.8 387.4 L241.7 361.9 Q232.95 347.2 226.8 338.1 209.85 313.0 194.8 304.35 L196.8 295.95 Q197.75 291.9 197.7 289.6 197.5 283.95 189.7 278.9 191.4 273.55 194.05 273.2 196.05 273.0 199.2 275.9 L204.75 281.35 Q207.95 284.25 210.05 284.0 202.5 269.55 191.2 252.0 L170.85 221.5 Q145.0 183.0 133.75 156.85 146.3 173.35 169.5 202.5 L205.35 248.0 Q246.9 301.95 271.1 345.0 280.9 362.0 296.6 379.7 314.7 400.2 332.65 412.0 353.9 426.0 370.95 424.75 390.85 423.3 403.3 400.95 404.95 390.85 402.1 383.05 400.5 378.65 395.1 371.0 389.95 363.7 388.4 358.7 385.9 350.65 388.05 339.95 389.45 338.45 396.75 335.9 402.55 333.85 403.3 329.75 M398.2 339.95 Q422.55 383.55 408.0 407.5 401.8 417.7 389.0 422.65 377.0 427.3 361.3 426.55 345.85 425.75 330.25 419.9 314.15 413.8 301.3 403.55 271.5 379.75 271.1 345.0 257.0 334.15 245.1 317.6 235.1 303.8 225.3 284.0 221.55 285.3 215.15 289.1 208.75 292.8 204.95 294.15 219.25 306.3 236.85 334.95 241.45 342.4 252.05 360.7 262.05 377.9 267.8 387.15 286.9 417.75 304.2 433.55 326.7 454.1 352.45 456.9 377.5 459.65 401.45 444.45 423.65 430.4 434.5 408.3 445.75 385.45 438.0 367.2 429.2 346.55 398.2 339.95" fill="#373535" fill-rule="evenodd" stroke="none"/>
    <path d="M178.9 -308.8 Q186.25 -313.7 189.7 -321.2 L138.85 -321.2 Q141.6 -311.6 148.75 -306.95 155.15 -302.8 163.65 -303.45 171.75 -304.05 178.9 -308.8 M220.2 -326.3 Q241.85 -334.7 287.7 -335.25 L323.05 -335.25 352.45 -336.45 Q240.75 -402.0 140.4 -432.45 4.9 -473.5 -115.45 -453.45 -147.6 -448.1 -187.5 -429.6 -225.35 -412.05 -262.25 -386.45 -299.2 -360.85 -325.9 -333.55 -354.1 -304.8 -364.65 -280.5 -377.55 -250.75 -380.85 -207.6 -383.75 -169.25 -378.95 -123.9 -374.6 -83.05 -364.8 -43.45 -355.65 -6.3 -344.3 19.55 -327.7 -38.05 -289.25 -77.95 -253.05 -115.55 -196.8 -138.1 -232.05 -191.2 -254.8 -247.15 -282.1 -314.2 -278.2 -356.8 -264.9 -297.25 -245.35 -246.9 -227.75 -201.5 -196.8 -143.2 L-156.15 -183.95 Q-132.7 -206.4 -112.3 -221.45 -59.85 -260.1 1.55 -270.35 5.3 -274.25 2.35 -278.4 0.4 -281.15 -6.8 -286.2 -15.15 -292.05 -18.1 -294.95 -23.7 -300.45 -23.9 -305.95 -16.0 -305.4 -10.05 -300.7 -6.5 -297.9 -1.0 -290.7 4.5 -283.5 8.05 -280.7 13.95 -276.0 21.9 -275.45 51.7 -302.6 104.25 -317.7 143.95 -329.05 209.75 -336.4 L208.75 -337.35 Q175.55 -359.9 154.1 -373.3 122.7 -392.9 94.85 -406.9 26.65 -441.2 -44.25 -453.45 39.25 -444.85 107.8 -409.65 160.25 -382.7 208.75 -337.35 L210.05 -336.45 209.75 -336.4 220.2 -326.3 M97.8 -247.85 Q56.75 -222.2 37.15 -199.15 45.3 -188.2 58.3 -190.85 62.45 -191.7 70.2 -194.65 79.1 -198.1 82.9 -199.15 83.75 -193.85 80.1 -191.8 78.1 -190.7 71.85 -189.85 66.0 -189.1 64.0 -187.5 60.9 -185.0 62.55 -178.8 68.5 -172.0 83.35 -161.45 95.85 -151.05 98.15 -138.1 L77.8 -138.1 Q84.95 -144.35 80.6 -154.0 76.5 -162.95 65.2 -169.95 53.35 -177.25 40.9 -177.6 26.55 -178.0 16.8 -168.65 17.3 -173.85 21.65 -176.45 24.5 -178.2 31.25 -179.6 38.65 -181.2 41.2 -182.35 46.1 -184.6 47.3 -189.0 39.1 -198.55 29.05 -197.45 21.6 -196.6 11.2 -189.2 -0.05 -180.35 -5.1 -177.05 -13.7 -171.45 -18.8 -173.7 L-0.4 -188.35 Q10.7 -196.35 21.9 -199.15 21.9 -206.55 15.95 -213.75 12.3 -218.15 3.45 -225.2 -5.1 -232.05 -7.45 -235.1 -11.45 -240.3 -8.65 -244.9 -4.8 -241.95 2.05 -235.3 8.7 -230.0 16.8 -229.65 27.3 -246.9 45.0 -265.0 52.5 -272.65 77.8 -295.8 43.55 -280.55 13.3 -268.75 -21.45 -255.25 -54.4 -244.9 -57.7 -227.45 -59.2 -212.35 L-60.8 -190.6 Q-61.55 -179.6 -63.0 -171.85 -65.0 -161.4 -69.65 -148.3 L-47.3 -157.7 Q-37.5 -161.85 -23.9 -168.65 -26.05 -163.45 -31.25 -159.5 -34.4 -157.15 -41.7 -153.4 -48.95 -149.65 -52.1 -147.25 -57.35 -143.3 -59.5 -138.1 -48.9 -133.45 -31.15 -133.95 -22.05 -134.15 2.65 -137.1 25.05 -139.75 37.15 -139.5 55.6 -139.1 67.65 -133.05 29.0 -133.45 0.55 -131.45 -33.75 -129.05 -59.5 -122.85 -46.2 -107.3 -30.95 -85.3 -24.5 -76.05 -4.5 -45.6 11.8 -20.8 22.4 -6.4 37.8 14.5 52.4 29.7 71.4 -3.35 105.35 -26.7 135.5 -47.45 179.55 -61.85 189.0 -108.5 225.35 -145.7 238.7 -159.3 259.9 -176.0 L296.5 -204.25 Q282.65 -208.45 268.15 -220.35 252.7 -233.0 255.8 -239.85 261.45 -237.35 267.15 -232.15 L276.75 -222.6 Q288.7 -210.75 301.6 -209.3 307.85 -241.8 325.75 -271.6 337.5 -291.25 362.6 -321.2 302.2 -330.0 257.4 -326.7 196.65 -322.25 169.35 -295.8 175.7 -291.3 189.95 -283.15 206.95 -273.4 213.05 -269.55 239.7 -252.6 240.55 -239.85 237.55 -243.95 231.05 -248.15 L220.2 -255.1 Q210.5 -250.8 188.25 -239.85 165.75 -228.75 153.95 -223.45 112.7 -205.0 88.0 -204.25 108.0 -211.1 151.15 -230.1 190.95 -247.6 215.15 -255.1 208.65 -267.1 193.1 -276.3 187.75 -279.5 178.9 -283.7 L164.3 -290.7 Q151.45 -280.85 131.7 -268.6 L97.8 -247.85 M124.0 -273.45 Q144.05 -288.45 159.2 -295.8 119.85 -328.4 76.3 -290.25 60.75 -276.65 43.0 -252.5 L16.8 -214.4 Q35.15 -215.05 54.8 -224.6 69.85 -231.95 89.85 -247.0 L124.0 -273.45 M330.3 -260.95 Q311.15 -224.3 306.7 -194.05 260.8 -176.4 228.3 -137.7 200.15 -104.25 179.55 -51.65 166.65 -50.6 144.95 -40.55 124.5 -31.1 103.35 -17.05 81.7 -2.7 68.05 10.75 53.1 25.5 52.4 34.8 51.6 45.4 64.05 61.65 70.85 70.5 92.1 92.6 112.25 113.55 120.6 125.15 133.7 143.25 133.75 156.85 20.85 17.15 -64.6 -127.95 -88.5 -101.8 -103.4 -71.05 -118.75 -39.4 -122.7 -6.5 -126.9 28.1 -118.05 60.9 -108.6 95.85 -84.9 126.35 -42.6 69.75 21.9 44.95 0.45 6.75 -21.5 -24.75 -45.75 -59.6 -74.75 -92.35 -61.8 -99.0 -45.75 -74.5 -41.15 -67.55 -33.65 -53.5 -26.5 -40.2 -23.9 -36.4 -11.45 -18.35 8.9 9.3 L44.25 57.3 Q87.65 116.6 108.35 151.75 124.7 166.8 139.5 189.3 150.75 206.35 164.3 233.15 133.45 199.65 95.55 144.2 53.8 80.9 32.05 50.05 -3.95 61.4 -32.7 84.5 -58.5 105.15 -79.85 136.5 -136.55 134.5 -183.3 155.1 -202.4 163.55 -222.55 176.85 -236.7 186.2 -257.85 202.6 -295.7 199.6 -338.7 208.2 L-374.1 216.05 Q-395.5 220.8 -410.4 222.95 -438.7 139.85 -446.3 54.05 -454.15 -34.25 -439.0 -114.7 -423.1 -199.5 -383.1 -267.2 -340.35 -339.6 -273.1 -387.3 -272.45 -395.3 -274.6 -402.25 -276.1 -407.35 -280.1 -414.3 L-287.25 -426.8 Q-291.35 -434.85 -293.45 -443.25 -285.35 -441.75 -277.5 -436.65 -269.7 -431.55 -265.05 -424.85 -260.05 -417.65 -260.45 -410.8 -260.85 -403.15 -268.0 -397.5 -202.95 -445.2 -109.3 -459.45 -24.35 -472.4 72.3 -456.45 162.95 -441.55 243.95 -404.9 324.35 -368.6 372.8 -321.2 349.25 -297.15 330.3 -260.95 M-59.5 -239.85 Q-78.1 -234.45 -91.6 -226.15 -106.3 -217.1 -115.45 -204.25 -109.2 -199.7 -103.75 -191.75 -100.35 -186.8 -94.85 -176.5 -89.2 -165.75 -86.1 -161.1 -80.75 -153.0 -74.75 -148.3 -71.3 -161.15 -69.85 -174.05 -69.15 -179.85 -68.25 -195.2 -67.55 -207.7 -66.15 -215.8 -64.1 -227.6 -59.5 -239.85 M-303.6 19.55 Q-252.7 -21.7 -186.65 -61.85 -184.3 -66.65 -185.6 -72.1 -186.3 -75.1 -189.2 -80.8 -191.6 -85.6 -191.5 -87.65 -191.35 -90.75 -186.65 -92.35 -186.15 -90.25 -184.9 -87.75 L-182.7 -83.6 Q-180.25 -78.35 -181.55 -72.0 -161.65 -77.6 -142.4 -91.35 -135.15 -96.55 -110.35 -117.8 -127.4 -115.4 -150.4 -108.05 -176.9 -98.9 -190.05 -94.5 -213.4 -86.6 -229.3 -83.65 -250.45 -79.75 -268.0 -82.2 -249.6 -83.3 -229.9 -89.85 -218.5 -93.7 -196.8 -102.5 -200.3 -102.95 -202.15 -106.05 -203.25 -107.95 -204.45 -112.65 -205.65 -117.4 -206.75 -119.3 -208.55 -122.4 -212.05 -122.85 -263.15 -95.4 -293.5 -58.2 -328.95 -14.7 -334.1 39.9 -321.8 34.45 -318.75 24.45 -318.1 22.45 -316.75 15.0 -315.55 8.6 -313.8 4.3 -311.65 9.4 -309.55 12.75 -306.9 16.95 -303.6 19.55 M-283.25 90.75 Q-272.3 75.0 -256.05 56.95 -248.65 48.65 -226.45 25.5 -207.75 6.0 -197.3 -6.35 -181.85 -24.55 -171.4 -41.5 -174.55 -42.15 -176.4 -45.35 L-179.1 -51.55 Q-180.75 -55.25 -183.05 -56.55 -186.15 -58.25 -191.7 -56.75 -201.65 -44.45 -218.35 -32.55 -225.8 -27.3 -249.45 -12.75 -269.1 -0.65 -279.6 7.95 -295.0 20.55 -303.6 34.8 -299.7 40.8 -297.95 48.8 -297.45 51.1 -295.85 63.0 -294.65 71.6 -292.55 77.05 -289.5 84.65 -283.25 90.75 M-349.4 29.7 Q-379.25 -29.8 -385.2 -109.0 -389.9 -171.2 -379.9 -255.1 -433.95 -151.4 -437.85 -31.55 -441.35 75.1 -405.3 182.3 -404.65 138.15 -386.25 97.1 -379.7 82.5 -368.45 62.8 -355.6 40.9 -349.4 29.7 M-393.25 156.25 Q-397.35 180.85 -400.25 217.9 -379.85 205.05 -333.75 200.45 L-295.05 197.2 Q-272.15 195.25 -257.85 192.45 -275.9 154.55 -289.35 113.95 -304.25 69.1 -308.7 34.8 -357.35 48.3 -378.85 101.95 -387.9 124.45 -393.25 156.25 M-268.95 145.1 Q-260.85 168.25 -257.85 187.35 -245.2 181.45 -221.55 167.7 -198.1 154.05 -185.25 148.05 -164.05 138.2 -143.25 134.1 -118.35 129.15 -90.0 131.4 -97.8 116.1 -108.9 92.3 L-127.3 52.9 Q-149.95 5.6 -171.4 -26.25 -182.65 -11.4 -199.45 6.75 L-229.2 38.0 Q-266.25 77.0 -283.25 106.0 -278.7 119.25 -268.95 145.1 M-70.35 -133.75 Q-66.5 -135.8 -64.6 -138.1 -67.15 -142.4 -73.25 -141.6 -78.8 -140.9 -83.95 -136.65 -89.25 -132.25 -90.0 -127.35 -90.9 -121.65 -84.9 -117.8 -84.9 -125.75 -77.05 -130.25 L-70.35 -133.75 M-96.95 -109.0 Q-97.85 -108.7 -99.95 -109.55 -102.2 -110.55 -103.05 -110.45 -104.65 -110.25 -105.25 -107.6 -105.4 -99.05 -112.9 -89.0 -118.3 -81.8 -130.5 -70.5 L-150.7 -51.5 Q-161.6 -40.35 -166.3 -31.3 -153.1 -17.85 -148.7 -10.4 -140.85 2.95 -145.95 14.45 -127.35 -8.65 -113.15 -50.95 -108.65 -64.35 -103.05 -84.6 L-95.95 -109.85 -96.95 -109.0 M-91.0 -155.1 Q-94.25 -165.3 -101.2 -175.4 -108.3 -185.85 -115.95 -191.05 -124.45 -196.9 -130.7 -194.05 -121.5 -186.15 -109.85 -166.6 -97.35 -145.55 -90.0 -138.1 -87.55 -144.2 -91.0 -155.1 M-120.4 -150.6 Q-114.65 -149.25 -110.35 -153.4 -119.6 -165.6 -122.15 -169.6 -128.25 -179.25 -130.7 -189.0 -140.2 -188.75 -146.55 -181.95 -150.2 -178.0 -156.1 -168.65 -150.6 -168.6 -143.5 -164.5 L-131.55 -156.4 Q-124.6 -151.6 -120.4 -150.6 M-153.6 -157.5 Q-168.1 -156.5 -180.65 -147.7 -193.65 -138.55 -201.9 -122.85 -198.4 -122.4 -196.6 -119.3 -195.45 -117.4 -194.25 -112.65 -193.05 -107.95 -191.95 -106.05 -190.15 -102.95 -186.65 -102.5 -171.55 -109.05 -144.25 -116.1 -108.0 -125.5 -100.2 -127.95 -110.8 -143.6 -125.2 -151.3 -138.85 -158.55 -153.6 -157.5 M-176.45 -61.85 Q-172.5 -61.3 -171.55 -56.6 -170.95 -53.75 -171.4 -46.6 -154.8 -53.9 -141.65 -67.7 -130.45 -79.5 -120.5 -97.45 -135.15 -90.7 -149.9 -81.05 -162.25 -73.05 -176.45 -61.85" fill="#373535" fill-rule="evenodd" stroke="none"/>
    <path d="M-181.55 -407.65 Q-142.85 -397.3 -99.9 -368.75 -61.35 -343.1 -23.9 -305.95 -40.4 -313.15 -45.85 -317.05 -56.75 -324.7 -59.5 -336.45 -74.0 -342.05 -100.8 -357.6 -131.7 -375.6 -145.95 -382.25 -176.0 -395.55 -190.65 -403.1 -218.6 -417.55 -181.55 -407.65" fill="#373535" fill-rule="evenodd" stroke="none"/>
    <path d="M139.5 -103.15 Q164.55 -75.9 174.45 -66.9 159.5 -71.35 137.15 -94.45 116.45 -115.85 103.25 -138.1 118.05 -126.55 139.5 -103.15" fill="#373535" fill-rule="evenodd" stroke="none"/>
    <path d="M-49.3 -138.1 Q-49.15 -144.95 -26.85 -155.1 -8.3 -163.45 11.7 -168.65 3.1 -159.8 -17.3 -151.85 L-33.85 -145.55 Q-43.25 -141.75 -49.3 -138.1" fill="#373535" fill-rule="evenodd" stroke="none"/>
    <path d="M-44.25 -158.45 Q-45.05 -170.85 -26.85 -190.65 -12.05 -206.75 6.6 -219.5 -0.05 -206.6 -18.35 -188.55 L-32.25 -174.4 Q-39.7 -166.2 -44.25 -158.45" fill="#373535" fill-rule="evenodd" stroke="none"/>
  </g>
</svg>
