<?xml version="1.0" encoding="UTF-8" standalone="no"?>
<svg xmlns:xlink="http://www.w3.org/1999/xlink" height="695.5px" width="1120.45px" xmlns="http://www.w3.org/2000/svg">
  <g transform="matrix(1, 0, 0, 1, 560.2, 347.75)">
    <path d="M295.2 -11.7 Q298.8 -16.05 304.0 -20.6 317.7 -32.5 344.45 -47.3 359.2 -55.5 393.7 -72.6 424.5 -87.9 436.8 -95.2 L439.6 -96.4 Q423.25 -114.0 407.5 -124.9 389.5 -137.3 365.5 -145.9 340.4 -154.9 303.0 -161.9 266.25 -168.75 209.6 -175.2 199.2 -176.4 152.7 -192.35 106.45 -208.25 92.8 -215.2 66.1 -228.9 56.7 -243.8 50.4 -253.8 50.4 -269.0 50.4 -306.9 115.3 -327.7 135.55 -334.25 160.5 -338.45 L182.4 -341.6 264.0 -341.6 Q296.35 -341.15 328.0 -336.7 372.2 -330.5 384.0 -319.2 395.3 -308.45 403.9 -307.35 409.4 -306.7 416.55 -310.6 424.05 -314.75 427.65 -314.65 434.35 -314.5 442.8 -305.2 447.5 -300.0 458.25 -297.9 L465.85 -296.75 470.8 -295.6 Q503.8 -278.9 523.45 -258.05 543.2 -237.1 543.2 -218.6 543.2 -186.35 525.9 -154.3 507.6 -120.4 472.0 -90.8 L466.8 -86.65 428.4 -67.6 Q416.65 -61.8 396.2 -50.05 379.85 -40.6 365.1 -31.35 L360.75 -28.6 349.95 -21.65 Q312.75 2.85 298.8 18.35 L298.55 18.3 Q295.65 15.65 291.1 15.25 289.8 14.05 288.85 12.4 287.8 10.55 287.4 8.3 L287.2 6.4 287.3 4.7 Q289.75 3.05 291.6 0.35 295.2 -4.9 295.2 -11.0 L295.2 -11.7 M-491.75 64.5 Q-512.7 54.8 -526.0 43.0 -544.4 26.65 -550.55 4.4 -554.4 -9.65 -554.4 -35.2 L-554.85 -39.9 Q-555.15 -44.1 -554.4 -47.2 -553.85 -49.55 -552.7 -51.3 -551.1 -77.05 -520.8 -104.2 -491.45 -130.6 -438.0 -156.0 -416.7 -166.15 -388.85 -182.1 L-343.6 -207.6 Q-330.8 -214.4 -315.55 -224.15 L-304.3 -231.55 -300.8 -231.2 -300.65 -231.25 -299.2 -231.2 Q-293.75 -231.2 -285.1 -237.65 L-279.75 -241.6 -262.05 -250.3 -249.55 -254.7 Q-244.75 -253.95 -242.0 -251.8 -239.85 -250.1 -237.95 -249.45 -234.8 -248.4 -228.8 -248.4 -225.45 -248.4 -221.4 -250.4 L-220.8 -250.4 Q-209.1 -256.9 -195.35 -264.1 L-188.25 -267.75 Q-181.8 -265.35 -180.65 -259.2 -180.05 -256.05 -180.75 -251.4 L-182.0 -244.4 Q-181.6 -229.65 -175.1 -213.05 -171.85 -204.7 -170.75 -200.65 -168.8 -193.4 -168.8 -185.6 -168.8 -181.1 -171.25 -177.2 L-171.55 -176.7 Q-170.0 -174.45 -168.4 -171.6 -163.4 -155.45 -162.75 -152.7 -162.4 -151.05 -162.4 -139.8 -162.4 -133.1 -165.95 -126.6 -165.6 -125.0 -165.6 -123.2 -165.6 -119.55 -168.0 -116.05 -171.35 -111.2 -177.6 -111.2 L-179.5 -111.3 Q-192.6 -100.65 -216.7 -89.55 -236.35 -80.55 -269.4 -68.65 -288.1 -61.95 -325.6 -48.8 -379.35 -29.3 -411.2 1.35 -425.85 15.45 -433.35 30.0 -440.85 44.45 -440.4 57.6 -424.25 58.55 -386.3 66.3 -346.35 74.45 -334.0 75.6 L-268.0 75.2 Q-266.9 73.55 -265.8 72.55 -263.85 70.85 -259.8 69.7 -248.4 66.4 -216.8 66.4 -184.3 66.4 -174.05 72.0 -170.3 74.0 -169.25 76.95 -168.8 78.25 -168.8 81.6 -168.8 83.55 -169.1 85.05 L-173.2 86.2 Q-177.2 87.5 -186.25 91.0 -206.45 98.0 -238.0 98.0 L-244.3 97.2 Q-250.2 96.45 -260.8 96.8 -263.05 96.8 -267.35 98.4 -271.5 99.95 -273.45 100.0 L-276.25 100.0 -309.55 97.6 -334.4 95.2 Q-336.4 95.2 -340.2 97.0 -344.0 98.8 -346.0 98.8 L-348.2 98.8 Q-379.2 95.05 -405.35 90.05 -416.6 87.35 -429.05 83.75 -455.55 76.1 -479.6 67.6 L-491.75 64.5" fill="#663300" fill-rule="evenodd" stroke="none"/>
    <path d="M466.8 -86.65 L469.35 -88.0 Q491.25 -100.15 508.0 -115.2 511.75 -118.5 521.15 -129.95 L529.7 -140.05 Q527.9 -156.15 536.8 -161.6 552.2 -170.95 556.35 -149.2 557.7 -142.2 557.8 -132.05 L557.6 -120.8 Q557.6 -97.1 555.9 -86.2 553.1 -68.35 551.2 -38.0 550.2 -21.85 537.6 2.0 521.7 29.3 514.8 43.6 503.45 67.0 472.85 96.0 L466.55 101.85 Q463.9 106.2 456.3 114.2 444.85 126.2 428.8 139.65 411.45 154.2 397.15 163.25 380.65 173.6 372.8 173.6 L368.45 173.3 348.75 184.25 Q326.25 196.1 315.35 198.55 L315.0 199.2 314.7 199.75 Q312.6 202.8 308.8 202.8 304.45 202.8 301.2 194.4 298.8 188.15 298.8 185.4 298.8 182.6 299.35 180.95 298.05 177.85 297.2 174.4 L290.25 148.75 286.65 134.95 Q285.55 123.55 284.0 118.8 L283.25 116.35 Q282.1 104.4 280.1 74.0 277.95 41.95 277.4 26.55 L277.6 25.25 Q279.5 15.2 289.6 15.2 L291.1 15.25 Q295.65 15.65 298.55 18.3 L298.7 18.45 298.8 18.35 Q312.75 2.85 349.95 -21.65 L360.75 -28.6 365.1 -31.35 Q379.85 -40.6 396.2 -50.05 416.65 -61.8 428.4 -67.6 L466.8 -86.65 M-169.1 85.05 Q-164.5 84.0 -160.0 84.0 L-159.85 84.0 -159.6 83.65 Q-156.25 79.2 -150.4 79.2 -141.9 79.2 -131.55 114.45 -121.95 147.15 -120.8 171.6 L-115.85 213.4 Q-111.2 252.1 -111.2 264.0 -111.2 268.7 -113.65 271.2 -118.35 276.0 -132.0 276.0 L-140.2 275.55 -146.0 274.8 -240.0 274.4 -245.2 273.2 -326.4 272.8 Q-337.0 269.9 -387.75 258.95 -436.25 247.9 -448.8 241.6 -473.1 229.35 -480.8 214.15 -481.9 212.05 -486.05 201.2 -489.15 193.15 -493.2 187.6 -503.3 173.95 -519.15 128.8 -525.0 112.2 -529.45 97.45 -533.6 83.65 -533.6 81.4 -533.6 77.45 -531.05 74.25 L-529.4 72.6 -531.85 71.1 Q-556.0 56.25 -556.0 44.4 -556.0 40.7 -553.9 37.0 -551.7 33.1 -548.3 31.65 -539.45 27.9 -530.4 43.2 -522.6 52.7 -509.85 58.35 -503.2 61.3 -491.75 64.5 L-479.6 67.6 Q-455.55 76.1 -429.05 83.75 -416.6 87.35 -405.35 90.05 -371.1 98.4 -348.2 98.8 L-346.0 98.8 Q-344.0 98.8 -340.2 97.0 -336.4 95.2 -334.4 95.2 L-309.55 97.6 -276.25 100.0 -273.45 100.0 Q-271.5 99.95 -267.35 98.4 -263.05 96.8 -260.8 96.8 -250.2 96.45 -244.3 97.2 L-238.0 98.0 Q-206.45 98.0 -186.25 91.0 -177.2 87.5 -173.2 86.2 L-169.1 85.05" fill="#993300" fill-rule="evenodd" stroke="none"/>
    <path d="M-304.3 -231.55 Q-310.1 -232.8 -312.05 -238.45 -313.3 -242.15 -312.8 -246.2 -312.8 -254.55 -296.55 -264.35 -281.65 -273.4 -260.8 -279.4 L-249.65 -282.2 Q-311.2 -262.2 -311.2 -246.2 -311.7 -242.15 -310.45 -238.45 -308.15 -231.8 -300.65 -231.25 L-300.8 -231.2 -304.3 -231.55 M-262.05 -250.3 L-279.75 -241.6 Q-274.0 -245.75 -272.4 -246.4 L-262.05 -250.3" fill="#ff9900" fill-rule="evenodd" stroke="none"/>
    <path d="M314.7 199.75 L317.4 201.8 Q325.05 207.45 327.6 210.7 332.0 216.2 332.0 223.8 332.0 241.65 295.45 266.25 283.2 274.5 262.3 286.45 232.8 303.35 230.4 304.8 215.4 313.85 193.65 320.2 176.15 325.35 150.0 329.9 L102.15 337.4 Q72.35 342.05 52.8 346.4 L-1.6 346.4 Q-18.3 341.4 -48.95 335.25 -84.85 328.05 -95.4 325.4 -119.2 319.4 -130.75 312.25 -144.8 303.55 -144.8 291.2 -144.8 282.4 -127.2 277.5 -118.4 275.3 -115.1 274.15 -109.6 272.25 -109.6 269.8 -109.6 230.7 -116.05 174.05 L-121.85 125.95 Q-125.3 96.7 -127.2 76.0 -135.75 73.9 -140.05 74.65 L-152.0 76.0 Q-163.5 76.0 -167.2 70.0 -168.8 67.45 -168.8 62.8 -168.8 47.5 -165.1 38.7 -161.1 29.15 -150.55 21.4 -140.85 14.25 -120.05 4.7 -109.65 -0.05 -68.4 -17.6 -63.05 -19.85 -54.4 -22.1 -67.85 -17.35 -80.25 -11.9 -100.4 -3.05 -100.4 0.0 -100.45 1.5 -99.6 3.0 -97.9 6.0 -93.2 6.0 -64.9 -4.4 -53.2 -10.2 -49.8 -11.9 -24.9 -18.05 -0.15 -24.2 3.2 -24.2 5.85 -24.2 13.0 -22.7 20.1 -21.2 21.2 -21.2 25.35 -21.2 27.2 -23.6 28.4 -25.15 28.4 -27.2 28.4 -37.85 8.3 -37.05 L-0.65 -36.25 1.6 -37.35 Q11.95 -42.8 15.6 -50.8 17.8 -55.55 21.3 -59.6 L21.2 -58.4 Q21.2 -56.25 22.25 -54.75 23.75 -52.6 27.2 -52.4 L52.0 -52.4 60.8 -53.6 73.2 -54.6 Q78.05 -54.6 79.7 -51.4 80.7 -49.35 80.75 -44.3 80.85 -39.05 81.55 -37.2 82.9 -34.0 87.2 -34.0 90.15 -34.0 91.8 -36.2 93.2 -38.1 93.2 -40.7 93.2 -46.95 93.0 -48.65 92.25 -55.6 89.2 -60.2 79.85 -74.2 51.0 -64.6 L27.2 -64.4 25.8 -64.05 Q29.75 -67.45 34.85 -70.25 47.05 -76.9 62.05 -78.4 76.4 -79.85 86.3 -76.05 96.8 -72.05 96.8 -64.0 96.8 -61.55 95.65 -58.45 L93.6 -53.2 93.6 -46.0 96.45 -46.0 Q95.35 -45.15 94.75 -44.15 93.6 -42.3 93.6 -38.4 93.45 -37.65 93.55 -36.5 93.75 -34.5 95.0 -32.75 87.6 -32.4 84.45 -30.1 80.8 -27.45 80.8 -20.8 80.8 -14.1 84.35 -12.15 87.2 -10.55 97.1 -10.25 L122.3 -9.05 Q141.8 -7.3 163.2 -2.4 L234.8 -2.0 Q244.8 0.65 247.45 9.55 249.05 15.0 248.2 27.2 247.3 39.15 248.7 43.35 250.95 49.9 259.45 50.4 L260.85 60.6 Q263.6 79.65 265.0 83.0 268.85 92.1 269.35 107.8 269.9 127.5 270.8 132.2 271.4 135.2 276.95 156.85 280.9 172.25 281.2 181.4 281.4 186.3 283.25 194.1 L286.0 206.0 Q287.2 212.65 291.15 215.9 293.7 218.0 298.95 219.35 304.45 220.8 306.1 221.95 309.2 224.15 309.2 229.2 309.2 231.15 306.7 233.3 L301.2 237.2 Q293.2 242.5 293.2 246.9 293.2 248.6 294.05 250.2 295.55 253.2 299.2 253.2 303.7 253.2 312.2 244.8 321.2 235.85 321.2 229.2 321.2 219.2 317.1 215.05 315.3 213.2 308.0 210.25 301.55 207.65 298.45 202.95 293.9 195.95 293.2 181.2 292.75 171.0 289.65 156.55 288.0 148.95 283.6 132.0 281.85 125.45 281.5 107.75 281.15 91.8 277.6 82.8 274.85 75.85 272.4 59.5 271.2 51.7 270.65 45.3 272.8 41.85 272.8 37.8 L272.05 23.95 Q273.75 19.5 276.8 14.0 L280.8 7.05 284.45 6.2 280.0 12.65 Q277.2 16.75 277.2 17.8 L277.4 26.55 Q277.95 41.95 280.1 74.0 282.1 104.4 283.25 116.35 L284.0 122.8 Q284.85 127.65 286.65 134.95 L290.25 148.75 297.2 174.4 Q298.05 177.85 299.35 180.95 298.8 182.6 298.8 185.4 298.8 188.15 301.2 194.4 304.45 202.8 308.8 202.8 312.6 202.8 314.7 199.75 M202.0 -53.6 L202.4 -53.6 Q266.05 -53.6 285.25 -42.85 292.45 -38.85 294.35 -32.75 295.2 -30.1 295.2 -22.4 295.2 -19.55 294.65 -16.5 293.65 -21.1 290.95 -25.1 288.75 -28.35 285.95 -30.45 280.6 -41.2 253.2 -47.3 233.15 -51.8 202.0 -53.6 M139.55 -29.45 L161.6 -30.8 Q203.65 -30.8 215.55 -30.05 233.85 -28.9 244.4 -25.85 L238.4 -26.4 165.2 -26.8 139.55 -29.45 M250.35 191.15 Q255.2 171.5 255.2 157.6 255.2 132.2 251.55 113.9 246.5 88.85 233.6 68.8 201.15 18.15 113.6 -8.8 62.3 -13.2 22.15 5.15 -11.5 20.5 -35.6 50.8 -54.9 75.05 -65.7 105.45 -74.4 129.8 -74.4 146.4 -74.4 160.05 -70.65 179.4 -64.65 210.8 -51.2 236.4 -33.1 270.9 -3.5 290.4 32.85 314.4 84.8 314.4 138.4 314.4 176.75 292.9 208.15 275.3 228.05 244.05 243.1 220.35 250.35 191.15 M-249.65 -282.2 L-240.45 -285.15 Q-219.35 -291.65 -189.55 -299.2 L-161.6 -306.4 -137.9 -306.4 Q-145.35 -305.1 -155.2 -302.8 L-181.2 -297.35 -216.6 -289.8 Q-261.2 -279.4 -261.2 -272.8 -261.15 -271.35 -260.4 -269.85 -258.9 -266.8 -255.2 -266.8 -253.1 -266.8 -237.75 -271.2 -214.4 -277.9 -202.95 -280.9 -149.05 -295.0 -117.6 -295.0 -117.25 -295.0 -109.35 -271.5 -101.35 -247.6 -101.2 -244.6 -100.65 -234.25 -97.85 -218.5 L-93.2 -192.4 -93.2 -152.2 Q-94.3 -148.9 -93.7 -145.2 -92.75 -139.6 -87.2 -139.6 -82.2 -139.6 -81.2 -154.05 -80.7 -161.35 -81.2 -169.9 -81.2 -194.45 -84.85 -218.95 -87.25 -235.0 -94.8 -271.0 -95.6 -274.7 -99.75 -283.85 -103.85 -292.9 -104.6 -296.8 -105.0 -298.55 -105.75 -300.0 -93.35 -285.05 -85.35 -235.95 -81.55 -212.35 -79.35 -184.4 -77.6 -162.2 -77.6 -148.6 -77.6 -143.5 -81.3 -135.95 -85.8 -126.8 -93.6 -119.2 -115.1 -98.4 -151.2 -98.4 -160.55 -98.4 -164.0 -104.4 -165.75 -107.4 -165.6 -110.4 -165.6 -117.05 -155.6 -121.75 -149.9 -124.45 -133.6 -128.9 -117.85 -133.25 -111.6 -136.4 L-109.5 -137.55 Q-114.0 -144.65 -116.35 -157.45 -118.15 -166.95 -118.95 -181.2 L-120.0 -200.4 Q-129.8 -197.8 -152.0 -196.0 -164.8 -196.0 -168.85 -202.0 -170.9 -205.05 -170.4 -208.6 -170.4 -218.25 -163.5 -221.15 -160.95 -222.25 -156.5 -222.8 L-148.4 -223.6 Q-138.1 -224.85 -133.25 -229.7 -126.4 -236.65 -126.4 -253.2 L-131.6 -267.35 Q-135.75 -278.65 -136.55 -282.0 L-156.4 -282.0 Q-166.25 -279.0 -188.25 -267.75 L-195.35 -264.1 Q-209.1 -256.9 -220.8 -250.4 L-221.4 -250.4 Q-224.4 -250.8 -228.4 -254.6 L-232.4 -258.8 Q-237.1 -258.8 -249.55 -254.7 L-262.05 -250.3 -272.4 -246.4 Q-274.0 -245.75 -279.75 -241.6 L-285.1 -237.65 Q-293.75 -231.2 -299.2 -231.2 L-300.65 -231.25 Q-308.15 -231.8 -310.45 -238.45 -311.7 -242.15 -311.2 -246.2 -311.2 -262.2 -249.65 -282.2 M-129.75 -209.5 Q-127.0 -206.0 -123.6 -206.0 -120.1 -206.0 -118.35 -208.4 -117.2 -210.05 -117.2 -212.0 -117.2 -212.8 -118.85 -215.3 -120.75 -218.25 -123.25 -220.65 -130.5 -227.55 -137.2 -225.0 -148.45 -220.75 -161.4 -219.4 -165.15 -219.0 -166.2 -218.3 -167.6 -217.35 -167.6 -214.4 -167.9 -212.9 -166.8 -211.4 -164.6 -208.4 -157.6 -208.4 -153.6 -208.4 -144.3 -210.7 -135.0 -213.0 -133.4 -213.0 -132.5 -213.0 -129.75 -209.5" fill="#ffcc00" fill-rule="evenodd" stroke="none"/>
    <path d="M250.35 191.15 Q243.1 220.35 228.05 244.05 208.15 275.3 176.75 292.9 138.4 314.4 84.8 314.4 32.85 314.4 -3.5 290.4 -33.1 270.9 -51.2 236.4 -64.65 210.8 -70.65 179.4 -74.4 160.05 -74.4 146.4 -74.4 129.8 -65.7 105.45 -54.9 75.05 -35.6 50.8 -11.5 20.5 22.15 5.15 62.3 -13.2 113.6 -8.8 201.15 18.15 233.6 68.8 246.5 88.85 251.55 113.9 255.2 132.2 255.2 157.6 255.2 171.5 250.35 191.15" fill="#ffffcc" fill-rule="evenodd" stroke="none"/>
    <path d="M-54.4 -22.1 Q-45.45 -25.25 -36.0 -28.1 -15.25 -34.3 -0.65 -36.25 L8.3 -37.05 Q28.4 -37.85 28.4 -27.2 28.4 -25.15 27.2 -23.6 25.35 -21.2 21.2 -21.2 20.1 -21.2 13.0 -22.7 5.85 -24.2 3.2 -24.2 -0.15 -24.2 -24.9 -18.05 -49.8 -11.9 -53.2 -10.2 -64.9 -4.4 -93.2 6.0 -97.9 6.0 -99.6 3.0 -100.45 1.5 -100.4 0.0 -100.4 -3.05 -80.25 -11.9 -67.85 -17.35 -54.4 -22.1 M21.3 -59.6 Q21.45 -60.65 21.9 -61.45 23.05 -63.25 25.8 -64.05 L27.2 -64.4 51.0 -64.6 Q79.85 -74.2 89.2 -60.2 92.25 -55.6 93.0 -48.65 93.2 -46.95 93.2 -40.7 93.2 -38.1 91.8 -36.2 90.15 -34.0 87.2 -34.0 82.9 -34.0 81.55 -37.2 80.85 -39.05 80.75 -44.3 80.7 -49.35 79.7 -51.4 78.05 -54.6 73.2 -54.6 L60.8 -53.6 52.0 -52.4 27.2 -52.4 Q23.75 -52.6 22.25 -54.75 21.2 -56.25 21.2 -58.4 L21.3 -59.6 M96.45 -46.0 Q98.05 -47.25 100.75 -48.25 109.25 -51.35 142.4 -54.8 176.05 -55.1 202.0 -53.6 233.15 -51.8 253.2 -47.3 280.6 -41.2 285.95 -30.45 288.75 -28.35 290.95 -25.1 293.65 -21.1 294.65 -16.5 295.15 -14.2 295.2 -11.7 L295.2 -11.0 Q295.2 -4.9 291.6 0.35 289.75 3.05 287.3 4.7 285.95 5.6 284.45 6.2 L280.8 7.05 276.8 14.0 Q273.75 19.5 272.05 23.95 L272.8 37.8 Q272.8 41.85 270.65 45.3 271.2 51.7 272.4 59.5 274.85 75.85 277.6 82.8 281.15 91.8 281.5 107.75 281.85 125.45 283.6 132.0 288.0 148.95 289.65 156.55 292.75 171.0 293.2 181.2 293.9 195.95 298.45 202.95 301.55 207.65 308.0 210.25 315.3 213.2 317.1 215.05 321.2 219.2 321.2 229.2 321.2 235.85 312.2 244.8 303.7 253.2 299.2 253.2 295.55 253.2 294.05 250.2 293.2 248.6 293.2 246.9 293.2 242.5 301.2 237.2 L306.7 233.3 Q309.2 231.15 309.2 229.2 309.2 224.15 306.1 221.95 304.45 220.8 298.95 219.35 293.7 218.0 291.15 215.9 287.2 212.65 286.0 206.0 L283.25 194.1 Q281.4 186.3 281.2 181.4 280.9 172.25 276.95 156.85 271.4 135.2 270.8 132.2 269.9 127.5 269.35 107.8 268.85 92.1 265.0 83.0 263.6 79.65 260.85 60.6 L259.45 50.4 Q250.95 49.9 248.7 43.35 247.3 39.15 248.2 27.2 249.05 15.0 247.45 9.55 244.8 0.65 234.8 -2.0 L163.2 -2.4 Q141.8 -7.3 122.3 -9.05 L97.1 -10.25 Q87.2 -10.55 84.35 -12.15 80.8 -14.1 80.8 -20.8 80.8 -27.45 84.45 -30.1 87.6 -32.4 95.0 -32.75 93.75 -34.5 93.55 -36.5 93.45 -37.65 93.6 -38.4 93.6 -42.3 94.75 -44.15 95.35 -45.15 96.45 -46.0 M139.55 -29.45 L165.2 -26.8 238.4 -26.4 244.4 -25.85 Q233.85 -28.9 215.55 -30.05 203.65 -30.8 161.6 -30.8 L139.55 -29.45 M-137.9 -306.4 Q-128.55 -308.0 -123.05 -307.95 -109.7 -307.8 -105.75 -300.0 -105.0 -298.55 -104.6 -296.8 -103.85 -292.9 -99.75 -283.85 -95.6 -274.7 -94.8 -271.0 -87.25 -235.0 -84.85 -218.95 -81.2 -194.45 -81.2 -169.9 -80.7 -161.35 -81.2 -154.05 -82.2 -139.6 -87.2 -139.6 -92.75 -139.6 -93.7 -145.2 -94.3 -148.9 -93.2 -152.2 L-93.2 -192.4 -97.85 -218.5 Q-100.65 -234.25 -101.2 -244.6 -101.35 -247.6 -109.35 -271.5 -117.25 -295.0 -117.6 -295.0 -149.05 -295.0 -202.95 -280.9 -214.4 -277.9 -237.75 -271.2 -253.1 -266.8 -255.2 -266.8 -258.9 -266.8 -260.4 -269.85 -261.15 -271.35 -261.2 -272.8 -261.2 -279.4 -216.6 -289.8 L-181.2 -297.35 -155.2 -302.8 Q-145.35 -305.1 -137.9 -306.4 M-129.75 -209.5 Q-132.5 -213.0 -133.4 -213.0 -135.0 -213.0 -144.3 -210.7 -153.6 -208.4 -157.6 -208.4 -164.6 -208.4 -166.8 -211.4 -167.9 -212.9 -167.6 -214.4 -167.6 -217.35 -166.2 -218.3 -165.15 -219.0 -161.4 -219.4 -148.45 -220.75 -137.2 -225.0 -130.5 -227.55 -123.25 -220.65 -120.75 -218.25 -118.85 -215.3 -117.2 -212.8 -117.2 -212.0 -117.2 -210.05 -118.35 -208.4 -120.1 -206.0 -123.6 -206.0 -127.0 -206.0 -129.75 -209.5" fill="#ffff00" fill-rule="evenodd" stroke="none"/>
    <path d="M548.4 -172.05 Q559.5 -158.1 560.2 -134.85 560.7 -116.65 554.5 -87.1 547.7 -98.65 547.0 -132.4 546.55 -156.3 548.4 -172.05" fill="#373535" fill-rule="evenodd" stroke="none"/>
    <path d="M136.0 70.6 Q124.15 126.05 84.7 164.85 53.1 196.0 -3.5 222.2 13.15 202.15 38.75 182.6 55.65 169.75 87.45 149.45 92.3 141.55 96.05 126.2 L102.3 100.6 Q106.55 86.65 113.25 79.7 121.7 71.0 136.0 70.6" fill="#373535" fill-rule="evenodd" stroke="none"/>
    <path d="M208.75 125.15 L220.9 125.15 Q220.15 128.65 222.15 130.0 223.4 130.9 226.95 131.25 L226.95 143.35 Q223.5 142.6 222.15 144.6 221.25 145.9 220.9 149.45 L208.75 149.45 Q209.5 145.95 207.55 144.6 206.25 143.7 202.7 143.35 L202.7 131.25 Q206.15 132.0 207.55 130.0 208.45 128.65 208.75 125.15" fill="#373535" fill-rule="evenodd" stroke="none"/>
    <path d="M318.65 -321.3 Q321.75 -323.7 336.15 -329.7 304.5 -325.05 291.6 -324.3 268.15 -323.0 293.7 -335.8 269.95 -330.75 240.2 -329.2 220.75 -328.2 189.05 -328.55 155.75 -328.9 144.75 -328.5 123.2 -327.65 111.75 -323.65 105.9 -321.65 96.1 -315.55 85.8 -309.15 76.25 -301.35 51.9 -281.55 51.1 -269.05 49.0 -237.9 90.55 -215.95 123.2 -198.75 189.15 -184.75 212.2 -179.85 247.15 -173.7 L303.65 -163.8 Q367.3 -152.25 390.75 -141.7 409.5 -133.25 430.7 -114.5 L443.25 -103.45 Q448.75 -99.0 451.4 -99.25 460.35 -100.1 472.2 -112.35 482.5 -123.0 493.35 -140.45 503.15 -156.2 510.2 -172.25 517.15 -188.0 518.1 -196.3 521.5 -226.0 511.8 -242.75 504.2 -255.85 486.35 -263.65 480.6 -266.15 470.3 -269.55 458.1 -273.55 454.0 -275.1 435.35 -282.25 427.15 -293.3 428.4 -291.7 434.9 -294.8 441.45 -297.9 439.25 -299.4 434.65 -302.5 427.25 -303.6 420.55 -304.55 415.55 -303.45 410.3 -302.3 411.1 -299.8 412.0 -296.85 421.05 -293.35 415.0 -295.45 396.35 -299.15 374.7 -303.5 366.95 -305.55 352.1 -309.5 349.45 -313.4 346.2 -318.2 360.4 -323.65 329.0 -319.45 321.75 -319.25 315.95 -319.1 318.65 -321.3 M437.6 -314.2 Q498.4 -293.8 524.15 -269.05 535.3 -258.35 545.2 -235.0 555.3 -211.25 554.5 -196.3 552.8 -162.95 529.0 -134.35 509.6 -111.0 473.05 -88.4 452.2 -75.55 406.25 -52.45 364.4 -31.4 348.25 -20.4 341.5 -15.8 334.25 -7.2 L322.1 7.45 Q314.6 15.65 306.35 20.3 295.9 26.15 281.55 28.1 284.15 41.85 286.25 66.25 L289.8 110.8 Q294.9 168.55 305.8 197.95 359.5 181.9 405.7 151.8 450.05 122.95 483.3 83.95 516.0 45.6 534.35 1.8 552.9 -42.45 554.5 -87.1 568.8 3.5 494.75 85.45 437.25 149.05 330.1 204.0 326.25 207.7 326.0 211.3 325.85 213.75 327.7 218.4 330.0 224.2 330.55 227.4 331.7 233.55 330.1 240.4 293.95 274.25 239.25 299.8 184.3 325.45 121.1 337.85 54.9 350.8 -9.35 346.85 -78.5 342.65 -136.95 319.25 -142.5 314.7 -144.3 310.2 -145.55 307.05 -145.25 302.15 -144.85 295.6 -145.1 293.5 -145.7 288.15 -149.1 282.85 -181.65 279.2 -240.4 277.9 L-332.8 274.85 Q-382.9 271.5 -415.2 262.15 -454.7 250.7 -476.6 228.3 -498.4 205.95 -517.15 166.15 -534.25 129.9 -545.65 86.1 -556.6 44.2 -559.35 7.4 -562.15 -30.3 -555.45 -50.7 -544.45 -84.2 -516.85 -110.9 -494.2 -132.8 -455.95 -153.85 -438.15 -163.65 -384.2 -189.2 -337.9 -211.1 -312.85 -226.6 L-312.85 -269.05 Q-290.0 -271.6 -257.55 -281.95 -239.1 -287.8 -202.3 -300.35 -170.4 -310.3 -147.75 -312.2 -118.55 -314.65 -94.5 -305.45 -80.75 -248.95 -75.95 -208.4 -70.1 -158.65 -76.3 -123.5 -81.9 -121.05 -88.15 -118.6 L-88.4 -117.45 -90.95 -117.5 Q-125.2 -104.3 -179.15 -89.9 L-233.1 -75.6 Q-264.15 -67.2 -285.8 -60.05 -343.8 -41.0 -378.65 -16.5 -421.65 13.75 -440.2 58.45 -418.6 71.9 -385.1 76.05 -357.7 79.45 -318.6 76.9 -297.75 75.55 -249.25 70.05 -206.15 65.2 -185.45 64.5 -176.95 36.05 -140.8 12.7 -109.85 -7.3 -64.15 -20.4 -73.25 -9.85 -92.1 -1.35 -97.8 1.2 -108.8 5.45 -120.45 9.95 -125.55 12.2 -144.7 20.6 -154.1 30.7 -166.3 43.95 -167.25 64.5 -166.4 72.55 -161.5 73.9 -158.3 74.8 -150.2 72.7 -140.95 70.35 -136.85 70.45 -129.3 70.7 -124.8 76.65 -125.9 96.15 -123.05 122.7 -121.45 137.4 -116.1 172.6 -110.9 206.55 -108.95 226.05 -105.85 256.85 -106.6 282.85 L-143.0 282.85 Q-138.1 305.4 -102.35 320.7 -76.95 331.55 -39.9 337.45 7.35 345.0 61.6 339.85 113.35 334.95 164.35 319.35 214.7 303.9 255.95 280.55 298.25 256.65 324.0 228.3 322.05 222.1 317.0 217.1 313.6 213.75 306.65 209.25 L295.9 201.8 Q290.3 197.2 287.6 191.9 291.5 175.65 288.55 150.6 286.6 133.85 279.95 103.85 272.35 69.8 270.6 58.65 266.85 35.2 269.4 22.05 270.95 14.3 276.15 7.35 279.1 3.45 285.9 -2.95 291.85 -8.6 293.5 -11.4 296.05 -15.85 293.7 -20.4 278.4 -50.05 202.0 -50.95 146.25 -51.6 81.4 -38.6 99.85 -34.55 125.7 -32.85 L174.15 -31.3 Q211.45 -30.8 223.25 -30.35 250.4 -29.3 269.4 -26.45 248.4 -23.65 205.95 -23.9 153.9 -24.7 126.05 -24.8 76.65 -24.95 43.55 -22.0 0.1 -18.1 -27.75 -8.25 -24.9 -14.4 -17.15 -17.3 -11.35 -19.5 -0.6 -20.5 L17.5 -22.1 Q27.55 -23.4 32.9 -26.45 23.35 -33.15 11.35 -33.3 2.45 -33.4 -11.15 -29.5 -26.55 -24.6 -34.35 -22.65 -47.95 -19.3 -58.1 -20.4 -51.55 -26.5 -37.95 -30.6 L-14.0 -36.95 Q-0.4 -41.0 6.1 -47.15 14.6 -55.1 14.7 -68.9 48.3 -77.2 99.6 -75.0 99.2 -64.2 89.6 -60.5 82.7 -57.8 66.75 -58.0 43.65 -58.25 39.1 -57.9 23.4 -56.75 14.7 -50.7 33.0 -42.1 70.95 -44.4 L107.1 -47.9 146.3 -52.7 Q196.15 -58.5 227.1 -57.0 270.9 -54.8 299.75 -38.6 300.9 -29.35 303.85 -17.65 306.3 -7.8 306.3 -4.45 306.35 0.95 302.5 5.3 298.45 9.75 287.6 16.0 302.0 9.6 317.85 -2.3 327.1 -9.25 344.75 -23.9 360.85 -36.85 373.4 -43.8 390.45 -53.2 408.9 -56.8 398.65 -59.5 385.55 -54.9 376.8 -51.8 360.8 -42.7 341.95 -31.95 334.35 -28.45 318.8 -21.4 305.8 -20.4 318.45 -30.3 338.0 -39.75 346.9 -44.05 373.9 -55.4 396.65 -65.0 409.1 -71.75 427.5 -81.75 439.25 -93.2 418.55 -121.35 379.85 -136.7 350.4 -148.4 299.8 -155.85 240.6 -163.15 210.6 -167.9 158.25 -176.25 123.85 -190.2 102.9 -198.75 85.7 -210.5 65.65 -224.2 55.7 -239.1 44.15 -256.4 47.7 -273.55 51.7 -293.2 75.35 -311.55 108.5 -337.3 174.9 -344.85 234.7 -351.6 308.4 -342.55 378.65 -333.95 437.6 -314.2 M451.4 -293.35 Q499.4 -276.25 515.5 -243.95 529.7 -215.45 517.65 -178.6 506.8 -145.3 477.6 -112.95 449.6 -81.9 415.0 -62.85 453.55 -75.0 486.2 -107.65 518.4 -139.8 530.1 -176.95 542.7 -217.0 525.5 -246.85 506.0 -280.7 451.4 -293.35 M-464.55 -135.4 Q-481.5 -127.2 -499.8 -111.35 -517.7 -95.85 -531.05 -78.25 -545.05 -59.7 -549.4 -44.65 -562.4 0.15 -527.5 33.2 -496.55 62.55 -431.8 79.45 -373.1 94.8 -299.35 97.05 -228.7 99.15 -167.25 88.8 -181.95 76.45 -205.3 74.0 -223.6 72.1 -252.45 76.2 L-304.0 84.65 Q-334.95 89.45 -355.3 88.8 -420.35 86.75 -467.15 58.65 -488.5 45.8 -503.3 28.85 -517.8 12.25 -524.55 -6.55 L-524.95 -7.7 Q-528.6 -12.1 -531.2 -14.35 L-528.7 -22.45 Q-530.55 -33.45 -529.55 -44.45 -527.75 -64.0 -517.05 -81.7 -493.45 -120.6 -434.15 -141.7 -446.15 -144.3 -464.55 -135.4 M-516.85 2.95 Q-504.6 20.05 -499.65 26.05 -475.25 55.3 -446.25 58.45 -436.05 21.8 -404.55 -6.15 -378.65 -29.15 -333.8 -49.7 -310.2 -60.5 -249.5 -83.15 -194.65 -103.65 -167.25 -117.45 -164.75 -137.35 -168.75 -162.25 -171.2 -177.8 -178.3 -204.7 -185.35 -231.35 -186.9 -241.45 -189.7 -259.3 -185.45 -269.05 -190.95 -261.7 -201.5 -254.55 -211.95 -247.5 -224.25 -242.7 -252.9 -231.5 -270.4 -238.75 -261.3 -239.45 -255.5 -242.1 -248.95 -245.1 -246.1 -250.9 -281.4 -236.95 -318.55 -217.15 -348.75 -201.05 -385.6 -178.1 -336.95 -200.45 -293.05 -214.4 -235.85 -232.6 -197.6 -232.7 -215.9 -226.5 -249.75 -215.85 L-302.05 -199.15 Q-362.8 -179.0 -400.7 -159.85 -450.45 -134.7 -481.25 -102.4 -513.9 -68.1 -528.7 -22.45 -527.5 -15.1 -524.95 -7.7 L-516.85 2.95 M-543.3 34.2 Q-535.05 54.0 -525.65 90.4 -514.25 134.55 -509.6 148.6 -499.0 180.5 -484.6 201.15 -466.95 226.45 -440.2 240.4 -412.3 254.95 -374.4 261.8 -342.9 267.5 -297.65 268.8 -276.45 269.45 -211.8 269.2 -154.55 269.0 -118.75 270.75 -115.6 245.9 -123.95 184.1 -131.85 125.5 -143.0 82.7 -189.3 96.9 -251.1 101.35 -311.45 105.65 -370.75 99.55 -432.3 93.2 -476.65 77.2 -524.75 59.85 -543.3 34.2 M-112.7 -305.45 Q-232.6 -294.45 -306.75 -250.9 -299.55 -250.65 -299.4 -247.5 -299.3 -245.45 -302.8 -240.8 -306.45 -236.0 -306.6 -234.65 -307.0 -232.05 -300.7 -232.7 -299.15 -239.75 -290.15 -246.7 -281.3 -253.5 -269.15 -257.25 -256.05 -261.3 -244.2 -260.1 -230.75 -258.75 -221.85 -250.9 -200.6 -269.5 -184.45 -277.15 -160.7 -288.45 -130.9 -287.25 L-125.4 -260.35 Q-122.05 -244.4 -120.65 -236.05 -116.2 -209.9 -118.75 -190.2 -126.2 -197.2 -142.0 -193.0 -146.9 -191.7 -155.2 -188.5 -164.25 -185.05 -167.25 -184.15 -163.25 -170.25 -158.85 -157.5 -156.2 -148.05 -155.15 -129.55 -143.35 -127.45 -131.9 -130.55 L-122.55 -133.4 Q-117.0 -135.05 -112.7 -135.65 -112.55 -141.5 -115.95 -151.3 -120.15 -162.4 -121.7 -167.55 -124.4 -176.5 -122.95 -181.5 -121.15 -187.85 -112.7 -190.2 -114.1 -181.4 -112.95 -173.3 -112.25 -168.45 -109.65 -159.9 -107.05 -151.35 -106.35 -146.5 -105.2 -138.4 -106.6 -129.55 -111.35 -127.55 -124.9 -124.85 -141.35 -121.6 -147.05 -120.0 -158.75 -116.65 -162.6 -112.3 -167.4 -106.95 -161.2 -99.25 -138.55 -109.1 -128.6 -112.1 -110.25 -117.65 -90.95 -117.5 L-88.15 -118.6 Q-78.3 -167.25 -85.15 -214.05 -91.35 -256.2 -112.7 -305.45 M-154.5 -274.5 L-164.75 -275.65 -173.35 -275.15 Q-172.95 -266.4 -173.55 -247.65 -173.1 -232.1 -167.25 -226.6 L-130.9 -226.6 Q-130.05 -246.8 -132.15 -258.7 -134.9 -274.05 -143.0 -281.2 -142.65 -276.65 -146.1 -275.15 -148.75 -274.0 -154.5 -274.5 M-157.05 -216.75 Q-164.1 -214.5 -167.25 -214.5 -169.1 -204.75 -163.05 -200.3 -157.75 -196.4 -148.5 -197.45 -139.65 -198.5 -132.7 -203.15 -125.25 -208.2 -124.8 -214.5 -129.15 -224.4 -144.65 -220.6 L-157.05 -216.75" fill="#373535" fill-rule="evenodd" stroke="none"/>
    <path d="M-149.1 40.25 Q-122.05 20.5 -97.9 9.55 -67.55 -4.2 -33.85 -8.25 -46.9 -3.15 -90.5 16.95 -125.15 32.95 -149.1 40.25" fill="#373535" fill-rule="evenodd" stroke="none"/>
    <path d="M360.55 -235.7 Q360.55 -228.2 355.95 -223.65 350.75 -218.5 342.2 -220.55 341.95 -225.35 345.8 -235.7 346.85 -238.55 346.4 -238.2 L342.2 -232.7 Q339.1 -233.6 338.75 -235.2 338.5 -236.35 339.75 -238.85 343.3 -246.15 342.2 -250.9 350.75 -252.95 355.95 -247.8 360.55 -243.25 360.55 -235.7" fill="#373535" fill-rule="evenodd" stroke="none"/>
    <path d="M8.45 17.5 Q0.45 28.0 2.55 40.25 0.55 39.8 -3.05 36.8 -6.2 34.15 -9.6 34.2 -12.7 29.4 -13.9 26.4 -15.8 21.6 -15.65 16.0 23.45 -9.3 69.5 -12.3 112.3 -15.1 153.0 1.55 192.75 17.85 220.4 48.45 249.05 80.1 257.3 119.1 264.6 222.2 211.9 273.85 157.5 327.15 45.0 319.25 0.05 305.35 -32.3 267.95 -62.85 232.55 -73.5 186.8 -84.3 140.35 -70.65 99.1 -55.85 54.45 -15.65 28.1 -17.4 35.35 -26.55 45.9 -31.75 51.9 -43.0 63.8 -51.95 74.0 -53.35 80.55 -55.2 89.05 -45.95 94.85 -46.55 99.3 -52.75 100.2 L-64.15 100.9 Q-61.7 116.8 -65.8 135.65 L-69.0 150.65 Q-70.5 159.5 -70.25 167.6 -56.35 168.65 -47.6 166.0 -37.8 163.1 -33.85 155.5 -25.55 159.8 -23.25 169.3 -20.8 179.25 -27.75 185.8 -33.9 187.3 -37.15 184.6 -38.75 183.25 -41.35 178.15 -43.6 173.7 -46.3 172.5 -50.35 170.75 -58.1 173.7 -63.4 181.9 -63.45 189.9 -63.5 196.25 -59.9 204.75 L-52.45 220.75 Q-47.75 231.25 -45.95 240.4 -37.8 237.6 -31.8 245.3 -29.5 248.25 -26.6 253.9 L-21.3 264.45 Q-14.1 278.45 -6.5 285.2 4.55 294.95 20.75 295.0 26.1 293.75 27.0 288.2 27.35 286.05 26.7 276.1 26.15 267.6 27.95 262.85 30.65 255.9 38.95 252.55 36.45 254.95 35.55 257.75 34.8 260.05 35.35 261.65 35.85 263.2 36.95 262.55 38.15 261.85 38.95 258.6 46.15 263.3 45.8 268.15 45.55 271.4 40.75 277.15 34.85 284.25 33.35 287.55 30.2 294.2 32.9 301.05 44.65 307.95 62.45 310.9 78.1 313.5 99.6 313.2 104.8 310.5 103.65 306.45 102.85 303.75 97.85 298.2 91.8 291.45 89.9 288.3 86.2 282.2 87.45 276.8 101.5 274.75 106.4 278.2 110.1 280.85 109.35 288.05 L107.4 301.4 Q107.05 309.25 111.75 313.2 129.75 312.45 148.1 304.05 152.8 301.9 163.2 296.45 172.85 291.4 178.45 288.95 178.8 281.65 175.4 276.85 172.75 273.1 167.05 270.05 L156.8 265.1 Q150.9 262.1 148.1 258.6 148.55 255.7 151.5 254.4 153.1 253.75 157.7 253.0 161.9 252.35 163.6 251.35 166.25 249.8 166.3 246.45 172.35 250.3 174.25 254.85 175.4 257.6 175.45 262.75 175.45 267.7 176.6 270.05 178.45 273.9 184.5 276.8 192.5 274.95 203.05 267.25 213.7 259.45 221.1 249.95 229.3 239.4 229.9 230.9 230.65 221.1 220.9 216.15 233.3 211.5 239.7 201.3 244.8 193.25 246.65 180.7 247.2 176.7 248.25 159.6 249.0 148.0 251.25 143.35 250.35 140.25 248.75 139.9 247.6 139.65 245.05 140.9 237.75 144.45 233.05 143.35 243.8 136.5 245.8 127.4 247.4 120.0 243.45 109.0 L234.35 88.1 Q228.45 74.5 226.95 64.5 216.3 64.1 207.3 67.5 L195.0 73.5 Q189.25 76.25 185.05 74.95 179.7 73.3 172.4 64.5 172.45 61.0 177.05 61.25 L187.7 63.35 Q195.45 65.1 199.8 64.55 206.15 63.75 208.75 58.45 206.4 49.95 198.9 39.65 191.3 29.15 182.1 22.1 171.9 14.25 163.45 13.6 153.7 12.9 148.1 22.05 149.95 5.3 127.2 -2.35 108.4 -8.7 75.35 -8.25 72.5 0.5 74.7 7.45 76.1 11.75 80.65 17.4 84.9 22.7 85.4 25.1 86.3 29.3 81.4 34.2 76.95 32.65 69.3 28.15 61.65 23.65 57.15 22.05 57.65 19.9 59.65 18.5 60.6 17.85 63.75 16.55 69.2 14.2 69.25 9.95 64.05 1.1 51.9 -0.55 40.6 -2.1 28.25 2.95 15.6 8.1 8.45 17.5" fill="#373535" fill-rule="evenodd" stroke="none"/>
    <path d="M263.35 -263.0 Q266.9 -252.95 262.25 -246.05 258.25 -240.0 250.3 -238.9 242.45 -237.8 237.3 -242.3 231.45 -247.35 233.05 -256.95 238.7 -261.05 245.55 -262.6 253.35 -264.4 263.35 -263.0" fill="#373535" fill-rule="evenodd" stroke="none"/>
  </g>
</svg>
