<?xml version="1.0" encoding="UTF-8" standalone="no"?>
<svg xmlns:xlink="http://www.w3.org/1999/xlink" height="442.6px" width="676.55px" xmlns="http://www.w3.org/2000/svg">
  <g transform="matrix(1, 0, 0, 1, 338.25, 221.3)">
    <path d="M-223.5 -145.8 L-222.4 -144.8 Q-215.2 -128.65 -215.2 -111.2 L-215.3 -107.65 Q-203.75 -117.3 -186.95 -133.4 -163.0 -156.3 -152.15 -165.45 -131.25 -183.2 -110.65 -194.9 -85.45 -209.2 -56.4 -217.2 -24.8 -225.9 25.85 -205.65 37.65 -200.95 63.25 -189.0 83.6 -179.45 91.6 -177.2 L137.0 -147.45 Q169.8 -125.8 186.4 -118.8 216.3 -106.1 240.85 -92.95 269.8 -77.45 283.6 -65.2 287.25 -62.0 293.5 -59.25 297.15 -57.65 304.8 -54.75 318.95 -49.05 323.6 -40.4 L333.1 -22.85 Q333.75 -21.15 333.75 -18.5 L333.6 -10.4 Q333.6 -8.25 332.6 -2.15 332.1 -3.1 331.35 -3.65 330.9 -7.65 329.65 -11.45 326.9 -19.9 321.6 -21.2 317.5 -20.65 307.1 -10.7 296.9 -1.0 295.6 -1.0 286.3 -1.0 280.55 8.2 278.75 10.95 277.1 15.1 L275.2 19.6 Q273.05 23.0 261.15 31.6 247.95 41.15 245.6 43.6 243.5 45.8 236.95 55.25 231.65 62.9 226.2 67.0 212.8 77.1 210.1 79.9 205.2 84.9 205.2 91.0 L208.3 102.2 Q211.4 113.3 211.4 117.4 211.4 117.95 209.9 120.4 208.4 122.85 208.4 123.7 208.4 124.6 208.65 125.5 206.8 129.0 206.8 132.9 L207.25 136.8 207.55 137.45 Q204.6 138.4 202.4 138.4 194.6 138.4 163.75 125.85 127.5 111.05 125.2 110.4 L82.0 97.65 Q52.95 89.2 52.4 89.2 29.6 89.2 11.55 105.0 26.8 86.85 26.8 85.6 26.8 80.35 10.45 76.45 L-2.4 73.65 Q-9.3 72.15 -11.6 71.0 -19.9 69.55 -37.4 63.95 -50.8 60.75 -50.8 68.7 -50.8 71.5 -49.15 76.2 L-45.6 86.2 Q-40.4 101.7 -40.4 118.8 -40.4 123.25 -42.0 133.5 -43.6 143.75 -43.6 148.2 L-43.6 154.2 Q-42.6 159.6 -37.2 159.6 -35.55 159.6 -12.55 133.2 L-20.4 143.95 Q-40.95 172.35 -57.3 186.25 -82.8 207.85 -116.8 215.2 L-164.8 215.2 Q-211.1 208.6 -246.35 183.95 -276.45 162.95 -297.1 129.9 -314.15 102.6 -323.1 70.15 -329.15 48.15 -330.15 29.55 -331.1 28.05 -331.6 26.1 -332.75 21.9 -332.0 17.6 -332.0 -7.6 -292.05 -45.1 -277.8 -58.5 -255.8 -75.95 L-237.1 -90.45 Q-252.05 -91.25 -254.15 -104.45 -254.7 -107.85 -254.3 -112.4 -247.6 -114.85 -247.6 -117.6 -247.6 -121.05 -251.9 -124.2 L-252.1 -124.35 -252.0 -124.8 -252.0 -125.2 -253.75 -125.4 Q-257.25 -127.3 -261.95 -127.65 -264.2 -128.75 -265.6 -130.35 -268.0 -133.05 -268.0 -137.6 -268.0 -141.4 -264.05 -145.75 -259.85 -150.35 -253.65 -152.65 -245.65 -155.7 -237.95 -153.8 L-236.7 -149.15 Q-234.25 -142.8 -229.6 -142.8 -226.15 -142.8 -223.5 -145.8 M27.6 -165.7 Q27.6 -168.55 26.5 -169.95 25.55 -171.15 22.9 -172.25 11.15 -177.05 6.0 -180.2 -11.1 -183.15 -17.1 -179.05 -18.85 -177.8 -21.15 -174.7 -23.55 -171.45 -25.4 -170.0 L-44.1 -155.05 Q-56.2 -145.05 -62.4 -138.8 -65.1 -136.05 -101.3 -105.3 -131.6 -79.65 -131.6 -75.9 -131.6 -74.9 -129.8 -72.25 -127.6 -69.0 -124.4 -66.2 -115.0 -58.0 -102.4 -58.0 -90.7 -58.0 -83.6 -60.45 -77.05 -62.75 -70.0 -68.9 -67.6 -71.0 -53.55 -84.9 -40.05 -98.3 -26.4 -110.0 -14.65 -120.05 6.3 -141.55 27.6 -163.45 27.6 -165.7" fill="#99cccc" fill-rule="evenodd" stroke="none"/>
    <path d="M332.6 -2.15 Q333.2 -0.85 333.2 1.1 333.2 3.35 331.2 6.8 L330.6 7.75 Q328.45 10.9 325.4 11.5 318.55 20.2 304.0 35.45 275.8 64.05 274.6 65.8 271.4 70.55 257.5 81.8 244.4 92.35 241.4 98.2 237.2 106.6 228.05 117.85 L223.6 123.05 223.6 123.2 Q223.6 125.65 221.6 130.3 L220.45 132.8 Q216.75 140.4 213.2 140.4 209.0 140.4 207.55 137.45 L207.25 136.8 206.8 132.9 Q206.8 129.0 208.65 125.5 208.4 124.6 208.4 123.7 208.4 122.85 209.9 120.4 211.4 117.95 211.4 117.4 211.4 113.3 208.3 102.2 L205.2 91.0 Q205.2 84.9 210.1 79.9 212.8 77.1 226.2 67.0 231.65 62.9 236.95 55.25 243.5 45.8 245.6 43.6 247.95 41.15 261.15 31.6 273.05 23.0 275.2 19.6 L277.1 15.1 Q278.75 10.95 280.55 8.2 286.3 -1.0 295.6 -1.0 296.9 -1.0 307.1 -10.7 317.5 -20.65 321.6 -21.2 326.9 -19.9 329.65 -11.45 330.9 -7.65 331.35 -3.65 332.1 -3.1 332.6 -2.15 M11.55 105.0 L-4.2 123.45 -12.55 133.2 Q-35.55 159.6 -37.2 159.6 -42.6 159.6 -43.6 154.2 L-43.6 148.2 Q-43.6 143.75 -42.0 133.5 -40.4 123.25 -40.4 118.8 -40.4 101.7 -45.6 86.2 L-49.15 76.2 Q-50.8 71.5 -50.8 68.7 -50.8 60.75 -37.4 63.95 -19.9 69.55 -11.6 71.0 -9.3 72.15 -2.4 73.65 L10.45 76.45 Q26.8 80.35 26.8 85.6 26.8 86.85 11.55 105.0 M27.6 -165.7 Q27.6 -163.45 6.3 -141.55 -14.65 -120.05 -26.4 -110.0 -40.05 -98.3 -53.55 -84.9 -67.6 -71.0 -70.0 -68.9 -77.05 -62.75 -83.6 -60.45 -90.7 -58.0 -102.4 -58.0 -115.0 -58.0 -124.4 -66.2 -127.6 -69.0 -129.8 -72.25 -131.6 -74.9 -131.6 -75.9 -131.6 -79.65 -101.3 -105.3 -65.1 -136.05 -62.4 -138.8 -56.2 -145.05 -44.1 -155.05 L-25.4 -170.0 Q-23.55 -171.45 -21.15 -174.7 -18.85 -177.8 -17.1 -179.05 -11.1 -183.15 6.0 -180.2 11.15 -177.05 22.9 -172.25 25.55 -171.15 26.5 -169.95 27.6 -168.55 27.6 -165.7" fill="#3399cc" fill-rule="evenodd" stroke="none"/>
    <path d="M-254.3 -112.4 L-257.4 -111.4 Q-267.95 -108.4 -282.4 -108.4 -319.0 -108.4 -329.4 -130.8 -332.85 -138.3 -333.35 -148.35 -333.6 -153.75 -333.2 -160.8 -333.2 -165.6 -329.0 -172.15 -324.8 -178.7 -317.8 -184.85 -301.25 -199.5 -283.0 -201.6 -261.65 -204.0 -245.4 -199.8 -234.1 -196.85 -224.2 -190.2 -218.95 -185.9 -217.65 -179.15 -217.2 -176.7 -217.2 -167.7 -217.2 -161.55 -219.4 -154.2 -221.05 -148.65 -223.5 -145.8 -226.15 -142.8 -229.6 -142.8 -234.25 -142.8 -236.7 -149.15 L-237.95 -153.8 -240.3 -163.1 Q-242.6 -172.55 -246.2 -177.05 -251.15 -183.4 -260.2 -183.4 -280.35 -183.4 -295.8 -175.8 -314.0 -166.85 -314.0 -151.5 -314.0 -149.2 -312.65 -145.45 -311.05 -140.95 -308.35 -137.25 -300.8 -126.95 -288.6 -127.8 L-267.2 -127.6 -261.95 -127.65 Q-257.25 -127.3 -253.75 -125.4 L-252.1 -124.35 -251.9 -124.2 Q-247.6 -121.05 -247.6 -117.6 -247.6 -114.85 -254.3 -112.4" fill="#cccccc" fill-rule="evenodd" stroke="none"/>
    <path d="M-243.3 -201.35 Q-220.3 -193.3 -218.75 -171.6 -220.3 -186.5 -239.1 -193.85 -257.15 -200.9 -280.45 -197.65 -304.8 -194.25 -319.05 -181.45 -335.35 -166.75 -331.2 -144.7 -329.45 -135.45 -323.45 -127.65 -317.1 -119.4 -307.45 -114.6 -284.65 -103.3 -253.3 -114.4 -252.95 -122.45 -257.35 -124.6 -260.7 -126.25 -268.85 -124.9 L-284.45 -122.1 Q-294.2 -120.9 -300.9 -123.05 -320.8 -136.65 -316.8 -153.75 -313.3 -168.45 -295.2 -179.05 -277.45 -189.45 -261.3 -187.2 -243.2 -184.7 -240.35 -166.35 -250.3 -181.5 -267.65 -182.2 -282.95 -182.85 -296.15 -172.9 -309.35 -162.95 -309.7 -150.55 -310.1 -136.5 -292.25 -127.4 -279.7 -127.75 -271.85 -129.3 -262.55 -131.1 -253.3 -131.7 -246.55 -124.95 -247.0 -118.55 -247.25 -114.6 -251.0 -108.95 -254.35 -103.85 -254.0 -102.1 -253.35 -99.3 -246.05 -97.45 -252.8 -98.95 -264.6 -100.7 L-285.9 -104.2 Q-312.15 -109.6 -331.2 -123.05 -345.3 -151.55 -331.15 -173.85 -318.9 -193.1 -291.3 -201.2 -278.85 -204.8 -266.35 -204.9 -253.6 -205.0 -243.3 -201.35" fill="#373535" fill-rule="evenodd" stroke="none"/>
    <path d="M137.1 -144.2 Q49.05 -192.8 -6.65 -209.6 -48.4 -222.2 -94.2 -197.6 -110.35 -188.95 -130.75 -173.55 -152.7 -156.35 -162.45 -149.05 -176.45 -138.55 -210.2 -108.8 -239.2 -83.25 -257.65 -71.15 -218.5 -74.65 -179.4 -66.8 -147.05 -60.3 -109.95 -44.8 -88.8 -36.0 -45.1 -14.35 -3.4 6.3 19.3 15.4 38.3 23.05 65.25 32.35 L109.5 47.6 Q161.05 65.9 192.35 84.6 208.8 82.75 215.1 80.3 226.15 76.05 222.65 67.3 221.15 71.85 216.2 76.95 210.5 82.7 209.7 75.95 222.2 65.5 239.1 47.75 L268.15 16.6 Q285.25 -1.5 297.2 -11.95 313.0 -25.7 326.5 -32.2 322.7 -45.95 307.15 -52.0 L293.1 -56.65 Q284.25 -59.45 278.9 -62.5 263.45 -71.25 210.6 -102.15 165.2 -128.75 137.1 -144.2 M304.85 -1.9 L317.1 3.2 Q324.25 5.8 330.85 6.75 L325.85 -9.3 Q323.65 -16.5 322.2 -19.2 320.9 -16.75 318.0 -14.7 317.35 -14.25 312.55 -11.5 305.65 -7.5 304.85 -1.9 M332.95 7.9 Q325.2 27.5 305.2 48.95 294.1 60.8 267.55 84.05 243.95 104.7 235.65 114.9 L239.65 105.5 235.1 115.0 Q222.7 139.3 214.0 145.2 192.45 138.05 124.8 117.6 68.75 100.7 36.6 88.95 18.65 100.15 -1.35 122.35 -12.95 135.2 -35.3 162.45 -55.6 186.05 -72.2 198.25 -94.4 214.6 -119.15 218.75 -160.1 225.65 -197.55 213.7 -231.75 202.8 -260.1 177.2 -286.45 153.45 -304.1 120.4 -308.4 112.35 -311.95 104.2 -326.2 78.65 -326.85 54.35 -346.15 7.55 -308.8 -36.7 -282.35 -68.05 -223.0 -101.45 -223.0 -119.8 -228.5 -131.5 -234.55 -144.35 -249.0 -153.35 -250.7 -152.3 -255.6 -150.25 L-262.0 -146.9 Q-268.5 -142.15 -266.3 -131.7 -274.5 -136.75 -273.25 -141.7 -272.3 -145.65 -264.9 -150.4 L-250.75 -158.4 Q-242.5 -163.05 -240.35 -166.35 -237.15 -165.75 -236.1 -161.9 -235.65 -160.25 -235.3 -154.05 -235.0 -148.95 -233.75 -146.95 -231.95 -144.0 -227.35 -144.7 -222.3 -146.8 -221.2 -150.8 -220.75 -152.6 -221.15 -157.95 -221.45 -162.15 -219.85 -163.9 -217.5 -166.35 -210.05 -166.35 -217.85 -148.8 -219.15 -142.7 -221.35 -132.35 -218.7 -114.4 -196.2 -123.7 -167.2 -148.05 -159.1 -154.85 -143.05 -169.0 -128.45 -181.55 -118.15 -189.25 -88.7 -211.15 -60.95 -217.9 -26.0 -226.35 14.95 -213.95 39.05 -206.65 85.4 -181.4 111.95 -167.0 166.4 -136.05 207.5 -113.5 257.8 -84.9 L335.15 -40.85 Q342.45 -16.25 332.95 7.9 M307.9 4.85 Q300.95 3.1 287.55 6.75 288.25 8.4 283.95 15.45 279.7 22.4 274.0 29.15 267.6 36.7 263.25 39.2 258.05 42.2 257.25 37.05 251.65 51.9 235.7 67.35 L222.3 79.9 Q214.4 87.4 209.7 93.3 173.2 82.7 121.35 61.45 86.2 47.05 23.45 18.95 -51.0 -14.4 -76.5 -25.3 -131.95 -49.05 -171.1 -62.5 -207.3 -74.95 -240.1 -69.1 -270.0 -63.75 -292.4 -44.35 -313.65 -25.9 -322.95 0.55 -332.35 27.25 -326.85 54.35 -322.6 79.95 -311.95 104.2 -304.6 117.4 -293.6 130.95 -262.85 168.75 -217.8 192.75 -170.6 217.9 -129.45 215.65 -83.2 213.15 -58.6 175.5 -43.8 152.85 -44.5 118.85 -45.05 94.6 -54.25 58.65 83.75 95.6 201.0 136.55 205.8 127.35 204.8 115.9 204.45 111.9 203.2 105.2 L201.0 93.3 Q205.95 94.35 209.95 100.15 213.6 105.45 215.2 112.6 216.8 119.8 215.55 125.15 L215.35 125.9 Q235.7 103.2 260.6 77.2 294.2 42.05 322.2 15.4 314.8 6.6 307.9 4.85 M215.35 125.9 L209.7 132.2 Q213.85 131.1 215.35 125.9 M-34.85 68.1 Q-44.2 66.0 -49.95 67.3 -42.1 74.95 -39.4 87.05 -37.25 96.7 -38.15 110.95 L-40.65 135.8 Q-42.15 150.25 -41.3 158.2 -35.3 149.3 -25.25 139.65 L-7.05 123.2 Q4.0 113.3 10.25 105.85 18.9 95.6 23.6 84.6 15.25 83.95 3.75 80.5 L-16.3 73.75 Q-28.4 69.55 -34.85 68.1" fill="#373535" fill-rule="evenodd" stroke="none"/>
    <path d="M-49.95 -157.7 Q-45.65 -160.1 -34.3 -167.55 -22.9 -174.55 -13.8 -177.85 L-11.85 -178.5 -11.0 -179.3 -9.05 -179.35 Q15.6 -186.25 36.6 -170.65 31.25 -176.7 21.2 -181.25 11.05 -185.85 0.4 -186.9 -11.25 -188.05 -19.6 -184.4 -29.15 -180.3 -32.65 -170.65 -36.75 -174.4 -35.05 -178.15 -33.65 -181.1 -28.2 -184.7 -25.1 -186.75 -18.2 -190.7 -12.55 -194.15 -11.0 -196.65 1.95 -195.05 18.2 -186.9 L31.15 -180.4 Q38.75 -176.85 45.25 -175.0 44.4 -173.65 42.55 -172.3 40.4 -170.85 39.4 -170.05 35.8 -167.1 36.6 -162.0 30.35 -162.8 24.3 -165.9 22.35 -166.9 14.2 -172.05 8.15 -175.95 3.45 -177.5 -2.35 -179.45 -9.05 -179.35 L-11.85 -178.5 Q-29.65 -162.7 -71.8 -127.6 -111.1 -94.8 -132.15 -75.45 -119.8 -65.6 -108.1 -61.25 -90.2 -54.6 -84.55 -66.8 -80.4 -45.95 -108.15 -55.7 -117.3 -58.9 -131.2 -66.0 L-149.45 -75.45 Q-133.5 -98.95 -108.9 -119.25 -88.3 -136.25 -58.6 -153.35 -66.65 -144.4 -79.45 -134.15 L-102.1 -116.8 Q-115.5 -106.45 -123.6 -98.25 -134.4 -87.3 -140.8 -75.45 -131.2 -84.6 -114.2 -98.65 -92.35 -116.7 -86.95 -121.45 -55.8 -148.65 -45.6 -170.65 -40.65 -169.2 -40.3 -167.45 -40.0 -166.15 -42.6 -164.25 L-47.45 -161.0 Q-50.1 -159.05 -49.95 -157.7" fill="#373535" fill-rule="evenodd" stroke="none"/>
    <path d="M27.95 -162.0 Q10.85 -142.9 -21.2 -113.8 -58.85 -79.7 -71.55 -66.8 -59.5 -86.9 -28.3 -115.5 -4.9 -136.95 27.95 -162.0" fill="#373535" fill-rule="evenodd" stroke="none"/>
  </g>
</svg>
