<?xml version="1.0" encoding="UTF-8" standalone="no"?>
<svg xmlns:xlink="http://www.w3.org/1999/xlink" height="661.4px" width="1052.9px" xmlns="http://www.w3.org/2000/svg">
  <g transform="matrix(1, 0, 0, 1, 526.45, 330.7)">
    <path d="M-317.9 225.95 Q-315.9 233.2 -312.85 241.0 -308.2 252.95 -302.4 262.8 -296.35 273.0 -287.6 284.4 -286.15 286.25 -285.25 290.05 -284.45 293.3 -282.2 295.2 -278.0 298.7 -272.65 300.35 -269.2 301.45 -269.2 303.2 -269.2 305.3 -270.4 306.8 -272.4 309.2 -277.2 309.2 -283.7 309.2 -290.7 303.15 L-291.2 303.6 Q-293.1 305.2 -295.6 305.2 -305.35 305.2 -323.6 290.0 -340.25 276.1 -345.4 266.6 -350.7 257.0 -354.5 248.7 -358.35 240.35 -359.95 234.75 -366.2 232.2 -368.35 222.3 -369.3 218.2 -369.75 211.15 -370.3 203.7 -370.6 202.0 -371.35 197.8 -375.85 184.95 -379.6 174.25 -379.6 167.8 -379.6 147.65 -382.4 129.65 -385.2 111.65 -385.2 99.4 -385.2 79.15 -379.7 53.7 -377.5 43.6 -367.6 6.4 -364.8 -4.05 -357.1 -16.0 -349.7 -27.55 -338.2 -39.8 -334.45 -43.8 -323.0 -51.2 -310.6 -59.15 -298.6 -64.9 -266.0 -80.55 -266.0 -66.1 -266.0 -63.2 -273.9 -56.2 L-282.6 -48.35 -292.3 -39.25 Q-304.65 -26.55 -313.05 -11.85 -324.0 7.1 -328.4 29.4 L-328.4 46.65 -328.4 65.4 -329.2 71.2 -330.0 77.4 -330.0 110.4 -330.55 111.6 Q-329.55 114.3 -329.8 118.35 -330.1 122.75 -331.25 130.9 L-331.4 131.7 -331.35 134.1 Q-331.3 141.9 -330.5 153.85 L-329.2 175.8 Q-328.8 184.3 -325.25 197.45 -320.05 216.8 -319.6 219.0 L-317.9 225.95 M-279.55 -32.4 Q-275.0 -38.6 -269.25 -44.45 -260.9 -52.95 -252.3 -58.05 -243.95 -63.0 -238.4 -63.0 L-229.75 -63.7 Q-223.05 -64.5 -220.0 -65.2 L-199.2 -65.2 Q-165.55 -61.25 -140.35 -34.95 -118.95 -12.55 -104.55 24.95 -92.8 55.65 -86.8 93.35 -82.0 123.55 -82.0 149.2 L-81.9 172.35 Q-82.05 182.2 -83.15 189.15 -85.35 202.65 -98.4 235.6 -105.55 253.7 -107.15 257.15 -112.9 269.65 -120.2 278.9 -139.5 303.3 -180.0 318.0 L-210.4 318.0 Q-235.6 315.15 -245.3 302.45 -248.3 298.5 -251.45 291.15 -254.9 283.05 -256.8 280.2 -261.45 273.05 -268.35 259.3 -276.75 242.4 -279.8 237.0 -284.7 228.35 -287.3 215.5 -289.65 201.0 -291.4 193.8 -293.4 185.6 -297.55 172.45 L-304.4 150.6 -304.4 90.6 Q-306.3 83.5 -306.65 79.15 L-306.8 69.3 Q-306.8 60.85 -301.2 32.35 -298.3 17.65 -294.6 0.6 L-293.7 -3.1 Q-289.75 -18.55 -279.55 -32.4 M-137.75 19.55 Q-143.4 14.8 -148.95 11.7 -165.0 2.8 -171.4 12.6 -177.3 21.65 -181.2 40.8 -183.05 50.1 -187.4 68.7 -190.8 85.1 -190.8 96.6 -190.8 106.85 -185.2 132.7 L-178.8 160.8 Q-177.55 167.8 -172.05 177.1 -168.45 183.2 -161.4 192.6 L-147.65 211.2 Q-136.85 224.4 -130.8 224.4 -123.6 224.4 -113.2 187.05 -109.15 172.4 -106.35 157.9 -103.6 143.65 -103.6 137.5 -103.6 116.95 -104.0 108.7 -104.7 95.7 -107.05 85.1 -111.8 63.9 -131.6 25.6 -133.15 23.45 -137.75 19.55" fill="#ff9900" fill-rule="evenodd" stroke="none"/>
    <path d="M-137.75 19.55 Q-133.15 23.45 -131.6 25.6 -111.8 63.9 -107.05 85.1 -104.7 95.7 -104.0 108.7 -103.6 116.95 -103.6 137.5 -103.6 143.65 -106.35 157.9 -109.15 172.4 -113.2 187.05 -123.6 224.4 -130.8 224.4 -136.85 224.4 -147.65 211.2 L-161.4 192.6 Q-168.45 183.2 -172.05 177.1 -177.55 167.8 -178.8 160.8 L-185.2 132.7 Q-190.8 106.85 -190.8 96.6 -190.8 85.1 -187.4 68.7 -183.05 50.1 -181.2 40.8 -177.3 21.65 -171.4 12.6 -165.0 2.8 -148.95 11.7 -143.4 14.8 -137.75 19.55" fill="#ffff00" fill-rule="evenodd" stroke="none"/>
    <path d="M-282.6 -48.35 Q-275.6 -51.9 -275.6 -41.2 -275.6 -40.7 -279.55 -32.4 -289.75 -18.55 -293.7 -3.1 -305.1 20.7 -307.6 30.2 -311.75 46.0 -313.75 65.4 -315.6 82.7 -315.6 101.0 -315.6 119.75 -312.35 145.35 -307.4 184.7 -306.8 191.0 -298.05 196.1 -295.0 206.45 -294.3 208.7 -292.9 215.6 -291.7 221.5 -290.4 225.0 -285.3 239.05 -281.85 246.0 -281.0 248.4 -281.0 261.0 -281.0 269.2 -262.7 288.2 L-250.1 300.6 Q-244.4 306.05 -244.4 306.4 -244.4 308.45 -245.6 310.05 -247.35 312.4 -251.2 312.4 -257.4 312.4 -268.55 302.0 -278.05 293.1 -281.8 286.6 -283.75 283.3 -291.0 273.65 -297.75 264.65 -299.8 260.8 -309.75 243.05 -313.85 234.8 L-317.9 225.95 -319.6 219.0 Q-320.05 216.8 -325.25 197.45 -328.8 184.3 -329.2 175.8 L-330.5 153.85 Q-331.3 141.9 -331.35 134.1 L-331.35 133.0 -331.25 130.9 Q-330.1 122.75 -329.8 118.35 -329.55 114.3 -330.55 111.6 L-330.0 110.4 -330.0 77.4 -329.2 71.2 -328.4 65.4 -328.4 46.65 Q-326.8 36.45 -324.2 23.8 -320.2 3.7 -313.05 -11.85 -304.65 -26.55 -292.3 -39.25 L-282.6 -48.35" fill="#cccccc" fill-rule="evenodd" stroke="none"/>
    <path d="M486.0 -22.95 Q469.9 -32.7 451.7 -32.55 433.65 -3.3 392.35 19.4 378.55 27.0 354.95 37.65 324.1 51.65 316.8 55.2 344.0 69.4 376.7 77.75 414.3 87.35 443.95 84.8 478.9 81.75 496.55 61.85 517.05 38.75 512.45 -5.55 507.15 -8.35 499.05 -14.1 L486.0 -22.95 M482.8 -34.7 Q506.75 -22.1 515.6 -12.7 528.85 1.45 525.9 21.45 518.05 74.7 473.3 87.5 437.25 97.85 371.2 82.4 346.4 76.6 311.7 65.9 L252.0 46.85 Q217.3 35.75 196.15 30.3 167.6 23.0 148.15 21.45 121.15 -16.35 134.6 -61.15 145.75 -98.3 181.85 -133.7 122.9 -137.85 85.8 -142.25 34.7 -148.25 -3.55 -157.4 -96.4 -179.65 -141.9 -228.15 -210.1 -227.3 -275.85 -232.1 -342.3 -236.95 -418.5 -248.4 -430.95 -240.5 -437.25 -219.95 -439.5 -212.5 -441.75 -200.85 L-445.5 -180.95 Q-441.05 -191.55 -437.95 -193.85 -435.45 -195.75 -432.6 -192.65 L-427.0 -185.6 Q-423.0 -181.25 -418.5 -180.95 -397.45 -179.55 -358.75 -189.0 -349.2 -191.3 -324.5 -197.95 L-289.35 -206.95 Q-248.25 -216.5 -222.15 -215.25 -188.3 -213.65 -168.9 -194.45 -158.5 -174.6 -157.85 -153.35 -157.2 -132.1 -166.4 -115.55 -176.2 -98.0 -194.75 -90.2 -207.2 -85.0 -222.35 -84.75 -194.2 -80.4 -169.25 -65.3 -137.85 -46.2 -114.55 -12.05 -92.5 20.35 -80.8 61.55 -69.3 102.0 -69.8 143.75 -70.35 186.5 -83.45 222.9 -97.35 261.5 -123.55 287.3 -151.85 315.2 -191.9 325.25 -235.5 336.2 -290.35 325.05 -334.3 308.0 -364.0 255.25 -391.9 205.75 -398.6 141.65 -405.4 76.45 -387.45 21.9 -367.9 -37.7 -324.05 -66.25 -310.5 -75.05 -281.65 -81.45 L-256.45 -86.55 Q-240.45 -89.7 -231.2 -91.95 -202.65 -99.05 -188.35 -109.85 -170.05 -123.75 -168.9 -147.2 -166.85 -188.65 -195.65 -200.85 -218.8 -210.65 -266.0 -202.15 -283.6 -199.0 -308.75 -192.55 L-351.9 -181.1 Q-403.4 -167.45 -425.25 -167.45 -427.2 -155.45 -425.15 -140.5 -424.05 -132.05 -421.05 -116.8 -419.0 -104.05 -420.7 -96.45 -422.9 -86.6 -432.0 -79.75 -445.8 -79.35 -452.45 -88.0 -457.95 -95.2 -459.15 -109.95 -459.9 -118.7 -459.05 -138.7 -458.25 -158.55 -459.0 -167.45 -464.0 -175.6 -475.0 -181.85 -478.5 -183.8 -495.7 -191.45 -508.6 -197.2 -514.95 -202.6 -523.9 -210.2 -526.45 -221.4 -524.7 -234.7 -515.8 -242.8 -508.2 -249.7 -494.5 -253.55 -484.7 -256.25 -467.25 -258.35 L-438.75 -261.9 Q-417.1 -306.15 -372.5 -322.2 -333.0 -336.45 -282.0 -326.85 -235.15 -318.05 -192.3 -292.3 -149.85 -266.75 -128.4 -234.9 -85.3 -220.65 -24.05 -226.2 -2.8 -228.1 28.85 -233.2 L80.55 -241.55 Q109.4 -245.8 129.75 -246.55 155.25 -247.45 175.15 -243.45 191.6 -240.15 205.7 -233.05 209.1 -231.9 212.15 -230.45 221.25 -226.1 226.85 -219.15 239.3 -208.8 249.3 -194.45 251.2 -184.0 248.5 -176.7 246.4 -171.0 240.8 -165.85 L230.55 -157.55 Q224.7 -152.5 222.35 -147.2 273.9 -139.2 324.8 -124.85 370.4 -112.0 418.0 -93.25 424.6 -72.7 444.6 -57.3 452.25 -51.4 463.3 -45.15 467.45 -42.75 482.8 -34.7 M205.7 -233.05 Q186.0 -239.7 152.65 -237.2 126.6 -235.2 80.8 -225.95 31.85 -216.0 19.95 -214.7 2.1 -212.7 -18.7 -214.95 -29.45 -216.1 -53.7 -220.45 -74.6 -224.15 -85.6 -224.7 -102.25 -225.55 -114.95 -221.4 -82.05 -195.75 -45.0 -180.05 -1.85 -161.85 53.7 -153.95 127.0 -143.55 166.95 -146.0 234.7 -150.2 235.85 -187.7 236.45 -207.3 226.85 -219.15 217.05 -227.35 205.7 -233.05 M148.35 -0.4 Q160.7 20.25 195.35 21.45 224.45 -3.15 294.75 -22.5 360.9 -40.7 431.45 -46.0 414.55 -77.85 368.15 -101.1 323.9 -123.3 273.25 -127.95 220.0 -132.9 184.95 -115.5 145.35 -95.95 141.4 -52.75 138.15 -17.5 148.35 -0.4 M395.3 8.75 Q420.3 -8.45 431.45 -32.55 360.4 -28.05 312.0 -17.05 253.2 -3.7 215.6 21.45 243.25 34.25 276.65 37.0 309.0 39.65 340.15 32.35 371.8 24.9 395.3 8.75 M-182.15 -272.3 Q-187.85 -275.8 -195.9 -275.4 -194.35 -264.25 -196.35 -255.6 -198.05 -248.0 -202.65 -241.65 L-189.75 -242.3 -174.85 -240.9 Q-166.4 -240.25 -162.05 -241.55 -156.4 -243.2 -155.4 -248.4 -161.35 -249.75 -166.1 -254.55 -167.6 -256.1 -173.6 -263.9 -178.1 -269.8 -182.15 -272.3 M-202.65 -268.65 Q-209.95 -282.75 -231.6 -290.45 -251.9 -297.6 -275.85 -296.3 -300.7 -294.95 -317.25 -285.0 -335.85 -273.85 -337.55 -255.15 -327.9 -254.55 -301.35 -249.25 -273.45 -243.75 -259.45 -242.45 -236.25 -240.4 -222.85 -245.4 -206.55 -251.5 -202.65 -268.65 M-200.6 -62.7 Q-225.95 -67.9 -246.9 -59.55 -270.1 -50.3 -283.6 -25.8 -301.5 6.8 -303.15 63.55 -304.7 116.7 -291.9 173.0 -278.9 230.15 -256.25 267.35 -231.55 308.0 -202.65 311.55 -155.75 317.25 -126.6 281.75 -101.05 250.7 -92.7 193.55 -85.2 141.7 -93.6 85.05 -101.9 29.25 -121.7 -5.55 -133.75 -26.75 -155.3 -42.3 -176.7 -57.75 -200.6 -62.7 M-257.75 -312.0 Q-267.15 -315.65 -283.5 -319.25 -330.4 -329.6 -357.8 -322.6 -379.85 -316.95 -398.9 -293.55 L-412.6 -275.5 Q-420.0 -265.8 -425.25 -261.9 -416.25 -262.15 -406.4 -260.5 L-389.7 -256.95 Q-368.7 -252.4 -351.05 -255.15 -347.2 -283.85 -317.7 -296.0 -306.35 -300.7 -288.6 -304.05 L-256.6 -309.15 Q-252.85 -308.8 -253.3 -309.65 -253.75 -310.4 -257.75 -312.0 M-492.65 -194.3 Q-480.7 -188.0 -467.5 -193.75 -454.6 -199.35 -446.55 -213.75 -437.9 -229.2 -438.75 -248.4 L-463.75 -248.1 Q-478.4 -247.85 -487.1 -246.15 -511.25 -241.5 -512.95 -221.4 -505.9 -201.35 -492.65 -194.3 M-451.6 -154.05 Q-454.15 -139.95 -453.6 -126.95 -452.95 -111.9 -448.15 -103.25 -442.6 -93.1 -432.0 -93.25 -431.25 -123.35 -433.2 -139.25 -436.05 -162.35 -445.5 -174.2 -449.2 -167.2 -451.6 -154.05 M-317.3 -5.55 Q-307.6 -25.8 -297.35 -39.55 -285.1 -56.05 -270.1 -66.25 -282.45 -67.15 -294.1 -61.3 -304.85 -55.85 -312.3 -46.05 -319.65 -36.35 -321.2 -25.75 -322.85 -14.45 -317.3 -5.55 M-304.75 -18.3 Q-317.2 1.1 -303.85 14.7 -304.95 6.05 -300.35 -4.05 -297.65 -10.05 -290.4 -20.75 -283.7 -30.7 -282.1 -34.9 -279.5 -41.8 -283.6 -46.0 -285.6 -42.2 -293.15 -33.3 -301.45 -23.5 -304.75 -18.3 M-324.05 28.2 Q-336.55 127.5 -320.75 199.2 -301.5 286.4 -243.1 311.55 -265.85 292.8 -282.5 262.5 -298.6 233.15 -307.5 195.85 -316.3 158.85 -317.15 117.9 -318.0 76.25 -310.55 34.95 -312.9 26.65 -324.05 28.2 M-333.0 54.75 Q-334.9 1.15 -344.3 -25.8 -367.3 10.9 -374.85 67.75 -382.1 122.55 -372.55 176.2 -362.55 232.3 -337.55 266.35 -309.9 304.05 -270.1 304.8 -302.25 285.55 -316.9 241.75 -328.2 207.9 -330.9 151.15 -331.7 133.4 -332.1 102.3 -332.55 67.8 -333.0 54.75 M-222.35 -84.75 Q-232.5 -86.35 -243.1 -86.5 -232.15 -84.6 -222.35 -84.75" fill="#373535" fill-rule="evenodd" stroke="none"/>
    <path d="M-127.0 38.65 Q-141.95 13.95 -165.5 8.6 -168.85 11.6 -171.85 15.15 -180.5 37.6 -183.95 64.35 -188.05 95.95 -183.85 126.15 -179.35 158.35 -166.15 182.85 -151.65 209.65 -128.4 223.85 -115.6 202.3 -110.1 167.55 -104.55 132.8 -108.5 98.85 -112.75 62.15 -127.0 38.65 M-165.5 8.6 Q-160.8 4.4 -155.4 1.2 -132.95 9.85 -118.3 39.95 -104.95 67.45 -101.25 105.55 -97.65 142.75 -104.5 176.3 -111.75 211.75 -128.4 230.6 -154.65 220.7 -172.75 188.7 -189.55 159.05 -194.25 120.35 -198.95 81.5 -189.55 49.75 -183.3 28.6 -171.85 15.15 L-168.9 7.95 -165.5 8.6" fill="#373535" fill-rule="evenodd" stroke="none"/>
  </g>
</svg>
