<?xml version="1.0" encoding="UTF-8" standalone="no"?>
<svg xmlns:xlink="http://www.w3.org/1999/xlink" height="488.05px" width="532.1px" xmlns="http://www.w3.org/2000/svg">
  <g transform="matrix(1, 0, 0, 1, 266.05, 244.0)">
    <path d="M249.15 -215.1 L249.15 215.15 Q249.15 220.1 245.65 223.65 242.1 227.15 237.15 227.15 L-237.15 227.15 Q-242.15 227.15 -245.65 223.65 -249.15 220.1 -249.15 215.15 L-249.15 -215.1 Q-249.15 -220.1 -245.65 -223.6 -242.15 -227.1 -237.15 -227.1 L237.15 -227.1 Q242.1 -227.1 245.65 -223.6 249.15 -220.1 249.15 -215.1" fill="#cccccc" fill-rule="evenodd" stroke="none"/>
    <path d="M249.15 -215.1 L249.15 215.15 Q249.15 220.1 245.65 223.65 242.1 227.15 237.15 227.15 L-237.15 227.15 Q-242.15 227.15 -245.65 223.65 -249.15 220.1 -249.15 215.15 L-249.15 -215.1 Q-249.15 -220.1 -245.65 -223.6 -242.15 -227.1 -237.15 -227.1 L237.15 -227.1 Q242.1 -227.1 245.65 -223.6 249.15 -220.1 249.15 -215.1" fill="none" stroke="#373535" stroke-linecap="butt" stroke-linejoin="miter" stroke-miterlimit="2560" stroke-width="33.800000000000004"/>
  </g>
</svg>
