<?xml version="1.0" encoding="UTF-8" standalone="no"?>
<svg xmlns:xlink="http://www.w3.org/1999/xlink" height="240.1px" width="520.45px" xmlns="http://www.w3.org/2000/svg">
  <g transform="matrix(1, 0, 0, 1, 260.2, 120.05)">
    <path d="M234.45 45.25 Q215.15 66.15 179.9 82.2 144.7 98.3 99.05 107.15 51.75 116.25 0.0 116.25 -51.75 116.25 -99.0 107.15 -144.7 98.3 -179.9 82.2 -215.1 66.15 -234.4 45.25 -254.4 23.65 -254.4 0.0 -254.4 -23.65 -234.4 -45.25 -215.1 -66.1 -179.9 -82.2 -144.7 -98.3 -99.0 -107.15 -51.75 -116.25 0.0 -116.25 51.75 -116.25 99.05 -107.15 144.7 -98.3 179.9 -82.2 215.15 -66.1 234.45 -45.25 254.45 -23.65 254.45 0.0 254.45 23.65 234.45 45.25" fill="url(#gradient0)" fill-rule="evenodd" stroke="none"/>
    <path d="M234.45 45.25 Q215.15 66.15 179.9 82.2 144.7 98.3 99.05 107.15 51.75 116.25 0.0 116.25 -51.75 116.25 -99.0 107.15 -144.7 98.3 -179.9 82.2 -215.1 66.15 -234.4 45.25 -254.4 23.65 -254.4 0.0 -254.4 -23.65 -234.4 -45.25 -215.1 -66.1 -179.9 -82.2 -144.7 -98.3 -99.0 -107.15 -51.75 -116.25 0.0 -116.25 51.75 -116.25 99.05 -107.15 144.7 -98.3 179.9 -82.2 215.15 -66.1 234.45 -45.25 254.45 -23.65 254.45 0.0 254.45 23.65 234.45 45.25" fill="none" stroke="#373535" stroke-linecap="butt" stroke-linejoin="miter" stroke-miterlimit="2560" stroke-width="7.6000000000000005"/>
  </g>
  <defs>
    <radialGradient cx="0" cy="0" gradientTransform="matrix(0.3106, 0.0, 0.0, -0.1419, 0.0, 0.0)" gradientUnits="userSpaceOnUse" id="gradient0" r="819.2" spreadMethod="pad">
      <stop offset="0.0" stop-color="#91c84b"/>
      <stop offset="1.0" stop-color="#256e46"/>
    </radialGradient>
  </defs>
</svg>
