<?xml version="1.0" encoding="UTF-8" standalone="no"?>
<svg xmlns:xlink="http://www.w3.org/1999/xlink" height="102.7px" width="105.0px" xmlns="http://www.w3.org/2000/svg">
  <g transform="matrix(1, 0, 0, 1, 54.55, 50.1)">
    <path d="M32.65 -33.75 Q39.45 -26.9 43.2 -18.0 47.05 -8.8 47.05 1.25 47.05 11.3 43.2 20.5 39.45 29.4 32.65 36.25 25.9 43.1 17.05 46.85 7.95 50.75 -2.05 50.75 -12.05 50.75 -21.15 46.85 -30.0 43.1 -36.8 36.25 -43.55 29.4 -47.3 20.5 -51.15 11.3 -51.15 1.25 -51.15 -8.8 -47.3 -18.0 -43.55 -26.9 -36.8 -33.75 -30.0 -40.6 -21.15 -44.35 -12.05 -48.25 -2.05 -48.25 7.95 -48.25 17.05 -44.35 25.9 -40.6 32.65 -33.75" fill="url(#gradient0)" fill-rule="evenodd" stroke="none"/>
    <path d="M32.65 -33.75 Q39.45 -26.9 43.2 -18.0 47.05 -8.8 47.05 1.25 47.05 11.3 43.2 20.5 39.45 29.4 32.65 36.25 25.9 43.1 17.05 46.85 7.95 50.75 -2.05 50.75 -12.05 50.75 -21.15 46.85 -30.0 43.1 -36.8 36.25 -43.55 29.4 -47.3 20.5 -51.15 11.3 -51.15 1.25 -51.15 -8.8 -47.3 -18.0 -43.55 -26.9 -36.8 -33.75 -30.0 -40.6 -21.15 -44.35 -12.05 -48.25 -2.05 -48.25 7.95 -48.25 17.05 -44.35 25.9 -40.6 32.65 -33.75" fill="none" stroke="#373535" stroke-linecap="butt" stroke-linejoin="miter" stroke-miterlimit="2560" stroke-width="3.75"/>
  </g>
  <defs>
    <radialGradient cx="0" cy="0" gradientTransform="matrix(0.06, 0.0, 0.0, -0.0604, -2.05, 1.25)" gradientUnits="userSpaceOnUse" id="gradient0" r="819.2" spreadMethod="pad">
      <stop offset="0.0" stop-color="#3aace2"/>
      <stop offset="1.0" stop-color="#3c4693"/>
    </radialGradient>
  </defs>
</svg>
