<?xml version="1.0" encoding="UTF-8" standalone="no"?>
<svg xmlns:xlink="http://www.w3.org/1999/xlink" height="22.0px" width="152.0px" xmlns="http://www.w3.org/2000/svg">
  <g transform="matrix(1, 0, 0, 1, 0.0, 0.0)">
    <path d="M0.0 1.0 L1.0 1.0 1.0 1.5 1.0 20.0 1.0 21.0 1.0 22.0 0.0 22.0 0.0 20.0 0.0 1.5 0.0 1.0 M151.0 1.0 L151.0 0.0 152.0 0.0 152.0 1.5 152.0 20.0 152.0 22.0 151.0 22.0 151.0 21.0 151.0 20.0 151.0 1.5 151.0 1.0" fill="#c9cbcc" fill-rule="evenodd" stroke="none"/>
    <path d="M151.0 22.0 L150.1 22.0 1.5 22.0 1.0 22.0 1.0 21.0 1.5 21.0 150.1 21.0 151.0 21.0 151.0 22.0" fill="#d3d5d6" fill-rule="evenodd" stroke="none"/>
    <path d="M0.0 1.0 L0.0 0.0 1.5 0.0 150.1 0.0 151.0 0.0 151.0 1.0 150.1 1.0 1.5 1.0 1.0 1.0 0.0 1.0" fill="#6d6f70" fill-rule="evenodd" stroke="none"/>
    <path d="M1.0 1.0 L1.5 1.0 150.1 1.0 151.0 1.0 151.0 1.5 151.0 20.0 151.0 21.0 150.1 21.0 1.5 21.0 1.0 21.0 1.0 20.0 1.0 1.5 1.0 1.0" fill="#ffffff" fill-rule="evenodd" stroke="none"/>
  </g>
</svg>
