<?xml version="1.0" encoding="UTF-8" standalone="no"?>
<svg xmlns:xlink="http://www.w3.org/1999/xlink" height="22.0px" width="152.0px" xmlns="http://www.w3.org/2000/svg">
  <g transform="matrix(1, 0, 0, 1, 0.0, 0.0)">
    <path d="M1.0 21.0 L151.0 21.0 151.0 1.0 1.0 1.0 1.0 21.0 M0.0 0.0 L0.95 0.0 151.0 0.0 152.0 0.0 152.0 0.95 152.0 21.05 152.0 22.0 151.0 22.0 0.95 22.0 0.0 22.0 0.0 21.05 0.0 0.95 0.0 0.0" fill="url(#gradient0)" fill-rule="evenodd" stroke="none"/>
    <path d="M1.0 21.0 L1.0 1.0 151.0 1.0 151.0 21.0 1.0 21.0" fill="url(#gradient1)" fill-rule="evenodd" stroke="none"/>
    <path d="M1.0 12.0 L1.0 1.0 151.0 1.0 151.0 12.0 1.0 12.0" fill="url(#gradient2)" fill-rule="evenodd" stroke="none"/>
  </g>
  <defs>
    <linearGradient gradientTransform="matrix(0.0, -0.0079, 0.0079, 0.0, 8.5, 14.45)" gradientUnits="userSpaceOnUse" id="gradient0" spreadMethod="pad" x1="-819.2" x2="819.2">
      <stop offset="0.0" stop-color="#5b5d5e" stop-opacity="0.29803923"/>
      <stop offset="1.0" stop-color="#b7babc" stop-opacity="0.29803923"/>
    </linearGradient>
    <linearGradient gradientTransform="matrix(0.0, -0.0139, 0.0139, 0.0, 63.5, 11.25)" gradientUnits="userSpaceOnUse" id="gradient1" spreadMethod="pad" x1="-819.2" x2="819.2">
      <stop offset="0.0" stop-color="#cccccc" stop-opacity="0.2"/>
      <stop offset="1.0" stop-color="#ffffff" stop-opacity="0.29803923"/>
    </linearGradient>
    <linearGradient gradientTransform="matrix(0.0, -0.0071, 0.104, 0.0, 63.5, 6.65)" gradientUnits="userSpaceOnUse" id="gradient2" spreadMethod="pad" x1="-819.2" x2="819.2">
      <stop offset="0.0" stop-color="#eeeeee" stop-opacity="0.0"/>
      <stop offset="1.0" stop-color="#ffffff" stop-opacity="0.2"/>
    </linearGradient>
  </defs>
</svg>
