<?xml version="1.0" encoding="UTF-8" standalone="no"?>
<svg xmlns:xlink="http://www.w3.org/1999/xlink" height="22.05px" width="152.0px" xmlns="http://www.w3.org/2000/svg">
  <g transform="matrix(1, 0, 0, 1, 0.0, 0.0)">
    <path d="M0.0 0.95 L0.0 0.05 0.95 0.05 151.05 0.05 152.0 0.05 152.0 0.95 152.0 21.05 152.0 22.05 151.05 22.05 0.95 22.05 0.0 22.05 0.0 21.05 0.0 0.95" fill="#ffffff" fill-rule="evenodd" stroke="none"/>
    <path d="M0.0 1.0 L0.0 0.95 0.0 0.0 0.95 0.0 151.05 0.0 152.0 0.0 152.0 0.95 152.0 1.0 151.05 1.0 151.0 1.0 1.0 1.0 0.95 1.0 0.0 1.0 M152.0 20.75 L152.0 21.05 152.0 22.0 151.05 22.0 0.95 22.0 0.0 22.0 0.0 21.05 0.0 20.75 0.95 20.75 1.0 20.75 1.0 21.0 151.0 21.0 151.0 20.75 151.05 20.75 152.0 20.75" fill="url(#gradient0)" fill-rule="evenodd" stroke="none"/>
    <path d="M0.0 1.0 L0.95 1.0 1.0 1.0 1.0 20.75 0.95 20.75 0.0 20.75 0.0 1.0 M151.0 1.0 L151.05 1.0 152.0 1.0 152.0 20.75 151.05 20.75 151.0 20.75 151.0 1.0" fill="#b7babc" fill-rule="evenodd" stroke="none"/>
  </g>
  <defs>
    <linearGradient gradientTransform="matrix(0.0, 0.0079, -0.0079, 0.0, 143.5, 7.55)" gradientUnits="userSpaceOnUse" id="gradient0" spreadMethod="pad" x1="-819.2" x2="819.2">
      <stop offset="0.0" stop-color="#5b5d5e"/>
      <stop offset="1.0" stop-color="#b7babc"/>
    </linearGradient>
  </defs>
</svg>
