<?xml version="1.0" encoding="UTF-8" standalone="no"?>
<svg xmlns:xlink="http://www.w3.org/1999/xlink" height="22.05px" width="152.0px" xmlns="http://www.w3.org/2000/svg">
  <g transform="matrix(1, 0, 0, 1, 0.0, 0.0)">
    <path d="M0.0 0.95 L0.0 0.05 0.95 0.05 151.0 0.05 152.0 0.05 152.0 0.95 152.0 21.05 152.0 22.05 151.0 22.05 0.95 22.05 0.0 22.05 0.0 21.05 0.0 0.95" fill="#ffffff" fill-opacity="0.29803923" fill-rule="evenodd" stroke="none"/>
    <path d="M1.0 21.0 L151.0 21.0 151.0 1.0 1.0 1.0 1.0 21.0 M0.0 0.0 L0.95 0.0 151.0 0.0 152.0 0.0 152.0 0.95 152.0 21.05 152.0 22.0 151.0 22.0 0.95 22.0 0.0 22.0 0.0 21.05 0.0 0.95 0.0 0.0" fill="url(#gradient0)" fill-rule="evenodd" stroke="none"/>
  </g>
  <defs>
    <linearGradient gradientTransform="matrix(0.0, 0.0079, -0.0079, 0.0, 143.5, 7.55)" gradientUnits="userSpaceOnUse" id="gradient0" spreadMethod="pad" x1="-819.2" x2="819.2">
      <stop offset="0.0" stop-color="#5b5d5e" stop-opacity="0.29803923"/>
      <stop offset="1.0" stop-color="#b7babc" stop-opacity="0.29803923"/>
    </linearGradient>
  </defs>
</svg>
