<?xml version="1.0" encoding="UTF-8" standalone="no"?>
<svg xmlns:xlink="http://www.w3.org/1999/xlink" height="13.55px" width="22.5px" xmlns="http://www.w3.org/2000/svg">
  <g transform="matrix(1, 0, 0, 1, 11.25, 6.8)">
    <path d="M6.05 -3.1 L9.15 0.0 6.1 3.1 6.1 0.45 -6.1 0.45 -6.1 3.05 -9.15 -0.05 -6.1 -3.1 -6.1 -0.5 6.05 -0.5 6.05 -3.1" fill="#000000" fill-rule="evenodd" stroke="none"/>
    <path d="M6.05 -3.1 L9.15 0.0 6.1 3.1 6.1 0.45 -6.1 0.45 -6.1 3.05 -9.15 -0.05 -6.1 -3.1 -6.1 -0.5 6.05 -0.5 6.05 -3.1" fill="none" stroke="#ffffff" stroke-linecap="square" stroke-linejoin="miter" stroke-miterlimit="768" stroke-width="3.0"/>
    <path d="M6.05 -3.1 L9.15 0.0 6.1 3.1 6.1 0.45 -6.1 0.45 -6.1 3.05 -9.15 -0.05 -6.1 -3.1 -6.1 -0.5 6.05 -0.5 6.05 -3.1" fill="#000000" fill-rule="evenodd" stroke="none"/>
    <path d="M6.05 -3.1 L9.15 0.0 6.1 3.1 6.1 0.45 -6.1 0.45 -6.1 3.05 -9.15 -0.05 -6.1 -3.1 -6.1 -0.5 6.05 -0.5 6.05 -3.1" fill="none" stroke="#000000" stroke-linecap="square" stroke-linejoin="miter" stroke-miterlimit="768" stroke-width="0.05"/>
  </g>
</svg>
