<?xml version="1.0" encoding="UTF-8" standalone="no"?>
<svg xmlns:xlink="http://www.w3.org/1999/xlink" height="191.0px" width="272.0px" xmlns="http://www.w3.org/2000/svg">
  <g transform="matrix(1, 0, 0, 1, 0.0, 0.0)">
    <path d="M1.15 1.15 Q2.3 0.0 4.0 0.0 L268.0 0.0 Q269.65 0.0 270.85 1.15 272.0 2.3 272.0 4.0 L272.0 6.95 272.0 187.0 272.0 191.0 268.0 191.0 3.95 191.0 0.0 191.0 0.0 187.0 0.0 6.95 0.0 4.0 Q0.0 2.3 1.15 1.15" fill="#ffffff" fill-opacity="0.6" fill-rule="evenodd" stroke="none"/>
    <path d="M1.15 1.15 Q0.0 2.3 0.0 4.0 L0.0 6.95 0.0 187.0 0.0 191.0 3.95 191.0 268.0 191.0 272.0 191.0 272.0 187.0 272.0 6.95 272.0 4.0 Q272.0 2.3 270.85 1.15 269.65 0.0 268.0 0.0 L4.0 0.0 Q2.3 0.0 1.15 1.15" fill="none" stroke="#cccccc" stroke-linecap="round" stroke-linejoin="round" stroke-width="0.05"/>
  </g>
</svg>
