<?xml version="1.0" encoding="UTF-8" standalone="no"?>
<svg xmlns:xlink="http://www.w3.org/1999/xlink" height="29.4px" width="31.1px" xmlns="http://www.w3.org/2000/svg">
  <g transform="matrix(1, 0, 0, 1, -83.85, -58.45)">
    <path d="M95.4 60.3 Q96.9 61.8 96.9 63.9 96.9 66.0 95.4 67.5 93.9 69.0 91.75 69.05 89.65 69.05 88.15 67.55 86.6 66.0 86.6 63.9 86.65 61.75 88.15 60.25 89.65 58.75 91.75 58.75 93.85 58.75 95.4 60.3" fill="url(#gradient0)" fill-rule="evenodd" stroke="none"/>
    <path d="M91.45 69.15 Q92.75 70.45 92.75 72.25 92.75 74.15 91.45 75.45 90.15 76.75 88.3 76.7 86.45 76.75 85.15 75.45 83.8 74.1 83.85 72.25 83.85 70.45 85.15 69.15 86.45 67.85 88.3 67.8 90.1 67.8 91.45 69.15" fill="url(#gradient1)" fill-rule="evenodd" stroke="none"/>
    <path d="M94.8 77.6 Q95.95 78.75 96.0 80.4 95.95 82.05 94.8 83.2 93.6 84.4 92.0 84.4 90.3 84.4 89.15 83.25 87.95 82.05 88.0 80.4 87.95 78.75 89.15 77.55 90.3 76.4 92.0 76.4 93.6 76.4 94.8 77.6" fill="url(#gradient2)" fill-rule="evenodd" stroke="none"/>
    <path d="M102.8 81.4 Q103.9 82.5 103.9 84.1 103.95 85.65 102.8 86.8 101.7 87.9 100.15 87.85 98.55 87.85 97.45 86.75 96.35 85.65 96.35 84.05 96.35 82.55 97.45 81.45 98.55 80.35 100.1 80.3 101.7 80.3 102.8 81.4" fill="url(#gradient3)" fill-rule="evenodd" stroke="none"/>
    <path d="M110.8 78.3 Q111.75 79.25 111.75 80.65 111.75 81.95 110.8 82.9 109.8 83.9 108.5 83.9 107.1 83.9 106.15 82.95 105.2 82.0 105.25 80.65 105.2 79.3 106.2 78.3 107.15 77.35 108.5 77.4 109.85 77.35 110.8 78.3" fill="url(#gradient4)" fill-rule="evenodd" stroke="none"/>
    <path d="M114.05 70.15 Q114.9 71.0 114.95 72.25 115.0 73.5 114.1 74.4 113.2 75.3 111.95 75.25 110.7 75.3 109.8 74.4 108.9 73.5 108.95 72.25 108.9 71.0 109.8 70.1 110.7 69.2 111.95 69.25 113.15 69.25 114.05 70.15" fill="url(#gradient5)" fill-rule="evenodd" stroke="none"/>
    <path d="M110.2 62.2 Q110.9 62.9 110.95 63.85 110.9 64.9 110.2 65.6 109.5 66.3 108.45 66.35 107.45 66.35 106.75 65.65 106.05 64.95 106.0 63.9 106.05 62.85 106.75 62.15 107.45 61.45 108.5 61.4 109.5 61.5 110.2 62.2" fill="url(#gradient6)" fill-rule="evenodd" stroke="none"/>
    <path d="M101.55 59.05 Q102.15 59.65 102.15 60.45 102.15 61.35 101.6 61.9 101.0 62.5 100.1 62.5 99.3 62.5 98.7 61.9 98.1 61.3 98.1 60.5 98.1 59.6 98.7 59.0 99.3 58.4 100.15 58.45 100.95 58.45 101.55 59.05" fill="url(#gradient7)" fill-rule="evenodd" stroke="none"/>
  </g>
  <defs>
    <radialGradient cx="0" cy="0" gradientTransform="matrix(0.0044, -0.0044, -0.0044, -0.0044, 91.85, 63.85)" gradientUnits="userSpaceOnUse" id="gradient0" r="819.2" spreadMethod="pad">
      <stop offset="0.0" stop-color="#005773"/>
      <stop offset="0.16862745098039217" stop-color="#257088"/>
      <stop offset="0.5450980392156862" stop-color="#84aebc"/>
      <stop offset="1.0" stop-color="#ffffff"/>
    </radialGradient>
    <radialGradient cx="0" cy="0" gradientTransform="matrix(0.0038, -0.0038, -0.0038, -0.0038, 88.4, 72.2)" gradientUnits="userSpaceOnUse" id="gradient1" r="819.2" spreadMethod="pad">
      <stop offset="0.0" stop-color="#005773"/>
      <stop offset="0.16862745098039217" stop-color="#257088"/>
      <stop offset="0.5450980392156862" stop-color="#84aebc"/>
      <stop offset="1.0" stop-color="#ffffff"/>
    </radialGradient>
    <radialGradient cx="0" cy="0" gradientTransform="matrix(0.0034, -0.0034, -0.0034, -0.0034, 92.0, 80.4)" gradientUnits="userSpaceOnUse" id="gradient2" r="819.2" spreadMethod="pad">
      <stop offset="0.0" stop-color="#005773"/>
      <stop offset="0.16862745098039217" stop-color="#257088"/>
      <stop offset="0.5450980392156862" stop-color="#84aebc"/>
      <stop offset="1.0" stop-color="#ffffff"/>
    </radialGradient>
    <radialGradient cx="0" cy="0" gradientTransform="matrix(0.0033, -0.0033, -0.0033, -0.0033, 100.2, 84.0)" gradientUnits="userSpaceOnUse" id="gradient3" r="819.2" spreadMethod="pad">
      <stop offset="0.0" stop-color="#005773"/>
      <stop offset="0.16862745098039217" stop-color="#257088"/>
      <stop offset="0.5450980392156862" stop-color="#84aebc"/>
      <stop offset="1.0" stop-color="#ffffff"/>
    </radialGradient>
    <radialGradient cx="0" cy="0" gradientTransform="matrix(0.0028, -0.0028, -0.0028, -0.0028, 108.55, 80.55)" gradientUnits="userSpaceOnUse" id="gradient4" r="819.2" spreadMethod="pad">
      <stop offset="0.0" stop-color="#005773"/>
      <stop offset="0.16862745098039217" stop-color="#257088"/>
      <stop offset="0.5450980392156862" stop-color="#84aebc"/>
      <stop offset="1.0" stop-color="#ffffff"/>
    </radialGradient>
    <radialGradient cx="0" cy="0" gradientTransform="matrix(0.0026, -0.0026, -0.0026, -0.0026, 112.0, 72.2)" gradientUnits="userSpaceOnUse" id="gradient5" r="819.2" spreadMethod="pad">
      <stop offset="0.0" stop-color="#005773"/>
      <stop offset="0.16862745098039217" stop-color="#257088"/>
      <stop offset="0.5450980392156862" stop-color="#84aebc"/>
      <stop offset="1.0" stop-color="#ffffff"/>
    </radialGradient>
    <radialGradient cx="0" cy="0" gradientTransform="matrix(0.0021, -0.0021, -0.0021, -0.0021, 108.5, 63.9)" gradientUnits="userSpaceOnUse" id="gradient6" r="819.2" spreadMethod="pad">
      <stop offset="0.0" stop-color="#005773"/>
      <stop offset="0.16862745098039217" stop-color="#257088"/>
      <stop offset="0.5450980392156862" stop-color="#84aebc"/>
      <stop offset="1.0" stop-color="#ffffff"/>
    </radialGradient>
    <radialGradient cx="0" cy="0" gradientTransform="matrix(0.0017, -0.0017, -0.0017, -0.0017, 100.15, 60.45)" gradientUnits="userSpaceOnUse" id="gradient7" r="819.2" spreadMethod="pad">
      <stop offset="0.0" stop-color="#005773"/>
      <stop offset="0.16862745098039217" stop-color="#257088"/>
      <stop offset="0.5450980392156862" stop-color="#84aebc"/>
      <stop offset="1.0" stop-color="#ffffff"/>
    </radialGradient>
  </defs>
</svg>
