<?xml version="1.0" encoding="utf-8"?>
<!-- Generator: Adobe Illustrator 19.1.0, SVG Export Plug-In . SVG Version: 6.00 Build 0)  -->
<svg version="1.1" id="Layer_1" xmlns="http://www.w3.org/2000/svg" xmlns:xlink="http://www.w3.org/1999/xlink" x="0px" y="0px"
	 viewBox="0 0 800 600" style="enable-background:new 0 0 800 600;" xml:space="preserve">
<style type="text/css">
	.st0{opacity:0.37;fill:#FFFFFF;}
	.st1{fill:#24130D;}
	.st2{font-family:'BebasNeue';}
	.st3{font-size:79.1751px;}
	.st4{fill:#997F58;}
	.st5{fill-rule:evenodd;clip-rule:evenodd;fill:#010101;}
	.st6{fill-rule:evenodd;clip-rule:evenodd;fill:#FFCD05;}
	.st7{fill-rule:evenodd;clip-rule:evenodd;fill:#49B749;}
	.st8{fill-rule:evenodd;clip-rule:evenodd;fill:#ED2024;}
	.st9{fill-rule:evenodd;clip-rule:evenodd;fill:#0F8140;}
	.st10{fill-rule:evenodd;clip-rule:evenodd;fill:#7D287D;}
	.st11{font-size:31.3574px;}
	.st12{fill-rule:evenodd;clip-rule:evenodd;fill:#F26822;}
	.st13{font-size:31.3617px;}
	.st14{fill-rule:evenodd;clip-rule:evenodd;fill:#038181;}
	.st15{font-size:17.5303px;}
	.st16{fill:#998058;}
	.st17{fill:#25130D;}
	.st18{font-size:42.5899px;}
	.st19{fill:#FFFFFF;}
</style>
<g>
	
		<image style="overflow:visible;enable-background:new    ;" width="1277" height="829" xlink:href="8C6286A4.png"  transform="matrix(0.7652 0 0 0.7656 -43.8776 -34.6496)">
	</image>
</g>
<rect x="19.4" y="89.1" class="st0" width="761.2" height="440.8"/>
<text transform="matrix(1 0 0 1 29.0611 76.544)" class="st1 st2 st3">CRÉDITOS</text>
<text transform="matrix(1 0 0 1 33.4489 74.5441)" class="st4 st2 st3">CRÉDITOS</text>
<g>
	<path class="st5" d="M57.8,331.9c-0.6-0.1-1.1-0.3-1.2-0.5c-0.3,0.5-1.3,1-2.8,1.6c-1.3,0.5-2.2,1.2-2.3,2.1
		c0.3,0.3,0.9,0.6,1.8,0.9c0.9,0.3,1.5,0.6,1.9,1c1.2,1.2,2,3.3,2.3,6.3l0.3,4c0.1,1.6,0.4,3,0.7,4.1c0.1,0.4,0.3,1,0.6,1.7l0.5,1.2
		c0.1,1.4-0.1,2.8-0.5,4.3c-0.3,1-0.8,2.2-1.4,3.5c1.2-0.7,2.3-2,3.4-3.8c1.5-2.5,2.4-3.9,2.9-4.4c0.2-1.4,0.1-2.7-0.2-3.7l-1.3-2.9
		c-0.5-1.4-0.9-4.3-1.3-8.5c-0.3-3.3-1-5.4-2-6.3C59,332.3,58.5,332.1,57.8,331.9 M57.3,330.6l2,1.3c0.9,0.5,1.4,1.1,1.7,1.6
		c0.4,0.8,0.7,2.2,0.8,4.2l0.3,4.6c0.1,1.4,0.7,3.3,1.7,5.9c0.7,2.1,1.1,3.7,0.9,4.8c-0.1,0.9-0.9,2.5-2.2,4.8
		c-1.3,2.2-2.4,3.7-3.3,4.4l-1.6,1l-1.7,0.9l-1.5,1l-1.4,0.8l-1.8-0.2l-1.1-0.9c-1.2,0.9-3.3,1.3-6.4,1.2c-3-0.1-5.3-0.7-6.9-1.5
		c-1-0.6-1.9-1.6-2.8-3.3c-1-1.6-1.7-2.6-2.3-3.1c-0.2-7.7-0.2-12.8,0-15.4c0.5-5.8,2-9.8,4.4-11.9c1.1,0,2.5-0.5,4.4-1.4
		c1.9-0.9,3.3-1.4,4.4-1.5l2.4,0.3c1.1,0.3,1.9,0.4,2.4,0.4l2.8-0.7c1.2-0.3,2.2-0.2,2.7,0.3c0.5,0,0.8,0.2,1.1,0.7L57.3,330.6
		 M55.5,339.1l-1.2-1.5l-1-1.1c-0.6-0.2-2-0.4-4.4-0.6l-4.5,0.2c-1.8,0.8-2.7,2.4-2.8,4.8c0,0.7,0,1.9,0.1,3.5l0.1,3.9
		c0,0.7-0.2,1.8-0.5,3.4c-0.2,1.3-0.3,2.2-0.2,2.8c0.3,1.7,1.9,3.8,4.8,6.5c3,2.7,5.3,4,7,3.9c1.3-0.1,2.6-1,3.8-2.6
		c1.2-1.8,2-3.9,2.1-6.2c0-0.8-0.2-1.9-0.7-3.5l-0.9-3.5l-0.5-5.6C56.6,341.6,56.2,340.2,55.5,339.1 M36,332.5l-0.2,0.5l0.2-0.1
		l1.8-0.6l1.9-0.5c0.3,0,0.8,0.1,1.2,0.5c0.4,0.3,0.9,0.4,1.3,0.3c1.5-1.5,4-2.5,7.4-3c-1.2-0.6-2.8-0.9-4.6-0.8
		c-2,0.1-3.3,0.6-3.9,1.5l0.8,0.1c0.3,0.1,0.4,0.3,0.3,0.6c-1.2,0-2.2,0-3,0l-2.6,0.3C36.7,331.9,36.4,332.3,36,332.5 M37.8,332.8
		c-0.6,0.1-1.5,0.6-2.6,1.4c-1.1,0.7-1.7,1.2-1.9,1.6c-0.6,1-1,2.6-1.1,4.7c0,1.2,0,3.3,0,6.4l-0.4,5.4c-0.1,2-0.1,3.4,0,4.2
		c0.1,0.8,0.5,1.4,0.9,2.1l1.3,1.6c1,1.4,1.8,2.3,2.3,2.8c1,1.1,1.9,1.3,2.5,0.9c-2.4-1.3-4.2-4.4-5.2-9.4c-0.8-4-1-8.2-0.7-12.7
		c0.1-1.4,0.7-3,1.8-4.7c1.1-1.6,2.1-2.6,3.1-3l1.9-0.1c0.8,0,1.3-0.2,1.7-0.6l-1.8-0.5L37.8,332.8 M34.1,339.4c0,4.1,0,7.3,0,9.6
		c0.1,3.4,0.3,6.4,0.8,8.8c1.7,2.3,3.1,4,4.2,5.1c2.1,1.9,4.1,2.8,6.1,2.7l1.7-0.3c0.7-0.2,1.2-0.6,1.6-1.1l-2.1-2.1l-2.5-2.2
		c-2.1-2-3.3-3.7-3.5-5.3c-0.1-0.5,0-1.5,0.2-2.9c0.3-1.6,0.5-2.9,0.5-3.7l-0.3-4.2c-0.1-1.6-0.2-2.8,0-3.5c0.1-0.9,0.6-1.9,1.3-2.9
		l1.6-2.3c-2.1-1.1-4-1-5.9,0.2C36.4,336.2,35.1,337.6,34.1,339.4 M49.6,333.9c-0.6,0.6-1.5,0.7-2.8,0.4c-0.9-0.2-1.8-0.6-2.8-1.1
		c-0.1-0.3,0.1-0.7,0.5-1.1c0.3-0.4,0.3-0.6-0.1-0.8c-0.9,0.6-1.2,1.1-1.1,1.7c0.1,0.5,0.5,0.9,1.3,1.3c0.7,0.3,1.6,0.5,2.6,0.6
		l2.7-0.3l-0.1,0.4l-0.2,0.3c0.6,0.1,0.9-0.1,0.7-0.6C50.1,334.3,49.9,334,49.6,333.9 M49.1,332.3c-0.5-0.6-1.1-0.8-1.7-0.6
		l-0.4,0.8c-0.2,0.3-0.3,0.6-0.3,0.8H50c0-0.2,0-0.5,0.1-0.8c0.1-0.2,0-0.3-0.1-0.4c-0.1,0.4-0.3,0.6-0.4,0.6L49.1,332.3
		 M51.2,333.3c0.4-0.1,0.6-0.3,0.6-0.5c-0.5-0.2-0.9-0.1-1.2,0.4c-0.4,0.4-0.3,0.7,0.1,0.7C50.7,333.7,50.8,333.4,51.2,333.3
		 M52.8,331.8c1.3,0.3,2.4,0,3.5-0.8c0-1.2-0.9-2-2.7-2.2c-1.8-0.2-3,0.1-3.6,1.1C50.6,330.9,51.6,331.5,52.8,331.8 M46,332.9
		c0.1,0.2,0.2,0.2,0.3-0.1c0-0.3,0-0.5-0.1-0.8c-0.1-0.3-0.2-0.2-0.3,0C45.9,332.4,45.9,332.6,46,332.9"/>
	<path class="st6" d="M61.2,338.7c0.4,4.3,0.8,7.1,1.3,8.5l1.3,2.9c0.3,1.1,0.4,2.3,0.2,3.7c-0.4,0.4-1.4,1.9-2.9,4.4
		c-1.1,1.8-2.2,3.1-3.4,3.8c0.6-1.3,1.1-2.5,1.4-3.5c0.4-1.5,0.6-2.9,0.5-4.3l-0.5-1.2c-0.3-0.7-0.5-1.2-0.6-1.7
		c-0.3-1.1-0.5-2.5-0.7-4.1l-0.3-4c-0.3-3.1-1.1-5.1-2.3-6.3c-0.4-0.3-1-0.7-1.9-1c-0.9-0.3-1.4-0.6-1.8-0.9c0.2-0.9,1-1.6,2.3-2.1
		c1.5-0.6,2.5-1.1,2.8-1.6c0.1,0.2,0.6,0.4,1.2,0.5c0.7,0.2,1.1,0.4,1.4,0.6C60.2,333.3,60.9,335.4,61.2,338.7"/>
	<path class="st6" d="M56.8,343.4l0.5,5.6l0.9,3.5c0.5,1.6,0.7,2.8,0.7,3.5c-0.1,2.3-0.9,4.4-2.1,6.2c-1.2,1.6-2.5,2.5-3.8,2.6
		c-1.7,0.1-4-1.1-7-3.9c-2.9-2.6-4.5-4.8-4.8-6.5c-0.1-0.6,0-1.5,0.2-2.8c0.3-1.6,0.5-2.8,0.5-3.4l-0.1-3.9
		c-0.1-1.6-0.1-2.8-0.1-3.5c0.1-2.4,1-4.1,2.8-4.8l4.5-0.2c2.4,0.1,3.8,0.3,4.4,0.6l1,1.1l1.2,1.5C56.2,340.2,56.6,341.6,56.8,343.4
		"/>
	<path class="st6" d="M50,329.9c0.6-1,1.8-1.3,3.6-1.1c1.8,0.2,2.7,1,2.7,2.2c-1.1,0.8-2.2,1.1-3.5,0.8
		C51.6,331.5,50.6,330.9,50,329.9"/>
	<path class="st7" d="M50.7,333.9c-0.4,0-0.5-0.3-0.1-0.7c0.3-0.5,0.7-0.6,1.2-0.4c0,0.2-0.2,0.4-0.6,0.5
		C50.8,333.4,50.7,333.7,50.7,333.9"/>
	<path class="st7" d="M50,332.1c0.2,0.1,0.2,0.2,0.1,0.4c-0.1,0.3-0.2,0.6-0.1,0.8h-3.3c0-0.2,0.1-0.5,0.3-0.8l0.4-0.8
		c0.7-0.2,1.2,0,1.7,0.6l0.4,0.4C49.7,332.7,49.8,332.5,50,332.1"/>
	<path class="st7" d="M50.3,334.8c0.1,0.5-0.1,0.7-0.7,0.6l0.2-0.3l0.1-0.4l-2.7,0.3c-1-0.1-1.9-0.3-2.6-0.6
		c-0.8-0.4-1.2-0.8-1.3-1.3c-0.1-0.6,0.2-1.1,1.1-1.7c0.4,0.2,0.5,0.4,0.1,0.8c-0.4,0.4-0.6,0.7-0.5,1.1c1,0.6,1.9,1,2.8,1.1
		c1.2,0.3,2.2,0.1,2.8-0.4C49.9,334,50.1,334.3,50.3,334.8"/>
	<path class="st6" d="M37.8,335.3c1.9-1.2,3.9-1.3,5.9-0.2l-1.6,2.3c-0.7,1-1.2,2-1.3,2.9c-0.1,0.7-0.1,1.9,0,3.5l0.3,4.2
		c0,0.9-0.1,2.1-0.5,3.7c-0.2,1.4-0.3,2.4-0.2,2.9c0.2,1.6,1.4,3.3,3.5,5.3l2.5,2.2l2.1,2.1c-0.4,0.5-0.9,0.9-1.6,1.1l-1.7,0.3
		c-2.1,0.1-4.1-0.8-6.1-2.7c-1.1-1.1-2.5-2.7-4.2-5.1c-0.4-2.5-0.7-5.5-0.8-8.8c0-2.3,0-5.5,0-9.6C35.1,337.6,36.4,336.2,37.8,335.3
		"/>
	<path class="st7" d="M45.9,332.1c0-0.3,0.1-0.3,0.3,0c0.1,0.3,0.1,0.5,0.1,0.8c-0.1,0.3-0.2,0.3-0.3,0.1
		C45.9,332.6,45.9,332.4,45.9,332.1"/>
	<path class="st6" d="M39.3,331c0.7,0,1.7-0.1,3,0c0.1-0.3,0-0.5-0.3-0.6l-0.8-0.1c0.6-1,1.9-1.4,3.9-1.5c1.8-0.1,3.3,0.2,4.6,0.8
		c-3.4,0.5-5.9,1.5-7.4,3c-0.5,0.1-1,0-1.3-0.3c-0.5-0.3-0.9-0.5-1.2-0.5l-1.9,0.5l-1.8,0.6l-0.2,0.1l0.2-0.5
		c0.5-0.1,0.7-0.5,0.7-1.1L39.3,331"/>
	<path class="st6" d="M39.7,332.7l1.8,0.5c-0.4,0.4-1,0.6-1.7,0.6l-1.9,0.1c-1,0.4-2,1.4-3.1,3c-1.1,1.7-1.7,3.3-1.8,4.7
		c-0.3,4.5,0,8.8,0.7,12.7c1,5,2.7,8.1,5.2,9.4c-0.6,0.4-1.5,0.2-2.5-0.9c-0.5-0.5-1.3-1.4-2.3-2.8l-1.3-1.6
		c-0.4-0.7-0.8-1.3-0.9-2.1c-0.2-0.8-0.2-2.2,0-4.2l0.4-5.4c0-3,0-5.1,0-6.4c0.1-2.1,0.5-3.7,1.1-4.7c0.2-0.3,0.8-0.9,1.9-1.6
		c1.1-0.8,2-1.3,2.6-1.4L39.7,332.7"/>
</g>
<g>
	<path class="st5" d="M56.1,117.1c-0.6-0.1-1.1-0.3-1.2-0.5c-0.3,0.5-1.3,1-2.9,1.6c-1.4,0.5-2.2,1.3-2.4,2.2
		c0.3,0.3,0.9,0.6,1.8,0.9c0.9,0.3,1.6,0.6,2,1c1.3,1.2,2.1,3.4,2.4,6.6l0.3,4.2c0.1,1.6,0.4,3.1,0.7,4.3c0.1,0.4,0.3,1,0.6,1.7
		l0.5,1.3c0.1,1.4-0.1,2.9-0.5,4.5c-0.3,1-0.8,2.2-1.4,3.6c1.2-0.7,2.4-2,3.6-3.9c1.5-2.6,2.5-4.1,3-4.5c0.2-1.5,0.1-2.8-0.2-3.9
		l-1.3-3c-0.5-1.4-0.9-4.4-1.3-8.9c-0.3-3.5-1-5.6-2.1-6.5C57.2,117.5,56.8,117.3,56.1,117.1 M55.6,115.8l2.1,1.3
		c0.9,0.5,1.4,1.1,1.8,1.7c0.4,0.8,0.7,2.3,0.8,4.4l0.3,4.8c0.1,1.4,0.7,3.5,1.7,6.2c0.7,2.2,1.1,3.9,0.9,5c-0.1,0.9-0.9,2.6-2.3,5
		c-1.4,2.3-2.5,3.8-3.4,4.6l-1.6,1l-1.8,0.9l-1.6,1l-1.5,0.8l-1.9-0.2l-1.2-0.9c-1.2,0.9-3.5,1.4-6.7,1.2c-3.1-0.1-5.5-0.7-7.2-1.6
		c-1-0.6-2-1.7-2.9-3.4c-1-1.7-1.8-2.7-2.4-3.2c-0.2-8-0.2-13.4,0-16.1c0.5-6,2-10.2,4.6-12.4c1.1,0,2.6-0.5,4.6-1.5
		c1.9-0.9,3.5-1.5,4.6-1.5l2.5,0.3c1.1,0.3,1.9,0.4,2.5,0.4l2.9-0.7c1.3-0.3,2.2-0.2,2.8,0.3c0.5,0,0.8,0.2,1.2,0.7L55.6,115.8
		 M53.7,124.6l-1.3-1.5l-1-1.1c-0.6-0.2-2.1-0.4-4.6-0.6l-4.7,0.2c-1.8,0.8-2.8,2.5-2.9,5c0,0.7,0,1.9,0.1,3.6l0.1,4
		c0,0.7-0.2,1.9-0.5,3.6c-0.2,1.3-0.3,2.3-0.2,2.9c0.3,1.7,2,4,5,6.7c3.1,2.8,5.5,4.2,7.3,4c1.4-0.1,2.7-1,4-2.7
		c1.3-1.9,2-4.1,2.2-6.5c0-0.8-0.2-2-0.7-3.7l-0.9-3.6l-0.5-5.9C54.8,127.2,54.4,125.7,53.7,124.6 M33.3,117.7l-0.2,0.5l0.2-0.1
		l1.8-0.6l2-0.5c0.3,0,0.8,0.1,1.3,0.5c0.4,0.3,0.9,0.4,1.4,0.3c1.5-1.5,4.1-2.6,7.7-3.1c-1.3-0.6-2.9-0.9-4.8-0.8
		c-2,0.1-3.4,0.6-4,1.6l0.8,0.1c0.3,0.1,0.4,0.3,0.3,0.6c-1.3,0-2.3,0-3.1,0l-2.7,0.3C34,117.2,33.8,117.6,33.3,117.7 M35.2,118.1
		c-0.6,0.1-1.5,0.6-2.7,1.4c-1.1,0.7-1.7,1.3-1.9,1.6c-0.6,1-1,2.7-1.1,4.9c0,1.3,0,3.5,0,6.6l-0.4,5.6c-0.1,2.1-0.1,3.5,0,4.4
		c0.1,0.8,0.5,1.5,0.9,2.2l1.3,1.6c1,1.4,1.8,2.4,2.4,2.9c1,1.1,1.9,1.3,2.6,0.9c-2.5-1.3-4.4-4.6-5.4-9.8c-0.8-4.1-1-8.5-0.7-13.3
		c0.1-1.5,0.7-3.1,1.8-4.9c1.1-1.7,2.2-2.7,3.2-3.1l2-0.1c0.8,0,1.4-0.2,1.8-0.6l-1.8-0.5L35.2,118.1 M31.3,125c0,4.3,0,7.6,0,10
		c0.1,3.5,0.3,6.6,0.8,9.2c1.7,2.4,3.2,4.2,4.4,5.3c2.1,1.9,4.2,2.9,6.4,2.8l1.8-0.3c0.7-0.2,1.2-0.6,1.6-1.1l-2.1-2.2l-2.6-2.3
		c-2.2-2-3.4-3.9-3.6-5.5c-0.1-0.5,0-1.5,0.2-3c0.3-1.7,0.5-3,0.5-3.9l-0.3-4.4c-0.1-1.7-0.2-2.9,0-3.7c0.1-0.9,0.6-1.9,1.4-3
		l1.7-2.4c-2.1-1.1-4.2-1-6.2,0.2C33.7,121.6,32.4,123,31.3,125 M47.5,119.3c-0.6,0.6-1.6,0.7-2.9,0.4c-0.9-0.2-1.8-0.6-2.9-1.2
		c-0.1-0.3,0.1-0.7,0.5-1.1c0.3-0.4,0.3-0.6-0.1-0.8c-0.9,0.6-1.2,1.2-1.1,1.8c0.1,0.5,0.5,0.9,1.4,1.3c0.7,0.3,1.7,0.5,2.7,0.6
		l2.8-0.3l-0.1,0.4l-0.2,0.3c0.6,0.1,0.9-0.1,0.7-0.6C48,119.6,47.8,119.4,47.5,119.3 M47,117.5c-0.5-0.6-1.1-0.8-1.8-0.6l-0.4,0.8
		c-0.2,0.3-0.3,0.6-0.3,0.8h3.4c0-0.2,0-0.5,0.1-0.8c0.1-0.2,0-0.3-0.1-0.4c-0.1,0.4-0.3,0.6-0.4,0.6L47,117.5 M49.2,118.6
		c0.4-0.1,0.6-0.3,0.6-0.5c-0.5-0.2-0.9-0.1-1.2,0.4c-0.4,0.4-0.3,0.7,0.1,0.7C48.6,119,48.8,118.7,49.2,118.6 M50.8,117
		c1.3,0.3,2.5,0,3.6-0.8c0-1.3-0.9-2.1-2.8-2.3c-1.9-0.2-3.1,0.1-3.8,1.1C48.5,116.1,49.5,116.8,50.8,117 M43.7,118.2
		c0.1,0.2,0.2,0.2,0.3-0.1c0-0.3,0-0.5-0.1-0.8c-0.1-0.3-0.2-0.2-0.3,0C43.6,117.6,43.6,117.9,43.7,118.2"/>
	<path class="st8" d="M59.6,124.2c0.4,4.4,0.8,7.4,1.3,8.9l1.3,3c0.3,1.1,0.4,2.4,0.2,3.9c-0.4,0.4-1.4,1.9-3,4.5
		c-1.1,1.9-2.3,3.2-3.6,3.9c0.6-1.4,1.1-2.6,1.4-3.6c0.4-1.5,0.6-3,0.5-4.5l-0.5-1.3c-0.3-0.7-0.5-1.3-0.6-1.7
		c-0.3-1.2-0.5-2.6-0.7-4.3l-0.3-4.2c-0.3-3.2-1.1-5.3-2.4-6.6c-0.4-0.3-1-0.7-2-1c-0.9-0.3-1.5-0.6-1.8-0.9c0.2-0.9,1-1.6,2.4-2.2
		c1.6-0.6,2.6-1.1,2.9-1.6c0.1,0.2,0.6,0.4,1.2,0.5c0.7,0.2,1.2,0.4,1.4,0.6C58.5,118.6,59.2,120.7,59.6,124.2"/>
	<path class="st8" d="M55,129.1l0.5,5.9l0.9,3.6c0.5,1.7,0.7,2.9,0.7,3.7c-0.1,2.4-0.9,4.6-2.2,6.5c-1.2,1.7-2.6,2.6-4,2.7
		c-1.7,0.1-4.2-1.2-7.3-4c-3-2.7-4.7-5-5-6.7c-0.1-0.6,0-1.6,0.2-2.9c0.3-1.7,0.5-2.9,0.5-3.6l-0.1-4c-0.1-1.7-0.1-2.9-0.1-3.6
		c0.1-2.5,1-4.2,2.9-5l4.7-0.2c2.5,0.1,4,0.3,4.6,0.6l1,1.1l1.3,1.5C54.4,125.7,54.8,127.2,55,129.1"/>
	<path class="st8" d="M47.9,115c0.6-1,1.9-1.4,3.8-1.1c1.8,0.2,2.8,1,2.8,2.3c-1.1,0.8-2.3,1.1-3.6,0.8
		C49.5,116.8,48.5,116.1,47.9,115"/>
	<path class="st7" d="M48.7,119.3c-0.4,0-0.5-0.3-0.1-0.7c0.3-0.5,0.7-0.6,1.2-0.4c0,0.2-0.2,0.4-0.6,0.5
		C48.8,118.7,48.6,119,48.7,119.3"/>
	<path class="st7" d="M47.9,117.3c0.2,0.1,0.2,0.2,0.1,0.4c-0.1,0.3-0.2,0.6-0.1,0.8h-3.4c0-0.2,0.1-0.5,0.3-0.8l0.4-0.8
		c0.7-0.2,1.3,0,1.8,0.6l0.4,0.4C47.6,118,47.7,117.8,47.9,117.3"/>
	<path class="st7" d="M48.2,120.2c0.1,0.5-0.1,0.7-0.7,0.6l0.2-0.3l0.1-0.4l-2.8,0.3c-1-0.1-2-0.3-2.7-0.6c-0.8-0.4-1.3-0.8-1.4-1.3
		c-0.1-0.6,0.2-1.2,1.1-1.8c0.4,0.2,0.5,0.4,0.1,0.8c-0.4,0.4-0.6,0.7-0.5,1.1c1,0.6,2,1,2.9,1.2c1.3,0.3,2.2,0.1,2.9-0.4
		C47.8,119.4,48,119.6,48.2,120.2"/>
	<path class="st8" d="M35.2,120.6c2-1.3,4-1.4,6.2-0.2l-1.7,2.4c-0.7,1-1.2,2.1-1.4,3c-0.1,0.7-0.1,2,0,3.7l0.3,4.4
		c0,0.9-0.1,2.2-0.5,3.9c-0.2,1.5-0.3,2.5-0.2,3c0.2,1.6,1.4,3.5,3.6,5.5l2.6,2.3l2.1,2.2c-0.4,0.5-0.9,0.9-1.6,1.1l-1.8,0.3
		c-2.1,0.1-4.2-0.8-6.4-2.8c-1.2-1.1-2.6-2.8-4.4-5.3c-0.4-2.6-0.7-5.7-0.8-9.2c0-2.4,0-5.7,0-10C32.4,123,33.7,121.6,35.2,120.6"/>
	<path class="st7" d="M43.6,117.3c0-0.3,0.1-0.3,0.3,0c0.1,0.3,0.1,0.5,0.1,0.8c-0.1,0.3-0.2,0.3-0.3,0.1
		C43.6,117.9,43.6,117.6,43.6,117.3"/>
	<path class="st8" d="M36.7,116.2c0.7,0,1.8-0.1,3.1,0c0.1-0.3,0-0.5-0.3-0.6l-0.8-0.1c0.6-1,2-1.5,4-1.6c1.9-0.1,3.5,0.2,4.8,0.8
		c-3.5,0.5-6.1,1.5-7.7,3.1c-0.5,0.1-1,0-1.4-0.3c-0.5-0.3-0.9-0.5-1.3-0.5l-2,0.5l-1.8,0.6l-0.2,0.1l0.2-0.5
		c0.5-0.1,0.7-0.5,0.7-1.1L36.7,116.2"/>
	<path class="st8" d="M37.2,118l1.8,0.5c-0.4,0.4-1,0.6-1.8,0.6l-2,0.1c-1,0.4-2.1,1.4-3.2,3.1c-1.1,1.8-1.7,3.4-1.8,4.9
		c-0.3,4.7,0,9.1,0.7,13.3c1,5.2,2.8,8.5,5.4,9.8c-0.6,0.4-1.5,0.2-2.6-0.9c-0.5-0.5-1.3-1.5-2.4-2.9l-1.3-1.6
		c-0.4-0.7-0.8-1.4-0.9-2.2c-0.2-0.8-0.2-2.3,0-4.4l0.4-5.6c0-3.1,0-5.3,0-6.6c0.1-2.2,0.5-3.8,1.1-4.9c0.2-0.3,0.8-0.9,1.9-1.6
		c1.1-0.8,2-1.3,2.7-1.4L37.2,118"/>
</g>
<g>
	<path class="st5" d="M56.2,182.1c-0.6-0.1-1-0.3-1.2-0.5c-0.3,0.5-1.3,1-2.8,1.6c-1.3,0.5-2.1,1.2-2.3,2.1c0.3,0.3,0.9,0.6,1.8,0.9
		c0.9,0.3,1.5,0.6,1.9,1c1.2,1.2,2,3.3,2.3,6.3l0.3,4c0.1,1.6,0.4,3,0.7,4.1c0.1,0.4,0.3,1,0.6,1.7l0.5,1.2c0.1,1.4-0.1,2.8-0.5,4.3
		c-0.3,1-0.8,2.2-1.4,3.5c1.2-0.7,2.3-2,3.4-3.8c1.5-2.5,2.4-3.9,2.8-4.4c0.2-1.4,0.1-2.7-0.2-3.7l-1.3-2.9
		c-0.5-1.4-0.9-4.3-1.3-8.5c-0.3-3.4-1-5.4-2-6.3C57.3,182.5,56.9,182.3,56.2,182.1 M55.7,180.8l2,1.3c0.9,0.5,1.4,1.1,1.7,1.6
		c0.4,0.8,0.7,2.2,0.8,4.2l0.3,4.7c0.1,1.4,0.7,3.4,1.7,5.9c0.7,2.1,1,3.7,0.9,4.8c-0.1,0.9-0.9,2.5-2.2,4.8
		c-1.3,2.2-2.4,3.7-3.3,4.5l-1.6,1l-1.7,0.9l-1.5,1l-1.4,0.8l-1.8-0.2l-1.1-0.9c-1.2,0.9-3.3,1.3-6.3,1.2c-3-0.1-5.2-0.7-6.8-1.5
		c-0.9-0.6-1.9-1.6-2.8-3.3c-0.9-1.6-1.7-2.6-2.3-3.1c-0.2-7.7-0.2-12.9,0-15.5c0.5-5.8,1.9-9.8,4.4-11.9c1.1,0,2.5-0.5,4.4-1.4
		c1.8-0.9,3.3-1.4,4.4-1.5l2.4,0.3c1,0.3,1.8,0.4,2.4,0.4l2.8-0.7c1.2-0.3,2.1-0.2,2.7,0.3c0.5,0,0.8,0.2,1.1,0.7L55.7,180.8
		 M53.9,189.3l-1.2-1.5l-0.9-1.1c-0.6-0.2-2-0.4-4.4-0.6l-4.5,0.2c-1.8,0.8-2.7,2.4-2.7,4.8c0,0.7,0,1.9,0.1,3.5l0.1,3.9
		c0,0.7-0.2,1.8-0.5,3.5c-0.2,1.3-0.3,2.2-0.2,2.8c0.3,1.7,1.9,3.8,4.8,6.5c2.9,2.7,5.3,4,6.9,3.9c1.3-0.1,2.6-1,3.8-2.6
		c1.2-1.8,1.9-3.9,2.1-6.2c0-0.8-0.2-1.9-0.7-3.6l-0.9-3.5l-0.5-5.7C55,191.8,54.6,190.4,53.9,189.3 M34.6,182.7l-0.2,0.5l0.2-0.1
		l1.8-0.6l1.9-0.5c0.3,0,0.8,0.1,1.2,0.5c0.4,0.3,0.9,0.4,1.3,0.3c1.5-1.5,3.9-2.5,7.3-3c-1.2-0.6-2.7-0.9-4.5-0.8
		c-1.9,0.1-3.2,0.6-3.8,1.5l0.8,0.1c0.3,0.1,0.4,0.3,0.3,0.6c-1.2,0-2.2,0-2.9,0l-2.6,0.3C35.3,182.1,35,182.5,34.6,182.7 M36.4,183
		c-0.6,0.1-1.5,0.6-2.6,1.4c-1,0.7-1.7,1.2-1.8,1.6c-0.6,1-1,2.6-1.1,4.7c0,1.2,0,3.4,0,6.4l-0.4,5.4c-0.1,2-0.1,3.4,0,4.2
		c0.1,0.8,0.5,1.4,0.9,2.1l1.3,1.6c1,1.4,1.8,2.4,2.3,2.8c1,1.1,1.8,1.3,2.5,0.9c-2.4-1.3-4.2-4.4-5.1-9.5c-0.8-4-1-8.2-0.7-12.8
		c0.1-1.4,0.7-3,1.8-4.7c1-1.6,2.1-2.6,3-3l1.9-0.1c0.8,0,1.3-0.2,1.7-0.6l-1.8-0.5L36.4,183 M32.7,189.7c0,4.1,0,7.3,0,9.6
		c0.1,3.4,0.3,6.4,0.8,8.9c1.7,2.4,3,4,4.2,5.1c2,1.9,4,2.8,6.1,2.7l1.7-0.3c0.7-0.2,1.2-0.6,1.6-1.1l-2-2.1l-2.5-2.2
		c-2.1-2-3.3-3.7-3.5-5.3c-0.1-0.5,0-1.5,0.2-2.9c0.3-1.6,0.5-2.9,0.5-3.7l-0.3-4.2c-0.1-1.6-0.2-2.8,0-3.6c0.1-0.9,0.6-1.9,1.3-2.9
		l1.6-2.3c-2-1.1-4-1-5.9,0.2C35,186.4,33.8,187.8,32.7,189.7 M48.1,184.1c-0.6,0.6-1.5,0.7-2.7,0.4c-0.9-0.2-1.8-0.6-2.7-1.2
		c-0.1-0.3,0.1-0.7,0.5-1.1c0.3-0.4,0.3-0.6-0.1-0.8c-0.9,0.6-1.2,1.2-1.1,1.7c0.1,0.5,0.5,0.9,1.3,1.3c0.7,0.3,1.6,0.5,2.6,0.6
		l2.7-0.3l-0.1,0.4l-0.2,0.3c0.6,0.1,0.9-0.1,0.7-0.6C48.6,184.5,48.3,184.2,48.1,184.1 M47.6,182.5c-0.5-0.6-1-0.8-1.7-0.6
		l-0.4,0.8c-0.2,0.3-0.3,0.6-0.3,0.8h3.3c0-0.2,0-0.5,0.1-0.8c0.1-0.2,0-0.3-0.1-0.4c-0.1,0.4-0.3,0.6-0.4,0.6L47.6,182.5
		 M49.7,183.5c0.4-0.1,0.6-0.3,0.6-0.5c-0.5-0.2-0.9-0.1-1.2,0.4c-0.4,0.4-0.3,0.7,0.1,0.7C49.1,183.9,49.3,183.6,49.7,183.5
		 M51.2,182c1.3,0.3,2.4,0,3.5-0.8c0-1.2-0.9-2-2.7-2.2c-1.8-0.2-3,0.1-3.6,1.1C49.1,181.1,50,181.7,51.2,182 M44.5,183.1
		c0.1,0.2,0.2,0.2,0.3-0.1c0-0.3,0-0.5-0.1-0.8c-0.1-0.3-0.2-0.2-0.3,0C44.4,182.6,44.4,182.9,44.5,183.1"/>
	<path class="st9" d="M59.6,188.9c0.4,4.3,0.8,7.1,1.3,8.5l1.3,2.9c0.3,1.1,0.4,2.3,0.2,3.7c-0.4,0.4-1.4,1.9-2.8,4.4
		c-1.1,1.8-2.2,3.1-3.4,3.8c0.6-1.3,1.1-2.5,1.4-3.5c0.4-1.5,0.6-2.9,0.5-4.3l-0.5-1.2c-0.3-0.7-0.5-1.2-0.6-1.7
		c-0.3-1.2-0.5-2.5-0.7-4.1l-0.3-4c-0.3-3.1-1.1-5.1-2.3-6.3c-0.4-0.3-1-0.7-1.9-1c-0.9-0.3-1.4-0.6-1.8-0.9c0.2-0.9,1-1.6,2.3-2.1
		c1.5-0.6,2.5-1.1,2.8-1.6c0.1,0.2,0.6,0.4,1.2,0.5c0.7,0.2,1.1,0.4,1.4,0.6C58.6,183.5,59.2,185.6,59.6,188.9"/>
	<path class="st9" d="M55.2,193.6l0.5,5.7l0.9,3.5c0.5,1.6,0.7,2.8,0.7,3.6c-0.1,2.3-0.9,4.4-2.1,6.2c-1.2,1.6-2.5,2.5-3.8,2.6
		c-1.7,0.1-4-1.2-6.9-3.9c-2.9-2.6-4.5-4.8-4.8-6.5c-0.1-0.6,0-1.5,0.2-2.8c0.3-1.6,0.5-2.8,0.5-3.5l-0.1-3.9
		c-0.1-1.6-0.1-2.8-0.1-3.5c0.1-2.4,1-4.1,2.7-4.8l4.5-0.2c2.4,0.1,3.8,0.3,4.4,0.6l0.9,1.1l1.2,1.5C54.6,190.4,55,191.8,55.2,193.6
		"/>
	<path class="st9" d="M48.4,180.1c0.6-1,1.8-1.3,3.6-1.1c1.8,0.2,2.7,1,2.7,2.2c-1,0.8-2.2,1.1-3.5,0.8
		C50,181.7,49.1,181.1,48.4,180.1"/>
	<path class="st7" d="M49.2,184.1c-0.4,0-0.5-0.3-0.1-0.7c0.3-0.5,0.7-0.6,1.2-0.4c0,0.2-0.2,0.4-0.6,0.5
		C49.3,183.6,49.1,183.9,49.2,184.1"/>
	<path class="st7" d="M48.4,182.3c0.2,0.1,0.2,0.2,0.1,0.4c-0.1,0.3-0.2,0.6-0.1,0.8h-3.3c0-0.2,0.1-0.5,0.3-0.8l0.4-0.8
		c0.7-0.2,1.2,0,1.7,0.6l0.4,0.4C48.2,182.9,48.3,182.7,48.4,182.3"/>
	<path class="st7" d="M48.8,185.1c0.1,0.5-0.1,0.7-0.7,0.6l0.2-0.3l0.1-0.4l-2.7,0.3c-1-0.1-1.9-0.3-2.6-0.6
		c-0.8-0.4-1.2-0.8-1.3-1.3c-0.1-0.6,0.2-1.2,1.1-1.7c0.4,0.2,0.5,0.4,0.1,0.8c-0.4,0.4-0.6,0.7-0.5,1.1c1,0.6,1.9,1,2.7,1.2
		c1.2,0.3,2.1,0.1,2.7-0.4C48.3,184.2,48.6,184.5,48.8,185.1"/>
	<path class="st9" d="M36.4,185.5c1.9-1.2,3.8-1.3,5.9-0.2l-1.6,2.3c-0.7,1-1.2,2-1.3,2.9c-0.1,0.7-0.1,1.9,0,3.6l0.3,4.2
		c0,0.9-0.1,2.1-0.5,3.7c-0.2,1.4-0.3,2.4-0.2,2.9c0.2,1.6,1.4,3.4,3.5,5.3l2.5,2.2l2,2.1c-0.4,0.5-0.9,0.9-1.6,1.1l-1.7,0.3
		c-2,0.1-4-0.8-6.1-2.7c-1.1-1.1-2.5-2.7-4.2-5.1c-0.4-2.5-0.7-5.5-0.8-8.9c0-2.3,0-5.5,0-9.6C33.8,187.8,35,186.4,36.4,185.5"/>
	<path class="st7" d="M44.4,182.3c0-0.3,0.1-0.3,0.3,0c0.1,0.3,0.1,0.5,0.1,0.8c-0.1,0.3-0.2,0.3-0.3,0.1
		C44.4,182.9,44.4,182.6,44.4,182.3"/>
	<path class="st9" d="M37.8,181.2c0.7,0,1.7-0.1,2.9,0c0.1-0.3,0-0.5-0.3-0.6l-0.8-0.1c0.6-1,1.9-1.4,3.8-1.5
		c1.8-0.1,3.3,0.2,4.5,0.8c-3.4,0.5-5.8,1.5-7.3,3c-0.5,0.1-0.9,0-1.3-0.3c-0.5-0.3-0.9-0.5-1.2-0.5l-1.9,0.5l-1.8,0.6l-0.2,0.1
		l0.2-0.5c0.5-0.1,0.7-0.5,0.7-1.1L37.8,181.2"/>
	<path class="st9" d="M38.3,182.9l1.8,0.5c-0.4,0.4-0.9,0.6-1.7,0.6l-1.9,0.1c-0.9,0.4-2,1.4-3,3c-1.1,1.7-1.7,3.3-1.8,4.7
		c-0.3,4.6,0,8.8,0.7,12.8c0.9,5,2.7,8.2,5.1,9.5c-0.6,0.4-1.5,0.2-2.5-0.9c-0.5-0.5-1.3-1.4-2.3-2.8l-1.3-1.6
		c-0.4-0.7-0.8-1.3-0.9-2.1c-0.2-0.8-0.2-2.2,0-4.2l0.4-5.4c0-3,0-5.1,0-6.4c0.1-2.1,0.5-3.7,1.1-4.7c0.2-0.3,0.8-0.9,1.8-1.6
		c1.1-0.8,1.9-1.3,2.6-1.4L38.3,182.9"/>
</g>
<g>
	<path class="st5" d="M57.6,258.4c-0.6-0.1-1.1-0.3-1.2-0.5c-0.3,0.5-1.3,1-2.9,1.6c-1.4,0.5-2.2,1.3-2.4,2.2
		c0.3,0.3,0.9,0.6,1.8,0.9c0.9,0.3,1.6,0.6,2,1c1.3,1.2,2.1,3.4,2.4,6.5l0.3,4.1c0.1,1.6,0.4,3.1,0.7,4.2c0.1,0.4,0.3,1,0.6,1.7
		l0.5,1.3c0.1,1.4-0.1,2.9-0.5,4.4c-0.3,1-0.8,2.2-1.4,3.6c1.2-0.7,2.4-2,3.6-3.9c1.5-2.6,2.5-4,3-4.5c0.2-1.5,0.1-2.8-0.2-3.8
		l-1.3-3c-0.5-1.4-0.9-4.4-1.3-8.8c-0.3-3.5-1-5.6-2.1-6.5C58.8,258.8,58.3,258.6,57.6,258.4 M57.1,257.1l2.1,1.3
		c0.9,0.5,1.4,1.1,1.8,1.7c0.4,0.8,0.7,2.3,0.8,4.3l0.3,4.8c0.1,1.4,0.7,3.5,1.7,6.1c0.7,2.2,1.1,3.8,0.9,4.9
		c-0.1,0.9-0.9,2.6-2.3,4.9c-1.4,2.3-2.5,3.8-3.4,4.6l-1.6,1l-1.8,0.9l-1.6,1l-1.5,0.8l-1.9-0.2l-1.2-0.9c-1.2,0.9-3.5,1.4-6.6,1.2
		c-3.1-0.1-5.4-0.7-7.1-1.6c-1-0.6-2-1.7-2.9-3.4c-1-1.7-1.8-2.7-2.4-3.2c-0.2-7.9-0.2-13.2,0-15.9c0.5-6,2-10.1,4.6-12.2
		c1.1,0,2.6-0.5,4.5-1.5c1.9-0.9,3.5-1.5,4.6-1.5l2.5,0.3c1.1,0.3,1.9,0.4,2.5,0.4l2.9-0.7c1.3-0.3,2.2-0.2,2.8,0.3
		c0.5,0,0.8,0.2,1.2,0.7L57.1,257.1 M55.2,265.9l-1.3-1.5l-1-1.1c-0.6-0.2-2.1-0.4-4.5-0.6l-4.6,0.2c-1.8,0.8-2.8,2.5-2.9,5
		c0,0.7,0,1.9,0.1,3.6l0.1,4c0,0.7-0.2,1.9-0.5,3.6c-0.2,1.3-0.3,2.3-0.2,2.9c0.3,1.7,2,3.9,5,6.7c3.1,2.8,5.5,4.1,7.2,4
		c1.4-0.1,2.7-1,3.9-2.7c1.3-1.9,2-4,2.2-6.4c0-0.8-0.2-2-0.7-3.6l-0.9-3.6l-0.5-5.8C56.4,268.4,55.9,267,55.2,265.9 M35.1,259
		l-0.2,0.5l0.2-0.1l1.8-0.6l2-0.5c0.3,0,0.8,0.1,1.3,0.5c0.4,0.3,0.9,0.4,1.4,0.3c1.5-1.5,4.1-2.6,7.6-3.1c-1.3-0.6-2.9-0.9-4.7-0.8
		c-2,0.1-3.4,0.6-4,1.6l0.8,0.1c0.3,0.1,0.4,0.3,0.3,0.6c-1.3,0-2.3,0-3.1,0l-2.7,0.3C35.8,258.5,35.6,258.9,35.1,259 M37,259.4
		c-0.6,0.1-1.5,0.6-2.7,1.4c-1.1,0.7-1.7,1.3-1.9,1.6c-0.6,1-1,2.7-1.1,4.8c0,1.3,0,3.5,0,6.6l-0.4,5.6c-0.1,2.1-0.1,3.5,0,4.3
		c0.1,0.8,0.5,1.5,0.9,2.2l1.3,1.6c1,1.4,1.8,2.4,2.4,2.9c1,1.1,1.9,1.3,2.6,0.9c-2.5-1.3-4.3-4.5-5.3-9.7c-0.8-4.1-1-8.4-0.7-13.1
		c0.1-1.5,0.7-3.1,1.8-4.9c1.1-1.7,2.2-2.7,3.2-3.1l2-0.1c0.8,0,1.4-0.2,1.8-0.6l-1.8-0.5L37,259.4 M33.2,266.2c0,4.2,0,7.5,0,9.9
		c0.1,3.5,0.3,6.6,0.8,9.1c1.7,2.4,3.2,4.1,4.3,5.2c2.1,1.9,4.2,2.9,6.3,2.8l1.8-0.3c0.7-0.2,1.2-0.6,1.6-1.1l-2.1-2.2l-2.6-2.3
		c-2.2-2-3.4-3.8-3.6-5.5c-0.1-0.5,0-1.5,0.2-3c0.3-1.7,0.5-3,0.5-3.8l-0.3-4.3c-0.1-1.7-0.2-2.9,0-3.6c0.1-0.9,0.6-1.9,1.4-3
		l1.7-2.4c-2.1-1.1-4.1-1-6.1,0.2C35.5,262.9,34.2,264.3,33.2,266.2 M49.1,260.5c-0.6,0.6-1.6,0.7-2.9,0.4c-0.9-0.2-1.8-0.6-2.9-1.2
		c-0.1-0.3,0.1-0.7,0.5-1.1c0.3-0.4,0.3-0.6-0.1-0.8c-0.9,0.6-1.2,1.2-1.1,1.8c0.1,0.5,0.5,0.9,1.4,1.3c0.7,0.3,1.7,0.5,2.7,0.6
		l2.8-0.3l-0.1,0.4l-0.2,0.3c0.6,0.1,0.9-0.1,0.7-0.6C49.7,260.9,49.4,260.6,49.1,260.5 M48.6,258.8c-0.5-0.6-1.1-0.8-1.8-0.6
		l-0.4,0.8c-0.2,0.3-0.3,0.6-0.3,0.8h3.4c0-0.2,0-0.5,0.1-0.8c0.1-0.2,0-0.3-0.1-0.4c-0.1,0.4-0.3,0.6-0.4,0.6L48.6,258.8
		 M50.8,259.9c0.4-0.1,0.6-0.3,0.6-0.5c-0.5-0.2-0.9-0.1-1.2,0.4c-0.4,0.4-0.3,0.7,0.1,0.7C50.3,260.2,50.4,260,50.8,259.9
		 M52.4,258.3c1.3,0.3,2.5,0,3.6-0.8c0-1.3-0.9-2.1-2.8-2.3c-1.9-0.2-3.1,0.1-3.7,1.1C50.2,257.4,51.2,258.1,52.4,258.3 M45.4,259.5
		c0.1,0.2,0.2,0.2,0.3-0.1c0-0.3,0-0.5-0.1-0.8c-0.1-0.3-0.2-0.2-0.3,0C45.3,258.9,45.3,259.2,45.4,259.5"/>
	<path class="st10" d="M61.1,265.5c0.4,4.4,0.8,7.3,1.3,8.8l1.3,3c0.3,1.1,0.4,2.4,0.2,3.8c-0.4,0.4-1.4,1.9-3,4.5
		c-1.1,1.9-2.3,3.2-3.6,3.9c0.6-1.4,1.1-2.6,1.4-3.6c0.4-1.5,0.6-3,0.5-4.4l-0.5-1.3c-0.3-0.7-0.5-1.3-0.6-1.7
		c-0.3-1.2-0.5-2.6-0.7-4.2l-0.3-4.1c-0.3-3.2-1.1-5.3-2.4-6.5c-0.4-0.3-1-0.7-2-1c-0.9-0.3-1.5-0.6-1.8-0.9c0.2-0.9,1-1.6,2.4-2.2
		c1.6-0.6,2.6-1.1,2.9-1.6c0.1,0.2,0.6,0.4,1.2,0.5c0.7,0.2,1.2,0.4,1.4,0.6C60.1,259.9,60.8,262,61.1,265.5"/>
	<path class="st10" d="M56.6,270.3l0.5,5.8l0.9,3.6c0.5,1.7,0.7,2.9,0.7,3.6c-0.1,2.4-0.9,4.5-2.2,6.4c-1.2,1.7-2.6,2.6-3.9,2.7
		c-1.7,0.1-4.1-1.2-7.2-4c-3-2.7-4.6-4.9-5-6.7c-0.1-0.6,0-1.6,0.2-2.9c0.3-1.7,0.5-2.9,0.5-3.6l-0.1-4c-0.1-1.7-0.1-2.9-0.1-3.6
		c0.1-2.5,1-4.2,2.9-5l4.6-0.2c2.5,0.1,3.9,0.3,4.5,0.6l1,1.1l1.3,1.5C55.9,267,56.4,268.4,56.6,270.3"/>
	<path class="st10" d="M49.5,256.3c0.6-1,1.9-1.4,3.7-1.1c1.8,0.2,2.8,1,2.8,2.3c-1.1,0.8-2.3,1.1-3.6,0.8
		C51.2,258.1,50.2,257.4,49.5,256.3"/>
	<path class="st7" d="M50.3,260.5c-0.4,0-0.5-0.3-0.1-0.7c0.3-0.5,0.7-0.6,1.2-0.4c0,0.2-0.2,0.4-0.6,0.5
		C50.4,260,50.3,260.2,50.3,260.5"/>
	<path class="st7" d="M49.5,258.6c0.2,0.1,0.2,0.2,0.1,0.4c-0.1,0.3-0.2,0.6-0.1,0.8h-3.4c0-0.2,0.1-0.5,0.3-0.8l0.4-0.8
		c0.7-0.2,1.3,0,1.8,0.6l0.4,0.4C49.2,259.3,49.4,259.1,49.5,258.6"/>
	<path class="st7" d="M49.9,261.5c0.1,0.5-0.1,0.7-0.7,0.6l0.2-0.3l0.1-0.4l-2.8,0.3c-1-0.1-2-0.3-2.7-0.6c-0.8-0.4-1.3-0.8-1.4-1.3
		c-0.1-0.6,0.2-1.2,1.1-1.8c0.4,0.2,0.5,0.4,0.1,0.8c-0.4,0.4-0.6,0.7-0.5,1.1c1,0.6,2,1,2.9,1.2c1.3,0.3,2.2,0.1,2.9-0.4
		C49.4,260.6,49.7,260.9,49.9,261.5"/>
	<path class="st10" d="M37,261.9c2-1.3,4-1.4,6.1-0.2l-1.7,2.4c-0.7,1-1.2,2.1-1.4,3c-0.1,0.7-0.1,2,0,3.6l0.3,4.3
		c0,0.9-0.1,2.2-0.5,3.8c-0.2,1.5-0.3,2.5-0.2,3c0.2,1.6,1.4,3.5,3.6,5.5l2.6,2.3l2.1,2.2c-0.4,0.5-0.9,0.9-1.6,1.1l-1.8,0.3
		c-2.1,0.1-4.2-0.8-6.3-2.8c-1.2-1.1-2.6-2.8-4.3-5.2c-0.4-2.6-0.7-5.6-0.8-9.1c0-2.4,0-5.7,0-9.9C34.2,264.3,35.5,262.9,37,261.9"
		/>
	<path class="st7" d="M45.3,258.6c0-0.3,0.1-0.3,0.3,0c0.1,0.3,0.1,0.5,0.1,0.8c-0.1,0.3-0.2,0.3-0.3,0.1
		C45.3,259.2,45.3,258.9,45.3,258.6"/>
	<path class="st10" d="M38.5,257.5c0.7,0,1.8-0.1,3.1,0c0.1-0.3,0-0.5-0.3-0.6l-0.8-0.1c0.6-1,2-1.5,4-1.6c1.9-0.1,3.5,0.2,4.7,0.8
		c-3.5,0.5-6.1,1.5-7.6,3.1c-0.5,0.1-1,0-1.4-0.3c-0.5-0.3-0.9-0.5-1.3-0.5l-2,0.5l-1.8,0.6l-0.2,0.1l0.2-0.5
		c0.5-0.1,0.7-0.5,0.7-1.1L38.5,257.5"/>
	<path class="st10" d="M38.9,259.3l1.8,0.5c-0.4,0.4-1,0.6-1.8,0.6l-2,0.1c-1,0.4-2.1,1.4-3.2,3.1c-1.1,1.8-1.7,3.4-1.8,4.9
		c-0.3,4.7,0,9,0.7,13.1c1,5.2,2.8,8.4,5.3,9.7c-0.6,0.4-1.5,0.2-2.6-0.9c-0.5-0.5-1.3-1.5-2.4-2.9l-1.3-1.6
		c-0.4-0.7-0.8-1.4-0.9-2.2c-0.2-0.8-0.2-2.3,0-4.3l0.4-5.6c0-3.1,0-5.3,0-6.6c0.1-2.2,0.5-3.8,1.1-4.8c0.2-0.3,0.8-0.9,1.9-1.6
		c1.1-0.8,2-1.3,2.7-1.4L38.9,259.3"/>
</g>
<text transform="matrix(1 0 0 1 69.7866 129.2393)" class="st2 st11">Game design:</text>
<text transform="matrix(1 0 0 1 69.7856 202.6641)" class="st2 st11">PROGRAMAÇÃO:</text>
<text transform="matrix(1 0 0 1 69.7867 272.8389)" class="st2 st11">áUDIO:</text>
<text transform="matrix(1 0 0 1 69.7857 351.0664)" class="st2 st11">ARTE GRÁFICA:</text>
<g>
	<path class="st5" d="M58.7,403.6c-0.7-0.2-1.2-0.4-1.3-0.6c-0.4,0.5-1.4,1.1-3.1,1.7c-1.5,0.6-2.4,1.4-2.6,2.3
		c0.4,0.3,1,0.6,1.9,0.9c1,0.3,1.7,0.7,2.1,1.1c1.4,1.3,2.2,3.6,2.6,6.9l0.4,4.4c0.2,1.7,0.4,3.3,0.7,4.5c0.1,0.5,0.3,1.1,0.7,1.8
		l0.5,1.4c0.1,1.5-0.1,3.1-0.5,4.7c-0.3,1.1-0.8,2.4-1.5,3.8c1.3-0.8,2.6-2.2,3.8-4.2c1.6-2.7,2.7-4.3,3.2-4.8
		c0.2-1.6,0.1-2.9-0.3-4.1l-1.4-3.2c-0.5-1.5-1-4.7-1.4-9.4c-0.4-3.7-1.1-5.9-2.2-6.9C60,404.1,59.5,403.9,58.7,403.6 M58.2,402.3
		l2.2,1.4c0.9,0.6,1.5,1.2,1.9,1.8c0.4,0.9,0.7,2.4,0.9,4.6l0.3,5.1c0.2,1.5,0.8,3.7,1.8,6.5c0.8,2.3,1.2,4.1,1,5.3
		c-0.1,0.9-0.9,2.7-2.5,5.3c-1.5,2.4-2.7,4-3.6,4.9l-1.7,1.1l-1.9,1l-1.7,1.1l-1.6,0.9l-2-0.2l-1.3-1c-1.3,1-3.7,1.5-7,1.3
		c-3.3-0.2-5.8-0.7-7.6-1.7c-1.1-0.6-2.1-1.8-3.1-3.6c-1.1-1.8-1.9-2.9-2.6-3.4c-0.3-8.4-0.3-14.1,0-17c0.5-6.4,2.2-10.7,4.9-13
		c1.2-0.1,2.8-0.6,4.8-1.6c2.1-1,3.7-1.6,4.9-1.6l2.6,0.3c1.2,0.3,2.1,0.5,2.6,0.5l3.1-0.7c1.4-0.4,2.4-0.3,3,0.3
		c0.5,0,0.9,0.3,1.3,0.8L58.2,402.3 M56.2,411.6l-1.4-1.6l-1.1-1.2c-0.6-0.3-2.2-0.5-4.8-0.6l-4.9,0.2c-1.9,0.8-2.9,2.6-3.1,5.3
		c-0.1,0.7,0,2.1,0.1,3.8l0.1,4.3c0,0.7-0.2,2-0.6,3.8c-0.3,1.4-0.4,2.4-0.2,3.1c0.4,1.8,2.1,4.2,5.3,7.1c3.3,3,5.8,4.4,7.7,4.3
		c1.5-0.1,2.9-1.1,4.2-2.9c1.4-2,2.2-4.3,2.3-6.8c0-0.8-0.2-2.1-0.7-3.9l-0.9-3.8l-0.6-6.2C57.4,414.3,56.9,412.7,56.2,411.6
		 M34.7,404.3l-0.3,0.6l0.3-0.2l1.9-0.7l2.1-0.6c0.4,0,0.8,0.2,1.4,0.5c0.4,0.3,0.9,0.4,1.5,0.3c1.6-1.6,4.4-2.7,8.1-3.3
		c-1.4-0.6-3.1-0.9-5-0.8c-2.2,0.1-3.6,0.6-4.3,1.7l0.9,0.1c0.3,0.1,0.4,0.3,0.3,0.7c-1.4-0.1-2.5,0-3.3,0.1l-2.8,0.4
		C35.5,403.7,35.2,404.1,34.7,404.3 M36.7,404.7c-0.7,0.1-1.6,0.6-2.8,1.5c-1.2,0.8-1.8,1.4-2.1,1.7c-0.7,1.1-1.1,2.8-1.2,5.2
		c-0.1,1.4-0.1,3.7,0,7l-0.5,5.9c-0.2,2.2-0.2,3.7,0.1,4.6c0.2,0.8,0.5,1.6,1,2.3l1.4,1.7c1.1,1.5,1.9,2.6,2.5,3.1
		c1.1,1.2,2.1,1.4,2.7,0.9c-2.7-1.4-4.6-4.8-5.7-10.4c-0.8-4.4-1.1-9-0.8-14c0.1-1.6,0.7-3.3,1.9-5.2c1.2-1.8,2.3-2.9,3.4-3.3
		l2.1-0.2c0.8,0.1,1.5-0.2,1.9-0.6l-1.9-0.5L36.7,404.7 M32.6,412c-0.1,4.5-0.1,8,0,10.6c0.1,3.7,0.4,7,0.8,9.7
		c1.8,2.6,3.4,4.4,4.6,5.6c2.3,2.1,4.5,3.1,6.7,2.9l1.9-0.4c0.7-0.3,1.3-0.7,1.7-1.2l-2.3-2.3l-2.8-2.4c-2.3-2.2-3.6-4.1-3.8-5.8
		c-0.1-0.6,0-1.6,0.3-3.2c0.4-1.8,0.5-3.2,0.5-4.1l-0.4-4.6c-0.2-1.8-0.2-3.1-0.1-3.9c0.2-0.9,0.7-2.1,1.5-3.2l1.8-2.5
		c-2.3-1.2-4.4-1.1-6.5,0.3C35.2,408.4,33.8,409.9,32.6,412 M49.7,405.9c-0.7,0.6-1.7,0.8-3.1,0.5c-0.9-0.2-1.9-0.6-3.1-1.3
		c-0.1-0.4,0.1-0.7,0.6-1.2c0.4-0.4,0.3-0.7-0.2-0.9c-0.9,0.6-1.3,1.3-1.2,1.9c0.1,0.5,0.6,1,1.5,1.4c0.8,0.3,1.8,0.5,2.9,0.6
		l2.9-0.3l-0.2,0.5l-0.3,0.4c0.7,0.1,0.9-0.1,0.8-0.6C50.3,406.3,50,406,49.7,405.9 M49.2,404.1c-0.5-0.7-1.2-0.9-1.9-0.6l-0.4,0.8
		c-0.2,0.3-0.3,0.6-0.4,0.8h3.6c-0.1-0.2,0-0.5,0.2-0.8c0.1-0.2,0.1-0.3-0.2-0.4c-0.2,0.5-0.3,0.7-0.5,0.7L49.2,404.1 M51.5,405.2
		c0.4-0.1,0.6-0.3,0.7-0.5c-0.5-0.3-1-0.1-1.3,0.4c-0.4,0.5-0.4,0.7,0.1,0.8C50.9,405.6,51.1,405.3,51.5,405.2 M53.2,403.5
		c1.4,0.3,2.7,0,3.8-0.9c0-1.4-1-2.2-2.9-2.4c-2-0.3-3.3,0.2-4,1.2C50.8,402.6,51.8,403.3,53.2,403.5 M45.7,404.8
		c0.1,0.3,0.2,0.3,0.3-0.1c0.1-0.3,0-0.6-0.1-0.9c-0.2-0.3-0.3-0.3-0.3,0.1C45.6,404.2,45.6,404.5,45.7,404.8"/>
	<path class="st12" d="M62.5,411.2c0.4,4.7,0.9,7.8,1.4,9.4l1.4,3.2c0.4,1.2,0.5,2.5,0.3,4.1c-0.5,0.5-1.5,2.1-3.2,4.8
		c-1.2,2-2.5,3.4-3.8,4.2c0.7-1.5,1.2-2.7,1.5-3.8c0.4-1.6,0.6-3.2,0.5-4.7l-0.5-1.4c-0.4-0.7-0.6-1.4-0.7-1.8
		c-0.3-1.3-0.6-2.8-0.7-4.5l-0.4-4.4c-0.4-3.4-1.2-5.6-2.6-6.9c-0.4-0.4-1.1-0.7-2.1-1.1c-0.9-0.3-1.6-0.6-1.9-0.9
		c0.2-0.9,1.1-1.7,2.6-2.3c1.7-0.6,2.7-1.2,3.1-1.7c0.2,0.2,0.6,0.4,1.3,0.6c0.7,0.2,1.3,0.4,1.5,0.6
		C61.4,405.2,62.1,407.5,62.5,411.2"/>
	<path class="st12" d="M57.6,416.3l0.6,6.2l0.9,3.8c0.5,1.8,0.7,3.1,0.7,3.9c-0.2,2.5-0.9,4.8-2.3,6.8c-1.3,1.8-2.7,2.8-4.2,2.9
		c-1.8,0.2-4.4-1.3-7.7-4.3c-3.2-2.9-4.9-5.3-5.3-7.1c-0.2-0.7-0.1-1.7,0.2-3.1c0.4-1.8,0.6-3.1,0.6-3.8l-0.1-4.3
		c-0.1-1.8-0.2-3.1-0.1-3.8c0.1-2.7,1.1-4.5,3.1-5.3l4.9-0.2c2.6,0.2,4.2,0.4,4.8,0.6l1.1,1.2l1.4,1.6
		C56.9,412.7,57.4,414.3,57.6,416.3"/>
	<path class="st12" d="M50.1,401.4c0.7-1.1,2-1.5,4-1.2c1.9,0.2,2.9,1.1,2.9,2.4c-1.2,0.9-2.4,1.2-3.8,0.9
		C51.8,403.3,50.8,402.6,50.1,401.4"/>
	<path class="st7" d="M50.9,405.9c-0.5-0.1-0.5-0.3-0.1-0.8c0.3-0.5,0.8-0.7,1.3-0.4c-0.1,0.2-0.3,0.4-0.7,0.5
		C51.1,405.3,50.9,405.6,50.9,405.9"/>
	<path class="st7" d="M50.1,403.9c0.2,0.1,0.3,0.2,0.2,0.4c-0.2,0.3-0.2,0.6-0.2,0.8h-3.6c0.1-0.2,0.2-0.5,0.4-0.8l0.4-0.8
		c0.7-0.3,1.4-0.1,1.9,0.6l0.5,0.5C49.8,404.5,49.9,404.3,50.1,403.9"/>
	<path class="st7" d="M50.5,406.9c0.2,0.5-0.1,0.7-0.8,0.6l0.3-0.4l0.2-0.5l-2.9,0.3c-1.1-0.1-2.1-0.3-2.9-0.6
		c-0.9-0.4-1.4-0.9-1.5-1.4c-0.1-0.6,0.3-1.3,1.2-1.9c0.5,0.2,0.5,0.5,0.2,0.9c-0.5,0.4-0.7,0.8-0.6,1.2c1.1,0.6,2.1,1.1,3.1,1.3
		c1.4,0.3,2.4,0.2,3.1-0.5C50,406,50.3,406.3,50.5,406.9"/>
	<path class="st12" d="M36.7,407.4c2.1-1.4,4.3-1.5,6.5-0.3l-1.8,2.5c-0.8,1.1-1.3,2.2-1.5,3.2c-0.2,0.8-0.1,2.1,0.1,3.9l0.4,4.6
		c0,0.9-0.2,2.3-0.5,4.1c-0.3,1.6-0.4,2.6-0.3,3.2c0.2,1.7,1.5,3.7,3.8,5.8l2.8,2.4l2.3,2.3c-0.4,0.5-1,0.9-1.7,1.2l-1.9,0.4
		c-2.3,0.1-4.5-0.9-6.7-2.9c-1.3-1.2-2.8-3-4.6-5.6c-0.5-2.7-0.7-6-0.8-9.7c-0.1-2.5-0.1-6,0-10.6C33.8,409.9,35.2,408.4,36.7,407.4
		"/>
	<path class="st7" d="M45.6,403.9c0.1-0.3,0.2-0.4,0.3-0.1c0.1,0.3,0.2,0.6,0.1,0.9c-0.1,0.4-0.2,0.4-0.3,0.1
		C45.6,404.5,45.6,404.2,45.6,403.9"/>
	<path class="st12" d="M38.3,402.7c0.8-0.1,1.9-0.1,3.3-0.1c0.1-0.4,0-0.6-0.3-0.7l-0.9-0.1c0.7-1.1,2.1-1.6,4.3-1.7
		c2-0.1,3.7,0.2,5,0.8c-3.7,0.5-6.5,1.6-8.1,3.3c-0.5,0.1-1.1,0-1.5-0.3c-0.5-0.4-1-0.5-1.4-0.5l-2.1,0.6l-1.9,0.7l-0.3,0.2l0.3-0.6
		c0.5-0.2,0.8-0.6,0.8-1.2L38.3,402.7"/>
	<path class="st12" d="M38.8,404.6l1.9,0.5c-0.4,0.4-1.1,0.7-1.9,0.6l-2.1,0.2c-1.1,0.4-2.2,1.5-3.4,3.3c-1.2,1.9-1.8,3.6-1.9,5.2
		c-0.3,5-0.1,9.6,0.8,14c1.1,5.5,3,8.9,5.7,10.4c-0.7,0.5-1.6,0.2-2.7-0.9c-0.6-0.5-1.4-1.6-2.5-3.1l-1.4-1.7
		c-0.5-0.7-0.8-1.5-1-2.3c-0.2-0.9-0.2-2.4-0.1-4.6l0.5-5.9c-0.1-3.3-0.1-5.6,0-7c0.1-2.3,0.5-4,1.2-5.2c0.2-0.4,0.9-0.9,2.1-1.7
		c1.2-0.9,2.2-1.4,2.8-1.5L38.8,404.6"/>
</g>
<text transform="matrix(1 0 0 1 69.7866 419.9258)" class="st2 st13">TEXTO:</text>
<g>
	<path class="st5" d="M60.6,473.1c-0.7-0.2-1.2-0.4-1.3-0.6c-0.4,0.5-1.4,1.1-3.1,1.7c-1.5,0.6-2.4,1.4-2.6,2.3
		c0.4,0.3,1,0.6,1.9,0.9c1,0.3,1.7,0.7,2.1,1.1c1.4,1.3,2.2,3.6,2.6,6.9l0.4,4.4c0.2,1.7,0.4,3.3,0.7,4.5c0.1,0.5,0.3,1.1,0.7,1.8
		l0.5,1.4c0.1,1.5-0.1,3.1-0.5,4.7c-0.3,1.1-0.8,2.4-1.5,3.8c1.3-0.8,2.6-2.2,3.8-4.2c1.6-2.7,2.7-4.3,3.2-4.8
		c0.2-1.6,0.1-2.9-0.3-4.1l-1.4-3.2c-0.5-1.5-1-4.7-1.4-9.4c-0.4-3.7-1.1-5.9-2.2-6.9C61.8,473.5,61.3,473.3,60.6,473.1 M60,471.7
		l2.2,1.4c0.9,0.6,1.5,1.2,1.9,1.8c0.4,0.9,0.7,2.4,0.9,4.6l0.3,5.1c0.2,1.5,0.8,3.7,1.8,6.5c0.8,2.3,1.2,4.1,1,5.3
		c-0.1,0.9-0.9,2.7-2.5,5.3c-1.5,2.4-2.7,4-3.6,4.9l-1.7,1.1l-1.9,1l-1.7,1.1l-1.6,0.9l-2-0.2l-1.3-1c-1.3,1-3.7,1.5-7,1.3
		c-3.3-0.2-5.8-0.7-7.6-1.7c-1.1-0.6-2.1-1.8-3.1-3.6c-1.1-1.8-1.9-2.9-2.6-3.4c-0.3-8.4-0.3-14.1,0-17c0.5-6.4,2.2-10.7,4.9-13
		c1.2-0.1,2.8-0.6,4.8-1.6c2.1-1,3.7-1.6,4.9-1.6l2.6,0.3c1.2,0.3,2.1,0.5,2.6,0.5l3.1-0.7c1.4-0.4,2.4-0.3,3,0.3
		c0.5,0,0.9,0.3,1.3,0.8L60,471.7 M58,481l-1.4-1.6l-1.1-1.2c-0.6-0.3-2.2-0.5-4.8-0.6l-4.9,0.2c-1.9,0.8-2.9,2.6-3.1,5.3
		c-0.1,0.7,0,2.1,0.1,3.8l0.1,4.3c0,0.7-0.2,2-0.6,3.8c-0.3,1.4-0.4,2.4-0.2,3.1c0.4,1.8,2.1,4.2,5.3,7.1c3.3,3,5.8,4.4,7.7,4.3
		c1.5-0.1,2.9-1.1,4.2-2.9c1.4-2,2.2-4.3,2.3-6.8c0-0.8-0.2-2.1-0.7-3.9L60,492l-0.6-6.2C59.2,483.7,58.8,482.2,58,481 M36.5,473.7
		l-0.3,0.6l0.3-0.2l1.9-0.7l2.1-0.6c0.4,0,0.8,0.2,1.4,0.5c0.4,0.3,0.9,0.4,1.5,0.3c1.6-1.6,4.4-2.7,8.1-3.3c-1.4-0.6-3.1-0.9-5-0.8
		c-2.2,0.1-3.6,0.6-4.3,1.7l0.9,0.1c0.3,0.1,0.4,0.3,0.3,0.7c-1.4-0.1-2.5,0-3.3,0.1l-2.8,0.4C37.3,473.1,37,473.5,36.5,473.7
		 M38.6,474.1c-0.7,0.1-1.6,0.6-2.8,1.5c-1.2,0.8-1.8,1.4-2.1,1.7c-0.7,1.1-1.1,2.8-1.2,5.2c-0.1,1.4-0.1,3.7,0,7l-0.5,5.9
		c-0.2,2.2-0.2,3.7,0.1,4.6c0.2,0.8,0.5,1.6,1,2.3l1.4,1.7c1.1,1.5,1.9,2.6,2.5,3.1c1.1,1.2,2.1,1.4,2.7,0.9
		c-2.7-1.4-4.6-4.8-5.7-10.4c-0.8-4.4-1.1-9-0.8-14c0.1-1.6,0.7-3.3,1.9-5.2c1.2-1.8,2.3-2.9,3.4-3.3l2.1-0.2
		c0.8,0.1,1.5-0.2,1.9-0.6l-1.9-0.5L38.6,474.1 M34.5,481.4c-0.1,4.5-0.1,8,0,10.6c0.1,3.7,0.4,7,0.8,9.7c1.8,2.6,3.4,4.4,4.6,5.6
		c2.3,2.1,4.5,3.1,6.7,2.9l1.9-0.4c0.7-0.3,1.3-0.7,1.7-1.2l-2.3-2.3l-2.8-2.4c-2.3-2.2-3.6-4.1-3.8-5.8c-0.1-0.6,0-1.6,0.3-3.2
		c0.4-1.8,0.5-3.2,0.5-4.1l-0.4-4.6c-0.2-1.8-0.2-3.1-0.1-3.9c0.2-0.9,0.7-2.1,1.5-3.2l1.8-2.5c-2.3-1.2-4.4-1.1-6.5,0.3
		C37,477.8,35.6,479.3,34.5,481.4 M51.5,475.3c-0.7,0.6-1.7,0.8-3.1,0.5c-0.9-0.2-1.9-0.6-3.1-1.3c-0.1-0.4,0.1-0.7,0.6-1.2
		c0.4-0.4,0.3-0.7-0.2-0.9c-0.9,0.6-1.3,1.3-1.2,1.9c0.1,0.5,0.6,1,1.5,1.4c0.8,0.3,1.8,0.5,2.9,0.6l2.9-0.3l-0.2,0.5l-0.3,0.4
		c0.7,0.1,0.9-0.1,0.8-0.6C52.1,475.8,51.8,475.4,51.5,475.3 M51,473.5c-0.5-0.7-1.2-0.9-1.9-0.6l-0.4,0.8c-0.2,0.3-0.3,0.6-0.4,0.8
		h3.6c-0.1-0.2,0-0.5,0.2-0.8c0.1-0.2,0.1-0.3-0.2-0.4c-0.2,0.5-0.3,0.7-0.5,0.7L51,473.5 M53.3,474.7c0.4-0.1,0.6-0.3,0.7-0.5
		c-0.5-0.3-1-0.1-1.3,0.4c-0.4,0.5-0.4,0.7,0.1,0.8C52.7,475,52.9,474.8,53.3,474.7 M55,473c1.4,0.3,2.7,0,3.8-0.9
		c0-1.4-1-2.2-2.9-2.4c-2-0.3-3.3,0.2-4,1.2C52.6,472,53.7,472.7,55,473 M47.6,474.2c0.1,0.3,0.2,0.3,0.3-0.1c0.1-0.3,0-0.6-0.1-0.9
		c-0.2-0.3-0.3-0.3-0.3,0.1C47.4,473.6,47.4,473.9,47.6,474.2"/>
	<path class="st14" d="M64.3,480.6c0.4,4.7,0.9,7.8,1.4,9.4l1.4,3.2c0.4,1.2,0.5,2.5,0.3,4.1c-0.5,0.5-1.5,2.1-3.2,4.8
		c-1.2,2-2.5,3.4-3.8,4.2c0.7-1.5,1.2-2.7,1.5-3.8c0.4-1.6,0.6-3.2,0.5-4.7l-0.5-1.4c-0.4-0.7-0.6-1.4-0.7-1.8
		c-0.3-1.3-0.6-2.8-0.7-4.5l-0.4-4.4c-0.4-3.4-1.2-5.6-2.6-6.9c-0.4-0.4-1.1-0.7-2.1-1.1c-0.9-0.3-1.6-0.6-1.9-0.9
		c0.2-0.9,1.1-1.7,2.6-2.3c1.7-0.6,2.7-1.2,3.1-1.7c0.2,0.2,0.6,0.4,1.3,0.6c0.7,0.2,1.3,0.4,1.5,0.6
		C63.2,474.7,63.9,476.9,64.3,480.6"/>
	<path class="st14" d="M59.4,485.7L60,492l0.9,3.8c0.5,1.8,0.7,3.1,0.7,3.9c-0.2,2.5-0.9,4.8-2.3,6.8c-1.3,1.8-2.7,2.8-4.2,2.9
		c-1.8,0.2-4.4-1.3-7.7-4.3c-3.2-2.9-4.9-5.3-5.3-7.1c-0.2-0.7-0.1-1.7,0.2-3.1c0.4-1.8,0.6-3.1,0.6-3.8l-0.1-4.3
		c-0.1-1.8-0.2-3.1-0.1-3.8c0.1-2.7,1.1-4.5,3.1-5.3l4.9-0.2c2.6,0.2,4.2,0.4,4.8,0.6l1.1,1.2L58,481
		C58.8,482.2,59.2,483.7,59.4,485.7"/>
	<path class="st14" d="M51.9,470.9c0.7-1.1,2-1.5,4-1.2c1.9,0.2,2.9,1.1,2.9,2.4c-1.2,0.9-2.4,1.2-3.8,0.9
		C53.7,472.7,52.6,472,51.9,470.9"/>
	<path class="st7" d="M52.8,475.3c-0.5-0.1-0.5-0.3-0.1-0.8c0.3-0.5,0.8-0.7,1.3-0.4c-0.1,0.2-0.3,0.4-0.7,0.5
		C52.9,474.8,52.7,475,52.8,475.3"/>
	<path class="st7" d="M51.9,473.3c0.2,0.1,0.3,0.2,0.2,0.4c-0.2,0.3-0.2,0.6-0.2,0.8h-3.6c0.1-0.2,0.2-0.5,0.4-0.8l0.4-0.8
		c0.7-0.3,1.4-0.1,1.9,0.6l0.5,0.5C51.6,474,51.8,473.8,51.9,473.3"/>
	<path class="st7" d="M52.3,476.3c0.2,0.5-0.1,0.7-0.8,0.6l0.3-0.4l0.2-0.5l-2.9,0.3c-1.1-0.1-2.1-0.3-2.9-0.6
		c-0.9-0.4-1.4-0.9-1.5-1.4c-0.1-0.6,0.3-1.3,1.2-1.9c0.5,0.2,0.5,0.5,0.2,0.9c-0.5,0.4-0.7,0.8-0.6,1.2c1.1,0.6,2.1,1.1,3.1,1.3
		c1.4,0.3,2.4,0.2,3.1-0.5C51.8,475.4,52.1,475.8,52.3,476.3"/>
	<path class="st14" d="M38.5,476.8c2.1-1.4,4.3-1.5,6.5-0.3l-1.8,2.5c-0.8,1.1-1.3,2.2-1.5,3.2c-0.2,0.8-0.1,2.1,0.1,3.9l0.4,4.6
		c0,0.9-0.2,2.3-0.5,4.1c-0.3,1.6-0.4,2.6-0.3,3.2c0.2,1.7,1.5,3.7,3.8,5.8l2.8,2.4l2.3,2.3c-0.4,0.5-1,0.9-1.7,1.2l-1.9,0.4
		c-2.3,0.1-4.5-0.9-6.7-2.9c-1.3-1.2-2.8-3-4.6-5.6c-0.5-2.7-0.7-6-0.8-9.7c-0.1-2.5-0.1-6,0-10.6C35.6,479.3,37,477.8,38.5,476.8"
		/>
	<path class="st7" d="M47.5,473.3c0.1-0.3,0.2-0.4,0.3-0.1c0.1,0.3,0.2,0.6,0.1,0.9c-0.1,0.4-0.2,0.4-0.3,0.1
		C47.4,473.9,47.4,473.6,47.5,473.3"/>
	<path class="st14" d="M40.1,472.1c0.8-0.1,1.9-0.1,3.3-0.1c0.1-0.4,0-0.6-0.3-0.7l-0.9-0.1c0.7-1.1,2.1-1.6,4.3-1.7
		c2-0.1,3.7,0.2,5,0.8c-3.7,0.5-6.5,1.6-8.1,3.3c-0.5,0.1-1.1,0-1.5-0.3c-0.5-0.4-1-0.5-1.4-0.5l-2.1,0.6l-1.9,0.7l-0.3,0.2l0.3-0.6
		c0.5-0.2,0.8-0.6,0.8-1.2L40.1,472.1"/>
	<path class="st14" d="M40.6,474l1.9,0.5c-0.4,0.4-1.1,0.7-1.9,0.6l-2.1,0.2c-1.1,0.4-2.2,1.5-3.4,3.3c-1.2,1.9-1.8,3.6-1.9,5.2
		c-0.3,5-0.1,9.6,0.8,14c1.1,5.5,3,8.9,5.7,10.4c-0.7,0.5-1.6,0.2-2.7-0.9c-0.6-0.5-1.4-1.6-2.5-3.1l-1.4-1.7
		c-0.5-0.7-0.8-1.5-1-2.3c-0.2-0.9-0.2-2.4-0.1-4.6l0.5-5.9c-0.1-3.3-0.1-5.6,0-7c0.1-2.3,0.5-4,1.2-5.2c0.2-0.4,0.9-0.9,2.1-1.7
		c1.2-0.9,2.2-1.4,2.8-1.5L40.6,474"/>
</g>
<text transform="matrix(1 0 0 1 69.7862 493.4844)" class="st2 st13">BETA TESTING:</text>
<text transform="matrix(1 0 0 1 79.0713 152.8398)" class="st2 st15">Neander Abreu</text>
<text transform="matrix(1 0 0 1 79.0713 224.9277)" class="st2 st15">Rodrigo Rocha, Diego Zabot, Marcos Mass</text>
<text transform="matrix(1 0 0 1 79.0713 296.5869)" class="st2 st15">Tharcísio Vaz</text>
<text transform="matrix(1 0 0 1 79.0713 375.2227)" class="st2 st15">DAIANE MASCARENHAS</text>
<text transform="matrix(1 0 0 1 79.0713 443.3047)" class="st2 st15">Rogério Lázaro Jr.</text>
<text transform="matrix(1 0 0 1 79.0713 519.2227)" class="st2 st15">Rogério Lázaro Jr., Antonio Santana, Felipe Freitas</text>
<g>
	<g>
		
			<image style="overflow:visible;enable-background:new    ;" width="1908" height="596" xlink:href="8C6286A5.png"  transform="matrix(8.766469e-002 0 0 0.1491 624.9796 519.2227)">
		</image>
	</g>
	<rect x="640.8" y="537.6" class="st16" width="140.9" height="43.9"/>
</g>
<g>
	<g>
		<text transform="matrix(1 0 0 1 662.7927 574.9091)" class="st17 st2 st18">voltar</text>
	</g>
	<text transform="matrix(1 0 0 1 664.593 574.9091)" class="st19 st2 st18">voltar</text>
</g>
</svg>
