<?xml version="1.0" encoding="utf-8"?>
<!-- Generator: Adobe Illustrator 19.1.0, SVG Export Plug-In . SVG Version: 6.00 Build 0)  -->
<svg version="1.1" id="Layer_1" xmlns="http://www.w3.org/2000/svg" xmlns:xlink="http://www.w3.org/1999/xlink" x="0px" y="0px"
	 viewBox="0 0 800 600" style="enable-background:new 0 0 800 600;" xml:space="preserve">
<style type="text/css">
	.st0{opacity:0.37;fill:#FFFFFF;}
	.st1{fill:#24130D;}
	.st2{fill:#997F58;}
	.st3{fill-rule:evenodd;clip-rule:evenodd;fill:#010101;}
	.st4{fill-rule:evenodd;clip-rule:evenodd;fill:#FFCD05;}
	.st5{fill-rule:evenodd;clip-rule:evenodd;fill:#49B749;}
	.st6{fill-rule:evenodd;clip-rule:evenodd;fill:#ED2024;}
	.st7{fill-rule:evenodd;clip-rule:evenodd;fill:#0F8140;}
	.st8{fill-rule:evenodd;clip-rule:evenodd;fill:#7D287D;}
	.st9{fill-rule:evenodd;clip-rule:evenodd;fill:#F26822;}
	.st10{fill-rule:evenodd;clip-rule:evenodd;fill:#038181;}
	.st11{fill:#998058;}
	.st12{enable-background:new    ;}
	.st13{fill:#25130D;}
	.st14{fill:#FFFFFF;}
</style>
<g>
	
		<image style="overflow:visible;enable-background:new    ;" width="1277" height="829" xlink:href="6106F19A.png"  transform="matrix(0.7652 0 0 0.7656 -43.8776 -34.6496)">
	</image>
</g>
<rect x="19.4" y="89.1" class="st0" width="761.2" height="440.8"/>
<g>
	<path class="st1" d="M57.5,55.9v7.4c0,8.9-4.4,13.9-13,13.9c-8.6,0-13-5.1-13-13.9V34.4c0-8.9,4.4-13.9,13-13.9
		c8.6,0,13,5.1,13,13.9v5.4h-8.2v-5.9c0-4-1.7-5.5-4.5-5.5c-2.8,0-4.5,1.5-4.5,5.5v29.9c0,4,1.7,5.4,4.5,5.4c2.8,0,4.5-1.4,4.5-5.4
		v-7.9H57.5z"/>
	<path class="st1" d="M81,76.5c-0.5-1.4-0.8-2.3-0.8-6.8V61c0-5.1-1.7-7-5.7-7h-3v22.6h-8.7V21.1h13.1c9,0,12.9,4.2,12.9,12.7v4.4
		c0,5.7-1.8,9.3-5.7,11.2v0.2c4.4,1.8,5.8,5.9,5.8,11.7v8.6c0,2.7,0.1,4.7,1,6.7H81z M71.5,29v17h3.4c3.2,0,5.2-1.4,5.2-5.9v-5.5
		c0-4-1.3-5.7-4.4-5.7H71.5z"/>
	<path class="st1" d="M103.3,44.5h12v7.9h-12v16.2h15v7.9H94.6V21.1h23.8V29h-15V44.5z M115.8,9.4l-8.1,8.8h-5.9l5.4-8.8H115.8z"/>
	<path class="st1" d="M123.8,21.1h13.8c8.7,0,13,4.8,13,13.7v28c0,8.9-4.3,13.7-13,13.7h-13.8V21.1z M132.5,29v39.6h4.9
		c2.8,0,4.4-1.4,4.4-5.4V34.4c0-4-1.7-5.4-4.4-5.4H132.5z"/>
	<path class="st1" d="M156.1,21.1h8.7v55.4h-8.7V21.1z"/>
	<path class="st1" d="M168.6,21.1h26.9V29h-9.1v47.5h-8.7V29h-9.1V21.1z"/>
	<path class="st1" d="M198.6,34.4c0-8.9,4.7-13.9,13.2-13.9S225,25.6,225,34.4v28.8c0,8.9-4.7,13.9-13.2,13.9s-13.2-5.1-13.2-13.9
		V34.4z M207.3,63.8c0,4,1.7,5.5,4.5,5.5c2.8,0,4.5-1.5,4.5-5.5V33.9c0-4-1.7-5.5-4.5-5.5c-2.8,0-4.5,1.5-4.5,5.5V63.8z"/>
	<path class="st1" d="M242.4,20.5c8.5,0,12.8,5.1,12.8,13.9v1.7h-8.2v-2.3c0-4-1.6-5.5-4.4-5.5c-2.8,0-4.4,1.5-4.4,5.5
		c0,4,1.7,7,7.4,12c7.3,6.4,9.6,11,9.6,17.3c0,8.9-4.4,13.9-13,13.9s-13-5.1-13-13.9v-3.4h8.2v4c0,4,1.7,5.4,4.5,5.4
		c2.8,0,4.5-1.4,4.5-5.4c0-4-1.7-7-7.4-12c-7.3-6.4-9.6-11-9.6-17.3C229.5,25.6,233.9,20.5,242.4,20.5z"/>
</g>
<g>
	<path class="st2" d="M61.9,53.9v7.4c0,8.9-4.4,13.9-13,13.9c-8.6,0-13-5.1-13-13.9V32.4c0-8.9,4.4-13.9,13-13.9
		c8.6,0,13,5.1,13,13.9v5.4h-8.2v-5.9c0-4-1.7-5.5-4.5-5.5c-2.8,0-4.5,1.5-4.5,5.5v29.9c0,4,1.7,5.4,4.5,5.4c2.8,0,4.5-1.4,4.5-5.4
		v-7.9H61.9z"/>
	<path class="st2" d="M85.4,74.5c-0.5-1.4-0.8-2.3-0.8-6.8V59c0-5.1-1.7-7-5.7-7h-3v22.6h-8.7V19.1h13.1c9,0,12.9,4.2,12.9,12.7v4.4
		c0,5.7-1.8,9.3-5.7,11.2v0.2c4.4,1.8,5.8,5.9,5.8,11.7v8.6c0,2.7,0.1,4.7,1,6.7H85.4z M75.9,27v17h3.4c3.2,0,5.2-1.4,5.2-5.9v-5.5
		c0-4-1.3-5.7-4.4-5.7H75.9z"/>
	<path class="st2" d="M107.7,42.5h12v7.9h-12v16.2h15v7.9H99V19.1h23.8V27h-15V42.5z M120.1,7.4l-8.1,8.8h-5.9l5.4-8.8H120.1z"/>
	<path class="st2" d="M128.1,19.1h13.8c8.7,0,13,4.8,13,13.7v28c0,8.9-4.3,13.7-13,13.7h-13.8V19.1z M136.8,27v39.6h4.9
		c2.8,0,4.4-1.4,4.4-5.4V32.4c0-4-1.7-5.4-4.4-5.4H136.8z"/>
	<path class="st2" d="M160.4,19.1h8.7v55.4h-8.7V19.1z"/>
	<path class="st2" d="M173,19.1h26.9V27h-9.1v47.5h-8.7V27H173V19.1z"/>
	<path class="st2" d="M203,32.4c0-8.9,4.7-13.9,13.2-13.9s13.2,5.1,13.2,13.9v28.8c0,8.9-4.7,13.9-13.2,13.9S203,70.1,203,61.2V32.4
		z M211.7,61.8c0,4,1.7,5.5,4.5,5.5c2.8,0,4.5-1.5,4.5-5.5V31.9c0-4-1.7-5.5-4.5-5.5c-2.8,0-4.5,1.5-4.5,5.5V61.8z"/>
	<path class="st2" d="M246.7,18.5c8.5,0,12.8,5.1,12.8,13.9v1.7h-8.2v-2.3c0-4-1.6-5.5-4.4-5.5c-2.8,0-4.4,1.5-4.4,5.5
		c0,4,1.7,7,7.4,12c7.3,6.4,9.6,11,9.6,17.3c0,8.9-4.4,13.9-13,13.9s-13-5.1-13-13.9v-3.4h8.2v4c0,4,1.7,5.4,4.5,5.4
		c2.8,0,4.5-1.4,4.5-5.4c0-4-1.7-7-7.4-12c-7.3-6.4-9.6-11-9.6-17.3C233.9,23.6,238.3,18.5,246.7,18.5z"/>
</g>
<g>
	<path class="st3" d="M57.8,331.9c-0.6-0.1-1.1-0.3-1.2-0.5c-0.3,0.5-1.3,1-2.8,1.6c-1.3,0.5-2.2,1.2-2.3,2.1
		c0.3,0.3,0.9,0.6,1.8,0.9c0.9,0.3,1.5,0.6,1.9,1c1.2,1.2,2,3.3,2.3,6.3l0.3,4c0.1,1.6,0.4,3,0.7,4.1c0.1,0.4,0.3,1,0.6,1.7l0.5,1.2
		c0.1,1.4-0.1,2.8-0.5,4.3c-0.3,1-0.8,2.2-1.4,3.5c1.2-0.7,2.3-2,3.4-3.8c1.5-2.5,2.4-3.9,2.9-4.4c0.2-1.4,0.1-2.7-0.2-3.7l-1.3-2.9
		c-0.5-1.4-0.9-4.3-1.3-8.5c-0.3-3.3-1-5.4-2-6.3C59,332.3,58.5,332.1,57.8,331.9 M57.3,330.6l2,1.3c0.9,0.5,1.4,1.1,1.7,1.6
		c0.4,0.8,0.7,2.2,0.8,4.2l0.3,4.6c0.1,1.4,0.7,3.3,1.7,5.9c0.7,2.1,1.1,3.7,0.9,4.8c-0.1,0.9-0.9,2.5-2.2,4.8
		c-1.3,2.2-2.4,3.7-3.3,4.4l-1.6,1l-1.7,0.9l-1.5,1l-1.4,0.8l-1.8-0.2l-1.1-0.9c-1.2,0.9-3.3,1.3-6.4,1.2c-3-0.1-5.3-0.7-6.9-1.5
		c-1-0.6-1.9-1.6-2.8-3.3c-1-1.6-1.7-2.6-2.3-3.1c-0.2-7.7-0.2-12.8,0-15.4c0.5-5.8,2-9.8,4.4-11.9c1.1,0,2.5-0.5,4.4-1.4
		c1.9-0.9,3.3-1.4,4.4-1.5l2.4,0.3c1.1,0.3,1.9,0.4,2.4,0.4l2.8-0.7c1.2-0.3,2.2-0.2,2.7,0.3c0.5,0,0.8,0.2,1.1,0.7L57.3,330.6
		 M55.5,339.1l-1.2-1.5l-1-1.1c-0.6-0.2-2-0.4-4.4-0.6l-4.5,0.2c-1.8,0.8-2.7,2.4-2.8,4.8c0,0.7,0,1.9,0.1,3.5l0.1,3.9
		c0,0.7-0.2,1.8-0.5,3.4c-0.2,1.3-0.3,2.2-0.2,2.8c0.3,1.7,1.9,3.8,4.8,6.5c3,2.7,5.3,4,7,3.9c1.3-0.1,2.6-1,3.8-2.6
		c1.2-1.8,2-3.9,2.1-6.2c0-0.8-0.2-1.9-0.7-3.5l-0.9-3.5l-0.5-5.6C56.6,341.6,56.2,340.2,55.5,339.1 M36,332.5l-0.2,0.5l0.2-0.1
		l1.8-0.6l1.9-0.5c0.3,0,0.8,0.1,1.2,0.5c0.4,0.3,0.9,0.4,1.3,0.3c1.5-1.5,4-2.5,7.4-3c-1.2-0.6-2.8-0.9-4.6-0.8
		c-2,0.1-3.3,0.6-3.9,1.5l0.8,0.1c0.3,0.1,0.4,0.3,0.3,0.6c-1.2,0-2.2,0-3,0l-2.6,0.3C36.7,331.9,36.4,332.3,36,332.5 M37.8,332.8
		c-0.6,0.1-1.5,0.6-2.6,1.4c-1.1,0.7-1.7,1.2-1.9,1.6c-0.6,1-1,2.6-1.1,4.7c0,1.2,0,3.3,0,6.4l-0.4,5.4c-0.1,2-0.1,3.4,0,4.2
		c0.1,0.8,0.5,1.4,0.9,2.1l1.3,1.6c1,1.4,1.8,2.3,2.3,2.8c1,1.1,1.9,1.3,2.5,0.9c-2.4-1.3-4.2-4.4-5.2-9.4c-0.8-4-1-8.2-0.7-12.7
		c0.1-1.4,0.7-3,1.8-4.7c1.1-1.6,2.1-2.6,3.1-3l1.9-0.1c0.8,0,1.3-0.2,1.7-0.6l-1.8-0.5L37.8,332.8 M34.1,339.4c0,4.1,0,7.3,0,9.6
		c0.1,3.4,0.3,6.4,0.8,8.8c1.7,2.3,3.1,4,4.2,5.1c2.1,1.9,4.1,2.8,6.1,2.7l1.7-0.3c0.7-0.2,1.2-0.6,1.6-1.1l-2.1-2.1l-2.5-2.2
		c-2.1-2-3.3-3.7-3.5-5.3c-0.1-0.5,0-1.5,0.2-2.9c0.3-1.6,0.5-2.9,0.5-3.7l-0.3-4.2c-0.1-1.6-0.2-2.8,0-3.5c0.1-0.9,0.6-1.9,1.3-2.9
		l1.6-2.3c-2.1-1.1-4-1-5.9,0.2C36.4,336.2,35.1,337.6,34.1,339.4 M49.6,333.9c-0.6,0.6-1.5,0.7-2.8,0.4c-0.9-0.2-1.8-0.6-2.8-1.1
		c-0.1-0.3,0.1-0.7,0.5-1.1c0.3-0.4,0.3-0.6-0.1-0.8c-0.9,0.6-1.2,1.1-1.1,1.7c0.1,0.5,0.5,0.9,1.3,1.3c0.7,0.3,1.6,0.5,2.6,0.6
		l2.7-0.3l-0.1,0.4l-0.2,0.3c0.6,0.1,0.9-0.1,0.7-0.6C50.1,334.3,49.9,334,49.6,333.9 M49.1,332.3c-0.5-0.6-1.1-0.8-1.7-0.6
		l-0.4,0.8c-0.2,0.3-0.3,0.6-0.3,0.8H50c0-0.2,0-0.5,0.1-0.8c0.1-0.2,0-0.3-0.1-0.4c-0.1,0.4-0.3,0.6-0.4,0.6L49.1,332.3
		 M51.2,333.3c0.4-0.1,0.6-0.3,0.6-0.5c-0.5-0.2-0.9-0.1-1.2,0.4c-0.4,0.4-0.3,0.7,0.1,0.7C50.7,333.7,50.8,333.4,51.2,333.3
		 M52.8,331.8c1.3,0.3,2.4,0,3.5-0.8c0-1.2-0.9-2-2.7-2.2c-1.8-0.2-3,0.1-3.6,1.1C50.6,330.9,51.6,331.5,52.8,331.8 M46,332.9
		c0.1,0.2,0.2,0.2,0.3-0.1c0-0.3,0-0.5-0.1-0.8c-0.1-0.3-0.2-0.2-0.3,0C45.9,332.4,45.9,332.6,46,332.9"/>
	<path class="st4" d="M61.2,338.7c0.4,4.3,0.8,7.1,1.3,8.5l1.3,2.9c0.3,1.1,0.4,2.3,0.2,3.7c-0.4,0.4-1.4,1.9-2.9,4.4
		c-1.1,1.8-2.2,3.1-3.4,3.8c0.6-1.3,1.1-2.5,1.4-3.5c0.4-1.5,0.6-2.9,0.5-4.3l-0.5-1.2c-0.3-0.7-0.5-1.2-0.6-1.7
		c-0.3-1.1-0.5-2.5-0.7-4.1l-0.3-4c-0.3-3.1-1.1-5.1-2.3-6.3c-0.4-0.3-1-0.7-1.9-1c-0.9-0.3-1.4-0.6-1.8-0.9c0.2-0.9,1-1.6,2.3-2.1
		c1.5-0.6,2.5-1.1,2.8-1.6c0.1,0.2,0.6,0.4,1.2,0.5c0.7,0.2,1.1,0.4,1.4,0.6C60.2,333.3,60.9,335.4,61.2,338.7"/>
	<path class="st4" d="M56.8,343.4l0.5,5.6l0.9,3.5c0.5,1.6,0.7,2.8,0.7,3.5c-0.1,2.3-0.9,4.4-2.1,6.2c-1.2,1.6-2.5,2.5-3.8,2.6
		c-1.7,0.1-4-1.1-7-3.9c-2.9-2.6-4.5-4.8-4.8-6.5c-0.1-0.6,0-1.5,0.2-2.8c0.3-1.6,0.5-2.8,0.5-3.4l-0.1-3.9
		c-0.1-1.6-0.1-2.8-0.1-3.5c0.1-2.4,1-4.1,2.8-4.8l4.5-0.2c2.4,0.1,3.8,0.3,4.4,0.6l1,1.1l1.2,1.5C56.2,340.2,56.6,341.6,56.8,343.4
		"/>
	<path class="st4" d="M50,329.9c0.6-1,1.8-1.3,3.6-1.1c1.8,0.2,2.7,1,2.7,2.2c-1.1,0.8-2.2,1.1-3.5,0.8
		C51.6,331.5,50.6,330.9,50,329.9"/>
	<path class="st5" d="M50.7,333.9c-0.4,0-0.5-0.3-0.1-0.7c0.3-0.5,0.7-0.6,1.2-0.4c0,0.2-0.2,0.4-0.6,0.5
		C50.8,333.4,50.7,333.7,50.7,333.9"/>
	<path class="st5" d="M50,332.1c0.2,0.1,0.2,0.2,0.1,0.4c-0.1,0.3-0.2,0.6-0.1,0.8h-3.3c0-0.2,0.1-0.5,0.3-0.8l0.4-0.8
		c0.7-0.2,1.2,0,1.7,0.6l0.4,0.4C49.7,332.7,49.8,332.5,50,332.1"/>
	<path class="st5" d="M50.3,334.8c0.1,0.5-0.1,0.7-0.7,0.6l0.2-0.3l0.1-0.4l-2.7,0.3c-1-0.1-1.9-0.3-2.6-0.6
		c-0.8-0.4-1.2-0.8-1.3-1.3c-0.1-0.6,0.2-1.1,1.1-1.7c0.4,0.2,0.5,0.4,0.1,0.8c-0.4,0.4-0.6,0.7-0.5,1.1c1,0.6,1.9,1,2.8,1.1
		c1.2,0.3,2.2,0.1,2.8-0.4C49.9,334,50.1,334.3,50.3,334.8"/>
	<path class="st4" d="M37.8,335.3c1.9-1.2,3.9-1.3,5.9-0.2l-1.6,2.3c-0.7,1-1.2,2-1.3,2.9c-0.1,0.7-0.1,1.9,0,3.5l0.3,4.2
		c0,0.9-0.1,2.1-0.5,3.7c-0.2,1.4-0.3,2.4-0.2,2.9c0.2,1.6,1.4,3.3,3.5,5.3l2.5,2.2l2.1,2.1c-0.4,0.5-0.9,0.9-1.6,1.1l-1.7,0.3
		c-2.1,0.1-4.1-0.8-6.1-2.7c-1.1-1.1-2.5-2.7-4.2-5.1c-0.4-2.5-0.7-5.5-0.8-8.8c0-2.3,0-5.5,0-9.6C35.1,337.6,36.4,336.2,37.8,335.3
		"/>
	<path class="st5" d="M45.9,332.1c0-0.3,0.1-0.3,0.3,0c0.1,0.3,0.1,0.5,0.1,0.8c-0.1,0.3-0.2,0.3-0.3,0.1
		C45.9,332.6,45.9,332.4,45.9,332.1"/>
	<path class="st4" d="M39.3,331c0.7,0,1.7-0.1,3,0c0.1-0.3,0-0.5-0.3-0.6l-0.8-0.1c0.6-1,1.9-1.4,3.9-1.5c1.8-0.1,3.3,0.2,4.6,0.8
		c-3.4,0.5-5.9,1.5-7.4,3c-0.5,0.1-1,0-1.3-0.3c-0.5-0.3-0.9-0.5-1.2-0.5l-1.9,0.5l-1.8,0.6l-0.2,0.1l0.2-0.5
		c0.5-0.1,0.7-0.5,0.7-1.1L39.3,331"/>
	<path class="st4" d="M39.7,332.7l1.8,0.5c-0.4,0.4-1,0.6-1.7,0.6l-1.9,0.1c-1,0.4-2,1.4-3.1,3c-1.1,1.7-1.7,3.3-1.8,4.7
		c-0.3,4.5,0,8.8,0.7,12.7c1,5,2.7,8.1,5.2,9.4c-0.6,0.4-1.5,0.2-2.5-0.9c-0.5-0.5-1.3-1.4-2.3-2.8l-1.3-1.6
		c-0.4-0.7-0.8-1.3-0.9-2.1c-0.2-0.8-0.2-2.2,0-4.2l0.4-5.4c0-3,0-5.1,0-6.4c0.1-2.1,0.5-3.7,1.1-4.7c0.2-0.3,0.8-0.9,1.9-1.6
		c1.1-0.8,2-1.3,2.6-1.4L39.7,332.7"/>
</g>
<g>
	<path class="st3" d="M56.1,117.1c-0.6-0.1-1.1-0.3-1.2-0.5c-0.3,0.5-1.3,1-2.9,1.6c-1.4,0.5-2.2,1.3-2.4,2.2
		c0.3,0.3,0.9,0.6,1.8,0.9c0.9,0.3,1.6,0.6,2,1c1.3,1.2,2.1,3.4,2.4,6.6l0.3,4.2c0.1,1.6,0.4,3.1,0.7,4.3c0.1,0.4,0.3,1,0.6,1.7
		l0.5,1.3c0.1,1.4-0.1,2.9-0.5,4.5c-0.3,1-0.8,2.2-1.4,3.6c1.2-0.7,2.4-2,3.6-3.9c1.5-2.6,2.5-4.1,3-4.5c0.2-1.5,0.1-2.8-0.2-3.9
		l-1.3-3c-0.5-1.4-0.9-4.4-1.3-8.9c-0.3-3.5-1-5.6-2.1-6.5C57.2,117.5,56.8,117.3,56.1,117.1 M55.6,115.8l2.1,1.3
		c0.9,0.5,1.4,1.1,1.8,1.7c0.4,0.8,0.7,2.3,0.8,4.4l0.3,4.8c0.1,1.4,0.7,3.5,1.7,6.2c0.7,2.2,1.1,3.9,0.9,5c-0.1,0.9-0.9,2.6-2.3,5
		c-1.4,2.3-2.5,3.8-3.4,4.6l-1.6,1l-1.8,0.9l-1.6,1l-1.5,0.8l-1.9-0.2l-1.2-0.9c-1.2,0.9-3.5,1.4-6.7,1.2c-3.1-0.1-5.5-0.7-7.2-1.6
		c-1-0.6-2-1.7-2.9-3.4c-1-1.7-1.8-2.7-2.4-3.2c-0.2-8-0.2-13.4,0-16.1c0.5-6,2-10.2,4.6-12.4c1.1,0,2.6-0.5,4.6-1.5
		c1.9-0.9,3.5-1.5,4.6-1.5l2.5,0.3c1.1,0.3,1.9,0.4,2.5,0.4l2.9-0.7c1.3-0.3,2.2-0.2,2.8,0.3c0.5,0,0.8,0.2,1.2,0.7L55.6,115.8
		 M53.7,124.6l-1.3-1.5l-1-1.1c-0.6-0.2-2.1-0.4-4.6-0.6l-4.7,0.2c-1.8,0.8-2.8,2.5-2.9,5c0,0.7,0,1.9,0.1,3.6l0.1,4
		c0,0.7-0.2,1.9-0.5,3.6c-0.2,1.3-0.3,2.3-0.2,2.9c0.3,1.7,2,4,5,6.7c3.1,2.8,5.5,4.2,7.3,4c1.4-0.1,2.7-1,4-2.7
		c1.3-1.9,2-4.1,2.2-6.5c0-0.8-0.2-2-0.7-3.7l-0.9-3.6l-0.5-5.9C54.8,127.2,54.4,125.7,53.7,124.6 M33.3,117.7l-0.2,0.5l0.2-0.1
		l1.8-0.6l2-0.5c0.3,0,0.8,0.1,1.3,0.5c0.4,0.3,0.9,0.4,1.4,0.3c1.5-1.5,4.1-2.6,7.7-3.1c-1.3-0.6-2.9-0.9-4.8-0.8
		c-2,0.1-3.4,0.6-4,1.6l0.8,0.1c0.3,0.1,0.4,0.3,0.3,0.6c-1.3,0-2.3,0-3.1,0l-2.7,0.3C34,117.2,33.8,117.6,33.3,117.7 M35.2,118.1
		c-0.6,0.1-1.5,0.6-2.7,1.4c-1.1,0.7-1.7,1.3-1.9,1.6c-0.6,1-1,2.7-1.1,4.9c0,1.3,0,3.5,0,6.6l-0.4,5.6c-0.1,2.1-0.1,3.5,0,4.4
		c0.1,0.8,0.5,1.5,0.9,2.2l1.3,1.6c1,1.4,1.8,2.4,2.4,2.9c1,1.1,1.9,1.3,2.6,0.9c-2.5-1.3-4.4-4.6-5.4-9.8c-0.8-4.1-1-8.5-0.7-13.3
		c0.1-1.5,0.7-3.1,1.8-4.9c1.1-1.7,2.2-2.7,3.2-3.1l2-0.1c0.8,0,1.4-0.2,1.8-0.6l-1.8-0.5L35.2,118.1 M31.3,125c0,4.3,0,7.6,0,10
		c0.1,3.5,0.3,6.6,0.8,9.2c1.7,2.4,3.2,4.2,4.4,5.3c2.1,1.9,4.2,2.9,6.4,2.8l1.8-0.3c0.7-0.2,1.2-0.6,1.6-1.1l-2.1-2.2l-2.6-2.3
		c-2.2-2-3.4-3.9-3.6-5.5c-0.1-0.5,0-1.5,0.2-3c0.3-1.7,0.5-3,0.5-3.9l-0.3-4.4c-0.1-1.7-0.2-2.9,0-3.7c0.1-0.9,0.6-1.9,1.4-3
		l1.7-2.4c-2.1-1.1-4.2-1-6.2,0.2C33.7,121.6,32.4,123,31.3,125 M47.5,119.3c-0.6,0.6-1.6,0.7-2.9,0.4c-0.9-0.2-1.8-0.6-2.9-1.2
		c-0.1-0.3,0.1-0.7,0.5-1.1c0.3-0.4,0.3-0.6-0.1-0.8c-0.9,0.6-1.2,1.2-1.1,1.8c0.1,0.5,0.5,0.9,1.4,1.3c0.7,0.3,1.7,0.5,2.7,0.6
		l2.8-0.3l-0.1,0.4l-0.2,0.3c0.6,0.1,0.9-0.1,0.7-0.6C48,119.6,47.8,119.4,47.5,119.3 M47,117.5c-0.5-0.6-1.1-0.8-1.8-0.6l-0.4,0.8
		c-0.2,0.3-0.3,0.6-0.3,0.8h3.4c0-0.2,0-0.5,0.1-0.8c0.1-0.2,0-0.3-0.1-0.4c-0.1,0.4-0.3,0.6-0.4,0.6L47,117.5 M49.2,118.6
		c0.4-0.1,0.6-0.3,0.6-0.5c-0.5-0.2-0.9-0.1-1.2,0.4c-0.4,0.4-0.3,0.7,0.1,0.7C48.6,119,48.8,118.7,49.2,118.6 M50.8,117
		c1.3,0.3,2.5,0,3.6-0.8c0-1.3-0.9-2.1-2.8-2.3c-1.9-0.2-3.1,0.1-3.8,1.1C48.5,116.1,49.5,116.8,50.8,117 M43.7,118.2
		c0.1,0.2,0.2,0.2,0.3-0.1c0-0.3,0-0.5-0.1-0.8c-0.1-0.3-0.2-0.2-0.3,0C43.6,117.6,43.6,117.9,43.7,118.2"/>
	<path class="st6" d="M59.6,124.2c0.4,4.4,0.8,7.4,1.3,8.9l1.3,3c0.3,1.1,0.4,2.4,0.2,3.9c-0.4,0.4-1.4,1.9-3,4.5
		c-1.1,1.9-2.3,3.2-3.6,3.9c0.6-1.4,1.1-2.6,1.4-3.6c0.4-1.5,0.6-3,0.5-4.5l-0.5-1.3c-0.3-0.7-0.5-1.3-0.6-1.7
		c-0.3-1.2-0.5-2.6-0.7-4.3l-0.3-4.2c-0.3-3.2-1.1-5.3-2.4-6.6c-0.4-0.3-1-0.7-2-1c-0.9-0.3-1.5-0.6-1.8-0.9c0.2-0.9,1-1.6,2.4-2.2
		c1.6-0.6,2.6-1.1,2.9-1.6c0.1,0.2,0.6,0.4,1.2,0.5c0.7,0.2,1.2,0.4,1.4,0.6C58.5,118.6,59.2,120.7,59.6,124.2"/>
	<path class="st6" d="M55,129.1l0.5,5.9l0.9,3.6c0.5,1.7,0.7,2.9,0.7,3.7c-0.1,2.4-0.9,4.6-2.2,6.5c-1.2,1.7-2.6,2.6-4,2.7
		c-1.7,0.1-4.2-1.2-7.3-4c-3-2.7-4.7-5-5-6.7c-0.1-0.6,0-1.6,0.2-2.9c0.3-1.7,0.5-2.9,0.5-3.6l-0.1-4c-0.1-1.7-0.1-2.9-0.1-3.6
		c0.1-2.5,1-4.2,2.9-5l4.7-0.2c2.5,0.1,4,0.3,4.6,0.6l1,1.1l1.3,1.5C54.4,125.7,54.8,127.2,55,129.1"/>
	<path class="st6" d="M47.9,115c0.6-1,1.9-1.4,3.8-1.1c1.8,0.2,2.8,1,2.8,2.3c-1.1,0.8-2.3,1.1-3.6,0.8
		C49.5,116.8,48.5,116.1,47.9,115"/>
	<path class="st5" d="M48.7,119.3c-0.4,0-0.5-0.3-0.1-0.7c0.3-0.5,0.7-0.6,1.2-0.4c0,0.2-0.2,0.4-0.6,0.5
		C48.8,118.7,48.6,119,48.7,119.3"/>
	<path class="st5" d="M47.9,117.3c0.2,0.1,0.2,0.2,0.1,0.4c-0.1,0.3-0.2,0.6-0.1,0.8h-3.4c0-0.2,0.1-0.5,0.3-0.8l0.4-0.8
		c0.7-0.2,1.3,0,1.8,0.6l0.4,0.4C47.6,118,47.7,117.8,47.9,117.3"/>
	<path class="st5" d="M48.2,120.2c0.1,0.5-0.1,0.7-0.7,0.6l0.2-0.3l0.1-0.4l-2.8,0.3c-1-0.1-2-0.3-2.7-0.6c-0.8-0.4-1.3-0.8-1.4-1.3
		c-0.1-0.6,0.2-1.2,1.1-1.8c0.4,0.2,0.5,0.4,0.1,0.8c-0.4,0.4-0.6,0.7-0.5,1.1c1,0.6,2,1,2.9,1.2c1.3,0.3,2.2,0.1,2.9-0.4
		C47.8,119.4,48,119.6,48.2,120.2"/>
	<path class="st6" d="M35.2,120.6c2-1.3,4-1.4,6.2-0.2l-1.7,2.4c-0.7,1-1.2,2.1-1.4,3c-0.1,0.7-0.1,2,0,3.7l0.3,4.4
		c0,0.9-0.1,2.2-0.5,3.9c-0.2,1.5-0.3,2.5-0.2,3c0.2,1.6,1.4,3.5,3.6,5.5l2.6,2.3l2.1,2.2c-0.4,0.5-0.9,0.9-1.6,1.1l-1.8,0.3
		c-2.1,0.1-4.2-0.8-6.4-2.8c-1.2-1.1-2.6-2.8-4.4-5.3c-0.4-2.6-0.7-5.7-0.8-9.2c0-2.4,0-5.7,0-10C32.4,123,33.7,121.6,35.2,120.6"/>
	<path class="st5" d="M43.6,117.3c0-0.3,0.1-0.3,0.3,0c0.1,0.3,0.1,0.5,0.1,0.8c-0.1,0.3-0.2,0.3-0.3,0.1
		C43.6,117.9,43.6,117.6,43.6,117.3"/>
	<path class="st6" d="M36.7,116.2c0.7,0,1.8-0.1,3.1,0c0.1-0.3,0-0.5-0.3-0.6l-0.8-0.1c0.6-1,2-1.5,4-1.6c1.9-0.1,3.5,0.2,4.8,0.8
		c-3.5,0.5-6.1,1.5-7.7,3.1c-0.5,0.1-1,0-1.4-0.3c-0.5-0.3-0.9-0.5-1.3-0.5l-2,0.5l-1.8,0.6l-0.2,0.1l0.2-0.5
		c0.5-0.1,0.7-0.5,0.7-1.1L36.7,116.2"/>
	<path class="st6" d="M37.2,118l1.8,0.5c-0.4,0.4-1,0.6-1.8,0.6l-2,0.1c-1,0.4-2.1,1.4-3.2,3.1c-1.1,1.8-1.7,3.4-1.8,4.9
		c-0.3,4.7,0,9.1,0.7,13.3c1,5.2,2.8,8.5,5.4,9.8c-0.6,0.4-1.5,0.2-2.6-0.9c-0.5-0.5-1.3-1.5-2.4-2.9l-1.3-1.6
		c-0.4-0.7-0.8-1.4-0.9-2.2c-0.2-0.8-0.2-2.3,0-4.4l0.4-5.6c0-3.1,0-5.3,0-6.6c0.1-2.2,0.5-3.8,1.1-4.9c0.2-0.3,0.8-0.9,1.9-1.6
		c1.1-0.8,2-1.3,2.7-1.4L37.2,118"/>
</g>
<g>
	<path class="st3" d="M56.2,182.1c-0.6-0.1-1-0.3-1.2-0.5c-0.3,0.5-1.3,1-2.8,1.6c-1.3,0.5-2.1,1.2-2.3,2.1c0.3,0.3,0.9,0.6,1.8,0.9
		c0.9,0.3,1.5,0.6,1.9,1c1.2,1.2,2,3.3,2.3,6.3l0.3,4c0.1,1.6,0.4,3,0.7,4.1c0.1,0.4,0.3,1,0.6,1.7l0.5,1.2c0.1,1.4-0.1,2.8-0.5,4.3
		c-0.3,1-0.8,2.2-1.4,3.5c1.2-0.7,2.3-2,3.4-3.8c1.5-2.5,2.4-3.9,2.8-4.4c0.2-1.4,0.1-2.7-0.2-3.7l-1.3-2.9
		c-0.5-1.4-0.9-4.3-1.3-8.5c-0.3-3.4-1-5.4-2-6.3C57.3,182.5,56.9,182.3,56.2,182.1 M55.7,180.8l2,1.3c0.9,0.5,1.4,1.1,1.7,1.6
		c0.4,0.8,0.7,2.2,0.8,4.2l0.3,4.7c0.1,1.4,0.7,3.4,1.7,5.9c0.7,2.1,1,3.7,0.9,4.8c-0.1,0.9-0.9,2.5-2.2,4.8
		c-1.3,2.2-2.4,3.7-3.3,4.5l-1.6,1l-1.7,0.9l-1.5,1l-1.4,0.8l-1.8-0.2l-1.1-0.9c-1.2,0.9-3.3,1.3-6.3,1.2c-3-0.1-5.2-0.7-6.8-1.5
		c-0.9-0.6-1.9-1.6-2.8-3.3c-0.9-1.6-1.7-2.6-2.3-3.1c-0.2-7.7-0.2-12.9,0-15.5c0.5-5.8,1.9-9.8,4.4-11.9c1.1,0,2.5-0.5,4.4-1.4
		c1.8-0.9,3.3-1.4,4.4-1.5l2.4,0.3c1,0.3,1.8,0.4,2.4,0.4l2.8-0.7c1.2-0.3,2.1-0.2,2.7,0.3c0.5,0,0.8,0.2,1.1,0.7L55.7,180.8
		 M53.9,189.3l-1.2-1.5l-0.9-1.1c-0.6-0.2-2-0.4-4.4-0.6l-4.5,0.2c-1.8,0.8-2.7,2.4-2.7,4.8c0,0.7,0,1.9,0.1,3.5l0.1,3.9
		c0,0.7-0.2,1.8-0.5,3.5c-0.2,1.3-0.3,2.2-0.2,2.8c0.3,1.7,1.9,3.8,4.8,6.5c2.9,2.7,5.3,4,6.9,3.9c1.3-0.1,2.6-1,3.8-2.6
		c1.2-1.8,1.9-3.9,2.1-6.2c0-0.8-0.2-1.9-0.7-3.6l-0.9-3.5l-0.5-5.7C55,191.8,54.6,190.4,53.9,189.3 M34.6,182.7l-0.2,0.5l0.2-0.1
		l1.8-0.6l1.9-0.5c0.3,0,0.8,0.1,1.2,0.5c0.4,0.3,0.9,0.4,1.3,0.3c1.5-1.5,3.9-2.5,7.3-3c-1.2-0.6-2.7-0.9-4.5-0.8
		c-1.9,0.1-3.2,0.6-3.8,1.5l0.8,0.1c0.3,0.1,0.4,0.3,0.3,0.6c-1.2,0-2.2,0-2.9,0l-2.6,0.3C35.3,182.1,35,182.5,34.6,182.7 M36.4,183
		c-0.6,0.1-1.5,0.6-2.6,1.4c-1,0.7-1.7,1.2-1.8,1.6c-0.6,1-1,2.6-1.1,4.7c0,1.2,0,3.4,0,6.4l-0.4,5.4c-0.1,2-0.1,3.4,0,4.2
		c0.1,0.8,0.5,1.4,0.9,2.1l1.3,1.6c1,1.4,1.8,2.4,2.3,2.8c1,1.1,1.8,1.3,2.5,0.9c-2.4-1.3-4.2-4.4-5.1-9.5c-0.8-4-1-8.2-0.7-12.8
		c0.1-1.4,0.7-3,1.8-4.7c1-1.6,2.1-2.6,3-3l1.9-0.1c0.8,0,1.3-0.2,1.7-0.6l-1.8-0.5L36.4,183 M32.7,189.7c0,4.1,0,7.3,0,9.6
		c0.1,3.4,0.3,6.4,0.8,8.9c1.7,2.4,3,4,4.2,5.1c2,1.9,4,2.8,6.1,2.7l1.7-0.3c0.7-0.2,1.2-0.6,1.6-1.1l-2-2.1l-2.5-2.2
		c-2.1-2-3.3-3.7-3.5-5.3c-0.1-0.5,0-1.5,0.2-2.9c0.3-1.6,0.5-2.9,0.5-3.7l-0.3-4.2c-0.1-1.6-0.2-2.8,0-3.6c0.1-0.9,0.6-1.9,1.3-2.9
		l1.6-2.3c-2-1.1-4-1-5.9,0.2C35,186.4,33.8,187.8,32.7,189.7 M48.1,184.1c-0.6,0.6-1.5,0.7-2.7,0.4c-0.9-0.2-1.8-0.6-2.7-1.2
		c-0.1-0.3,0.1-0.7,0.5-1.1c0.3-0.4,0.3-0.6-0.1-0.8c-0.9,0.6-1.2,1.2-1.1,1.7c0.1,0.5,0.5,0.9,1.3,1.3c0.7,0.3,1.6,0.5,2.6,0.6
		l2.7-0.3l-0.1,0.4l-0.2,0.3c0.6,0.1,0.9-0.1,0.7-0.6C48.6,184.5,48.3,184.2,48.1,184.1 M47.6,182.5c-0.5-0.6-1-0.8-1.7-0.6
		l-0.4,0.8c-0.2,0.3-0.3,0.6-0.3,0.8h3.3c0-0.2,0-0.5,0.1-0.8c0.1-0.2,0-0.3-0.1-0.4c-0.1,0.4-0.3,0.6-0.4,0.6L47.6,182.5
		 M49.7,183.5c0.4-0.1,0.6-0.3,0.6-0.5c-0.5-0.2-0.9-0.1-1.2,0.4c-0.4,0.4-0.3,0.7,0.1,0.7C49.1,183.9,49.3,183.6,49.7,183.5
		 M51.2,182c1.3,0.3,2.4,0,3.5-0.8c0-1.2-0.9-2-2.7-2.2c-1.8-0.2-3,0.1-3.6,1.1C49.1,181.1,50,181.7,51.2,182 M44.5,183.1
		c0.1,0.2,0.2,0.2,0.3-0.1c0-0.3,0-0.5-0.1-0.8c-0.1-0.3-0.2-0.2-0.3,0C44.4,182.6,44.4,182.9,44.5,183.1"/>
	<path class="st7" d="M59.6,188.9c0.4,4.3,0.8,7.1,1.3,8.5l1.3,2.9c0.3,1.1,0.4,2.3,0.2,3.7c-0.4,0.4-1.4,1.9-2.8,4.4
		c-1.1,1.8-2.2,3.1-3.4,3.8c0.6-1.3,1.1-2.5,1.4-3.5c0.4-1.5,0.6-2.9,0.5-4.3l-0.5-1.2c-0.3-0.7-0.5-1.2-0.6-1.7
		c-0.3-1.2-0.5-2.5-0.7-4.1l-0.3-4c-0.3-3.1-1.1-5.1-2.3-6.3c-0.4-0.3-1-0.7-1.9-1c-0.9-0.3-1.4-0.6-1.8-0.9c0.2-0.9,1-1.6,2.3-2.1
		c1.5-0.6,2.5-1.1,2.8-1.6c0.1,0.2,0.6,0.4,1.2,0.5c0.7,0.2,1.1,0.4,1.4,0.6C58.6,183.5,59.2,185.6,59.6,188.9"/>
	<path class="st7" d="M55.2,193.6l0.5,5.7l0.9,3.5c0.5,1.6,0.7,2.8,0.7,3.6c-0.1,2.3-0.9,4.4-2.1,6.2c-1.2,1.6-2.5,2.5-3.8,2.6
		c-1.7,0.1-4-1.2-6.9-3.9c-2.9-2.6-4.5-4.8-4.8-6.5c-0.1-0.6,0-1.5,0.2-2.8c0.3-1.6,0.5-2.8,0.5-3.5l-0.1-3.9
		c-0.1-1.6-0.1-2.8-0.1-3.5c0.1-2.4,1-4.1,2.7-4.8l4.5-0.2c2.4,0.1,3.8,0.3,4.4,0.6l0.9,1.1l1.2,1.5C54.6,190.4,55,191.8,55.2,193.6
		"/>
	<path class="st7" d="M48.4,180.1c0.6-1,1.8-1.3,3.6-1.1c1.8,0.2,2.7,1,2.7,2.2c-1,0.8-2.2,1.1-3.5,0.8
		C50,181.7,49.1,181.1,48.4,180.1"/>
	<path class="st5" d="M49.2,184.1c-0.4,0-0.5-0.3-0.1-0.7c0.3-0.5,0.7-0.6,1.2-0.4c0,0.2-0.2,0.4-0.6,0.5
		C49.3,183.6,49.1,183.9,49.2,184.1"/>
	<path class="st5" d="M48.4,182.3c0.2,0.1,0.2,0.2,0.1,0.4c-0.1,0.3-0.2,0.6-0.1,0.8h-3.3c0-0.2,0.1-0.5,0.3-0.8l0.4-0.8
		c0.7-0.2,1.2,0,1.7,0.6l0.4,0.4C48.2,182.9,48.3,182.7,48.4,182.3"/>
	<path class="st5" d="M48.8,185.1c0.1,0.5-0.1,0.7-0.7,0.6l0.2-0.3l0.1-0.4l-2.7,0.3c-1-0.1-1.9-0.3-2.6-0.6
		c-0.8-0.4-1.2-0.8-1.3-1.3c-0.1-0.6,0.2-1.2,1.1-1.7c0.4,0.2,0.5,0.4,0.1,0.8c-0.4,0.4-0.6,0.7-0.5,1.1c1,0.6,1.9,1,2.7,1.2
		c1.2,0.3,2.1,0.1,2.7-0.4C48.3,184.2,48.6,184.5,48.8,185.1"/>
	<path class="st7" d="M36.4,185.5c1.9-1.2,3.8-1.3,5.9-0.2l-1.6,2.3c-0.7,1-1.2,2-1.3,2.9c-0.1,0.7-0.1,1.9,0,3.6l0.3,4.2
		c0,0.9-0.1,2.1-0.5,3.7c-0.2,1.4-0.3,2.4-0.2,2.9c0.2,1.6,1.4,3.4,3.5,5.3l2.5,2.2l2,2.1c-0.4,0.5-0.9,0.9-1.6,1.1l-1.7,0.3
		c-2,0.1-4-0.8-6.1-2.7c-1.1-1.1-2.5-2.7-4.2-5.1c-0.4-2.5-0.7-5.5-0.8-8.9c0-2.3,0-5.5,0-9.6C33.8,187.8,35,186.4,36.4,185.5"/>
	<path class="st5" d="M44.4,182.3c0-0.3,0.1-0.3,0.3,0c0.1,0.3,0.1,0.5,0.1,0.8c-0.1,0.3-0.2,0.3-0.3,0.1
		C44.4,182.9,44.4,182.6,44.4,182.3"/>
	<path class="st7" d="M37.8,181.2c0.7,0,1.7-0.1,2.9,0c0.1-0.3,0-0.5-0.3-0.6l-0.8-0.1c0.6-1,1.9-1.4,3.8-1.5
		c1.8-0.1,3.3,0.2,4.5,0.8c-3.4,0.5-5.8,1.5-7.3,3c-0.5,0.1-0.9,0-1.3-0.3c-0.5-0.3-0.9-0.5-1.2-0.5l-1.9,0.5l-1.8,0.6l-0.2,0.1
		l0.2-0.5c0.5-0.1,0.7-0.5,0.7-1.1L37.8,181.2"/>
	<path class="st7" d="M38.3,182.9l1.8,0.5c-0.4,0.4-0.9,0.6-1.7,0.6l-1.9,0.1c-0.9,0.4-2,1.4-3,3c-1.1,1.7-1.7,3.3-1.8,4.7
		c-0.3,4.6,0,8.8,0.7,12.8c0.9,5,2.7,8.2,5.1,9.5c-0.6,0.4-1.5,0.2-2.5-0.9c-0.5-0.5-1.3-1.4-2.3-2.8l-1.3-1.6
		c-0.4-0.7-0.8-1.3-0.9-2.1c-0.2-0.8-0.2-2.2,0-4.2l0.4-5.4c0-3,0-5.1,0-6.4c0.1-2.1,0.5-3.7,1.1-4.7c0.2-0.3,0.8-0.9,1.8-1.6
		c1.1-0.8,1.9-1.3,2.6-1.4L38.3,182.9"/>
</g>
<g>
	<path class="st3" d="M57.6,258.4c-0.6-0.1-1.1-0.3-1.2-0.5c-0.3,0.5-1.3,1-2.9,1.6c-1.4,0.5-2.2,1.3-2.4,2.2
		c0.3,0.3,0.9,0.6,1.8,0.9c0.9,0.3,1.6,0.6,2,1c1.3,1.2,2.1,3.4,2.4,6.5l0.3,4.1c0.1,1.6,0.4,3.1,0.7,4.2c0.1,0.4,0.3,1,0.6,1.7
		l0.5,1.3c0.1,1.4-0.1,2.9-0.5,4.4c-0.3,1-0.8,2.2-1.4,3.6c1.2-0.7,2.4-2,3.6-3.9c1.5-2.6,2.5-4,3-4.5c0.2-1.5,0.1-2.8-0.2-3.8
		l-1.3-3c-0.5-1.4-0.9-4.4-1.3-8.8c-0.3-3.5-1-5.6-2.1-6.5C58.8,258.8,58.3,258.6,57.6,258.4 M57.1,257.1l2.1,1.3
		c0.9,0.5,1.4,1.1,1.8,1.7c0.4,0.8,0.7,2.3,0.8,4.3l0.3,4.8c0.1,1.4,0.7,3.5,1.7,6.1c0.7,2.2,1.1,3.8,0.9,4.9
		c-0.1,0.9-0.9,2.6-2.3,4.9c-1.4,2.3-2.5,3.8-3.4,4.6l-1.6,1l-1.8,0.9l-1.6,1l-1.5,0.8l-1.9-0.2l-1.2-0.9c-1.2,0.9-3.5,1.4-6.6,1.2
		c-3.1-0.1-5.4-0.7-7.1-1.6c-1-0.6-2-1.7-2.9-3.4c-1-1.7-1.8-2.7-2.4-3.2c-0.2-7.9-0.2-13.2,0-15.9c0.5-6,2-10.1,4.6-12.2
		c1.1,0,2.6-0.5,4.5-1.5c1.9-0.9,3.5-1.5,4.6-1.5l2.5,0.3c1.1,0.3,1.9,0.4,2.5,0.4l2.9-0.7c1.3-0.3,2.2-0.2,2.8,0.3
		c0.5,0,0.8,0.2,1.2,0.7L57.1,257.1 M55.2,265.9l-1.3-1.5l-1-1.1c-0.6-0.2-2.1-0.4-4.5-0.6l-4.6,0.2c-1.8,0.8-2.8,2.5-2.9,5
		c0,0.7,0,1.9,0.1,3.6l0.1,4c0,0.7-0.2,1.9-0.5,3.6c-0.2,1.3-0.3,2.3-0.2,2.9c0.3,1.7,2,3.9,5,6.7c3.1,2.8,5.5,4.1,7.2,4
		c1.4-0.1,2.7-1,3.9-2.7c1.3-1.9,2-4,2.2-6.4c0-0.8-0.2-2-0.7-3.6l-0.9-3.6l-0.5-5.8C56.4,268.4,55.9,267,55.2,265.9 M35.1,259
		l-0.2,0.5l0.2-0.1l1.8-0.6l2-0.5c0.3,0,0.8,0.1,1.3,0.5c0.4,0.3,0.9,0.4,1.4,0.3c1.5-1.5,4.1-2.6,7.6-3.1c-1.3-0.6-2.9-0.9-4.7-0.8
		c-2,0.1-3.4,0.6-4,1.6l0.8,0.1c0.3,0.1,0.4,0.3,0.3,0.6c-1.3,0-2.3,0-3.1,0l-2.7,0.3C35.8,258.5,35.6,258.9,35.1,259 M37,259.4
		c-0.6,0.1-1.5,0.6-2.7,1.4c-1.1,0.7-1.7,1.3-1.9,1.6c-0.6,1-1,2.7-1.1,4.8c0,1.3,0,3.5,0,6.6l-0.4,5.6c-0.1,2.1-0.1,3.5,0,4.3
		c0.1,0.8,0.5,1.5,0.9,2.2l1.3,1.6c1,1.4,1.8,2.4,2.4,2.9c1,1.1,1.9,1.3,2.6,0.9c-2.5-1.3-4.3-4.5-5.3-9.7c-0.8-4.1-1-8.4-0.7-13.1
		c0.1-1.5,0.7-3.1,1.8-4.9c1.1-1.7,2.2-2.7,3.2-3.1l2-0.1c0.8,0,1.4-0.2,1.8-0.6l-1.8-0.5L37,259.4 M33.2,266.2c0,4.2,0,7.5,0,9.9
		c0.1,3.5,0.3,6.6,0.8,9.1c1.7,2.4,3.2,4.1,4.3,5.2c2.1,1.9,4.2,2.9,6.3,2.8l1.8-0.3c0.7-0.2,1.2-0.6,1.6-1.1l-2.1-2.2l-2.6-2.3
		c-2.2-2-3.4-3.8-3.6-5.5c-0.1-0.5,0-1.5,0.2-3c0.3-1.7,0.5-3,0.5-3.8l-0.3-4.3c-0.1-1.7-0.2-2.9,0-3.6c0.1-0.9,0.6-1.9,1.4-3
		l1.7-2.4c-2.1-1.1-4.1-1-6.1,0.2C35.5,262.9,34.2,264.3,33.2,266.2 M49.1,260.5c-0.6,0.6-1.6,0.7-2.9,0.4c-0.9-0.2-1.8-0.6-2.9-1.2
		c-0.1-0.3,0.1-0.7,0.5-1.1c0.3-0.4,0.3-0.6-0.1-0.8c-0.9,0.6-1.2,1.2-1.1,1.8c0.1,0.5,0.5,0.9,1.4,1.3c0.7,0.3,1.7,0.5,2.7,0.6
		l2.8-0.3l-0.1,0.4l-0.2,0.3c0.6,0.1,0.9-0.1,0.7-0.6C49.7,260.9,49.4,260.6,49.1,260.5 M48.6,258.8c-0.5-0.6-1.1-0.8-1.8-0.6
		l-0.4,0.8c-0.2,0.3-0.3,0.6-0.3,0.8h3.4c0-0.2,0-0.5,0.1-0.8c0.1-0.2,0-0.3-0.1-0.4c-0.1,0.4-0.3,0.6-0.4,0.6L48.6,258.8
		 M50.8,259.9c0.4-0.1,0.6-0.3,0.6-0.5c-0.5-0.2-0.9-0.1-1.2,0.4c-0.4,0.4-0.3,0.7,0.1,0.7C50.3,260.2,50.4,260,50.8,259.9
		 M52.4,258.3c1.3,0.3,2.5,0,3.6-0.8c0-1.3-0.9-2.1-2.8-2.3c-1.9-0.2-3.1,0.1-3.7,1.1C50.2,257.4,51.2,258.1,52.4,258.3 M45.4,259.5
		c0.1,0.2,0.2,0.2,0.3-0.1c0-0.3,0-0.5-0.1-0.8c-0.1-0.3-0.2-0.2-0.3,0C45.3,258.9,45.3,259.2,45.4,259.5"/>
	<path class="st8" d="M61.1,265.5c0.4,4.4,0.8,7.3,1.3,8.8l1.3,3c0.3,1.1,0.4,2.4,0.2,3.8c-0.4,0.4-1.4,1.9-3,4.5
		c-1.1,1.9-2.3,3.2-3.6,3.9c0.6-1.4,1.1-2.6,1.4-3.6c0.4-1.5,0.6-3,0.5-4.4l-0.5-1.3c-0.3-0.7-0.5-1.3-0.6-1.7
		c-0.3-1.2-0.5-2.6-0.7-4.2l-0.3-4.1c-0.3-3.2-1.1-5.3-2.4-6.5c-0.4-0.3-1-0.7-2-1c-0.9-0.3-1.5-0.6-1.8-0.9c0.2-0.9,1-1.6,2.4-2.2
		c1.6-0.6,2.6-1.1,2.9-1.6c0.1,0.2,0.6,0.4,1.2,0.5c0.7,0.2,1.2,0.4,1.4,0.6C60.1,259.9,60.8,262,61.1,265.5"/>
	<path class="st8" d="M56.6,270.3l0.5,5.8l0.9,3.6c0.5,1.7,0.7,2.9,0.7,3.6c-0.1,2.4-0.9,4.5-2.2,6.4c-1.2,1.7-2.6,2.6-3.9,2.7
		c-1.7,0.1-4.1-1.2-7.2-4c-3-2.7-4.6-4.9-5-6.7c-0.1-0.6,0-1.6,0.2-2.9c0.3-1.7,0.5-2.9,0.5-3.6l-0.1-4c-0.1-1.7-0.1-2.9-0.1-3.6
		c0.1-2.5,1-4.2,2.9-5l4.6-0.2c2.5,0.1,3.9,0.3,4.5,0.6l1,1.1l1.3,1.5C55.9,267,56.4,268.4,56.6,270.3"/>
	<path class="st8" d="M49.5,256.3c0.6-1,1.9-1.4,3.7-1.1c1.8,0.2,2.8,1,2.8,2.3c-1.1,0.8-2.3,1.1-3.6,0.8
		C51.2,258.1,50.2,257.4,49.5,256.3"/>
	<path class="st5" d="M50.3,260.5c-0.4,0-0.5-0.3-0.1-0.7c0.3-0.5,0.7-0.6,1.2-0.4c0,0.2-0.2,0.4-0.6,0.5
		C50.4,260,50.3,260.2,50.3,260.5"/>
	<path class="st5" d="M49.5,258.6c0.2,0.1,0.2,0.2,0.1,0.4c-0.1,0.3-0.2,0.6-0.1,0.8h-3.4c0-0.2,0.1-0.5,0.3-0.8l0.4-0.8
		c0.7-0.2,1.3,0,1.8,0.6l0.4,0.4C49.2,259.3,49.4,259.1,49.5,258.6"/>
	<path class="st5" d="M49.9,261.5c0.1,0.5-0.1,0.7-0.7,0.6l0.2-0.3l0.1-0.4l-2.8,0.3c-1-0.1-2-0.3-2.7-0.6c-0.8-0.4-1.3-0.8-1.4-1.3
		c-0.1-0.6,0.2-1.2,1.1-1.8c0.4,0.2,0.5,0.4,0.1,0.8c-0.4,0.4-0.6,0.7-0.5,1.1c1,0.6,2,1,2.9,1.2c1.3,0.3,2.2,0.1,2.9-0.4
		C49.4,260.6,49.7,260.9,49.9,261.5"/>
	<path class="st8" d="M37,261.9c2-1.3,4-1.4,6.1-0.2l-1.7,2.4c-0.7,1-1.2,2.1-1.4,3c-0.1,0.7-0.1,2,0,3.6l0.3,4.3
		c0,0.9-0.1,2.2-0.5,3.8c-0.2,1.5-0.3,2.5-0.2,3c0.2,1.6,1.4,3.5,3.6,5.5l2.6,2.3l2.1,2.2c-0.4,0.5-0.9,0.9-1.6,1.1l-1.8,0.3
		c-2.1,0.1-4.2-0.8-6.3-2.8c-1.2-1.1-2.6-2.8-4.3-5.2c-0.4-2.6-0.7-5.6-0.8-9.1c0-2.4,0-5.7,0-9.9C34.2,264.3,35.5,262.9,37,261.9"
		/>
	<path class="st5" d="M45.3,258.6c0-0.3,0.1-0.3,0.3,0c0.1,0.3,0.1,0.5,0.1,0.8c-0.1,0.3-0.2,0.3-0.3,0.1
		C45.3,259.2,45.3,258.9,45.3,258.6"/>
	<path class="st8" d="M38.5,257.5c0.7,0,1.8-0.1,3.1,0c0.1-0.3,0-0.5-0.3-0.6l-0.8-0.1c0.6-1,2-1.5,4-1.6c1.9-0.1,3.5,0.2,4.7,0.8
		c-3.5,0.5-6.1,1.5-7.6,3.1c-0.5,0.1-1,0-1.4-0.3c-0.5-0.3-0.9-0.5-1.3-0.5l-2,0.5l-1.8,0.6l-0.2,0.1l0.2-0.5
		c0.5-0.1,0.7-0.5,0.7-1.1L38.5,257.5"/>
	<path class="st8" d="M38.9,259.3l1.8,0.5c-0.4,0.4-1,0.6-1.8,0.6l-2,0.1c-1,0.4-2.1,1.4-3.2,3.1c-1.1,1.8-1.7,3.4-1.8,4.9
		c-0.3,4.7,0,9,0.7,13.1c1,5.2,2.8,8.4,5.3,9.7c-0.6,0.4-1.5,0.2-2.6-0.9c-0.5-0.5-1.3-1.5-2.4-2.9l-1.3-1.6
		c-0.4-0.7-0.8-1.4-0.9-2.2c-0.2-0.8-0.2-2.3,0-4.3l0.4-5.6c0-3.1,0-5.3,0-6.6c0.1-2.2,0.5-3.8,1.1-4.8c0.2-0.3,0.8-0.9,1.9-1.6
		c1.1-0.8,2-1.3,2.7-1.4L38.9,259.3"/>
</g>
<g>
	<path d="M76.2,117H81v7c0,3.5-1.8,5.5-5.1,5.5c-3.4,0-5.1-2-5.1-5.5v-11.4c0-3.5,1.8-5.5,5.1-5.5c3.4,0,5.1,2,5.1,5.5v2.1h-3.3
		v-2.4c0-1.6-0.7-2.2-1.8-2.2c-1.1,0-1.8,0.6-1.8,2.2v11.9c0,1.6,0.7,2.1,1.8,2.1c1.1,0,1.8-0.6,1.8-2.1v-4h-1.6V117z"/>
	<path d="M94.4,129.2h-3.5l-0.6-4h-4.2l-0.6,4h-3.2l3.5-21.9h5L94.4,129.2z M86.5,122.3h3.3l-1.6-11.1h-0.1L86.5,122.3z"/>
	<path d="M103.3,122.9L103.3,122.9l2.4-15.6h4.8v21.9h-3.3v-15.7h-0.1l-2.3,15.7h-3.3L99,113.7H99v15.5h-3v-21.9h4.8L103.3,122.9z"
		/>
	<path d="M116.4,116.5h4.7v3.1h-4.7v6.4h6v3.1H113v-21.9h9.4v3.1h-6V116.5z"/>
	<path d="M129.4,107.3h5.5c3.4,0,5.1,1.9,5.1,5.4v11.1c0,3.5-1.7,5.4-5.1,5.4h-5.5V107.3z M132.8,110.4v15.7h1.9
		c1.1,0,1.8-0.6,1.8-2.1v-11.4c0-1.6-0.7-2.1-1.8-2.1H132.8z"/>
	<path d="M145.6,116.5h4.7v3.1h-4.7v6.4h6v3.1h-9.4v-21.9h9.4v3.1h-6V116.5z"/>
	<path d="M158.3,107c3.4,0,5.1,2,5.1,5.5v0.7h-3.3v-0.9c0-1.6-0.6-2.2-1.7-2.2c-1.1,0-1.7,0.6-1.7,2.2c0,1.6,0.7,2.8,2.9,4.8
		c2.9,2.5,3.8,4.4,3.8,6.9c0,3.5-1.8,5.5-5.1,5.5s-5.1-2-5.1-5.5v-1.3h3.3v1.6c0,1.6,0.7,2.1,1.8,2.1c1.1,0,1.8-0.6,1.8-2.1
		c0-1.6-0.7-2.8-2.9-4.8c-2.9-2.5-3.8-4.4-3.8-6.9C153.3,109,155,107,158.3,107z"/>
	<path d="M165.4,107.3h3.4v21.9h-3.4V107.3z"/>
	<path d="M176.6,117h4.8v7c0,3.5-1.8,5.5-5.1,5.5c-3.4,0-5.1-2-5.1-5.5v-11.4c0-3.5,1.8-5.5,5.1-5.5c3.4,0,5.1,2,5.1,5.5v2.1h-3.3
		v-2.4c0-1.6-0.7-2.2-1.8-2.2c-1.1,0-1.8,0.6-1.8,2.2v11.9c0,1.6,0.7,2.1,1.8,2.1c1.1,0,1.8-0.6,1.8-2.1v-4h-1.6V117z"/>
	<path d="M186.7,113.3L186.7,113.3l-0.1,15.9h-3.1v-21.9h4.3l3.5,13.1h0.1v-13.1h3.1v21.9H191L186.7,113.3z"/>
	<path d="M200.3,114v3.3H197V114H200.3z M200.3,125.9v3.3H197v-3.3H200.3z"/>
</g>
<g>
	<path d="M81.3,186.1v2.9c0,3.5-1.7,5.4-5.1,5.4h-1.6v8.2H71v-21.9h5.1C79.6,180.7,81.3,182.6,81.3,186.1z M74.5,183.9v7.4h1.6
		c1.1,0,1.7-0.5,1.7-2.1v-3.3c0-1.6-0.6-2.1-1.7-2.1H74.5z"/>
	<path d="M90.1,202.7c-0.2-0.6-0.3-0.9-0.3-2.7v-3.4c0-2-0.7-2.8-2.3-2.8h-1.2v8.9h-3.4v-21.9h5.2c3.6,0,5.1,1.7,5.1,5v1.7
		c0,2.3-0.7,3.7-2.3,4.4v0.1c1.7,0.7,2.3,2.4,2.3,4.6v3.4c0,1.1,0,1.9,0.4,2.7H90.1z M86.3,183.9v6.7h1.3c1.3,0,2.1-0.6,2.1-2.3
		v-2.2c0-1.6-0.5-2.3-1.8-2.3H86.3z"/>
	<path d="M95.2,186c0-3.5,1.9-5.5,5.2-5.5c3.4,0,5.2,2,5.2,5.5v11.4c0,3.5-1.9,5.5-5.2,5.5c-3.4,0-5.2-2-5.2-5.5V186z M98.6,197.6
		c0,1.6,0.7,2.2,1.8,2.2c1.1,0,1.8-0.6,1.8-2.2v-11.9c0-1.6-0.7-2.2-1.8-2.2c-1.1,0-1.8,0.6-1.8,2.2V197.6z"/>
	<path d="M113.1,190.4h4.8v7c0,3.5-1.8,5.5-5.1,5.5c-3.4,0-5.1-2-5.1-5.5V186c0-3.5,1.8-5.5,5.1-5.5c3.4,0,5.1,2,5.1,5.5v2.1h-3.3
		v-2.4c0-1.6-0.7-2.2-1.8-2.2c-1.1,0-1.8,0.6-1.8,2.2v11.9c0,1.6,0.7,2.1,1.8,2.1c1.1,0,1.8-0.6,1.8-2.1v-4h-1.6V190.4z"/>
	<path d="M127.3,202.7c-0.2-0.6-0.3-0.9-0.3-2.7v-3.4c0-2-0.7-2.8-2.3-2.8h-1.2v8.9h-3.4v-21.9h5.2c3.6,0,5.1,1.7,5.1,5v1.7
		c0,2.3-0.7,3.7-2.3,4.4v0.1c1.7,0.7,2.3,2.4,2.3,4.6v3.4c0,1.1,0,1.9,0.4,2.7H127.3z M123.6,183.9v6.7h1.3c1.3,0,2.1-0.6,2.1-2.3
		v-2.2c0-1.6-0.5-2.3-1.8-2.3H123.6z"/>
	<path d="M143.9,202.7h-3.5l-0.6-4h-4.2l-0.6,4h-3.2l3.5-21.9h5L143.9,202.7z M136,195.7h3.3l-1.6-11.1h-0.1L136,195.7z"/>
	<path d="M152.8,196.3L152.8,196.3l2.4-15.6h4.8v21.9h-3.3v-15.7h-0.1l-2.3,15.7H151l-2.5-15.5h-0.1v15.5h-3v-21.9h4.8L152.8,196.3z
		"/>
	<path d="M173.6,202.7h-3.5l-0.6-4h-4.2l-0.6,4h-3.2l3.5-21.9h5L173.6,202.7z M165.7,195.7h3.3l-1.6-11.1h-0.1L165.7,195.7z"/>
	<path d="M185.2,194.5v2.9c0,3.3-1.5,5.2-4.5,5.5v1c1.5,0,2.3,0.4,2.3,1.5c0,1.7-1.3,1.9-3.2,1.9c-1.7,0-3-0.4-3-1.8v-0.3h2.3v0.3
		c0,0.5,0.3,0.6,0.7,0.6c0.5,0,0.8-0.2,0.8-0.8c0-0.6-0.4-0.8-1.1-0.8h-0.3v-1.6c-2.9-0.3-4.3-2.2-4.3-5.5V186
		c0-3.5,1.8-5.5,5.1-5.5c3.4,0,5.1,2,5.1,5.5v2.1h-3.3v-2.4c0-1.6-0.7-2.2-1.8-2.2c-1.1,0-1.8,0.6-1.8,2.2v11.9
		c0,1.6,0.7,2.1,1.8,2.1c1.1,0,1.8-0.6,1.8-2.1v-3.1H185.2z"/>
	<path d="M198.4,202.7H195l-0.6-4h-4.2l-0.6,4h-3.2l3.5-21.9h5L198.4,202.7z M195,176.3l1.7,1.2c-0.5,1.4-1.4,2.1-2.7,2.1
		c-0.5,0-0.9-0.1-1.7-0.4c-0.5-0.3-0.8-0.3-1.2-0.3c-0.7,0-1,0.3-1.3,0.9l-1.7-1.2c0.5-1.4,1.4-2.1,2.7-2.1c0.6,0,1,0.1,1.7,0.4
		c0.5,0.3,0.8,0.3,1.2,0.3C194.3,177.2,194.7,176.9,195,176.3z M190.6,195.7h3.3l-1.6-11.1h-0.1L190.6,195.7z"/>
	<path d="M199.7,186c0-3.5,1.9-5.5,5.2-5.5c3.4,0,5.2,2,5.2,5.5v11.4c0,3.5-1.9,5.5-5.2,5.5c-3.4,0-5.2-2-5.2-5.5V186z M203.2,197.6
		c0,1.6,0.7,2.2,1.8,2.2c1.1,0,1.8-0.6,1.8-2.2v-11.9c0-1.6-0.7-2.2-1.8-2.2c-1.1,0-1.8,0.6-1.8,2.2V197.6z"/>
	<path d="M215.8,187.4v3.3h-3.3v-3.3H215.8z M215.8,199.3v3.3h-3.3v-3.3H215.8z"/>
</g>
<g>
	<path d="M82.2,272.8h-3.5l-0.6-4h-4.2l-0.6,4h-3.2l3.5-21.9h5L82.2,272.8z M79.9,246.2l-3.2,3.5h-2.3l2.1-3.5H79.9z M74.3,265.9
		h3.3L76,254.8H76L74.3,265.9z"/>
	<path d="M87.1,250.9v16.9c0,1.6,0.7,2.1,1.8,2.1c1.1,0,1.8-0.6,1.8-2.1v-16.9h3.3v16.7c0,3.5-1.8,5.5-5.1,5.5c-3.4,0-5.1-2-5.1-5.5
		v-16.7H87.1z"/>
	<path d="M96.3,250.9h5.5c3.4,0,5.1,1.9,5.1,5.4v11.1c0,3.5-1.7,5.4-5.1,5.4h-5.5V250.9z M99.7,254v15.7h1.9c1.1,0,1.8-0.6,1.8-2.1
		v-11.4c0-1.6-0.7-2.1-1.8-2.1H99.7z"/>
	<path d="M109.1,250.9h3.4v21.9h-3.4V250.9z"/>
	<path d="M114.8,256.2c0-3.5,1.9-5.5,5.2-5.5c3.4,0,5.2,2,5.2,5.5v11.4c0,3.5-1.9,5.5-5.2,5.5c-3.4,0-5.2-2-5.2-5.5V256.2z
		 M118.2,267.8c0,1.6,0.7,2.2,1.8,2.2c1.1,0,1.8-0.6,1.8-2.2v-11.9c0-1.6-0.7-2.2-1.8-2.2c-1.1,0-1.8,0.6-1.8,2.2V267.8z"/>
	<path d="M130.8,257.6v3.3h-3.3v-3.3H130.8z M130.8,269.5v3.3h-3.3v-3.3H130.8z"/>
</g>
<g>
	<path d="M82.2,351.1h-3.5l-0.6-4h-4.2l-0.6,4h-3.2l3.5-22h5L82.2,351.1z M74.3,344.1h3.3L76,333H76L74.3,344.1z"/>
	<path d="M91,351.1c-0.2-0.6-0.3-0.9-0.3-2.7v-3.4c0-2-0.7-2.8-2.3-2.8h-1.2v8.9h-3.4v-22H89c3.6,0,5.1,1.7,5.1,5v1.7
		c0,2.3-0.7,3.7-2.3,4.4v0.1c1.7,0.7,2.3,2.4,2.3,4.6v3.4c0,1.1,0,1.8,0.4,2.7H91z M87.3,332.3v6.7h1.3c1.3,0,2.1-0.6,2.1-2.3v-2.2
		c0-1.6-0.5-2.3-1.8-2.3H87.3z"/>
	<path d="M95.4,329.1h10.7v3.1h-3.6v18.8H99v-18.8h-3.6V329.1z"/>
	<path d="M111,338.4h4.7v3.1H111v6.4h6v3.1h-9.4v-22h9.4v3.1h-6V338.4z"/>
	<path d="M129.1,338.8h4.8v7c0,3.5-1.8,5.5-5.1,5.5c-3.4,0-5.1-2-5.1-5.5v-11.4c0-3.5,1.8-5.5,5.1-5.5c3.4,0,5.1,2,5.1,5.5v2.1h-3.3
		v-2.4c0-1.6-0.7-2.2-1.8-2.2c-1.1,0-1.8,0.6-1.8,2.2V346c0,1.6,0.7,2.1,1.8,2.1c1.1,0,1.8-0.6,1.8-2.1v-4h-1.6V338.8z"/>
	<path d="M143.4,351.1c-0.2-0.6-0.3-0.9-0.3-2.7v-3.4c0-2-0.7-2.8-2.3-2.8h-1.2v8.9h-3.4v-22h5.2c3.6,0,5.1,1.7,5.1,5v1.7
		c0,2.3-0.7,3.7-2.3,4.4v0.1c1.7,0.7,2.3,2.4,2.3,4.6v3.4c0,1.1,0,1.8,0.4,2.7H143.4z M139.6,332.3v6.7h1.3c1.3,0,2.1-0.6,2.1-2.3
		v-2.2c0-1.6-0.5-2.3-1.8-2.3H139.6z"/>
	<path d="M160,351.1h-3.5l-0.6-4h-4.2l-0.6,4h-3.2l3.5-22h5L160,351.1z M157.6,324.5l-3.2,3.5h-2.3l2.1-3.5H157.6z M152.1,344.1h3.3
		l-1.6-11.1h-0.1L152.1,344.1z"/>
	<path d="M165,338.9h4.5v3.1H165v9.1h-3.4v-22h9.1v3.1H165V338.9z"/>
	<path d="M172.4,329.1h3.4v22h-3.4V329.1z"/>
	<path d="M188.3,342.9v2.9c0,3.5-1.8,5.5-5.1,5.5c-3.4,0-5.1-2-5.1-5.5v-11.4c0-3.5,1.8-5.5,5.1-5.5c3.4,0,5.1,2,5.1,5.5v2.1h-3.3
		v-2.4c0-1.6-0.7-2.2-1.8-2.2c-1.1,0-1.8,0.6-1.8,2.2V346c0,1.6,0.7,2.1,1.8,2.1c1.1,0,1.8-0.6,1.8-2.1v-3.1H188.3z"/>
	<path d="M201.6,351.1h-3.5l-0.6-4h-4.2l-0.6,4h-3.2l3.5-22h5L201.6,351.1z M193.7,344.1h3.3l-1.6-11.1h-0.1L193.7,344.1z"/>
	<path d="M206.5,335.8v3.3h-3.3v-3.3H206.5z M206.5,347.7v3.3h-3.3v-3.3H206.5z"/>
</g>
<g>
	<path class="st3" d="M58.7,403.6c-0.7-0.2-1.2-0.4-1.3-0.6c-0.4,0.5-1.4,1.1-3.1,1.7c-1.5,0.6-2.4,1.4-2.6,2.3
		c0.4,0.3,1,0.6,1.9,0.9c1,0.3,1.7,0.7,2.1,1.1c1.4,1.3,2.2,3.6,2.6,6.9l0.4,4.4c0.2,1.7,0.4,3.3,0.7,4.5c0.1,0.5,0.3,1.1,0.7,1.8
		l0.5,1.4c0.1,1.5-0.1,3.1-0.5,4.7c-0.3,1.1-0.8,2.4-1.5,3.8c1.3-0.8,2.6-2.2,3.8-4.2c1.6-2.7,2.7-4.3,3.2-4.8
		c0.2-1.6,0.1-2.9-0.3-4.1l-1.4-3.2c-0.5-1.5-1-4.7-1.4-9.4c-0.4-3.7-1.1-5.9-2.2-6.9C60,404.1,59.5,403.9,58.7,403.6 M58.2,402.3
		l2.2,1.4c0.9,0.6,1.5,1.2,1.9,1.8c0.4,0.9,0.7,2.4,0.9,4.6l0.3,5.1c0.2,1.5,0.8,3.7,1.8,6.5c0.8,2.3,1.2,4.1,1,5.3
		c-0.1,0.9-0.9,2.7-2.5,5.3c-1.5,2.4-2.7,4-3.6,4.9l-1.7,1.1l-1.9,1l-1.7,1.1l-1.6,0.9l-2-0.2l-1.3-1c-1.3,1-3.7,1.5-7,1.3
		c-3.3-0.2-5.8-0.7-7.6-1.7c-1.1-0.6-2.1-1.8-3.1-3.6c-1.1-1.8-1.9-2.9-2.6-3.4c-0.3-8.4-0.3-14.1,0-17c0.5-6.4,2.2-10.7,4.9-13
		c1.2-0.1,2.8-0.6,4.8-1.6c2.1-1,3.7-1.6,4.9-1.6l2.6,0.3c1.2,0.3,2.1,0.5,2.6,0.5l3.1-0.7c1.4-0.4,2.4-0.3,3,0.3
		c0.5,0,0.9,0.3,1.3,0.8L58.2,402.3 M56.2,411.6l-1.4-1.6l-1.1-1.2c-0.6-0.3-2.2-0.5-4.8-0.6l-4.9,0.2c-1.9,0.8-2.9,2.6-3.1,5.3
		c-0.1,0.7,0,2.1,0.1,3.8l0.1,4.3c0,0.7-0.2,2-0.6,3.8c-0.3,1.4-0.4,2.4-0.2,3.1c0.4,1.8,2.1,4.2,5.3,7.1c3.3,3,5.8,4.4,7.7,4.3
		c1.5-0.1,2.9-1.1,4.2-2.9c1.4-2,2.2-4.3,2.3-6.8c0-0.8-0.2-2.1-0.7-3.9l-0.9-3.8l-0.6-6.2C57.4,414.3,56.9,412.7,56.2,411.6
		 M34.7,404.3l-0.3,0.6l0.3-0.2l1.9-0.7l2.1-0.6c0.4,0,0.8,0.2,1.4,0.5c0.4,0.3,0.9,0.4,1.5,0.3c1.6-1.6,4.4-2.7,8.1-3.3
		c-1.4-0.6-3.1-0.9-5-0.8c-2.2,0.1-3.6,0.6-4.3,1.7l0.9,0.1c0.3,0.1,0.4,0.3,0.3,0.7c-1.4-0.1-2.5,0-3.3,0.1l-2.8,0.4
		C35.5,403.7,35.2,404.1,34.7,404.3 M36.7,404.7c-0.7,0.1-1.6,0.6-2.8,1.5c-1.2,0.8-1.8,1.4-2.1,1.7c-0.7,1.1-1.1,2.8-1.2,5.2
		c-0.1,1.4-0.1,3.7,0,7l-0.5,5.9c-0.2,2.2-0.2,3.7,0.1,4.6c0.2,0.8,0.5,1.6,1,2.3l1.4,1.7c1.1,1.5,1.9,2.6,2.5,3.1
		c1.1,1.2,2.1,1.4,2.7,0.9c-2.7-1.4-4.6-4.8-5.7-10.4c-0.8-4.4-1.1-9-0.8-14c0.1-1.6,0.7-3.3,1.9-5.2c1.2-1.8,2.3-2.9,3.4-3.3
		l2.1-0.2c0.8,0.1,1.5-0.2,1.9-0.6l-1.9-0.5L36.7,404.7 M32.6,412c-0.1,4.5-0.1,8,0,10.6c0.1,3.7,0.4,7,0.8,9.7
		c1.8,2.6,3.4,4.4,4.6,5.6c2.3,2.1,4.5,3.1,6.7,2.9l1.9-0.4c0.7-0.3,1.3-0.7,1.7-1.2l-2.3-2.3l-2.8-2.4c-2.3-2.2-3.6-4.1-3.8-5.8
		c-0.1-0.6,0-1.6,0.3-3.2c0.4-1.8,0.5-3.2,0.5-4.1l-0.4-4.6c-0.2-1.8-0.2-3.1-0.1-3.9c0.2-0.9,0.7-2.1,1.5-3.2l1.8-2.5
		c-2.3-1.2-4.4-1.1-6.5,0.3C35.2,408.4,33.8,409.9,32.6,412 M49.7,405.9c-0.7,0.6-1.7,0.8-3.1,0.5c-0.9-0.2-1.9-0.6-3.1-1.3
		c-0.1-0.4,0.1-0.7,0.6-1.2c0.4-0.4,0.3-0.7-0.2-0.9c-0.9,0.6-1.3,1.3-1.2,1.9c0.1,0.5,0.6,1,1.5,1.4c0.8,0.3,1.8,0.5,2.9,0.6
		l2.9-0.3l-0.2,0.5l-0.3,0.4c0.7,0.1,0.9-0.1,0.8-0.6C50.3,406.3,50,406,49.7,405.9 M49.2,404.1c-0.5-0.7-1.2-0.9-1.9-0.6l-0.4,0.8
		c-0.2,0.3-0.3,0.6-0.4,0.8h3.6c-0.1-0.2,0-0.5,0.2-0.8c0.1-0.2,0.1-0.3-0.2-0.4c-0.2,0.5-0.3,0.7-0.5,0.7L49.2,404.1 M51.5,405.2
		c0.4-0.1,0.6-0.3,0.7-0.5c-0.5-0.3-1-0.1-1.3,0.4c-0.4,0.5-0.4,0.7,0.1,0.8C50.9,405.6,51.1,405.3,51.5,405.2 M53.2,403.5
		c1.4,0.3,2.7,0,3.8-0.9c0-1.4-1-2.2-2.9-2.4c-2-0.3-3.3,0.2-4,1.2C50.8,402.6,51.8,403.3,53.2,403.5 M45.7,404.8
		c0.1,0.3,0.2,0.3,0.3-0.1c0.1-0.3,0-0.6-0.1-0.9c-0.2-0.3-0.3-0.3-0.3,0.1C45.6,404.2,45.6,404.5,45.7,404.8"/>
	<path class="st9" d="M62.5,411.2c0.4,4.7,0.9,7.8,1.4,9.4l1.4,3.2c0.4,1.2,0.5,2.5,0.3,4.1c-0.5,0.5-1.5,2.1-3.2,4.8
		c-1.2,2-2.5,3.4-3.8,4.2c0.7-1.5,1.2-2.7,1.5-3.8c0.4-1.6,0.6-3.2,0.5-4.7l-0.5-1.4c-0.4-0.7-0.6-1.4-0.7-1.8
		c-0.3-1.3-0.6-2.8-0.7-4.5l-0.4-4.4c-0.4-3.4-1.2-5.6-2.6-6.9c-0.4-0.4-1.1-0.7-2.1-1.1c-0.9-0.3-1.6-0.6-1.9-0.9
		c0.2-0.9,1.1-1.7,2.6-2.3c1.7-0.6,2.7-1.2,3.1-1.7c0.2,0.2,0.6,0.4,1.3,0.6c0.7,0.2,1.3,0.4,1.5,0.6
		C61.4,405.2,62.1,407.5,62.5,411.2"/>
	<path class="st9" d="M57.6,416.3l0.6,6.2l0.9,3.8c0.5,1.8,0.7,3.1,0.7,3.9c-0.2,2.5-0.9,4.8-2.3,6.8c-1.3,1.8-2.7,2.8-4.2,2.9
		c-1.8,0.2-4.4-1.3-7.7-4.3c-3.2-2.9-4.9-5.3-5.3-7.1c-0.2-0.7-0.1-1.7,0.2-3.1c0.4-1.8,0.6-3.1,0.6-3.8l-0.1-4.3
		c-0.1-1.8-0.2-3.1-0.1-3.8c0.1-2.7,1.1-4.5,3.1-5.3l4.9-0.2c2.6,0.2,4.2,0.4,4.8,0.6l1.1,1.2l1.4,1.6
		C56.9,412.7,57.4,414.3,57.6,416.3"/>
	<path class="st9" d="M50.1,401.4c0.7-1.1,2-1.5,4-1.2c1.9,0.2,2.9,1.1,2.9,2.4c-1.2,0.9-2.4,1.2-3.8,0.9
		C51.8,403.3,50.8,402.6,50.1,401.4"/>
	<path class="st5" d="M50.9,405.9c-0.5-0.1-0.5-0.3-0.1-0.8c0.3-0.5,0.8-0.7,1.3-0.4c-0.1,0.2-0.3,0.4-0.7,0.5
		C51.1,405.3,50.9,405.6,50.9,405.9"/>
	<path class="st5" d="M50.1,403.9c0.2,0.1,0.3,0.2,0.2,0.4c-0.2,0.3-0.2,0.6-0.2,0.8h-3.6c0.1-0.2,0.2-0.5,0.4-0.8l0.4-0.8
		c0.7-0.3,1.4-0.1,1.9,0.6l0.5,0.5C49.8,404.5,49.9,404.3,50.1,403.9"/>
	<path class="st5" d="M50.5,406.9c0.2,0.5-0.1,0.7-0.8,0.6l0.3-0.4l0.2-0.5l-2.9,0.3c-1.1-0.1-2.1-0.3-2.9-0.6
		c-0.9-0.4-1.4-0.9-1.5-1.4c-0.1-0.6,0.3-1.3,1.2-1.9c0.5,0.2,0.5,0.5,0.2,0.9c-0.5,0.4-0.7,0.8-0.6,1.2c1.1,0.6,2.1,1.1,3.1,1.3
		c1.4,0.3,2.4,0.2,3.1-0.5C50,406,50.3,406.3,50.5,406.9"/>
	<path class="st9" d="M36.7,407.4c2.1-1.4,4.3-1.5,6.5-0.3l-1.8,2.5c-0.8,1.1-1.3,2.2-1.5,3.2c-0.2,0.8-0.1,2.1,0.1,3.9l0.4,4.6
		c0,0.9-0.2,2.3-0.5,4.1c-0.3,1.6-0.4,2.6-0.3,3.2c0.2,1.7,1.5,3.7,3.8,5.8l2.8,2.4l2.3,2.3c-0.4,0.5-1,0.9-1.7,1.2l-1.9,0.4
		c-2.3,0.1-4.5-0.9-6.7-2.9c-1.3-1.2-2.8-3-4.6-5.6c-0.5-2.7-0.7-6-0.8-9.7c-0.1-2.5-0.1-6,0-10.6C33.8,409.9,35.2,408.4,36.7,407.4
		"/>
	<path class="st5" d="M45.6,403.9c0.1-0.3,0.2-0.4,0.3-0.1c0.1,0.3,0.2,0.6,0.1,0.9c-0.1,0.4-0.2,0.4-0.3,0.1
		C45.6,404.5,45.6,404.2,45.6,403.9"/>
	<path class="st9" d="M38.3,402.7c0.8-0.1,1.9-0.1,3.3-0.1c0.1-0.4,0-0.6-0.3-0.7l-0.9-0.1c0.7-1.1,2.1-1.6,4.3-1.7
		c2-0.1,3.7,0.2,5,0.8c-3.7,0.5-6.5,1.6-8.1,3.3c-0.5,0.1-1.1,0-1.5-0.3c-0.5-0.4-1-0.5-1.4-0.5l-2.1,0.6l-1.9,0.7l-0.3,0.2l0.3-0.6
		c0.5-0.2,0.8-0.6,0.8-1.2L38.3,402.7"/>
	<path class="st9" d="M38.8,404.6l1.9,0.5c-0.4,0.4-1.1,0.7-1.9,0.6l-2.1,0.2c-1.1,0.4-2.2,1.5-3.4,3.3c-1.2,1.9-1.8,3.6-1.9,5.2
		c-0.3,5-0.1,9.6,0.8,14c1.1,5.5,3,8.9,5.7,10.4c-0.7,0.5-1.6,0.2-2.7-0.9c-0.6-0.5-1.4-1.6-2.5-3.1l-1.4-1.7
		c-0.5-0.7-0.8-1.5-1-2.3c-0.2-0.9-0.2-2.4-0.1-4.6l0.5-5.9c-0.1-3.3-0.1-5.6,0-7c0.1-2.3,0.5-4,1.2-5.2c0.2-0.4,0.9-0.9,2.1-1.7
		c1.2-0.9,2.2-1.4,2.8-1.5L38.8,404.6"/>
</g>
<g>
	<path d="M70,398h10.7v3.1h-3.6v18.8h-3.4v-18.8H70V398z"/>
	<path d="M85.7,407.2h4.7v3.1h-4.7v6.4h6v3.1h-9.4v-22h9.4v3.1h-6V407.2z"/>
	<path d="M105.3,398l-3.6,10.7l3.9,11.3h-3.6l-2.8-8.7H99l-2.8,8.7H93l3.9-11.3L93.2,398h3.6l2.6,8.1h0.1l2.6-8.1H105.3z"/>
	<path d="M106.2,398h10.7v3.1h-3.6v18.8h-3.4v-18.8h-3.6V398z"/>
	<path d="M118.1,403.2c0-3.5,1.9-5.5,5.2-5.5c3.4,0,5.2,2,5.2,5.5v11.4c0,3.5-1.9,5.5-5.2,5.5c-3.4,0-5.2-2-5.2-5.5V403.2z
		 M121.6,414.9c0,1.6,0.7,2.2,1.8,2.2c1.1,0,1.8-0.6,1.8-2.2V403c0-1.6-0.7-2.2-1.8-2.2c-1.1,0-1.8,0.6-1.8,2.2V414.9z"/>
	<path d="M134.1,404.7v3.3h-3.3v-3.3H134.1z M134.1,416.6v3.3h-3.3v-3.3H134.1z"/>
</g>
<g>
	<path class="st3" d="M60.6,473.1c-0.7-0.2-1.2-0.4-1.3-0.6c-0.4,0.5-1.4,1.1-3.1,1.7c-1.5,0.6-2.4,1.4-2.6,2.3
		c0.4,0.3,1,0.6,1.9,0.9c1,0.3,1.7,0.7,2.1,1.1c1.4,1.3,2.2,3.6,2.6,6.9l0.4,4.4c0.2,1.7,0.4,3.3,0.7,4.5c0.1,0.5,0.3,1.1,0.7,1.8
		l0.5,1.4c0.1,1.5-0.1,3.1-0.5,4.7c-0.3,1.1-0.8,2.4-1.5,3.8c1.3-0.8,2.6-2.2,3.8-4.2c1.6-2.7,2.7-4.3,3.2-4.8
		c0.2-1.6,0.1-2.9-0.3-4.1l-1.4-3.2c-0.5-1.5-1-4.7-1.4-9.4c-0.4-3.7-1.1-5.9-2.2-6.9C61.8,473.5,61.3,473.3,60.6,473.1 M60,471.7
		l2.2,1.4c0.9,0.6,1.5,1.2,1.9,1.8c0.4,0.9,0.7,2.4,0.9,4.6l0.3,5.1c0.2,1.5,0.8,3.7,1.8,6.5c0.8,2.3,1.2,4.1,1,5.3
		c-0.1,0.9-0.9,2.7-2.5,5.3c-1.5,2.4-2.7,4-3.6,4.9l-1.7,1.1l-1.9,1l-1.7,1.1l-1.6,0.9l-2-0.2l-1.3-1c-1.3,1-3.7,1.5-7,1.3
		c-3.3-0.2-5.8-0.7-7.6-1.7c-1.1-0.6-2.1-1.8-3.1-3.6c-1.1-1.8-1.9-2.9-2.6-3.4c-0.3-8.4-0.3-14.1,0-17c0.5-6.4,2.2-10.7,4.9-13
		c1.2-0.1,2.8-0.6,4.8-1.6c2.1-1,3.7-1.6,4.9-1.6l2.6,0.3c1.2,0.3,2.1,0.5,2.6,0.5l3.1-0.7c1.4-0.4,2.4-0.3,3,0.3
		c0.5,0,0.9,0.3,1.3,0.8L60,471.7 M58,481l-1.4-1.6l-1.1-1.2c-0.6-0.3-2.2-0.5-4.8-0.6l-4.9,0.2c-1.9,0.8-2.9,2.6-3.1,5.3
		c-0.1,0.7,0,2.1,0.1,3.8l0.1,4.3c0,0.7-0.2,2-0.6,3.8c-0.3,1.4-0.4,2.4-0.2,3.1c0.4,1.8,2.1,4.2,5.3,7.1c3.3,3,5.8,4.4,7.7,4.3
		c1.5-0.1,2.9-1.1,4.2-2.9c1.4-2,2.2-4.3,2.3-6.8c0-0.8-0.2-2.1-0.7-3.9L60,492l-0.6-6.2C59.2,483.7,58.8,482.2,58,481 M36.5,473.7
		l-0.3,0.6l0.3-0.2l1.9-0.7l2.1-0.6c0.4,0,0.8,0.2,1.4,0.5c0.4,0.3,0.9,0.4,1.5,0.3c1.6-1.6,4.4-2.7,8.1-3.3c-1.4-0.6-3.1-0.9-5-0.8
		c-2.2,0.1-3.6,0.6-4.3,1.7l0.9,0.1c0.3,0.1,0.4,0.3,0.3,0.7c-1.4-0.1-2.5,0-3.3,0.1l-2.8,0.4C37.3,473.1,37,473.5,36.5,473.7
		 M38.6,474.1c-0.7,0.1-1.6,0.6-2.8,1.5c-1.2,0.8-1.8,1.4-2.1,1.7c-0.7,1.1-1.1,2.8-1.2,5.2c-0.1,1.4-0.1,3.7,0,7l-0.5,5.9
		c-0.2,2.2-0.2,3.7,0.1,4.6c0.2,0.8,0.5,1.6,1,2.3l1.4,1.7c1.1,1.5,1.9,2.6,2.5,3.1c1.1,1.2,2.1,1.4,2.7,0.9
		c-2.7-1.4-4.6-4.8-5.7-10.4c-0.8-4.4-1.1-9-0.8-14c0.1-1.6,0.7-3.3,1.9-5.2c1.2-1.8,2.3-2.9,3.4-3.3l2.1-0.2
		c0.8,0.1,1.5-0.2,1.9-0.6l-1.9-0.5L38.6,474.1 M34.5,481.4c-0.1,4.5-0.1,8,0,10.6c0.1,3.7,0.4,7,0.8,9.7c1.8,2.6,3.4,4.4,4.6,5.6
		c2.3,2.1,4.5,3.1,6.7,2.9l1.9-0.4c0.7-0.3,1.3-0.7,1.7-1.2l-2.3-2.3l-2.8-2.4c-2.3-2.2-3.6-4.1-3.8-5.8c-0.1-0.6,0-1.6,0.3-3.2
		c0.4-1.8,0.5-3.2,0.5-4.1l-0.4-4.6c-0.2-1.8-0.2-3.1-0.1-3.9c0.2-0.9,0.7-2.1,1.5-3.2l1.8-2.5c-2.3-1.2-4.4-1.1-6.5,0.3
		C37,477.8,35.6,479.3,34.5,481.4 M51.5,475.3c-0.7,0.6-1.7,0.8-3.1,0.5c-0.9-0.2-1.9-0.6-3.1-1.3c-0.1-0.4,0.1-0.7,0.6-1.2
		c0.4-0.4,0.3-0.7-0.2-0.9c-0.9,0.6-1.3,1.3-1.2,1.9c0.1,0.5,0.6,1,1.5,1.4c0.8,0.3,1.8,0.5,2.9,0.6l2.9-0.3l-0.2,0.5l-0.3,0.4
		c0.7,0.1,0.9-0.1,0.8-0.6C52.1,475.8,51.8,475.4,51.5,475.3 M51,473.5c-0.5-0.7-1.2-0.9-1.9-0.6l-0.4,0.8c-0.2,0.3-0.3,0.6-0.4,0.8
		h3.6c-0.1-0.2,0-0.5,0.2-0.8c0.1-0.2,0.1-0.3-0.2-0.4c-0.2,0.5-0.3,0.7-0.5,0.7L51,473.5 M53.3,474.7c0.4-0.1,0.6-0.3,0.7-0.5
		c-0.5-0.3-1-0.1-1.3,0.4c-0.4,0.5-0.4,0.7,0.1,0.8C52.7,475,52.9,474.8,53.3,474.7 M55,473c1.4,0.3,2.7,0,3.8-0.9
		c0-1.4-1-2.2-2.9-2.4c-2-0.3-3.3,0.2-4,1.2C52.6,472,53.7,472.7,55,473 M47.6,474.2c0.1,0.3,0.2,0.3,0.3-0.1c0.1-0.3,0-0.6-0.1-0.9
		c-0.2-0.3-0.3-0.3-0.3,0.1C47.4,473.6,47.4,473.9,47.6,474.2"/>
	<path class="st10" d="M64.3,480.6c0.4,4.7,0.9,7.8,1.4,9.4l1.4,3.2c0.4,1.2,0.5,2.5,0.3,4.1c-0.5,0.5-1.5,2.1-3.2,4.8
		c-1.2,2-2.5,3.4-3.8,4.2c0.7-1.5,1.2-2.7,1.5-3.8c0.4-1.6,0.6-3.2,0.5-4.7l-0.5-1.4c-0.4-0.7-0.6-1.4-0.7-1.8
		c-0.3-1.3-0.6-2.8-0.7-4.5l-0.4-4.4c-0.4-3.4-1.2-5.6-2.6-6.9c-0.4-0.4-1.1-0.7-2.1-1.1c-0.9-0.3-1.6-0.6-1.9-0.9
		c0.2-0.9,1.1-1.7,2.6-2.3c1.7-0.6,2.7-1.2,3.1-1.7c0.2,0.2,0.6,0.4,1.3,0.6c0.7,0.2,1.3,0.4,1.5,0.6
		C63.2,474.7,63.9,476.9,64.3,480.6"/>
	<path class="st10" d="M59.4,485.7L60,492l0.9,3.8c0.5,1.8,0.7,3.1,0.7,3.9c-0.2,2.5-0.9,4.8-2.3,6.8c-1.3,1.8-2.7,2.8-4.2,2.9
		c-1.8,0.2-4.4-1.3-7.7-4.3c-3.2-2.9-4.9-5.3-5.3-7.1c-0.2-0.7-0.1-1.7,0.2-3.1c0.4-1.8,0.6-3.1,0.6-3.8l-0.1-4.3
		c-0.1-1.8-0.2-3.1-0.1-3.8c0.1-2.7,1.1-4.5,3.1-5.3l4.9-0.2c2.6,0.2,4.2,0.4,4.8,0.6l1.1,1.2L58,481
		C58.8,482.2,59.2,483.7,59.4,485.7"/>
	<path class="st10" d="M51.9,470.9c0.7-1.1,2-1.5,4-1.2c1.9,0.2,2.9,1.1,2.9,2.4c-1.2,0.9-2.4,1.2-3.8,0.9
		C53.7,472.7,52.6,472,51.9,470.9"/>
	<path class="st5" d="M52.8,475.3c-0.5-0.1-0.5-0.3-0.1-0.8c0.3-0.5,0.8-0.7,1.3-0.4c-0.1,0.2-0.3,0.4-0.7,0.5
		C52.9,474.8,52.7,475,52.8,475.3"/>
	<path class="st5" d="M51.9,473.3c0.2,0.1,0.3,0.2,0.2,0.4c-0.2,0.3-0.2,0.6-0.2,0.8h-3.6c0.1-0.2,0.2-0.5,0.4-0.8l0.4-0.8
		c0.7-0.3,1.4-0.1,1.9,0.6l0.5,0.5C51.6,474,51.8,473.8,51.9,473.3"/>
	<path class="st5" d="M52.3,476.3c0.2,0.5-0.1,0.7-0.8,0.6l0.3-0.4l0.2-0.5l-2.9,0.3c-1.1-0.1-2.1-0.3-2.9-0.6
		c-0.9-0.4-1.4-0.9-1.5-1.4c-0.1-0.6,0.3-1.3,1.2-1.9c0.5,0.2,0.5,0.5,0.2,0.9c-0.5,0.4-0.7,0.8-0.6,1.2c1.1,0.6,2.1,1.1,3.1,1.3
		c1.4,0.3,2.4,0.2,3.1-0.5C51.8,475.4,52.1,475.8,52.3,476.3"/>
	<path class="st10" d="M38.5,476.8c2.1-1.4,4.3-1.5,6.5-0.3l-1.8,2.5c-0.8,1.1-1.3,2.2-1.5,3.2c-0.2,0.8-0.1,2.1,0.1,3.9l0.4,4.6
		c0,0.9-0.2,2.3-0.5,4.1c-0.3,1.6-0.4,2.6-0.3,3.2c0.2,1.7,1.5,3.7,3.8,5.8l2.8,2.4l2.3,2.3c-0.4,0.5-1,0.9-1.7,1.2l-1.9,0.4
		c-2.3,0.1-4.5-0.9-6.7-2.9c-1.3-1.2-2.8-3-4.6-5.6c-0.5-2.7-0.7-6-0.8-9.7c-0.1-2.5-0.1-6,0-10.6C35.6,479.3,37,477.8,38.5,476.8"
		/>
	<path class="st5" d="M47.5,473.3c0.1-0.3,0.2-0.4,0.3-0.1c0.1,0.3,0.2,0.6,0.1,0.9c-0.1,0.4-0.2,0.4-0.3,0.1
		C47.4,473.9,47.4,473.6,47.5,473.3"/>
	<path class="st10" d="M40.1,472.1c0.8-0.1,1.9-0.1,3.3-0.1c0.1-0.4,0-0.6-0.3-0.7l-0.9-0.1c0.7-1.1,2.1-1.6,4.3-1.7
		c2-0.1,3.7,0.2,5,0.8c-3.7,0.5-6.5,1.6-8.1,3.3c-0.5,0.1-1.1,0-1.5-0.3c-0.5-0.4-1-0.5-1.4-0.5l-2.1,0.6l-1.9,0.7l-0.3,0.2l0.3-0.6
		c0.5-0.2,0.8-0.6,0.8-1.2L40.1,472.1"/>
	<path class="st10" d="M40.6,474l1.9,0.5c-0.4,0.4-1.1,0.7-1.9,0.6l-2.1,0.2c-1.1,0.4-2.2,1.5-3.4,3.3c-1.2,1.9-1.8,3.6-1.9,5.2
		c-0.3,5-0.1,9.6,0.8,14c1.1,5.5,3,8.9,5.7,10.4c-0.7,0.5-1.6,0.2-2.7-0.9c-0.6-0.5-1.4-1.6-2.5-3.1l-1.4-1.7
		c-0.5-0.7-0.8-1.5-1-2.3c-0.2-0.9-0.2-2.4-0.1-4.6l0.5-5.9c-0.1-3.3-0.1-5.6,0-7c0.1-2.3,0.5-4,1.2-5.2c0.2-0.4,0.9-0.9,2.1-1.7
		c1.2-0.9,2.2-1.4,2.8-1.5L40.6,474"/>
</g>
<g>
	<path d="M81.4,476.6v0.8c0,2.3-0.7,3.7-2.2,4.4v0.1c1.9,0.7,2.6,2.4,2.6,4.7v1.8c0,3.4-1.8,5.2-5.2,5.2H71v-22h5.2
		C79.8,471.5,81.4,473.2,81.4,476.6z M74.5,474.7v5.8h1.3c1.3,0,2.1-0.6,2.1-2.3v-1.2c0-1.6-0.5-2.3-1.8-2.3H74.5z M74.5,483.6v6.7
		h2c1.2,0,1.8-0.5,1.8-2.2v-1.9c0-2-0.7-2.7-2.2-2.7H74.5z"/>
	<path d="M87.2,480.8H92v3.1h-4.7v6.4h6v3.1h-9.4v-22h9.4v3.1h-6V480.8z"/>
	<path d="M94.3,471.5H105v3.1h-3.6v18.8h-3.4v-18.8h-3.6V471.5z"/>
	<path d="M116.5,493.5H113l-0.6-4h-4.2l-0.6,4h-3.2l3.5-22h5L116.5,493.5z M108.6,486.5h3.3l-1.6-11.1h-0.1L108.6,486.5z"/>
	<path d="M121.9,471.5h10.7v3.1H129v18.8h-3.4v-18.8h-3.6V471.5z"/>
	<path d="M137.5,480.8h4.7v3.1h-4.7v6.4h6v3.1h-9.4v-22h9.4v3.1h-6V480.8z"/>
	<path d="M150.3,471.3c3.4,0,5.1,2,5.1,5.5v0.7h-3.3v-0.9c0-1.6-0.6-2.2-1.7-2.2c-1.1,0-1.7,0.6-1.7,2.2c0,1.6,0.7,2.8,2.9,4.8
		c2.9,2.5,3.8,4.4,3.8,6.9c0,3.5-1.8,5.5-5.1,5.5s-5.1-2-5.1-5.5v-1.3h3.3v1.6c0,1.6,0.7,2.1,1.8,2.1c1.1,0,1.8-0.6,1.8-2.1
		c0-1.6-0.7-2.8-2.9-4.8c-2.9-2.5-3.8-4.4-3.8-6.9C145.2,473.3,146.9,471.3,150.3,471.3z"/>
	<path d="M156.3,471.5H167v3.1h-3.6v18.8h-3.4v-18.8h-3.6V471.5z"/>
	<path d="M168.5,471.5h3.4v22h-3.4V471.5z"/>
	<path d="M177.6,477.6L177.6,477.6l-0.1,15.9h-3.1v-22h4.3l3.5,13.1h0.1v-13.1h3.1v22h-3.5L177.6,477.6z"/>
	<path d="M193,481.3h4.8v7c0,3.5-1.8,5.5-5.1,5.5c-3.4,0-5.1-2-5.1-5.5v-11.4c0-3.5,1.8-5.5,5.1-5.5c3.4,0,5.1,2,5.1,5.5v2.1h-3.3
		v-2.4c0-1.6-0.7-2.2-1.8-2.2c-1.1,0-1.8,0.6-1.8,2.2v11.9c0,1.6,0.7,2.1,1.8,2.1c1.1,0,1.8-0.6,1.8-2.1v-4H193V481.3z"/>
	<path d="M203.4,478.2v3.3h-3.3v-3.3H203.4z M203.4,490.2v3.3h-3.3v-3.3H203.4z"/>
</g>
<g>
	<path d="M81.5,144L81.5,144l0,8.9h-1.7v-12.3h2.4l1.9,7.3h0v-7.3h1.7v12.3h-2L81.5,144z"/>
	<path d="M90.1,145.7h2.6v1.8h-2.6v3.6h3.3v1.8h-5.3v-12.3h5.3v1.8h-3.3V145.7z"/>
	<path d="M101.7,152.8h-1.9l-0.3-2.2h-2.4l-0.3,2.2H95l2-12.3h2.8L101.7,152.8z M97.3,148.9h1.9l-0.9-6.2h0L97.3,148.9z"/>
	<path d="M105.2,144L105.2,144l0,8.9h-1.7v-12.3h2.4l1.9,7.3h0v-7.3h1.7v12.3h-2L105.2,144z"/>
	<path d="M111.8,140.6h3.1c1.9,0,2.9,1.1,2.9,3v6.2c0,2-0.9,3-2.9,3h-3.1V140.6z M113.8,142.3v8.8h1.1c0.6,0,1-0.3,1-1.2v-6.4
		c0-0.9-0.4-1.2-1-1.2H113.8z"/>
	<path d="M121.8,145.7h2.6v1.8h-2.6v3.6h3.3v1.8h-5.3v-12.3h5.3v1.8h-3.3V145.7z"/>
	<path d="M131.2,152.8c-0.1-0.3-0.2-0.5-0.2-1.5v-1.9c0-1.1-0.4-1.6-1.3-1.6h-0.7v5h-1.9v-12.3h2.9c2,0,2.9,0.9,2.9,2.8v1
		c0,1.3-0.4,2.1-1.3,2.5v0c1,0.4,1.3,1.3,1.3,2.6v1.9c0,0.6,0,1,0.2,1.5H131.2z M129.1,142.3v3.8h0.8c0.7,0,1.2-0.3,1.2-1.3v-1.2
		c0-0.9-0.3-1.3-1-1.3H129.1z"/>
	<path d="M145,152.8H143l-0.3-2.2h-2.4l-0.3,2.2h-1.8l2-12.3h2.8L145,152.8z M140.5,148.9h1.9l-0.9-6.2h0L140.5,148.9z"/>
	<path d="M152.5,143.4v0.4c0,1.3-0.4,2.1-1.2,2.5v0c1,0.4,1.4,1.3,1.4,2.6v1c0,1.9-1,2.9-2.9,2.9h-3v-12.3h2.9
		C151.6,140.6,152.5,141.5,152.5,143.4z M148.6,142.3v3.2h0.8c0.7,0,1.2-0.3,1.2-1.3v-0.7c0-0.9-0.3-1.3-1-1.3H148.6z M148.6,147.3
		v3.8h1.1c0.6,0,1-0.3,1-1.2v-1.1c0-1.1-0.4-1.5-1.2-1.5H148.6z"/>
	<path d="M158.7,152.8c-0.1-0.3-0.2-0.5-0.2-1.5v-1.9c0-1.1-0.4-1.6-1.3-1.6h-0.7v5h-1.9v-12.3h2.9c2,0,2.9,0.9,2.9,2.8v1
		c0,1.3-0.4,2.1-1.3,2.5v0c1,0.4,1.3,1.3,1.3,2.6v1.9c0,0.6,0,1,0.2,1.5H158.7z M156.6,142.3v3.8h0.8c0.7,0,1.2-0.3,1.2-1.3v-1.2
		c0-0.9-0.3-1.3-1-1.3H156.6z"/>
	<path d="M164.6,145.7h2.6v1.8h-2.6v3.6h3.3v1.8h-5.3v-12.3h5.3v1.8h-3.3V145.7z"/>
	<path d="M171.8,140.6v9.5c0,0.9,0.4,1.2,1,1.2s1-0.3,1-1.2v-9.5h1.8v9.3c0,2-1,3.1-2.9,3.1s-2.9-1.1-2.9-3.1v-9.3H171.8z"/>
</g>
<g>
	<path d="M83.8,224.9c-0.1-0.3-0.2-0.5-0.2-1.5v-1.9c0-1.1-0.4-1.6-1.3-1.6h-0.7v5h-1.9v-12.3h2.9c2,0,2.9,0.9,2.9,2.8v1
		c0,1.3-0.4,2.1-1.3,2.5v0c1,0.4,1.3,1.3,1.3,2.6v1.9c0,0.6,0,1,0.2,1.5H83.8z M81.7,214.4v3.8h0.8c0.7,0,1.2-0.3,1.2-1.3v-1.2
		c0-0.9-0.3-1.3-1-1.3H81.7z"/>
	<path d="M87.5,215.6c0-2,1-3.1,2.9-3.1c1.9,0,2.9,1.1,2.9,3.1v6.4c0,2-1,3.1-2.9,3.1c-1.9,0-2.9-1.1-2.9-3.1V215.6z M89.5,222.1
		c0,0.9,0.4,1.2,1,1.2c0.6,0,1-0.3,1-1.2v-6.6c0-0.9-0.4-1.2-1-1.2c-0.6,0-1,0.3-1,1.2V222.1z"/>
	<path d="M95.5,212.7h3.1c1.9,0,2.9,1.1,2.9,3v6.2c0,2-0.9,3-2.9,3h-3.1V212.7z M97.4,214.4v8.8h1.1c0.6,0,1-0.3,1-1.2v-6.4
		c0-0.9-0.4-1.2-1-1.2H97.4z"/>
	<path d="M107.6,224.9c-0.1-0.3-0.2-0.5-0.2-1.5v-1.9c0-1.1-0.4-1.6-1.3-1.6h-0.7v5h-1.9v-12.3h2.9c2,0,2.9,0.9,2.9,2.8v1
		c0,1.3-0.4,2.1-1.3,2.5v0c1,0.4,1.3,1.3,1.3,2.6v1.9c0,0.6,0,1,0.2,1.5H107.6z M105.5,214.4v3.8h0.8c0.7,0,1.2-0.3,1.2-1.3v-1.2
		c0-0.9-0.3-1.3-1-1.3H105.5z"/>
	<path d="M111.5,212.7h1.9v12.3h-1.9V212.7z"/>
	<path d="M118.6,218.1h2.7v3.9c0,2-1,3.1-2.9,3.1s-2.9-1.1-2.9-3.1v-6.4c0-2,1-3.1,2.9-3.1s2.9,1.1,2.9,3.1v1.2h-1.8v-1.3
		c0-0.9-0.4-1.2-1-1.2c-0.6,0-1,0.3-1,1.2v6.6c0,0.9,0.4,1.2,1,1.2c0.6,0,1-0.3,1-1.2v-2.3h-0.9V218.1z"/>
	<path d="M123.2,215.6c0-2,1-3.1,2.9-3.1c1.9,0,2.9,1.1,2.9,3.1v6.4c0,2-1,3.1-2.9,3.1c-1.9,0-2.9-1.1-2.9-3.1V215.6z M125.2,222.1
		c0,0.9,0.4,1.2,1,1.2c0.6,0,1-0.3,1-1.2v-6.6c0-0.9-0.4-1.2-1-1.2c-0.6,0-1,0.3-1,1.2V222.1z"/>
	<path d="M138.8,224.9c-0.1-0.3-0.2-0.5-0.2-1.5v-1.9c0-1.1-0.4-1.6-1.3-1.6h-0.7v5h-1.9v-12.3h2.9c2,0,2.9,0.9,2.9,2.8v1
		c0,1.3-0.4,2.1-1.3,2.5v0c1,0.4,1.3,1.3,1.3,2.6v1.9c0,0.6,0,1,0.2,1.5H138.8z M136.7,214.4v3.8h0.8c0.7,0,1.2-0.3,1.2-1.3v-1.2
		c0-0.9-0.3-1.3-1-1.3H136.7z"/>
	<path d="M142.6,215.6c0-2,1-3.1,2.9-3.1c1.9,0,2.9,1.1,2.9,3.1v6.4c0,2-1,3.1-2.9,3.1c-1.9,0-2.9-1.1-2.9-3.1V215.6z M144.5,222.1
		c0,0.9,0.4,1.2,1,1.2c0.6,0,1-0.3,1-1.2v-6.6c0-0.9-0.4-1.2-1-1.2c-0.6,0-1,0.3-1,1.2V222.1z"/>
	<path d="M156.1,220.4v1.6c0,2-1,3.1-2.9,3.1s-2.9-1.1-2.9-3.1v-6.4c0-2,1-3.1,2.9-3.1s2.9,1.1,2.9,3.1v1.2h-1.8v-1.3
		c0-0.9-0.4-1.2-1-1.2c-0.6,0-1,0.3-1,1.2v6.6c0,0.9,0.4,1.2,1,1.2c0.6,0,1-0.3,1-1.2v-1.8H156.1z"/>
	<path d="M160.1,224.9h-1.9v-12.3h1.9v5.3h2.2v-5.3h2v12.3h-2v-5.3h-2.2V224.9z"/>
	<path d="M172.8,224.9h-1.9l-0.3-2.2h-2.4l-0.3,2.2H166l2-12.3h2.8L172.8,224.9z M168.4,221h1.9l-0.9-6.2h0L168.4,221z"/>
	<path d="M174.6,224.9v-1.9h1.9v1.7l-0.8,1.9h-0.8l0.5-1.8H174.6z"/>
	<path d="M182.3,212.7h3.1c1.9,0,2.9,1.1,2.9,3v6.2c0,2-0.9,3-2.9,3h-3.1V212.7z M184.2,214.4v8.8h1.1c0.6,0,1-0.3,1-1.2v-6.4
		c0-0.9-0.4-1.2-1-1.2H184.2z"/>
	<path d="M190.3,212.7h1.9v12.3h-1.9V212.7z"/>
	<path d="M196.5,217.8h2.6v1.8h-2.6v3.6h3.3v1.8h-5.3v-12.3h5.3v1.8h-3.3V217.8z"/>
	<path d="M204.7,218.1h2.7v3.9c0,2-1,3.1-2.9,3.1s-2.9-1.1-2.9-3.1v-6.4c0-2,1-3.1,2.9-3.1s2.9,1.1,2.9,3.1v1.2h-1.8v-1.3
		c0-0.9-0.4-1.2-1-1.2c-0.6,0-1,0.3-1,1.2v6.6c0,0.9,0.4,1.2,1,1.2c0.6,0,1-0.3,1-1.2v-2.3h-0.9V218.1z"/>
	<path d="M209.4,215.6c0-2,1-3.1,2.9-3.1c1.9,0,2.9,1.1,2.9,3.1v6.4c0,2-1,3.1-2.9,3.1c-1.9,0-2.9-1.1-2.9-3.1V215.6z M211.3,222.1
		c0,0.9,0.4,1.2,1,1.2c0.6,0,1-0.3,1-1.2v-6.6c0-0.9-0.4-1.2-1-1.2c-0.6,0-1,0.3-1,1.2V222.1z"/>
	<path d="M226.3,212.7v1.7l-3.7,8.8h3.7v1.8h-5.6v-1.7l3.7-8.8h-3.5v-1.8H226.3z"/>
	<path d="M234.6,224.9h-1.9l-0.3-2.2h-2.4l-0.3,2.2h-1.8l2-12.3h2.8L234.6,224.9z M230.2,221h1.9l-0.9-6.2h0L230.2,221z"/>
	<path d="M242.1,215.5v0.4c0,1.3-0.4,2.1-1.2,2.5v0c1,0.4,1.4,1.3,1.4,2.6v1c0,1.9-1,2.9-2.9,2.9h-3v-12.3h2.9
		C241.3,212.7,242.1,213.6,242.1,215.5z M238.3,214.4v3.2h0.8c0.7,0,1.2-0.3,1.2-1.3v-0.7c0-0.9-0.3-1.3-1-1.3H238.3z M238.3,219.4
		v3.8h1.1c0.6,0,1-0.3,1-1.2v-1.1c0-1.1-0.4-1.5-1.2-1.5H238.3z"/>
	<path d="M244.2,215.6c0-2,1-3.1,2.9-3.1c1.9,0,2.9,1.1,2.9,3.1v6.4c0,2-1,3.1-2.9,3.1c-1.9,0-2.9-1.1-2.9-3.1V215.6z M246.1,222.1
		c0,0.9,0.4,1.2,1,1.2c0.6,0,1-0.3,1-1.2v-6.6c0-0.9-0.4-1.2-1-1.2c-0.6,0-1,0.3-1,1.2V222.1z"/>
	<path d="M251.6,212.7h6v1.8h-2v10.5h-1.9v-10.5h-2V212.7z"/>
	<path d="M258.2,224.9v-1.9h1.9v1.7l-0.8,1.9h-0.8l0.5-1.8H258.2z"/>
	<path d="M270,221.4L270,221.4l1.3-8.7h2.7v12.3h-1.8v-8.8h0l-1.3,8.8h-1.8l-1.4-8.7h0v8.7h-1.7v-12.3h2.7L270,221.4z"/>
	<path d="M282.6,224.9h-1.9l-0.3-2.2h-2.4l-0.3,2.2h-1.8l2-12.3h2.8L282.6,224.9z M278.2,221h1.9l-0.9-6.2h0L278.2,221z"/>
	<path d="M288.4,224.9c-0.1-0.3-0.2-0.5-0.2-1.5v-1.9c0-1.1-0.4-1.6-1.3-1.6h-0.7v5h-1.9v-12.3h2.9c2,0,2.9,0.9,2.9,2.8v1
		c0,1.3-0.4,2.1-1.3,2.5v0c1,0.4,1.3,1.3,1.3,2.6v1.9c0,0.6,0,1,0.2,1.5H288.4z M286.3,214.4v3.8h0.8c0.7,0,1.2-0.3,1.2-1.3v-1.2
		c0-0.9-0.3-1.3-1-1.3H286.3z"/>
	<path d="M297.8,220.4v1.6c0,2-1,3.1-2.9,3.1s-2.9-1.1-2.9-3.1v-6.4c0-2,1-3.1,2.9-3.1s2.9,1.1,2.9,3.1v1.2H296v-1.3
		c0-0.9-0.4-1.2-1-1.2c-0.6,0-1,0.3-1,1.2v6.6c0,0.9,0.4,1.2,1,1.2c0.6,0,1-0.3,1-1.2v-1.8H297.8z"/>
	<path d="M299.7,215.6c0-2,1-3.1,2.9-3.1c1.9,0,2.9,1.1,2.9,3.1v6.4c0,2-1,3.1-2.9,3.1c-1.9,0-2.9-1.1-2.9-3.1V215.6z M301.7,222.1
		c0,0.9,0.4,1.2,1,1.2c0.6,0,1-0.3,1-1.2v-6.6c0-0.9-0.4-1.2-1-1.2c-0.6,0-1,0.3-1,1.2V222.1z"/>
	<path d="M310.3,212.5c1.9,0,2.8,1.1,2.8,3.1v0.4h-1.8v-0.5c0-0.9-0.4-1.2-1-1.2s-1,0.3-1,1.2c0,0.9,0.4,1.6,1.6,2.7
		c1.6,1.4,2.1,2.4,2.1,3.8c0,2-1,3.1-2.9,3.1c-1.9,0-2.9-1.1-2.9-3.1v-0.8h1.8v0.9c0,0.9,0.4,1.2,1,1.2c0.6,0,1-0.3,1-1.2
		c0-0.9-0.4-1.6-1.6-2.7c-1.6-1.4-2.1-2.4-2.1-3.8C307.5,213.6,308.4,212.5,310.3,212.5z"/>
	<path d="M322.8,221.4L322.8,221.4l1.3-8.7h2.7v12.3H325v-8.8h0l-1.3,8.8h-1.8l-1.4-8.7h0v8.7h-1.7v-12.3h2.7L322.8,221.4z"/>
	<path d="M335.3,224.9h-1.9l-0.3-2.2h-2.4l-0.3,2.2h-1.8l2-12.3h2.8L335.3,224.9z M330.9,221h1.9l-0.9-6.2h0L330.9,221z"/>
	<path d="M339.7,212.5c1.9,0,2.8,1.1,2.8,3.1v0.4h-1.8v-0.5c0-0.9-0.4-1.2-1-1.2s-1,0.3-1,1.2c0,0.9,0.4,1.6,1.6,2.7
		c1.6,1.4,2.1,2.4,2.1,3.8c0,2-1,3.1-2.9,3.1c-1.9,0-2.9-1.1-2.9-3.1v-0.8h1.8v0.9c0,0.9,0.4,1.2,1,1.2c0.6,0,1-0.3,1-1.2
		c0-0.9-0.4-1.6-1.6-2.7c-1.6-1.4-2.1-2.4-2.1-3.8C336.9,213.6,337.8,212.5,339.7,212.5z"/>
	<path d="M347.1,212.5c1.9,0,2.8,1.1,2.8,3.1v0.4h-1.8v-0.5c0-0.9-0.4-1.2-1-1.2s-1,0.3-1,1.2c0,0.9,0.4,1.6,1.6,2.7
		c1.6,1.4,2.1,2.4,2.1,3.8c0,2-1,3.1-2.9,3.1c-1.9,0-2.9-1.1-2.9-3.1v-0.8h1.8v0.9c0,0.9,0.4,1.2,1,1.2c0.6,0,1-0.3,1-1.2
		c0-0.9-0.4-1.6-1.6-2.7c-1.6-1.4-2.1-2.4-2.1-3.8C344.3,213.6,345.3,212.5,347.1,212.5z"/>
</g>
<g>
	<path d="M79.2,284.3h6v1.8h-2v10.5h-1.9v-10.5h-2V284.3z"/>
	<path d="M88.8,296.6h-1.9v-12.3h1.9v5.3H91v-5.3h2v12.3h-2v-5.3h-2.2V296.6z"/>
	<path d="M101.5,296.6h-1.9l-0.3-2.2h-2.4l-0.3,2.2h-1.8l2-12.3h2.8L101.5,296.6z M97.1,292.7H99l-0.9-6.2h0L97.1,292.7z"/>
	<path d="M107.3,296.6c-0.1-0.3-0.2-0.5-0.2-1.5v-1.9c0-1.1-0.4-1.6-1.3-1.6h-0.7v5h-1.9v-12.3h2.9c2,0,2.9,0.9,2.9,2.8v1
		c0,1.3-0.4,2.1-1.3,2.5v0c1,0.4,1.3,1.3,1.3,2.6v1.9c0,0.6,0,1,0.2,1.5H107.3z M105.2,286.1v3.8h0.8c0.7,0,1.2-0.3,1.2-1.3v-1.2
		c0-0.9-0.3-1.3-1-1.3H105.2z"/>
	<path d="M116.8,292v1.6c0,2-1,3.1-2.9,3.1s-2.9-1.1-2.9-3.1v-6.4c0-2,1-3.1,2.9-3.1s2.9,1.1,2.9,3.1v1.2H115v-1.3
		c0-0.9-0.4-1.2-1-1.2c-0.6,0-1,0.3-1,1.2v6.6c0,0.9,0.4,1.2,1,1.2c0.6,0,1-0.3,1-1.2V292H116.8z"/>
	<path d="M121.9,281.7l-1.8,1.9h-1.3l1.2-1.9H121.9z M118.8,284.3h1.9v12.3h-1.9V284.3z"/>
	<path d="M125.6,284.2c1.9,0,2.8,1.1,2.8,3.1v0.4h-1.8v-0.5c0-0.9-0.4-1.2-1-1.2s-1,0.3-1,1.2c0,0.9,0.4,1.6,1.6,2.7
		c1.6,1.4,2.1,2.4,2.1,3.8c0,2-1,3.1-2.9,3.1c-1.9,0-2.9-1.1-2.9-3.1v-0.8h1.8v0.9c0,0.9,0.4,1.2,1,1.2c0.6,0,1-0.3,1-1.2
		c0-0.9-0.4-1.6-1.6-2.7c-1.6-1.4-2.1-2.4-2.1-3.8C122.8,285.3,123.8,284.2,125.6,284.2z"/>
	<path d="M130.5,284.3h1.9v12.3h-1.9V284.3z"/>
	<path d="M134.5,287.3c0-2,1-3.1,2.9-3.1c1.9,0,2.9,1.1,2.9,3.1v6.4c0,2-1,3.1-2.9,3.1c-1.9,0-2.9-1.1-2.9-3.1V287.3z M136.4,293.8
		c0,0.9,0.4,1.2,1,1.2c0.6,0,1-0.3,1-1.2v-6.6c0-0.9-0.4-1.2-1-1.2c-0.6,0-1,0.3-1,1.2V293.8z"/>
	<path d="M149,294.3L149,294.3l1.5-10h1.8l-1.9,12.3h-2.9l-1.9-12.3h1.9L149,294.3z"/>
	<path d="M159.8,296.6h-1.9l-0.3-2.2h-2.4l-0.3,2.2h-1.8l2-12.3h2.8L159.8,296.6z M155.4,292.7h1.9l-0.9-6.2h0L155.4,292.7z"/>
	<path d="M166.9,284.3v1.7l-3.7,8.8h3.7v1.8h-5.6v-1.7l3.7-8.8h-3.5v-1.8H166.9z"/>
</g>
<g>
	<path d="M79.8,363h3.1c1.9,0,2.9,1.1,2.9,3v6.2c0,2-0.9,3-2.9,3h-3.1V363z M81.7,364.7v8.8h1.1c0.6,0,1-0.3,1-1.2v-6.4
		c0-0.9-0.4-1.2-1-1.2H81.7z"/>
	<path d="M94,375.2h-1.9l-0.3-2.2h-2.4l-0.3,2.2h-1.8l2-12.3h2.8L94,375.2z M89.6,371.3h1.9l-0.9-6.2h0L89.6,371.3z"/>
	<path d="M95.8,363h1.9v12.3h-1.9V363z"/>
	<path d="M106.2,375.2h-1.9L104,373h-2.4l-0.3,2.2h-1.8l2-12.3h2.8L106.2,375.2z M101.8,371.3h1.9l-0.9-6.2h0L101.8,371.3z"/>
	<path d="M109.8,366.3L109.8,366.3l0,8.9H108V363h2.4l1.9,7.3h0V363h1.7v12.3h-2L109.8,366.3z"/>
	<path d="M118.3,368.1h2.6v1.8h-2.6v3.6h3.3v1.8h-5.3V363h5.3v1.8h-3.3V368.1z"/>
	<path d="M131.4,371.7L131.4,371.7l1.3-8.7h2.7v12.3h-1.8v-8.8h0l-1.3,8.8h-1.8l-1.4-8.7h0v8.7h-1.7V363h2.7L131.4,371.7z"/>
	<path d="M143.9,375.2H142l-0.3-2.2h-2.4l-0.3,2.2h-1.8l2-12.3h2.8L143.9,375.2z M139.5,371.3h1.9l-0.9-6.2h0L139.5,371.3z"/>
	<path d="M148.3,362.8c1.9,0,2.8,1.1,2.8,3.1v0.4h-1.8v-0.5c0-0.9-0.4-1.2-1-1.2s-1,0.3-1,1.2c0,0.9,0.4,1.6,1.6,2.7
		c1.6,1.4,2.1,2.4,2.1,3.8c0,2-1,3.1-2.9,3.1c-1.9,0-2.9-1.1-2.9-3.1v-0.8h1.8v0.9c0,0.9,0.4,1.2,1,1.2c0.6,0,1-0.3,1-1.2
		c0-0.9-0.4-1.6-1.6-2.7c-1.6-1.4-2.1-2.4-2.1-3.8C145.4,363.9,146.4,362.8,148.3,362.8z"/>
	<path d="M158.7,370.6v1.6c0,2-1,3.1-2.9,3.1s-2.9-1.1-2.9-3.1v-6.4c0-2,1-3.1,2.9-3.1s2.9,1.1,2.9,3.1v1.2h-1.8v-1.3
		c0-0.9-0.4-1.2-1-1.2c-0.6,0-1,0.3-1,1.2v6.6c0,0.9,0.4,1.2,1,1.2c0.6,0,1-0.3,1-1.2v-1.8H158.7z"/>
	<path d="M167,375.2H165l-0.3-2.2h-2.4l-0.3,2.2h-1.8l2-12.3h2.8L167,375.2z M162.6,371.3h1.9l-0.9-6.2h0L162.6,371.3z"/>
	<path d="M172.8,375.2c-0.1-0.3-0.2-0.5-0.2-1.5v-1.9c0-1.1-0.4-1.6-1.3-1.6h-0.7v5h-1.9V363h2.9c2,0,2.9,0.9,2.9,2.8v1
		c0,1.3-0.4,2.1-1.3,2.5v0c1,0.4,1.3,1.3,1.3,2.6v1.9c0,0.6,0,1,0.2,1.5H172.8z M170.7,364.7v3.8h0.8c0.7,0,1.2-0.3,1.2-1.3V366
		c0-0.9-0.3-1.3-1-1.3H170.7z"/>
	<path d="M178.6,368.1h2.6v1.8h-2.6v3.6h3.3v1.8h-5.3V363h5.3v1.8h-3.3V368.1z"/>
	<path d="M185.8,366.3L185.8,366.3l0,8.9H184V363h2.4l1.9,7.3h0V363h1.7v12.3h-2L185.8,366.3z"/>
	<path d="M194.3,375.2h-1.9V363h1.9v5.3h2.2V363h2v12.3h-2V370h-2.2V375.2z"/>
	<path d="M207,375.2H205l-0.3-2.2h-2.4l-0.3,2.2h-1.8l2-12.3h2.8L207,375.2z M202.6,371.3h1.9l-0.9-6.2h0L202.6,371.3z"/>
	<path d="M211.3,362.8c1.9,0,2.8,1.1,2.8,3.1v0.4h-1.8v-0.5c0-0.9-0.4-1.2-1-1.2s-1,0.3-1,1.2c0,0.9,0.4,1.6,1.6,2.7
		c1.6,1.4,2.1,2.4,2.1,3.8c0,2-1,3.1-2.9,3.1c-1.9,0-2.9-1.1-2.9-3.1v-0.8h1.8v0.9c0,0.9,0.4,1.2,1,1.2c0.6,0,1-0.3,1-1.2
		c0-0.9-0.4-1.6-1.6-2.7c-1.6-1.4-2.1-2.4-2.1-3.8C208.5,363.9,209.5,362.8,211.3,362.8z"/>
</g>
<g>
	<path d="M83.8,443.3c-0.1-0.3-0.2-0.5-0.2-1.5v-1.9c0-1.1-0.4-1.6-1.3-1.6h-0.7v5h-1.9V431h2.9c2,0,2.9,0.9,2.9,2.8v1
		c0,1.3-0.4,2.1-1.3,2.5v0c1,0.4,1.3,1.3,1.3,2.6v1.9c0,0.6,0,1,0.2,1.5H83.8z M81.7,432.8v3.8h0.8c0.7,0,1.2-0.3,1.2-1.3V434
		c0-0.9-0.3-1.3-1-1.3H81.7z"/>
	<path d="M87.5,434c0-2,1-3.1,2.9-3.1c1.9,0,2.9,1.1,2.9,3.1v6.4c0,2-1,3.1-2.9,3.1c-1.9,0-2.9-1.1-2.9-3.1V434z M89.5,440.5
		c0,0.9,0.4,1.2,1,1.2c0.6,0,1-0.3,1-1.2v-6.6c0-0.9-0.4-1.2-1-1.2c-0.6,0-1,0.3-1,1.2V440.5z"/>
	<path d="M98.4,436.5h2.7v3.9c0,2-1,3.1-2.9,3.1s-2.9-1.1-2.9-3.1V434c0-2,1-3.1,2.9-3.1s2.9,1.1,2.9,3.1v1.2h-1.8v-1.3
		c0-0.9-0.4-1.2-1-1.2c-0.6,0-1,0.3-1,1.2v6.6c0,0.9,0.4,1.2,1,1.2c0.6,0,1-0.3,1-1.2v-2.3h-0.9V436.5z"/>
	<path d="M105.2,436.2h2.6v1.8h-2.6v3.6h3.3v1.8h-5.3V431h5.3v1.8h-3.3V436.2z M107.9,428.4l-1.8,1.9h-1.3l1.2-1.9H107.9z"/>
	<path d="M114.6,443.3c-0.1-0.3-0.2-0.5-0.2-1.5v-1.9c0-1.1-0.4-1.6-1.3-1.6h-0.7v5h-1.9V431h2.9c2,0,2.9,0.9,2.9,2.8v1
		c0,1.3-0.4,2.1-1.3,2.5v0c1,0.4,1.3,1.3,1.3,2.6v1.9c0,0.6,0,1,0.2,1.5H114.6z M112.5,432.8v3.8h0.8c0.7,0,1.2-0.3,1.2-1.3V434
		c0-0.9-0.3-1.3-1-1.3H112.5z"/>
	<path d="M118.5,431h1.9v12.3h-1.9V431z"/>
	<path d="M122.5,434c0-2,1-3.1,2.9-3.1c1.9,0,2.9,1.1,2.9,3.1v6.4c0,2-1,3.1-2.9,3.1c-1.9,0-2.9-1.1-2.9-3.1V434z M124.5,440.5
		c0,0.9,0.4,1.2,1,1.2c0.6,0,1-0.3,1-1.2v-6.6c0-0.9-0.4-1.2-1-1.2c-0.6,0-1,0.3-1,1.2V440.5z"/>
	<path d="M134.1,431h1.9v10.5h3.2v1.8h-5.1V431z"/>
	<path d="M147.2,443.3h-1.9l-0.3-2.2h-2.4l-0.3,2.2h-1.8l2-12.3h2.8L147.2,443.3z M145.8,428.4l-1.8,1.9h-1.3l1.2-1.9H145.8z
		 M142.8,439.4h1.9l-0.9-6.2h0L142.8,439.4z"/>
	<path d="M154.3,431v1.7l-3.7,8.8h3.7v1.8h-5.6v-1.7l3.7-8.8h-3.5V431H154.3z"/>
	<path d="M162.5,443.3h-1.9l-0.3-2.2h-2.4l-0.3,2.2h-1.8l2-12.3h2.8L162.5,443.3z M158.1,439.4h1.9l-0.9-6.2h0L158.1,439.4z"/>
	<path d="M168.3,443.3c-0.1-0.3-0.2-0.5-0.2-1.5v-1.9c0-1.1-0.4-1.6-1.3-1.6h-0.7v5h-1.9V431h2.9c2,0,2.9,0.9,2.9,2.8v1
		c0,1.3-0.4,2.1-1.3,2.5v0c1,0.4,1.3,1.3,1.3,2.6v1.9c0,0.6,0,1,0.2,1.5H168.3z M166.2,432.8v3.8h0.8c0.7,0,1.2-0.3,1.2-1.3V434
		c0-0.9-0.3-1.3-1-1.3H166.2z"/>
	<path d="M172.1,434c0-2,1-3.1,2.9-3.1c1.9,0,2.9,1.1,2.9,3.1v6.4c0,2-1,3.1-2.9,3.1c-1.9,0-2.9-1.1-2.9-3.1V434z M174,440.5
		c0,0.9,0.4,1.2,1,1.2c0.6,0,1-0.3,1-1.2v-6.6c0-0.9-0.4-1.2-1-1.2c-0.6,0-1,0.3-1,1.2V440.5z"/>
	<path d="M183.1,441.6c0.2,0,0.5,0,0.7,0c0.6,0,1.1-0.2,1.1-1.2V431h1.9v9.2c0,2.5-1.3,3.1-2.8,3.1c-0.4,0-0.6,0-0.9,0V441.6z"/>
	<path d="M193,443.3c-0.1-0.3-0.2-0.5-0.2-1.5v-1.9c0-1.1-0.4-1.6-1.3-1.6h-0.7v5H189V431h2.9c2,0,2.9,0.9,2.9,2.8v1
		c0,1.3-0.4,2.1-1.3,2.5v0c1,0.4,1.3,1.3,1.3,2.6v1.9c0,0.6,0,1,0.2,1.5H193z M190.9,432.8v3.8h0.8c0.7,0,1.2-0.3,1.2-1.3V434
		c0-0.9-0.3-1.3-1-1.3H190.9z"/>
	<path d="M198.8,441.4v1.9h-1.9v-1.9H198.8z"/>
</g>
<g>
	<path d="M83.8,519.2c-0.1-0.3-0.2-0.5-0.2-1.5v-1.9c0-1.1-0.4-1.6-1.3-1.6h-0.7v5h-1.9V507h2.9c2,0,2.9,0.9,2.9,2.8v1
		c0,1.3-0.4,2.1-1.3,2.5v0c1,0.4,1.3,1.3,1.3,2.6v1.9c0,0.6,0,1,0.2,1.5H83.8z M81.7,508.7v3.8h0.8c0.7,0,1.2-0.3,1.2-1.3V510
		c0-0.9-0.3-1.3-1-1.3H81.7z"/>
	<path d="M87.5,509.9c0-2,1-3.1,2.9-3.1c1.9,0,2.9,1.1,2.9,3.1v6.4c0,2-1,3.1-2.9,3.1c-1.9,0-2.9-1.1-2.9-3.1V509.9z M89.5,516.4
		c0,0.9,0.4,1.2,1,1.2c0.6,0,1-0.3,1-1.2v-6.6c0-0.9-0.4-1.2-1-1.2c-0.6,0-1,0.3-1,1.2V516.4z"/>
	<path d="M98.4,512.4h2.7v3.9c0,2-1,3.1-2.9,3.1s-2.9-1.1-2.9-3.1v-6.4c0-2,1-3.1,2.9-3.1s2.9,1.1,2.9,3.1v1.2h-1.8v-1.3
		c0-0.9-0.4-1.2-1-1.2c-0.6,0-1,0.3-1,1.2v6.6c0,0.9,0.4,1.2,1,1.2c0.6,0,1-0.3,1-1.2v-2.3h-0.9V512.4z"/>
	<path d="M105.2,512.1h2.6v1.8h-2.6v3.6h3.3v1.8h-5.3V507h5.3v1.8h-3.3V512.1z M107.9,504.4l-1.8,1.9h-1.3l1.2-1.9H107.9z"/>
	<path d="M114.6,519.2c-0.1-0.3-0.2-0.5-0.2-1.5v-1.9c0-1.1-0.4-1.6-1.3-1.6h-0.7v5h-1.9V507h2.9c2,0,2.9,0.9,2.9,2.8v1
		c0,1.3-0.4,2.1-1.3,2.5v0c1,0.4,1.3,1.3,1.3,2.6v1.9c0,0.6,0,1,0.2,1.5H114.6z M112.5,508.7v3.8h0.8c0.7,0,1.2-0.3,1.2-1.3V510
		c0-0.9-0.3-1.3-1-1.3H112.5z"/>
	<path d="M118.5,507h1.9v12.3h-1.9V507z"/>
	<path d="M122.5,509.9c0-2,1-3.1,2.9-3.1c1.9,0,2.9,1.1,2.9,3.1v6.4c0,2-1,3.1-2.9,3.1c-1.9,0-2.9-1.1-2.9-3.1V509.9z M124.5,516.4
		c0,0.9,0.4,1.2,1,1.2c0.6,0,1-0.3,1-1.2v-6.6c0-0.9-0.4-1.2-1-1.2c-0.6,0-1,0.3-1,1.2V516.4z"/>
	<path d="M134.1,507h1.9v10.5h3.2v1.8h-5.1V507z"/>
	<path d="M147.2,519.2h-1.9l-0.3-2.2h-2.4l-0.3,2.2h-1.8l2-12.3h2.8L147.2,519.2z M145.8,504.4l-1.8,1.9h-1.3l1.2-1.9H145.8z
		 M142.8,515.3h1.9l-0.9-6.2h0L142.8,515.3z"/>
	<path d="M154.3,507v1.7l-3.7,8.8h3.7v1.8h-5.6v-1.7l3.7-8.8h-3.5V507H154.3z"/>
	<path d="M162.5,519.2h-1.9l-0.3-2.2h-2.4l-0.3,2.2h-1.8l2-12.3h2.8L162.5,519.2z M158.1,515.3h1.9l-0.9-6.2h0L158.1,515.3z"/>
	<path d="M168.3,519.2c-0.1-0.3-0.2-0.5-0.2-1.5v-1.9c0-1.1-0.4-1.6-1.3-1.6h-0.7v5h-1.9V507h2.9c2,0,2.9,0.9,2.9,2.8v1
		c0,1.3-0.4,2.1-1.3,2.5v0c1,0.4,1.3,1.3,1.3,2.6v1.9c0,0.6,0,1,0.2,1.5H168.3z M166.2,508.7v3.8h0.8c0.7,0,1.2-0.3,1.2-1.3V510
		c0-0.9-0.3-1.3-1-1.3H166.2z"/>
	<path d="M172.1,509.9c0-2,1-3.1,2.9-3.1c1.9,0,2.9,1.1,2.9,3.1v6.4c0,2-1,3.1-2.9,3.1c-1.9,0-2.9-1.1-2.9-3.1V509.9z M174,516.4
		c0,0.9,0.4,1.2,1,1.2c0.6,0,1-0.3,1-1.2v-6.6c0-0.9-0.4-1.2-1-1.2c-0.6,0-1,0.3-1,1.2V516.4z"/>
	<path d="M183.1,517.5c0.2,0,0.5,0,0.7,0c0.6,0,1.1-0.2,1.1-1.2V507h1.9v9.2c0,2.5-1.3,3.1-2.8,3.1c-0.4,0-0.6,0-0.9,0V517.5z"/>
	<path d="M193,519.2c-0.1-0.3-0.2-0.5-0.2-1.5v-1.9c0-1.1-0.4-1.6-1.3-1.6h-0.7v5H189V507h2.9c2,0,2.9,0.9,2.9,2.8v1
		c0,1.3-0.4,2.1-1.3,2.5v0c1,0.4,1.3,1.3,1.3,2.6v1.9c0,0.6,0,1,0.2,1.5H193z M190.9,508.7v3.8h0.8c0.7,0,1.2-0.3,1.2-1.3V510
		c0-0.9-0.3-1.3-1-1.3H190.9z"/>
	<path d="M198.8,517.4v1.9h-1.9v-1.9H198.8z"/>
	<path d="M201.1,519.2v-1.9h1.9v1.7l-0.8,1.9h-0.8l0.5-1.8H201.1z"/>
	<path d="M215,519.2h-1.9l-0.3-2.2h-2.4l-0.3,2.2h-1.8l2-12.3h2.8L215,519.2z M210.6,515.3h1.9l-0.9-6.2h0L210.6,515.3z"/>
	<path d="M218.6,510.3L218.6,510.3l0,8.9h-1.7V507h2.4l1.9,7.3h0V507h1.7v12.3h-2L218.6,510.3z"/>
	<path d="M224.6,507h6v1.8h-2v10.5h-1.9v-10.5h-2V507z"/>
	<path d="M232.1,509.9c0-2,1-3.1,2.9-3.1c1.9,0,2.9,1.1,2.9,3.1v6.4c0,2-1,3.1-2.9,3.1c-1.9,0-2.9-1.1-2.9-3.1V509.9z M234.1,516.4
		c0,0.9,0.4,1.2,1,1.2c0.6,0,1-0.3,1-1.2v-6.6c0-0.9-0.4-1.2-1-1.2c-0.6,0-1,0.3-1,1.2V516.4z"/>
	<path d="M241.9,510.3L241.9,510.3l0,8.9h-1.7V507h2.4l1.9,7.3h0V507h1.7v12.3h-2L241.9,510.3z"/>
	<path d="M248.5,507h1.9v12.3h-1.9V507z"/>
	<path d="M252.5,509.9c0-2,1-3.1,2.9-3.1c1.9,0,2.9,1.1,2.9,3.1v6.4c0,2-1,3.1-2.9,3.1c-1.9,0-2.9-1.1-2.9-3.1V509.9z M254.4,516.4
		c0,0.9,0.4,1.2,1,1.2c0.6,0,1-0.3,1-1.2v-6.6c0-0.9-0.4-1.2-1-1.2c-0.6,0-1,0.3-1,1.2V516.4z"/>
	<path d="M266.7,506.8c1.9,0,2.8,1.1,2.8,3.1v0.4h-1.8v-0.5c0-0.9-0.4-1.2-1-1.2s-1,0.3-1,1.2c0,0.9,0.4,1.6,1.6,2.7
		c1.6,1.4,2.1,2.4,2.1,3.8c0,2-1,3.1-2.9,3.1c-1.9,0-2.9-1.1-2.9-3.1v-0.8h1.8v0.9c0,0.9,0.4,1.2,1,1.2c0.6,0,1-0.3,1-1.2
		c0-0.9-0.4-1.6-1.6-2.7c-1.6-1.4-2.1-2.4-2.1-3.8C263.8,507.9,264.8,506.8,266.7,506.8z"/>
	<path d="M277.8,519.2h-1.9l-0.3-2.2h-2.4l-0.3,2.2H271l2-12.3h2.8L277.8,519.2z M273.4,515.3h1.9l-0.9-6.2h0L273.4,515.3z"/>
	<path d="M281.3,510.3L281.3,510.3l0,8.9h-1.7V507h2.4l1.9,7.3h0V507h1.7v12.3h-2L281.3,510.3z"/>
	<path d="M287.3,507h6v1.8h-2v10.5h-1.9v-10.5h-2V507z"/>
	<path d="M300.6,519.2h-1.9l-0.3-2.2h-2.4l-0.3,2.2h-1.8l2-12.3h2.8L300.6,519.2z M296.2,515.3h1.9l-0.9-6.2h0L296.2,515.3z"/>
	<path d="M304.1,510.3L304.1,510.3l0,8.9h-1.7V507h2.4l1.9,7.3h0V507h1.7v12.3h-2L304.1,510.3z"/>
	<path d="M317,519.2H315l-0.3-2.2h-2.4l-0.3,2.2h-1.8l2-12.3h2.8L317,519.2z M312.6,515.3h1.9l-0.9-6.2h0L312.6,515.3z"/>
	<path d="M318.7,519.2v-1.9h1.9v1.7l-0.8,1.9H319l0.5-1.8H318.7z"/>
	<path d="M328.4,512.4h2.5v1.8h-2.5v5.1h-1.9V507h5.1v1.8h-3.2V512.4z"/>
	<path d="M335.3,512.1h2.6v1.8h-2.6v3.6h3.3v1.8h-5.3V507h5.3v1.8h-3.3V512.1z"/>
	<path d="M340.7,507h1.9v10.5h3.2v1.8h-5.1V507z"/>
	<path d="M347.5,507h1.9v12.3h-1.9V507z"/>
	<path d="M357.4,510v1.6c0,2-0.9,3-2.9,3h-0.9v4.6h-1.9V507h2.8C356.5,507,357.4,508,357.4,510z M353.6,508.7v4.2h0.9
		c0.6,0,0.9-0.3,0.9-1.2v-1.8c0-0.9-0.3-1.2-0.9-1.2H353.6z"/>
	<path d="M361.1,512.1h2.6v1.8h-2.6v3.6h3.3v1.8h-5.3V507h5.3v1.8h-3.3V512.1z"/>
	<path d="M372.1,512.4h2.5v1.8h-2.5v5.1h-1.9V507h5.1v1.8h-3.2V512.4z"/>
	<path d="M381.1,519.2c-0.1-0.3-0.2-0.5-0.2-1.5v-1.9c0-1.1-0.4-1.6-1.3-1.6H379v5H377V507h2.9c2,0,2.9,0.9,2.9,2.8v1
		c0,1.3-0.4,2.1-1.3,2.5v0c1,0.4,1.3,1.3,1.3,2.6v1.9c0,0.6,0,1,0.2,1.5H381.1z M379,508.7v3.8h0.8c0.7,0,1.2-0.3,1.2-1.3V510
		c0-0.9-0.3-1.3-1-1.3H379z"/>
	<path d="M386.9,512.1h2.6v1.8h-2.6v3.6h3.3v1.8H385V507h5.3v1.8h-3.3V512.1z"/>
	<path d="M392.3,507h1.9v12.3h-1.9V507z"/>
	<path d="M395.9,507h6v1.8h-2v10.5h-1.9v-10.5h-2V507z"/>
	<path d="M409.2,519.2h-1.9l-0.3-2.2h-2.4l-0.3,2.2h-1.8l2-12.3h2.8L409.2,519.2z M404.8,515.3h1.9l-0.9-6.2h0L404.8,515.3z"/>
	<path d="M413.5,506.8c1.9,0,2.8,1.1,2.8,3.1v0.4h-1.8v-0.5c0-0.9-0.4-1.2-1-1.2s-1,0.3-1,1.2c0,0.9,0.4,1.6,1.6,2.7
		c1.6,1.4,2.1,2.4,2.1,3.8c0,2-1,3.1-2.9,3.1s-2.9-1.1-2.9-3.1v-0.8h1.8v0.9c0,0.9,0.4,1.2,1,1.2c0.6,0,1-0.3,1-1.2
		c0-0.9-0.4-1.6-1.6-2.7c-1.6-1.4-2.1-2.4-2.1-3.8C410.7,507.9,411.7,506.8,413.5,506.8z"/>
</g>
<g>
	<g>
		
			<image style="overflow:visible;enable-background:new    ;" width="1908" height="596" xlink:href="6106F19B.png"  transform="matrix(8.766469e-002 0 0 0.1491 624.9796 519.2227)">
		</image>
	</g>
	<rect x="640.8" y="537.6" class="st11" width="140.9" height="43.9"/>
</g>
<g class="st12">
	<path class="st13" d="M671.5,569.4L671.5,569.4l3.6-24.3h4.3l-4.6,29.8h-7l-4.6-29.8h4.7L671.5,569.4z"/>
	<path class="st13" d="M681.2,552.3c0-4.8,2.5-7.5,7.1-7.5s7.1,2.7,7.1,7.5v15.5c0,4.8-2.5,7.5-7.1,7.5s-7.1-2.7-7.1-7.5V552.3z
		 M685.9,568.1c0,2.1,0.9,2.9,2.4,2.9s2.4-0.8,2.4-2.9V552c0-2.1-0.9-2.9-2.4-2.9s-2.4,0.8-2.4,2.9V568.1z"/>
	<path class="st13" d="M698.4,545.1h4.7v25.6h7.7v4.3h-12.4V545.1z"/>
	<path class="st13" d="M709.4,545.1h14.5v4.3H719v25.6h-4.7v-25.6h-4.9V545.1z"/>
	<path class="st13" d="M739.5,574.9h-4.7l-0.8-5.4h-5.7l-0.8,5.4h-4.3l4.8-29.8h6.9L739.5,574.9z M728.8,565.5h4.5l-2.2-15.1H731
		L728.8,565.5z"/>
	<path class="st13" d="M751.4,574.9c-0.3-0.8-0.4-1.2-0.4-3.7v-4.7c0-2.8-0.9-3.8-3.1-3.8h-1.6v12.1h-4.7v-29.8h7.1
		c4.9,0,6.9,2.3,6.9,6.9v2.3c0,3.1-1,5-3.1,6v0.1c2.3,1,3.1,3.2,3.1,6.3v4.6c0,1.4,0,2.5,0.5,3.6H751.4z M746.3,549.4v9.2h1.8
		c1.7,0,2.8-0.8,2.8-3.2v-2.9c0-2.1-0.7-3.1-2.4-3.1H746.3z"/>
</g>
<g class="st12">
	<path class="st14" d="M673.3,569.4L673.3,569.4l3.6-24.3h4.3l-4.6,29.8h-7l-4.6-29.8h4.7L673.3,569.4z"/>
	<path class="st14" d="M683,552.3c0-4.8,2.5-7.5,7.1-7.5c4.6,0,7.1,2.7,7.1,7.5v15.5c0,4.8-2.5,7.5-7.1,7.5c-4.6,0-7.1-2.7-7.1-7.5
		V552.3z M687.7,568.1c0,2.1,0.9,2.9,2.4,2.9c1.5,0,2.4-0.8,2.4-2.9V552c0-2.1-0.9-2.9-2.4-2.9c-1.5,0-2.4,0.8-2.4,2.9V568.1z"/>
	<path class="st14" d="M700.2,545.1h4.7v25.6h7.7v4.3h-12.4V545.1z"/>
	<path class="st14" d="M711.2,545.1h14.5v4.3h-4.9v25.6h-4.7v-25.6h-4.9V545.1z"/>
	<path class="st14" d="M741.3,574.9h-4.7l-0.8-5.4H730l-0.8,5.4h-4.3l4.8-29.8h6.9L741.3,574.9z M730.6,565.5h4.5l-2.2-15.1h-0.1
		L730.6,565.5z"/>
	<path class="st14" d="M753.2,574.9c-0.3-0.8-0.4-1.2-0.4-3.7v-4.7c0-2.8-0.9-3.8-3.1-3.8h-1.6v12.1h-4.7v-29.8h7.1
		c4.9,0,6.9,2.3,6.9,6.9v2.3c0,3.1-1,5-3.1,6v0.1c2.3,1,3.1,3.2,3.1,6.3v4.6c0,1.4,0,2.5,0.5,3.6H753.2z M748.1,549.4v9.2h1.8
		c1.7,0,2.8-0.8,2.8-3.2v-2.9c0-2.1-0.7-3.1-2.4-3.1H748.1z"/>
</g>
</svg>
