<?xml version="1.0" encoding="utf-8"?>
<!-- Generator: Adobe Illustrator 19.1.0, SVG Export Plug-In . SVG Version: 6.00 Build 0)  -->
<svg version="1.1" id="Layer_1" xmlns="http://www.w3.org/2000/svg" xmlns:xlink="http://www.w3.org/1999/xlink" x="0px" y="0px"
	 viewBox="94 97 800 600" style="enable-background:new 94 97 800 600;" xml:space="preserve">
<style type="text/css">
	.st0{fill:#24110B;}
	.st1{fill:#997F58;}
	.st2{font-family:'BebasNeue';}
	.st3{font-size:59.1553px;}
	.st4{fill:#FFFFFF;}
</style>
<g>
	
		<image style="overflow:visible;enable-background:new    ;" width="1277" height="829" xlink:href="91539964.png"  transform="matrix(0.7652 0 0 0.7656 32.5648 76)">
	</image>
</g>
<g>
	<g>
		<g id="Teste_de_Arrumação__do_Armário_2_">
			<path class="st0" d="M1044.1-96.4c11.4-1.7,22.8-3.3,34.2-4.9c0.5,3.7,0.7,5.6,1.2,9.3c-4.6,0.6-6.9,0.9-11.5,1.6
				c2.6,18.6,5.2,37.2,7.8,55.8c-4.3,0.6-6.4,0.9-10.7,1.6c-2.7-18.6-5.4-37.2-8.2-55.7c-4.6,0.7-6.9,1-11.5,1.7
				C1044.9-90.9,1044.7-92.7,1044.1-96.4z"/>
			<path class="st0" d="M1097.6-76c6-0.8,9-1.1,15-1.8c0.4,3.7,0.7,5.6,1.1,9.3c-6,0.7-9,1.1-14.9,1.8c1,7.6,1.4,11.4,2.4,19.1
				c7.4-1,11.1-1.4,18.6-2.3c0.4,3.7,0.7,5.6,1.1,9.3c-9.7,1.1-19.5,2.4-29.2,3.7c-2.9-21.7-5.7-43.4-8.6-65.1
				c10.1-1.3,20.1-2.6,30.2-3.8c0.4,3.7,0.6,5.6,1.1,9.3c-7.6,0.9-11.4,1.4-19,2.3C1096.3-86.8,1096.7-83.2,1097.6-76z"/>
			<path class="st0" d="M1135-108.9c10.8-1.1,16.9,4.3,17.9,14.8c0.1,0.8,0.1,1.2,0.2,2.1c-4.2,0.4-6.2,0.6-10.4,1
				c-0.1-1.1-0.2-1.6-0.3-2.7c-0.5-4.7-2.7-6.2-6.2-5.9c-3.5,0.4-5.3,2.4-4.8,7c0.5,4.8,3.1,8,10.9,13.2c9.9,6.6,13.3,11.7,14,19.2
				c1,10.4-3.9,16.9-14.4,18s-16.6-4.2-17.8-14.6c-0.2-1.6-0.3-2.4-0.5-4c4.1-0.5,6.1-0.7,10.2-1.1c0.2,1.9,0.3,2.8,0.5,4.7
				c0.5,4.7,2.8,6.1,6.3,5.7c3.4-0.4,5.4-2.3,4.9-6.9c-0.5-4.8-3-8.1-10.7-13.2c-9.9-6.5-13.4-11.6-14.3-19.1
				C1119.4-101.1,1124.2-107.8,1135-108.9z"/>
			<path class="st0" d="M1154.7-110.1c11.4-1,22.9-2,34.3-2.9c0.3,3.7,0.4,5.6,0.7,9.3c-4.6,0.4-6.9,0.5-11.6,0.9
				c1.5,18.6,3.1,37.3,4.6,55.9c-4.3,0.4-6.4,0.6-10.7,0.9c-1.7-18.6-3.3-37.3-5-55.9c-4.6,0.4-6.9,0.6-11.5,1.1
				C1155.2-104.5,1155-106.4,1154.7-110.1z"/>
			<path class="st0" d="M1206.8-86.7c6-0.4,9-0.6,15-1c0.2,3.7,0.3,5.6,0.6,9.3c-6,0.4-9,0.6-15,1c0.5,7.6,0.8,11.5,1.3,19.1
				c7.5-0.5,11.2-0.8,18.6-1.2c0.2,3.7,0.3,5.6,0.6,9.3c-9.8,0.6-19.5,1.3-29.3,2c-1.6-21.8-3.3-43.5-4.9-65.3
				c10.1-0.8,20.2-1.4,30.3-2c0.2,3.7,0.3,5.6,0.5,9.3c-7.6,0.5-11.5,0.7-19.1,1.2C1206.1-97.6,1206.3-94,1206.8-86.7z"/>
			<path class="st0" d="M1246.6-116.6c7-0.3,10.5-0.5,17.6-0.8c11.1-0.4,16.7,5.1,17,15.6c0.3,11,0.7,22,1,33
				c0.3,10.4-4.8,16.3-15.5,16.7c-6.8,0.3-10.2,0.4-17,0.8C1248.7-73.1,1247.7-94.9,1246.6-116.6z M1258.1-107.8
				c0.6,15.5,1.3,31.1,1.9,46.6c2.4-0.1,3.6-0.2,6.1-0.3c3.4-0.1,5.4-1.9,5.3-6.6c-0.4-11.3-0.8-22.6-1.2-33.9
				c-0.2-4.7-2.3-6.3-5.9-6.1C1261.9-108,1260.6-107.9,1258.1-107.8z"/>
			<path class="st0" d="M1299.5-90.9c6-0.1,9-0.2,15-0.3c0,3.7,0.1,5.6,0.1,9.3c-6,0.1-9,0.1-15,0.3c0.2,7.6,0.2,11.5,0.4,19.1
				c7.5-0.2,11.2-0.2,18.6-0.3c0,3.7,0.1,5.6,0.1,9.3c-9.8,0.1-19.5,0.3-29.3,0.6c-0.6-21.8-1.1-43.5-1.7-65.3
				c10.1-0.3,20.2-0.5,30.3-0.6c0,3.7,0.1,5.6,0.1,9.3c-7.6,0.1-11.5,0.1-19.1,0.3C1299.3-101.8,1299.4-98.2,1299.5-90.9z"/>
			<path class="st0" d="M1375.3-53.4c-4.3-0.1-6.5-0.1-10.8-0.2c-0.7-4.7-1-7.1-1.7-11.8c-5.3-0.1-8-0.1-13.3-0.1
				c-0.8,4.7-1.2,7.1-1.9,11.8c-3.9,0-5.9,0-9.9,0c3.6-21.7,7.4-43.5,11.3-65.2c6.5,0,9.8,0.1,16.3,0.2
				C1368.7-96.9,1372.1-75.1,1375.3-53.4z M1351-74.3c4.2,0,6.3,0,10.5,0.1c-1.6-11-3.2-22-4.8-33c-0.1,0-0.1,0-0.2,0
				C1354.6-96.2,1352.8-85.3,1351-74.3z"/>
			<path class="st0" d="M1402.7-52.7c-0.5-1.7-0.9-2.7-0.7-8c0.1-4.1,0.2-6.1,0.3-10.2c0.2-6-1.9-8.3-6.8-8.5
				c-1.5,0-2.3-0.1-3.8-0.1c-0.3,10.6-0.4,15.9-0.7,26.5c-4.3-0.1-6.4-0.2-10.7-0.2c0.5-21.7,0.9-43.4,1.4-65.1
				c6.7,0.1,10,0.2,16.7,0.4c11.5,0.4,16.2,5.5,15.8,15.5c-0.1,2-0.1,3.1-0.2,5.1c-0.3,6.7-2.7,10.9-7.7,12.8c0,0.1,0,0.1,0,0.2
				c5.4,2.3,7,7.2,6.7,14c-0.2,4-0.2,6-0.4,10c-0.1,3.2-0.1,5.5,0.9,7.9C1409.3-52.5,1407.1-52.5,1402.7-52.7z M1392.6-108.8
				c-0.2,8-0.3,12-0.6,20c1.7,0,2.6,0.1,4.3,0.1c4.1,0.1,6.6-1.5,6.8-6.7c0.1-2.6,0.1-3.8,0.2-6.4c0.2-4.6-1.5-6.7-5.4-6.9
				C1395.8-108.7,1394.7-108.7,1392.6-108.8z"/>
			<path class="st0" d="M1441.9-51c-0.5-1.7-0.8-2.7-0.5-8c0.2-4.1,0.3-6.1,0.6-10.2c0.3-6-1.7-8.4-6.7-8.6
				c-1.5-0.1-2.3-0.1-3.8-0.2c-0.5,10.6-0.8,15.9-1.3,26.4c-4.3-0.2-6.4-0.3-10.7-0.5c0.9-21.7,1.9-43.3,2.8-65
				c6.7,0.3,10,0.4,16.7,0.8c11.5,0.6,16.1,5.8,15.5,15.8c-0.1,2-0.2,3.1-0.3,5.1c-0.4,6.7-2.9,10.8-7.9,12.7c0,0.1,0,0.1,0,0.2
				c5.3,2.4,6.8,7.4,6.4,14.1c-0.2,4-0.4,6-0.6,10c-0.2,3.1-0.2,5.5,0.7,7.9C1448.4-50.7,1446.3-50.8,1441.9-51z M1432.9-107.2
				c-0.4,8-0.6,12-1,19.9c1.7,0.1,2.6,0.1,4.3,0.2c4.1,0.2,6.6-1.3,6.9-6.5c0.1-2.6,0.2-3.8,0.4-6.4c0.3-4.6-1.3-6.8-5.2-7
				C1436.1-107.1,1435.1-107.1,1432.9-107.2z"/>
			<path class="st0" d="M1473.4-114.2c-1.2,16.7-2.3,33.3-3.5,50c-0.3,4.6,1.7,6.4,5.1,6.7c3.4,0.2,5.7-1.3,6-5.9
				c1.2-16.6,2.5-33.3,3.8-49.9c4.2,0.3,6.3,0.5,10.5,0.8c-1.3,16.4-2.7,32.8-4,49.2c-0.8,10.3-6.7,15.8-17.2,15.1
				s-15.6-7-14.9-17.3c1-16.4,2.1-32.9,3.2-49.3C1466.7-114.6,1468.9-114.5,1473.4-114.2z"/>
			<path class="st0" d="M1521.7-64c0.1,0,0.1,0,0.2,0c3.9-15,7.9-30.1,11.9-45.1c6.1,0.6,9.2,0.9,15.3,1.6
				c-2.4,21.5-4.7,42.9-7,64.4c-4-0.4-6-0.6-10.1-1c1.6-15.4,3.2-30.8,4.8-46.2c-0.1,0-0.1,0-0.2,0c-4.1,15.2-8,30.3-12,45.5
				c-4-0.4-6.1-0.6-10.1-1c-1.2-15.5-2.4-30.9-3.7-46.4c-0.1,0-0.1,0-0.2,0c-1.4,15.2-2.7,30.4-4.1,45.7c-3.7-0.3-5.6-0.5-9.3-0.8
				c1.8-21.5,3.6-43.1,5.5-64.6c6.2,0.5,9.2,0.8,15.4,1.4C1519.3-95,1520.5-79.5,1521.7-64z"/>
			<path class="st0" d="M1584.3-38.1c-4.3-0.6-6.4-0.8-10.7-1.4c-0.2-4.8-0.2-7.1-0.4-11.9c-5.3-0.6-7.9-1-13.1-1.6
				c-1.3,4.6-1.9,6.9-3.2,11.5c-3.9-0.4-5.9-0.7-9.8-1.1c6-21.1,12.2-42.1,18.4-63.1c6.5,0.8,9.7,1.1,16.1,2
				C1582.6-81.8,1583.5-59.9,1584.3-38.1z M1562.4-61.5c4.2,0.5,6.2,0.7,10.4,1.2c-0.4-11-0.7-22.1-1.1-33.1c-0.1,0-0.1,0-0.2,0
				C1568.4-82.7,1565.4-72.1,1562.4-61.5z"/>
			<path class="st0" d="M1623.5-56.9c-0.5,3.4-0.8,5.1-1.3,8.5c-1.4,9.5-7,14.5-16.1,14c-0.2,1.2-0.3,1.8-0.4,2.9
				c4.7,0.7,7,2.1,6.5,5.3c-0.7,4.9-4.8,5-10.5,4.2c-5.3-0.7-9.1-2.4-8.5-6.6c0.1-0.4,0.1-0.5,0.1-0.9c2.8,0.4,4.3,0.6,7.1,1
				c0,0.3-0.1,0.4-0.1,0.7c-0.2,1.4,0.8,2,1.9,2.1c1.6,0.2,2.5-0.3,2.7-1.9c0.2-1.7-0.8-2.5-3.1-2.9c-0.4-0.1-0.6-0.1-1-0.1
				c0.3-1.9,0.4-2.8,0.7-4.7c-8.7-2-12.5-8.3-11.2-17.7c1.5-11.1,3-22.2,4.5-33.3c1.4-10.3,7.8-15.4,18.6-13.9
				c10.8,1.5,15.5,8.2,13.9,18.5c-0.4,2.5-0.6,3.7-0.9,6.2c-4.1-0.6-6.2-0.9-10.3-1.5c0.4-2.7,0.6-4.1,1-6.9
				c0.7-4.6-1.3-6.6-4.7-7.1c-3.5-0.5-5.9,0.9-6.6,5.5c-1.6,11.5-3.2,23.1-4.8,34.6c-0.6,4.6,1.3,6.5,4.7,7c3.4,0.5,5.8-0.9,6.4-5.4
				c0.5-3.7,0.8-5.5,1.3-9.1C1617.4-57.9,1619.5-57.6,1623.5-56.9z"/>
			<path class="st0" d="M1660.6-26.6c-4.3-0.7-6.4-1.1-10.7-1.8c0-4.7,0.1-7.1,0.1-11.9c-5.2-0.9-7.8-1.3-13.1-2.1
				c-1.5,4.5-2.2,6.8-3.7,11.3c-3.9-0.6-5.8-0.9-9.7-1.5c6.9-20.7,13.9-41.4,21-62.1c6.4,1,9.6,1.5,16,2.6
				C1660.7-70.3,1660.7-48.4,1660.6-26.6z M1663-105c1.9,1.7,2.8,2.6,4.7,4.3c-2.4,3.8-5.5,5.4-9.5,4.8c-1.6-0.3-3-0.8-5.1-2.1
				c-1.5-1-2.4-1.4-3.5-1.6c-2.2-0.4-3.4,0.2-4.7,2c-1.9-1.7-2.9-2.5-4.8-4.2c2.3-3.8,5.5-5.5,9.5-4.8c1.8,0.3,3.2,0.9,5.1,2.1
				c1.5,1,2.4,1.4,3.5,1.6C1660.4-102.7,1661.7-103.2,1663-105z M1639.7-50.8c4.1,0.7,6.2,1,10.3,1.7c0.1-11,0.2-22,0.2-33
				c-0.1,0-0.1,0-0.2,0C1646.6-71.8,1643.2-61.3,1639.7-50.8z"/>
			<path class="st0" d="M1673.1-74.2c1.8-10.2,8.7-15,19.4-13c10.7,2,15.4,8.9,13.5,19c-2.1,11-4.3,21.9-6.4,32.9
				c-2,10.1-8.7,14.8-19.1,12.9s-15-8.7-13.2-18.8C1669.2-52.2,1671.2-63.2,1673.1-74.2z M1677.8-38.7c-0.8,4.5,1,6.6,4.4,7.3
				c3.4,0.6,5.8-0.7,6.7-5.2c2.2-11.4,4.3-22.8,6.5-34.2c0.9-4.5-1-6.7-4.4-7.3c-3.5-0.6-6,0.7-6.8,5.2
				C1682-61.5,1679.9-50.1,1677.8-38.7z"/>
			<path class="st0" d="M1209-36.9c6.7-0.5,10.1-0.7,16.9-1.1c10.7-0.7,16.2,4.8,16.8,15.2c0.6,11,1.2,22,1.8,33
				c0.6,10.4-4.2,16.4-14.5,17.1c-6.5,0.4-9.8,0.6-16.3,1.1C1212.1,6.6,1210.6-15.1,1209-36.9z M1220.3-28.3c1,15.5,2,31.1,3.1,46.6
				c2.3-0.2,3.5-0.2,5.8-0.4c3.3-0.2,5.2-2,4.9-6.7c-0.7-11.3-1.3-22.6-2-34c-0.3-4.7-2.4-6.2-5.8-6
				C1223.9-28.5,1222.7-28.5,1220.3-28.3z"/>
			<path class="st0" d="M1248.5-23.6c-0.5-10.4,4.9-16.7,15.4-17.2c10.5-0.4,16.4,5.4,16.7,15.8c0.4,11.3,0.7,22.6,1.1,33.9
				c0.3,10.4-5,16.6-15.1,17c-10.1,0.5-15.9-5.2-16.5-15.7C1249.6-1,1249.1-12.3,1248.5-23.6z M1260.6,10.5c0.2,4.7,2.4,6.3,5.7,6.2
				c3.3-0.1,5.3-2,5.1-6.7c-0.5-11.7-0.9-23.5-1.4-35.3c-0.2-4.7-2.4-6.4-5.8-6.2c-3.4,0.1-5.4,2-5.2,6.7
				C1259.6-13,1260.1-1.3,1260.6,10.5z"/>
			<path class="st0" d="M1336.8,23.5c-4.2,0-6.2,0-10.4,0.1c-0.8-4.7-1.1-7.1-1.9-11.8c-5.1,0.1-7.6,0.1-12.7,0.2
				c-0.6,4.7-0.9,7.1-1.6,11.9c-3.8,0.1-5.7,0.1-9.5,0.2c3-21.8,6.1-43.7,9.4-65.5c6.2-0.1,9.4-0.2,15.6-0.2
				C1329.5-19.9,1333.2,1.8,1336.8,23.5z M1312.9,3.1c4-0.1,6-0.1,10-0.2c-1.8-11-3.6-21.9-5.4-32.9c-0.1,0-0.1,0-0.2,0
				C1315.9-19,1314.4-7.9,1312.9,3.1z"/>
			<path class="st0" d="M1363.1,23.5c-0.5-1.7-0.9-2.7-0.9-8c0-4.1,0.1-6.1,0.1-10.2c0.1-6-2-8.3-6.7-8.3c-1.4,0-2.2,0-3.6,0
				c-0.1,10.6-0.1,15.9-0.1,26.5c-4.1,0-6.2,0-10.3,0c0-21.7,0-43.5,0-65.2c6.4,0,9.7,0,16.1,0.1c11.1,0.1,15.7,5.1,15.5,15.2
				c0,2-0.1,3.1-0.1,5.1c-0.1,6.7-2.4,10.9-7.1,13c0,0.1,0,0.1,0,0.2c5.2,2.2,6.8,7.1,6.7,13.9c-0.1,4-0.1,6-0.2,10
				c-0.1,3.2,0,5.5,1,7.9C1369.4,23.6,1367.3,23.6,1363.1,23.5z M1352.1-32.4c0,8-0.1,12-0.1,20c1.6,0,2.5,0,4.1,0
				c3.9,0,6.3-1.6,6.4-6.8c0-2.6,0-3.9,0.1-6.4c0.1-4.7-1.6-6.7-5.3-6.7C1355.2-32.4,1354.2-32.4,1352.1-32.4z"/>
			<path class="st0" d="M1401.5,5.4c0.1,0,0.1,0,0.2,0c2.8-15.3,5.7-30.6,8.7-45.9c5.9,0.2,8.9,0.3,14.8,0.6
				c-1,21.6-1.9,43.3-2.9,64.9c-3.9-0.2-5.8-0.2-9.7-0.4c0.6-15.5,1.2-31.1,1.8-46.6c-0.1,0-0.1,0-0.2,0c-3,15.4-5.9,30.9-8.7,46.4
				c-3.9-0.1-5.8-0.2-9.7-0.3c-2.1-15.4-4.2-30.8-6.3-46.2c-0.1,0-0.1,0-0.2,0c-0.4,15.3-0.8,30.7-1.2,46c-3.6-0.1-5.4-0.1-9-0.2
				c0.4-21.7,0.9-43.4,1.3-65.1c5.9,0.1,8.9,0.2,14.8,0.4C1397.4-25.5,1399.4-10.1,1401.5,5.4z"/>
			<path class="st0" d="M1463,27.2c-4.1-0.3-6.2-0.4-10.4-0.6c-0.4-4.7-0.6-7.1-1.1-11.9c-5.1-0.3-7.6-0.4-12.7-0.7
				c-1,4.7-1.4,7-2.4,11.7c-3.8-0.2-5.7-0.3-9.4-0.4c4.5-21.5,9.2-43,13.9-64.4c6.2,0.3,9.3,0.5,15.6,0.9
				C1458.7-16.5,1460.9,5.3,1463,27.2z M1440.6,5.2c4,0.2,6,0.3,10,0.5c-1-11-2-22.1-3-33.1c-0.1,0-0.1,0-0.2,0
				C1445.1-16.5,1442.9-5.6,1440.6,5.2z M1461-51.8c-4.2,3.9-6.3,5.8-10.5,9.7c-2.9-0.2-4.3-0.2-7.2-0.4c2.9-4,4.3-6,7.2-9.9
				C1454.6-52.2,1456.7-52.1,1461-51.8z"/>
			<path class="st0" d="M1489.2,29c-0.4-1.7-0.7-2.8-0.3-8c0.3-4.1,0.5-6.1,0.8-10.2c0.5-6-1.4-8.4-6.1-8.7
				c-1.4-0.1-2.2-0.2-3.6-0.3c-0.8,10.5-1.2,15.8-2,26.3c-4.1-0.3-6.2-0.4-10.3-0.7c1.5-21.6,3-43.2,4.5-64.8
				c6.4,0.4,9.6,0.7,16,1.2c11,0.9,15.3,6.2,14.4,16.1c-0.2,2-0.3,3-0.4,5.1c-0.6,6.6-3.1,10.7-8,12.4c0,0.1,0,0.1,0,0.2
				c5,2.5,6.3,7.5,5.7,14.2c-0.3,4-0.5,6-0.9,10c-0.3,3.1-0.4,5.5,0.4,7.9C1495.4,29.5,1493.3,29.4,1489.2,29z M1482.2-27.3
				c-0.6,7.9-0.9,11.9-1.5,19.9c1.6,0.1,2.5,0.2,4.1,0.3c3.9,0.3,6.4-1.2,6.8-6.3c0.2-2.5,0.3-3.8,0.5-6.4c0.4-4.6-1.1-6.8-4.8-7.1
				C1485.2-27,1484.2-27.1,1482.2-27.3z"/>
			<path class="st0" d="M1511.1-34.2c4.2,0.4,6.4,0.6,10.6,1c-2.1,21.5-4.2,43-6.2,64.5c-4.1-0.4-6.1-0.6-10.2-0.9
				C1507.1,8.8,1509.1-12.7,1511.1-34.2z"/>
			<path class="st0" d="M1527-17.1c1-10.3,7.3-15.7,17.7-14.5c10.4,1.1,15.4,7.7,14.2,18c-1.3,11.1-2.6,22.3-4,33.4
				c-1.2,10.3-7.4,15.5-17.4,14.5c-10-1.1-14.9-7.5-13.9-17.8C1524.7,5.3,1525.8-5.9,1527-17.1z M1533.8,18.1
				c-0.5,4.6,1.4,6.6,4.7,6.9c3.3,0.3,5.5-1.2,6-5.8c1.3-11.6,2.6-23.2,3.9-34.8c0.5-4.6-1.4-6.6-4.7-6.9c-3.4-0.4-5.7,1.2-6.1,5.8
				C1536.3-5.1,1535.1,6.5,1533.8,18.1z"/>
		</g>
		<g>
			<path class="st1" d="M1048.2-96.8c11.4-1.8,22.7-3.6,34.1-5.3c0.6,3.7,0.8,5.6,1.4,9.3c-4.6,0.7-6.9,1-11.5,1.7
				c2.9,18.5,5.8,37.1,8.6,55.6c-4.3,0.7-6.4,1-10.7,1.7c-3-18.5-6-37.1-9-55.6c-4.6,0.7-6.9,1.1-11.5,1.9
				C1049.1-91.2,1048.8-93.1,1048.2-96.8z"/>
			<path class="st1" d="M1102.1-77c6-0.8,9-1.2,15-2c0.5,3.7,0.7,5.6,1.2,9.3c-6,0.8-8.9,1.2-14.9,2c1.1,7.6,1.6,11.4,2.7,19
				c7.4-1,11.1-1.6,18.6-2.5c0.5,3.7,0.7,5.6,1.2,9.3c-9.7,1.3-19.4,2.6-29.2,4.1c-3.2-21.7-6.4-43.3-9.5-65
				c10-1.5,20.1-2.8,30.2-4.1c0.5,3.7,0.7,5.6,1.2,9.3c-7.6,1-11.4,1.5-19,2.6C1100.5-87.9,1101-84.3,1102.1-77z"/>
			<path class="st1" d="M1139-110.4c10.8-1.3,17,4.1,18.1,14.5c0.1,0.8,0.1,1.2,0.2,2c-4.2,0.5-6.2,0.7-10.4,1.2
				c-0.1-1.1-0.2-1.6-0.3-2.7c-0.5-4.7-2.8-6.2-6.3-5.8s-5.3,2.4-4.7,7.1c0.6,4.7,3.2,8,11.1,13c10,6.4,13.4,11.6,14.3,19
				c1.2,10.4-3.6,17-14.1,18.2s-16.7-4-18.1-14.4c-0.2-1.6-0.3-2.4-0.5-4c4.1-0.5,6.1-0.8,10.2-1.3c0.2,1.9,0.3,2.8,0.6,4.6
				c0.6,4.6,2.9,6.1,6.3,5.6c3.4-0.4,5.4-2.3,4.8-7s-3.1-8-10.9-13c-10-6.4-13.6-11.4-14.6-18.9
				C1123.4-102.5,1128.2-109.2,1139-110.4z"/>
			<path class="st1" d="M1158.6-111.9c11.4-1.2,22.9-2.3,34.3-3.4c0.3,3.7,0.5,5.6,0.9,9.3c-4.6,0.4-6.9,0.6-11.5,1.1
				c1.8,18.6,3.6,37.2,5.5,55.9c-4.3,0.4-6.4,0.6-10.7,1.1c-1.9-18.6-3.9-37.2-5.8-55.9c-4.6,0.5-6.9,0.7-11.5,1.2
				C1159.2-106.3,1159-108.2,1158.6-111.9z"/>
			<path class="st1" d="M1211.1-89.2c6-0.5,9-0.7,15-1.2c0.3,3.7,0.4,5.6,0.7,9.3c-6,0.4-9,0.7-15,1.2c0.6,7.6,1,11.5,1.6,19.1
				c7.5-0.6,11.2-0.9,18.6-1.5c0.3,3.7,0.4,5.6,0.7,9.3c-9.8,0.7-19.5,1.5-29.3,2.4c-1.9-21.7-3.9-43.5-5.8-65.2
				c10.1-0.9,20.2-1.7,30.3-2.4c0.3,3.7,0.4,5.6,0.7,9.3c-7.6,0.5-11.5,0.8-19.1,1.5C1210.2-100,1210.5-96.4,1211.1-89.2z"/>
			<path class="st1" d="M1250.6-119.6c7-0.4,10.6-0.6,17.6-1c11.1-0.6,16.8,4.9,17.3,15.3c0.5,11,1,22,1.5,33
				c0.5,10.4-4.6,16.3-15.3,16.9c-6.8,0.4-10.2,0.6-17,1C1253.3-76.1,1251.9-97.8,1250.6-119.6z M1262.2-110.9
				c0.9,15.5,1.7,31.1,2.6,46.6c2.4-0.1,3.7-0.2,6.1-0.3c3.4-0.2,5.4-2,5.2-6.6c-0.6-11.3-1.1-22.6-1.7-33.9c-0.2-4.7-2.4-6.2-6-6.1
				C1266-111.1,1264.7-111,1262.2-110.9z"/>
			<path class="st1" d="M1303.9-94.5c6-0.2,9-0.3,15.1-0.5c0.1,3.7,0.2,5.6,0.3,9.3c-6,0.2-9,0.2-15,0.5c0.3,7.6,0.4,11.5,0.7,19.1
				c7.5-0.3,11.2-0.4,18.7-0.6c0.1,3.7,0.1,5.6,0.2,9.3c-9.8,0.2-19.6,0.6-29.3,1c-0.9-21.7-1.8-43.5-2.7-65.2
				c10.1-0.4,20.2-0.7,30.3-0.9c0.1,3.7,0.1,5.6,0.2,9.3c-7.7,0.2-11.5,0.3-19.1,0.5C1303.5-105.4,1303.7-101.8,1303.9-94.5z"/>
			<path class="st1" d="M1380.4-57.9c-4.3,0-6.5,0-10.9,0c-0.7-4.7-1.1-7.1-1.9-11.8c-5.3,0-8,0-13.3,0.1c-0.7,4.7-1.1,7.1-1.8,11.8
				c-4,0-5.9,0.1-9.9,0.1c3.3-21.8,6.8-43.5,10.3-65.3c6.5,0,9.8-0.1,16.3-0.1C1373.2-101.4,1376.9-79.7,1380.4-57.9z M1355.7-78.6
				c4.2,0,6.3,0,10.5,0c-1.8-11-3.5-22-5.3-32.9c-0.1,0-0.1,0-0.2,0C1359-100.5,1357.4-89.6,1355.7-78.6z"/>
			<path class="st1" d="M1407.9-57.6c-0.6-1.7-0.9-2.7-0.8-8c0.1-4.1,0.1-6.1,0.2-10.2c0.1-6-2-8.3-7-8.4c-1.5,0-2.3,0-3.8-0.1
				c-0.1,10.6-0.2,15.9-0.3,26.5c-4.3-0.1-6.5-0.1-10.8-0.1c0.2-21.7,0.3-43.4,0.5-65.1c6.7,0.1,10.1,0.1,16.8,0.2
				c11.5,0.2,16.4,5.3,16.1,15.3c-0.1,2-0.1,3.1-0.1,5.1c-0.2,6.7-2.6,10.9-7.5,12.9c0,0.1,0,0.1,0,0.2c5.4,2.3,7.1,7.1,6.9,13.9
				c-0.1,4-0.1,6-0.2,10c-0.1,3.2,0,5.5,1,7.9C1414.5-57.5,1412.3-57.5,1407.9-57.6z M1396.9-113.6c-0.1,8-0.2,12-0.3,20
				c1.7,0,2.6,0,4.3,0.1c4.1,0.1,6.6-1.6,6.7-6.8c0-2.6,0.1-3.8,0.1-6.4c0.1-4.6-1.6-6.7-5.5-6.8
				C1400.1-113.5,1399.1-113.5,1396.9-113.6z"/>
			<path class="st1" d="M1447.2-56.4c-0.5-1.7-0.9-2.7-0.7-8c0.2-4.1,0.2-6.1,0.4-10.2c0.2-6-1.9-8.3-6.8-8.5
				c-1.5-0.1-2.3-0.1-3.8-0.1c-0.4,10.6-0.5,15.9-0.9,26.4c-4.3-0.1-6.5-0.2-10.8-0.3c0.6-21.7,1.2-43.3,1.8-65
				c6.7,0.2,10.1,0.3,16.8,0.6c11.5,0.4,16.3,5.6,15.8,15.6c-0.1,2-0.1,3.1-0.2,5.1c-0.3,6.7-2.8,10.8-7.7,12.7c0,0.1,0,0.1,0,0.2
				c5.4,2.4,6.9,7.3,6.6,14c-0.2,4-0.3,6-0.5,10c-0.1,3.2-0.1,5.5,0.8,7.9C1453.8-56.2,1451.6-56.3,1447.2-56.4z M1437.4-112.5
				c-0.3,8-0.4,12-0.7,19.9c1.7,0.1,2.6,0.1,4.3,0.2c4.1,0.2,6.6-1.4,6.8-6.6c0.1-2.6,0.2-3.8,0.3-6.4c0.2-4.6-1.4-6.8-5.4-6.9
				C1440.6-112.4,1439.5-112.5,1437.4-112.5z"/>
			<path class="st1" d="M1477.8-120c-0.9,16.7-1.8,33.3-2.7,50c-0.3,4.6,1.8,6.4,5.2,6.6c3.4,0.2,5.7-1.3,6-6c1-16.7,2-33.3,3-50
				c4.2,0.3,6.3,0.4,10.5,0.7c-1.1,16.4-2.2,32.9-3.3,49.3c-0.7,10.4-6.5,15.9-17.1,15.3c-10.5-0.6-15.7-6.8-15.2-17.2
				c0.8-16.5,1.6-32.9,2.4-49.4C1471.1-120.3,1473.4-120.2,1477.8-120z"/>
			<path class="st1" d="M1527-70.4c0.1,0,0.1,0,0.2,0c3.7-15.1,7.4-30.2,11.2-45.2c6.2,0.5,9.3,0.8,15.4,1.4
				c-2,21.5-4.1,43-6.1,64.5c-4.1-0.4-6.1-0.6-10.1-0.9c1.4-15.4,2.7-30.9,4.1-46.3c-0.1,0-0.1,0-0.2,0
				c-3.8,15.2-7.6,30.4-11.3,45.7c-4.1-0.3-6.1-0.5-10.1-0.8c-1.4-15.4-2.9-30.9-4.4-46.3c-0.1,0-0.1,0-0.2,0
				c-1.1,15.2-2.3,30.5-3.4,45.7c-3.7-0.3-5.6-0.4-9.4-0.7c1.5-21.6,3-43.1,4.5-64.7c6.2,0.4,9.3,0.7,15.4,1.2
				C1524.2-101.4,1525.7-85.9,1527-70.4z"/>
			<path class="st1" d="M1590.3-45.2c-4.3-0.5-6.5-0.8-10.8-1.2c-0.2-4.7-0.3-7.1-0.6-11.9c-5.3-0.6-7.9-0.9-13.2-1.4
				c-1.2,4.6-1.8,6.9-3.1,11.5c-3.9-0.4-5.9-0.6-9.8-1c5.7-21.1,11.6-42.2,17.5-63.3c6.5,0.7,9.7,1,16.2,1.8
				C1587.9-88.9,1589.1-67.1,1590.3-45.2z M1568-68.3c4.2,0.4,6.3,0.7,10.4,1.1c-0.5-11-1.1-22.1-1.6-33.1c-0.1,0-0.1,0-0.2,0
				C1573.7-89.7,1570.8-79,1568-68.3z"/>
			<path class="st1" d="M1629.4-64.5c-0.5,3.4-0.7,5.1-1.2,8.5c-1.3,9.5-6.8,14.6-16,14.2c-0.2,1.2-0.2,1.8-0.4,2.9
				c4.7,0.6,7,2,6.6,5.2c-0.7,4.9-4.8,5-10.5,4.3c-5.3-0.7-9.1-2.3-8.6-6.5c0-0.4,0.1-0.6,0.1-0.9c2.9,0.3,4.3,0.5,7.2,0.9
				c0,0.3-0.1,0.4-0.1,0.7c-0.2,1.4,0.8,2,1.9,2.1c1.6,0.2,2.5-0.3,2.7-1.9c0.2-1.7-0.9-2.5-3.2-2.8c-0.4,0-0.6-0.1-1-0.1
				c0.2-1.9,0.4-2.8,0.6-4.7c-8.7-1.9-12.6-8.2-11.5-17.6c1.3-11.1,2.7-22.3,4-33.4c1.2-10.3,7.6-15.5,18.4-14.1
				c10.9,1.4,15.7,8.1,14.3,18.3c-0.3,2.5-0.5,3.7-0.9,6.2c-4.1-0.6-6.2-0.8-10.3-1.4c0.4-2.7,0.5-4.1,0.9-6.9
				c0.6-4.6-1.4-6.6-4.9-7.1s-5.9,1-6.5,5.6c-1.4,11.5-2.9,23.1-4.3,34.6c-0.6,4.6,1.4,6.5,4.8,6.9s5.8-0.9,6.4-5.5
				c0.5-3.7,0.7-5.5,1.2-9.2C1623.2-65.4,1625.3-65.1,1629.4-64.5z"/>
			<path class="st1" d="M1667.1-34.6c-4.3-0.7-6.4-1-10.7-1.7c0-4.7,0-7.1-0.1-11.9c-5.3-0.8-7.9-1.2-13.2-2
				c-1.4,4.5-2.1,6.8-3.5,11.3c-3.9-0.6-5.9-0.8-9.8-1.4c6.6-20.8,13.3-41.6,20.1-62.4c6.5,0.9,9.7,1.4,16.1,2.4
				C1666.5-78.3,1666.8-56.4,1667.1-34.6z M1668.2-113c1.9,1.7,2.9,2.5,4.8,4.2c-2.4,3.8-5.5,5.5-9.5,4.9c-1.6-0.2-3-0.7-5.1-2.1
				c-1.5-1-2.5-1.4-3.6-1.6c-2.2-0.3-3.4,0.2-4.7,2c-1.9-1.7-2.9-2.5-4.8-4.2c2.3-3.9,5.4-5.6,9.5-5c1.8,0.3,3.3,0.9,5.2,2.1
				c1.5,1,2.5,1.4,3.6,1.6C1665.7-110.7,1666.9-111.3,1668.2-113z M1645.7-58.6c4.2,0.6,6.2,0.9,10.4,1.5c-0.1-11-0.2-22-0.3-33.1
				c-0.1,0-0.1,0-0.2,0C1652.3-79.6,1649-69.1,1645.7-58.6z"/>
			<path class="st1" d="M1678.9-82.4c1.6-10.2,8.5-15.1,19.3-13.2c10.8,1.9,15.6,8.7,13.8,18.9c-2,11-3.9,22-5.9,33
				c-1.8,10.2-8.6,14.9-19,13.1c-10.4-1.8-15.2-8.5-13.6-18.7C1675.3-60.3,1677.1-71.3,1678.9-82.4z M1684.2-46.9
				c-0.8,4.5,1.1,6.6,4.5,7.2c3.4,0.6,5.8-0.8,6.6-5.3c2-11.4,4-22.9,6-34.3c0.8-4.5-1.1-6.6-4.6-7.2c-3.5-0.6-6,0.8-6.7,5.3
				C1688-69.8,1686.1-58.3,1684.2-46.9z"/>
			<path class="st1" d="M1214.1-39.4c6.7-0.6,10.1-0.8,16.9-1.3c10.7-0.8,16.3,4.6,17,15c0.7,11,1.5,22,2.2,33
				c0.7,10.4-4,16.4-14.3,17.2c-6.5,0.5-9.8,0.8-16.3,1.3C1217.7,4.1,1215.9-17.7,1214.1-39.4z M1225.5-31
				c1.2,15.5,2.4,31.1,3.7,46.6c2.3-0.2,3.5-0.3,5.8-0.5c3.3-0.3,5.1-2.1,4.8-6.7c-0.8-11.3-1.6-22.6-2.5-33.9
				c-0.3-4.7-2.5-6.2-5.9-5.9C1229.1-31.2,1227.9-31.1,1225.5-31z"/>
			<path class="st1" d="M1253.8-26.6c-0.7-10.4,4.7-16.8,15.2-17.4s16.5,5.1,17,15.6c0.5,11.3,1,22.6,1.6,33.9
				c0.5,10.4-4.8,16.6-14.9,17.2s-16-5-16.7-15.4C1255.2-4,1254.5-15.3,1253.8-26.6z M1266.4,7.3c0.3,4.7,2.4,6.3,5.7,6.1
				c3.3-0.2,5.3-2.1,5-6.7c-0.6-11.7-1.2-23.5-1.8-35.2c-0.2-4.7-2.5-6.3-5.8-6.1c-3.4,0.2-5.4,2.1-5.1,6.7
				C1265-16.2,1265.7-4.4,1266.4,7.3z"/>
			<path class="st1" d="M1342.8,19.4c-4.2,0.1-6.2,0.1-10.4,0.2c-0.8-4.7-1.2-7.1-2.1-11.8c-5.1,0.1-7.6,0.2-12.7,0.4
				c-0.6,4.8-0.9,7.1-1.4,11.9c-3.8,0.1-5.7,0.2-9.5,0.3c2.7-21.9,5.6-43.7,8.5-65.6c6.3-0.2,9.4-0.3,15.6-0.4
				C1335-24,1338.9-2.3,1342.8,19.4z M1318.7-0.7c4-0.1,6-0.2,10.1-0.3c-1.9-11-3.9-21.9-5.8-32.8c-0.1,0-0.1,0-0.2,0
				C1321.4-22.8,1320-11.8,1318.7-0.7z"/>
			<path class="st1" d="M1369.2,19.1c-0.6-1.7-0.9-2.7-1-8c0-4.1,0-6.1,0-10.2c0-6-2.1-8.3-6.9-8.2c-1.4,0-2.2,0-3.6,0
				c0.1,10.6,0.1,15.9,0.2,26.5c-4.1,0-6.2,0.1-10.3,0.1c-0.3-21.7-0.6-43.4-0.9-65.2c6.5-0.1,9.7-0.1,16.1-0.1
				c11.1-0.1,15.8,4.9,15.8,15c0,2,0,3.1,0,5.1c0,6.7-2.2,11-6.9,13.1c0,0.1,0,0.1,0,0.2c5.3,2.1,6.9,7,6.9,13.8c0,4,0,6,0,10
				c0,3.2,0.1,5.5,1.1,7.9C1375.5,19,1373.4,19,1369.2,19.1z M1357.5-36.7c0.1,8,0.1,12,0.2,20c1.6,0,2.5,0,4.1,0
				c3.9,0,6.3-1.7,6.3-6.9c0-2.6,0-3.9,0-6.4c0-4.7-1.7-6.7-5.4-6.7C1360.6-36.7,1359.5-36.7,1357.5-36.7z"/>
			<path class="st1" d="M1407.4,0.5c0.1,0,0.1,0,0.2,0c2.6-15.3,5.3-30.7,8.1-46c5.9,0.1,8.9,0.2,14.9,0.4c-0.7,21.7-1.4,43.3-2,65
				c-3.9-0.1-5.9-0.2-9.8-0.3c0.4-15.5,0.8-31.1,1.2-46.6c-0.1,0-0.1,0-0.2,0c-2.8,15.5-5.5,31-8.1,46.5c-3.9-0.1-5.9-0.1-9.8-0.2
				c-2.3-15.4-4.6-30.7-6.9-46.1c-0.1,0-0.1,0-0.2,0c-0.2,15.3-0.4,30.7-0.6,46c-3.6,0-5.4-0.1-9-0.1c0.2-21.7,0.3-43.4,0.5-65.1
				c5.9,0,8.9,0.1,14.9,0.2C1402.9-30.4,1405.2-15,1407.4,0.5z"/>
			<path class="st1" d="M1469.4,21.5c-4.2-0.2-6.2-0.3-10.4-0.5c-0.5-4.7-0.7-7.1-1.2-11.9c-5.1-0.2-7.6-0.3-12.7-0.5
				c-0.9,4.7-1.4,7-2.3,11.7c-3.8-0.1-5.7-0.2-9.5-0.3c4.3-21.5,8.6-43.1,13.1-64.6c6.3,0.2,9.4,0.4,15.6,0.7
				C1464.6-22.1,1467-0.3,1469.4,21.5z M1446.7-0.2c4,0.2,6,0.2,10,0.4c-1.1-11-2.3-22-3.5-33c-0.1,0-0.1,0-0.2,0
				C1450.9-21.9,1448.8-11,1446.7-0.2z M1466.3-57.4c-4.2,3.9-6.3,5.9-10.4,9.8c-2.9-0.1-4.3-0.2-7.2-0.3c2.8-4,4.2-6,7.1-10
				C1460-57.7,1462.1-57.6,1466.3-57.4z"/>
			<path class="st1" d="M1495.7,23c-0.4-1.7-0.8-2.7-0.4-8c0.3-4.1,0.4-6.1,0.7-10.2c0.4-6-1.5-8.4-6.3-8.7
				c-1.4-0.1-2.2-0.1-3.6-0.2c-0.7,10.5-1,15.8-1.6,26.4c-4.1-0.2-6.2-0.4-10.3-0.6c1.2-21.6,2.4-43.2,3.7-64.8
				c6.4,0.4,9.7,0.6,16.1,1c11.1,0.7,15.4,6,14.7,16c-0.2,2-0.2,3-0.4,5.1c-0.5,6.7-3,10.7-7.8,12.5c0,0.1,0,0.1,0,0.2
				c5.1,2.5,6.4,7.4,5.9,14.2c-0.3,4-0.4,6-0.7,10c-0.2,3.1-0.3,5.5,0.5,7.9C1502,23.5,1499.9,23.3,1495.7,23z M1487.9-33.2
				c-0.5,8-0.7,11.9-1.2,19.9c1.6,0.1,2.5,0.2,4.1,0.3c3.9,0.2,6.4-1.3,6.8-6.4c0.2-2.6,0.3-3.8,0.4-6.4c0.3-4.6-1.2-6.8-5-7
				C1491-33,1490-33.1,1487.9-33.2z"/>
			<path class="st1" d="M1516.8-40.4c4.3,0.3,6.4,0.5,10.7,0.9c-1.8,21.5-3.6,43.1-5.4,64.6c-4.1-0.3-6.2-0.5-10.3-0.8
				C1513.5,2.6,1515.2-18.9,1516.8-40.4z"/>
			<path class="st1" d="M1533-23.5c0.9-10.3,7.1-15.8,17.6-14.7c10.5,1,15.5,7.5,14.5,17.8c-1.2,11.2-2.3,22.3-3.5,33.5
				c-1.1,10.3-7.2,15.6-17.3,14.7c-10.1-0.9-15.1-7.3-14.2-17.6C1531.1-1.1,1532-12.3,1533-23.5z M1540.4,11.6
				c-0.4,4.6,1.5,6.5,4.8,6.9c3.3,0.3,5.5-1.2,6-5.8c1.1-11.6,2.3-23.2,3.4-34.8c0.5-4.6-1.5-6.6-4.9-6.9s-5.7,1.2-6.1,5.8
				C1542.6-11.6,1541.5,0,1540.4,11.6z"/>
		</g>
	</g>
</g>
<g>
	<g>
		<g>
			<path class="st0" d="M167.3,318.3c11.6-2.2,23.3-4.2,34.9-6.1c0.6,4.1,0.9,6.2,1.5,10.3c-4.7,0.8-7.1,1.2-11.8,2
				c3.1,20.5,6.2,41,9.3,61.6c-4.4,0.8-6.6,1.2-10.9,1.9c-3.2-20.5-6.4-41-9.6-61.5c-4.7,0.8-7.1,1.3-11.7,2.1
				C168.3,324.4,168,322.4,167.3,318.3z"/>
			<path class="st0" d="M222.7,339.8c6.1-1,9.2-1.4,15.3-2.4c0.5,4.1,0.8,6.2,1.3,10.3c-6.1,0.9-9.2,1.4-15.3,2.3
				c1.2,8.4,1.7,12.6,2.9,21.1c7.6-1.2,11.4-1.8,19-2.9c0.5,4.1,0.8,6.2,1.3,10.3c-10,1.5-19.9,3-29.8,4.7
				c-3.4-24-6.9-47.9-10.3-71.9c10.3-1.7,20.6-3.3,30.9-4.8c0.5,4.1,0.8,6.2,1.3,10.3c-7.8,1.1-11.7,1.7-19.5,3
				C221,327.8,221.6,331.8,222.7,339.8z"/>
			<path class="st0" d="M260.2,302.6c10.1-1.4,18.1,5.8,18.7,16c0.1,0.9,0.1,1.4,0.2,2.3c-4.3,0.5-6.4,0.8-10.6,1.4
				c-0.1-1.2-0.2-1.8-0.3-3c-0.6-5.1-2.9-6.8-6.5-6.4c-3.6,0.5-5.4,2.7-4.8,7.9c0.6,5.2,3.4,8.8,11.4,14.3
				c10.3,7.1,13.7,12.9,14.8,21c1.3,9.7-4.1,19.1-14.4,20.3c-10.6,1.2-17.2-4.3-18.6-15.8c-0.2-1.8-0.3-2.7-0.6-4.4
				c4.2-0.6,6.3-0.9,10.5-1.5c0.2,2.1,0.4,3.1,0.6,5.1c0.6,5.1,3,6.7,6.6,6.2s5.5-2.6,4.9-7.8c-0.6-5.2-3.3-8.9-11.3-14.4
				c-10.3-7-13.9-12.8-15.1-20.8C244.3,313.2,250.1,304,260.2,302.6z"/>
			<path class="st0" d="M280.4,300.9c11.7-1.4,23.4-2.8,35.1-4c0.4,4.1,0.6,6.2,0.9,10.3c-4.7,0.5-7.1,0.7-11.8,1.3
				c2,20.6,4,41.2,6,61.8c-4.4,0.5-6.6,0.7-11,1.3c-2.1-20.6-4.2-41.2-6.4-61.8c-4.7,0.6-7.1,0.8-11.8,1.4
				C281,307,280.8,305,280.4,300.9z"/>
			<path class="st0" d="M334.4,325.7c6.2-0.6,9.2-0.9,15.4-1.4c0.3,4.1,0.5,6.2,0.8,10.3c-6.1,0.5-9.2,0.8-15.3,1.4
				c0.7,8.5,1.1,12.7,1.8,21.1c7.6-0.7,11.5-1.1,19.1-1.7c0.3,4.1,0.5,6.2,0.8,10.3c-10,0.9-20,1.8-30,2.8
				c-2.2-24-4.3-48.1-6.5-72.1c10.3-1.1,20.7-2,31-2.9c0.3,4.1,0.5,6.2,0.8,10.3c-7.8,0.7-11.7,1-19.6,1.8
				C333.4,313.6,333.7,317.6,334.4,325.7z"/>
			<path class="st0" d="M374.6,291.7c7.2-0.5,10.8-0.8,18-1.2c10.5-1.2,17.9,6.6,17.9,16.9c0.6,12.2,1.2,24.3,1.8,36.5
				c0.6,11.6-4.6,18.1-15.6,18.8c-7,0.4-10.5,0.7-17.4,1.2C377.7,339.8,376.1,315.7,374.6,291.7z M386.6,301.2c1,17.2,2,34.4,3,51.6
				c2.5-0.2,3.7-0.3,6.2-0.4c3.5-0.2,5.5-2.2,5.3-7.4c-0.7-12.5-1.3-25-2-37.5c-0.3-5.2-2.5-6.9-6.1-6.7
				C390.4,301,389.2,301,386.6,301.2z"/>
			<path class="st0" d="M429.5,319c6.2-0.3,9.3-0.4,15.4-0.6c0.1,4.1,0.2,6.2,0.3,10.3c-6.1,0.2-9.2,0.3-15.4,0.6
				c0.3,8.5,0.5,12.7,0.8,21.1c7.7-0.3,11.5-0.5,19.1-0.8c0.1,4.1,0.2,6.2,0.3,10.3c-10,0.3-20,0.8-30.1,1.3
				c-1.1-24.1-2.1-48.1-3.2-72.2c10.4-0.5,20.7-0.9,31.1-1.3c0.1,4.1,0.2,6.2,0.3,10.3c-7.8,0.3-11.8,0.4-19.6,0.7
				C429,307,429.2,311,429.5,319z"/>
			<path class="st0" d="M508.2,359c-4.5,0-6.7,0-11.1,0.1c-0.8-5.2-1.2-7.8-2-13.1c-5.4,0-8.2,0.1-13.6,0.2c-0.7,5.2-1,7.9-1.7,13.1
				c-4.1,0.1-6.1,0.1-10.1,0.2c3.3-24.1,6.6-48.3,10.1-72.4c6.7-0.1,10-0.1,16.7-0.2C500.5,310.9,504.4,334.9,508.2,359z
				 M482.7,336.3c4.3-0.1,6.4-0.1,10.7-0.1c-1.9-12.1-3.8-24.3-5.7-36.4c-0.1,0-0.1,0-0.2,0C485.9,312,484.3,324.1,482.7,336.3z"/>
			<path class="st0" d="M536.4,359.1c-0.6-1.9-1-3-0.9-8.9c0-4.5,0.1-6.8,0.1-11.3c0.1-6.7-2.1-9.2-7.2-9.2c-1.5,0-2.3,0-3.9,0
				c-0.1,9.8-0.1,19.6-0.2,29.3c-4.4,0-6.6,0-11,0c0-24,0-48.1,0-72.1c6.9,0,10.3,0,17.2,0.1c11.8,0.1,16.8,5.7,16.6,16.8
				c0,2.3-0.1,3.4-0.1,5.7c-0.1,7.4-2.5,12.1-7.6,14.4c0,0.1,0,0.1,0,0.2c5.6,2.5,7.3,7.8,7.2,15.4c-0.1,4.4-0.1,6.7-0.2,11.1
				c-0.1,3.5,0,6.1,1.1,8.8C543.1,359.2,540.9,359.2,536.4,359.1z M524.7,297.3c0,8.9-0.1,13.3-0.1,22.1c1.8,0,2.6,0,4.4,0
				c4.2,0,6.8-1.8,6.8-7.5c0-2.8,0-4.3,0.1-7.1c0.1-5.1-1.7-7.4-5.7-7.5C528,297.3,526.9,297.3,524.7,297.3z"/>
			<path class="st0" d="M576.7,360.1c-0.5-1.9-0.9-3-0.7-8.9c0.1-4.5,0.2-6.8,0.3-11.3c0.2-6.7-2-9.2-7-9.4c-1.5,0-2.3-0.1-3.9-0.1
				c-0.2,9.8-0.5,19.5-0.7,29.3c-4.4-0.1-6.6-0.2-11-0.3c0.5-24,0.9-48,1.4-72c6.9,0.2,10.3,0.3,17.2,0.5
				c11.8,0.4,16.7,6.1,16.3,17.2c-0.1,2.3-0.1,3.4-0.2,5.6c-0.3,7.4-2.8,12-7.9,14.2c0,0.1,0,0.1,0,0.2c5.5,2.6,7.2,8,6.9,15.5
				c-0.2,4.4-0.2,6.7-0.4,11.1c-0.1,3.5-0.1,6.1,0.9,8.8C583.4,360.4,581.2,360.3,576.7,360.1z M566.2,298.1
				c-0.2,8.8-0.3,13.3-0.5,22.1c1.8,0.1,2.6,0.1,4.4,0.1c4.2,0.1,6.8-1.6,7-7.4c0.1-2.8,0.1-4.3,0.2-7.1c0.2-5.1-1.5-7.5-5.6-7.6
				C569.5,298.2,568.4,298.1,566.2,298.1z"/>
			<path class="st0" d="M607.6,289.5c-0.8,18.5-1.6,36.9-2.4,55.4c-0.2,5.1,1.9,7.1,5.4,7.3c3.5,0.2,5.8-1.5,6.1-6.6
				c0.9-18.5,1.8-36.9,2.7-55.4c4.3,0.3,6.5,0.4,10.8,0.7c-1,18.2-2,36.4-3,54.6c-0.6,11.5-6.6,17.7-17.4,17.1
				c-10.8-0.6-16.2-7.4-15.7-18.9c0.7-18.2,1.4-36.5,2.1-54.7C600.8,289.2,603.1,289.3,607.6,289.5z"/>
			<path class="st0" d="M658.5,344.1c0.1,0,0.1,0,0.2,0c3.7-16.7,7.4-33.5,11.2-50.2c6.3,0.6,9.5,0.8,15.8,1.4
				c-1.9,23.8-3.8,47.6-5.8,71.5c-4.2-0.4-6.2-0.6-10.4-0.9c1.3-17.1,2.6-34.2,3.9-51.3c-0.1,0-0.1,0-0.2,0
				c-3.8,16.9-7.6,33.8-11.3,50.6c-4.2-0.3-6.2-0.5-10.4-0.8c-1.6-17.1-3.2-34.2-4.8-51.3c-0.1,0-0.1,0-0.2,0
				c-1.1,16.9-2.1,33.8-3.2,50.7c-3.8-0.3-5.8-0.4-9.6-0.7c1.4-23.9,2.8-47.8,4.2-71.7c6.3,0.4,9.5,0.7,15.8,1.2
				C655.4,309.7,656.9,326.9,658.5,344.1z"/>
			<path class="st0" d="M723.5,371.4c-4.4-0.5-6.6-0.8-11.1-1.3c-0.3-5.3-0.4-7.9-0.7-13.1c-5.4-0.6-8.1-0.9-13.6-1.5
				c-1.2,5.1-1.8,7.6-3,12.8c-4-0.4-6.1-0.6-10.1-1c5.7-23.4,11.6-46.9,17.5-70.2c6.7,0.7,10,1.1,16.6,1.8
				C720.7,323,722.2,347.2,723.5,371.4z M700.5,346c4.3,0.4,6.4,0.7,10.7,1.2c-0.6-12.2-1.3-24.4-1.9-36.6c-0.1,0-0.1,0-0.2,0
				C706.2,322.3,703.3,334.2,700.5,346z"/>
			<path class="st0" d="M763.5,349.7c-0.5,3.8-0.7,5.7-1.1,9.4c-1.3,10.5-6.9,16.2-16.3,15.8c-0.1,1.3-0.2,1.9-0.4,3.2
				c4.9,0.6,7.2,2.2,6.8,5.7c-0.6,5.5-4.9,5.6-10.7,4.9c-5.4-0.7-9.4-2.4-8.9-7.1c0-0.4,0.1-0.6,0.1-1c2.9,0.4,4.4,0.5,7.4,0.9
				c0,0.3-0.1,0.5-0.1,0.8c-0.2,1.5,0.9,2.2,2,2.3c1.7,0.2,2.6-0.4,2.8-2.1c0.2-1.9-0.9-2.8-3.3-3.1c-0.4-0.1-0.6-0.1-1-0.1
				c0.2-2.1,0.3-3.1,0.6-5.2c-9-2.1-13-8.9-11.9-19.4c1.3-12.3,2.6-24.7,3.8-37c0.5-10.2,8.8-17.1,18.8-15.7
				c10,1.3,16.5,10,14.8,20.1c-0.3,2.8-0.5,4.1-0.8,6.9c-4.2-0.6-6.4-0.9-10.6-1.5c0.3-3,0.5-4.6,0.9-7.6c0.6-5.1-1.5-7.3-5-7.8
				c-3.6-0.5-6.1,1.2-6.6,6.2c-1.4,12.8-2.8,25.6-4.2,38.4c-0.6,5.1,1.5,7.2,5,7.6c3.5,0.5,5.9-1.1,6.5-6.1
				c0.5-4.1,0.7-6.1,1.2-10.1C757.2,348.8,759.3,349.1,763.5,349.7z"/>
			<path class="st0" d="M802.4,382.5c-4.4-0.7-6.6-1.1-11-1.8c-0.1-5.3-0.1-7.9-0.2-13.1c-5.4-0.8-8.1-1.3-13.5-2.1
				c-1.4,5-2.1,7.5-3.5,12.6c-4-0.6-6-0.9-10.1-1.4c6.6-23.1,13.3-46.2,20.2-69.2c6.6,1,9.9,1.5,16.6,2.6
				C801.5,334.2,802,358.3,802.4,382.5z M803,295.7c2,1.8,3,2.8,5,4.6c-2.4,4.3-5.6,6.1-9.7,5.5c-1.6-0.3-3.1-0.8-5.3-2.3
				c-1.5-1-2.5-1.5-3.7-1.7c-2.3-0.3-3.5,0.3-4.8,2.3c-2-1.8-3-2.7-5-4.6c2.3-4.3,5.5-6.2,9.7-5.6c1.9,0.3,3.4,0.9,5.3,2.3
				c1.6,1.1,2.5,1.5,3.7,1.7C800.4,298.3,801.7,297.6,803,295.7z M780.3,356.1c4.3,0.6,6.4,1,10.7,1.6c-0.1-12.2-0.3-24.4-0.5-36.6
				c-0.1,0-0.1,0-0.2,0C786.9,332.8,783.6,344.5,780.3,356.1z"/>
			<path class="st0" d="M814.2,329.5c1-10.3,9.8-16.6,19.7-14.8c9.9,1.8,16.4,10.6,14.3,20.8c-1.9,12.2-3.9,24.4-5.8,36.6
				c-1.8,11.3-8.8,16.3-19.4,14.7c-10.1-1.6-15.9-10.6-14-20.6C810.7,354,812.4,341.7,814.2,329.5z M819.8,368.8
				c-0.7,5,1.2,7.3,4.7,7.9c3.5,0.6,6-0.9,6.8-5.9c2-12.7,3.9-25.4,5.9-38c0.8-5-1.2-7.3-4.8-8c-3.6-0.6-6.1,0.9-6.9,5.9
				C823.6,343.4,821.7,356.1,819.8,368.8z"/>
			<path class="st0" d="M330.1,381.5c6.9-0.7,10.4-1,17.3-1.7c10.9-1,16.8,4.9,17.6,16.4c0.9,12.2,1.8,24.3,2.6,36.5
				c0.8,11.5-3.9,18.3-14.4,19.3c-6.7,0.6-10,1-16.7,1.7C334.4,429.6,332.2,405.5,330.1,381.5z M341.9,390.7
				c1.4,17.2,2.9,34.4,4.3,51.5c2.4-0.2,3.6-0.4,6-0.6c3.4-0.3,5.3-2.4,4.9-7.5c-1-12.5-1.9-25-2.9-37.5c-0.4-5.2-2.6-6.8-6.1-6.5
				C345.6,390.4,344.3,390.5,341.9,390.7z"/>
			<path class="st0" d="M371,395.2c-1.2-10,5-18.9,15.4-19.4c10.6-0.5,17,5.5,17.6,17.1c0.7,12.5,1.3,25,2,37.5
				c0.6,11.6-4.7,18.5-15.1,19.2c-10.4,0.8-16.5-5.4-17.3-16.9C372.7,420.2,371.8,407.7,371,395.2z M384.3,432.6
				c0.3,5.2,2.6,7,6,6.7c3.4-0.2,5.4-2.4,5.1-7.5c-0.8-13-1.5-26-2.3-39c-0.3-5.2-2.6-7-6.1-6.7c-3.5,0.2-5.5,2.4-5.2,7.5
				C382.6,406.6,383.4,419.6,384.3,432.6z"/>
			<path class="st0" d="M462.7,445.1c-4.3,0.1-6.4,0.2-10.7,0.4c-0.9-5.2-1.3-7.8-2.2-13c-5.2,0.2-7.8,0.3-13.1,0.5
				c-0.5,5.3-0.8,7.9-1.3,13.2c-3.9,0.2-5.8,0.3-9.7,0.5c2.6-24.3,5.2-48.5,8-72.7c6.4-0.3,9.6-0.4,16-0.6
				C454.2,397.2,458.5,421.1,462.7,445.1z M437.8,423.1c4.1-0.2,6.2-0.3,10.3-0.4c-2.1-12.1-4.2-24.2-6.3-36.3c-0.1,0-0.1,0-0.2,0
				C440.3,398.6,439,410.9,437.8,423.1z"/>
			<path class="st0" d="M489.8,444.4c-0.6-1.8-1-3-1.1-8.8c-0.1-4.5-0.1-6.8-0.1-11.3c-0.1-6.7-2.3-9.1-7.1-9c-1.5,0-2.2,0-3.7,0.1
				c0.2,9.8,0.3,19.6,0.5,29.4c-4.2,0.1-6.3,0.1-10.6,0.3c-0.5-24.1-1.1-48.1-1.6-72.2c6.6-0.2,9.9-0.2,16.5-0.4
				c11.4-0.2,16.3,5.3,16.4,16.4c0,2.3,0,3.4,0,5.7c0.1,7.4-2.2,12.2-6.9,14.6c0,0.1,0,0.1,0,0.2c5.4,2.3,7.2,7.6,7.2,15.2
				c0,4.5,0,6.7,0.1,11.1c0,3.5,0.1,6.1,1.2,8.7C496.2,444.3,494.1,444.4,489.8,444.4z M477.2,382.8c0.2,8.9,0.2,13.3,0.4,22.2
				c1.7,0,2.5-0.1,4.2-0.1c4-0.1,6.5-2,6.4-7.7c0-2.8-0.1-4.3-0.1-7.1c-0.1-5.2-1.8-7.4-5.6-7.3
				C480.3,382.8,479.3,382.8,477.2,382.8z"/>
			<path class="st0" d="M528.8,423.4c0.1,0,0.1,0,0.2,0c2.5-17,5.1-34.1,7.8-51.1c6.1,0.1,9.1,0.1,15.2,0.3c-0.5,24-0.9,48-1.4,72
				c-4-0.1-6-0.1-10-0.2c0.2-17.2,0.5-34.4,0.7-51.6c-0.1,0-0.1,0-0.2,0c-2.7,17.2-5.3,34.4-7.8,51.6c-4,0-6-0.1-10-0.1
				c-2.5-17-5-34-7.6-51c-0.1,0-0.1,0-0.2,0c0,17,0,34-0.1,51c-3.7,0-5.5,0-9.2,0c-0.1-24-0.2-48.1-0.2-72.1c6.1,0,9.1,0,15.2,0
				C523.8,389.2,526.3,406.3,528.8,423.4z"/>
			<path class="st0" d="M592.6,445.9c-4.3-0.2-6.4-0.3-10.7-0.4c-0.6-5.2-0.8-7.9-1.4-13.1c-5.2-0.2-7.8-0.3-13.1-0.4
				c-0.9,5.2-1.3,7.8-2.2,13c-3.9-0.1-5.8-0.2-9.7-0.2c4.1-23.9,8.4-47.8,12.7-71.7c6.4,0.2,9.6,0.3,16,0.6
				C587.1,397.7,589.9,421.8,592.6,445.9z M588.5,358.5c-4.3,4.4-6.4,6.6-10.6,11c-3-0.1-4.4-0.2-7.4-0.3c2.8-4.5,4.3-6.7,7.1-11.2
				C582,358.3,584.2,358.4,588.5,358.5z M569.1,422.2c4.1,0.1,6.2,0.2,10.3,0.3c-1.3-12.2-2.6-24.4-4-36.5c-0.1,0-0.1,0-0.2,0
				C573.1,398.1,571.1,410.1,569.1,422.2z"/>
			<path class="st0" d="M619.6,447.3c-0.5-1.9-0.8-3-0.5-8.9c0.2-4.5,0.4-6.8,0.6-11.3c0.4-6.7-1.7-9.3-6.5-9.5
				c-1.5-0.1-2.2-0.1-3.7-0.2c-0.5,9.7-0.9,19.5-1.4,29.2c-4.2-0.2-6.3-0.3-10.6-0.5c1-23.9,2-47.9,3-71.8c6.6,0.3,9.9,0.5,16.5,0.9
				c11.3,0.7,15.9,6.4,15.3,17.5c-0.1,2.3-0.2,3.4-0.3,5.6c-0.4,7.4-3,11.9-7.9,14c0,0.1,0,0.1,0,0.2c5.2,2.7,6.7,8.1,6.3,15.6
				c-0.3,4.4-0.4,6.6-0.6,11.1c-0.2,3.5-0.3,6,0.6,8.8C626,447.7,623.9,447.5,619.6,447.3z M611,385.1c-0.4,8.8-0.6,13.2-1.1,22
				c1.7,0.1,2.5,0.1,4.2,0.2c4,0.2,6.6-1.5,6.9-7.2c0.1-2.8,0.2-4.2,0.4-7.1c0.3-5.1-1.3-7.5-5.2-7.7
				C614.1,385.3,613.1,385.2,611,385.1z"/>
			<path class="st0" d="M640.5,376.7c4.4,0.3,6.6,0.5,10.9,0.8c-1.6,23.9-3.2,47.7-4.8,71.6c-4.2-0.3-6.3-0.5-10.6-0.8
				C637.6,424.5,639,400.6,640.5,376.7z"/>
			<path class="st0" d="M657.3,395.3c0.8-11.4,7.3-17.3,17.9-16.6c10.2,0.7,16.4,9.6,15,19.5c-1.1,12.4-2.1,24.7-3.2,37.1
				c-1,11.4-7.2,17.4-17.6,16.5c-10.4-0.9-15.6-7.9-14.7-19.3C655.6,420.1,656.4,407.7,657.3,395.3z M665.3,434.1
				c-0.4,5.1,1.6,7.2,5,7.5s5.7-1.4,6.1-6.5c1-12.9,2.1-25.7,3.1-38.6c0.4-5.1-1.6-7.2-5.1-7.6c-3.5-0.3-5.8,1.4-6.2,6.5
				C667.2,408.3,666.3,421.2,665.3,434.1z"/>
		</g>
		<g>
			<path class="st1" d="M172.3,314c11.6-2.1,23.3-4.1,35-6c0.6,4.1,0.9,6.2,1.5,10.3c-4.7,0.8-7.1,1.2-11.8,2
				c3,20.5,6.1,41,9.1,61.6c-4.4,0.8-6.6,1.1-10.9,1.9c-3.2-20.5-6.3-41-9.5-61.5c-4.7,0.8-7.1,1.3-11.8,2.1
				C173.3,320.1,173,318.1,172.3,314z"/>
			<path class="st1" d="M227.7,335.6c6.1-1,9.2-1.4,15.4-2.3c0.5,4.1,0.8,6.2,1.3,10.3c-6.1,0.9-9.2,1.4-15.3,2.3
				c1.1,8.4,1.7,12.6,2.8,21.1c7.6-1.2,11.4-1.8,19-2.9c0.5,4.1,0.8,6.2,1.3,10.3c-10,1.4-20,3-29.9,4.6c-3.4-24-6.7-47.9-10.1-71.9
				c10.3-1.7,20.6-3.2,30.9-4.7c0.5,4.1,0.8,6.2,1.3,10.3c-7.8,1.1-11.7,1.7-19.5,2.9C226.1,323.6,226.6,327.6,227.7,335.6z"/>
			<path class="st1" d="M265.4,298.5c10.1-1.3,18.2,5.9,18.7,16c0.1,0.9,0.1,1.4,0.2,2.3c-4.3,0.5-6.4,0.8-10.7,1.3
				c-0.1-1.2-0.2-1.8-0.3-3c-0.6-5.1-2.9-6.8-6.5-6.4c-3.6,0.5-5.4,2.7-4.8,7.9c0.6,5.2,3.4,8.8,11.4,14.4c10.3,7.1,13.7,13,14.7,21
				c1.3,9.7-4.2,19.1-14.4,20.2c-10.6,1.2-17.2-4.3-18.6-15.9c-0.2-1.8-0.3-2.7-0.5-4.4c4.2-0.6,6.3-0.9,10.5-1.5
				c0.2,2.1,0.4,3.1,0.6,5.1c0.6,5.1,3,6.7,6.5,6.2s5.5-2.6,4.9-7.8c-0.6-5.3-3.3-8.9-11.3-14.4c-10.3-7.1-13.9-12.8-15-20.8
				C249.4,309.1,255.3,299.9,265.4,298.5z"/>
			<path class="st1" d="M285.6,296.9c11.7-1.4,23.5-2.7,35.2-3.9c0.4,4.1,0.6,6.2,0.9,10.3c-4.7,0.5-7.1,0.7-11.9,1.2
				c2,20.6,3.9,41.2,5.9,61.8c-4.4,0.5-6.6,0.7-11,1.2c-2.1-20.6-4.1-41.2-6.2-61.8c-4.7,0.5-7.1,0.8-11.8,1.4
				C286.2,303,286,301,285.6,296.9z"/>
			<path class="st1" d="M339.6,321.8c6.2-0.6,9.3-0.8,15.4-1.4c0.3,4.1,0.5,6.2,0.8,10.3c-6.1,0.5-9.2,0.8-15.4,1.4
				c0.7,8.5,1,12.7,1.7,21.1c7.6-0.7,11.5-1.1,19.1-1.7c0.3,4.1,0.4,6.2,0.7,10.3c-10,0.8-20,1.7-30,2.8
				c-2.1-24.1-4.2-48.1-6.3-72.2c10.4-1,20.7-2,31.1-2.8c0.3,4.1,0.4,6.2,0.7,10.3c-7.8,0.6-11.8,1-19.6,1.7
				C338.6,309.7,339,313.8,339.6,321.8z"/>
			<path class="st1" d="M380,288c7.2-0.5,10.8-0.7,18.1-1.2c10.5-1.2,18,6.6,17.8,16.9c0.6,12.2,1.1,24.3,1.7,36.5
				c0.5,11.6-4.6,18.1-15.6,18.8c-7,0.4-10.5,0.7-17.5,1.2C382.9,336.1,381.4,312,380,288z M392,297.5c1,17.2,1.9,34.4,2.9,51.6
				c2.5-0.2,3.7-0.2,6.2-0.4c3.5-0.2,5.6-2.2,5.3-7.3c-0.6-12.5-1.3-25-1.9-37.5c-0.3-5.2-2.5-6.9-6.1-6.7
				C395.8,297.3,394.5,297.4,392,297.5z"/>
			<path class="st1" d="M434.9,315.5c6.2-0.3,9.3-0.4,15.5-0.6c0.1,4.1,0.2,6.2,0.3,10.3c-6.2,0.2-9.2,0.3-15.4,0.6
				c0.3,8.5,0.5,12.7,0.8,21.1c7.7-0.3,11.5-0.5,19.2-0.7c0.1,4.1,0.2,6.2,0.3,10.3c-10,0.3-20.1,0.7-30.1,1.2
				c-1-24.1-2-48.1-3-72.2c10.4-0.5,20.8-0.9,31.2-1.2c0.1,4.1,0.2,6.2,0.3,10.3c-7.9,0.2-11.8,0.4-19.6,0.7
				C434.4,303.4,434.6,307.4,434.9,315.5z"/>
			<path class="st1" d="M513.6,355.6c-4.5,0-6.7,0-11.1,0c-0.8-5.2-1.2-7.8-2-13.1c-5.5,0-8.2,0.1-13.6,0.1
				c-0.7,5.2-1.1,7.9-1.7,13.1c-4.1,0.1-6.1,0.1-10.1,0.2c3.3-24.1,6.8-48.2,10.3-72.3c6.7-0.1,10-0.1,16.7-0.1
				C506,307.6,509.8,331.6,513.6,355.6z M488.1,332.9c4.3-0.1,6.5-0.1,10.8-0.1c-1.8-12.1-3.7-24.3-5.6-36.4c-0.1,0-0.1,0-0.2,0
				C491.4,308.6,489.8,320.7,488.1,332.9z"/>
			<path class="st1" d="M541.8,355.9c-0.6-1.9-1-3-0.9-8.9c0.1-4.5,0.1-6.8,0.2-11.3c0.1-6.7-2.1-9.2-7.2-9.3c-1.5,0-2.3,0-3.9,0
				c-0.1,9.8-0.2,19.6-0.2,29.3c-4.4,0-6.6-0.1-11-0.1c0.1-24,0.1-48,0.2-72.1c6.9,0,10.3,0.1,17.2,0.2c11.8,0.2,16.8,5.8,16.6,16.9
				c0,2.3-0.1,3.4-0.1,5.7c-0.1,7.4-2.6,12.1-7.6,14.3c0,0.1,0,0.1,0,0.2c5.6,2.5,7.3,7.9,7.2,15.4c-0.1,4.4-0.1,6.7-0.2,11.1
				c-0.1,3.5,0,6.1,1,8.8C548.6,356,546.3,356,541.8,355.9z M530.3,294c-0.1,8.9-0.1,13.3-0.2,22.1c1.8,0,2.6,0,4.4,0.1
				c4.2,0.1,6.8-1.7,6.9-7.5c0-2.8,0.1-4.3,0.1-7.1c0.1-5.1-1.7-7.4-5.7-7.5C533.6,294,532.5,294,530.3,294z"/>
			<path class="st1" d="M582.2,357c-0.5-1.9-0.9-3-0.7-8.9c0.1-4.5,0.2-6.8,0.4-11.3c0.2-6.7-1.9-9.2-7-9.4
				c-1.5-0.1-2.3-0.1-3.9-0.1c-0.3,9.8-0.5,19.5-0.8,29.3c-4.4-0.1-6.6-0.2-11-0.3c0.5-24,1.1-48,1.6-72c6.9,0.2,10.3,0.3,17.2,0.6
				c11.8,0.4,16.7,6.2,16.3,17.2c-0.1,2.3-0.1,3.4-0.2,5.6c-0.3,7.4-2.8,12-7.9,14.2c0,0.1,0,0.1,0,0.2c5.5,2.6,7.2,8,6.9,15.5
				c-0.2,4.4-0.3,6.7-0.4,11.1c-0.1,3.5-0.1,6.1,0.9,8.8C589,357.3,586.7,357.2,582.2,357z M571.8,294.9c-0.2,8.8-0.4,13.3-0.6,22.1
				c1.8,0.1,2.6,0.1,4.4,0.2c4.2,0.2,6.8-1.6,7-7.3c0.1-2.8,0.1-4.3,0.2-7.1c0.2-5.1-1.5-7.5-5.5-7.6
				C575.1,295.1,574,295,571.8,294.9z"/>
			<path class="st1" d="M613.4,286.5c-0.9,18.5-1.7,36.9-2.6,55.4c-0.2,5.1,1.9,7.1,5.4,7.3c3.5,0.2,5.8-1.5,6.1-6.6
				c1-18.4,1.9-36.9,2.9-55.3c4.3,0.3,6.5,0.4,10.8,0.7c-1,18.2-2.1,36.4-3.1,54.6c-0.7,11.5-6.6,17.6-17.5,17
				c-10.8-0.6-16.2-7.4-15.7-18.9c0.8-18.2,1.5-36.5,2.3-54.7C606.5,286.2,608.8,286.3,613.4,286.5z"/>
			<path class="st1" d="M664.1,341.2c0.1,0,0.1,0,0.2,0c3.7-16.7,7.5-33.4,11.3-50.1c6.3,0.6,9.5,0.9,15.8,1.5
				c-2,23.8-4,47.6-5.9,71.4c-4.2-0.4-6.2-0.6-10.4-1c1.3-17.1,2.7-34.2,4-51.3c-0.1,0-0.1,0-0.2,0c-3.9,16.9-7.7,33.7-11.4,50.6
				c-4.2-0.4-6.3-0.5-10.4-0.9c-1.5-17.1-3.1-34.2-4.7-51.3c-0.1,0-0.1,0-0.2,0c-1.1,16.9-2.2,33.8-3.3,50.6
				c-3.8-0.3-5.8-0.4-9.6-0.7c1.5-23.9,2.9-47.8,4.4-71.7c6.3,0.5,9.5,0.7,15.9,1.2C661.1,306.9,662.7,324,664.1,341.2z"/>
			<path class="st1" d="M729.2,368.8c-4.4-0.5-6.7-0.8-11.1-1.3c-0.2-5.3-0.4-7.9-0.6-13.1c-5.4-0.6-8.2-0.9-13.6-1.5
				c-1.2,5.1-1.9,7.6-3.1,12.7c-4-0.4-6.1-0.6-10.1-1c5.8-23.4,11.7-46.8,17.7-70.2c6.7,0.7,10,1.1,16.7,1.9
				C726.6,320.4,727.9,344.6,729.2,368.8z M706.2,343.3c4.3,0.5,6.4,0.7,10.7,1.2c-0.6-12.2-1.2-24.4-1.8-36.6c-0.1,0-0.1,0-0.2,0
				C712,319.6,709.1,331.5,706.2,343.3z"/>
			<path class="st1" d="M769.3,347.2c-0.5,3.8-0.7,5.7-1.2,9.4c-1.3,10.5-7,16.2-16.3,15.8c-0.2,1.3-0.2,1.9-0.4,3.2
				c4.9,0.7,7.2,2.2,6.8,5.8c-0.7,5.5-4.9,5.6-10.7,4.8c-5.5-0.7-9.4-2.4-8.9-7.1c0-0.4,0.1-0.6,0.1-1c2.9,0.4,4.4,0.6,7.4,0.9
				c0,0.3-0.1,0.5-0.1,0.8c-0.2,1.5,0.9,2.2,2,2.3c1.7,0.2,2.6-0.4,2.8-2.1c0.2-1.9-0.9-2.8-3.3-3.1c-0.4-0.1-0.6-0.1-1-0.1
				c0.2-2.1,0.4-3.1,0.6-5.2c-9-2.1-13-9-11.9-19.4c1.3-12.3,2.6-24.7,3.9-37c0.5-10.2,8.9-17,18.9-15.7c10,1.4,16.5,10.1,14.8,20.2
				c-0.3,2.8-0.5,4.1-0.8,6.9c-4.2-0.6-6.4-0.9-10.6-1.5c0.4-3,0.5-4.6,0.9-7.6c0.6-5.1-1.4-7.3-5-7.8s-6.1,1.1-6.6,6.2
				c-1.4,12.8-2.9,25.6-4.3,38.4c-0.6,5.1,1.4,7.2,4.9,7.7s5.9-1.1,6.5-6.1c0.5-4.1,0.7-6.1,1.2-10.1
				C763,346.3,765.1,346.6,769.3,347.2z"/>
			<path class="st1" d="M808.2,380.1c-4.4-0.7-6.6-1.1-11.1-1.8c0-5.3-0.1-7.9-0.1-13.1c-5.4-0.9-8.1-1.3-13.5-2.1
				c-1.4,5-2.1,7.5-3.6,12.6c-4-0.6-6-0.9-10.1-1.5c6.7-23.1,13.5-46.1,20.4-69.2c6.6,1,10,1.5,16.6,2.6
				C807.4,331.8,807.9,356,808.2,380.1z M809,293.3c2,1.9,3,2.8,5,4.6c-2.4,4.3-5.6,6.1-9.7,5.4c-1.7-0.3-3.1-0.8-5.3-2.3
				c-1.5-1-2.5-1.5-3.7-1.7c-2.3-0.4-3.5,0.3-4.8,2.2c-2-1.8-3-2.7-5-4.6c2.3-4.3,5.5-6.2,9.7-5.5c1.9,0.3,3.4,0.9,5.3,2.3
				c1.6,1.1,2.5,1.5,3.7,1.7C806.4,295.9,807.7,295.3,809,293.3z M786.2,353.7c4.3,0.7,6.4,1,10.7,1.7c-0.1-12.2-0.3-24.4-0.4-36.6
				c-0.1,0-0.1,0-0.2,0C792.8,330.4,789.5,342,786.2,353.7z"/>
			<path class="st1" d="M820.1,327.2c1-10.3,9.9-16.5,19.8-14.7c9.9,1.8,16.4,10.7,14.3,20.9c-2,12.2-4,24.4-5.9,36.6
				c-1.8,11.2-8.9,16.3-19.5,14.6c-10.1-1.6-15.9-10.7-14-20.6C816.6,351.6,818.3,339.4,820.1,327.2z M825.7,366.5
				c-0.8,5,1.1,7.3,4.6,8c3.5,0.6,6-0.9,6.8-5.9c2-12.7,4-25.3,6-38c0.8-5-1.2-7.4-4.7-8c-3.6-0.6-6.1,0.9-6.9,5.9
				C829.5,341.1,827.6,353.8,825.7,366.5z"/>
			<path class="st1" d="M335.2,377.6c6.9-0.7,10.4-1,17.3-1.6c10.9-1,16.8,4.9,17.6,16.5c0.8,12.2,1.7,24.3,2.5,36.5
				c0.8,11.6-3.9,18.2-14.5,19.2c-6.7,0.6-10,0.9-16.7,1.6C339.3,425.7,337.2,401.7,335.2,377.6z M346.9,386.9
				c1.4,17.2,2.8,34.4,4.2,51.5c2.4-0.2,3.6-0.3,6-0.6c3.4-0.3,5.3-2.3,4.9-7.5c-0.9-12.5-1.9-25-2.8-37.5c-0.4-5.2-2.6-6.8-6.1-6.5
				C350.6,386.5,349.4,386.7,346.9,386.9z"/>
			<path class="st1" d="M376,391.5c-1.1-10,5.3-18.7,15.4-19.4c10.1-0.7,17.6,7.1,17.6,17.1c0.6,12.5,1.3,25,1.9,37.5
				c0.6,11.6-4.8,18.5-15.1,19.2c-10.4,0.7-16.5-5.4-17.3-17C377.7,416.5,376.9,404,376,391.5z M389.3,428.9c0.3,5.2,2.6,7,5.9,6.7
				c3.4-0.2,5.4-2.3,5.1-7.5c-0.7-13-1.5-26-2.2-39c-0.3-5.2-2.6-7-6.1-6.7c-3.5,0.2-5.5,2.4-5.2,7.5
				C387.7,402.9,388.5,415.9,389.3,428.9z"/>
			<path class="st1" d="M467.8,441.6c-4.3,0.1-6.4,0.2-10.7,0.3c-0.9-5.2-1.3-7.8-2.2-13c-5.2,0.2-7.9,0.3-13.1,0.5
				c-0.6,5.3-0.8,7.9-1.4,13.2c-3.9,0.2-5.8,0.3-9.7,0.5c2.6-24.2,5.4-48.5,8.2-72.7c6.4-0.3,9.6-0.4,16.1-0.6
				C459.4,393.7,463.7,417.6,467.8,441.6z M442.9,419.5c4.1-0.2,6.2-0.3,10.3-0.4c-2-12.1-4.1-24.2-6.2-36.3c-0.1,0-0.1,0-0.2,0
				C445.4,395.1,444.1,407.3,442.9,419.5z"/>
			<path class="st1" d="M494.9,441c-0.6-1.8-1-3-1-8.8c0-4.5-0.1-6.8-0.1-11.3c-0.1-6.7-2.2-9.1-7.1-9.1c-1.5,0-2.2,0-3.7,0.1
				c0.1,9.8,0.3,19.6,0.4,29.4c-4.2,0.1-6.4,0.1-10.6,0.2c-0.5-24.1-1-48.1-1.5-72.2c6.6-0.2,9.9-0.2,16.6-0.3
				c11.4-0.2,16.3,5.3,16.3,16.4c0,2.3,0,3.4,0,5.7c0,7.4-2.2,12.2-7,14.6c0,0.1,0,0.1,0,0.2c5.4,2.3,7.2,7.7,7.2,15.2
				c0,4.4,0,6.7,0,11.1c0,3.5,0.1,6.1,1.2,8.7C501.4,441,499.2,441,494.9,441z M482.4,379.4c0.1,8.9,0.2,13.3,0.3,22.2
				c1.7,0,2.5,0,4.2-0.1c4-0.1,6.5-1.9,6.4-7.7c0-2.8,0-4.3-0.1-7.1c0-5.2-1.8-7.4-5.6-7.3C485.6,379.3,484.5,379.4,482.4,379.4z"/>
			<path class="st1" d="M534,420.1c0.1,0,0.1,0,0.2,0c2.6-17,5.2-34,7.9-51c6.1,0.1,9.2,0.2,15.3,0.3c-0.5,24-1,48-1.5,72
				c-4-0.1-6-0.1-10-0.2c0.3-17.2,0.6-34.4,0.8-51.6c-0.1,0-0.1,0-0.2,0c-2.7,17.2-5.4,34.3-8,51.5c-4-0.1-6-0.1-10-0.1
				c-2.5-17-5-34-7.5-51c-0.1,0-0.1,0-0.2,0c-0.1,17-0.1,34-0.2,51c-3.7,0-5.5,0-9.2,0c0-24,0-48.1-0.1-72.1c6.1,0,9.2,0,15.3,0.1
				C529.1,385.9,531.6,403,534,420.1z"/>
			<path class="st1" d="M597.9,442.8c-4.3-0.2-6.4-0.3-10.7-0.5c-0.5-5.2-0.8-7.9-1.4-13.1c-5.2-0.2-7.9-0.3-13.1-0.5
				c-0.9,5.2-1.3,7.8-2.2,13c-3.9-0.1-5.8-0.2-9.7-0.3c4.2-23.9,8.5-47.8,12.9-71.6c6.4,0.2,9.6,0.3,16.1,0.6
				C592.6,394.6,595.3,418.7,597.9,442.8z M594,355.5c-4.3,4.4-6.4,6.6-10.6,11c-3-0.1-4.4-0.2-7.4-0.3c2.9-4.5,4.3-6.7,7.2-11.1
				C587.5,355.2,589.7,355.3,594,355.5z M574.4,419c4.1,0.1,6.2,0.2,10.3,0.4c-1.3-12.2-2.5-24.4-3.9-36.5c-0.1,0-0.1,0-0.2,0
				C578.5,394.9,576.5,407,574.4,419z"/>
			<path class="st1" d="M624.9,444.3c-0.5-1.9-0.8-3-0.5-8.9c0.3-4.5,0.4-6.8,0.6-11.3c0.4-6.7-1.6-9.3-6.5-9.5
				c-1.5-0.1-2.2-0.1-3.7-0.2c-0.5,9.7-1,19.5-1.5,29.2c-4.2-0.2-6.4-0.3-10.6-0.6c1.1-23.9,2.2-47.9,3.2-71.8
				c6.6,0.3,9.9,0.5,16.6,0.9c11.4,0.7,15.9,6.5,15.2,17.6c-0.1,2.3-0.2,3.4-0.3,5.6c-0.4,7.4-3,11.9-7.9,14c0,0.1,0,0.1,0,0.2
				c5.2,2.7,6.7,8.2,6.2,15.6c-0.3,4.4-0.4,6.6-0.7,11.1c-0.2,3.5-0.3,6,0.6,8.8C631.4,444.7,629.2,444.6,624.9,444.3z M616.5,382.1
				c-0.4,8.8-0.7,13.2-1.1,22c1.7,0.1,2.5,0.1,4.2,0.2c4,0.2,6.6-1.4,6.9-7.2c0.2-2.8,0.2-4.2,0.4-7.1c0.3-5.1-1.3-7.5-5.1-7.7
				C619.6,382.3,618.6,382.2,616.5,382.1z"/>
			<path class="st1" d="M646.1,373.8c4.4,0.3,6.6,0.5,11,0.9c-1.7,23.9-3.3,47.7-5,71.6c-4.2-0.3-6.3-0.5-10.6-0.8
				C643,421.5,644.5,397.7,646.1,373.8z"/>
			<path class="st1" d="M662.8,392.4c0.8-11.4,7.4-17.3,17.9-16.5c10.2,0.8,16.4,9.6,15,19.6c-1.1,12.4-2.2,24.7-3.3,37.1
				c-1,11.4-7.3,17.3-17.6,16.4c-10.4-1-15.6-7.9-14.7-19.4C661,417.2,661.9,404.8,662.8,392.4z M670.7,431.2
				c-0.4,5.1,1.6,7.2,4.9,7.5s5.7-1.4,6.1-6.5c1.1-12.9,2.2-25.7,3.2-38.6c0.4-5.1-1.6-7.3-5.1-7.6c-3.5-0.3-5.8,1.4-6.2,6.5
				C672.8,405.5,671.7,418.4,670.7,431.2z"/>
		</g>
	</g>
</g>
<g>
	<g>
		<g>
			
				<image style="overflow:visible;enable-background:new    ;" width="1908" height="596" xlink:href="91539965.png"  transform="matrix(0.2391 0 0 0.2392 139.9418 525.1434)">
			</image>
		</g>
		<rect x="183.2" y="554.7" class="st1" width="384.2" height="70.5"/>
	</g>
	<g>
		<g>
			<text transform="matrix(1 0 0 1 287.8809 611.9362)" class="st0 st2 st3">COMEÇAR</text>
		</g>
		<g>
			<text transform="matrix(1 0 0 1 290.3809 611.9362)" class="st4 st2 st3">COMEÇAR</text>
		</g>
	</g>
	<g>
		
			<image style="overflow:visible;enable-background:new    ;" width="679" height="733" xlink:href="91539963.png"  transform="matrix(0.2389 0 0 0.2393 116.9162 461.1671)">
		</image>
	</g>
</g>
<g>
	<defs>
		<rect id="SVGID_1_" x="734.2" y="640.8" width="135.2" height="32.3"/>
	</defs>
	<clipPath id="SVGID_2_">
		<use xlink:href="#SVGID_1_"  style="overflow:visible;"/>
	</clipPath>
	<g style="clip-path:url(#SVGID_2_);">
		
			<image style="overflow:visible;" width="763" height="181" xlink:href="../../../Downloads/Logo_neuroclic.jpg"  transform="matrix(0.1813 0 0 0.1813 733.2465 638.9545)">
		</image>
	</g>
</g>
<image style="overflow:visible;" width="500" height="488" xlink:href="../../../Documents/Downloads/logo_2006_para_fundo_branco.png"  transform="matrix(0.219 0 0 0.219 744.1817 526.3388)">
</image>
</svg>
