<?xml version="1.0" encoding="utf-8"?>
<!-- Generator: Adobe Illustrator 19.1.0, SVG Export Plug-In . SVG Version: 6.00 Build 0)  -->
<svg version="1.1" id="Layer_1" xmlns="http://www.w3.org/2000/svg" xmlns:xlink="http://www.w3.org/1999/xlink" x="0px" y="0px"
	 viewBox="94 -600 800 600" style="enable-background:new 94 -600 800 600;" xml:space="preserve">
<style type="text/css">
	.st0{fill:#24110B;}
	.st1{fill:#997F58;}
	.st2{enable-background:new    ;}
	.st3{fill:#FFFFFF;}
</style>
<g>
	
		<image style="overflow:visible;enable-background:new    ;" width="1277" height="829" xlink:href="CB570504.png"  transform="matrix(0.7652 0 0 0.7656 32.5648 -621)">
	</image>
</g>
<g>
	<g>
		<g id="Teste_de_Arrumação__do_Armário_2_">
			<path class="st0" d="M1044.1-793.4c11.4-1.7,22.8-3.3,34.2-4.9c0.5,3.7,0.7,5.6,1.2,9.3c-4.6,0.6-6.9,0.9-11.5,1.6
				c2.6,18.6,5.2,37.2,7.8,55.8c-4.3,0.6-6.4,0.9-10.7,1.6c-2.7-18.6-5.4-37.2-8.2-55.7c-4.6,0.7-6.9,1-11.5,1.7
				C1044.9-787.9,1044.7-789.7,1044.1-793.4z"/>
			<path class="st0" d="M1097.6-773c6-0.8,9-1.1,15-1.8c0.4,3.7,0.7,5.6,1.1,9.3c-6,0.7-9,1.1-14.9,1.8c1,7.6,1.4,11.4,2.4,19.1
				c7.4-1,11.1-1.4,18.6-2.3c0.4,3.7,0.7,5.6,1.1,9.3c-9.7,1.1-19.5,2.4-29.2,3.7c-2.9-21.7-5.7-43.4-8.6-65.1
				c10.1-1.3,20.1-2.6,30.2-3.8c0.4,3.7,0.6,5.6,1.1,9.3c-7.6,0.9-11.4,1.4-19,2.3C1096.3-783.8,1096.7-780.2,1097.6-773z"/>
			<path class="st0" d="M1135-805.9c10.8-1.1,16.9,4.3,17.9,14.8c0.1,0.8,0.1,1.2,0.2,2.1c-4.2,0.4-6.2,0.6-10.4,1
				c-0.1-1.1-0.2-1.6-0.3-2.7c-0.5-4.7-2.7-6.2-6.2-5.9c-3.5,0.4-5.3,2.4-4.8,7c0.5,4.8,3.1,8,10.9,13.2c9.9,6.6,13.3,11.7,14,19.2
				c1,10.4-3.9,16.9-14.4,18c-10.5,1.1-16.6-4.2-17.8-14.6c-0.2-1.6-0.3-2.4-0.5-4c4.1-0.5,6.1-0.7,10.2-1.1
				c0.2,1.9,0.3,2.8,0.5,4.7c0.5,4.7,2.8,6.1,6.3,5.7c3.4-0.4,5.4-2.3,4.9-6.9c-0.5-4.8-3-8.1-10.7-13.2
				c-9.9-6.5-13.4-11.6-14.3-19.1C1119.4-798.1,1124.2-804.8,1135-805.9z"/>
			<path class="st0" d="M1154.7-807.1c11.4-1,22.9-2,34.3-2.9c0.3,3.7,0.4,5.6,0.7,9.3c-4.6,0.4-6.9,0.5-11.6,0.9
				c1.5,18.6,3.1,37.3,4.6,55.9c-4.3,0.4-6.4,0.6-10.7,0.9c-1.7-18.6-3.3-37.3-5-55.9c-4.6,0.4-6.9,0.6-11.5,1.1
				C1155.2-801.5,1155-803.4,1154.7-807.1z"/>
			<path class="st0" d="M1206.8-783.7c6-0.4,9-0.6,15-1c0.2,3.7,0.3,5.6,0.6,9.3c-6,0.4-9,0.6-15,1c0.5,7.6,0.8,11.5,1.3,19.1
				c7.5-0.5,11.2-0.8,18.6-1.2c0.2,3.7,0.3,5.6,0.6,9.3c-9.8,0.6-19.5,1.3-29.3,2c-1.6-21.8-3.3-43.5-4.9-65.3
				c10.1-0.8,20.2-1.4,30.3-2c0.2,3.7,0.3,5.6,0.5,9.3c-7.6,0.5-11.5,0.7-19.1,1.2C1206.1-794.6,1206.3-791,1206.8-783.7z"/>
			<path class="st0" d="M1246.6-813.6c7-0.3,10.5-0.5,17.6-0.8c11.1-0.4,16.7,5.1,17,15.6c0.3,11,0.7,22,1,33
				c0.3,10.4-4.8,16.3-15.5,16.7c-6.8,0.3-10.2,0.4-17,0.8C1248.7-770.1,1247.7-791.9,1246.6-813.6z M1258.1-804.8
				c0.6,15.5,1.3,31.1,1.9,46.6c2.4-0.1,3.6-0.2,6.1-0.3c3.4-0.1,5.4-1.9,5.3-6.6c-0.4-11.3-0.8-22.6-1.2-33.9
				c-0.2-4.7-2.3-6.3-5.9-6.1C1261.9-805,1260.6-804.9,1258.1-804.8z"/>
			<path class="st0" d="M1299.5-787.9c6-0.1,9-0.2,15-0.3c0,3.7,0.1,5.6,0.1,9.3c-6,0.1-9,0.1-15,0.3c0.2,7.6,0.2,11.5,0.4,19.1
				c7.5-0.2,11.2-0.2,18.6-0.3c0,3.7,0.1,5.6,0.1,9.3c-9.8,0.1-19.5,0.3-29.3,0.6c-0.6-21.8-1.1-43.5-1.7-65.3
				c10.1-0.3,20.2-0.5,30.3-0.6c0,3.7,0.1,5.6,0.1,9.3c-7.6,0.1-11.5,0.1-19.1,0.3C1299.3-798.8,1299.4-795.2,1299.5-787.9z"/>
			<path class="st0" d="M1375.3-750.4c-4.3-0.1-6.5-0.1-10.8-0.2c-0.7-4.7-1-7.1-1.7-11.8c-5.3-0.1-8-0.1-13.3-0.1
				c-0.8,4.7-1.2,7.1-1.9,11.8c-3.9,0-5.9,0-9.9,0c3.6-21.7,7.4-43.5,11.3-65.2c6.5,0,9.8,0.1,16.3,0.2
				C1368.7-793.9,1372.1-772.1,1375.3-750.4z M1351-771.3c4.2,0,6.3,0,10.5,0.1c-1.6-11-3.2-22-4.8-33c-0.1,0-0.1,0-0.2,0
				C1354.6-793.2,1352.8-782.3,1351-771.3z"/>
			<path class="st0" d="M1402.7-749.7c-0.5-1.7-0.9-2.7-0.7-8c0.1-4.1,0.2-6.1,0.3-10.2c0.2-6-1.9-8.3-6.8-8.5
				c-1.5,0-2.3-0.1-3.8-0.1c-0.3,10.6-0.4,15.9-0.7,26.5c-4.3-0.1-6.4-0.2-10.7-0.2c0.5-21.7,0.9-43.4,1.4-65.1
				c6.7,0.1,10,0.2,16.7,0.4c11.5,0.4,16.2,5.5,15.8,15.5c-0.1,2-0.1,3.1-0.2,5.1c-0.3,6.7-2.7,10.9-7.7,12.8c0,0.1,0,0.1,0,0.2
				c5.4,2.3,7,7.2,6.7,14c-0.2,4-0.2,6-0.4,10c-0.1,3.2-0.1,5.5,0.9,7.9C1409.3-749.5,1407.1-749.5,1402.7-749.7z M1392.6-805.8
				c-0.2,8-0.3,12-0.6,20c1.7,0,2.6,0.1,4.3,0.1c4.1,0.1,6.6-1.5,6.8-6.7c0.1-2.6,0.1-3.8,0.2-6.4c0.2-4.6-1.5-6.7-5.4-6.9
				C1395.8-805.7,1394.7-805.7,1392.6-805.8z"/>
			<path class="st0" d="M1441.9-748c-0.5-1.7-0.8-2.7-0.5-8c0.2-4.1,0.3-6.1,0.6-10.2c0.3-6-1.7-8.4-6.7-8.6
				c-1.5-0.1-2.3-0.1-3.8-0.2c-0.5,10.6-0.8,15.9-1.3,26.4c-4.3-0.2-6.4-0.3-10.7-0.5c0.9-21.7,1.9-43.3,2.8-65
				c6.7,0.3,10,0.4,16.7,0.8c11.5,0.6,16.1,5.8,15.5,15.8c-0.1,2-0.2,3.1-0.3,5.1c-0.4,6.7-2.9,10.8-7.9,12.7c0,0.1,0,0.1,0,0.2
				c5.3,2.4,6.8,7.4,6.4,14.1c-0.2,4-0.4,6-0.6,10c-0.2,3.1-0.2,5.5,0.7,7.9C1448.4-747.7,1446.3-747.8,1441.9-748z M1432.9-804.2
				c-0.4,8-0.6,12-1,19.9c1.7,0.1,2.6,0.1,4.3,0.2c4.1,0.2,6.6-1.3,6.9-6.5c0.1-2.6,0.2-3.8,0.4-6.4c0.3-4.6-1.3-6.8-5.2-7
				C1436.1-804.1,1435.1-804.1,1432.9-804.2z"/>
			<path class="st0" d="M1473.4-811.2c-1.2,16.7-2.3,33.3-3.5,50c-0.3,4.6,1.7,6.4,5.1,6.7c3.4,0.2,5.7-1.3,6-5.9
				c1.2-16.6,2.5-33.3,3.8-49.9c4.2,0.3,6.3,0.5,10.5,0.8c-1.3,16.4-2.7,32.8-4,49.2c-0.8,10.3-6.7,15.8-17.2,15.1
				c-10.5-0.7-15.6-7-14.9-17.3c1-16.4,2.1-32.9,3.2-49.3C1466.7-811.6,1468.9-811.5,1473.4-811.2z"/>
			<path class="st0" d="M1521.7-761c0.1,0,0.1,0,0.2,0c3.9-15,7.9-30.1,11.9-45.1c6.1,0.6,9.2,0.9,15.3,1.6
				c-2.4,21.5-4.7,42.9-7,64.4c-4-0.4-6-0.6-10.1-1c1.6-15.4,3.2-30.8,4.8-46.2c-0.1,0-0.1,0-0.2,0c-4.1,15.2-8,30.3-12,45.5
				c-4-0.4-6.1-0.6-10.1-1c-1.2-15.5-2.4-30.9-3.7-46.4c-0.1,0-0.1,0-0.2,0c-1.4,15.2-2.7,30.4-4.1,45.7c-3.7-0.3-5.6-0.5-9.3-0.8
				c1.8-21.5,3.6-43.1,5.5-64.6c6.2,0.5,9.2,0.8,15.4,1.4C1519.3-792,1520.5-776.5,1521.7-761z"/>
			<path class="st0" d="M1584.3-735.1c-4.3-0.6-6.4-0.8-10.7-1.4c-0.2-4.8-0.2-7.1-0.4-11.9c-5.3-0.6-7.9-1-13.1-1.6
				c-1.3,4.6-1.9,6.9-3.2,11.5c-3.9-0.4-5.9-0.7-9.8-1.1c6-21.1,12.2-42.1,18.4-63.1c6.5,0.8,9.7,1.1,16.1,2
				C1582.6-778.8,1583.5-756.9,1584.3-735.1z M1562.4-758.5c4.2,0.5,6.2,0.7,10.4,1.2c-0.4-11-0.7-22.1-1.1-33.1c-0.1,0-0.1,0-0.2,0
				C1568.4-779.7,1565.4-769.1,1562.4-758.5z"/>
			<path class="st0" d="M1623.5-753.9c-0.5,3.4-0.8,5.1-1.3,8.5c-1.4,9.5-7,14.5-16.1,14c-0.2,1.2-0.3,1.8-0.4,2.9
				c4.7,0.7,7,2.1,6.5,5.3c-0.7,4.9-4.8,5-10.5,4.2c-5.3-0.7-9.1-2.4-8.5-6.6c0.1-0.4,0.1-0.5,0.1-0.9c2.8,0.4,4.3,0.6,7.1,1
				c0,0.3-0.1,0.4-0.1,0.7c-0.2,1.4,0.8,2,1.9,2.1c1.6,0.2,2.5-0.3,2.7-1.9c0.2-1.7-0.8-2.5-3.1-2.9c-0.4-0.1-0.6-0.1-1-0.1
				c0.3-1.9,0.4-2.8,0.7-4.7c-8.7-2-12.5-8.3-11.2-17.7c1.5-11.1,3-22.2,4.5-33.3c1.4-10.3,7.8-15.4,18.6-13.9
				c10.8,1.5,15.5,8.2,13.9,18.5c-0.4,2.5-0.6,3.7-0.9,6.2c-4.1-0.6-6.2-0.9-10.3-1.5c0.4-2.7,0.6-4.1,1-6.9
				c0.7-4.6-1.3-6.6-4.7-7.1c-3.5-0.5-5.9,0.9-6.6,5.5c-1.6,11.5-3.2,23.1-4.8,34.6c-0.6,4.6,1.3,6.5,4.7,7c3.4,0.5,5.8-0.9,6.4-5.4
				c0.5-3.7,0.8-5.5,1.3-9.1C1617.4-754.9,1619.5-754.6,1623.5-753.9z"/>
			<path class="st0" d="M1660.6-723.6c-4.3-0.7-6.4-1.1-10.7-1.8c0-4.7,0.1-7.1,0.1-11.9c-5.2-0.9-7.8-1.3-13.1-2.1
				c-1.5,4.5-2.2,6.8-3.7,11.3c-3.9-0.6-5.8-0.9-9.7-1.5c6.9-20.7,13.9-41.4,21-62.1c6.4,1,9.6,1.5,16,2.6
				C1660.7-767.3,1660.7-745.4,1660.6-723.6z M1663-802c1.9,1.7,2.8,2.6,4.7,4.3c-2.4,3.8-5.5,5.4-9.5,4.8c-1.6-0.3-3-0.8-5.1-2.1
				c-1.5-1-2.4-1.4-3.5-1.6c-2.2-0.4-3.4,0.2-4.7,2c-1.9-1.7-2.9-2.5-4.8-4.2c2.3-3.8,5.5-5.5,9.5-4.8c1.8,0.3,3.2,0.9,5.1,2.1
				c1.5,1,2.4,1.4,3.5,1.6C1660.4-799.7,1661.7-800.2,1663-802z M1639.7-747.8c4.1,0.7,6.2,1,10.3,1.7c0.1-11,0.2-22,0.2-33
				c-0.1,0-0.1,0-0.2,0C1646.6-768.8,1643.2-758.3,1639.7-747.8z"/>
			<path class="st0" d="M1673.1-771.2c1.8-10.2,8.7-15,19.4-13c10.7,2,15.4,8.9,13.5,19c-2.1,11-4.3,21.9-6.4,32.9
				c-2,10.1-8.7,14.8-19.1,12.9c-10.4-1.9-15-8.7-13.2-18.8C1669.2-749.2,1671.2-760.2,1673.1-771.2z M1677.8-735.7
				c-0.8,4.5,1,6.6,4.4,7.3c3.4,0.6,5.8-0.7,6.7-5.2c2.2-11.4,4.3-22.8,6.5-34.2c0.9-4.5-1-6.7-4.4-7.3c-3.5-0.6-6,0.7-6.8,5.2
				C1682-758.5,1679.9-747.1,1677.8-735.7z"/>
			<path class="st0" d="M1209-733.9c6.7-0.5,10.1-0.7,16.9-1.1c10.7-0.7,16.2,4.8,16.8,15.2c0.6,11,1.2,22,1.8,33
				c0.6,10.4-4.2,16.4-14.5,17.1c-6.5,0.4-9.8,0.6-16.3,1.1C1212.1-690.4,1210.6-712.1,1209-733.9z M1220.3-725.3
				c1,15.5,2,31.1,3.1,46.6c2.3-0.2,3.5-0.2,5.8-0.4c3.3-0.2,5.2-2,4.9-6.7c-0.7-11.3-1.3-22.6-2-34c-0.3-4.7-2.4-6.2-5.8-6
				C1223.9-725.5,1222.7-725.5,1220.3-725.3z"/>
			<path class="st0" d="M1248.5-720.6c-0.5-10.4,4.9-16.7,15.4-17.2c10.5-0.4,16.4,5.4,16.7,15.8c0.4,11.3,0.7,22.6,1.1,33.9
				c0.3,10.4-5,16.6-15.1,17c-10.1,0.5-15.9-5.2-16.5-15.7C1249.6-698,1249.1-709.3,1248.5-720.6z M1260.6-686.5
				c0.2,4.7,2.4,6.3,5.7,6.2c3.3-0.1,5.3-2,5.1-6.7c-0.5-11.7-0.9-23.5-1.4-35.3c-0.2-4.7-2.4-6.4-5.8-6.2c-3.4,0.1-5.4,2-5.2,6.7
				C1259.6-710,1260.1-698.3,1260.6-686.5z"/>
			<path class="st0" d="M1336.8-673.5c-4.2,0-6.2,0-10.4,0.1c-0.8-4.7-1.1-7.1-1.9-11.8c-5.1,0.1-7.6,0.1-12.7,0.2
				c-0.6,4.7-0.9,7.1-1.6,11.9c-3.8,0.1-5.7,0.1-9.5,0.2c3-21.8,6.1-43.7,9.4-65.5c6.2-0.1,9.4-0.2,15.6-0.2
				C1329.5-716.9,1333.2-695.2,1336.8-673.5z M1312.9-693.9c4-0.1,6-0.1,10-0.2c-1.8-11-3.6-21.9-5.4-32.9c-0.1,0-0.1,0-0.2,0
				C1315.9-716,1314.4-704.9,1312.9-693.9z"/>
			<path class="st0" d="M1363.1-673.5c-0.5-1.7-0.9-2.7-0.9-8c0-4.1,0.1-6.1,0.1-10.2c0.1-6-2-8.3-6.7-8.3c-1.4,0-2.2,0-3.6,0
				c-0.1,10.6-0.1,15.9-0.1,26.5c-4.1,0-6.2,0-10.3,0c0-21.7,0-43.5,0-65.2c6.4,0,9.7,0,16.1,0.1c11.1,0.1,15.7,5.1,15.5,15.2
				c0,2-0.1,3.1-0.1,5.1c-0.1,6.7-2.4,10.9-7.1,13c0,0.1,0,0.1,0,0.2c5.2,2.2,6.8,7.1,6.7,13.9c-0.1,4-0.1,6-0.2,10
				c-0.1,3.2,0,5.5,1,7.9C1369.4-673.4,1367.3-673.4,1363.1-673.5z M1352.1-729.4c0,8-0.1,12-0.1,20c1.6,0,2.5,0,4.1,0
				c3.9,0,6.3-1.6,6.4-6.8c0-2.6,0-3.9,0.1-6.4c0.1-4.7-1.6-6.7-5.3-6.7C1355.2-729.4,1354.2-729.4,1352.1-729.4z"/>
			<path class="st0" d="M1401.5-691.6c0.1,0,0.1,0,0.2,0c2.8-15.3,5.7-30.6,8.7-45.9c5.9,0.2,8.9,0.3,14.8,0.6
				c-1,21.6-1.9,43.3-2.9,64.9c-3.9-0.2-5.8-0.2-9.7-0.4c0.6-15.5,1.2-31.1,1.8-46.6c-0.1,0-0.1,0-0.2,0c-3,15.4-5.9,30.9-8.7,46.4
				c-3.9-0.1-5.8-0.2-9.7-0.3c-2.1-15.4-4.2-30.8-6.3-46.2c-0.1,0-0.1,0-0.2,0c-0.4,15.3-0.8,30.7-1.2,46c-3.6-0.1-5.4-0.1-9-0.2
				c0.4-21.7,0.9-43.4,1.3-65.1c5.9,0.1,8.9,0.2,14.8,0.4C1397.4-722.5,1399.4-707.1,1401.5-691.6z"/>
			<path class="st0" d="M1463-669.8c-4.1-0.3-6.2-0.4-10.4-0.6c-0.4-4.7-0.6-7.1-1.1-11.9c-5.1-0.3-7.6-0.4-12.7-0.7
				c-1,4.7-1.4,7-2.4,11.7c-3.8-0.2-5.7-0.3-9.4-0.4c4.5-21.5,9.2-43,13.9-64.4c6.2,0.3,9.3,0.5,15.6,0.9
				C1458.7-713.5,1460.9-691.7,1463-669.8z M1440.6-691.8c4,0.2,6,0.3,10,0.5c-1-11-2-22.1-3-33.1c-0.1,0-0.1,0-0.2,0
				C1445.1-713.5,1442.9-702.6,1440.6-691.8z M1461-748.8c-4.2,3.9-6.3,5.8-10.5,9.7c-2.9-0.2-4.3-0.2-7.2-0.4c2.9-4,4.3-6,7.2-9.9
				C1454.6-749.2,1456.7-749.1,1461-748.8z"/>
			<path class="st0" d="M1489.2-668c-0.4-1.7-0.7-2.8-0.3-8c0.3-4.1,0.5-6.1,0.8-10.2c0.5-6-1.4-8.4-6.1-8.7
				c-1.4-0.1-2.2-0.2-3.6-0.3c-0.8,10.5-1.2,15.8-2,26.3c-4.1-0.3-6.2-0.4-10.3-0.7c1.5-21.6,3-43.2,4.5-64.8
				c6.4,0.4,9.6,0.7,16,1.2c11,0.9,15.3,6.2,14.4,16.1c-0.2,2-0.3,3-0.4,5.1c-0.6,6.6-3.1,10.7-8,12.4c0,0.1,0,0.1,0,0.2
				c5,2.5,6.3,7.5,5.7,14.2c-0.3,4-0.5,6-0.9,10c-0.3,3.1-0.4,5.5,0.4,7.9C1495.4-667.5,1493.3-667.6,1489.2-668z M1482.2-724.3
				c-0.6,7.9-0.9,11.9-1.5,19.9c1.6,0.1,2.5,0.2,4.1,0.3c3.9,0.3,6.4-1.2,6.8-6.3c0.2-2.5,0.3-3.8,0.5-6.4c0.4-4.6-1.1-6.8-4.8-7.1
				C1485.2-724,1484.2-724.1,1482.2-724.3z"/>
			<path class="st0" d="M1511.1-731.2c4.2,0.4,6.4,0.6,10.6,1c-2.1,21.5-4.2,43-6.2,64.5c-4.1-0.4-6.1-0.6-10.2-0.9
				C1507.1-688.2,1509.1-709.7,1511.1-731.2z"/>
			<path class="st0" d="M1527-714.1c1-10.3,7.3-15.7,17.7-14.5c10.4,1.1,15.4,7.7,14.2,18c-1.3,11.1-2.6,22.3-4,33.4
				c-1.2,10.3-7.4,15.5-17.4,14.5c-10-1.1-14.9-7.5-13.9-17.8C1524.7-691.7,1525.8-702.9,1527-714.1z M1533.8-678.9
				c-0.5,4.6,1.4,6.6,4.7,6.9c3.3,0.3,5.5-1.2,6-5.8c1.3-11.6,2.6-23.2,3.9-34.8c0.5-4.6-1.4-6.6-4.7-6.9c-3.4-0.4-5.7,1.2-6.1,5.8
				C1536.3-702.1,1535.1-690.5,1533.8-678.9z"/>
		</g>
		<g>
			<path class="st1" d="M1048.2-793.8c11.4-1.8,22.7-3.6,34.1-5.3c0.6,3.7,0.8,5.6,1.4,9.3c-4.6,0.7-6.9,1-11.5,1.7
				c2.9,18.5,5.8,37.1,8.6,55.6c-4.3,0.7-6.4,1-10.7,1.7c-3-18.5-6-37.1-9-55.6c-4.6,0.7-6.9,1.1-11.5,1.9
				C1049.1-788.2,1048.8-790.1,1048.2-793.8z"/>
			<path class="st1" d="M1102.1-774c6-0.8,9-1.2,15-2c0.5,3.7,0.7,5.6,1.2,9.3c-6,0.8-8.9,1.2-14.9,2c1.1,7.6,1.6,11.4,2.7,19
				c7.4-1,11.1-1.6,18.6-2.5c0.5,3.7,0.7,5.6,1.2,9.3c-9.7,1.3-19.4,2.6-29.2,4.1c-3.2-21.7-6.4-43.3-9.5-65
				c10-1.5,20.1-2.8,30.2-4.1c0.5,3.7,0.7,5.6,1.2,9.3c-7.6,1-11.4,1.5-19,2.6C1100.5-784.9,1101-781.3,1102.1-774z"/>
			<path class="st1" d="M1139-807.4c10.8-1.3,17,4.1,18.1,14.5c0.1,0.8,0.1,1.2,0.2,2c-4.2,0.5-6.2,0.7-10.4,1.2
				c-0.1-1.1-0.2-1.6-0.3-2.7c-0.5-4.7-2.8-6.2-6.3-5.8c-3.5,0.4-5.3,2.4-4.7,7.1c0.6,4.7,3.2,8,11.1,13c10,6.4,13.4,11.6,14.3,19
				c1.2,10.4-3.6,17-14.1,18.2c-10.5,1.2-16.7-4-18.1-14.4c-0.2-1.6-0.3-2.4-0.5-4c4.1-0.5,6.1-0.8,10.2-1.3
				c0.2,1.9,0.3,2.8,0.6,4.6c0.6,4.6,2.9,6.1,6.3,5.6c3.4-0.4,5.4-2.3,4.8-7s-3.1-8-10.9-13c-10-6.4-13.6-11.4-14.6-18.9
				C1123.4-799.5,1128.2-806.2,1139-807.4z"/>
			<path class="st1" d="M1158.6-808.9c11.4-1.2,22.9-2.3,34.3-3.4c0.3,3.7,0.5,5.6,0.9,9.3c-4.6,0.4-6.9,0.6-11.5,1.1
				c1.8,18.6,3.6,37.2,5.5,55.9c-4.3,0.4-6.4,0.6-10.7,1.1c-1.9-18.6-3.9-37.2-5.8-55.9c-4.6,0.5-6.9,0.7-11.5,1.2
				C1159.2-803.3,1159-805.2,1158.6-808.9z"/>
			<path class="st1" d="M1211.1-786.2c6-0.5,9-0.7,15-1.2c0.3,3.7,0.4,5.6,0.7,9.3c-6,0.4-9,0.7-15,1.2c0.6,7.6,1,11.5,1.6,19.1
				c7.5-0.6,11.2-0.9,18.6-1.5c0.3,3.7,0.4,5.6,0.7,9.3c-9.8,0.7-19.5,1.5-29.3,2.4c-1.9-21.7-3.9-43.5-5.8-65.2
				c10.1-0.9,20.2-1.7,30.3-2.4c0.3,3.7,0.4,5.6,0.7,9.3c-7.6,0.5-11.5,0.8-19.1,1.5C1210.2-797,1210.5-793.4,1211.1-786.2z"/>
			<path class="st1" d="M1250.6-816.6c7-0.4,10.6-0.6,17.6-1c11.1-0.6,16.8,4.9,17.3,15.3c0.5,11,1,22,1.5,33
				c0.5,10.4-4.6,16.3-15.3,16.9c-6.8,0.4-10.2,0.6-17,1C1253.3-773.1,1251.9-794.8,1250.6-816.6z M1262.2-807.9
				c0.9,15.5,1.7,31.1,2.6,46.6c2.4-0.1,3.7-0.2,6.1-0.3c3.4-0.2,5.4-2,5.2-6.6c-0.6-11.3-1.1-22.6-1.7-33.9c-0.2-4.7-2.4-6.2-6-6.1
				C1266-808.1,1264.7-808,1262.2-807.9z"/>
			<path class="st1" d="M1303.9-791.5c6-0.2,9-0.3,15.1-0.5c0.1,3.7,0.2,5.6,0.3,9.3c-6,0.2-9,0.2-15,0.5c0.3,7.6,0.4,11.5,0.7,19.1
				c7.5-0.3,11.2-0.4,18.7-0.6c0.1,3.7,0.1,5.6,0.2,9.3c-9.8,0.2-19.6,0.6-29.3,1c-0.9-21.7-1.8-43.5-2.7-65.2
				c10.1-0.4,20.2-0.7,30.3-0.9c0.1,3.7,0.1,5.6,0.2,9.3c-7.7,0.2-11.5,0.3-19.1,0.5C1303.5-802.4,1303.7-798.8,1303.9-791.5z"/>
			<path class="st1" d="M1380.4-754.9c-4.3,0-6.5,0-10.9,0c-0.7-4.7-1.1-7.1-1.9-11.8c-5.3,0-8,0-13.3,0.1
				c-0.7,4.7-1.1,7.1-1.8,11.8c-4,0-5.9,0.1-9.9,0.1c3.3-21.8,6.8-43.5,10.3-65.3c6.5,0,9.8-0.1,16.3-0.1
				C1373.2-798.4,1376.9-776.7,1380.4-754.9z M1355.7-775.6c4.2,0,6.3,0,10.5,0c-1.8-11-3.5-22-5.3-32.9c-0.1,0-0.1,0-0.2,0
				C1359-797.5,1357.4-786.6,1355.7-775.6z"/>
			<path class="st1" d="M1407.9-754.6c-0.6-1.7-0.9-2.7-0.8-8c0.1-4.1,0.1-6.1,0.2-10.2c0.1-6-2-8.3-7-8.4c-1.5,0-2.3,0-3.8-0.1
				c-0.1,10.6-0.2,15.9-0.3,26.5c-4.3-0.1-6.5-0.1-10.8-0.1c0.2-21.7,0.3-43.4,0.5-65.1c6.7,0.1,10.1,0.1,16.8,0.2
				c11.5,0.2,16.4,5.3,16.1,15.3c-0.1,2-0.1,3.1-0.1,5.1c-0.2,6.7-2.6,10.9-7.5,12.9c0,0.1,0,0.1,0,0.2c5.4,2.3,7.1,7.1,6.9,13.9
				c-0.1,4-0.1,6-0.2,10c-0.1,3.2,0,5.5,1,7.9C1414.5-754.5,1412.3-754.5,1407.9-754.6z M1396.9-810.6c-0.1,8-0.2,12-0.3,20
				c1.7,0,2.6,0,4.3,0.1c4.1,0.1,6.6-1.6,6.7-6.8c0-2.6,0.1-3.8,0.1-6.4c0.1-4.6-1.6-6.7-5.5-6.8
				C1400.1-810.5,1399.1-810.5,1396.9-810.6z"/>
			<path class="st1" d="M1447.2-753.4c-0.5-1.7-0.9-2.7-0.7-8c0.2-4.1,0.2-6.1,0.4-10.2c0.2-6-1.9-8.3-6.8-8.5
				c-1.5-0.1-2.3-0.1-3.8-0.1c-0.4,10.6-0.5,15.9-0.9,26.4c-4.3-0.1-6.5-0.2-10.8-0.3c0.6-21.7,1.2-43.3,1.8-65
				c6.7,0.2,10.1,0.3,16.8,0.6c11.5,0.4,16.3,5.6,15.8,15.6c-0.1,2-0.1,3.1-0.2,5.1c-0.3,6.7-2.8,10.8-7.7,12.7c0,0.1,0,0.1,0,0.2
				c5.4,2.4,6.9,7.3,6.6,14c-0.2,4-0.3,6-0.5,10c-0.1,3.2-0.1,5.5,0.8,7.9C1453.8-753.2,1451.6-753.3,1447.2-753.4z M1437.4-809.5
				c-0.3,8-0.4,12-0.7,19.9c1.7,0.1,2.6,0.1,4.3,0.2c4.1,0.2,6.6-1.4,6.8-6.6c0.1-2.6,0.2-3.8,0.3-6.4c0.2-4.6-1.4-6.8-5.4-6.9
				C1440.6-809.4,1439.5-809.5,1437.4-809.5z"/>
			<path class="st1" d="M1477.8-817c-0.9,16.7-1.8,33.3-2.7,50c-0.3,4.6,1.8,6.4,5.2,6.6c3.4,0.2,5.7-1.3,6-6c1-16.7,2-33.3,3-50
				c4.2,0.3,6.3,0.4,10.5,0.7c-1.1,16.4-2.2,32.9-3.3,49.3c-0.7,10.4-6.5,15.9-17.1,15.3c-10.5-0.6-15.7-6.8-15.2-17.2
				c0.8-16.5,1.6-32.9,2.4-49.4C1471.1-817.3,1473.4-817.2,1477.8-817z"/>
			<path class="st1" d="M1527-767.4c0.1,0,0.1,0,0.2,0c3.7-15.1,7.4-30.2,11.2-45.2c6.2,0.5,9.3,0.8,15.4,1.4
				c-2,21.5-4.1,43-6.1,64.5c-4.1-0.4-6.1-0.6-10.1-0.9c1.4-15.4,2.7-30.9,4.1-46.3c-0.1,0-0.1,0-0.2,0
				c-3.8,15.2-7.6,30.4-11.3,45.7c-4.1-0.3-6.1-0.5-10.1-0.8c-1.4-15.4-2.9-30.9-4.4-46.3c-0.1,0-0.1,0-0.2,0
				c-1.1,15.2-2.3,30.5-3.4,45.7c-3.7-0.3-5.6-0.4-9.4-0.7c1.5-21.6,3-43.1,4.5-64.7c6.2,0.4,9.3,0.7,15.4,1.2
				C1524.2-798.4,1525.7-782.9,1527-767.4z"/>
			<path class="st1" d="M1590.3-742.2c-4.3-0.5-6.5-0.8-10.8-1.2c-0.2-4.7-0.3-7.1-0.6-11.9c-5.3-0.6-7.9-0.9-13.2-1.4
				c-1.2,4.6-1.8,6.9-3.1,11.5c-3.9-0.4-5.9-0.6-9.8-1c5.7-21.1,11.6-42.2,17.5-63.3c6.5,0.7,9.7,1,16.2,1.8
				C1587.9-785.9,1589.1-764.1,1590.3-742.2z M1568-765.3c4.2,0.4,6.3,0.7,10.4,1.1c-0.5-11-1.1-22.1-1.6-33.1c-0.1,0-0.1,0-0.2,0
				C1573.7-786.7,1570.8-776,1568-765.3z"/>
			<path class="st1" d="M1629.4-761.5c-0.5,3.4-0.7,5.1-1.2,8.5c-1.3,9.5-6.8,14.6-16,14.2c-0.2,1.2-0.2,1.8-0.4,2.9
				c4.7,0.6,7,2,6.6,5.2c-0.7,4.9-4.8,5-10.5,4.3c-5.3-0.7-9.1-2.3-8.6-6.5c0-0.4,0.1-0.6,0.1-0.9c2.9,0.3,4.3,0.5,7.2,0.9
				c0,0.3-0.1,0.4-0.1,0.7c-0.2,1.4,0.8,2,1.9,2.1c1.6,0.2,2.5-0.3,2.7-1.9c0.2-1.7-0.9-2.5-3.2-2.8c-0.4,0-0.6-0.1-1-0.1
				c0.2-1.9,0.4-2.8,0.6-4.7c-8.7-1.9-12.6-8.2-11.5-17.6c1.3-11.1,2.7-22.3,4-33.4c1.2-10.3,7.6-15.5,18.4-14.1
				c10.9,1.4,15.7,8.1,14.3,18.3c-0.3,2.5-0.5,3.7-0.9,6.2c-4.1-0.6-6.2-0.8-10.3-1.4c0.4-2.7,0.5-4.1,0.9-6.9
				c0.6-4.6-1.4-6.6-4.9-7.1s-5.9,1-6.5,5.6c-1.4,11.5-2.9,23.1-4.3,34.6c-0.6,4.6,1.4,6.5,4.8,6.9s5.8-0.9,6.4-5.5
				c0.5-3.7,0.7-5.5,1.2-9.2C1623.2-762.4,1625.3-762.1,1629.4-761.5z"/>
			<path class="st1" d="M1667.1-731.6c-4.3-0.7-6.4-1-10.7-1.7c0-4.7,0-7.1-0.1-11.9c-5.3-0.8-7.9-1.2-13.2-2
				c-1.4,4.5-2.1,6.8-3.5,11.3c-3.9-0.6-5.9-0.8-9.8-1.4c6.6-20.8,13.3-41.6,20.1-62.4c6.5,0.9,9.7,1.4,16.1,2.4
				C1666.5-775.3,1666.8-753.4,1667.1-731.6z M1668.2-810c1.9,1.7,2.9,2.5,4.8,4.2c-2.4,3.8-5.5,5.5-9.5,4.9c-1.6-0.2-3-0.7-5.1-2.1
				c-1.5-1-2.5-1.4-3.6-1.6c-2.2-0.3-3.4,0.2-4.7,2c-1.9-1.7-2.9-2.5-4.8-4.2c2.3-3.9,5.4-5.6,9.5-5c1.8,0.3,3.3,0.9,5.2,2.1
				c1.5,1,2.5,1.4,3.6,1.6C1665.7-807.7,1666.9-808.3,1668.2-810z M1645.7-755.6c4.2,0.6,6.2,0.9,10.4,1.5c-0.1-11-0.2-22-0.3-33.1
				c-0.1,0-0.1,0-0.2,0C1652.3-776.6,1649-766.1,1645.7-755.6z"/>
			<path class="st1" d="M1678.9-779.4c1.6-10.2,8.5-15.1,19.3-13.2c10.8,1.9,15.6,8.7,13.8,18.9c-2,11-3.9,22-5.9,33
				c-1.8,10.2-8.6,14.9-19,13.1c-10.4-1.8-15.2-8.5-13.6-18.7C1675.3-757.3,1677.1-768.3,1678.9-779.4z M1684.2-743.9
				c-0.8,4.5,1.1,6.6,4.5,7.2c3.4,0.6,5.8-0.8,6.6-5.3c2-11.4,4-22.9,6-34.3c0.8-4.5-1.1-6.6-4.6-7.2s-6,0.8-6.7,5.3
				C1688-766.8,1686.1-755.3,1684.2-743.9z"/>
			<path class="st1" d="M1214.1-736.4c6.7-0.6,10.1-0.8,16.9-1.3c10.7-0.8,16.3,4.6,17,15c0.7,11,1.5,22,2.2,33
				c0.7,10.4-4,16.4-14.3,17.2c-6.5,0.5-9.8,0.8-16.3,1.3C1217.7-692.9,1215.9-714.7,1214.1-736.4z M1225.5-728
				c1.2,15.5,2.4,31.1,3.7,46.6c2.3-0.2,3.5-0.3,5.8-0.5c3.3-0.3,5.1-2.1,4.8-6.7c-0.8-11.3-1.6-22.6-2.5-33.9
				c-0.3-4.7-2.5-6.2-5.9-5.9C1229.1-728.2,1227.9-728.1,1225.5-728z"/>
			<path class="st1" d="M1253.8-723.6c-0.7-10.4,4.7-16.8,15.2-17.4s16.5,5.1,17,15.6c0.5,11.3,1,22.6,1.6,33.9
				c0.5,10.4-4.8,16.6-14.9,17.2c-10.1,0.6-16-5-16.7-15.4C1255.2-701,1254.5-712.3,1253.8-723.6z M1266.4-689.7
				c0.3,4.7,2.4,6.3,5.7,6.1c3.3-0.2,5.3-2.1,5-6.7c-0.6-11.7-1.2-23.5-1.8-35.2c-0.2-4.7-2.5-6.3-5.8-6.1c-3.4,0.2-5.4,2.1-5.1,6.7
				C1265-713.2,1265.7-701.4,1266.4-689.7z"/>
			<path class="st1" d="M1342.8-677.6c-4.2,0.1-6.2,0.1-10.4,0.2c-0.8-4.7-1.2-7.1-2.1-11.8c-5.1,0.1-7.6,0.2-12.7,0.4
				c-0.6,4.8-0.9,7.1-1.4,11.9c-3.8,0.1-5.7,0.2-9.5,0.3c2.7-21.9,5.6-43.7,8.5-65.6c6.3-0.2,9.4-0.3,15.6-0.4
				C1335-721,1338.9-699.3,1342.8-677.6z M1318.7-697.7c4-0.1,6-0.2,10.1-0.3c-1.9-11-3.9-21.9-5.8-32.8c-0.1,0-0.1,0-0.2,0
				C1321.4-719.8,1320-708.8,1318.7-697.7z"/>
			<path class="st1" d="M1369.2-677.9c-0.6-1.7-0.9-2.7-1-8c0-4.1,0-6.1,0-10.2c0-6-2.1-8.3-6.9-8.2c-1.4,0-2.2,0-3.6,0
				c0.1,10.6,0.1,15.9,0.2,26.5c-4.1,0-6.2,0.1-10.3,0.1c-0.3-21.7-0.6-43.4-0.9-65.2c6.5-0.1,9.7-0.1,16.1-0.1
				c11.1-0.1,15.8,4.9,15.8,15c0,2,0,3.1,0,5.1c0,6.7-2.2,11-6.9,13.1c0,0.1,0,0.1,0,0.2c5.3,2.1,6.9,7,6.9,13.8c0,4,0,6,0,10
				c0,3.2,0.1,5.5,1.1,7.9C1375.5-678,1373.4-678,1369.2-677.9z M1357.5-733.7c0.1,8,0.1,12,0.2,20c1.6,0,2.5,0,4.1,0
				c3.9,0,6.3-1.7,6.3-6.9c0-2.6,0-3.9,0-6.4c0-4.7-1.7-6.7-5.4-6.7C1360.6-733.7,1359.5-733.7,1357.5-733.7z"/>
			<path class="st1" d="M1407.4-696.5c0.1,0,0.1,0,0.2,0c2.6-15.3,5.3-30.7,8.1-46c5.9,0.1,8.9,0.2,14.9,0.4
				c-0.7,21.7-1.4,43.3-2,65c-3.9-0.1-5.9-0.2-9.8-0.3c0.4-15.5,0.8-31.1,1.2-46.6c-0.1,0-0.1,0-0.2,0c-2.8,15.5-5.5,31-8.1,46.5
				c-3.9-0.1-5.9-0.1-9.8-0.2c-2.3-15.4-4.6-30.7-6.9-46.1c-0.1,0-0.1,0-0.2,0c-0.2,15.3-0.4,30.7-0.6,46c-3.6,0-5.4-0.1-9-0.1
				c0.2-21.7,0.3-43.4,0.5-65.1c5.9,0,8.9,0.1,14.9,0.2C1402.9-727.4,1405.2-712,1407.4-696.5z"/>
			<path class="st1" d="M1469.4-675.5c-4.2-0.2-6.2-0.3-10.4-0.5c-0.5-4.7-0.7-7.1-1.2-11.9c-5.1-0.2-7.6-0.3-12.7-0.5
				c-0.9,4.7-1.4,7-2.3,11.7c-3.8-0.1-5.7-0.2-9.5-0.3c4.3-21.5,8.6-43.1,13.1-64.6c6.3,0.2,9.4,0.4,15.6,0.7
				C1464.6-719.1,1467-697.3,1469.4-675.5z M1446.7-697.2c4,0.2,6,0.2,10,0.4c-1.1-11-2.3-22-3.5-33c-0.1,0-0.1,0-0.2,0
				C1450.9-718.9,1448.8-708,1446.7-697.2z M1466.3-754.4c-4.2,3.9-6.3,5.9-10.4,9.8c-2.9-0.1-4.3-0.2-7.2-0.3c2.8-4,4.2-6,7.1-10
				C1460-754.7,1462.1-754.6,1466.3-754.4z"/>
			<path class="st1" d="M1495.7-674c-0.4-1.7-0.8-2.7-0.4-8c0.3-4.1,0.4-6.1,0.7-10.2c0.4-6-1.5-8.4-6.3-8.7
				c-1.4-0.1-2.2-0.1-3.6-0.2c-0.7,10.5-1,15.8-1.6,26.4c-4.1-0.2-6.2-0.4-10.3-0.6c1.2-21.6,2.4-43.2,3.7-64.8
				c6.4,0.4,9.7,0.6,16.1,1c11.1,0.7,15.4,6,14.7,16c-0.2,2-0.2,3-0.4,5.1c-0.5,6.7-3,10.7-7.8,12.5c0,0.1,0,0.1,0,0.2
				c5.1,2.5,6.4,7.4,5.9,14.2c-0.3,4-0.4,6-0.7,10c-0.2,3.1-0.3,5.5,0.5,7.9C1502-673.5,1499.9-673.7,1495.7-674z M1487.9-730.2
				c-0.5,8-0.7,11.9-1.2,19.9c1.6,0.1,2.5,0.2,4.1,0.3c3.9,0.2,6.4-1.3,6.8-6.4c0.2-2.6,0.3-3.8,0.4-6.4c0.3-4.6-1.2-6.8-5-7
				C1491-730,1490-730.1,1487.9-730.2z"/>
			<path class="st1" d="M1516.8-737.4c4.3,0.3,6.4,0.5,10.7,0.9c-1.8,21.5-3.6,43.1-5.4,64.6c-4.1-0.3-6.2-0.5-10.3-0.8
				C1513.5-694.4,1515.2-715.9,1516.8-737.4z"/>
			<path class="st1" d="M1533-720.5c0.9-10.3,7.1-15.8,17.6-14.7c10.5,1,15.5,7.5,14.5,17.8c-1.2,11.2-2.3,22.3-3.5,33.5
				c-1.1,10.3-7.2,15.6-17.3,14.7c-10.1-0.9-15.1-7.3-14.2-17.6C1531.1-698.1,1532-709.3,1533-720.5z M1540.4-685.4
				c-0.4,4.6,1.5,6.5,4.8,6.9c3.3,0.3,5.5-1.2,6-5.8c1.1-11.6,2.3-23.2,3.4-34.8c0.5-4.6-1.5-6.6-4.9-6.9s-5.7,1.2-6.1,5.8
				C1542.6-708.6,1541.5-697,1540.4-685.4z"/>
		</g>
	</g>
</g>
<g>
	<g>
		<g>
			<path class="st0" d="M170.1-395.5c11.6-2.2,23.3-4.2,34.9-6.1c0.6,4.1,0.9,6.2,1.5,10.3c-4.7,0.8-7.1,1.2-11.8,2
				c3.1,20.5,6.2,41,9.3,61.6c-4.4,0.8-6.6,1.2-10.9,1.9c-3.2-20.5-6.4-41-9.6-61.5c-4.7,0.8-7.1,1.3-11.7,2.1
				C171.1-389.4,170.8-391.4,170.1-395.5z"/>
			<path class="st0" d="M225.5-374c6.1-1,9.2-1.4,15.3-2.4c0.5,4.1,0.8,6.2,1.3,10.3c-6.1,0.9-9.2,1.4-15.3,2.3
				c1.2,8.4,1.7,12.6,2.9,21.1c7.6-1.2,11.4-1.8,19-2.9c0.5,4.1,0.8,6.2,1.3,10.3c-10,1.5-19.9,3-29.8,4.7
				c-3.4-24-6.9-47.9-10.3-71.9c10.3-1.7,20.6-3.3,30.9-4.8c0.5,4.1,0.8,6.2,1.3,10.3c-7.8,1.1-11.7,1.7-19.5,3
				C223.8-386,224.4-382,225.5-374z"/>
			<path class="st0" d="M263-411.2c10.1-1.4,18.1,5.8,18.7,16c0.1,0.9,0.1,1.4,0.2,2.3c-4.3,0.5-6.4,0.8-10.6,1.4
				c-0.1-1.2-0.2-1.8-0.3-3c-0.6-5.1-2.9-6.8-6.5-6.4c-3.6,0.5-5.4,2.7-4.8,7.9c0.6,5.2,3.4,8.8,11.4,14.3
				c10.3,7.1,13.7,12.9,14.8,21c1.3,9.7-4.1,19.1-14.4,20.3c-10.6,1.2-17.2-4.3-18.6-15.8c-0.2-1.8-0.3-2.7-0.6-4.4
				c4.2-0.6,6.3-0.9,10.5-1.5c0.2,2.1,0.4,3.1,0.6,5.1c0.6,5.1,3,6.7,6.6,6.2s5.5-2.6,4.9-7.8c-0.6-5.2-3.3-8.9-11.3-14.4
				c-10.3-7-13.9-12.8-15.1-20.8C247.1-400.6,252.9-409.8,263-411.2z"/>
			<path class="st0" d="M283.2-412.9c11.7-1.4,23.4-2.8,35.1-4c0.4,4.1,0.6,6.2,0.9,10.3c-4.7,0.5-7.1,0.7-11.8,1.3
				c2,20.6,4,41.2,6,61.8c-4.4,0.5-6.6,0.7-11,1.3c-2.1-20.6-4.2-41.2-6.4-61.8c-4.7,0.6-7.1,0.8-11.8,1.4
				C283.8-406.8,283.6-408.8,283.2-412.9z"/>
			<path class="st0" d="M337.2-388.1c6.2-0.6,9.2-0.9,15.4-1.4c0.3,4.1,0.5,6.2,0.8,10.3c-6.1,0.5-9.2,0.8-15.3,1.4
				c0.7,8.5,1.1,12.7,1.8,21.1c7.6-0.7,11.5-1.1,19.1-1.7c0.3,4.1,0.5,6.2,0.8,10.3c-10,0.9-20,1.8-30,2.8
				c-2.2-24-4.3-48.1-6.5-72.1c10.3-1.1,20.7-2,31-2.9c0.3,4.1,0.5,6.2,0.8,10.3c-7.8,0.7-11.7,1-19.6,1.8
				C336.2-400.2,336.5-396.2,337.2-388.1z"/>
			<path class="st0" d="M377.4-422.1c7.2-0.5,10.8-0.8,18-1.2c10.5-1.2,17.9,6.6,17.9,16.9c0.6,12.2,1.2,24.3,1.8,36.5
				c0.6,11.6-4.6,18.1-15.6,18.8c-7,0.4-10.5,0.7-17.4,1.2C380.5-374,378.9-398.1,377.4-422.1z M389.4-412.6c1,17.2,2,34.4,3,51.6
				c2.5-0.2,3.7-0.3,6.2-0.4c3.5-0.2,5.5-2.2,5.3-7.4c-0.7-12.5-1.3-25-2-37.5c-0.3-5.2-2.5-6.9-6.1-6.7
				C393.2-412.8,392-412.8,389.4-412.6z"/>
			<path class="st0" d="M432.3-394.8c6.2-0.3,9.3-0.4,15.4-0.6c0.1,4.1,0.2,6.2,0.3,10.3c-6.1,0.2-9.2,0.3-15.4,0.6
				c0.3,8.5,0.5,12.7,0.8,21.1c7.7-0.3,11.5-0.5,19.1-0.8c0.1,4.1,0.2,6.2,0.3,10.3c-10,0.3-20,0.8-30.1,1.3
				c-1.1-24.1-2.1-48.1-3.2-72.2c10.4-0.5,20.7-0.9,31.1-1.3c0.1,4.1,0.2,6.2,0.3,10.3c-7.8,0.3-11.8,0.4-19.6,0.7
				C431.8-406.8,432-402.8,432.3-394.8z"/>
			<path class="st0" d="M511-354.8c-4.5,0-6.7,0-11.1,0.1c-0.8-5.2-1.2-7.8-2-13.1c-5.4,0-8.2,0.1-13.6,0.2c-0.7,5.2-1,7.9-1.7,13.1
				c-4.1,0.1-6.1,0.1-10.1,0.2c3.3-24.1,6.6-48.3,10.1-72.4c6.7-0.1,10-0.1,16.7-0.2C503.3-402.9,507.2-378.9,511-354.8z
				 M485.5-377.5c4.3-0.1,6.4-0.1,10.7-0.1c-1.9-12.1-3.8-24.3-5.7-36.4c-0.1,0-0.1,0-0.2,0C488.7-401.8,487.1-389.7,485.5-377.5z"
				/>
			<path class="st0" d="M539.2-354.7c-0.6-1.9-1-3-0.9-8.9c0-4.5,0.1-6.8,0.1-11.3c0.1-6.7-2.1-9.2-7.2-9.2c-1.5,0-2.3,0-3.9,0
				c-0.1,9.8-0.1,19.6-0.2,29.3c-4.4,0-6.6,0-11,0c0-24,0-48.1,0-72.1c6.9,0,10.3,0,17.2,0.1c11.8,0.1,16.8,5.7,16.6,16.8
				c0,2.3-0.1,3.4-0.1,5.7c-0.1,7.4-2.5,12.1-7.6,14.4c0,0.1,0,0.1,0,0.2c5.6,2.5,7.3,7.8,7.2,15.4c-0.1,4.4-0.1,6.7-0.2,11.1
				c-0.1,3.5,0,6.1,1.1,8.8C545.9-354.6,543.7-354.6,539.2-354.7z M527.5-416.5c0,8.9-0.1,13.3-0.1,22.1c1.8,0,2.6,0,4.4,0
				c4.2,0,6.8-1.8,6.8-7.5c0-2.8,0-4.3,0.1-7.1c0.1-5.1-1.7-7.4-5.7-7.5C530.8-416.5,529.7-416.5,527.5-416.5z"/>
			<path class="st0" d="M579.5-353.7c-0.5-1.9-0.9-3-0.7-8.9c0.1-4.5,0.2-6.8,0.3-11.3c0.2-6.7-2-9.2-7-9.4c-1.5,0-2.3-0.1-3.9-0.1
				c-0.2,9.8-0.5,19.5-0.7,29.3c-4.4-0.1-6.6-0.2-11-0.3c0.5-24,0.9-48,1.4-72c6.9,0.2,10.3,0.3,17.2,0.5
				c11.8,0.4,16.7,6.1,16.3,17.2c-0.1,2.3-0.1,3.4-0.2,5.6c-0.3,7.4-2.8,12-7.9,14.2c0,0.1,0,0.1,0,0.2c5.5,2.6,7.2,8,6.9,15.5
				c-0.2,4.4-0.2,6.7-0.4,11.1c-0.1,3.5-0.1,6.1,0.9,8.8C586.2-353.4,584-353.5,579.5-353.7z M569-415.7c-0.2,8.8-0.3,13.3-0.5,22.1
				c1.8,0.1,2.6,0.1,4.4,0.1c4.2,0.1,6.8-1.6,7-7.4c0.1-2.8,0.1-4.3,0.2-7.1c0.2-5.1-1.5-7.5-5.6-7.6
				C572.3-415.6,571.2-415.7,569-415.7z"/>
			<path class="st0" d="M610.4-424.3c-0.8,18.5-1.6,36.9-2.4,55.4c-0.2,5.1,1.9,7.1,5.4,7.3c3.5,0.2,5.8-1.5,6.1-6.6
				c0.9-18.5,1.8-36.9,2.7-55.4c4.3,0.3,6.5,0.4,10.8,0.7c-1,18.2-2,36.4-3,54.6c-0.6,11.5-6.6,17.7-17.4,17.1
				c-10.8-0.6-16.2-7.4-15.7-18.9c0.7-18.2,1.4-36.5,2.1-54.7C603.6-424.6,605.9-424.5,610.4-424.3z"/>
			<path class="st0" d="M661.3-369.7c0.1,0,0.1,0,0.2,0c3.7-16.7,7.4-33.5,11.2-50.2c6.3,0.6,9.5,0.8,15.8,1.4
				c-1.9,23.8-3.8,47.6-5.8,71.5c-4.2-0.4-6.2-0.6-10.4-0.9c1.3-17.1,2.6-34.2,3.9-51.3c-0.1,0-0.1,0-0.2,0
				c-3.8,16.9-7.6,33.8-11.3,50.6c-4.2-0.3-6.2-0.5-10.4-0.8c-1.6-17.1-3.2-34.2-4.8-51.3c-0.1,0-0.1,0-0.2,0
				c-1.1,16.9-2.1,33.8-3.2,50.7c-3.8-0.3-5.8-0.4-9.6-0.7c1.4-23.9,2.8-47.8,4.2-71.7c6.3,0.4,9.5,0.7,15.8,1.2
				C658.2-404.1,659.7-386.9,661.3-369.7z"/>
			<path class="st0" d="M726.3-342.4c-4.4-0.5-6.6-0.8-11.1-1.3c-0.3-5.3-0.4-7.9-0.7-13.1c-5.4-0.6-8.1-0.9-13.6-1.5
				c-1.2,5.1-1.8,7.6-3,12.8c-4-0.4-6.1-0.6-10.1-1c5.7-23.4,11.6-46.9,17.5-70.2c6.7,0.7,10,1.1,16.6,1.8
				C723.5-390.8,725-366.6,726.3-342.4z M703.3-367.8c4.3,0.4,6.4,0.7,10.7,1.2c-0.6-12.2-1.3-24.4-1.9-36.6c-0.1,0-0.1,0-0.2,0
				C709-391.5,706.1-379.6,703.3-367.8z"/>
			<path class="st0" d="M766.3-364.1c-0.5,3.8-0.7,5.7-1.1,9.4c-1.3,10.5-6.9,16.2-16.3,15.8c-0.1,1.3-0.2,1.9-0.4,3.2
				c4.9,0.6,7.2,2.2,6.8,5.7c-0.6,5.5-4.9,5.6-10.7,4.9c-5.4-0.7-9.4-2.4-8.9-7.1c0-0.4,0.1-0.6,0.1-1c2.9,0.4,4.4,0.5,7.4,0.9
				c0,0.3-0.1,0.5-0.1,0.8c-0.2,1.5,0.9,2.2,2,2.3c1.7,0.2,2.6-0.4,2.8-2.1c0.2-1.9-0.9-2.8-3.3-3.1c-0.4-0.1-0.6-0.1-1-0.1
				c0.2-2.1,0.3-3.1,0.6-5.2c-9-2.1-13-8.9-11.9-19.4c1.3-12.3,2.6-24.7,3.8-37c0.5-10.2,8.8-17.1,18.8-15.7
				c10,1.3,16.5,10,14.8,20.1c-0.3,2.8-0.5,4.1-0.8,6.9c-4.2-0.6-6.4-0.9-10.6-1.5c0.3-3,0.5-4.6,0.9-7.6c0.6-5.1-1.5-7.3-5-7.8
				c-3.6-0.5-6.1,1.2-6.6,6.2c-1.4,12.8-2.8,25.6-4.2,38.4c-0.6,5.1,1.5,7.2,5,7.6c3.5,0.5,5.9-1.1,6.5-6.1
				c0.5-4.1,0.7-6.1,1.2-10.1C760-365,762.1-364.7,766.3-364.1z"/>
			<path class="st0" d="M805.2-331.3c-4.4-0.7-6.6-1.1-11-1.8c-0.1-5.3-0.1-7.9-0.2-13.1c-5.4-0.8-8.1-1.3-13.5-2.1
				c-1.4,5-2.1,7.5-3.5,12.6c-4-0.6-6-0.9-10.1-1.4c6.6-23.1,13.3-46.2,20.2-69.2c6.6,1,9.9,1.5,16.6,2.6
				C804.3-379.6,804.8-355.5,805.2-331.3z M805.8-418.1c2,1.8,3,2.8,5,4.6c-2.4,4.3-5.6,6.1-9.7,5.5c-1.6-0.3-3.1-0.8-5.3-2.3
				c-1.5-1-2.5-1.5-3.7-1.7c-2.3-0.3-3.5,0.3-4.8,2.3c-2-1.8-3-2.7-5-4.6c2.3-4.3,5.5-6.2,9.7-5.6c1.9,0.3,3.4,0.9,5.3,2.3
				c1.6,1.1,2.5,1.5,3.7,1.7C803.2-415.5,804.5-416.2,805.8-418.1z M783.1-357.7c4.3,0.6,6.4,1,10.7,1.6
				c-0.1-12.2-0.3-24.4-0.5-36.6c-0.1,0-0.1,0-0.2,0C789.7-381,786.4-369.3,783.1-357.7z"/>
			<path class="st0" d="M817-384.3c1-10.3,9.8-16.6,19.7-14.8c9.9,1.8,16.4,10.6,14.3,20.8c-1.9,12.2-3.9,24.4-5.8,36.6
				c-1.8,11.3-8.8,16.3-19.4,14.7c-10.1-1.6-15.9-10.6-14-20.6C813.5-359.8,815.2-372.1,817-384.3z M822.6-345
				c-0.7,5,1.2,7.3,4.7,7.9c3.5,0.6,6-0.9,6.8-5.9c2-12.7,3.9-25.4,5.9-38c0.8-5-1.2-7.3-4.8-8c-3.6-0.6-6.1,0.9-6.9,5.9
				C826.4-370.4,824.5-357.7,822.6-345z"/>
			<path class="st0" d="M332.9-332.3c6.9-0.7,10.4-1,17.3-1.7c10.9-1,16.8,4.9,17.6,16.4c0.9,12.2,1.8,24.3,2.6,36.5
				c0.8,11.5-3.9,18.3-14.4,19.3c-6.7,0.6-10,1-16.7,1.7C337.2-284.2,335-308.3,332.9-332.3z M344.7-323.1
				c1.4,17.2,2.9,34.4,4.3,51.5c2.4-0.2,3.6-0.4,6-0.6c3.4-0.3,5.3-2.4,4.9-7.5c-1-12.5-1.9-25-2.9-37.5c-0.4-5.2-2.6-6.8-6.1-6.5
				C348.4-323.4,347.1-323.3,344.7-323.1z"/>
			<path class="st0" d="M373.8-318.6c-1.2-10,5-18.9,15.4-19.4c10.6-0.5,17,5.5,17.6,17.1c0.7,12.5,1.3,25,2,37.5
				c0.6,11.6-4.7,18.5-15.1,19.2c-10.4,0.8-16.5-5.4-17.3-16.9C375.5-293.6,374.6-306.1,373.8-318.6z M387.1-281.2
				c0.3,5.2,2.6,7,6,6.7c3.4-0.2,5.4-2.4,5.1-7.5c-0.8-13-1.5-26-2.3-39c-0.3-5.2-2.6-7-6.1-6.7c-3.5,0.2-5.5,2.4-5.2,7.5
				C385.4-307.2,386.2-294.2,387.1-281.2z"/>
			<path class="st0" d="M465.5-268.7c-4.3,0.1-6.4,0.2-10.7,0.4c-0.9-5.2-1.3-7.8-2.2-13c-5.2,0.2-7.8,0.3-13.1,0.5
				c-0.5,5.3-0.8,7.9-1.3,13.2c-3.9,0.2-5.8,0.3-9.7,0.5c2.6-24.3,5.2-48.5,8-72.7c6.4-0.3,9.6-0.4,16-0.6
				C457-316.6,461.3-292.7,465.5-268.7z M440.6-290.7c4.1-0.2,6.2-0.3,10.3-0.4c-2.1-12.1-4.2-24.2-6.3-36.3c-0.1,0-0.1,0-0.2,0
				C443.1-315.2,441.8-302.9,440.6-290.7z"/>
			<path class="st0" d="M492.6-269.4c-0.6-1.8-1-3-1.1-8.8c-0.1-4.5-0.1-6.8-0.1-11.3c-0.1-6.7-2.3-9.1-7.1-9c-1.5,0-2.2,0-3.7,0.1
				c0.2,9.8,0.3,19.6,0.5,29.4c-4.2,0.1-6.3,0.1-10.6,0.3c-0.5-24.1-1.1-48.1-1.6-72.2c6.6-0.2,9.9-0.2,16.5-0.4
				c11.4-0.2,16.3,5.3,16.4,16.4c0,2.3,0,3.4,0,5.7c0.1,7.4-2.2,12.2-6.9,14.6c0,0.1,0,0.1,0,0.2c5.4,2.3,7.2,7.6,7.2,15.2
				c0,4.5,0,6.7,0.1,11.1c0,3.5,0.1,6.1,1.2,8.7C499-269.5,496.9-269.4,492.6-269.4z M480-331c0.2,8.9,0.2,13.3,0.4,22.2
				c1.7,0,2.5-0.1,4.2-0.1c4-0.1,6.5-2,6.4-7.7c0-2.8-0.1-4.3-0.1-7.1c-0.1-5.2-1.8-7.4-5.6-7.3C483.1-331,482.1-331,480-331z"/>
			<path class="st0" d="M531.6-290.4c0.1,0,0.1,0,0.2,0c2.5-17,5.1-34.1,7.8-51.1c6.1,0.1,9.1,0.1,15.2,0.3c-0.5,24-0.9,48-1.4,72
				c-4-0.1-6-0.1-10-0.2c0.2-17.2,0.5-34.4,0.7-51.6c-0.1,0-0.1,0-0.2,0c-2.7,17.2-5.3,34.4-7.8,51.6c-4,0-6-0.1-10-0.1
				c-2.5-17-5-34-7.6-51c-0.1,0-0.1,0-0.2,0c0,17,0,34-0.1,51c-3.7,0-5.5,0-9.2,0c-0.1-24-0.2-48.1-0.2-72.1c6.1,0,9.1,0,15.2,0
				C526.6-324.6,529.1-307.5,531.6-290.4z"/>
			<path class="st0" d="M595.4-267.9c-4.3-0.2-6.4-0.3-10.7-0.4c-0.6-5.2-0.8-7.9-1.4-13.1c-5.2-0.2-7.8-0.3-13.1-0.4
				c-0.9,5.2-1.3,7.8-2.2,13c-3.9-0.1-5.8-0.2-9.7-0.2c4.1-23.9,8.4-47.8,12.7-71.7c6.4,0.2,9.6,0.3,16,0.6
				C589.9-316.1,592.7-292,595.4-267.9z M591.3-355.3c-4.3,4.4-6.4,6.6-10.6,11c-3-0.1-4.4-0.2-7.4-0.3c2.8-4.5,4.3-6.7,7.1-11.2
				C584.8-355.5,587-355.4,591.3-355.3z M571.9-291.6c4.1,0.1,6.2,0.2,10.3,0.3c-1.3-12.2-2.6-24.4-4-36.5c-0.1,0-0.1,0-0.2,0
				C575.9-315.7,573.9-303.7,571.9-291.6z"/>
			<path class="st0" d="M622.4-266.5c-0.5-1.9-0.8-3-0.5-8.9c0.2-4.5,0.4-6.8,0.6-11.3c0.4-6.7-1.7-9.3-6.5-9.5
				c-1.5-0.1-2.2-0.1-3.7-0.2c-0.5,9.7-0.9,19.5-1.4,29.2c-4.2-0.2-6.3-0.3-10.6-0.5c1-23.9,2-47.9,3-71.8c6.6,0.3,9.9,0.5,16.5,0.9
				c11.3,0.7,15.9,6.4,15.3,17.5c-0.1,2.3-0.2,3.4-0.3,5.6c-0.4,7.4-3,11.9-7.9,14c0,0.1,0,0.1,0,0.2c5.2,2.7,6.7,8.1,6.3,15.6
				c-0.3,4.4-0.4,6.6-0.6,11.1c-0.2,3.5-0.3,6,0.6,8.8C628.8-266.1,626.7-266.3,622.4-266.5z M613.8-328.7c-0.4,8.8-0.6,13.2-1.1,22
				c1.7,0.1,2.5,0.1,4.2,0.2c4,0.2,6.6-1.5,6.9-7.2c0.1-2.8,0.2-4.2,0.4-7.1c0.3-5.1-1.3-7.5-5.2-7.7
				C616.9-328.5,615.9-328.6,613.8-328.7z"/>
			<path class="st0" d="M643.3-337.1c4.4,0.3,6.6,0.5,10.9,0.8c-1.6,23.9-3.2,47.7-4.8,71.6c-4.2-0.3-6.3-0.5-10.6-0.8
				C640.4-289.3,641.8-313.2,643.3-337.1z"/>
			<path class="st0" d="M660.1-318.5c0.8-11.4,7.3-17.3,17.9-16.6c10.2,0.7,16.4,9.6,15,19.5c-1.1,12.4-2.1,24.7-3.2,37.1
				c-1,11.4-7.2,17.4-17.6,16.5c-10.4-0.9-15.6-7.9-14.7-19.3C658.4-293.7,659.2-306.1,660.1-318.5z M668.1-279.7
				c-0.4,5.1,1.6,7.2,5,7.5s5.7-1.4,6.1-6.5c1-12.9,2.1-25.7,3.1-38.6c0.4-5.1-1.6-7.2-5.1-7.6c-3.5-0.3-5.8,1.4-6.2,6.5
				C670-305.5,669.1-292.6,668.1-279.7z"/>
		</g>
		<g>
			<path class="st1" d="M175.1-399.8c11.6-2.1,23.3-4.1,35-6c0.6,4.1,0.9,6.2,1.5,10.3c-4.7,0.8-7.1,1.2-11.8,2
				c3,20.5,6.1,41,9.1,61.6c-4.4,0.8-6.6,1.1-10.9,1.9c-3.2-20.5-6.3-41-9.5-61.5c-4.7,0.8-7.1,1.3-11.8,2.1
				C176.1-393.7,175.8-395.7,175.1-399.8z"/>
			<path class="st1" d="M230.5-378.2c6.1-1,9.2-1.4,15.4-2.3c0.5,4.1,0.8,6.2,1.3,10.3c-6.1,0.9-9.2,1.4-15.3,2.3
				c1.1,8.4,1.7,12.6,2.8,21.1c7.6-1.2,11.4-1.8,19-2.9c0.5,4.1,0.8,6.2,1.3,10.3c-10,1.4-20,3-29.9,4.6c-3.4-24-6.7-47.9-10.1-71.9
				c10.3-1.7,20.6-3.2,30.9-4.7c0.5,4.1,0.8,6.2,1.3,10.3c-7.8,1.1-11.7,1.7-19.5,2.9C228.9-390.2,229.4-386.2,230.5-378.2z"/>
			<path class="st1" d="M268.2-415.3c10.1-1.3,18.2,5.9,18.7,16c0.1,0.9,0.1,1.4,0.2,2.3c-4.3,0.5-6.4,0.8-10.7,1.3
				c-0.1-1.2-0.2-1.8-0.3-3c-0.6-5.1-2.9-6.8-6.5-6.4c-3.6,0.5-5.4,2.7-4.8,7.9c0.6,5.2,3.4,8.8,11.4,14.4c10.3,7.1,13.7,13,14.7,21
				c1.3,9.7-4.2,19.1-14.4,20.2c-10.6,1.2-17.2-4.3-18.6-15.9c-0.2-1.8-0.3-2.7-0.5-4.4c4.2-0.6,6.3-0.9,10.5-1.5
				c0.2,2.1,0.4,3.1,0.6,5.1c0.6,5.1,3,6.7,6.5,6.2s5.5-2.6,4.9-7.8c-0.6-5.3-3.3-8.9-11.3-14.4c-10.3-7.1-13.9-12.8-15-20.8
				C252.2-404.7,258.1-413.9,268.2-415.3z"/>
			<path class="st1" d="M288.4-416.9c11.7-1.4,23.5-2.7,35.2-3.9c0.4,4.1,0.6,6.2,0.9,10.3c-4.7,0.5-7.1,0.7-11.9,1.2
				c2,20.6,3.9,41.2,5.9,61.8c-4.4,0.5-6.6,0.7-11,1.2c-2.1-20.6-4.1-41.2-6.2-61.8c-4.7,0.5-7.1,0.8-11.8,1.4
				C289-410.8,288.8-412.8,288.4-416.9z"/>
			<path class="st1" d="M342.4-392c6.2-0.6,9.3-0.8,15.4-1.4c0.3,4.1,0.5,6.2,0.8,10.3c-6.1,0.5-9.2,0.8-15.4,1.4
				c0.7,8.5,1,12.7,1.7,21.1c7.6-0.7,11.5-1.1,19.1-1.7c0.3,4.1,0.4,6.2,0.7,10.3c-10,0.8-20,1.7-30,2.8
				c-2.1-24.1-4.2-48.1-6.3-72.2c10.4-1,20.7-2,31.1-2.8c0.3,4.1,0.4,6.2,0.7,10.3c-7.8,0.6-11.8,1-19.6,1.7
				C341.4-404.1,341.8-400,342.4-392z"/>
			<path class="st1" d="M382.8-425.8c7.2-0.5,10.8-0.7,18.1-1.2c10.5-1.2,18,6.6,17.8,16.9c0.6,12.2,1.1,24.3,1.7,36.5
				c0.5,11.6-4.6,18.1-15.6,18.8c-7,0.4-10.5,0.7-17.5,1.2C385.7-377.7,384.2-401.8,382.8-425.8z M394.8-416.3
				c1,17.2,1.9,34.4,2.9,51.6c2.5-0.2,3.7-0.2,6.2-0.4c3.5-0.2,5.6-2.2,5.3-7.3c-0.6-12.5-1.3-25-1.9-37.5c-0.3-5.2-2.5-6.9-6.1-6.7
				C398.6-416.5,397.3-416.4,394.8-416.3z"/>
			<path class="st1" d="M437.7-398.3c6.2-0.3,9.3-0.4,15.5-0.6c0.1,4.1,0.2,6.2,0.3,10.3c-6.2,0.2-9.2,0.3-15.4,0.6
				c0.3,8.5,0.5,12.7,0.8,21.1c7.7-0.3,11.5-0.5,19.2-0.7c0.1,4.1,0.2,6.2,0.3,10.3c-10,0.3-20.1,0.7-30.1,1.2
				c-1-24.1-2-48.1-3-72.2c10.4-0.5,20.8-0.9,31.2-1.2c0.1,4.1,0.2,6.2,0.3,10.3c-7.9,0.2-11.8,0.4-19.6,0.7
				C437.2-410.4,437.4-406.4,437.7-398.3z"/>
			<path class="st1" d="M516.4-358.2c-4.5,0-6.7,0-11.1,0c-0.8-5.2-1.2-7.8-2-13.1c-5.5,0-8.2,0.1-13.6,0.1
				c-0.7,5.2-1.1,7.9-1.7,13.1c-4.1,0.1-6.1,0.1-10.1,0.2c3.3-24.1,6.8-48.2,10.3-72.3c6.7-0.1,10-0.1,16.7-0.1
				C508.8-406.2,512.6-382.2,516.4-358.2z M490.9-380.9c4.3-0.1,6.5-0.1,10.8-0.1c-1.8-12.1-3.7-24.3-5.6-36.4c-0.1,0-0.1,0-0.2,0
				C494.2-405.2,492.6-393.1,490.9-380.9z"/>
			<path class="st1" d="M544.6-357.9c-0.6-1.9-1-3-0.9-8.9c0.1-4.5,0.1-6.8,0.2-11.3c0.1-6.7-2.1-9.2-7.2-9.3c-1.5,0-2.3,0-3.9,0
				c-0.1,9.8-0.2,19.6-0.2,29.3c-4.4,0-6.6-0.1-11-0.1c0.1-24,0.1-48,0.2-72.1c6.9,0,10.3,0.1,17.2,0.2c11.8,0.2,16.8,5.8,16.6,16.9
				c0,2.3-0.1,3.4-0.1,5.7c-0.1,7.4-2.6,12.1-7.6,14.3c0,0.1,0,0.1,0,0.2c5.6,2.5,7.3,7.9,7.2,15.4c-0.1,4.4-0.1,6.7-0.2,11.1
				c-0.1,3.5,0,6.1,1,8.8C551.4-357.8,549.1-357.8,544.6-357.9z M533.1-419.8c-0.1,8.9-0.1,13.3-0.2,22.1c1.8,0,2.6,0,4.4,0.1
				c4.2,0.1,6.8-1.7,6.9-7.5c0-2.8,0.1-4.3,0.1-7.1c0.1-5.1-1.7-7.4-5.7-7.5C536.4-419.8,535.3-419.8,533.1-419.8z"/>
			<path class="st1" d="M585-356.8c-0.5-1.9-0.9-3-0.7-8.9c0.1-4.5,0.2-6.8,0.4-11.3c0.2-6.7-1.9-9.2-7-9.4
				c-1.5-0.1-2.3-0.1-3.9-0.1c-0.3,9.8-0.5,19.5-0.8,29.3c-4.4-0.1-6.6-0.2-11-0.3c0.5-24,1.1-48,1.6-72c6.9,0.2,10.3,0.3,17.2,0.6
				c11.8,0.4,16.7,6.2,16.3,17.2c-0.1,2.3-0.1,3.4-0.2,5.6c-0.3,7.4-2.8,12-7.9,14.2c0,0.1,0,0.1,0,0.2c5.5,2.6,7.2,8,6.9,15.5
				c-0.2,4.4-0.3,6.7-0.4,11.1c-0.1,3.5-0.1,6.1,0.9,8.8C591.8-356.5,589.5-356.6,585-356.8z M574.6-418.9
				c-0.2,8.8-0.4,13.3-0.6,22.1c1.8,0.1,2.6,0.1,4.4,0.2c4.2,0.2,6.8-1.6,7-7.3c0.1-2.8,0.1-4.3,0.2-7.1c0.2-5.1-1.5-7.5-5.5-7.6
				C577.9-418.7,576.8-418.8,574.6-418.9z"/>
			<path class="st1" d="M616.2-427.3c-0.9,18.5-1.7,36.9-2.6,55.4c-0.2,5.1,1.9,7.1,5.4,7.3c3.5,0.2,5.8-1.5,6.1-6.6
				c1-18.4,1.9-36.9,2.9-55.3c4.3,0.3,6.5,0.4,10.8,0.7c-1,18.2-2.1,36.4-3.1,54.6c-0.7,11.5-6.6,17.6-17.5,17
				c-10.8-0.6-16.2-7.4-15.7-18.9c0.8-18.2,1.5-36.5,2.3-54.7C609.3-427.6,611.6-427.5,616.2-427.3z"/>
			<path class="st1" d="M666.9-372.6c0.1,0,0.1,0,0.2,0c3.7-16.7,7.5-33.4,11.3-50.1c6.3,0.6,9.5,0.9,15.8,1.5
				c-2,23.8-4,47.6-5.9,71.4c-4.2-0.4-6.2-0.6-10.4-1c1.3-17.1,2.7-34.2,4-51.3c-0.1,0-0.1,0-0.2,0c-3.9,16.9-7.7,33.7-11.4,50.6
				c-4.2-0.4-6.3-0.5-10.4-0.9c-1.5-17.1-3.1-34.2-4.7-51.3c-0.1,0-0.1,0-0.2,0c-1.1,16.9-2.2,33.8-3.3,50.6
				c-3.8-0.3-5.8-0.4-9.6-0.7c1.5-23.9,2.9-47.8,4.4-71.7c6.3,0.5,9.5,0.7,15.9,1.2C663.9-406.9,665.5-389.8,666.9-372.6z"/>
			<path class="st1" d="M732-345c-4.4-0.5-6.7-0.8-11.1-1.3c-0.2-5.3-0.4-7.9-0.6-13.1c-5.4-0.6-8.2-0.9-13.6-1.5
				c-1.2,5.1-1.9,7.6-3.1,12.7c-4-0.4-6.1-0.6-10.1-1c5.8-23.4,11.7-46.8,17.7-70.2c6.7,0.7,10,1.1,16.7,1.9
				C729.4-393.4,730.7-369.2,732-345z M709-370.5c4.3,0.5,6.4,0.7,10.7,1.2c-0.6-12.2-1.2-24.4-1.8-36.6c-0.1,0-0.1,0-0.2,0
				C714.8-394.2,711.9-382.3,709-370.5z"/>
			<path class="st1" d="M772.1-366.6c-0.5,3.8-0.7,5.7-1.2,9.4c-1.3,10.5-7,16.2-16.3,15.8c-0.2,1.3-0.2,1.9-0.4,3.2
				c4.9,0.7,7.2,2.2,6.8,5.8c-0.7,5.5-4.9,5.6-10.7,4.8c-5.5-0.7-9.4-2.4-8.9-7.1c0-0.4,0.1-0.6,0.1-1c2.9,0.4,4.4,0.6,7.4,0.9
				c0,0.3-0.1,0.5-0.1,0.8c-0.2,1.5,0.9,2.2,2,2.3c1.7,0.2,2.6-0.4,2.8-2.1c0.2-1.9-0.9-2.8-3.3-3.1c-0.4-0.1-0.6-0.1-1-0.1
				c0.2-2.1,0.4-3.1,0.6-5.2c-9-2.1-13-9-11.9-19.4c1.3-12.3,2.6-24.7,3.9-37c0.5-10.2,8.9-17,18.9-15.7c10,1.4,16.5,10.1,14.8,20.2
				c-0.3,2.8-0.5,4.1-0.8,6.9c-4.2-0.6-6.4-0.9-10.6-1.5c0.4-3,0.5-4.6,0.9-7.6c0.6-5.1-1.4-7.3-5-7.8s-6.1,1.1-6.6,6.2
				c-1.4,12.8-2.9,25.6-4.3,38.4c-0.6,5.1,1.4,7.2,4.9,7.7s5.9-1.1,6.5-6.1c0.5-4.1,0.7-6.1,1.2-10.1
				C765.8-367.5,767.9-367.2,772.1-366.6z"/>
			<path class="st1" d="M811-333.7c-4.4-0.7-6.6-1.1-11.1-1.8c0-5.3-0.1-7.9-0.1-13.1c-5.4-0.9-8.1-1.3-13.5-2.1
				c-1.4,5-2.1,7.5-3.6,12.6c-4-0.6-6-0.9-10.1-1.5c6.7-23.1,13.5-46.1,20.4-69.2c6.6,1,10,1.5,16.6,2.6
				C810.2-382,810.7-357.8,811-333.7z M811.8-420.5c2,1.9,3,2.8,5,4.6c-2.4,4.3-5.6,6.1-9.7,5.4c-1.7-0.3-3.1-0.8-5.3-2.3
				c-1.5-1-2.5-1.5-3.7-1.7c-2.3-0.4-3.5,0.3-4.8,2.2c-2-1.8-3-2.7-5-4.6c2.3-4.3,5.5-6.2,9.7-5.5c1.9,0.3,3.4,0.9,5.3,2.3
				c1.6,1.1,2.5,1.5,3.7,1.7C809.2-417.9,810.5-418.5,811.8-420.5z M789-360.1c4.3,0.7,6.4,1,10.7,1.7c-0.1-12.2-0.3-24.4-0.4-36.6
				c-0.1,0-0.1,0-0.2,0C795.6-383.4,792.3-371.8,789-360.1z"/>
			<path class="st1" d="M822.9-386.6c1-10.3,9.9-16.5,19.8-14.7c9.9,1.8,16.4,10.7,14.3,20.9c-2,12.2-4,24.4-5.9,36.6
				c-1.8,11.2-8.9,16.3-19.5,14.6c-10.1-1.6-15.9-10.7-14-20.6C819.4-362.2,821.1-374.4,822.9-386.6z M828.5-347.3
				c-0.8,5,1.1,7.3,4.6,8c3.5,0.6,6-0.9,6.8-5.9c2-12.7,4-25.3,6-38c0.8-5-1.2-7.4-4.7-8c-3.6-0.6-6.1,0.9-6.9,5.9
				C832.3-372.7,830.4-360,828.5-347.3z"/>
			<path class="st1" d="M338-336.2c6.9-0.7,10.4-1,17.3-1.6c10.9-1,16.8,4.9,17.6,16.5c0.8,12.2,1.7,24.3,2.5,36.5
				c0.8,11.6-3.9,18.2-14.5,19.2c-6.7,0.6-10,0.9-16.7,1.6C342.1-288.1,340-312.1,338-336.2z M349.7-326.9
				c1.4,17.2,2.8,34.4,4.2,51.5c2.4-0.2,3.6-0.3,6-0.6c3.4-0.3,5.3-2.3,4.9-7.5c-0.9-12.5-1.9-25-2.8-37.5c-0.4-5.2-2.6-6.8-6.1-6.5
				C353.4-327.3,352.2-327.1,349.7-326.9z"/>
			<path class="st1" d="M378.8-322.3c-1.1-10,5.3-18.7,15.4-19.4c10.1-0.7,17.6,7.1,17.6,17.1c0.6,12.5,1.3,25,1.9,37.5
				c0.6,11.6-4.8,18.5-15.1,19.2c-10.4,0.7-16.5-5.4-17.3-17C380.5-297.3,379.7-309.8,378.8-322.3z M392.1-284.9
				c0.3,5.2,2.6,7,5.9,6.7c3.4-0.2,5.4-2.3,5.1-7.5c-0.7-13-1.5-26-2.2-39c-0.3-5.2-2.6-7-6.1-6.7c-3.5,0.2-5.5,2.4-5.2,7.5
				C390.5-310.9,391.3-297.9,392.1-284.9z"/>
			<path class="st1" d="M470.6-272.2c-4.3,0.1-6.4,0.2-10.7,0.3c-0.9-5.2-1.3-7.8-2.2-13c-5.2,0.2-7.9,0.3-13.1,0.5
				c-0.6,5.3-0.8,7.9-1.4,13.2c-3.9,0.2-5.8,0.3-9.7,0.5c2.6-24.2,5.4-48.5,8.2-72.7c6.4-0.3,9.6-0.4,16.1-0.6
				C462.2-320.1,466.5-296.2,470.6-272.2z M445.7-294.3c4.1-0.2,6.2-0.3,10.3-0.4c-2-12.1-4.1-24.2-6.2-36.3c-0.1,0-0.1,0-0.2,0
				C448.2-318.7,446.9-306.5,445.7-294.3z"/>
			<path class="st1" d="M497.7-272.8c-0.6-1.8-1-3-1-8.8c0-4.5-0.1-6.8-0.1-11.3c-0.1-6.7-2.2-9.1-7.1-9.1c-1.5,0-2.2,0-3.7,0.1
				c0.1,9.8,0.3,19.6,0.4,29.4c-4.2,0.1-6.4,0.1-10.6,0.2c-0.5-24.1-1-48.1-1.5-72.2c6.6-0.2,9.9-0.2,16.6-0.3
				c11.4-0.2,16.3,5.3,16.3,16.4c0,2.3,0,3.4,0,5.7c0,7.4-2.2,12.2-7,14.6c0,0.1,0,0.1,0,0.2c5.4,2.3,7.2,7.7,7.2,15.2
				c0,4.4,0,6.7,0,11.1c0,3.5,0.1,6.1,1.2,8.7C504.2-272.8,502-272.8,497.7-272.8z M485.2-334.4c0.1,8.9,0.2,13.3,0.3,22.2
				c1.7,0,2.5,0,4.2-0.1c4-0.1,6.5-1.9,6.4-7.7c0-2.8,0-4.3-0.1-7.1c0-5.2-1.8-7.4-5.6-7.3C488.4-334.5,487.3-334.4,485.2-334.4z"/>
			<path class="st1" d="M536.8-293.7c0.1,0,0.1,0,0.2,0c2.6-17,5.2-34,7.9-51c6.1,0.1,9.2,0.2,15.3,0.3c-0.5,24-1,48-1.5,72
				c-4-0.1-6-0.1-10-0.2c0.3-17.2,0.6-34.4,0.8-51.6c-0.1,0-0.1,0-0.2,0c-2.7,17.2-5.4,34.3-8,51.5c-4-0.1-6-0.1-10-0.1
				c-2.5-17-5-34-7.5-51c-0.1,0-0.1,0-0.2,0c-0.1,17-0.1,34-0.2,51c-3.7,0-5.5,0-9.2,0c0-24,0-48.1-0.1-72.1c6.1,0,9.2,0,15.3,0.1
				C531.9-327.9,534.4-310.8,536.8-293.7z"/>
			<path class="st1" d="M600.7-271c-4.3-0.2-6.4-0.3-10.7-0.5c-0.5-5.2-0.8-7.9-1.4-13.1c-5.2-0.2-7.9-0.3-13.1-0.5
				c-0.9,5.2-1.3,7.8-2.2,13c-3.9-0.1-5.8-0.2-9.7-0.3c4.2-23.9,8.5-47.8,12.9-71.6c6.4,0.2,9.6,0.3,16.1,0.6
				C595.4-319.2,598.1-295.1,600.7-271z M596.8-358.3c-4.3,4.4-6.4,6.6-10.6,11c-3-0.1-4.4-0.2-7.4-0.3c2.9-4.5,4.3-6.7,7.2-11.1
				C590.3-358.6,592.5-358.5,596.8-358.3z M577.2-294.8c4.1,0.1,6.2,0.2,10.3,0.4c-1.3-12.2-2.5-24.4-3.9-36.5c-0.1,0-0.1,0-0.2,0
				C581.3-318.9,579.3-306.8,577.2-294.8z"/>
			<path class="st1" d="M627.7-269.5c-0.5-1.9-0.8-3-0.5-8.9c0.3-4.5,0.4-6.8,0.6-11.3c0.4-6.7-1.6-9.3-6.5-9.5
				c-1.5-0.1-2.2-0.1-3.7-0.2c-0.5,9.7-1,19.5-1.5,29.2c-4.2-0.2-6.4-0.3-10.6-0.6c1.1-23.9,2.2-47.9,3.2-71.8
				c6.6,0.3,9.9,0.5,16.6,0.9c11.4,0.7,15.9,6.5,15.2,17.6c-0.1,2.3-0.2,3.4-0.3,5.6c-0.4,7.4-3,11.9-7.9,14c0,0.1,0,0.1,0,0.2
				c5.2,2.7,6.7,8.2,6.2,15.6c-0.3,4.4-0.4,6.6-0.7,11.1c-0.2,3.5-0.3,6,0.6,8.8C634.2-269.1,632-269.2,627.7-269.5z M619.3-331.7
				c-0.4,8.8-0.7,13.2-1.1,22c1.7,0.1,2.5,0.1,4.2,0.2c4,0.2,6.6-1.4,6.9-7.2c0.2-2.8,0.2-4.2,0.4-7.1c0.3-5.1-1.3-7.5-5.1-7.7
				C622.4-331.5,621.4-331.6,619.3-331.7z"/>
			<path class="st1" d="M648.9-340c4.4,0.3,6.6,0.5,11,0.9c-1.7,23.9-3.3,47.7-5,71.6c-4.2-0.3-6.3-0.5-10.6-0.8
				C645.8-292.3,647.3-316.1,648.9-340z"/>
			<path class="st1" d="M665.6-321.4c0.8-11.4,7.4-17.3,17.9-16.5c10.2,0.8,16.4,9.6,15,19.6c-1.1,12.4-2.2,24.7-3.3,37.1
				c-1,11.4-7.3,17.3-17.6,16.4c-10.4-1-15.6-7.9-14.7-19.4C663.8-296.6,664.7-309,665.6-321.4z M673.5-282.6
				c-0.4,5.1,1.6,7.2,4.9,7.5s5.7-1.4,6.1-6.5c1.1-12.9,2.2-25.7,3.2-38.6c0.4-5.1-1.6-7.3-5.1-7.6c-3.5-0.3-5.8,1.4-6.2,6.5
				C675.6-308.3,674.5-295.4,673.5-282.6z"/>
		</g>
	</g>
</g>
<g>
	<g>
		<g>
			
				<image style="overflow:visible;enable-background:new    ;" width="1908" height="596" xlink:href="CB570505.png"  transform="matrix(0.2391 0 0 0.2392 443.1165 -160.0067)">
			</image>
		</g>
		<rect x="486.3" y="-130.5" class="st1" width="384.2" height="70.5"/>
	</g>
	<g class="st2">
		<path class="st0" d="M572-79.1c0.7,0.1,1.5,0.1,2.2,0.1c2.1,0,3.7-0.8,3.7-4v-31.6h6.5v31.1c0,8.3-4.4,10.4-9.3,10.4
			c-1.2,0-2.1,0-3.1-0.1V-79.1z"/>
		<path class="st0" d="M588.4-104.7c0-6.6,3.5-10.4,9.9-10.4c6.4,0,9.9,3.8,9.9,10.4v21.5c0,6.6-3.5,10.4-9.9,10.4
			c-6.4,0-9.9-3.8-9.9-10.4V-104.7z M594.9-82.7c0,3,1.3,4.1,3.4,4.1s3.4-1.1,3.4-4.1v-22.4c0-3-1.3-4.1-3.4-4.1s-3.4,1.1-3.4,4.1
			V-82.7z"/>
		<path class="st0" d="M622.1-96.3h9.1v13.1c0,6.6-3.3,10.4-9.7,10.4s-9.7-3.8-9.7-10.4v-21.5c0-6.6,3.3-10.4,9.7-10.4
			s9.7,3.8,9.7,10.4v4H625v-4.4c0-3-1.3-4.1-3.4-4.1c-2.1,0-3.4,1.1-3.4,4.1v22.4c0,3,1.3,4,3.4,4c2.1,0,3.4-1.1,3.4-4v-7.6h-3
			V-96.3z"/>
		<path class="st0" d="M656.4-73.2h-6.6l-1.1-7.5h-8l-1.1,7.5h-6l6.6-41.4h9.5L656.4-73.2z M641.5-86.3h6.3l-3.1-20.9h-0.1
			L641.5-86.3z"/>
		<path class="st0" d="M673-73.2c-0.4-1.1-0.6-1.7-0.6-5.1v-6.5c0-3.8-1.3-5.3-4.3-5.3h-2.2v16.9h-6.5v-41.4h9.8
			c6.7,0,9.6,3.1,9.6,9.5v3.3c0,4.3-1.4,7-4.3,8.3v0.1c3.3,1.4,4.3,4.4,4.3,8.8v6.4c0,2,0.1,3.5,0.7,5H673z M665.9-108.7V-96h2.5
			c2.4,0,3.9-1.1,3.9-4.4v-4.1c0-3-1-4.3-3.3-4.3H665.9z"/>
		<path class="st0" d="M713.4-73.2h-6.6l-1.1-7.5h-8l-1.1,7.5h-6l6.6-41.4h9.5L713.4-73.2z M698.6-86.3h6.3l-3.1-20.9h-0.1
			L698.6-86.3z"/>
		<path class="st0" d="M726.1-96.3h9.1v13.1c0,6.6-3.3,10.4-9.7,10.4c-6.4,0-9.7-3.8-9.7-10.4v-21.5c0-6.6,3.3-10.4,9.7-10.4
			c6.4,0,9.7,3.8,9.7,10.4v4h-6.2v-4.4c0-3-1.3-4.1-3.4-4.1s-3.4,1.1-3.4,4.1v22.4c0,3,1.3,4,3.4,4s3.4-1.1,3.4-4v-7.6h-3V-96.3z"/>
		<path class="st0" d="M738.9-104.7c0-6.6,3.5-10.4,9.9-10.4c6.4,0,9.9,3.8,9.9,10.4v21.5c0,6.6-3.5,10.4-9.9,10.4
			c-6.4,0-9.9-3.8-9.9-10.4V-104.7z M745.4-82.7c0,3,1.3,4.1,3.4,4.1c2.1,0,3.4-1.1,3.4-4.1v-22.4c0-3-1.3-4.1-3.4-4.1
			c-2.1,0-3.4,1.1-3.4,4.1V-82.7z"/>
		<path class="st0" d="M776.5-73.2c-0.4-1.1-0.6-1.7-0.6-5.1v-6.5c0-3.8-1.3-5.3-4.3-5.3h-2.2v16.9h-6.5v-41.4h9.8
			c6.7,0,9.6,3.1,9.6,9.5v3.3c0,4.3-1.4,7-4.3,8.3v0.1c3.3,1.4,4.3,4.4,4.3,8.8v6.4c0,2,0.1,3.5,0.7,5H776.5z M769.4-108.7V-96h2.5
			c2.4,0,3.9-1.1,3.9-4.4v-4.1c0-3-1-4.3-3.3-4.3H769.4z"/>
		<path class="st0" d="M807.7-73.2h-6.6l-1.1-7.5h-8l-1.1,7.5h-6l6.6-41.4h9.5L807.7-73.2z M792.9-86.3h6.3l-3.1-20.9h-0.1
			L792.9-86.3z"/>
	</g>
	<g class="st2">
		<path class="st3" d="M574.5-79.1c0.7,0.1,1.5,0.1,2.2,0.1c2.1,0,3.7-0.8,3.7-4v-31.6h6.5v31.1c0,8.3-4.4,10.4-9.3,10.4
			c-1.2,0-2.1,0-3.1-0.1V-79.1z"/>
		<path class="st3" d="M590.9-104.7c0-6.6,3.5-10.4,9.9-10.4c6.4,0,9.9,3.8,9.9,10.4v21.5c0,6.6-3.5,10.4-9.9,10.4
			c-6.4,0-9.9-3.8-9.9-10.4V-104.7z M597.4-82.7c0,3,1.3,4.1,3.4,4.1s3.4-1.1,3.4-4.1v-22.4c0-3-1.3-4.1-3.4-4.1s-3.4,1.1-3.4,4.1
			V-82.7z"/>
		<path class="st3" d="M624.6-96.3h9.1v13.1c0,6.6-3.3,10.4-9.7,10.4s-9.7-3.8-9.7-10.4v-21.5c0-6.6,3.3-10.4,9.7-10.4
			s9.7,3.8,9.7,10.4v4h-6.2v-4.4c0-3-1.3-4.1-3.4-4.1c-2.1,0-3.4,1.1-3.4,4.1v22.4c0,3,1.3,4,3.4,4c2.1,0,3.4-1.1,3.4-4v-7.6h-3
			V-96.3z"/>
		<path class="st3" d="M658.9-73.2h-6.6l-1.1-7.5h-8l-1.1,7.5h-6l6.6-41.4h9.5L658.9-73.2z M644-86.3h6.3l-3.1-20.9h-0.1L644-86.3z"
			/>
		<path class="st3" d="M675.5-73.2c-0.4-1.1-0.6-1.7-0.6-5.1v-6.5c0-3.8-1.3-5.3-4.3-5.3h-2.2v16.9h-6.5v-41.4h9.8
			c6.7,0,9.6,3.1,9.6,9.5v3.3c0,4.3-1.4,7-4.3,8.3v0.1c3.3,1.4,4.3,4.4,4.3,8.8v6.4c0,2,0.1,3.5,0.7,5H675.5z M668.4-108.7V-96h2.5
			c2.4,0,3.9-1.1,3.9-4.4v-4.1c0-3-1-4.3-3.3-4.3H668.4z"/>
		<path class="st3" d="M715.9-73.2h-6.6l-1.1-7.5h-8l-1.1,7.5h-6l6.6-41.4h9.5L715.9-73.2z M701.1-86.3h6.3l-3.1-20.9h-0.1
			L701.1-86.3z"/>
		<path class="st3" d="M728.6-96.3h9.1v13.1c0,6.6-3.3,10.4-9.7,10.4c-6.4,0-9.7-3.8-9.7-10.4v-21.5c0-6.6,3.3-10.4,9.7-10.4
			c6.4,0,9.7,3.8,9.7,10.4v4h-6.2v-4.4c0-3-1.3-4.1-3.4-4.1s-3.4,1.1-3.4,4.1v22.4c0,3,1.3,4,3.4,4s3.4-1.1,3.4-4v-7.6h-3V-96.3z"/>
		<path class="st3" d="M741.4-104.7c0-6.6,3.5-10.4,9.9-10.4c6.4,0,9.9,3.8,9.9,10.4v21.5c0,6.6-3.5,10.4-9.9,10.4
			c-6.4,0-9.9-3.8-9.9-10.4V-104.7z M747.9-82.7c0,3,1.3,4.1,3.4,4.1c2.1,0,3.4-1.1,3.4-4.1v-22.4c0-3-1.3-4.1-3.4-4.1
			c-2.1,0-3.4,1.1-3.4,4.1V-82.7z"/>
		<path class="st3" d="M779-73.2c-0.4-1.1-0.6-1.7-0.6-5.1v-6.5c0-3.8-1.3-5.3-4.3-5.3h-2.2v16.9h-6.5v-41.4h9.8
			c6.7,0,9.6,3.1,9.6,9.5v3.3c0,4.3-1.4,7-4.3,8.3v0.1c3.3,1.4,4.3,4.4,4.3,8.8v6.4c0,2,0.1,3.5,0.7,5H779z M771.9-108.7V-96h2.5
			c2.4,0,3.9-1.1,3.9-4.4v-4.1c0-3-1-4.3-3.3-4.3H771.9z"/>
		<path class="st3" d="M810.2-73.2h-6.6l-1.1-7.5h-8l-1.1,7.5h-6l6.6-41.4h9.5L810.2-73.2z M795.4-86.3h6.3l-3.1-20.9h-0.1
			L795.4-86.3z"/>
	</g>
	<g>
		
			<image style="overflow:visible;enable-background:new    ;" width="679" height="733" xlink:href="CB570503.png"  transform="matrix(0.2389 0 0 0.2393 420.0909 -223.983)">
		</image>
	</g>
</g>
<g>
	<g>
		<defs>
			<rect id="SVGID_1_" x="117.9" y="-52.2" width="135.2" height="32.3"/>
		</defs>
		<clipPath id="SVGID_2_">
			<use xlink:href="#SVGID_1_"  style="overflow:visible;"/>
		</clipPath>
		<g style="clip-path:url(#SVGID_2_);">
			
				<image style="overflow:visible;" width="763" height="181" xlink:href="../../../Downloads/Logo_neuroclic.jpg"  transform="matrix(0.1813 0 0 0.1813 116.9965 -54.0455)">
			</image>
		</g>
	</g>
	
		<image style="overflow:visible;" width="500" height="488" xlink:href="../../../Documents/Downloads/logo_2006_para_fundo_branco.png"  transform="matrix(0.219 0 0 0.219 127.9317 -166.6612)">
	</image>
</g>
</svg>
