<?xml version="1.0" encoding="utf-8"?>
<!-- Generator: Adobe Illustrator 19.1.0, SVG Export Plug-In . SVG Version: 6.00 Build 0)  -->
<svg version="1.1" id="Layer_1" xmlns="http://www.w3.org/2000/svg" xmlns:xlink="http://www.w3.org/1999/xlink" x="0px" y="0px"
	 viewBox="0 0 800 600" style="enable-background:new 0 0 800 600;" xml:space="preserve">
<style type="text/css">
	.st0{fill:none;}
	.st1{opacity:0.78;}
	.st2{display:none;}
	.st3{fill:#FFFFFF;}
	.st4{fill:#24120C;}
	.st5{font-family:'BebasNeue';}
	.st6{font-size:81.9968px;}
	.st7{fill:#997F58;}
	.st8{font-size:24px;}
	.st9{font-size:45px;}
	.st10{font-size:30px;}
	.st11{font-size:40px;}
	.st12{fill:#998058;}
	.st13{fill-rule:evenodd;clip-rule:evenodd;fill:#010101;}
	.st14{fill-rule:evenodd;clip-rule:evenodd;fill:#0F8140;}
	.st15{fill-rule:evenodd;clip-rule:evenodd;fill:#49B749;}
	.st16{fill:#25130D;}
	.st17{font-size:42.5899px;}
</style>
<g>
	
		<image style="overflow:visible;enable-background:new    ;" width="1277" height="829" xlink:href="BBBC0EF.png"  transform="matrix(0.7652 0 0 0.7656 -88.4352 -17)">
	</image>
</g>
<rect x="741" y="177" class="st0" width="6" height="0"/>
<g class="st1">
	<g class="st2">
		
			<image style="display:inline;overflow:visible;enable-background:new    ;" width="1908" height="596" xlink:href="BBBC0EA.png"  transform="matrix(0.3635 0 0 0.6114 -31.4874 53.1352)">
		</image>
	</g>
	<rect x="47.3" y="79.5" class="st3" width="727.7" height="414.5"/>
</g>
<text transform="matrix(1 0 0 1 35.1272 96.4447)" class="st4 st5 st6">VAMOS arrumar o armário?</text>
<text transform="matrix(1 0 0 1 38.8728 94.1973)" class="st7 st5 st6">VAMOS arrumar o armário?</text>
<g>
	
		<image style="overflow:visible;" width="3092" height="1937" xlink:href="BBBC0E9.png"  transform="matrix(0.24 0 0 0.24 27 74.2505)">
	</image>
</g>
<rect x="64" y="115" class="st0" width="666.1" height="386"/>
<text transform="matrix(1 0 0 1 93.6226 146.5)"><tspan x="0" y="0" class="st5 st8">Você observará alguns</tspan><tspan x="186.3" y="0" class="st5 st9"> </tspan><tspan x="193.2" y="0" class="st5 st10">OBJETOS</tspan><tspan x="269.8" y="0" class="st5 st8"> sendo guardados em </tspan><tspan x="440" y="0" class="st5 st10">PORTAS</tspan><tspan x="509.4" y="0" class="st5 st8"> no armário. </tspan><tspan x="237.4" y="36" class="st5 st10">Memorize-os!</tspan><tspan x="-29.6" y="81" class="st5 st8">Depois</tspan><tspan x="21.1" y="81" class="st5 st8"> </tspan><tspan x="24.4" y="81" class="st5 st8">disso,</tspan><tspan x="70.6" y="81" class="st5 st8"> </tspan><tspan x="73.9" y="81" class="st5 st8">você</tspan><tspan x="111.2" y="81" class="st5 st8"> </tspan><tspan x="114.4" y="81" class="st5 st8">terá</tspan><tspan x="151.2" y="81" class="st5 st8"> </tspan><tspan x="154.5" y="81" class="st5 st8">que</tspan><tspan x="182.4" y="81" class="st5 st8"> </tspan><tspan x="185.7" y="81" class="st5 st8">lembrar</tspan><tspan x="254.4" y="81" class="st5 st8"> </tspan><tspan x="257.7" y="81" class="st5 st8">qual</tspan><tspan x="294.7" y="81" class="st5 st11"> </tspan><tspan x="300.1" y="81" class="st5 st10">OBJETO</tspan><tspan x="365.5" y="81" class="st5 st10"> </tspan><tspan x="369.6" y="81" class="st5 st8">do</tspan><tspan x="388.9" y="81" class="st5 st8"> </tspan><tspan x="392.1" y="81" class="st5 st8">conjunto</tspan><tspan x="465.1" y="81" class="st5 st8"> </tspan><tspan x="468.4" y="81" class="st5 st8">foi</tspan><tspan x="490.7" y="81" class="st5 st8"> </tspan><tspan x="494" y="81" class="st5 st8">guardado</tspan><tspan x="571.2" y="81" class="st5 st8"> </tspan><tspan x="574.5" y="81" class="st5 st8">em</tspan><tspan x="596.3" y="81" class="st5 st8"> </tspan><tspan x="599.6" y="81" class="st5 st8">qual </tspan><tspan x="-29.6" y="106" class="st5 st10">PORTA</tspan><tspan x="28.5" y="106" class="st5 st11">.</tspan><tspan x="36" y="106" class="st5 st8"> </tspan><tspan x="39.5" y="106" class="st5 st8">Basta</tspan><tspan x="86.3" y="106" class="st5 st8"> </tspan><tspan x="89.9" y="106" class="st5 st8">pressionar</tspan><tspan x="179.1" y="106" class="st5 st8"> </tspan><tspan x="182.6" y="106" class="st5 st8">o</tspan><tspan x="192.1" y="106" class="st5 st8"> </tspan><tspan x="195.7" y="106" class="st5 st8">cursor</tspan><tspan x="252.2" y="106" class="st5 st8"> </tspan><tspan x="255.8" y="106" class="st5 st8">no</tspan><tspan x="275.5" y="106" class="st5 st8"> </tspan><tspan x="279.1" y="106" class="st5 st10">OBJETO</tspan><tspan x="344.4" y="106" class="st5 st8"> </tspan><tspan x="348" y="106" class="st5 st8">e</tspan><tspan x="356.8" y="106" class="st5 st8"> </tspan><tspan x="360.4" y="106" class="st5 st8">arrastar</tspan><tspan x="436.1" y="106" class="st5 st8"> </tspan><tspan x="439.7" y="106" class="st5 st8">para</tspan><tspan x="477.9" y="106" class="st5 st8"> </tspan><tspan x="481.5" y="106" class="st5 st8">a</tspan><tspan x="491.2" y="106" class="st5 st8"> </tspan><tspan x="494.8" y="106" class="st5 st10">PORTA</tspan><tspan x="552.9" y="106" class="st5 st10"> </tspan><tspan x="557.3" y="106" class="st5 st8">onde</tspan><tspan x="595.7" y="106" class="st5 st8"> </tspan><tspan x="599.3" y="106" class="st5 st8">você </tspan><tspan x="-29.6" y="131" class="st5 st8">acha que ela estava antes. Simples, não?</tspan><tspan x="-29.6" y="181" class="st5 st8">Mas</tspan><tspan x="2.1" y="181" class="st5 st8"> </tspan><tspan x="5.6" y="181" class="st5 st8">lembre-se:</tspan><tspan x="92.5" y="181" class="st5 st8"> </tspan><tspan x="96" y="181" class="st5 st8">se</tspan><tspan x="113.8" y="181" class="st5 st8"> </tspan><tspan x="117.3" y="181" class="st5 st8">você</tspan><tspan x="154.6" y="181" class="st5 st8"> </tspan><tspan x="158" y="181" class="st5 st8">errar</tspan><tspan x="205.6" y="181" class="st5 st8"> </tspan><tspan x="209.1" y="181" class="st5 st8">três</tspan><tspan x="245.1" y="181" class="st5 st8"> </tspan><tspan x="248.6" y="181" class="st5 st8">combinações,</tspan><tspan x="355.7" y="181" class="st5 st8"> </tspan><tspan x="359.2" y="181" class="st5 st8">seja</tspan><tspan x="392.9" y="181" class="st5 st8"> </tspan><tspan x="396.4" y="181" class="st5 st8">de</tspan><tspan x="415" y="181" class="st5 st8"> </tspan><tspan x="418.5" y="181" class="st5 st10">OBJETOS</tspan><tspan x="495" y="181" class="st5 st10"> </tspan><tspan x="499.4" y="181" class="st5 st8">ou</tspan><tspan x="518.5" y="181" class="st5 st8"> </tspan><tspan x="522" y="181" class="st5 st10">PORTAS</tspan><tspan x="591.3" y="181" class="st5 st8">,</tspan><tspan x="595.8" y="181" class="st5 st8"> </tspan><tspan x="599.3" y="181" class="st5 st8">você </tspan><tspan x="-29.6" y="206" class="st5 st8">perderá a vez.</tspan><tspan x="-29.6" y="256" class="st5 st8">Exercite sua memória e veja o quão longe sua memória pode te levar.</tspan><tspan x="336.4" y="329" class="st5 st11">Pronto para começar?</tspan></text>
<g>
	<g>
		
			<image style="overflow:visible;enable-background:new    ;" width="1908" height="596" xlink:href="BBBC0F6.png"  transform="matrix(0.149 0 0 0.1491 38.8728 502.5)">
		</image>
	</g>
	<rect x="65.8" y="520.9" class="st12" width="239.5" height="43.9"/>
</g>
<g>
	<g>
		
			<image style="overflow:visible;enable-background:new    ;" width="1908" height="596" xlink:href="BBBC0F9.png"  transform="matrix(0.149 0 0 0.1491 502.9777 502.5)">
		</image>
	</g>
	<rect x="529.9" y="520.9" class="st12" width="239.5" height="43.9"/>
</g>
<g>
	
		<image style="overflow:visible;enable-background:new    ;" width="679" height="733" xlink:href="BBBC0FA.png"  transform="matrix(0.1415 0 0 0.1417 497.6409 490.9398)">
	</image>
</g>
<g>
	<path class="st13" d="M94.7,518.7c-1-0.2-1.7-0.5-1.9-0.8c-0.5,0.8-2,1.6-4.5,2.5c-2.1,0.8-3.4,2-3.7,3.4c0.5,0.5,1.4,0.9,2.8,1.4
		c1.4,0.5,2.4,1,3,1.5c2,1.9,3.2,5.2,3.7,10.1l0.5,6.4c0.2,2.5,0.6,4.7,1.1,6.6c0.2,0.7,0.5,1.6,1,2.7l0.8,2
		c0.2,2.2-0.2,4.5-0.8,6.9c-0.5,1.6-1.2,3.4-2.2,5.6c1.9-1.1,3.7-3.1,5.4-6c2.3-4,3.9-6.3,4.5-7c0.3-2.3,0.2-4.3-0.4-6l-2-4.7
		c-0.8-2.2-1.4-6.8-2-13.6c-0.5-5.4-1.6-8.6-3.2-10C96.5,519.3,95.7,519,94.7,518.7 M93.9,516.7l3.2,2.1c1.4,0.8,2.2,1.7,2.7,2.6
		c0.6,1.3,1.1,3.5,1.3,6.7l0.5,7.4c0.2,2.2,1.1,5.4,2.6,9.5c1.1,3.4,1.7,6,1.4,7.6c-0.2,1.4-1.4,4-3.6,7.6c-2.1,3.5-3.9,5.9-5.2,7.1
		l-2.5,1.5l-2.7,1.5l-2.4,1.6l-2.3,1.3l-2.9-0.3l-1.8-1.5c-1.9,1.5-5.3,2.1-10.1,1.9c-4.8-0.2-8.3-1.1-10.9-2.4
		c-1.5-0.9-3-2.6-4.5-5.2c-1.5-2.6-2.7-4.2-3.7-4.9c-0.4-12.2-0.4-20.5,0-24.7c0.8-9.3,3.1-15.6,7-19c1.7-0.1,4-0.8,6.9-2.3
		c2.9-1.5,5.3-2.3,7-2.4l3.8,0.5c1.7,0.5,2.9,0.7,3.8,0.7l4.5-1.1c2-0.5,3.4-0.4,4.3,0.5c0.8,0,1.3,0.4,1.8,1.1L93.9,516.7
		 M91,530.2l-2-2.4l-1.5-1.8c-0.9-0.4-3.2-0.7-6.9-0.9l-7.1,0.3c-2.8,1.2-4.2,3.8-4.4,7.7c-0.1,1.1,0,3,0.2,5.6l0.2,6.2
		c0,1.1-0.3,2.9-0.8,5.5c-0.4,2.1-0.5,3.5-0.3,4.5c0.5,2.7,3,6.1,7.6,10.3c4.7,4.4,8.4,6.4,11,6.2c2.1-0.2,4.2-1.6,6-4.2
		c2-2.9,3.1-6.3,3.3-9.9c0-1.2-0.3-3.1-1.1-5.7l-1.4-5.6l-0.8-9C92.8,534.2,92.1,531.9,91,530.2 M60.1,519.6l-0.4,0.8l0.4-0.2l2.8-1
		l3-0.8c0.5,0,1.2,0.2,2,0.8c0.6,0.5,1.4,0.6,2.1,0.5c2.3-2.4,6.3-4,11.6-4.7c-2-0.9-4.4-1.4-7.3-1.2c-3.1,0.2-5.1,0.9-6.1,2.4
		l1.3,0.2c0.5,0.2,0.6,0.5,0.5,1c-2-0.1-3.6,0-4.7,0.1l-4.1,0.5C61.3,518.7,60.9,519.4,60.1,519.6 M63.1,520.2
		c-1,0.2-2.3,0.9-4.1,2.2c-1.7,1.1-2.6,2-2.9,2.5c-1,1.6-1.6,4.1-1.7,7.5c-0.1,2-0.1,5.4,0,10.2l-0.7,8.6c-0.2,3.2-0.2,5.4,0.1,6.7
		c0.2,1.2,0.8,2.3,1.4,3.4l2,2.5c1.6,2.2,2.8,3.7,3.6,4.5c1.6,1.7,2.9,2.1,3.9,1.4c-3.9-2.1-6.6-7-8.2-15.1
		c-1.2-6.3-1.6-13.1-1.1-20.3c0.2-2.3,1.1-4.8,2.8-7.6c1.7-2.6,3.3-4.2,4.8-4.8l3-0.2c1.2,0.1,2.1-0.3,2.7-0.9L66,520L63.1,520.2
		 M57.2,530.7c-0.1,6.6-0.1,11.7,0,15.4c0.2,5.4,0.5,10.2,1.2,14.2c2.6,3.7,4.8,6.4,6.6,8.1c3.2,3,6.4,4.4,9.7,4.3l2.7-0.5
		c1.1-0.4,1.9-1,2.5-1.8l-3.2-3.4l-4-3.5c-3.3-3.1-5.2-6-5.5-8.5c-0.2-0.8,0-2.4,0.4-4.7c0.5-2.6,0.8-4.6,0.8-6l-0.5-6.7
		c-0.2-2.6-0.3-4.5-0.1-5.7c0.2-1.4,1-3,2.1-4.6l2.6-3.7c-3.2-1.8-6.3-1.6-9.4,0.4C60.8,525.5,58.9,527.8,57.2,530.7 M81.7,522
		c-1,0.9-2.4,1.1-4.4,0.7c-1.4-0.3-2.8-0.9-4.4-1.8c-0.2-0.5,0.2-1.1,0.8-1.7c0.5-0.6,0.5-1-0.2-1.3c-1.4,0.9-1.9,1.8-1.7,2.8
		c0.2,0.8,0.8,1.5,2.1,2.1c1.1,0.5,2.6,0.8,4.2,0.9l4.2-0.5l-0.2,0.7l-0.4,0.5c1,0.2,1.4-0.2,1.1-0.9
		C82.5,522.6,82.1,522.1,81.7,522 M80.9,519.3c-0.8-1-1.7-1.3-2.7-0.9l-0.6,1.2c-0.3,0.5-0.5,0.9-0.5,1.2h5.2
		c-0.1-0.3,0-0.8,0.2-1.2c0.2-0.3,0.1-0.5-0.2-0.6c-0.2,0.7-0.5,1-0.7,1L80.9,519.3 M84.2,521c0.6-0.2,0.9-0.5,1-0.8
		c-0.8-0.4-1.4-0.2-1.9,0.6c-0.6,0.7-0.5,1.1,0.2,1.1C83.4,521.5,83.6,521.1,84.2,521 M86.7,518.5c2,0.5,3.9,0,5.5-1.3
		c0-2-1.4-3.2-4.2-3.5c-2.9-0.4-4.8,0.2-5.7,1.8C83.3,517.1,84.8,518.1,86.7,518.5 M76,520.3c0.2,0.4,0.3,0.4,0.5-0.2
		c0.1-0.5,0-0.8-0.2-1.3c-0.2-0.5-0.4-0.4-0.5,0.1C75.8,519.4,75.8,519.9,76,520.3"/>
	<path class="st14" d="M100,529.6c0.6,6.8,1.3,11.4,2,13.6l2,4.7c0.5,1.7,0.7,3.7,0.4,6c-0.7,0.7-2.2,3-4.5,7
		c-1.7,2.9-3.6,4.9-5.4,6c1-2.1,1.7-4,2.2-5.6c0.6-2.4,0.9-4.7,0.8-6.9l-0.8-2c-0.5-1.1-0.8-2-1-2.7c-0.5-1.8-0.8-4.1-1.1-6.6
		l-0.5-6.4c-0.5-4.9-1.7-8.2-3.7-10.1c-0.6-0.5-1.6-1.1-3-1.5c-1.4-0.5-2.3-0.9-2.8-1.4c0.3-1.4,1.6-2.5,3.7-3.4
		c2.4-0.9,3.9-1.8,4.5-2.5c0.2,0.3,0.9,0.6,1.9,0.8c1.1,0.3,1.8,0.6,2.2,0.9C98.4,521,99.5,524.2,100,529.6"/>
	<path class="st14" d="M93.1,537.1l0.8,9l1.4,5.6c0.8,2.6,1.1,4.4,1.1,5.7c-0.2,3.7-1.4,7-3.3,9.9c-1.9,2.6-3.9,4.1-6,4.2
		c-2.6,0.2-6.3-1.8-11-6.2c-4.6-4.2-7.1-7.6-7.6-10.3c-0.2-1-0.1-2.4,0.3-4.5c0.5-2.6,0.8-4.4,0.8-5.5l-0.2-6.2
		c-0.2-2.6-0.2-4.5-0.2-5.6c0.2-3.9,1.6-6.5,4.4-7.7l7.1-0.3c3.8,0.2,6,0.5,6.9,0.9l1.5,1.8l2,2.4C92.1,531.9,92.8,534.2,93.1,537.1
		"/>
	<path class="st14" d="M82.3,515.4c1-1.5,2.9-2.1,5.7-1.8c2.8,0.3,4.2,1.5,4.2,3.5c-1.7,1.3-3.5,1.8-5.5,1.3
		C84.8,518.1,83.3,517.1,82.3,515.4"/>
	<path class="st15" d="M83.5,522c-0.7-0.1-0.8-0.5-0.2-1.1c0.5-0.8,1.1-1,1.9-0.6c-0.1,0.3-0.4,0.6-1,0.8S83.4,521.5,83.5,522"/>
	<path class="st15" d="M82.3,519c0.3,0.2,0.4,0.3,0.2,0.6c-0.2,0.5-0.3,0.9-0.2,1.2h-5.2c0.1-0.3,0.2-0.8,0.5-1.2l0.6-1.2
		c1.1-0.4,2-0.1,2.7,0.9l0.7,0.7C81.8,520,82,519.7,82.3,519"/>
	<path class="st15" d="M82.8,523.4c0.2,0.8-0.2,1.1-1.1,0.9l0.4-0.5l0.2-0.7l-4.2,0.5c-1.6-0.2-3-0.5-4.2-0.9
		c-1.3-0.6-2-1.3-2.1-2.1c-0.2-0.9,0.4-1.8,1.7-2.8c0.7,0.3,0.8,0.7,0.2,1.3c-0.7,0.6-1,1.1-0.8,1.7c1.6,0.9,3,1.5,4.4,1.8
		c2,0.5,3.4,0.2,4.4-0.7C82.1,522.1,82.5,522.6,82.8,523.4"/>
	<path class="st14" d="M63,524.1c3-2,6.1-2.1,9.4-0.4l-2.6,3.7c-1.1,1.6-1.9,3.2-2.1,4.6c-0.2,1.1-0.2,3.1,0.1,5.7l0.5,6.7
		c0,1.4-0.2,3.4-0.8,6c-0.4,2.3-0.5,3.8-0.4,4.7c0.3,2.5,2.2,5.4,5.5,8.5l4,3.5l3.2,3.4c-0.6,0.8-1.4,1.4-2.5,1.8l-2.7,0.5
		c-3.2,0.2-6.4-1.3-9.7-4.3c-1.8-1.7-4-4.4-6.6-8.1c-0.7-4-1.1-8.7-1.2-14.2c-0.1-3.7-0.1-8.8,0-15.4
		C58.9,527.8,60.8,525.5,63,524.1"/>
	<path class="st15" d="M75.9,519c0.1-0.5,0.2-0.5,0.5-0.1c0.2,0.5,0.2,0.8,0.2,1.3c-0.2,0.5-0.3,0.5-0.5,0.2
		C75.8,519.9,75.8,519.4,75.9,519"/>
	<path class="st14" d="M65.4,517.3c1.1-0.1,2.7-0.2,4.7-0.1c0.2-0.5,0-0.8-0.5-1l-1.3-0.2c1-1.5,3-2.3,6.1-2.4
		c2.9-0.2,5.3,0.3,7.3,1.2c-5.4,0.8-9.3,2.4-11.6,4.7c-0.8,0.2-1.5,0-2.1-0.5c-0.8-0.5-1.4-0.8-2-0.8l-3,0.8l-2.8,1l-0.4,0.2
		l0.4-0.8c0.8-0.2,1.1-0.8,1.1-1.8L65.4,517.3"/>
	<path class="st14" d="M66,520l2.8,0.8c-0.6,0.6-1.5,1-2.7,0.9l-3,0.2c-1.5,0.6-3.2,2.2-4.8,4.8c-1.7,2.8-2.6,5.3-2.8,7.6
		c-0.5,7.3-0.1,14,1.1,20.3c1.5,8,4.3,13,8.2,15.1c-1,0.7-2.3,0.3-3.9-1.4c-0.8-0.8-2-2.3-3.6-4.5l-2-2.5c-0.7-1.1-1.2-2.1-1.4-3.4
		c-0.3-1.3-0.3-3.5-0.1-6.7l0.7-8.6c-0.1-4.8-0.1-8.2,0-10.2c0.2-3.4,0.8-5.9,1.7-7.5c0.3-0.5,1.3-1.4,2.9-2.5
		c1.7-1.3,3.1-2.1,4.1-2.2L66,520"/>
</g>
<g>
	<g>
		<text transform="matrix(1 0 0 1 589.058 557.705)" class="st16 st5 st17">COMEÇAR</text>
	</g>
	<g>
		<text transform="matrix(1 0 0 1 590.8583 557.705)" class="st3 st5 st17">COMEÇAR</text>
	</g>
</g>
<g>
	<g>
		<text transform="matrix(1 0 0 1 137.1563 558.7048)" class="st16 st5 st17">CRÉDITOS</text>
	</g>
	<g>
		<text transform="matrix(1 0 0 1 138.9566 558.7048)" class="st3 st5 st17">CRÉDITOS</text>
	</g>
</g>
</svg>
