<?xml version="1.0" encoding="utf-8"?>
<!-- Generator: Adobe Illustrator 19.1.0, SVG Export Plug-In . SVG Version: 6.00 Build 0)  -->
<svg version="1.1" id="Layer_1" xmlns="http://www.w3.org/2000/svg" xmlns:xlink="http://www.w3.org/1999/xlink" x="0px" y="0px"
	 viewBox="0 0 800 600" style="enable-background:new 0 0 800 600;" xml:space="preserve">
<style type="text/css">
	.st0{fill:none;}
	.st1{opacity:0.78;}
	.st2{display:none;}
	.st3{fill:#FFFFFF;}
	.st4{enable-background:new    ;}
	.st5{fill:#24120C;}
	.st6{fill:#997F58;}
	.st7{fill:#998058;}
	.st8{fill-rule:evenodd;clip-rule:evenodd;fill:#010101;}
	.st9{fill-rule:evenodd;clip-rule:evenodd;fill:#0F8140;}
	.st10{fill-rule:evenodd;clip-rule:evenodd;fill:#49B749;}
	.st11{fill:#25130D;}
</style>
<g>
	
		<image style="overflow:visible;enable-background:new    ;" width="1277" height="829" xlink:href="C7D0C676.png"  transform="matrix(0.7652 0 0 0.7656 -88.4352 -17)">
	</image>
</g>
<rect x="741" y="177" class="st0" width="6" height="0"/>
<g class="st1">
	<g class="st2">
		
			<image style="display:inline;overflow:visible;enable-background:new    ;" width="1908" height="596" xlink:href="C7D0C67A.png"  transform="matrix(0.3635 0 0 0.6114 -31.4874 53.1352)">
		</image>
	</g>
	<rect x="47.3" y="79.5" class="st3" width="727.7" height="414.5"/>
</g>
<g class="st4">
	<path class="st5" d="M51.9,85.9h0.2L58.9,39h8.3l-8.9,57.4H44.9L36,39h9.1L51.9,85.9z"/>
	<path class="st5" d="M98.5,96.4h-9.1L87.9,86H76.8l-1.6,10.4h-8.3L76.1,39h13.2L98.5,96.4z M77.9,78.2h8.7l-4.3-29h-0.2L77.9,78.2z
		"/>
	<path class="st5" d="M121.7,79.8h0.2l6.1-40.8h12.5v57.4H132V55.3h-0.2l-6.1,41.2h-8.5l-6.6-40.6h-0.2v40.6h-7.9V39h12.5
		L121.7,79.8z"/>
	<path class="st5" d="M146.3,52.8c0-9.2,4.8-14.4,13.7-14.4c8.9,0,13.7,5.2,13.7,14.4v29.8c0,9.2-4.8,14.4-13.7,14.4
		c-8.9,0-13.7-5.2-13.7-14.4V52.8z M155.3,83.2c0,4.1,1.8,5.7,4.7,5.7c2.9,0,4.7-1.6,4.7-5.7v-31c0-4.1-1.8-5.7-4.7-5.7
		c-2.9,0-4.7,1.6-4.7,5.7V83.2z"/>
	<path class="st5" d="M191.7,38.4c8.8,0,13.3,5.2,13.3,14.4v1.8h-8.5v-2.4c0-4.1-1.6-5.7-4.5-5.7s-4.5,1.6-4.5,5.7
		c0,4.2,1.8,7.3,7.7,12.5c7.5,6.6,9.9,11.4,9.9,18c0,9.2-4.6,14.4-13.4,14.4c-8.9,0-13.4-5.2-13.4-14.4v-3.5h8.5v4.1
		c0,4.1,1.8,5.6,4.7,5.6c2.9,0,4.7-1.5,4.7-5.6c0-4.2-1.8-7.3-7.7-12.5c-7.5-6.6-9.9-11.4-9.9-18C178.4,43.6,182.9,38.4,191.7,38.4z
		"/>
	<path class="st5" d="M252.1,96.4H243L241.4,86h-11.1l-1.6,10.4h-8.3l9.2-57.4h13.2L252.1,96.4z M231.5,78.2h8.7l-4.3-29h-0.2
		L231.5,78.2z"/>
	<path class="st5" d="M275.1,96.4c-0.5-1.5-0.8-2.4-0.8-7.1v-9c0-5.3-1.8-7.3-5.9-7.3h-3.1v23.4h-9V39h13.6
		c9.3,0,13.4,4.3,13.4,13.2v4.5c0,5.9-1.9,9.7-5.9,11.6v0.2c4.5,1.9,6,6.2,6,12.1v8.9c0,2.8,0.1,4.8,1,7H275.1z M265.3,47.2v17.6
		h3.5c3.4,0,5.4-1.5,5.4-6.1v-5.7c0-4.1-1.4-5.9-4.6-5.9H265.3z"/>
	<path class="st5" d="M308.1,96.4c-0.5-1.5-0.8-2.4-0.8-7.1v-9c0-5.3-1.8-7.3-5.9-7.3h-3.1v23.4h-9V39h13.6
		c9.3,0,13.4,4.3,13.4,13.2v4.5c0,5.9-1.9,9.7-5.9,11.6v0.2c4.5,1.9,6,6.2,6,12.1v8.9c0,2.8,0.1,4.8,1,7H308.1z M298.3,47.2v17.6
		h3.5c3.4,0,5.4-1.5,5.4-6.1v-5.7c0-4.1-1.4-5.9-4.6-5.9H298.3z"/>
	<path class="st5" d="M330.8,39v44.3c0,4.1,1.8,5.6,4.7,5.6s4.7-1.5,4.7-5.6V39h8.5v43.7c0,9.2-4.6,14.4-13.4,14.4
		c-8.9,0-13.4-5.2-13.4-14.4V39H330.8z"/>
	<path class="st5" d="M373.9,79.8h0.2l6.1-40.8h12.5v57.4h-8.5V55.3h-0.2l-6.1,41.2h-8.5l-6.6-40.6h-0.2v40.6h-7.9V39h12.5
		L373.9,79.8z"/>
	<path class="st5" d="M428.4,96.4h-9.1L417.7,86h-11.1l-1.6,10.4h-8.3L406,39h13.2L428.4,96.4z M407.8,78.2h8.7l-4.3-29h-0.2
		L407.8,78.2z"/>
	<path class="st5" d="M451.4,96.4c-0.5-1.5-0.8-2.4-0.8-7.1v-9c0-5.3-1.8-7.3-5.9-7.3h-3.1v23.4h-9V39h13.6
		c9.3,0,13.4,4.3,13.4,13.2v4.5c0,5.9-1.9,9.7-5.9,11.6v0.2c4.5,1.9,6,6.2,6,12.1v8.9c0,2.8,0.1,4.8,1,7H451.4z M441.6,47.2v17.6
		h3.5c3.4,0,5.4-1.5,5.4-6.1v-5.7c0-4.1-1.4-5.9-4.6-5.9H441.6z"/>
	<path class="st5" d="M477.5,52.8c0-9.2,4.8-14.4,13.7-14.4c8.9,0,13.7,5.2,13.7,14.4v29.8c0,9.2-4.8,14.4-13.7,14.4
		c-8.9,0-13.7-5.2-13.7-14.4V52.8z M486.5,83.2c0,4.1,1.8,5.7,4.7,5.7s4.7-1.6,4.7-5.7v-31c0-4.1-1.8-5.7-4.7-5.7s-4.7,1.6-4.7,5.7
		V83.2z"/>
	<path class="st5" d="M552.6,96.4h-9.1L541.9,86h-11.1l-1.6,10.4H521l9.2-57.4h13.2L552.6,96.4z M532,78.2h8.7l-4.3-29h-0.2
		L532,78.2z"/>
	<path class="st5" d="M575.6,96.4c-0.5-1.5-0.8-2.4-0.8-7.1v-9c0-5.3-1.8-7.3-5.9-7.3h-3.1v23.4h-9V39h13.6
		c9.3,0,13.4,4.3,13.4,13.2v4.5c0,5.9-1.9,9.7-5.9,11.6v0.2c4.5,1.9,6,6.2,6,12.1v8.9c0,2.8,0.1,4.8,1,7H575.6z M565.8,47.2v17.6
		h3.5c3.4,0,5.4-1.5,5.4-6.1v-5.7c0-4.1-1.4-5.9-4.6-5.9H565.8z"/>
	<path class="st5" d="M608.8,79.8h0.2L615,39h12.5v57.4H619V55.3h-0.2l-6.1,41.2h-8.5l-6.6-40.6h-0.2v40.6h-7.9V39h12.5L608.8,79.8z
		"/>
	<path class="st5" d="M663.3,96.4h-9.1L652.6,86h-11.1L640,96.4h-8.3l9.2-57.4h13.2L663.3,96.4z M657.1,26.9l-8.4,9.1h-6.1l5.6-9.1
		H657.1z M642.7,78.2h8.7l-4.3-29H647L642.7,78.2z"/>
	<path class="st5" d="M686.3,96.4c-0.5-1.5-0.8-2.4-0.8-7.1v-9c0-5.3-1.8-7.3-5.9-7.3h-3.1v23.4h-9V39h13.6
		c9.3,0,13.4,4.3,13.4,13.2v4.5c0,5.9-1.9,9.7-5.9,11.6v0.2c4.5,1.9,6,6.2,6,12.1v8.9c0,2.8,0.1,4.8,1,7H686.3z M676.5,47.2v17.6
		h3.5c3.4,0,5.4-1.5,5.4-6.1v-5.7c0-4.1-1.4-5.9-4.6-5.9H676.5z"/>
	<path class="st5" d="M700.4,39h9v57.4h-9V39z"/>
	<path class="st5" d="M715.3,52.8c0-9.2,4.8-14.4,13.7-14.4c8.9,0,13.7,5.2,13.7,14.4v29.8c0,9.2-4.8,14.4-13.7,14.4
		c-8.9,0-13.7-5.2-13.7-14.4V52.8z M724.3,83.2c0,4.1,1.8,5.7,4.7,5.7s4.7-1.6,4.7-5.7v-31c0-4.1-1.8-5.7-4.7-5.7s-4.7,1.6-4.7,5.7
		V83.2z"/>
	<path class="st5" d="M755,83.7c-0.3-1-0.5-2.1-0.5-3.5c0-4.6,1.1-8,4.7-13c4-5.7,5.2-9.5,5.2-15c0-4.1-1.6-5.7-4.5-5.7
		s-4.5,1.6-4.5,5.7v6.2h-8.5v-5.7c0-9.2,4.5-14.4,13.3-14.4c8.8,0,13.3,5.2,13.3,14.4c0,6.2-1.6,10.6-6.1,16.5
		c-3.5,4.8-4.6,7.5-4.6,11.2c0,1.1,0.1,2.1,0.3,3.2H755z M763.3,87.8v8.7h-8.7v-8.7H763.3z"/>
</g>
<g class="st4">
	<path class="st6" d="M55.7,83.6h0.2l6.8-46.8h8.3l-8.9,57.4H48.6l-8.9-57.4h9.1L55.7,83.6z"/>
	<path class="st6" d="M102.3,94.2h-9.1l-1.6-10.4H80.5L79,94.2h-8.3l9.2-57.4h13.2L102.3,94.2z M81.7,76h8.7l-4.3-29h-0.2L81.7,76z"
		/>
	<path class="st6" d="M125.5,77.6h0.2l6.1-40.8h12.5v57.4h-8.5V53h-0.2l-6.1,41.2H121l-6.6-40.6h-0.2v40.6h-7.9V36.8h12.5
		L125.5,77.6z"/>
	<path class="st6" d="M150.1,50.6c0-9.2,4.8-14.4,13.7-14.4c8.9,0,13.7,5.2,13.7,14.4v29.8c0,9.2-4.8,14.4-13.7,14.4
		c-8.9,0-13.7-5.2-13.7-14.4V50.6z M159.1,81c0,4.1,1.8,5.7,4.7,5.7c2.9,0,4.7-1.6,4.7-5.7V50c0-4.1-1.8-5.7-4.7-5.7
		c-2.9,0-4.7,1.6-4.7,5.7V81z"/>
	<path class="st6" d="M195.4,36.1c8.8,0,13.3,5.2,13.3,14.4v1.8h-8.5V50c0-4.1-1.6-5.7-4.5-5.7s-4.5,1.6-4.5,5.7
		c0,4.2,1.8,7.3,7.7,12.5c7.5,6.6,9.9,11.4,9.9,18c0,9.2-4.6,14.4-13.4,14.4c-8.9,0-13.4-5.2-13.4-14.4v-3.5h8.5V81
		c0,4.1,1.8,5.6,4.7,5.6c2.9,0,4.7-1.5,4.7-5.6c0-4.2-1.8-7.3-7.7-12.5c-7.5-6.6-9.9-11.4-9.9-18C182.1,41.4,186.6,36.1,195.4,36.1z
		"/>
	<path class="st6" d="M255.8,94.2h-9.1l-1.6-10.4h-11.1l-1.6,10.4h-8.3l9.2-57.4h13.2L255.8,94.2z M235.3,76h8.7l-4.3-29h-0.2
		L235.3,76z"/>
	<path class="st6" d="M278.9,94.2c-0.5-1.5-0.8-2.4-0.8-7.1v-9c0-5.3-1.8-7.3-5.9-7.3H269v23.4h-9V36.8h13.6
		c9.3,0,13.4,4.3,13.4,13.2v4.5c0,5.9-1.9,9.7-5.9,11.6v0.2c4.5,1.9,6,6.2,6,12.1v8.9c0,2.8,0.1,4.8,1,7H278.9z M269,45v17.6h3.5
		c3.4,0,5.4-1.5,5.4-6.1v-5.7c0-4.1-1.4-5.9-4.6-5.9H269z"/>
	<path class="st6" d="M311.8,94.2c-0.5-1.5-0.8-2.4-0.8-7.1v-9c0-5.3-1.8-7.3-5.9-7.3H302v23.4h-9V36.8h13.6
		c9.3,0,13.4,4.3,13.4,13.2v4.5c0,5.9-1.9,9.7-5.9,11.6v0.2c4.5,1.9,6,6.2,6,12.1v8.9c0,2.8,0.1,4.8,1,7H311.8z M302,45v17.6h3.5
		c3.4,0,5.4-1.5,5.4-6.1v-5.7c0-4.1-1.4-5.9-4.6-5.9H302z"/>
	<path class="st6" d="M334.5,36.8v44.3c0,4.1,1.8,5.6,4.7,5.6s4.7-1.5,4.7-5.6V36.8h8.5v43.7c0,9.2-4.6,14.4-13.4,14.4
		c-8.9,0-13.4-5.2-13.4-14.4V36.8H334.5z"/>
	<path class="st6" d="M377.6,77.6h0.2l6.1-40.8h12.5v57.4h-8.5V53h-0.2l-6.1,41.2h-8.5l-6.6-40.6h-0.2v40.6h-7.9V36.8H371
		L377.6,77.6z"/>
	<path class="st6" d="M432.1,94.2H423l-1.6-10.4h-11.1l-1.6,10.4h-8.3l9.2-57.4h13.2L432.1,94.2z M411.5,76h8.7L416,47h-0.2
		L411.5,76z"/>
	<path class="st6" d="M455.2,94.2c-0.5-1.5-0.8-2.4-0.8-7.1v-9c0-5.3-1.8-7.3-5.9-7.3h-3.1v23.4h-9V36.8h13.6
		c9.3,0,13.4,4.3,13.4,13.2v4.5c0,5.9-1.9,9.7-5.9,11.6v0.2c4.5,1.9,6,6.2,6,12.1v8.9c0,2.8,0.1,4.8,1,7H455.2z M445.3,45v17.6h3.5
		c3.4,0,5.4-1.5,5.4-6.1v-5.7c0-4.1-1.4-5.9-4.6-5.9H445.3z"/>
	<path class="st6" d="M481.2,50.6c0-9.2,4.8-14.4,13.7-14.4c8.9,0,13.7,5.2,13.7,14.4v29.8c0,9.2-4.8,14.4-13.7,14.4
		c-8.9,0-13.7-5.2-13.7-14.4V50.6z M490.3,81c0,4.1,1.8,5.7,4.7,5.7s4.7-1.6,4.7-5.7V50c0-4.1-1.8-5.7-4.7-5.7s-4.7,1.6-4.7,5.7V81z
		"/>
	<path class="st6" d="M556.3,94.2h-9.1l-1.6-10.4h-11.1l-1.6,10.4h-8.3l9.2-57.4h13.2L556.3,94.2z M535.8,76h8.7l-4.3-29H540
		L535.8,76z"/>
	<path class="st6" d="M579.4,94.2c-0.5-1.5-0.8-2.4-0.8-7.1v-9c0-5.3-1.8-7.3-5.9-7.3h-3.1v23.4h-9V36.8h13.6
		c9.3,0,13.4,4.3,13.4,13.2v4.5c0,5.9-1.9,9.7-5.9,11.6v0.2c4.5,1.9,6,6.2,6,12.1v8.9c0,2.8,0.1,4.8,1,7H579.4z M569.5,45v17.6h3.5
		c3.4,0,5.4-1.5,5.4-6.1v-5.7c0-4.1-1.4-5.9-4.6-5.9H569.5z"/>
	<path class="st6" d="M612.5,77.6h0.2l6.1-40.8h12.5v57.4h-8.5V53h-0.2l-6.1,41.2H608l-6.6-40.6h-0.2v40.6h-7.9V36.8H606L612.5,77.6
		z"/>
	<path class="st6" d="M667,94.2h-9.1l-1.6-10.4h-11.1l-1.6,10.4h-8.3l9.2-57.4h13.2L667,94.2z M660.9,24.7l-8.4,9.1h-6.1l5.6-9.1
		H660.9z M646.5,76h8.7l-4.3-29h-0.2L646.5,76z"/>
	<path class="st6" d="M690.1,94.2c-0.5-1.5-0.8-2.4-0.8-7.1v-9c0-5.3-1.8-7.3-5.9-7.3h-3.1v23.4h-9V36.8h13.6
		c9.3,0,13.4,4.3,13.4,13.2v4.5c0,5.9-1.9,9.7-5.9,11.6v0.2c4.5,1.9,6,6.2,6,12.1v8.9c0,2.8,0.1,4.8,1,7H690.1z M680.2,45v17.6h3.5
		c3.4,0,5.4-1.5,5.4-6.1v-5.7c0-4.1-1.4-5.9-4.6-5.9H680.2z"/>
	<path class="st6" d="M704.2,36.8h9v57.4h-9V36.8z"/>
	<path class="st6" d="M719,50.6c0-9.2,4.8-14.4,13.7-14.4c8.9,0,13.7,5.2,13.7,14.4v29.8c0,9.2-4.8,14.4-13.7,14.4
		c-8.9,0-13.7-5.2-13.7-14.4V50.6z M728,81c0,4.1,1.8,5.7,4.7,5.7s4.7-1.6,4.7-5.7V50c0-4.1-1.8-5.7-4.7-5.7S728,45.9,728,50V81z"/>
	<path class="st6" d="M758.8,81.5c-0.3-1-0.5-2.1-0.5-3.5c0-4.6,1.1-8,4.7-13c4-5.7,5.2-9.5,5.2-15c0-4.1-1.6-5.7-4.5-5.7
		s-4.5,1.6-4.5,5.7v6.2h-8.5v-5.7c0-9.2,4.5-14.4,13.3-14.4c8.8,0,13.3,5.2,13.3,14.4c0,6.2-1.6,10.6-6.1,16.5
		c-3.5,4.8-4.6,7.5-4.6,11.2c0,1.1,0.1,2.1,0.3,3.2H758.8z M767.1,85.5v8.7h-8.7v-8.7H767.1z"/>
</g>
<g>
	
		<image style="overflow:visible;" width="3074" height="1784" xlink:href="C7D0C67D.png"  transform="matrix(0.24 0 0 0.24 27.2642 91.2607)">
	</image>
</g>
<g>
	<path d="M99.6,143.4L99.6,143.4l2-13.7h2.4l-2.6,16.8h-3.9l-2.6-16.8h2.7L99.6,143.4z"/>
	<path d="M105,133.7c0-2.7,1.4-4.2,4-4.2s4,1.5,4,4.2v8.7c0,2.7-1.4,4.2-4,4.2s-4-1.5-4-4.2V133.7z M107.7,142.6
		c0,1.2,0.5,1.7,1.4,1.7c0.8,0,1.4-0.5,1.4-1.7v-9.1c0-1.2-0.5-1.7-1.4-1.7c-0.8,0-1.4,0.5-1.4,1.7V142.6z"/>
	<path d="M122.4,140.2v2.2c0,2.7-1.3,4.2-3.9,4.2c-2.6,0-3.9-1.5-3.9-4.2v-8.7c0-2.7,1.3-4.2,3.9-4.2c2.6,0,3.9,1.5,3.9,4.2v1.6
		h-2.5v-1.8c0-1.2-0.5-1.7-1.4-1.7c-0.8,0-1.4,0.5-1.4,1.7v9.1c0,1.2,0.5,1.6,1.4,1.6c0.8,0,1.4-0.4,1.4-1.6v-2.4H122.4z"/>
	<path d="M126.7,136.8h3.6v2.4h-3.6v4.9h4.6v2.4H124v-16.8h7.2v2.4h-4.6V136.8z M124.3,128.8l2.1-2.7h2.4l2.1,2.7h-2.3l-1.1-1.3
		l-1.1,1.3H124.3z"/>
	<path d="M136.3,133.7c0-2.7,1.4-4.2,4-4.2s4,1.5,4,4.2v8.7c0,2.7-1.4,4.2-4,4.2s-4-1.5-4-4.2V133.7z M139,142.6
		c0,1.2,0.5,1.7,1.4,1.7c0.8,0,1.4-0.5,1.4-1.7v-9.1c0-1.2-0.5-1.7-1.4-1.7c-0.8,0-1.4,0.5-1.4,1.7V142.6z"/>
	<path d="M154,133.6v0.6c0,1.7-0.5,2.8-1.7,3.4v0c1.4,0.6,2,1.8,2,3.6v1.4c0,2.6-1.4,4-4,4h-4.2v-16.8h4
		C152.8,129.7,154,131,154,133.6z M148.7,132.1v4.4h1c1,0,1.6-0.4,1.6-1.8v-0.9c0-1.2-0.4-1.7-1.3-1.7H148.7z M148.7,138.9v5.2h1.5
		c0.9,0,1.4-0.4,1.4-1.7V141c0-1.6-0.5-2-1.7-2H148.7z"/>
	<path d="M159.4,129.5c2.6,0,3.9,1.5,3.9,4.2v0.5h-2.5v-0.7c0-1.2-0.5-1.7-1.3-1.7c-0.8,0-1.3,0.5-1.3,1.7c0,1.2,0.5,2.1,2.3,3.6
		c2.2,1.9,2.9,3.3,2.9,5.3c0,2.7-1.3,4.2-3.9,4.2s-3.9-1.5-3.9-4.2v-1h2.5v1.2c0,1.2,0.5,1.6,1.4,1.6c0.8,0,1.4-0.4,1.4-1.6
		c0-1.2-0.5-2.1-2.3-3.6c-2.2-1.9-2.9-3.3-2.9-5.3C155.5,131,156.8,129.5,159.4,129.5z"/>
	<path d="M167.4,136.8h3.6v2.4h-3.6v4.9h4.6v2.4h-7.2v-16.8h7.2v2.4h-4.6V136.8z"/>
	<path d="M179.1,146.5c-0.1-0.4-0.2-0.7-0.2-2.1v-2.6c0-1.6-0.5-2.1-1.7-2.1h-0.9v6.8h-2.6v-16.8h4c2.7,0,3.9,1.3,3.9,3.9v1.3
		c0,1.7-0.6,2.8-1.7,3.4v0c1.3,0.6,1.8,1.8,1.8,3.6v2.6c0,0.8,0,1.4,0.3,2H179.1z M176.3,132.1v5.2h1c1,0,1.6-0.4,1.6-1.8v-1.7
		c0-1.2-0.4-1.7-1.3-1.7H176.3z"/>
	<path d="M187.2,143.4L187.2,143.4l2-13.7h2.4l-2.6,16.8h-3.9l-2.6-16.8h2.7L187.2,143.4z"/>
	<path d="M200.8,146.5h-2.7l-0.5-3h-3.2l-0.5,3h-2.4l2.7-16.8h3.9L200.8,146.5z M194.8,141.2h2.5l-1.2-8.5h0L194.8,141.2z"/>
	<path d="M207.6,146.5c-0.1-0.4-0.2-0.7-0.2-2.1v-2.6c0-1.6-0.5-2.1-1.7-2.1h-0.9v6.8H202v-16.8h4c2.7,0,3.9,1.3,3.9,3.9v1.3
		c0,1.7-0.6,2.8-1.7,3.4v0c1.3,0.6,1.8,1.8,1.8,3.6v2.6c0,0.8,0,1.4,0.3,2H207.6z M204.7,132.1v5.2h1c1,0,1.6-0.4,1.6-1.8v-1.7
		c0-1.2-0.4-1.7-1.3-1.7H204.7z"/>
	<path d="M220.2,146.5h-2.7l-0.5-3h-3.2l-0.5,3H211l2.7-16.8h3.9L220.2,146.5z M218.4,126.1l-2.4,2.7h-1.8l1.6-2.7H218.4z
		 M214.2,141.2h2.5l-1.2-8.5h0L214.2,141.2z"/>
	<path d="M233.7,146.5h-2.7l-0.5-3h-3.2l-0.5,3h-2.4l2.7-16.8h3.9L233.7,146.5z M227.7,141.2h2.5l-1.2-8.5h0L227.7,141.2z"/>
	<path d="M234.9,129.7h2.6v14.4h4.3v2.4h-7V129.7z"/>
	<path d="M247,137.1h3.7v5.3c0,2.7-1.3,4.2-3.9,4.2c-2.6,0-3.9-1.5-3.9-4.2v-8.7c0-2.7,1.3-4.2,3.9-4.2c2.6,0,3.9,1.5,3.9,4.2v1.6
		h-2.5v-1.8c0-1.2-0.5-1.7-1.4-1.7c-0.8,0-1.4,0.5-1.4,1.7v9.1c0,1.2,0.5,1.6,1.4,1.6c0.8,0,1.4-0.4,1.4-1.6v-3.1H247V137.1z"/>
	<path d="M255,129.7v13c0,1.2,0.5,1.6,1.4,1.6c0.8,0,1.4-0.4,1.4-1.6v-13h2.5v12.8c0,2.7-1.3,4.2-3.9,4.2s-3.9-1.5-3.9-4.2v-12.8
		H255z"/>
	<path d="M264.4,134.3L264.4,134.3l0,12.2H262v-16.8h3.3l2.7,10.1h0v-10.1h2.4v16.8h-2.7L264.4,134.3z"/>
	<path d="M275.8,129.5c2.6,0,3.9,1.5,3.9,4.2v0.5h-2.5v-0.7c0-1.2-0.5-1.7-1.3-1.7c-0.8,0-1.3,0.5-1.3,1.7c0,1.2,0.5,2.1,2.3,3.6
		c2.2,1.9,2.9,3.3,2.9,5.3c0,2.7-1.3,4.2-3.9,4.2s-3.9-1.5-3.9-4.2v-1h2.5v1.2c0,1.2,0.5,1.6,1.4,1.6c0.8,0,1.4-0.4,1.4-1.6
		c0-1.2-0.5-2.1-2.3-3.6c-2.2-1.9-2.9-3.3-2.9-5.3C271.9,131,273.2,129.5,275.8,129.5z"/>
	<path d="M288.2,130.5c0-3.4,1.8-5.3,5-5.3c3.2,0,5,1.9,5,5.3v10.9c0,3.4-1.8,5.3-5,5.3c-3.2,0-5-1.9-5-5.3V130.5z M291.5,141.7
		c0,1.5,0.7,2.1,1.7,2.1c1,0,1.7-0.6,1.7-2.1v-11.3c0-1.5-0.7-2.1-1.7-2.1c-1.1,0-1.7,0.6-1.7,2.1V141.7z"/>
	<path d="M310.2,130.3v0.8c0,2.2-0.7,3.5-2.1,4.2v0.1c1.8,0.7,2.5,2.3,2.5,4.5v1.7c0,3.2-1.7,5-5,5h-5.2v-21h5
		C308.7,125.5,310.2,127.1,310.2,130.3z M303.6,128.5v5.5h1.3c1.2,0,2-0.5,2-2.2v-1.2c0-1.5-0.5-2.2-1.7-2.2H303.6z M303.6,137.1
		v6.4h1.9c1.1,0,1.7-0.5,1.7-2.1v-1.8c0-1.9-0.6-2.5-2.1-2.5H303.6z"/>
	<path d="M311.6,143.5c0.4,0,0.8,0,1.1,0c1,0,1.9-0.4,1.9-2v-16h3.3v15.8c0,4.2-2.3,5.3-4.7,5.3c-0.6,0-1.1,0-1.6-0.1V143.5z"/>
	<path d="M323.5,134.4h4.5v3h-4.5v6.1h5.7v3h-9v-21h9v3h-5.7V134.4z"/>
	<path d="M330.2,125.5h10.2v3H337v18h-3.3v-18h-3.5V125.5z"/>
	<path d="M341.6,130.5c0-3.4,1.8-5.3,5-5.3c3.2,0,5,1.9,5,5.3v10.9c0,3.4-1.8,5.3-5,5.3c-3.2,0-5-1.9-5-5.3V130.5z M344.9,141.7
		c0,1.5,0.7,2.1,1.7,2.1c1,0,1.7-0.6,1.7-2.1v-11.3c0-1.5-0.7-2.1-1.7-2.1c-1.1,0-1.7,0.6-1.7,2.1V141.7z"/>
	<path d="M358.2,125.3c3.2,0,4.9,1.9,4.9,5.3v0.7h-3.1v-0.9c0-1.5-0.6-2.1-1.6-2.1c-1.1,0-1.7,0.6-1.7,2.1c0,1.5,0.7,2.7,2.8,4.6
		c2.8,2.4,3.6,4.2,3.6,6.6c0,3.4-1.7,5.3-4.9,5.3s-4.9-1.9-4.9-5.3v-1.3h3.1v1.5c0,1.5,0.7,2,1.7,2c1,0,1.7-0.5,1.7-2
		c0-1.5-0.7-2.7-2.8-4.6c-2.8-2.4-3.6-4.2-3.6-6.6C353.3,127.2,355,125.3,358.2,125.3z"/>
	<path d="M372,129.5c2.6,0,3.9,1.5,3.9,4.2v0.5h-2.5v-0.7c0-1.2-0.5-1.7-1.3-1.7c-0.8,0-1.3,0.5-1.3,1.7c0,1.2,0.5,2.1,2.3,3.6
		c2.2,1.9,2.9,3.3,2.9,5.3c0,2.7-1.3,4.2-3.9,4.2s-3.9-1.5-3.9-4.2v-1h2.5v1.2c0,1.2,0.5,1.6,1.4,1.6c0.8,0,1.4-0.4,1.4-1.6
		c0-1.2-0.5-2.1-2.3-3.6c-2.2-1.9-2.9-3.3-2.9-5.3C368.1,131,369.4,129.5,372,129.5z"/>
	<path d="M380.1,136.8h3.6v2.4h-3.6v4.9h4.6v2.4h-7.2v-16.8h7.2v2.4h-4.6V136.8z"/>
	<path d="M388.7,134.3L388.7,134.3l0,12.2h-2.4v-16.8h3.3l2.7,10.1h0v-10.1h2.4v16.8h-2.7L388.7,134.3z"/>
	<path d="M396.5,129.7h4.2c2.6,0,3.9,1.5,3.9,4.2v8.5c0,2.7-1.3,4.2-3.9,4.2h-4.2V129.7z M399.2,132.1v12h1.5c0.8,0,1.3-0.4,1.3-1.6
		v-8.7c0-1.2-0.5-1.6-1.3-1.6H399.2z"/>
	<path d="M406.1,133.7c0-2.7,1.4-4.2,4-4.2c2.6,0,4,1.5,4,4.2v8.7c0,2.7-1.4,4.2-4,4.2c-2.6,0-4-1.5-4-4.2V133.7z M408.7,142.6
		c0,1.2,0.5,1.7,1.4,1.7c0.8,0,1.4-0.5,1.4-1.7v-9.1c0-1.2-0.5-1.7-1.4-1.7c-0.8,0-1.4,0.5-1.4,1.7V142.6z"/>
	<path d="M423.5,137.1h3.7v5.3c0,2.7-1.3,4.2-3.9,4.2c-2.6,0-3.9-1.5-3.9-4.2v-8.7c0-2.7,1.3-4.2,3.9-4.2c2.6,0,3.9,1.5,3.9,4.2v1.6
		h-2.5v-1.8c0-1.2-0.5-1.7-1.4-1.7c-0.8,0-1.4,0.5-1.4,1.7v9.1c0,1.2,0.5,1.6,1.4,1.6c0.8,0,1.4-0.4,1.4-1.6v-3.1h-1.2V137.1z"/>
	<path d="M431.4,129.7v13c0,1.2,0.5,1.6,1.4,1.6s1.4-0.4,1.4-1.6v-13h2.5v12.8c0,2.7-1.3,4.2-3.9,4.2s-3.9-1.5-3.9-4.2v-12.8H431.4z
		"/>
	<path d="M447,146.5h-2.7l-0.5-3h-3.2l-0.5,3h-2.4l2.7-16.8h3.9L447,146.5z M441,141.2h2.5l-1.2-8.5h0L441,141.2z"/>
	<path d="M453.7,146.5c-0.1-0.4-0.2-0.7-0.2-2.1v-2.6c0-1.6-0.5-2.1-1.7-2.1h-0.9v6.8h-2.6v-16.8h4c2.7,0,3.9,1.3,3.9,3.9v1.3
		c0,1.7-0.6,2.8-1.7,3.4v0c1.3,0.6,1.8,1.8,1.8,3.6v2.6c0,0.8,0,1.4,0.3,2H453.7z M450.9,132.1v5.2h1c1,0,1.6-0.4,1.6-1.8v-1.7
		c0-1.2-0.4-1.7-1.3-1.7H450.9z"/>
	<path d="M457.9,129.7h4.2c2.6,0,3.9,1.5,3.9,4.2v8.5c0,2.7-1.3,4.2-3.9,4.2h-4.2V129.7z M460.5,132.1v12h1.5c0.8,0,1.3-0.4,1.3-1.6
		v-8.7c0-1.2-0.5-1.6-1.3-1.6H460.5z"/>
	<path d="M476.2,146.5h-2.7l-0.5-3h-3.2l-0.5,3h-2.4l2.7-16.8h3.9L476.2,146.5z M470.2,141.2h2.5l-1.2-8.5h0L470.2,141.2z"/>
	<path d="M477.4,129.7h4.2c2.6,0,3.9,1.5,3.9,4.2v8.5c0,2.7-1.3,4.2-3.9,4.2h-4.2V129.7z M480,132.1v12h1.5c0.8,0,1.3-0.4,1.3-1.6
		v-8.7c0-1.2-0.5-1.6-1.3-1.6H480z"/>
	<path d="M487,133.7c0-2.7,1.4-4.2,4-4.2c2.6,0,4,1.5,4,4.2v8.7c0,2.7-1.4,4.2-4,4.2c-2.6,0-4-1.5-4-4.2V133.7z M489.6,142.6
		c0,1.2,0.5,1.7,1.4,1.7c0.8,0,1.4-0.5,1.4-1.7v-9.1c0-1.2-0.5-1.7-1.4-1.7c-0.8,0-1.4,0.5-1.4,1.7V142.6z"/>
	<path d="M500.2,129.5c2.6,0,3.9,1.5,3.9,4.2v0.5h-2.5v-0.7c0-1.2-0.5-1.7-1.3-1.7c-0.8,0-1.3,0.5-1.3,1.7c0,1.2,0.5,2.1,2.3,3.6
		c2.2,1.9,2.9,3.3,2.9,5.3c0,2.7-1.3,4.2-3.9,4.2c-2.6,0-3.9-1.5-3.9-4.2v-1h2.5v1.2c0,1.2,0.5,1.6,1.4,1.6c0.8,0,1.4-0.4,1.4-1.6
		c0-1.2-0.5-2.1-2.3-3.6c-2.2-1.9-2.9-3.3-2.9-5.3C496.4,131,497.7,129.5,500.2,129.5z"/>
	<path d="M512,136.8h3.6v2.4H512v4.9h4.6v2.4h-7.2v-16.8h7.2v2.4H512V136.8z"/>
	<path d="M523.8,141.6L523.8,141.6l1.8-11.9h3.7v16.8h-2.5v-12h0l-1.8,12h-2.5l-1.9-11.9h0v11.9h-2.3v-16.8h3.7L523.8,141.6z"/>
	<path d="M544.9,130.7v2.7c0,3.4-1.6,5.2-4.9,5.2h-1.6v7.9h-3.3v-21h4.9C543.3,125.5,544.9,127.3,544.9,130.7z M538.5,128.5v7.1h1.6
		c1,0,1.6-0.5,1.6-2v-3.1c0-1.5-0.6-2-1.6-2H538.5z"/>
	<path d="M546.2,130.5c0-3.4,1.8-5.3,5-5.3c3.2,0,5,1.9,5,5.3v10.9c0,3.4-1.8,5.3-5,5.3c-3.2,0-5-1.9-5-5.3V130.5z M549.5,141.7
		c0,1.5,0.7,2.1,1.7,2.1s1.7-0.6,1.7-2.1v-11.3c0-1.5-0.7-2.1-1.7-2.1s-1.7,0.6-1.7,2.1V141.7z"/>
	<path d="M565.3,146.5c-0.2-0.5-0.3-0.9-0.3-2.6v-3.3c0-1.9-0.7-2.7-2.2-2.7h-1.1v8.5h-3.3v-21h5c3.4,0,4.9,1.6,4.9,4.8v1.6
		c0,2.2-0.7,3.5-2.2,4.2v0.1c1.7,0.7,2.2,2.3,2.2,4.4v3.2c0,1,0,1.8,0.4,2.5H565.3z M561.7,128.5v6.4h1.3c1.2,0,2-0.5,2-2.2v-2.1
		c0-1.5-0.5-2.2-1.7-2.2H561.7z"/>
	<path d="M569.5,125.5h10.2v3h-3.5v18h-3.3v-18h-3.4V125.5z"/>
	<path d="M590.6,146.5h-3.3l-0.6-3.8h-4l-0.6,3.8h-3l3.4-21h4.8L590.6,146.5z M583.1,139.8h3.2l-1.6-10.6h-0.1L583.1,139.8z"/>
	<path d="M596.6,125.3c3.2,0,4.9,1.9,4.9,5.3v0.7h-3.1v-0.9c0-1.5-0.6-2.1-1.7-2.1s-1.6,0.6-1.6,2.1c0,1.5,0.7,2.7,2.8,4.6
		c2.8,2.4,3.6,4.2,3.6,6.6c0,3.4-1.7,5.3-4.9,5.3c-3.2,0-4.9-1.9-4.9-5.3v-1.3h3.1v1.5c0,1.5,0.7,2,1.7,2s1.7-0.5,1.7-2
		c0-1.5-0.7-2.7-2.8-4.6c-2.8-2.4-3.6-4.2-3.6-6.6C591.7,127.2,593.4,125.3,596.6,125.3z"/>
	<path d="M609.3,134.3L609.3,134.3l0,12.2h-2.4v-16.8h3.3l2.7,10.1h0v-10.1h2.4v16.8h-2.7L609.3,134.3z"/>
	<path d="M616.9,133.7c0-2.7,1.4-4.2,4-4.2c2.6,0,4,1.5,4,4.2v8.7c0,2.7-1.4,4.2-4,4.2c-2.6,0-4-1.5-4-4.2V133.7z M619.5,142.6
		c0,1.2,0.5,1.7,1.4,1.7c0.8,0,1.4-0.5,1.4-1.7v-9.1c0-1.2-0.5-1.7-1.4-1.7c-0.8,0-1.4,0.5-1.4,1.7V142.6z"/>
	<path d="M638.9,146.5h-2.7l-0.5-3h-3.2l-0.5,3h-2.4l2.7-16.8h3.9L638.9,146.5z M632.9,141.2h2.5l-1.2-8.5h0L632.9,141.2z"/>
	<path d="M645.6,146.5c-0.1-0.4-0.2-0.7-0.2-2.1v-2.6c0-1.6-0.5-2.1-1.7-2.1h-0.9v6.8h-2.6v-16.8h4c2.7,0,3.9,1.3,3.9,3.9v1.3
		c0,1.7-0.6,2.8-1.7,3.4v0c1.3,0.6,1.8,1.8,1.8,3.6v2.6c0,0.8,0,1.4,0.3,2H645.6z M642.7,132.1v5.2h1c1,0,1.6-0.4,1.6-1.8v-1.7
		c0-1.2-0.4-1.7-1.3-1.7H642.7z"/>
	<path d="M655.3,141.6L655.3,141.6l1.8-11.9h3.7v16.8h-2.5v-12h0l-1.8,12H654l-1.9-11.9h0v11.9h-2.3v-16.8h3.7L655.3,141.6z"/>
	<path d="M671.3,146.5h-2.7l-0.5-3h-3.2l-0.5,3H662l2.7-16.8h3.9L671.3,146.5z M669.5,126.1l-2.4,2.7h-1.8l1.6-2.7H669.5z
		 M665.3,141.2h2.5l-1.2-8.5h0L665.3,141.2z"/>
	<path d="M678,146.5c-0.1-0.4-0.2-0.7-0.2-2.1v-2.6c0-1.6-0.5-2.1-1.7-2.1h-0.9v6.8h-2.6v-16.8h4c2.7,0,3.9,1.3,3.9,3.9v1.3
		c0,1.7-0.6,2.8-1.7,3.4v0c1.3,0.6,1.8,1.8,1.8,3.6v2.6c0,0.8,0,1.4,0.3,2H678z M675.1,132.1v5.2h1c1,0,1.6-0.4,1.6-1.8v-1.7
		c0-1.2-0.4-1.7-1.3-1.7H675.1z"/>
	<path d="M682.1,129.7h2.6v16.8h-2.6V129.7z"/>
	<path d="M686.5,133.7c0-2.7,1.4-4.2,4-4.2c2.6,0,4,1.5,4,4.2v8.7c0,2.7-1.4,4.2-4,4.2c-2.6,0-4-1.5-4-4.2V133.7z M689.1,142.6
		c0,1.2,0.5,1.7,1.4,1.7c0.8,0,1.4-0.5,1.4-1.7v-9.1c0-1.2-0.5-1.7-1.4-1.7c-0.8,0-1.4,0.5-1.4,1.7V142.6z"/>
	<path d="M698.5,144v2.5H696V144H698.5z"/>
	<path d="M339.1,176.4L339.1,176.4l2.3-14.9h4.6v21h-3.1v-15.1h-0.1l-2.2,15.1h-3.1l-2.4-14.8H335v14.8h-2.9v-21h4.6L339.1,176.4z"
		/>
	<path d="M351.7,170.4h4.5v3h-4.5v6.1h5.7v3h-9v-21h9v3h-5.7V170.4z"/>
	<path d="M366.4,176.4L366.4,176.4l2.3-14.9h4.6v21h-3.1v-15.1h-0.1l-2.2,15.1h-3.1l-2.4-14.8h-0.1v14.8h-2.9v-21h4.6L366.4,176.4z"
		/>
	<path d="M375.4,166.5c0-3.4,1.8-5.3,5-5.3c3.2,0,5,1.9,5,5.3v10.9c0,3.4-1.8,5.3-5,5.3c-3.2,0-5-1.9-5-5.3V166.5z M378.7,177.7
		c0,1.5,0.7,2.1,1.7,2.1c1,0,1.7-0.6,1.7-2.1v-11.3c0-1.5-0.7-2.1-1.7-2.1c-1.1,0-1.7,0.6-1.7,2.1V177.7z"/>
	<path d="M394.5,182.5c-0.2-0.5-0.3-0.9-0.3-2.6v-3.3c0-1.9-0.7-2.7-2.2-2.7h-1.1v8.5h-3.3v-21h5c3.4,0,4.9,1.6,4.9,4.8v1.6
		c0,2.2-0.7,3.5-2.2,4.2v0.1c1.6,0.7,2.2,2.3,2.2,4.4v3.2c0,1,0,1.8,0.4,2.5H394.5z M390.9,164.5v6.4h1.3c1.2,0,2-0.5,2-2.2v-2.1
		c0-1.5-0.5-2.2-1.7-2.2H390.9z"/>
	<path d="M399.6,161.5h3.3v21h-3.3V161.5z"/>
	<path d="M414.5,161.5v2.9l-6.3,15.1h6.3v3h-9.7v-2.9l6.3-15.1h-6v-3H414.5z"/>
	<path d="M419.7,170.4h4.5v3h-4.5v6.1h5.7v3h-9v-21h9v3h-5.7V170.4z"/>
	<path d="M427.3,170.5h6v3h-6V170.5z"/>
	<path d="M435.3,166.5c0-3.4,1.8-5.3,5-5.3c3.2,0,5,1.9,5,5.3v10.9c0,3.4-1.8,5.3-5,5.3c-3.2,0-5-1.9-5-5.3V166.5z M438.6,177.7
		c0,1.5,0.7,2.1,1.7,2.1s1.7-0.6,1.7-2.1v-11.3c0-1.5-0.7-2.1-1.7-2.1s-1.7,0.6-1.7,2.1V177.7z"/>
	<path d="M451.9,161.3c3.2,0,4.9,1.9,4.9,5.3v0.7h-3.1v-0.9c0-1.5-0.6-2.1-1.7-2.1s-1.6,0.6-1.6,2.1c0,1.5,0.7,2.7,2.8,4.6
		c2.8,2.4,3.6,4.2,3.6,6.6c0,3.4-1.7,5.3-4.9,5.3c-3.2,0-4.9-1.9-4.9-5.3v-1.3h3.1v1.5c0,1.5,0.7,2,1.7,2s1.7-0.5,1.7-2
		c0-1.5-0.7-2.7-2.8-4.6c-2.8-2.4-3.6-4.2-3.6-6.6C447,163.2,448.7,161.3,451.9,161.3z"/>
	<path d="M459.1,177.9l-0.4-7.6v-8.8h3.3v8.8l-0.4,7.6H459.1z M461.9,179.3v3.2h-3.2v-3.2H461.9z"/>
	<path d="M65,210.7h4.2c2.6,0,3.9,1.5,3.9,4.2v8.5c0,2.7-1.3,4.2-3.9,4.2H65V210.7z M67.6,213.1v12h1.5c0.8,0,1.3-0.4,1.3-1.6v-8.7
		c0-1.2-0.5-1.6-1.3-1.6H67.6z"/>
	<path d="M77.4,217.8H81v2.4h-3.6v4.9H82v2.4h-7.2v-16.8H82v2.4h-4.6V217.8z"/>
	<path d="M91.4,214.9v2.2c0,2.7-1.3,4.2-3.9,4.2h-1.2v6.3h-2.6v-16.8h3.9C90.1,210.7,91.4,212.2,91.4,214.9z M86.2,213.1v5.7h1.2
		c0.8,0,1.3-0.4,1.3-1.6v-2.5c0-1.2-0.5-1.6-1.3-1.6H86.2z"/>
	<path d="M92.4,214.7c0-2.7,1.4-4.2,4-4.2s4,1.5,4,4.2v8.7c0,2.7-1.4,4.2-4,4.2s-4-1.5-4-4.2V214.7z M95.1,223.6
		c0,1.2,0.5,1.7,1.4,1.7c0.8,0,1.4-0.5,1.4-1.7v-9.1c0-1.2-0.5-1.7-1.4-1.7c-0.8,0-1.4,0.5-1.4,1.7V223.6z"/>
	<path d="M102.1,210.7h2.6v16.8h-2.6V210.7z"/>
	<path d="M110.2,210.5c2.6,0,3.9,1.5,3.9,4.2v0.5h-2.5v-0.7c0-1.2-0.5-1.7-1.3-1.7c-0.8,0-1.3,0.5-1.3,1.7c0,1.2,0.5,2.1,2.3,3.6
		c2.2,1.9,2.9,3.3,2.9,5.3c0,2.7-1.3,4.2-3.9,4.2s-3.9-1.5-3.9-4.2v-1h2.5v1.2c0,1.2,0.5,1.6,1.4,1.6c0.8,0,1.4-0.4,1.4-1.6
		c0-1.2-0.5-2.1-2.3-3.6c-2.2-1.9-2.9-3.3-2.9-5.3C106.4,212,107.7,210.5,110.2,210.5z"/>
	<path d="M119,210.7h4.2c2.6,0,3.9,1.5,3.9,4.2v8.5c0,2.7-1.3,4.2-3.9,4.2H119V210.7z M121.6,213.1v12h1.5c0.8,0,1.3-0.4,1.3-1.6
		v-8.7c0-1.2-0.5-1.6-1.3-1.6H121.6z"/>
	<path d="M128.8,210.7h2.6v16.8h-2.6V210.7z"/>
	<path d="M136.9,210.5c2.6,0,3.9,1.5,3.9,4.2v0.5h-2.5v-0.7c0-1.2-0.5-1.7-1.3-1.7c-0.8,0-1.3,0.5-1.3,1.7c0,1.2,0.5,2.1,2.3,3.6
		c2.2,1.9,2.9,3.3,2.9,5.3c0,2.7-1.3,4.2-3.9,4.2s-3.9-1.5-3.9-4.2v-1h2.5v1.2c0,1.2,0.5,1.6,1.4,1.6c0.8,0,1.4-0.4,1.4-1.6
		c0-1.2-0.5-2.1-2.3-3.6c-2.2-1.9-2.9-3.3-2.9-5.3C133,212,134.3,210.5,136.9,210.5z"/>
	<path d="M145.8,210.5c2.6,0,3.9,1.5,3.9,4.2v0.5h-2.5v-0.7c0-1.2-0.5-1.7-1.3-1.7c-0.8,0-1.3,0.5-1.3,1.7c0,1.2,0.5,2.1,2.3,3.6
		c2.2,1.9,2.9,3.3,2.9,5.3c0,2.7-1.3,4.2-3.9,4.2s-3.9-1.5-3.9-4.2v-1h2.5v1.2c0,1.2,0.5,1.6,1.4,1.6c0.8,0,1.4-0.4,1.4-1.6
		c0-1.2-0.5-2.1-2.3-3.6c-2.2-1.9-2.9-3.3-2.9-5.3C142,212,143.3,210.5,145.8,210.5z"/>
	<path d="M151.1,214.7c0-2.7,1.4-4.2,4-4.2s4,1.5,4,4.2v8.7c0,2.7-1.4,4.2-4,4.2s-4-1.5-4-4.2V214.7z M153.7,223.6
		c0,1.2,0.5,1.7,1.4,1.7c0.8,0,1.4-0.5,1.4-1.7v-9.1c0-1.2-0.5-1.7-1.4-1.7c-0.8,0-1.4,0.5-1.4,1.7V223.6z"/>
	<path d="M160.5,227.5V225h2.5v2.3l-1.2,2.7h-1.1l0.7-2.4H160.5z"/>
	<path d="M172.3,224.4L172.3,224.4l2-13.7h2.4l-2.6,16.8h-3.9l-2.6-16.8h2.7L172.3,224.4z"/>
	<path d="M177.7,214.7c0-2.7,1.4-4.2,4-4.2s4,1.5,4,4.2v8.7c0,2.7-1.4,4.2-4,4.2s-4-1.5-4-4.2V214.7z M180.3,223.6
		c0,1.2,0.5,1.7,1.4,1.7c0.8,0,1.4-0.5,1.4-1.7v-9.1c0-1.2-0.5-1.7-1.4-1.7c-0.8,0-1.4,0.5-1.4,1.7V223.6z"/>
	<path d="M195.1,221.2v2.2c0,2.7-1.3,4.2-3.9,4.2c-2.6,0-3.9-1.5-3.9-4.2v-8.7c0-2.7,1.3-4.2,3.9-4.2c2.6,0,3.9,1.5,3.9,4.2v1.6
		h-2.5v-1.8c0-1.2-0.5-1.7-1.4-1.7c-0.8,0-1.4,0.5-1.4,1.7v9.1c0,1.2,0.5,1.6,1.4,1.6c0.8,0,1.4-0.4,1.4-1.6v-2.4H195.1z"/>
	<path d="M199.3,217.8h3.6v2.4h-3.6v4.9h4.6v2.4h-7.2v-16.8h7.2v2.4h-4.6V217.8z M196.9,209.8l2.1-2.7h2.4l2.1,2.7h-2.3l-1.1-1.3
		l-1.1,1.3H196.9z"/>
	<path d="M208,210.7h8.2v2.4h-2.8v14.4h-2.6v-14.4H208V210.7z"/>
	<path d="M220,217.8h3.6v2.4H220v4.9h4.6v2.4h-7.2v-16.8h7.2v2.4H220V217.8z"/>
	<path d="M231.7,227.5c-0.1-0.4-0.2-0.7-0.2-2.1v-2.6c0-1.6-0.5-2.1-1.7-2.1h-0.9v6.8h-2.6v-16.8h4c2.7,0,3.9,1.3,3.9,3.9v1.3
		c0,1.7-0.6,2.8-1.7,3.4v0c1.3,0.6,1.8,1.8,1.8,3.6v2.6c0,0.8,0,1.4,0.3,2H231.7z M228.8,213.1v5.2h1c1,0,1.6-0.4,1.6-1.8v-1.7
		c0-1.2-0.4-1.7-1.3-1.7H228.8z"/>
	<path d="M244.4,227.5h-2.7l-0.5-3H238l-0.5,3h-2.4l2.7-16.8h3.9L244.4,227.5z M242.6,207.1l-2.4,2.7h-1.8l1.6-2.7H242.6z
		 M238.4,222.2h2.5l-1.2-8.5h0L238.4,222.2z"/>
	<path d="M248.7,214.7c0-2.7,1.4-4.2,4-4.2s4,1.5,4,4.2v8.7c0,0.9-0.2,1.7-0.5,2.4c0.1,0.3,0.3,0.4,0.7,0.4h0.2v2.4h-0.4
		c-1.2,0-1.9-0.4-2.3-1.2c-0.5,0.2-1.2,0.3-1.8,0.3c-2.6,0-4-1.5-4-4.2V214.7z M251.3,223.6c0,1.2,0.5,1.7,1.4,1.7
		c0.8,0,1.4-0.5,1.4-1.7v-9.1c0-1.2-0.5-1.7-1.4-1.7c-0.8,0-1.4,0.5-1.4,1.7V223.6z"/>
	<path d="M260.9,210.7v13c0,1.2,0.5,1.6,1.4,1.6c0.8,0,1.4-0.4,1.4-1.6v-13h2.5v12.8c0,2.7-1.3,4.2-3.9,4.2s-3.9-1.5-3.9-4.2v-12.8
		H260.9z"/>
	<path d="M270.6,217.8h3.6v2.4h-3.6v4.9h4.6v2.4H268v-16.8h7.2v2.4h-4.6V217.8z"/>
	<path d="M280.1,210.7h2.6v14.4h4.3v2.4h-7V210.7z"/>
	<path d="M290.9,217.8h3.6v2.4h-3.6v4.9h4.6v2.4h-7.2v-16.8h7.2v2.4h-4.6V217.8z"/>
	<path d="M302.6,222.6L302.6,222.6l1.8-11.9h3.7v16.8h-2.5v-12h0l-1.8,12h-2.5l-1.9-11.9h0v11.9H297v-16.8h3.7L302.6,222.6z"/>
	<path d="M317.9,214.6v0.6c0,1.7-0.5,2.8-1.7,3.4v0c1.4,0.6,2,1.8,2,3.6v1.4c0,2.6-1.4,4-4,4H310v-16.8h4
		C316.8,210.7,317.9,212,317.9,214.6z M312.7,213.1v4.4h1c1,0,1.6-0.4,1.6-1.8v-0.9c0-1.2-0.4-1.7-1.3-1.7H312.7z M312.7,219.9v5.2
		h1.5c0.9,0,1.4-0.4,1.4-1.7V222c0-1.6-0.5-2-1.7-2H312.7z"/>
	<path d="M325.3,227.5c-0.1-0.4-0.2-0.7-0.2-2.1v-2.6c0-1.6-0.5-2.1-1.7-2.1h-0.9v6.8h-2.6v-16.8h4c2.7,0,3.9,1.3,3.9,3.9v1.3
		c0,1.7-0.6,2.8-1.7,3.4v0c1.3,0.6,1.8,1.8,1.8,3.6v2.6c0,0.8,0,1.4,0.3,2H325.3z M322.4,213.1v5.2h1c1,0,1.6-0.4,1.6-1.8v-1.7
		c0-1.2-0.4-1.7-1.3-1.7H322.4z"/>
	<path d="M338,227.5h-2.7l-0.5-3h-3.2l-0.5,3h-2.4l2.7-16.8h3.9L338,227.5z M332,222.2h2.5l-1.2-8.5h0L332,222.2z"/>
	<path d="M344.7,227.5c-0.1-0.4-0.2-0.7-0.2-2.1v-2.6c0-1.6-0.5-2.1-1.7-2.1h-0.9v6.8h-2.6v-16.8h4c2.7,0,3.9,1.3,3.9,3.9v1.3
		c0,1.7-0.6,2.8-1.7,3.4v0c1.3,0.6,1.8,1.8,1.8,3.6v2.6c0,0.8,0,1.4,0.3,2H344.7z M341.8,213.1v5.2h1c1,0,1.6-0.4,1.6-1.8v-1.7
		c0-1.2-0.4-1.7-1.3-1.7H341.8z"/>
	<path d="M351.9,214.7c0-2.7,1.4-4.2,4-4.2s4,1.5,4,4.2v8.7c0,0.9-0.2,1.7-0.5,2.4c0.1,0.3,0.3,0.4,0.7,0.4h0.2v2.4h-0.4
		c-1.2,0-1.9-0.4-2.3-1.2c-0.5,0.2-1.2,0.3-1.8,0.3c-2.6,0-4-1.5-4-4.2V214.7z M354.6,223.6c0,1.2,0.5,1.7,1.4,1.7
		c0.8,0,1.4-0.5,1.4-1.7v-9.1c0-1.2-0.5-1.7-1.4-1.7c-0.8,0-1.4,0.5-1.4,1.7V223.6z"/>
	<path d="M364.2,210.7v13c0,1.2,0.5,1.6,1.4,1.6c0.8,0,1.4-0.4,1.4-1.6v-13h2.5v12.8c0,2.7-1.3,4.2-3.9,4.2s-3.9-1.5-3.9-4.2v-12.8
		H364.2z"/>
	<path d="M379.7,227.5h-2.7l-0.5-3h-3.2l-0.5,3h-2.4l2.7-16.8h3.9L379.7,227.5z M373.7,222.2h2.5l-1.2-8.5h0L373.7,222.2z"/>
	<path d="M381,210.7h2.6v14.4h4.3v2.4h-7V210.7z"/>
	<path d="M394.6,211.5c0-3.4,1.8-5.3,5-5.3c3.2,0,5,1.9,5,5.3v10.9c0,3.4-1.8,5.3-5,5.3c-3.2,0-5-1.9-5-5.3V211.5z M397.9,222.7
		c0,1.5,0.7,2.1,1.7,2.1s1.7-0.6,1.7-2.1v-11.3c0-1.5-0.7-2.1-1.7-2.1s-1.7,0.6-1.7,2.1V222.7z"/>
	<path d="M416.6,211.3v0.8c0,2.2-0.7,3.5-2.1,4.2v0.1c1.8,0.7,2.5,2.3,2.5,4.5v1.7c0,3.2-1.7,5-5,5h-5.2v-21h5
		C415.1,206.5,416.6,208.1,416.6,211.3z M410,209.5v5.5h1.3c1.2,0,2-0.5,2-2.2v-1.2c0-1.5-0.5-2.2-1.7-2.2H410z M410,218.1v6.4h1.9
		c1.1,0,1.7-0.5,1.7-2.1v-1.8c0-1.9-0.6-2.5-2.1-2.5H410z"/>
	<path d="M418,224.5c0.4,0,0.8,0,1.1,0c1,0,1.9-0.4,1.9-2v-16h3.3v15.8c0,4.2-2.3,5.3-4.7,5.3c-0.6,0-1,0-1.6-0.1V224.5z"/>
	<path d="M429.9,215.4h4.5v3h-4.5v6.1h5.7v3h-9v-21h9v3h-5.7V215.4z"/>
	<path d="M436.7,206.5h10.2v3h-3.5v18h-3.3v-18h-3.4V206.5z"/>
	<path d="M448,211.5c0-3.4,1.8-5.3,5-5.3c3.2,0,5,1.9,5,5.3v10.9c0,3.4-1.8,5.3-5,5.3c-3.2,0-5-1.9-5-5.3V211.5z M451.3,222.7
		c0,1.5,0.7,2.1,1.7,2.1s1.7-0.6,1.7-2.1v-11.3c0-1.5-0.7-2.1-1.7-2.1s-1.7,0.6-1.7,2.1V222.7z"/>
	<path d="M464.1,210.7h4.2c2.6,0,3.9,1.5,3.9,4.2v8.5c0,2.7-1.3,4.2-3.9,4.2h-4.2V210.7z M466.7,213.1v12h1.5c0.8,0,1.3-0.4,1.3-1.6
		v-8.7c0-1.2-0.5-1.6-1.3-1.6H466.7z"/>
	<path d="M473.6,214.7c0-2.7,1.4-4.2,4-4.2c2.6,0,4,1.5,4,4.2v8.7c0,2.7-1.4,4.2-4,4.2c-2.6,0-4-1.5-4-4.2V214.7z M476.3,223.6
		c0,1.2,0.5,1.7,1.4,1.7c0.8,0,1.4-0.5,1.4-1.7v-9.1c0-1.2-0.5-1.7-1.4-1.7c-0.8,0-1.4,0.5-1.4,1.7V223.6z"/>
	<path d="M494.3,221.2v2.2c0,2.7-1.3,4.2-3.9,4.2c-2.6,0-3.9-1.5-3.9-4.2v-8.7c0-2.7,1.3-4.2,3.9-4.2c2.6,0,3.9,1.5,3.9,4.2v1.6
		h-2.5v-1.8c0-1.2-0.5-1.7-1.4-1.7c-0.8,0-1.4,0.5-1.4,1.7v9.1c0,1.2,0.5,1.6,1.4,1.6c0.8,0,1.4-0.4,1.4-1.6v-2.4H494.3z"/>
	<path d="M495.7,214.7c0-2.7,1.4-4.2,4-4.2c2.6,0,4,1.5,4,4.2v8.7c0,2.7-1.4,4.2-4,4.2c-2.6,0-4-1.5-4-4.2V214.7z M498.3,223.6
		c0,1.2,0.5,1.7,1.4,1.7c0.8,0,1.4-0.5,1.4-1.7v-9.1c0-1.2-0.5-1.7-1.4-1.7c-0.8,0-1.4,0.5-1.4,1.7V223.6z"/>
	<path d="M507.8,215.3L507.8,215.3l0,12.2h-2.4v-16.8h3.3l2.7,10.1h0v-10.1h2.4v16.8h-2.7L507.8,215.3z"/>
	<path d="M514.9,225.1c0.3,0,0.6,0,0.9,0c0.8,0,1.5-0.3,1.5-1.6v-12.8h2.6v12.6c0,3.4-1.8,4.2-3.8,4.2c-0.5,0-0.8,0-1.3,0V225.1z"/>
	<path d="M524.3,210.7v13c0,1.2,0.5,1.6,1.4,1.6s1.4-0.4,1.4-1.6v-13h2.5v12.8c0,2.7-1.3,4.2-3.9,4.2s-3.9-1.5-3.9-4.2v-12.8H524.3z
		"/>
	<path d="M533.8,215.3L533.8,215.3l0,12.2h-2.4v-16.8h3.3l2.7,10.1h0v-10.1h2.4v16.8H537L533.8,215.3z"/>
	<path d="M540.8,210.7h8.2v2.4h-2.8v14.4h-2.6v-14.4h-2.8V210.7z"/>
	<path d="M549.9,214.7c0-2.7,1.4-4.2,4-4.2c2.6,0,4,1.5,4,4.2v8.7c0,2.7-1.4,4.2-4,4.2c-2.6,0-4-1.5-4-4.2V214.7z M552.6,223.6
		c0,1.2,0.5,1.7,1.4,1.7c0.8,0,1.4-0.5,1.4-1.7v-9.1c0-1.2-0.5-1.7-1.4-1.7c-0.8,0-1.4,0.5-1.4,1.7V223.6z"/>
	<path d="M565.6,218.2h3.4v2.4h-3.4v6.9H563v-16.8h7v2.4h-4.3V218.2z"/>
	<path d="M571,214.7c0-2.7,1.4-4.2,4-4.2c2.6,0,4,1.5,4,4.2v8.7c0,2.7-1.4,4.2-4,4.2c-2.6,0-4-1.5-4-4.2V214.7z M573.6,223.6
		c0,1.2,0.5,1.7,1.4,1.7c0.8,0,1.4-0.5,1.4-1.7v-9.1c0-1.2-0.5-1.7-1.4-1.7c-0.8,0-1.4,0.5-1.4,1.7V223.6z"/>
	<path d="M580.7,210.7h2.6v16.8h-2.6V210.7z"/>
	<path d="M592.5,218.1h3.7v5.3c0,2.7-1.3,4.2-3.9,4.2c-2.6,0-3.9-1.5-3.9-4.2v-8.7c0-2.7,1.3-4.2,3.9-4.2c2.6,0,3.9,1.5,3.9,4.2v1.6
		h-2.5v-1.8c0-1.2-0.5-1.7-1.4-1.7c-0.8,0-1.4,0.5-1.4,1.7v9.1c0,1.2,0.5,1.6,1.4,1.6c0.8,0,1.4-0.4,1.4-1.6v-3.1h-1.2V218.1z"/>
	<path d="M600.5,210.7v13c0,1.2,0.5,1.6,1.4,1.6s1.4-0.4,1.4-1.6v-13h2.5v12.8c0,2.7-1.3,4.2-3.9,4.2s-3.9-1.5-3.9-4.2v-12.8H600.5z
		"/>
	<path d="M616,227.5h-2.7l-0.5-3h-3.2l-0.5,3h-2.4l2.7-16.8h3.9L616,227.5z M610,222.2h2.5l-1.2-8.5h0L610,222.2z"/>
	<path d="M622.8,227.5c-0.1-0.4-0.2-0.7-0.2-2.1v-2.6c0-1.6-0.5-2.1-1.7-2.1h-0.9v6.8h-2.6v-16.8h4c2.7,0,3.9,1.3,3.9,3.9v1.3
		c0,1.7-0.6,2.8-1.7,3.4v0c1.3,0.6,1.8,1.8,1.8,3.6v2.6c0,0.8,0,1.4,0.3,2H622.8z M619.9,213.1v5.2h1c1,0,1.6-0.4,1.6-1.8v-1.7
		c0-1.2-0.4-1.7-1.3-1.7H619.9z"/>
	<path d="M626.9,210.7h4.2c2.6,0,3.9,1.5,3.9,4.2v8.5c0,2.7-1.3,4.2-3.9,4.2h-4.2V210.7z M629.5,213.1v12h1.5c0.8,0,1.3-0.4,1.3-1.6
		v-8.7c0-1.2-0.5-1.6-1.3-1.6H629.5z"/>
	<path d="M645.2,227.5h-2.7l-0.5-3h-3.2l-0.5,3H636l2.7-16.8h3.9L645.2,227.5z M639.2,222.2h2.5l-1.2-8.5h0L639.2,222.2z"/>
	<path d="M646.4,210.7h4.2c2.6,0,3.9,1.5,3.9,4.2v8.5c0,2.7-1.3,4.2-3.9,4.2h-4.2V210.7z M649.1,213.1v12h1.5c0.8,0,1.3-0.4,1.3-1.6
		v-8.7c0-1.2-0.5-1.6-1.3-1.6H649.1z"/>
	<path d="M656,214.7c0-2.7,1.4-4.2,4-4.2c2.6,0,4,1.5,4,4.2v8.7c0,2.7-1.4,4.2-4,4.2c-2.6,0-4-1.5-4-4.2V214.7z M658.7,223.6
		c0,1.2,0.5,1.7,1.4,1.7c0.8,0,1.4-0.5,1.4-1.7v-9.1c0-1.2-0.5-1.7-1.4-1.7c-0.8,0-1.4,0.5-1.4,1.7V223.6z"/>
	<path d="M671.7,217.8h3.6v2.4h-3.6v4.9h4.6v2.4H669v-16.8h7.2v2.4h-4.6V217.8z"/>
	<path d="M683.4,222.6L683.4,222.6l1.8-11.9h3.7v16.8h-2.5v-12h0l-1.8,12h-2.5l-1.9-11.9h0v11.9h-2.3v-16.8h3.7L683.4,222.6z"/>
	<path d="M693.9,214.7c0-2.7,1.4-4.2,4-4.2c2.6,0,4,1.5,4,4.2v8.7c0,0.9-0.2,1.7-0.5,2.4c0.1,0.3,0.3,0.4,0.7,0.4h0.2v2.4h-0.4
		c-1.2,0-1.9-0.4-2.3-1.2c-0.5,0.2-1.2,0.3-1.8,0.3c-2.6,0-4-1.5-4-4.2V214.7z M696.6,223.6c0,1.2,0.5,1.7,1.4,1.7
		c0.8,0,1.4-0.5,1.4-1.7v-9.1c0-1.2-0.5-1.7-1.4-1.7c-0.8,0-1.4,0.5-1.4,1.7V223.6z"/>
	<path d="M706.2,210.7v13c0,1.2,0.5,1.6,1.4,1.6s1.4-0.4,1.4-1.6v-13h2.5v12.8c0,2.7-1.3,4.2-3.9,4.2s-3.9-1.5-3.9-4.2v-12.8H706.2z
		"/>
	<path d="M721.7,227.5h-2.7l-0.5-3h-3.2l-0.5,3h-2.4l2.7-16.8h3.9L721.7,227.5z M715.7,222.2h2.5l-1.2-8.5h0L715.7,222.2z"/>
	<path d="M723,210.7h2.6v14.4h4.3v2.4h-7V210.7z"/>
	<path d="M75,236.7v2.7c0,3.4-1.6,5.2-4.9,5.2h-1.6v7.9h-3.3v-21h4.9C73.4,231.5,75,233.3,75,236.7z M68.5,234.5v7.1h1.6
		c1.1,0,1.6-0.5,1.6-2v-3.1c0-1.5-0.6-2-1.6-2H68.5z"/>
	<path d="M76.2,236.5c0-3.4,1.8-5.3,5-5.3c3.2,0,5,1.9,5,5.3v10.9c0,3.4-1.8,5.3-5,5.3c-3.2,0-5-1.9-5-5.3V236.5z M79.5,247.7
		c0,1.5,0.7,2.1,1.7,2.1c1,0,1.7-0.6,1.7-2.1v-11.3c0-1.5-0.7-2.1-1.7-2.1c-1.1,0-1.7,0.6-1.7,2.1V247.7z"/>
	<path d="M95.3,252.5c-0.2-0.5-0.3-0.9-0.3-2.6v-3.3c0-1.9-0.7-2.7-2.2-2.7h-1.1v8.5h-3.3v-21h5c3.4,0,4.9,1.6,4.9,4.8v1.6
		c0,2.2-0.7,3.5-2.2,4.2v0.1c1.6,0.7,2.2,2.3,2.2,4.4v3.2c0,1,0,1.8,0.4,2.5H95.3z M91.7,234.5v6.4H93c1.2,0,2-0.5,2-2.2v-2.1
		c0-1.5-0.5-2.2-1.7-2.2H91.7z"/>
	<path d="M99.5,231.5h10.2v3h-3.4v18h-3.3v-18h-3.4V231.5z"/>
	<path d="M120.7,252.5h-3.3l-0.6-3.8h-4l-0.6,3.8h-3l3.4-21h4.8L120.7,252.5z M113.1,245.8h3.2l-1.6-10.6h-0.1L113.1,245.8z"/>
	<path d="M126.8,248.3v4.2h-4.2v-4.2H126.8z"/>
	<path d="M141.2,239.6v0.6c0,1.7-0.5,2.8-1.7,3.4v0c1.4,0.6,2,1.8,2,3.6v1.4c0,2.6-1.4,4-4,4h-4.2v-16.8h4
		C140,235.7,141.2,237,141.2,239.6z M135.9,238.1v4.4h1c1,0,1.6-0.4,1.6-1.8v-0.9c0-1.2-0.4-1.7-1.3-1.7H135.9z M135.9,244.9v5.2
		h1.5c0.9,0,1.4-0.4,1.4-1.7V247c0-1.6-0.5-2-1.7-2H135.9z"/>
	<path d="M151.6,252.5h-2.7l-0.5-3h-3.2l-0.5,3h-2.4l2.7-16.8h3.9L151.6,252.5z M145.5,247.2h2.5l-1.2-8.5h0L145.5,247.2z"/>
	<path d="M156.3,235.5c2.6,0,3.9,1.5,3.9,4.2v0.5h-2.5v-0.7c0-1.2-0.5-1.7-1.3-1.7c-0.8,0-1.3,0.5-1.3,1.7c0,1.2,0.5,2.1,2.3,3.6
		c2.2,1.9,2.9,3.3,2.9,5.3c0,2.7-1.3,4.2-3.9,4.2s-3.9-1.5-3.9-4.2v-1h2.5v1.2c0,1.2,0.5,1.6,1.4,1.6c0.8,0,1.4-0.4,1.4-1.6
		c0-1.2-0.5-2.1-2.3-3.6c-2.2-1.9-2.9-3.3-2.9-5.3C152.5,237,153.8,235.5,156.3,235.5z"/>
	<path d="M161,235.7h8.2v2.4h-2.8v14.4h-2.6v-14.4H161V235.7z"/>
	<path d="M177.9,252.5h-2.7l-0.5-3h-3.2l-0.5,3h-2.4l2.7-16.8h3.9L177.9,252.5z M171.9,247.2h2.5l-1.2-8.5h0L171.9,247.2z"/>
	<path d="M190.9,239.9v2.2c0,2.7-1.3,4.2-3.9,4.2h-1.2v6.3h-2.6v-16.8h3.9C189.6,235.7,190.9,237.2,190.9,239.9z M185.7,238.1v5.7
		h1.2c0.8,0,1.3-0.4,1.3-1.6v-2.5c0-1.2-0.5-1.6-1.3-1.6H185.7z"/>
	<path d="M197.6,252.5c-0.1-0.4-0.2-0.7-0.2-2.1v-2.6c0-1.6-0.5-2.1-1.7-2.1h-0.9v6.8h-2.6v-16.8h4c2.7,0,3.9,1.3,3.9,3.9v1.3
		c0,1.7-0.6,2.8-1.7,3.4v0c1.3,0.6,1.8,1.8,1.8,3.6v2.6c0,0.8,0,1.4,0.3,2H197.6z M194.7,238.1v5.2h1c1,0,1.6-0.4,1.6-1.8v-1.7
		c0-1.2-0.4-1.7-1.3-1.7H194.7z"/>
	<path d="M204.4,242.8h3.6v2.4h-3.6v4.9h4.6v2.4h-7.2v-16.8h7.2v2.4h-4.6V242.8z"/>
	<path d="M214.1,235.5c2.6,0,3.9,1.5,3.9,4.2v0.5h-2.5v-0.7c0-1.2-0.5-1.7-1.3-1.7c-0.8,0-1.3,0.5-1.3,1.7c0,1.2,0.5,2.1,2.3,3.6
		c2.2,1.9,2.9,3.3,2.9,5.3c0,2.7-1.3,4.2-3.9,4.2s-3.9-1.5-3.9-4.2v-1h2.5v1.2c0,1.2,0.5,1.6,1.4,1.6c0.8,0,1.4-0.4,1.4-1.6
		c0-1.2-0.5-2.1-2.3-3.6c-2.2-1.9-2.9-3.3-2.9-5.3C210.2,237,211.6,235.5,214.1,235.5z"/>
	<path d="M223.1,235.5c2.6,0,3.9,1.5,3.9,4.2v0.5h-2.5v-0.7c0-1.2-0.5-1.7-1.3-1.7c-0.8,0-1.3,0.5-1.3,1.7c0,1.2,0.5,2.1,2.3,3.6
		c2.2,1.9,2.9,3.3,2.9,5.3c0,2.7-1.3,4.2-3.9,4.2s-3.9-1.5-3.9-4.2v-1h2.5v1.2c0,1.2,0.5,1.6,1.4,1.6c0.8,0,1.4-0.4,1.4-1.6
		c0-1.2-0.5-2.1-2.3-3.6c-2.2-1.9-2.9-3.3-2.9-5.3C219.2,237,220.5,235.5,223.1,235.5z"/>
	<path d="M228.5,235.7h2.6v16.8h-2.6V235.7z"/>
	<path d="M232.9,239.7c0-2.7,1.4-4.2,4-4.2s4,1.5,4,4.2v8.7c0,2.7-1.4,4.2-4,4.2s-4-1.5-4-4.2V239.7z M235.5,248.6
		c0,1.2,0.5,1.7,1.4,1.7c0.8,0,1.4-0.5,1.4-1.7v-9.1c0-1.2-0.5-1.7-1.4-1.7c-0.8,0-1.4,0.5-1.4,1.7V248.6z"/>
	<path d="M245,240.3L245,240.3l0,12.2h-2.4v-16.8h3.3l2.7,10.1h0v-10.1h2.4v16.8h-2.7L245,240.3z"/>
	<path d="M261.4,252.5h-2.7l-0.5-3H255l-0.5,3h-2.4l2.7-16.8h3.9L261.4,252.5z M255.4,247.2h2.5l-1.2-8.5h0L255.4,247.2z"/>
	<path d="M268.1,252.5c-0.1-0.4-0.2-0.7-0.2-2.1v-2.6c0-1.6-0.5-2.1-1.7-2.1h-0.9v6.8h-2.6v-16.8h4c2.7,0,3.9,1.3,3.9,3.9v1.3
		c0,1.7-0.6,2.8-1.7,3.4v0c1.3,0.6,1.8,1.8,1.8,3.6v2.6c0,0.8,0,1.4,0.3,2H268.1z M265.3,238.1v5.2h1c1,0,1.6-0.4,1.6-1.8v-1.7
		c0-1.2-0.4-1.7-1.3-1.7H265.3z"/>
	<path d="M275.9,239.7c0-2.7,1.4-4.2,4-4.2s4,1.5,4,4.2v8.7c0,2.7-1.4,4.2-4,4.2s-4-1.5-4-4.2V239.7z M278.6,248.6
		c0,1.2,0.5,1.7,1.4,1.7c0.8,0,1.4-0.5,1.4-1.7v-9.1c0-1.2-0.5-1.7-1.4-1.7c-0.8,0-1.4,0.5-1.4,1.7V248.6z"/>
	<path d="M297.2,246.2v2.2c0,2.7-1.3,4.2-3.9,4.2c-2.6,0-3.9-1.5-3.9-4.2v-8.7c0-2.7,1.3-4.2,3.9-4.2c2.6,0,3.9,1.5,3.9,4.2v1.6
		h-2.5v-1.8c0-1.2-0.5-1.7-1.4-1.7c-0.8,0-1.4,0.5-1.4,1.7v9.1c0,1.2,0.5,1.6,1.4,1.6c0.8,0,1.4-0.4,1.4-1.6v-2.4H297.2z"/>
	<path d="M301.3,235.7v13c0,1.2,0.5,1.6,1.4,1.6c0.8,0,1.4-0.4,1.4-1.6v-13h2.5v12.8c0,2.7-1.3,4.2-3.9,4.2s-3.9-1.5-3.9-4.2v-12.8
		H301.3z"/>
	<path d="M313.9,252.5c-0.1-0.4-0.2-0.7-0.2-2.1v-2.6c0-1.6-0.5-2.1-1.7-2.1H311v6.8h-2.6v-16.8h4c2.7,0,3.9,1.3,3.9,3.9v1.3
		c0,1.7-0.6,2.8-1.7,3.4v0c1.3,0.6,1.8,1.8,1.8,3.6v2.6c0,0.8,0,1.4,0.3,2H313.9z M311,238.1v5.2h1c1,0,1.6-0.4,1.6-1.8v-1.7
		c0-1.2-0.4-1.7-1.3-1.7H311z"/>
	<path d="M321.5,235.5c2.6,0,3.9,1.5,3.9,4.2v0.5h-2.5v-0.7c0-1.2-0.5-1.7-1.3-1.7c-0.8,0-1.3,0.5-1.3,1.7c0,1.2,0.5,2.1,2.3,3.6
		c2.2,1.9,2.9,3.3,2.9,5.3c0,2.7-1.3,4.2-3.9,4.2s-3.9-1.5-3.9-4.2v-1h2.5v1.2c0,1.2,0.5,1.6,1.4,1.6c0.8,0,1.4-0.4,1.4-1.6
		c0-1.2-0.5-2.1-2.3-3.6c-2.2-1.9-2.9-3.3-2.9-5.3C317.7,237,319,235.5,321.5,235.5z"/>
	<path d="M326.8,239.7c0-2.7,1.4-4.2,4-4.2s4,1.5,4,4.2v8.7c0,2.7-1.4,4.2-4,4.2s-4-1.5-4-4.2V239.7z M329.4,248.6
		c0,1.2,0.5,1.7,1.4,1.7c0.8,0,1.4-0.5,1.4-1.7v-9.1c0-1.2-0.5-1.7-1.4-1.7c-0.8,0-1.4,0.5-1.4,1.7V248.6z"/>
	<path d="M342,252.5c-0.1-0.4-0.2-0.7-0.2-2.1v-2.6c0-1.6-0.5-2.1-1.7-2.1h-0.9v6.8h-2.6v-16.8h4c2.7,0,3.9,1.3,3.9,3.9v1.3
		c0,1.7-0.6,2.8-1.7,3.4v0c1.3,0.6,1.8,1.8,1.8,3.6v2.6c0,0.8,0,1.4,0.3,2H342z M339.1,238.1v5.2h1c1,0,1.6-0.4,1.6-1.8v-1.7
		c0-1.2-0.4-1.7-1.3-1.7H339.1z"/>
	<path d="M352.4,240.3L352.4,240.3l0,12.2H350v-16.8h3.3l2.7,10.1h0v-10.1h2.4v16.8h-2.7L352.4,240.3z"/>
	<path d="M360,239.7c0-2.7,1.4-4.2,4-4.2s4,1.5,4,4.2v8.7c0,2.7-1.4,4.2-4,4.2s-4-1.5-4-4.2V239.7z M362.7,248.6
		c0,1.2,0.5,1.7,1.4,1.7c0.8,0,1.4-0.5,1.4-1.7v-9.1c0-1.2-0.5-1.7-1.4-1.7c-0.8,0-1.4,0.5-1.4,1.7V248.6z"/>
	<path d="M373.6,236.5c0-3.4,1.8-5.3,5-5.3c3.2,0,5,1.9,5,5.3v10.9c0,3.4-1.8,5.3-5,5.3c-3.2,0-5-1.9-5-5.3V236.5z M376.9,247.7
		c0,1.5,0.7,2.1,1.7,2.1c1,0,1.7-0.6,1.7-2.1v-11.3c0-1.5-0.7-2.1-1.7-2.1c-1.1,0-1.7,0.6-1.7,2.1V247.7z"/>
	<path d="M395.6,236.3v0.8c0,2.2-0.7,3.5-2.1,4.2v0.1c1.8,0.7,2.5,2.3,2.5,4.5v1.7c0,3.2-1.7,5-5,5h-5.2v-21h5
		C394.2,231.5,395.6,233.1,395.6,236.3z M389.1,234.5v5.5h1.3c1.2,0,2-0.5,2-2.2v-1.2c0-1.5-0.5-2.2-1.7-2.2H389.1z M389.1,243.1
		v6.4h1.9c1.1,0,1.7-0.5,1.7-2.1v-1.8c0-1.9-0.6-2.5-2.1-2.5H389.1z"/>
	<path d="M397,249.5c0.4,0,0.8,0,1.1,0c1,0,1.9-0.4,1.9-2v-16h3.3v15.8c0,4.2-2.3,5.3-4.7,5.3c-0.6,0-1.1,0-1.6-0.1V249.5z"/>
	<path d="M408.9,240.4h4.5v3h-4.5v6.1h5.7v3h-9v-21h9v3h-5.7V240.4z"/>
	<path d="M415.7,231.5h10.2v3h-3.5v18h-3.3v-18h-3.4V231.5z"/>
	<path d="M427.1,236.5c0-3.4,1.8-5.3,5-5.3c3.2,0,5,1.9,5,5.3v10.9c0,3.4-1.8,5.3-5,5.3c-3.2,0-5-1.9-5-5.3V236.5z M430.4,247.7
		c0,1.5,0.7,2.1,1.7,2.1s1.7-0.6,1.7-2.1v-11.3c0-1.5-0.7-2.1-1.7-2.1s-1.7,0.6-1.7,2.1V247.7z"/>
	<path d="M445.5,242.8h3.6v2.4h-3.6v4.9h4.6v2.4h-7.2v-16.8h7.2v2.4h-4.6V242.8z"/>
	<path d="M464.1,252.5h-2.7l-0.5-3h-3.2l-0.5,3h-2.4l2.7-16.8h3.9L464.1,252.5z M458.1,247.2h2.5l-1.2-8.5h0L458.1,247.2z"/>
	<path d="M470.9,252.5c-0.1-0.4-0.2-0.7-0.2-2.1v-2.6c0-1.6-0.5-2.1-1.7-2.1H468v6.8h-2.6v-16.8h4c2.7,0,3.9,1.3,3.9,3.9v1.3
		c0,1.7-0.6,2.8-1.7,3.4v0c1.3,0.6,1.8,1.8,1.8,3.6v2.6c0,0.8,0,1.4,0.3,2H470.9z M468,238.1v5.2h1c1,0,1.6-0.4,1.6-1.8v-1.7
		c0-1.2-0.4-1.7-1.3-1.7H468z"/>
	<path d="M480.5,252.5c-0.1-0.4-0.2-0.7-0.2-2.1v-2.6c0-1.6-0.5-2.1-1.7-2.1h-0.9v6.8H475v-16.8h4c2.7,0,3.9,1.3,3.9,3.9v1.3
		c0,1.7-0.6,2.8-1.7,3.4v0c1.3,0.6,1.8,1.8,1.8,3.6v2.6c0,0.8,0,1.4,0.3,2H480.5z M477.6,238.1v5.2h1c1,0,1.6-0.4,1.6-1.8v-1.7
		c0-1.2-0.4-1.7-1.3-1.7H477.6z"/>
	<path d="M493.2,252.5h-2.7l-0.5-3h-3.2l-0.5,3h-2.4l2.7-16.8h3.9L493.2,252.5z M487.2,247.2h2.5l-1.2-8.5h0L487.2,247.2z"/>
	<path d="M498,235.5c2.6,0,3.9,1.5,3.9,4.2v0.5h-2.5v-0.7c0-1.2-0.5-1.7-1.3-1.7c-0.8,0-1.3,0.5-1.3,1.7c0,1.2,0.5,2.1,2.3,3.6
		c2.2,1.9,2.9,3.3,2.9,5.3c0,2.7-1.3,4.2-3.9,4.2c-2.6,0-3.9-1.5-3.9-4.2v-1h2.5v1.2c0,1.2,0.5,1.6,1.4,1.6c0.8,0,1.4-0.4,1.4-1.6
		c0-1.2-0.5-2.1-2.3-3.6c-2.2-1.9-2.9-3.3-2.9-5.3C494.1,237,495.4,235.5,498,235.5z"/>
	<path d="M502.6,235.7h8.2v2.4H508v14.4h-2.6v-14.4h-2.8V235.7z"/>
	<path d="M519.6,252.5h-2.7l-0.5-3h-3.2l-0.5,3h-2.4l2.7-16.8h3.9L519.6,252.5z M513.5,247.2h2.5l-1.2-8.5h0L513.5,247.2z"/>
	<path d="M526.3,252.5c-0.1-0.4-0.2-0.7-0.2-2.1v-2.6c0-1.6-0.5-2.1-1.7-2.1h-0.9v6.8h-2.6v-16.8h4c2.7,0,3.9,1.3,3.9,3.9v1.3
		c0,1.7-0.6,2.8-1.7,3.4v0c1.3,0.6,1.8,1.8,1.8,3.6v2.6c0,0.8,0,1.4,0.3,2H526.3z M523.4,238.1v5.2h1c1,0,1.6-0.4,1.6-1.8v-1.7
		c0-1.2-0.4-1.7-1.3-1.7H523.4z"/>
	<path d="M542.1,239.9v2.2c0,2.7-1.3,4.2-3.9,4.2h-1.2v6.3h-2.6v-16.8h3.9C540.8,235.7,542.1,237.2,542.1,239.9z M536.9,238.1v5.7
		h1.2c0.8,0,1.3-0.4,1.3-1.6v-2.5c0-1.2-0.5-1.6-1.3-1.6H536.9z"/>
	<path d="M551.6,252.5h-2.7l-0.5-3h-3.2l-0.5,3h-2.4l2.7-16.8h3.9L551.6,252.5z M545.6,247.2h2.5l-1.2-8.5h0L545.6,247.2z"/>
	<path d="M558.3,252.5c-0.1-0.4-0.2-0.7-0.2-2.1v-2.6c0-1.6-0.5-2.1-1.7-2.1h-0.9v6.8h-2.6v-16.8h4c2.7,0,3.9,1.3,3.9,3.9v1.3
		c0,1.7-0.6,2.8-1.7,3.4v0c1.3,0.6,1.8,1.8,1.8,3.6v2.6c0,0.8,0,1.4,0.3,2H558.3z M555.5,238.1v5.2h1c1,0,1.6-0.4,1.6-1.8v-1.7
		c0-1.2-0.4-1.7-1.3-1.7H555.5z"/>
	<path d="M571,252.5h-2.7l-0.5-3h-3.2l-0.5,3h-2.4l2.7-16.8h3.9L571,252.5z M565,247.2h2.5l-1.2-8.5h0L565,247.2z"/>
	<path d="M584.7,252.5H582l-0.5-3h-3.2l-0.5,3h-2.4l2.7-16.8h3.9L584.7,252.5z M578.6,247.2h2.5l-1.2-8.5h0L578.6,247.2z"/>
	<path d="M599.8,236.7v2.7c0,3.4-1.6,5.2-4.9,5.2h-1.6v7.9H590v-21h4.9C598.2,231.5,599.8,233.3,599.8,236.7z M593.3,234.5v7.1h1.6
		c1,0,1.6-0.5,1.6-2v-3.1c0-1.5-0.6-2-1.6-2H593.3z"/>
	<path d="M601,236.5c0-3.4,1.8-5.3,5-5.3c3.2,0,5,1.9,5,5.3v10.9c0,3.4-1.8,5.3-5,5.3c-3.2,0-5-1.9-5-5.3V236.5z M604.3,247.7
		c0,1.5,0.7,2.1,1.7,2.1s1.7-0.6,1.7-2.1v-11.3c0-1.5-0.7-2.1-1.7-2.1s-1.7,0.6-1.7,2.1V247.7z"/>
	<path d="M620.1,252.5c-0.2-0.5-0.3-0.9-0.3-2.6v-3.3c0-1.9-0.7-2.7-2.2-2.7h-1.1v8.5h-3.3v-21h5c3.4,0,4.9,1.6,4.9,4.8v1.6
		c0,2.2-0.7,3.5-2.2,4.2v0.1c1.7,0.7,2.2,2.3,2.2,4.4v3.2c0,1,0,1.8,0.4,2.5H620.1z M616.5,234.5v6.4h1.3c1.2,0,2-0.5,2-2.2v-2.1
		c0-1.5-0.5-2.2-1.7-2.2H616.5z"/>
	<path d="M624.3,231.5h10.2v3H631v18h-3.3v-18h-3.4V231.5z"/>
	<path d="M645.5,252.5h-3.3l-0.6-3.8h-4l-0.6,3.8h-3l3.4-21h4.8L645.5,252.5z M637.9,245.8h3.2l-1.6-10.6h-0.1L637.9,245.8z"/>
	<path d="M651.4,239.7c0-2.7,1.4-4.2,4-4.2c2.6,0,4,1.5,4,4.2v8.7c0,2.7-1.4,4.2-4,4.2c-2.6,0-4-1.5-4-4.2V239.7z M654,248.6
		c0,1.2,0.5,1.7,1.4,1.7c0.8,0,1.4-0.5,1.4-1.7v-9.1c0-1.2-0.5-1.7-1.4-1.7c-0.8,0-1.4,0.5-1.4,1.7V248.6z"/>
	<path d="M663.5,240.3L663.5,240.3l0,12.2h-2.4v-16.8h3.3l2.7,10.1h0v-10.1h2.4v16.8h-2.7L663.5,240.3z"/>
	<path d="M671.4,235.7h4.2c2.6,0,3.9,1.5,3.9,4.2v8.5c0,2.7-1.3,4.2-3.9,4.2h-4.2V235.7z M674,238.1v12h1.5c0.8,0,1.3-0.4,1.3-1.6
		v-8.7c0-1.2-0.5-1.6-1.3-1.6H674z"/>
	<path d="M683.8,242.8h3.6v2.4h-3.6v4.9h4.6v2.4h-7.2v-16.8h7.2v2.4h-4.6V242.8z"/>
	<path d="M697.8,249.4L697.8,249.4l2-13.7h2.4l-2.6,16.8h-3.9l-2.6-16.8h2.7L697.8,249.4z"/>
	<path d="M703.3,239.7c0-2.7,1.4-4.2,4-4.2c2.6,0,4,1.5,4,4.2v8.7c0,2.7-1.4,4.2-4,4.2c-2.6,0-4-1.5-4-4.2V239.7z M705.9,248.6
		c0,1.2,0.5,1.7,1.4,1.7c0.8,0,1.4-0.5,1.4-1.7v-9.1c0-1.2-0.5-1.7-1.4-1.7c-0.8,0-1.4,0.5-1.4,1.7V248.6z"/>
	<path d="M720.7,246.2v2.2c0,2.7-1.3,4.2-3.9,4.2c-2.6,0-3.9-1.5-3.9-4.2v-8.7c0-2.7,1.3-4.2,3.9-4.2c2.6,0,3.9,1.5,3.9,4.2v1.6
		h-2.5v-1.8c0-1.2-0.5-1.7-1.4-1.7c-0.8,0-1.4,0.5-1.4,1.7v9.1c0,1.2,0.5,1.6,1.4,1.6c0.8,0,1.4-0.4,1.4-1.6v-2.4H720.7z"/>
	<path d="M724.9,242.8h3.6v2.4h-3.6v4.9h4.6v2.4h-7.2v-16.8h7.2v2.4h-4.6V242.8z M722.5,234.8l2.1-2.7h2.4l2.1,2.7h-2.3l-1.1-1.3
		l-1.1,1.3H722.5z"/>
	<path d="M73.5,277.5h-2.7l-0.5-3h-3.2l-0.5,3h-2.4l2.7-16.8h3.9L73.5,277.5z M67.5,272.2H70l-1.2-8.5h0L67.5,272.2z"/>
	<path d="M82.4,271.2v2.2c0,2.7-1.3,4.2-3.9,4.2c-2.6,0-3.9-1.5-3.9-4.2v-8.7c0-2.7,1.3-4.2,3.9-4.2c2.6,0,3.9,1.5,3.9,4.2v1.6h-2.5
		v-1.8c0-1.2-0.5-1.7-1.4-1.7c-0.8,0-1.4,0.5-1.4,1.7v9.1c0,1.2,0.5,1.6,1.4,1.6c0.8,0,1.4-0.4,1.4-1.6v-2.4H82.4z"/>
	<path d="M86.6,277.5H84v-16.8h2.6v7.2h3v-7.2h2.7v16.8h-2.7v-7.2h-3V277.5z"/>
	<path d="M102.8,277.5h-2.7l-0.5-3h-3.2l-0.5,3h-2.4l2.7-16.8h3.9L102.8,277.5z M96.7,272.2h2.5l-1.2-8.5h0L96.7,272.2z"/>
	<path d="M107.5,264.7c0-2.7,1.4-4.2,4-4.2s4,1.5,4,4.2v8.7c0,0.9-0.2,1.7-0.5,2.4c0.1,0.3,0.3,0.4,0.7,0.4h0.2v2.4h-0.4
		c-1.2,0-1.9-0.4-2.3-1.2c-0.5,0.2-1.2,0.3-1.8,0.3c-2.6,0-4-1.5-4-4.2V264.7z M110.1,273.6c0,1.2,0.5,1.7,1.4,1.7
		c0.8,0,1.4-0.5,1.4-1.7v-9.1c0-1.2-0.5-1.7-1.4-1.7c-0.8,0-1.4,0.5-1.4,1.7V273.6z"/>
	<path d="M119.7,260.7v13c0,1.2,0.5,1.6,1.4,1.6c0.8,0,1.4-0.4,1.4-1.6v-13h2.5v12.8c0,2.7-1.3,4.2-3.9,4.2s-3.9-1.5-3.9-4.2v-12.8
		H119.7z"/>
	<path d="M129.4,267.8h3.6v2.4h-3.6v4.9h4.6v2.4h-7.2v-16.8h7.2v2.4h-4.6V267.8z"/>
	<path d="M142,267.8h3.6v2.4H142v4.9h4.6v2.4h-7.2v-16.8h7.2v2.4H142V267.8z"/>
	<path d="M148.1,260.7h2.6v14.4h4.3v2.4h-7V260.7z"/>
	<path d="M164.8,277.5h-2.7l-0.5-3h-3.2l-0.5,3h-2.4l2.7-16.8h3.9L164.8,277.5z M158.8,272.2h2.5l-1.2-8.5h0L158.8,272.2z"/>
	<path d="M172.4,267.8h3.6v2.4h-3.6v4.9h4.6v2.4h-7.2v-16.8h7.2v2.4h-4.6V267.8z"/>
	<path d="M182.2,260.5c2.6,0,3.9,1.5,3.9,4.2v0.5h-2.5v-0.7c0-1.2-0.5-1.7-1.3-1.7c-0.8,0-1.3,0.5-1.3,1.7c0,1.2,0.5,2.1,2.3,3.6
		c2.2,1.9,2.9,3.3,2.9,5.3c0,2.7-1.3,4.2-3.9,4.2s-3.9-1.5-3.9-4.2v-1h2.5v1.2c0,1.2,0.5,1.6,1.4,1.6c0.8,0,1.4-0.4,1.4-1.6
		c0-1.2-0.5-2.1-2.3-3.6c-2.2-1.9-2.9-3.3-2.9-5.3C178.3,262,179.6,260.5,182.2,260.5z"/>
	<path d="M186.8,260.7h8.2v2.4h-2.8v14.4h-2.6v-14.4h-2.8V260.7z"/>
	<path d="M203.8,277.5h-2.7l-0.5-3h-3.2l-0.5,3h-2.4l2.7-16.8h3.9L203.8,277.5z M197.7,272.2h2.5l-1.2-8.5h0L197.7,272.2z"/>
	<path d="M208.3,274.4L208.3,274.4l2-13.7h2.4l-2.6,16.8h-3.9l-2.6-16.8h2.7L208.3,274.4z"/>
	<path d="M222,277.5h-2.7l-0.5-3h-3.2l-0.5,3h-2.4l2.7-16.8h3.9L222,277.5z M215.9,272.2h2.5l-1.2-8.5h0L215.9,272.2z"/>
	<path d="M235.5,277.5h-2.7l-0.5-3h-3.2l-0.5,3h-2.4l2.7-16.8h3.9L235.5,277.5z M229.4,272.2h2.5l-1.2-8.5h0L229.4,272.2z"/>
	<path d="M239.1,265.3L239.1,265.3l0,12.2h-2.4v-16.8h3.3l2.7,10.1h0v-10.1h2.4v16.8h-2.7L239.1,265.3z"/>
	<path d="M246.2,260.7h8.2v2.4h-2.8v14.4h-2.6v-14.4h-2.8V260.7z"/>
	<path d="M258.1,267.8h3.6v2.4h-3.6v4.9h4.6v2.4h-7.2v-16.8h7.2v2.4h-4.6V267.8z"/>
	<path d="M267.9,260.5c2.6,0,3.9,1.5,3.9,4.2v0.5h-2.5v-0.7c0-1.2-0.5-1.7-1.3-1.7c-0.8,0-1.3,0.5-1.3,1.7c0,1.2,0.5,2.1,2.3,3.6
		c2.2,1.9,2.9,3.3,2.9,5.3c0,2.7-1.3,4.2-3.9,4.2s-3.9-1.5-3.9-4.2v-1h2.5v1.2c0,1.2,0.5,1.6,1.4,1.6c0.8,0,1.4-0.4,1.4-1.6
		c0-1.2-0.5-2.1-2.3-3.6c-2.2-1.9-2.9-3.3-2.9-5.3C264,262,265.3,260.5,267.9,260.5z"/>
	<path d="M275.7,275v2.5h-2.5V275H275.7z"/>
	<path d="M284.9,260.5c2.6,0,3.9,1.5,3.9,4.2v0.5h-2.5v-0.7c0-1.2-0.5-1.7-1.3-1.7c-0.8,0-1.3,0.5-1.3,1.7c0,1.2,0.5,2.1,2.3,3.6
		c2.2,1.9,2.9,3.3,2.9,5.3c0,2.7-1.3,4.2-3.9,4.2s-3.9-1.5-3.9-4.2v-1h2.5v1.2c0,1.2,0.5,1.6,1.4,1.6c0.8,0,1.4-0.4,1.4-1.6
		c0-1.2-0.5-2.1-2.3-3.6c-2.2-1.9-2.9-3.3-2.9-5.3C281,262,282.3,260.5,284.9,260.5z"/>
	<path d="M290.3,260.7h2.6v16.8h-2.6V260.7z"/>
	<path d="M300.4,272.6L300.4,272.6l1.8-11.9h3.7v16.8h-2.5v-12h0l-1.8,12h-2.5l-1.9-11.9h0v11.9h-2.3v-16.8h3.7L300.4,272.6z"/>
	<path d="M315.7,264.9v2.2c0,2.7-1.3,4.2-3.9,4.2h-1.2v6.3h-2.6v-16.8h3.9C314.4,260.7,315.7,262.2,315.7,264.9z M310.5,263.1v5.7
		h1.2c0.8,0,1.3-0.4,1.3-1.6v-2.5c0-1.2-0.5-1.6-1.3-1.6H310.5z"/>
	<path d="M316.9,260.7h2.6v14.4h4.3v2.4h-7V260.7z"/>
	<path d="M327.7,267.8h3.6v2.4h-3.6v4.9h4.6v2.4H325v-16.8h7.2v2.4h-4.6V267.8z"/>
	<path d="M337.4,260.5c2.6,0,3.9,1.5,3.9,4.2v0.5h-2.5v-0.7c0-1.2-0.5-1.7-1.3-1.7c-0.8,0-1.3,0.5-1.3,1.7c0,1.2,0.5,2.1,2.3,3.6
		c2.2,1.9,2.9,3.3,2.9,5.3c0,2.7-1.3,4.2-3.9,4.2s-3.9-1.5-3.9-4.2v-1h2.5v1.2c0,1.2,0.5,1.6,1.4,1.6c0.8,0,1.4-0.4,1.4-1.6
		c0-1.2-0.5-2.1-2.3-3.6c-2.2-1.9-2.9-3.3-2.9-5.3C333.5,262,334.9,260.5,337.4,260.5z"/>
	<path d="M342.7,277.5V275h2.5v2.3l-1.2,2.7H343l0.7-2.4H342.7z"/>
	<path d="M353.3,265.3L353.3,265.3l0,12.2h-2.4v-16.8h3.3l2.7,10.1h0v-10.1h2.4v16.8h-2.7L353.3,265.3z"/>
	<path d="M369.7,277.5H367l-0.5-3h-3.2l-0.5,3h-2.4l2.7-16.8h3.9L369.7,277.5z M367.1,257.3l1.3,0.9c-0.4,1.1-1.1,1.6-2,1.6
		c-0.4,0-0.7-0.1-1.3-0.3c-0.4-0.2-0.6-0.3-0.9-0.3c-0.5,0-0.8,0.2-1,0.7l-1.3-0.9c0.4-1.1,1.1-1.6,2-1.6c0.4,0,0.8,0.1,1.3,0.3
		c0.4,0.2,0.6,0.3,0.9,0.3C366.6,258,366.8,257.8,367.1,257.3z M363.7,272.2h2.5l-1.2-8.5h0L363.7,272.2z"/>
	<path d="M370.7,264.7c0-2.7,1.4-4.2,4-4.2s4,1.5,4,4.2v8.7c0,2.7-1.4,4.2-4,4.2s-4-1.5-4-4.2V264.7z M373.3,273.6
		c0,1.2,0.5,1.7,1.4,1.7c0.8,0,1.4-0.5,1.4-1.7v-9.1c0-1.2-0.5-1.7-1.4-1.7c-0.8,0-1.4,0.5-1.4,1.7V273.6z"/>
	<path d="M382.3,273.8c-0.1-0.3-0.1-0.6-0.1-1c0-1.3,0.3-2.3,1.4-3.8c1.2-1.7,1.5-2.8,1.5-4.4c0-1.2-0.5-1.7-1.3-1.7
		c-0.8,0-1.3,0.5-1.3,1.7v1.8h-2.5v-1.7c0-2.7,1.3-4.2,3.9-4.2c2.6,0,3.9,1.5,3.9,4.2c0,1.8-0.5,3.1-1.8,4.8c-1,1.4-1.3,2.2-1.3,3.3
		c0,0.3,0,0.6,0.1,0.9H382.3z M384.8,275v2.5h-2.5V275H384.8z"/>
	<path d="M70.5,322.6L70.5,322.6l1.8-11.9H76v16.8h-2.5v-12h0l-1.8,12h-2.5l-1.9-11.9h0v11.9h-2.3v-16.8h3.7L70.5,322.6z"/>
	<path d="M86.5,327.5h-2.7l-0.5-3h-3.2l-0.5,3h-2.4l2.7-16.8h3.9L86.5,327.5z M80.5,322.2H83l-1.2-8.5h0L80.5,322.2z"/>
	<path d="M91.3,310.5c2.6,0,3.9,1.5,3.9,4.2v0.5h-2.5v-0.7c0-1.2-0.5-1.7-1.3-1.7c-0.8,0-1.3,0.5-1.3,1.7c0,1.2,0.5,2.1,2.3,3.6
		c2.2,1.9,2.9,3.3,2.9,5.3c0,2.7-1.3,4.2-3.9,4.2s-3.9-1.5-3.9-4.2v-1h2.5v1.2c0,1.2,0.5,1.6,1.4,1.6c0.8,0,1.4-0.4,1.4-1.6
		c0-1.2-0.5-2.1-2.3-3.6c-2.2-1.9-2.9-3.3-2.9-5.3C87.4,312,88.7,310.5,91.3,310.5z"/>
	<path d="M100.3,310.7h2.6v14.4h4.3v2.4h-7V310.7z"/>
	<path d="M111.1,317.8h3.6v2.4h-3.6v4.9h4.6v2.4h-7.2v-16.8h7.2v2.4h-4.6V317.8z"/>
	<path d="M122.8,322.6L122.8,322.6l1.8-11.9h3.7v16.8h-2.5v-12h0l-1.8,12h-2.5l-1.9-11.9h0v11.9h-2.3v-16.8h3.7L122.8,322.6z"/>
	<path d="M138.1,314.6v0.6c0,1.7-0.5,2.8-1.7,3.4v0c1.4,0.6,2,1.8,2,3.6v1.4c0,2.6-1.4,4-4,4h-4.2v-16.8h4
		C137,310.7,138.1,312,138.1,314.6z M132.9,313.1v4.4h1c1,0,1.6-0.4,1.6-1.8v-0.9c0-1.2-0.4-1.7-1.3-1.7H132.9z M132.9,319.9v5.2
		h1.5c0.9,0,1.4-0.4,1.4-1.7V322c0-1.6-0.5-2-1.7-2H132.9z"/>
	<path d="M145.5,327.5c-0.1-0.4-0.2-0.7-0.2-2.1v-2.6c0-1.6-0.5-2.1-1.7-2.1h-0.9v6.8H140v-16.8h4c2.7,0,3.9,1.3,3.9,3.9v1.3
		c0,1.7-0.6,2.8-1.7,3.4v0c1.3,0.6,1.8,1.8,1.8,3.6v2.6c0,0.8,0,1.4,0.3,2H145.5z M142.6,313.1v5.2h1c1,0,1.6-0.4,1.6-1.8v-1.7
		c0-1.2-0.4-1.7-1.3-1.7H142.6z"/>
	<path d="M152.3,317.8h3.6v2.4h-3.6v4.9h4.6v2.4h-7.2v-16.8h7.2v2.4h-4.6V317.8z"/>
	<path d="M158.3,317.9h4.8v2.4h-4.8V317.9z"/>
	<path d="M168.5,310.5c2.6,0,3.9,1.5,3.9,4.2v0.5h-2.5v-0.7c0-1.2-0.5-1.7-1.3-1.7c-0.8,0-1.3,0.5-1.3,1.7c0,1.2,0.5,2.1,2.3,3.6
		c2.2,1.9,2.9,3.3,2.9,5.3c0,2.7-1.3,4.2-3.9,4.2s-3.9-1.5-3.9-4.2v-1h2.5v1.2c0,1.2,0.5,1.6,1.4,1.6c0.8,0,1.4-0.4,1.4-1.6
		c0-1.2-0.5-2.1-2.3-3.6c-2.2-1.9-2.9-3.3-2.9-5.3C164.6,312,165.9,310.5,168.5,310.5z"/>
	<path d="M176.6,317.8h3.6v2.4h-3.6v4.9h4.6v2.4h-7.2v-16.8h7.2v2.4h-4.6V317.8z"/>
	<path d="M185.3,315.8v2.5h-2.5v-2.5H185.3z M185.3,325v2.5h-2.5V325H185.3z"/>
	<path d="M194.4,310.5c2.6,0,3.9,1.5,3.9,4.2v0.5h-2.5v-0.7c0-1.2-0.5-1.7-1.3-1.7c-0.8,0-1.3,0.5-1.3,1.7c0,1.2,0.5,2.1,2.3,3.6
		c2.2,1.9,2.9,3.3,2.9,5.3c0,2.7-1.3,4.2-3.9,4.2s-3.9-1.5-3.9-4.2v-1h2.5v1.2c0,1.2,0.5,1.6,1.4,1.6c0.8,0,1.4-0.4,1.4-1.6
		c0-1.2-0.5-2.1-2.3-3.6c-2.2-1.9-2.9-3.3-2.9-5.3C190.5,312,191.8,310.5,194.4,310.5z"/>
	<path d="M202.4,317.8h3.6v2.4h-3.6v4.9h4.6v2.4h-7.2v-16.8h7.2v2.4h-4.6V317.8z"/>
	<path d="M216.2,324.4L216.2,324.4l2-13.7h2.4l-2.6,16.8h-3.9l-2.6-16.8h2.7L216.2,324.4z"/>
	<path d="M221.6,314.7c0-2.7,1.4-4.2,4-4.2s4,1.5,4,4.2v8.7c0,2.7-1.4,4.2-4,4.2s-4-1.5-4-4.2V314.7z M224.3,323.6
		c0,1.2,0.5,1.7,1.4,1.7c0.8,0,1.4-0.5,1.4-1.7v-9.1c0-1.2-0.5-1.7-1.4-1.7c-0.8,0-1.4,0.5-1.4,1.7V323.6z"/>
	<path d="M239,321.2v2.2c0,2.7-1.3,4.2-3.9,4.2c-2.6,0-3.9-1.5-3.9-4.2v-8.7c0-2.7,1.3-4.2,3.9-4.2c2.6,0,3.9,1.5,3.9,4.2v1.6h-2.5
		v-1.8c0-1.2-0.5-1.7-1.4-1.7c-0.8,0-1.4,0.5-1.4,1.7v9.1c0,1.2,0.5,1.6,1.4,1.6c0.8,0,1.4-0.4,1.4-1.6v-2.4H239z"/>
	<path d="M243.2,317.8h3.6v2.4h-3.6v4.9h4.6v2.4h-7.2v-16.8h7.2v2.4h-4.6V317.8z M240.8,309.8l2.1-2.7h2.4l2.1,2.7h-2.3l-1.1-1.3
		l-1.1,1.3H240.8z"/>
	<path d="M255.7,317.8h3.6v2.4h-3.6v4.9h4.6v2.4H253v-16.8h7.2v2.4h-4.6V317.8z"/>
	<path d="M267.4,327.5c-0.1-0.4-0.2-0.7-0.2-2.1v-2.6c0-1.6-0.5-2.1-1.7-2.1h-0.9v6.8h-2.6v-16.8h4c2.7,0,3.9,1.3,3.9,3.9v1.3
		c0,1.7-0.6,2.8-1.7,3.4v0c1.3,0.6,1.8,1.8,1.8,3.6v2.6c0,0.8,0,1.4,0.3,2H267.4z M264.5,313.1v5.2h1c1,0,1.6-0.4,1.6-1.8v-1.7
		c0-1.2-0.4-1.7-1.3-1.7H264.5z"/>
	<path d="M277,327.5c-0.1-0.4-0.2-0.7-0.2-2.1v-2.6c0-1.6-0.5-2.1-1.7-2.1h-0.9v6.8h-2.6v-16.8h4c2.7,0,3.9,1.3,3.9,3.9v1.3
		c0,1.7-0.6,2.8-1.7,3.4v0c1.3,0.6,1.8,1.8,1.8,3.6v2.6c0,0.8,0,1.4,0.3,2H277z M274.2,313.1v5.2h1c1,0,1.6-0.4,1.6-1.8v-1.7
		c0-1.2-0.4-1.7-1.3-1.7H274.2z"/>
	<path d="M289.7,327.5H287l-0.5-3h-3.2l-0.5,3h-2.4l2.7-16.8h3.9L289.7,327.5z M283.7,322.2h2.5l-1.2-8.5h0L283.7,322.2z"/>
	<path d="M296.5,327.5c-0.1-0.4-0.2-0.7-0.2-2.1v-2.6c0-1.6-0.5-2.1-1.7-2.1h-0.9v6.8h-2.6v-16.8h4c2.7,0,3.9,1.3,3.9,3.9v1.3
		c0,1.7-0.6,2.8-1.7,3.4v0c1.3,0.6,1.8,1.8,1.8,3.6v2.6c0,0.8,0,1.4,0.3,2H296.5z M293.6,313.1v5.2h1c1,0,1.6-0.4,1.6-1.8v-1.7
		c0-1.2-0.4-1.7-1.3-1.7H293.6z"/>
	<path d="M303.4,310.7h8.2v2.4h-2.8v14.4h-2.6v-14.4h-2.8V310.7z"/>
	<path d="M318.2,327.5c-0.1-0.4-0.2-0.7-0.2-2.1v-2.6c0-1.6-0.5-2.1-1.7-2.1h-0.9v6.8h-2.6v-16.8h4c2.7,0,3.9,1.3,3.9,3.9v1.3
		c0,1.7-0.6,2.8-1.7,3.4v0c1.3,0.6,1.8,1.8,1.8,3.6v2.6c0,0.8,0,1.4,0.3,2H318.2z M315.4,313.1v5.2h1c1,0,1.6-0.4,1.6-1.8v-1.7
		c0-1.2-0.4-1.7-1.3-1.7H315.4z"/>
	<path d="M325,317.8h3.6v2.4H325v4.9h4.6v2.4h-7.2v-16.8h7.2v2.4H325V317.8z M322.6,309.8l2.1-2.7h2.4l2.1,2.7H327l-1.1-1.3
		l-1.1,1.3H322.6z"/>
	<path d="M334.8,310.5c2.6,0,3.9,1.5,3.9,4.2v0.5h-2.5v-0.7c0-1.2-0.5-1.7-1.3-1.7c-0.8,0-1.3,0.5-1.3,1.7c0,1.2,0.5,2.1,2.3,3.6
		c2.2,1.9,2.9,3.3,2.9,5.3c0,2.7-1.3,4.2-3.9,4.2s-3.9-1.5-3.9-4.2v-1h2.5v1.2c0,1.2,0.5,1.6,1.4,1.6c0.8,0,1.4-0.4,1.4-1.6
		c0-1.2-0.5-2.1-2.3-3.6c-2.2-1.9-2.9-3.3-2.9-5.3C330.9,312,332.2,310.5,334.8,310.5z"/>
	<path d="M351.4,321.2v2.2c0,2.7-1.3,4.2-3.9,4.2c-2.6,0-3.9-1.5-3.9-4.2v-8.7c0-2.7,1.3-4.2,3.9-4.2c2.6,0,3.9,1.5,3.9,4.2v1.6
		h-2.5v-1.8c0-1.2-0.5-1.7-1.4-1.7c-0.8,0-1.4,0.5-1.4,1.7v9.1c0,1.2,0.5,1.6,1.4,1.6c0.8,0,1.4-0.4,1.4-1.6v-2.4H351.4z"/>
	<path d="M352.8,314.7c0-2.7,1.4-4.2,4-4.2s4,1.5,4,4.2v8.7c0,2.7-1.4,4.2-4,4.2s-4-1.5-4-4.2V314.7z M355.5,323.6
		c0,1.2,0.5,1.7,1.4,1.7c0.8,0,1.4-0.5,1.4-1.7v-9.1c0-1.2-0.5-1.7-1.4-1.7c-0.8,0-1.4,0.5-1.4,1.7V323.6z"/>
	<path d="M368.1,322.6L368.1,322.6l1.8-11.9h3.7v16.8h-2.5v-12h0l-1.8,12h-2.5l-1.9-11.9h0v11.9h-2.3v-16.8h3.7L368.1,322.6z"/>
	<path d="M383.4,314.6v0.6c0,1.7-0.5,2.8-1.7,3.4v0c1.4,0.6,2,1.8,2,3.6v1.4c0,2.6-1.4,4-4,4h-4.2v-16.8h4
		C382.3,310.7,383.4,312,383.4,314.6z M378.2,313.1v4.4h1c1,0,1.6-0.4,1.6-1.8v-0.9c0-1.2-0.4-1.7-1.3-1.7H378.2z M378.2,319.9v5.2
		h1.5c0.9,0,1.4-0.4,1.4-1.7V322c0-1.6-0.5-2-1.7-2H378.2z"/>
	<path d="M385.3,310.7h2.6v16.8h-2.6V310.7z"/>
	<path d="M392.2,315.3L392.2,315.3l0,12.2h-2.4v-16.8h3.3l2.7,10.1h0v-10.1h2.4v16.8h-2.7L392.2,315.3z"/>
	<path d="M408.6,327.5H406l-0.5-3h-3.2l-0.5,3h-2.4l2.7-16.8h3.9L408.6,327.5z M402.6,322.2h2.5l-1.2-8.5h0L402.6,322.2z"/>
	<path d="M417.5,321.2v2.2c0,2.5-1.2,4-3.4,4.2v0.8c1.2,0,1.8,0.3,1.8,1.1c0,1.3-1,1.5-2.4,1.5c-1.3,0-2.3-0.3-2.3-1.4v-0.2h1.8v0.2
		c0,0.4,0.3,0.5,0.5,0.5c0.4,0,0.6-0.2,0.6-0.6c0-0.5-0.3-0.6-0.9-0.6h-0.2v-1.2c-2.2-0.2-3.3-1.7-3.3-4.2v-8.7
		c0-2.7,1.3-4.2,3.9-4.2c2.6,0,3.9,1.5,3.9,4.2v1.6H415v-1.8c0-1.2-0.5-1.7-1.4-1.7c-0.8,0-1.4,0.5-1.4,1.7v9.1
		c0,1.2,0.5,1.6,1.4,1.6c0.8,0,1.4-0.4,1.4-1.6v-2.4H417.5z"/>
	<path d="M418.9,314.7c0-2.7,1.4-4.2,4-4.2c2.6,0,4,1.5,4,4.2v8.7c0,2.7-1.4,4.2-4,4.2c-2.6,0-4-1.5-4-4.2V314.7z M424.9,307.3
		l1.3,0.9c-0.4,1.1-1.1,1.6-2,1.6c-0.4,0-0.7-0.1-1.3-0.3c-0.4-0.2-0.6-0.3-0.9-0.3c-0.5,0-0.8,0.2-1,0.7l-1.3-0.9
		c0.4-1.1,1.1-1.6,2-1.6c0.4,0,0.8,0.1,1.3,0.3c0.4,0.2,0.6,0.3,0.9,0.3C424.4,308,424.6,307.8,424.9,307.3z M421.5,323.6
		c0,1.2,0.5,1.7,1.4,1.7c0.8,0,1.4-0.5,1.4-1.7v-9.1c0-1.2-0.5-1.7-1.4-1.7c-0.8,0-1.4,0.5-1.4,1.7V323.6z"/>
	<path d="M431.2,317.8h3.6v2.4h-3.6v4.9h4.6v2.4h-7.2v-16.8h7.2v2.4h-4.6V317.8z"/>
	<path d="M441,310.5c2.6,0,3.9,1.5,3.9,4.2v0.5h-2.5v-0.7c0-1.2-0.5-1.7-1.3-1.7c-0.8,0-1.3,0.5-1.3,1.7c0,1.2,0.5,2.1,2.3,3.6
		c2.2,1.9,2.9,3.3,2.9,5.3c0,2.7-1.3,4.2-3.9,4.2c-2.6,0-3.9-1.5-3.9-4.2v-1h2.5v1.2c0,1.2,0.5,1.6,1.4,1.6c0.8,0,1.4-0.4,1.4-1.6
		c0-1.2-0.5-2.1-2.3-3.6c-2.2-1.9-2.9-3.3-2.9-5.3C437.1,312,438.4,310.5,441,310.5z"/>
	<path d="M446.3,327.5V325h2.5v2.3l-1.2,2.7h-1.1l0.7-2.4H446.3z"/>
	<path d="M457.9,310.5c2.6,0,3.9,1.5,3.9,4.2v0.5h-2.5v-0.7c0-1.2-0.5-1.7-1.3-1.7c-0.8,0-1.3,0.5-1.3,1.7c0,1.2,0.5,2.1,2.3,3.6
		c2.2,1.9,2.9,3.3,2.9,5.3c0,2.7-1.3,4.2-3.9,4.2c-2.6,0-3.9-1.5-3.9-4.2v-1h2.5v1.2c0,1.2,0.5,1.6,1.4,1.6c0.8,0,1.4-0.4,1.4-1.6
		c0-1.2-0.5-2.1-2.3-3.6c-2.2-1.9-2.9-3.3-2.9-5.3C454,312,455.3,310.5,457.9,310.5z"/>
	<path d="M466,317.8h3.6v2.4H466v4.9h4.6v2.4h-7.2v-16.8h7.2v2.4H466V317.8z"/>
	<path d="M471.4,325.1c0.3,0,0.6,0,0.9,0c0.8,0,1.5-0.3,1.5-1.6v-12.8h2.6v12.6c0,3.4-1.8,4.2-3.8,4.2c-0.5,0-0.8,0-1.3,0V325.1z"/>
	<path d="M486.8,327.5h-2.7l-0.5-3h-3.2l-0.5,3h-2.4l2.7-16.8h3.9L486.8,327.5z M480.8,322.2h2.5l-1.2-8.5h0L480.8,322.2z"/>
	<path d="M491.7,310.7h4.2c2.6,0,3.9,1.5,3.9,4.2v8.5c0,2.7-1.3,4.2-3.9,4.2h-4.2V310.7z M494.3,313.1v12h1.5c0.8,0,1.3-0.4,1.3-1.6
		v-8.7c0-1.2-0.5-1.6-1.3-1.6H494.3z"/>
	<path d="M504.1,317.8h3.6v2.4h-3.6v4.9h4.6v2.4h-7.2v-16.8h7.2v2.4h-4.6V317.8z"/>
	<path d="M513.9,311.5c0-3.4,1.8-5.3,5-5.3c3.2,0,5,1.9,5,5.3v10.9c0,3.4-1.8,5.3-5,5.3c-3.2,0-5-1.9-5-5.3V311.5z M517.2,322.7
		c0,1.5,0.7,2.1,1.7,2.1s1.7-0.6,1.7-2.1v-11.3c0-1.5-0.7-2.1-1.7-2.1s-1.7,0.6-1.7,2.1V322.7z"/>
	<path d="M535.9,311.3v0.8c0,2.2-0.7,3.5-2.1,4.2v0.1c1.8,0.7,2.5,2.3,2.5,4.5v1.7c0,3.2-1.7,5-5,5H526v-21h5
		C534.4,306.5,535.9,308.1,535.9,311.3z M529.3,309.5v5.5h1.3c1.2,0,2-0.5,2-2.2v-1.2c0-1.5-0.5-2.2-1.7-2.2H529.3z M529.3,318.1
		v6.4h1.9c1.1,0,1.7-0.5,1.7-2.1v-1.8c0-2-0.6-2.5-2.1-2.5H529.3z"/>
	<path d="M537.3,324.5c0.4,0,0.8,0,1.1,0c1,0,1.9-0.4,1.9-2v-16h3.3v15.8c0,4.2-2.3,5.3-4.7,5.3c-0.6,0-1,0-1.6-0.1V324.5z"/>
	<path d="M549.2,315.4h4.5v3h-4.5v6.1h5.7v3h-9v-21h9v3h-5.7V315.4z"/>
	<path d="M555.9,306.5h10.2v3h-3.5v18h-3.3v-18h-3.4V306.5z"/>
	<path d="M567.3,311.5c0-3.4,1.8-5.3,5-5.3c3.2,0,5,1.9,5,5.3v10.9c0,3.4-1.8,5.3-5,5.3c-3.2,0-5-1.9-5-5.3V311.5z M570.6,322.7
		c0,1.5,0.7,2.1,1.7,2.1s1.7-0.6,1.7-2.1v-11.3c0-1.5-0.7-2.1-1.7-2.1s-1.7,0.6-1.7,2.1V322.7z"/>
	<path d="M583.9,306.3c3.2,0,4.9,1.9,4.9,5.3v0.7h-3.1v-0.9c0-1.5-0.6-2.1-1.7-2.1s-1.6,0.6-1.6,2.1c0,1.5,0.7,2.7,2.8,4.6
		c2.8,2.4,3.6,4.2,3.6,6.6c0,3.4-1.7,5.3-4.9,5.3c-3.2,0-4.9-1.9-4.9-5.3v-1.3h3.1v1.5c0,1.5,0.7,2,1.7,2s1.7-0.5,1.7-2
		c0-1.5-0.7-2.7-2.8-4.6c-2.8-2.4-3.6-4.2-3.6-6.6C579,308.2,580.7,306.3,583.9,306.3z"/>
	<path d="M594.7,314.7c0-2.7,1.4-4.2,4-4.2c2.6,0,4,1.5,4,4.2v8.7c0,2.7-1.4,4.2-4,4.2c-2.6,0-4-1.5-4-4.2V314.7z M597.4,323.6
		c0,1.2,0.5,1.7,1.4,1.7c0.8,0,1.4-0.5,1.4-1.7v-9.1c0-1.2-0.5-1.7-1.4-1.7c-0.8,0-1.4,0.5-1.4,1.7V323.6z"/>
	<path d="M607,310.7v13c0,1.2,0.5,1.6,1.4,1.6s1.4-0.4,1.4-1.6v-13h2.5v12.8c0,2.7-1.3,4.2-3.9,4.2s-3.9-1.5-3.9-4.2v-12.8H607z"/>
	<path d="M627.6,311.7v2.7c0,3.4-1.6,5.2-4.9,5.2h-1.6v7.9h-3.3v-21h4.9C626,306.5,627.6,308.3,627.6,311.7z M621.1,309.5v7.1h1.6
		c1,0,1.6-0.5,1.6-2v-3.2c0-1.5-0.6-2-1.6-2H621.1z"/>
	<path d="M628.9,311.5c0-3.4,1.8-5.3,5-5.3c3.2,0,5,1.9,5,5.3v10.9c0,3.4-1.8,5.3-5,5.3c-3.2,0-5-1.9-5-5.3V311.5z M632.2,322.7
		c0,1.5,0.7,2.1,1.7,2.1s1.7-0.6,1.7-2.1v-11.3c0-1.5-0.7-2.1-1.7-2.1s-1.7,0.6-1.7,2.1V322.7z"/>
	<path d="M647.9,327.5c-0.2-0.5-0.3-0.9-0.3-2.6v-3.3c0-2-0.7-2.7-2.2-2.7h-1.1v8.5H641v-21h5c3.4,0,4.9,1.6,4.9,4.8v1.6
		c0,2.2-0.7,3.5-2.2,4.2v0.1c1.7,0.7,2.2,2.3,2.2,4.4v3.2c0,1,0,1.8,0.4,2.5H647.9z M644.3,309.5v6.4h1.3c1.2,0,2-0.5,2-2.2v-2.1
		c0-1.5-0.5-2.2-1.7-2.2H644.3z"/>
	<path d="M652.1,306.5h10.2v3h-3.5v18h-3.3v-18h-3.4V306.5z"/>
	<path d="M673.3,327.5H670l-0.6-3.8h-4l-0.6,3.8h-3l3.4-21h4.8L673.3,327.5z M665.8,320.8h3.2l-1.6-10.6h-0.1L665.8,320.8z"/>
	<path d="M679.3,306.3c3.2,0,4.9,1.9,4.9,5.3v0.7H681v-0.9c0-1.5-0.6-2.1-1.7-2.1s-1.6,0.6-1.6,2.1c0,1.5,0.7,2.7,2.8,4.6
		c2.8,2.4,3.6,4.2,3.6,6.6c0,3.4-1.7,5.3-4.9,5.3c-3.2,0-4.9-1.9-4.9-5.3v-1.3h3.1v1.5c0,1.5,0.7,2,1.7,2s1.7-0.5,1.7-2
		c0-1.5-0.7-2.7-2.8-4.6c-2.8-2.4-3.6-4.2-3.6-6.6C674.4,308.2,676.1,306.3,679.3,306.3z"/>
	<path d="M685.8,327.5V325h2.5v2.3l-1.2,2.7h-1.1l0.7-2.4H685.8z"/>
	<path d="M697.8,324.4L697.8,324.4l2-13.7h2.4l-2.6,16.8h-3.9l-2.6-16.8h2.7L697.8,324.4z"/>
	<path d="M703.3,314.7c0-2.7,1.4-4.2,4-4.2c2.6,0,4,1.5,4,4.2v8.7c0,2.7-1.4,4.2-4,4.2c-2.6,0-4-1.5-4-4.2V314.7z M705.9,323.6
		c0,1.2,0.5,1.7,1.4,1.7c0.8,0,1.4-0.5,1.4-1.7v-9.1c0-1.2-0.5-1.7-1.4-1.7c-0.8,0-1.4,0.5-1.4,1.7V323.6z"/>
	<path d="M720.7,321.2v2.2c0,2.7-1.3,4.2-3.9,4.2c-2.6,0-3.9-1.5-3.9-4.2v-8.7c0-2.7,1.3-4.2,3.9-4.2c2.6,0,3.9,1.5,3.9,4.2v1.6
		h-2.5v-1.8c0-1.2-0.5-1.7-1.4-1.7c-0.8,0-1.4,0.5-1.4,1.7v9.1c0,1.2,0.5,1.6,1.4,1.6c0.8,0,1.4-0.4,1.4-1.6v-2.4H720.7z"/>
	<path d="M724.9,317.8h3.6v2.4h-3.6v4.9h4.6v2.4h-7.2v-16.8h7.2v2.4h-4.6V317.8z M722.5,309.8l2.1-2.7h2.4l2.1,2.7h-2.3l-1.1-1.3
		l-1.1,1.3H722.5z"/>
	<path d="M72.8,339.9v2.2c0,2.7-1.3,4.2-3.9,4.2h-1.2v6.3H65v-16.8h3.9C71.5,335.7,72.8,337.2,72.8,339.9z M67.6,338.1v5.7h1.2
		c0.8,0,1.3-0.4,1.3-1.6v-2.5c0-1.2-0.5-1.6-1.3-1.6H67.6z"/>
	<path d="M76.6,342.8h3.6v2.4h-3.6v4.9h4.6v2.4H74v-16.8h7.2v2.4h-4.6V342.8z"/>
	<path d="M88.4,352.5c-0.1-0.4-0.2-0.7-0.2-2.1v-2.6c0-1.6-0.5-2.1-1.7-2.1h-0.9v6.8h-2.6v-16.8h4c2.7,0,3.9,1.3,3.9,3.9v1.3
		c0,1.7-0.6,2.8-1.7,3.4v0c1.3,0.6,1.8,1.8,1.8,3.6v2.6c0,0.8,0,1.4,0.3,2H88.4z M85.5,338.1v5.2h1c1,0,1.6-0.4,1.6-1.8v-1.7
		c0-1.2-0.4-1.7-1.3-1.7H85.5z"/>
	<path d="M92.5,335.7h4.2c2.6,0,3.9,1.5,3.9,4.2v8.5c0,2.7-1.3,4.2-3.9,4.2h-4.2V335.7z M95.1,338.1v12h1.5c0.8,0,1.3-0.4,1.3-1.6
		v-8.7c0-1.2-0.5-1.6-1.3-1.6H95.1z"/>
	<path d="M104.9,342.8h3.6v2.4h-3.6v4.9h4.6v2.4h-7.2v-16.8h7.2v2.4h-4.6V342.8z"/>
	<path d="M116.6,352.5c-0.1-0.4-0.2-0.7-0.2-2.1v-2.6c0-1.6-0.5-2.1-1.7-2.1h-0.9v6.8h-2.6v-16.8h4c2.7,0,3.9,1.3,3.9,3.9v1.3
		c0,1.7-0.6,2.8-1.7,3.4v0c1.3,0.6,1.8,1.8,1.8,3.6v2.6c0,0.8,0,1.4,0.3,2H116.6z M113.8,338.1v5.2h1c1,0,1.6-0.4,1.6-1.8v-1.7
		c0-1.2-0.4-1.7-1.3-1.7H113.8z"/>
	<path d="M129.3,352.5h-2.7l-0.5-3h-3.2l-0.5,3h-2.4l2.7-16.8h3.9L129.3,352.5z M127.5,332.1l-2.4,2.7h-1.8l1.6-2.7H127.5z
		 M123.3,347.2h2.5l-1.2-8.5h0L123.3,347.2z"/>
	<path d="M142.8,352.5h-2.7l-0.5-3h-3.2l-0.5,3h-2.4l2.7-16.8h3.9L142.8,352.5z M136.8,347.2h2.5l-1.2-8.5h0L136.8,347.2z"/>
	<path d="M151.7,349.4L151.7,349.4l2-13.7h2.4l-2.6,16.8h-3.9l-2.6-16.8h2.7L151.7,349.4z"/>
	<path d="M160,342.8h3.6v2.4H160v4.9h4.6v2.4h-7.2v-16.8h7.2v2.4H160V342.8z"/>
	<path d="M173.5,335.7v2.4l-5,12h5v2.4h-7.7v-2.4l5-12H166v-2.4H173.5z"/>
	<path d="M177.6,350v2.5h-2.5V350H177.6z"/>
	<path d="M67.6,392.8h3.6v2.4h-3.6v4.9h4.6v2.4H65v-16.8h7.2v2.4h-4.6V392.8z"/>
	<path d="M82.6,385.7l-2.8,8.2l3,8.6H80l-2.1-6.6h0l-2.2,6.6h-2.5l3-8.6l-2.8-8.2h2.7l2,6.2h0l2-6.2H82.6z"/>
	<path d="M86.8,392.8h3.6v2.4h-3.6v4.9h4.6v2.4h-7.2v-16.8h7.2v2.4h-4.6V392.8z"/>
	<path d="M98.5,402.5c-0.1-0.4-0.2-0.7-0.2-2.1v-2.6c0-1.6-0.5-2.1-1.7-2.1h-0.9v6.8h-2.6v-16.8h4c2.7,0,3.9,1.3,3.9,3.9v1.3
		c0,1.7-0.6,2.8-1.7,3.4v0c1.3,0.6,1.8,1.8,1.8,3.6v2.6c0,0.8,0,1.4,0.3,2H98.5z M95.6,388.1v5.2h1c1,0,1.6-0.4,1.6-1.8v-1.7
		c0-1.2-0.4-1.7-1.3-1.7H95.6z"/>
	<path d="M110.2,396.2v2.2c0,2.7-1.3,4.2-3.9,4.2c-2.6,0-3.9-1.5-3.9-4.2v-8.7c0-2.7,1.3-4.2,3.9-4.2c2.6,0,3.9,1.5,3.9,4.2v1.6
		h-2.5v-1.8c0-1.2-0.5-1.7-1.4-1.7c-0.8,0-1.4,0.5-1.4,1.7v9.1c0,1.2,0.5,1.6,1.4,1.6c0.8,0,1.4-0.4,1.4-1.6v-2.4H110.2z"/>
	<path d="M111.9,385.7h2.6v16.8h-2.6V385.7z"/>
	<path d="M115.6,385.7h8.2v2.4H121v14.4h-2.6v-14.4h-2.8V385.7z"/>
	<path d="M127.6,392.8h3.6v2.4h-3.6v4.9h4.6v2.4H125v-16.8h7.2v2.4h-4.6V392.8z"/>
	<path d="M141.1,385.5c2.6,0,3.9,1.5,3.9,4.2v0.5h-2.5v-0.7c0-1.2-0.5-1.7-1.3-1.7c-0.8,0-1.3,0.5-1.3,1.7c0,1.2,0.5,2.1,2.3,3.6
		c2.2,1.9,2.9,3.3,2.9,5.3c0,2.7-1.3,4.2-3.9,4.2s-3.9-1.5-3.9-4.2v-1h2.5v1.2c0,1.2,0.5,1.6,1.4,1.6c0.8,0,1.4-0.4,1.4-1.6
		c0-1.2-0.5-2.1-2.3-3.6c-2.2-1.9-2.9-3.3-2.9-5.3C137.2,387,138.5,385.5,141.1,385.5z"/>
	<path d="M149,385.7v13c0,1.2,0.5,1.6,1.4,1.6c0.8,0,1.4-0.4,1.4-1.6v-13h2.5v12.8c0,2.7-1.3,4.2-3.9,4.2s-3.9-1.5-3.9-4.2v-12.8
		H149z"/>
	<path d="M164.6,402.5h-2.7l-0.5-3h-3.2l-0.5,3h-2.4l2.7-16.8h3.9L164.6,402.5z M158.6,397.2h2.5l-1.2-8.5h0L158.6,397.2z"/>
	<path d="M175.1,397.6L175.1,397.6l1.8-11.9h3.7v16.8h-2.5v-12h0l-1.8,12h-2.5l-1.9-11.9h0v11.9h-2.3v-16.8h3.7L175.1,397.6z"/>
	<path d="M185.1,392.8h3.6v2.4h-3.6v4.9h4.6v2.4h-7.2v-16.8h7.2v2.4h-4.6V392.8z"/>
	<path d="M196.9,397.6L196.9,397.6l1.8-11.9h3.7v16.8h-2.5v-12h0l-1.8,12h-2.5l-1.9-11.9h0v11.9h-2.3v-16.8h3.7L196.9,397.6z"/>
	<path d="M204.1,389.7c0-2.7,1.4-4.2,4-4.2s4,1.5,4,4.2v8.7c0,2.7-1.4,4.2-4,4.2s-4-1.5-4-4.2V389.7z M210.9,382.1l-2.4,2.7h-1.8
		l1.6-2.7H210.9z M206.7,398.6c0,1.2,0.5,1.7,1.4,1.7c0.8,0,1.4-0.5,1.4-1.7v-9.1c0-1.2-0.5-1.7-1.4-1.7c-0.8,0-1.4,0.5-1.4,1.7
		V398.6z"/>
	<path d="M219.3,402.5c-0.1-0.4-0.2-0.7-0.2-2.1v-2.6c0-1.6-0.5-2.1-1.7-2.1h-0.9v6.8h-2.6v-16.8h4c2.7,0,3.9,1.3,3.9,3.9v1.3
		c0,1.7-0.6,2.8-1.7,3.4v0c1.3,0.6,1.8,1.8,1.8,3.6v2.6c0,0.8,0,1.4,0.3,2H219.3z M216.5,388.1v5.2h1c1,0,1.6-0.4,1.6-1.8v-1.7
		c0-1.2-0.4-1.7-1.3-1.7H216.5z"/>
	<path d="M223.5,385.7h2.6v16.8h-2.6V385.7z"/>
	<path d="M236.6,402.5h-2.7l-0.5-3h-3.2l-0.5,3h-2.4l2.7-16.8h3.9L236.6,402.5z M230.6,397.2h2.5l-1.2-8.5h0L230.6,397.2z"/>
	<path d="M244.2,392.8h3.6v2.4h-3.6v4.9h4.6v2.4h-7.2v-16.8h7.2v2.4h-4.6V392.8z"/>
	<path d="M258,399.4L258,399.4l2-13.7h2.4l-2.6,16.8H256l-2.6-16.8h2.7L258,399.4z"/>
	<path d="M266.4,392.8h3.6v2.4h-3.6v4.9h4.6v2.4h-7.2v-16.8h7.2v2.4h-4.6V392.8z"/>
	<path d="M271.8,400.1c0.3,0,0.6,0,0.9,0c0.8,0,1.5-0.3,1.5-1.6v-12.8h2.6v12.6c0,3.4-1.8,4.2-3.8,4.2c-0.5,0-0.8,0-1.3,0V400.1z"/>
	<path d="M287.2,402.5h-2.7l-0.5-3h-3.2l-0.5,3H278l2.7-16.8h3.9L287.2,402.5z M281.2,397.2h2.5l-1.2-8.5h0L281.2,397.2z"/>
	<path d="M292,389.7c0-2.7,1.4-4.2,4-4.2s4,1.5,4,4.2v8.7c0,2.7-1.4,4.2-4,4.2s-4-1.5-4-4.2V389.7z M294.6,398.6
		c0,1.2,0.5,1.7,1.4,1.7c0.8,0,1.4-0.5,1.4-1.7v-9.1c0-1.2-0.5-1.7-1.4-1.7c-0.8,0-1.4,0.5-1.4,1.7V398.6z"/>
	<path d="M305.2,389.7c0-2.7,1.4-4.2,4-4.2s4,1.5,4,4.2v8.7c0,0.9-0.2,1.7-0.5,2.4c0.1,0.3,0.3,0.4,0.7,0.4h0.2v2.4h-0.4
		c-1.2,0-1.9-0.4-2.3-1.2c-0.5,0.2-1.2,0.3-1.8,0.3c-2.6,0-4-1.5-4-4.2V389.7z M307.8,398.6c0,1.2,0.5,1.7,1.4,1.7
		c0.8,0,1.4-0.5,1.4-1.7v-9.1c0-1.2-0.5-1.7-1.4-1.7c-0.8,0-1.4,0.5-1.4,1.7V398.6z"/>
	<path d="M317.4,385.7v13c0,1.2,0.5,1.6,1.4,1.6c0.8,0,1.4-0.4,1.4-1.6v-13h2.5v12.8c0,2.7-1.3,4.2-3.9,4.2s-3.9-1.5-3.9-4.2v-12.8
		H317.4z"/>
	<path d="M333,402.5h-2.7l-0.5-3h-3.2l-0.5,3h-2.4l2.7-16.8h3.9L333,402.5z M330.4,382.3l1.3,0.9c-0.4,1.1-1.1,1.6-2,1.6
		c-0.4,0-0.7-0.1-1.3-0.3c-0.4-0.2-0.6-0.3-0.9-0.3c-0.5,0-0.8,0.2-1,0.7l-1.3-0.9c0.4-1.1,1.1-1.6,2-1.6c0.4,0,0.8,0.1,1.3,0.3
		c0.4,0.2,0.6,0.3,0.9,0.3C329.9,383,330.1,382.8,330.4,382.3z M327,397.2h2.5l-1.2-8.5h0L327,397.2z"/>
	<path d="M334,389.7c0-2.7,1.4-4.2,4-4.2s4,1.5,4,4.2v8.7c0,2.7-1.4,4.2-4,4.2s-4-1.5-4-4.2V389.7z M336.6,398.6
		c0,1.2,0.5,1.7,1.4,1.7c0.8,0,1.4-0.5,1.4-1.7v-9.1c0-1.2-0.5-1.7-1.4-1.7c-0.8,0-1.4,0.5-1.4,1.7V398.6z"/>
	<path d="M347.4,385.7h2.6v14.4h4.3v2.4h-7V385.7z"/>
	<path d="M355.4,389.7c0-2.7,1.4-4.2,4-4.2s4,1.5,4,4.2v8.7c0,2.7-1.4,4.2-4,4.2s-4-1.5-4-4.2V389.7z M358,398.6
		c0,1.2,0.5,1.7,1.4,1.7c0.8,0,1.4-0.5,1.4-1.7v-9.1c0-1.2-0.5-1.7-1.4-1.7c-0.8,0-1.4,0.5-1.4,1.7V398.6z"/>
	<path d="M367.5,390.3L367.5,390.3l0,12.2h-2.4v-16.8h3.3l2.7,10.1h0v-10.1h2.4v16.8h-2.7L367.5,390.3z"/>
	<path d="M379.3,393.1h3.7v5.3c0,2.7-1.3,4.2-3.9,4.2c-2.6,0-3.9-1.5-3.9-4.2v-8.7c0-2.7,1.3-4.2,3.9-4.2c2.6,0,3.9,1.5,3.9,4.2v1.6
		h-2.5v-1.8c0-1.2-0.5-1.7-1.4-1.7c-0.8,0-1.4,0.5-1.4,1.7v9.1c0,1.2,0.5,1.6,1.4,1.6c0.8,0,1.4-0.4,1.4-1.6v-3.1h-1.2V393.1z"/>
	<path d="M387.3,392.8h3.6v2.4h-3.6v4.9h4.6v2.4h-7.2v-16.8h7.2v2.4h-4.6V392.8z"/>
	<path d="M400.8,385.5c2.6,0,3.9,1.5,3.9,4.2v0.5h-2.5v-0.7c0-1.2-0.5-1.7-1.3-1.7c-0.8,0-1.3,0.5-1.3,1.7c0,1.2,0.5,2.1,2.3,3.6
		c2.2,1.9,2.9,3.3,2.9,5.3c0,2.7-1.3,4.2-3.9,4.2c-2.6,0-3.9-1.5-3.9-4.2v-1h2.5v1.2c0,1.2,0.5,1.6,1.4,1.6c0.8,0,1.4-0.4,1.4-1.6
		c0-1.2-0.5-2.1-2.3-3.6c-2.2-1.9-2.9-3.3-2.9-5.3C396.9,387,398.2,385.5,400.8,385.5z"/>
	<path d="M408.7,385.7v13c0,1.2,0.5,1.6,1.4,1.6s1.4-0.4,1.4-1.6v-13h2.5v12.8c0,2.7-1.3,4.2-3.9,4.2s-3.9-1.5-3.9-4.2v-12.8H408.7z
		"/>
	<path d="M424.3,402.5h-2.7l-0.5-3h-3.2l-0.5,3h-2.4l2.7-16.8h3.9L424.3,402.5z M418.3,397.2h2.5l-1.2-8.5h0L418.3,397.2z"/>
	<path d="M434.8,397.6L434.8,397.6l1.8-11.9h3.7v16.8h-2.5v-12h0l-1.8,12h-2.5l-1.9-11.9h0v11.9h-2.3v-16.8h3.7L434.8,397.6z"/>
	<path d="M444.9,392.8h3.6v2.4h-3.6v4.9h4.6v2.4h-7.2v-16.8h7.2v2.4h-4.6V392.8z"/>
	<path d="M456.6,397.6L456.6,397.6l1.8-11.9h3.7v16.8h-2.5v-12h0l-1.8,12h-2.5l-1.9-11.9h0v11.9H451v-16.8h3.7L456.6,397.6z"/>
	<path d="M463.8,389.7c0-2.7,1.4-4.2,4-4.2c2.6,0,4,1.5,4,4.2v8.7c0,2.7-1.4,4.2-4,4.2c-2.6,0-4-1.5-4-4.2V389.7z M470.7,382.1
		l-2.4,2.7h-1.8l1.6-2.7H470.7z M466.5,398.6c0,1.2,0.5,1.7,1.4,1.7c0.8,0,1.4-0.5,1.4-1.7v-9.1c0-1.2-0.5-1.7-1.4-1.7
		c-0.8,0-1.4,0.5-1.4,1.7V398.6z"/>
	<path d="M479.1,402.5c-0.1-0.4-0.2-0.7-0.2-2.1v-2.6c0-1.6-0.5-2.1-1.7-2.1h-0.9v6.8h-2.6v-16.8h4c2.7,0,3.9,1.3,3.9,3.9v1.3
		c0,1.7-0.6,2.8-1.7,3.4v0c1.3,0.6,1.8,1.8,1.8,3.6v2.6c0,0.8,0,1.4,0.3,2H479.1z M476.2,388.1v5.2h1c1,0,1.6-0.4,1.6-1.8v-1.7
		c0-1.2-0.4-1.7-1.3-1.7H476.2z"/>
	<path d="M483.2,385.7h2.6v16.8h-2.6V385.7z"/>
	<path d="M496.3,402.5h-2.7l-0.5-3h-3.2l-0.5,3h-2.4l2.7-16.8h3.9L496.3,402.5z M490.3,397.2h2.5l-1.2-8.5h0L490.3,397.2z"/>
	<path d="M509.1,389.9v2.2c0,2.7-1.3,4.2-3.9,4.2h-1.2v6.3h-2.6v-16.8h3.9C507.8,385.7,509.1,387.2,509.1,389.9z M503.9,388.1v5.7
		h1.2c0.8,0,1.3-0.4,1.3-1.6v-2.5c0-1.2-0.5-1.6-1.3-1.6H503.9z"/>
	<path d="M510.1,389.7c0-2.7,1.4-4.2,4-4.2c2.6,0,4,1.5,4,4.2v8.7c0,2.7-1.4,4.2-4,4.2c-2.6,0-4-1.5-4-4.2V389.7z M512.7,398.6
		c0,1.2,0.5,1.7,1.4,1.7c0.8,0,1.4-0.5,1.4-1.7v-9.1c0-1.2-0.5-1.7-1.4-1.7c-0.8,0-1.4,0.5-1.4,1.7V398.6z"/>
	<path d="M519.8,385.7h4.2c2.6,0,3.9,1.5,3.9,4.2v8.5c0,2.7-1.3,4.2-3.9,4.2h-4.2V385.7z M522.4,388.1v12h1.5c0.8,0,1.3-0.4,1.3-1.6
		v-8.7c0-1.2-0.5-1.6-1.3-1.6H522.4z"/>
	<path d="M532.2,392.8h3.6v2.4h-3.6v4.9h4.6v2.4h-7.2v-16.8h7.2v2.4h-4.6V392.8z"/>
	<path d="M541.4,385.7h8.2v2.4h-2.8v14.4h-2.6v-14.4h-2.8V385.7z"/>
	<path d="M553.3,392.8h3.6v2.4h-3.6v4.9h4.6v2.4h-7.2v-16.8h7.2v2.4h-4.6V392.8z"/>
	<path d="M563.2,385.7h2.6v14.4h4.3v2.4h-7V385.7z"/>
	<path d="M574,392.8h3.6v2.4H574v4.9h4.6v2.4h-7.2v-16.8h7.2v2.4H574V392.8z"/>
	<path d="M584.2,399.4L584.2,399.4l2-13.7h2.4l-2.6,16.8h-3.9l-2.6-16.8h2.7L584.2,399.4z"/>
	<path d="M597.8,402.5h-2.7l-0.5-3h-3.2l-0.5,3h-2.4l2.7-16.8h3.9L597.8,402.5z M591.8,397.2h2.5l-1.2-8.5h0L591.8,397.2z"/>
	<path d="M604.5,402.5c-0.1-0.4-0.2-0.7-0.2-2.1v-2.6c0-1.6-0.5-2.1-1.7-2.1h-0.9v6.8H599v-16.8h4c2.7,0,3.9,1.3,3.9,3.9v1.3
		c0,1.7-0.6,2.8-1.7,3.4v0c1.3,0.6,1.8,1.8,1.8,3.6v2.6c0,0.8,0,1.4,0.3,2H604.5z M601.7,388.1v5.2h1c1,0,1.6-0.4,1.6-1.8v-1.7
		c0-1.2-0.4-1.7-1.3-1.7H601.7z"/>
	<path d="M611.2,400v2.5h-2.5V400H611.2z"/>
	<path d="M445.2,454.4v3.6c0,4.5-2.2,6.9-6.6,6.9h-2.1v10.5h-4.4v-28h6.5C443,447.5,445.2,449.9,445.2,454.4z M436.5,451.5v9.5h2.1
		c1.4,0,2.2-0.6,2.2-2.6v-4.2c0-2-0.8-2.6-2.2-2.6H436.5z"/>
	<path d="M456.4,475.5c-0.2-0.7-0.4-1.2-0.4-3.4v-4.4c0-2.6-0.9-3.6-2.9-3.6h-1.5v11.4h-4.4v-28h6.6c4.6,0,6.5,2.1,6.5,6.4v2.2
		c0,2.9-0.9,4.7-2.9,5.6v0.1c2.2,0.9,2.9,3,2.9,5.9v4.3c0,1.4,0,2.4,0.5,3.4H456.4z M451.6,451.5v8.6h1.7c1.6,0,2.6-0.7,2.6-3v-2.8
		c0-2-0.7-2.9-2.2-2.9H451.6z"/>
	<path d="M462.9,454.2c0-4.5,2.4-7,6.7-7s6.7,2.6,6.7,7v14.6c0,4.5-2.4,7-6.7,7s-6.7-2.6-6.7-7V454.2z M467.3,469.1
		c0,2,0.9,2.8,2.3,2.8c1.4,0,2.3-0.8,2.3-2.8v-15.1c0-2-0.9-2.8-2.3-2.8c-1.4,0-2.3,0.8-2.3,2.8V469.1z"/>
	<path d="M483.1,455.2L483.1,455.2l-0.1,20.3h-4v-28h5.5l4.4,16.8h0.1v-16.8h3.9v28h-4.5L483.1,455.2z"/>
	<path d="M494.9,447.5h13.6v4h-4.6v24h-4.4v-24h-4.6V447.5z"/>
	<path d="M510.1,454.2c0-4.5,2.4-7,6.7-7s6.7,2.6,6.7,7v14.6c0,4.5-2.4,7-6.7,7s-6.7-2.6-6.7-7V454.2z M514.5,469.1
		c0,2,0.9,2.8,2.3,2.8c1.4,0,2.3-0.8,2.3-2.8v-15.1c0-2-0.9-2.8-2.3-2.8c-1.4,0-2.3,0.8-2.3,2.8V469.1z"/>
	<path d="M545.5,454.4v3.6c0,4.5-2.2,6.9-6.6,6.9h-2.1v10.5h-4.4v-28h6.5C543.4,447.5,545.5,449.9,545.5,454.4z M536.9,451.5v9.5
		h2.1c1.4,0,2.2-0.6,2.2-2.6v-4.2c0-2-0.8-2.6-2.2-2.6H536.9z"/>
	<path d="M561.3,475.5h-4.4l-0.8-5.1h-5.4l-0.8,5.1h-4l4.5-28h6.4L561.3,475.5z M551.3,466.6h4.2l-2.1-14.2h-0.1L551.3,466.6z"/>
	<path d="M572.5,475.5c-0.2-0.7-0.4-1.2-0.4-3.4v-4.4c0-2.6-0.9-3.6-2.9-3.6h-1.5v11.4h-4.4v-28h6.6c4.6,0,6.5,2.1,6.5,6.4v2.2
		c0,2.9-0.9,4.7-2.9,5.6v0.1c2.2,0.9,2.9,3,2.9,5.9v4.3c0,1.4,0,2.4,0.5,3.4H572.5z M567.7,451.5v8.6h1.7c1.6,0,2.6-0.7,2.6-3v-2.8
		c0-2-0.7-2.9-2.2-2.9H567.7z"/>
	<path d="M593.7,475.5h-4.4l-0.8-5.1h-5.4l-0.8,5.1h-4l4.5-28h6.4L593.7,475.5z M583.6,466.6h4.2l-2.1-14.2h-0.1L583.6,466.6z"/>
	<path d="M614.7,465.1v3.7c0,4.5-2.2,7-6.6,7s-6.6-2.6-6.6-7v-14.6c0-4.5,2.2-7,6.6-7s6.6,2.6,6.6,7v2.7h-4.2v-3
		c0-2-0.9-2.8-2.3-2.8c-1.4,0-2.3,0.8-2.3,2.8v15.1c0,2,0.9,2.7,2.3,2.7c1.4,0,2.3-0.7,2.3-2.7v-4H614.7z"/>
	<path d="M617,454.2c0-4.5,2.4-7,6.7-7s6.7,2.6,6.7,7v14.6c0,4.5-2.4,7-6.7,7s-6.7-2.6-6.7-7V454.2z M621.4,469.1
		c0,2,0.9,2.8,2.3,2.8c1.4,0,2.3-0.8,2.3-2.8v-15.1c0-2-0.9-2.8-2.3-2.8c-1.4,0-2.3,0.8-2.3,2.8V469.1z"/>
	<path d="M642.5,467.4L642.5,467.4l3-19.9h6.1v28h-4.2v-20.1h-0.1l-3,20.1h-4.2l-3.2-19.8H637v19.8h-3.8v-28h6.1L642.5,467.4z"/>
	<path d="M659.2,459.3h6v4h-6v8.2h7.6v4h-12v-28h12v4h-7.6V459.3z"/>
	<path d="M682.3,465.1v3.7c0,4.2-2,6.7-5.7,7v1.3c2,0,3,0.5,3,1.9c0,2.2-1.7,2.4-4,2.4c-2.2,0-3.8-0.5-3.8-2.3v-0.4h3v0.3
		c0,0.6,0.4,0.8,0.9,0.8c0.7,0,1-0.3,1-1c0-0.8-0.5-1-1.4-1h-0.4v-2c-3.6-0.4-5.5-2.8-5.5-7v-14.6c0-4.5,2.2-7,6.6-7s6.6,2.6,6.6,7
		v2.7h-4.2v-3c0-2-0.9-2.8-2.3-2.8c-1.4,0-2.3,0.8-2.3,2.8v15.1c0,2,0.9,2.7,2.3,2.7c1.4,0,2.3-0.7,2.3-2.7v-4H682.3z"/>
	<path d="M699.2,475.5h-4.4l-0.8-5.1h-5.4l-0.8,5.1h-4l4.5-28h6.4L699.2,475.5z M689.2,466.6h4.2l-2.1-14.2h-0.1L689.2,466.6z"/>
	<path d="M710.5,475.5c-0.2-0.7-0.4-1.2-0.4-3.4v-4.4c0-2.6-0.9-3.6-2.9-3.6h-1.5v11.4h-4.4v-28h6.6c4.6,0,6.5,2.1,6.5,6.4v2.2
		c0,2.9-0.9,4.7-2.9,5.6v0.1c2.2,0.9,2.9,3,2.9,5.9v4.3c0,1.4,0,2.4,0.5,3.4H710.5z M705.7,451.5v8.6h1.7c1.6,0,2.6-0.7,2.6-3v-2.8
		c0-2-0.7-2.9-2.2-2.9H705.7z"/>
	<path d="M720.5,469.3c-0.2-0.5-0.2-1-0.2-1.7c0-2.2,0.6-3.9,2.3-6.3c2-2.8,2.5-4.6,2.5-7.3c0-2-0.8-2.8-2.2-2.8
		c-1.4,0-2.2,0.8-2.2,2.8v3h-4.2v-2.8c0-4.5,2.2-7,6.5-7s6.5,2.6,6.5,7c0,3-0.8,5.2-3,8c-1.7,2.3-2.2,3.7-2.2,5.5c0,0.5,0,1,0.2,1.6
		H720.5z M724.6,471.3v4.2h-4.2v-4.2H724.6z"/>
</g>
<g>
	<g>
		
			<image style="overflow:visible;enable-background:new    ;" width="1908" height="596" xlink:href="C7D0C67E.png"  transform="matrix(0.149 0 0 0.1491 38.8728 502.5)">
		</image>
	</g>
	<rect x="65.8" y="520.9" class="st7" width="239.5" height="43.9"/>
</g>
<g>
	<g>
		
			<image style="overflow:visible;enable-background:new    ;" width="1908" height="596" xlink:href="C7D0C67C.png"  transform="matrix(0.149 0 0 0.1491 502.9777 502.5)">
		</image>
	</g>
	<rect x="529.9" y="520.9" class="st7" width="239.5" height="43.9"/>
</g>
<g>
	
		<image style="overflow:visible;enable-background:new    ;" width="679" height="733" xlink:href="C7D0C67B.png"  transform="matrix(0.1415 0 0 0.1417 497.6409 490.9398)">
	</image>
</g>
<g>
	<path class="st8" d="M94.7,518.7c-1-0.2-1.7-0.5-1.9-0.8c-0.5,0.8-2,1.6-4.5,2.5c-2.1,0.8-3.4,2-3.7,3.4c0.5,0.5,1.4,0.9,2.8,1.4
		c1.4,0.5,2.4,1,3,1.5c2,1.9,3.2,5.2,3.7,10.1l0.5,6.4c0.2,2.5,0.6,4.7,1.1,6.6c0.2,0.7,0.5,1.6,1,2.7l0.8,2
		c0.2,2.2-0.2,4.5-0.8,6.9c-0.5,1.6-1.2,3.4-2.2,5.6c1.9-1.1,3.7-3.1,5.4-6c2.3-4,3.9-6.3,4.5-7c0.3-2.3,0.2-4.3-0.4-6l-2-4.7
		c-0.8-2.2-1.4-6.8-2-13.6c-0.5-5.4-1.6-8.6-3.2-10C96.5,519.3,95.7,519,94.7,518.7 M93.9,516.7l3.2,2.1c1.4,0.8,2.2,1.7,2.7,2.6
		c0.6,1.3,1.1,3.5,1.3,6.7l0.5,7.4c0.2,2.2,1.1,5.4,2.6,9.5c1.1,3.4,1.7,6,1.4,7.6c-0.2,1.4-1.4,4-3.6,7.6c-2.1,3.5-3.9,5.9-5.2,7.1
		l-2.5,1.5l-2.7,1.5l-2.4,1.6l-2.3,1.3l-2.9-0.3l-1.8-1.5c-1.9,1.5-5.3,2.1-10.1,1.9c-4.8-0.2-8.3-1.1-10.9-2.4
		c-1.5-0.9-3-2.6-4.5-5.2c-1.5-2.6-2.7-4.2-3.7-4.9c-0.4-12.2-0.4-20.5,0-24.7c0.8-9.3,3.1-15.6,7-19c1.7-0.1,4-0.8,6.9-2.3
		c2.9-1.5,5.3-2.3,7-2.4l3.8,0.5c1.7,0.5,2.9,0.7,3.8,0.7l4.5-1.1c2-0.5,3.4-0.4,4.3,0.5c0.8,0,1.3,0.4,1.8,1.1L93.9,516.7
		 M91,530.2l-2-2.4l-1.5-1.8c-0.9-0.4-3.2-0.7-6.9-0.9l-7.1,0.3c-2.8,1.2-4.2,3.8-4.4,7.7c-0.1,1.1,0,3,0.2,5.6l0.2,6.2
		c0,1.1-0.3,2.9-0.8,5.5c-0.4,2.1-0.5,3.5-0.3,4.5c0.5,2.7,3,6.1,7.6,10.3c4.7,4.4,8.4,6.4,11,6.2c2.1-0.2,4.2-1.6,6-4.2
		c2-2.9,3.1-6.3,3.3-9.9c0-1.2-0.3-3.1-1.1-5.7l-1.4-5.6l-0.8-9C92.8,534.2,92.1,531.9,91,530.2 M60.1,519.6l-0.4,0.8l0.4-0.2l2.8-1
		l3-0.8c0.5,0,1.2,0.2,2,0.8c0.6,0.5,1.4,0.6,2.1,0.5c2.3-2.4,6.3-4,11.6-4.7c-2-0.9-4.4-1.4-7.3-1.2c-3.1,0.2-5.1,0.9-6.1,2.4
		l1.3,0.2c0.5,0.2,0.6,0.5,0.5,1c-2-0.1-3.6,0-4.7,0.1l-4.1,0.5C61.3,518.7,60.9,519.4,60.1,519.6 M63.1,520.2
		c-1,0.2-2.3,0.9-4.1,2.2c-1.7,1.1-2.6,2-2.9,2.5c-1,1.6-1.6,4.1-1.7,7.5c-0.1,2-0.1,5.4,0,10.2l-0.7,8.6c-0.2,3.2-0.2,5.4,0.1,6.7
		c0.2,1.2,0.8,2.3,1.4,3.4l2,2.5c1.6,2.2,2.8,3.7,3.6,4.5c1.6,1.7,2.9,2.1,3.9,1.4c-3.9-2.1-6.6-7-8.2-15.1
		c-1.2-6.3-1.6-13.1-1.1-20.3c0.2-2.3,1.1-4.8,2.8-7.6c1.7-2.6,3.3-4.2,4.8-4.8l3-0.2c1.2,0.1,2.1-0.3,2.7-0.9L66,520L63.1,520.2
		 M57.2,530.7c-0.1,6.6-0.1,11.7,0,15.4c0.2,5.4,0.5,10.2,1.2,14.2c2.6,3.7,4.8,6.4,6.6,8.1c3.2,3,6.4,4.4,9.7,4.3l2.7-0.5
		c1.1-0.4,1.9-1,2.5-1.8l-3.2-3.4l-4-3.5c-3.3-3.1-5.2-6-5.5-8.5c-0.2-0.8,0-2.4,0.4-4.7c0.5-2.6,0.8-4.6,0.8-6l-0.5-6.7
		c-0.2-2.6-0.3-4.5-0.1-5.7c0.2-1.4,1-3,2.1-4.6l2.6-3.7c-3.2-1.8-6.3-1.6-9.4,0.4C60.8,525.5,58.9,527.8,57.2,530.7 M81.7,522
		c-1,0.9-2.4,1.1-4.4,0.7c-1.4-0.3-2.8-0.9-4.4-1.8c-0.2-0.5,0.2-1.1,0.8-1.7c0.5-0.6,0.5-1-0.2-1.3c-1.4,0.9-1.9,1.8-1.7,2.8
		c0.2,0.8,0.8,1.5,2.1,2.1c1.1,0.5,2.6,0.8,4.2,0.9l4.2-0.5l-0.2,0.7l-0.4,0.5c1,0.2,1.4-0.2,1.1-0.9
		C82.5,522.6,82.1,522.1,81.7,522 M80.9,519.3c-0.8-1-1.7-1.3-2.7-0.9l-0.6,1.2c-0.3,0.5-0.5,0.9-0.5,1.2h5.2
		c-0.1-0.3,0-0.8,0.2-1.2c0.2-0.3,0.1-0.5-0.2-0.6c-0.2,0.7-0.5,1-0.7,1L80.9,519.3 M84.2,521c0.6-0.2,0.9-0.5,1-0.8
		c-0.8-0.4-1.4-0.2-1.9,0.6c-0.6,0.7-0.5,1.1,0.2,1.1C83.4,521.5,83.6,521.1,84.2,521 M86.7,518.5c2,0.5,3.9,0,5.5-1.3
		c0-2-1.4-3.2-4.2-3.5c-2.9-0.4-4.8,0.2-5.7,1.8C83.3,517.1,84.8,518.1,86.7,518.5 M76,520.3c0.2,0.4,0.3,0.4,0.5-0.2
		c0.1-0.5,0-0.8-0.2-1.3c-0.2-0.5-0.4-0.4-0.5,0.1C75.8,519.4,75.8,519.9,76,520.3"/>
	<path class="st9" d="M100,529.6c0.6,6.8,1.3,11.4,2,13.6l2,4.7c0.5,1.7,0.7,3.7,0.4,6c-0.7,0.7-2.2,3-4.5,7c-1.7,2.9-3.6,4.9-5.4,6
		c1-2.1,1.7-4,2.2-5.6c0.6-2.4,0.9-4.7,0.8-6.9l-0.8-2c-0.5-1.1-0.8-2-1-2.7c-0.5-1.8-0.8-4.1-1.1-6.6l-0.5-6.4
		c-0.5-4.9-1.7-8.2-3.7-10.1c-0.6-0.5-1.6-1.1-3-1.5c-1.4-0.5-2.3-0.9-2.8-1.4c0.3-1.4,1.6-2.5,3.7-3.4c2.4-0.9,3.9-1.8,4.5-2.5
		c0.2,0.3,0.9,0.6,1.9,0.8c1.1,0.3,1.8,0.6,2.2,0.9C98.4,521,99.5,524.2,100,529.6"/>
	<path class="st9" d="M93.1,537.1l0.8,9l1.4,5.6c0.8,2.6,1.1,4.4,1.1,5.7c-0.2,3.7-1.4,7-3.3,9.9c-1.9,2.6-3.9,4.1-6,4.2
		c-2.6,0.2-6.3-1.8-11-6.2c-4.6-4.2-7.1-7.6-7.6-10.3c-0.2-1-0.1-2.4,0.3-4.5c0.5-2.6,0.8-4.4,0.8-5.5l-0.2-6.2
		c-0.2-2.6-0.2-4.5-0.2-5.6c0.2-3.9,1.6-6.5,4.4-7.7l7.1-0.3c3.8,0.2,6,0.5,6.9,0.9l1.5,1.8l2,2.4C92.1,531.9,92.8,534.2,93.1,537.1
		"/>
	<path class="st9" d="M82.3,515.4c1-1.5,2.9-2.1,5.7-1.8c2.8,0.3,4.2,1.5,4.2,3.5c-1.7,1.3-3.5,1.8-5.5,1.3
		C84.8,518.1,83.3,517.1,82.3,515.4"/>
	<path class="st10" d="M83.5,522c-0.7-0.1-0.8-0.5-0.2-1.1c0.5-0.8,1.1-1,1.9-0.6c-0.1,0.3-0.4,0.6-1,0.8S83.4,521.5,83.5,522"/>
	<path class="st10" d="M82.3,519c0.3,0.2,0.4,0.3,0.2,0.6c-0.2,0.5-0.3,0.9-0.2,1.2h-5.2c0.1-0.3,0.2-0.8,0.5-1.2l0.6-1.2
		c1.1-0.4,2-0.1,2.7,0.9l0.7,0.7C81.8,520,82,519.7,82.3,519"/>
	<path class="st10" d="M82.8,523.4c0.2,0.8-0.2,1.1-1.1,0.9l0.4-0.5l0.2-0.7l-4.2,0.5c-1.6-0.2-3-0.5-4.2-0.9
		c-1.3-0.6-2-1.3-2.1-2.1c-0.2-0.9,0.4-1.8,1.7-2.8c0.7,0.3,0.8,0.7,0.2,1.3c-0.7,0.6-1,1.1-0.8,1.7c1.6,0.9,3,1.5,4.4,1.8
		c2,0.5,3.4,0.2,4.4-0.7C82.1,522.1,82.5,522.6,82.8,523.4"/>
	<path class="st9" d="M63,524.1c3-2,6.1-2.1,9.4-0.4l-2.6,3.7c-1.1,1.6-1.9,3.2-2.1,4.6c-0.2,1.1-0.2,3.1,0.1,5.7l0.5,6.7
		c0,1.4-0.2,3.4-0.8,6c-0.4,2.3-0.5,3.8-0.4,4.7c0.3,2.5,2.2,5.4,5.5,8.5l4,3.5l3.2,3.4c-0.6,0.8-1.4,1.4-2.5,1.8l-2.7,0.5
		c-3.2,0.2-6.4-1.3-9.7-4.3c-1.8-1.7-4-4.4-6.6-8.1c-0.7-4-1.1-8.7-1.2-14.2c-0.1-3.7-0.1-8.8,0-15.4
		C58.9,527.8,60.8,525.5,63,524.1"/>
	<path class="st10" d="M75.9,519c0.1-0.5,0.2-0.5,0.5-0.1c0.2,0.5,0.2,0.8,0.2,1.3c-0.2,0.5-0.3,0.5-0.5,0.2
		C75.8,519.9,75.8,519.4,75.9,519"/>
	<path class="st9" d="M65.4,517.3c1.1-0.1,2.7-0.2,4.7-0.1c0.2-0.5,0-0.8-0.5-1l-1.3-0.2c1-1.5,3-2.3,6.1-2.4
		c2.9-0.2,5.3,0.3,7.3,1.2c-5.4,0.8-9.3,2.4-11.6,4.7c-0.8,0.2-1.5,0-2.1-0.5c-0.8-0.5-1.4-0.8-2-0.8l-3,0.8l-2.8,1l-0.4,0.2
		l0.4-0.8c0.8-0.2,1.1-0.8,1.1-1.8L65.4,517.3"/>
	<path class="st9" d="M66,520l2.8,0.8c-0.6,0.6-1.5,1-2.7,0.9l-3,0.2c-1.5,0.6-3.2,2.2-4.8,4.8c-1.7,2.8-2.6,5.3-2.8,7.6
		c-0.5,7.3-0.1,14,1.1,20.3c1.5,8,4.3,13,8.2,15.1c-1,0.7-2.3,0.3-3.9-1.4c-0.8-0.8-2-2.3-3.6-4.5l-2-2.5c-0.7-1.1-1.2-2.1-1.4-3.4
		c-0.3-1.3-0.3-3.5-0.1-6.7l0.7-8.6c-0.1-4.8-0.1-8.2,0-10.2c0.2-3.4,0.8-5.9,1.7-7.5c0.3-0.5,1.3-1.4,2.9-2.5
		c1.7-1.3,3.1-2.1,4.1-2.2L66,520"/>
</g>
<g>
	<g class="st4">
		<path class="st11" d="M604.3,546.6v4c0,4.8-2.4,7.5-7,7.5s-7-2.7-7-7.5V535c0-4.8,2.4-7.5,7-7.5s7,2.7,7,7.5v2.9h-4.4v-3.2
			c0-2.1-0.9-2.9-2.4-2.9s-2.4,0.8-2.4,2.9v16.1c0,2.1,0.9,2.9,2.4,2.9s2.4-0.8,2.4-2.9v-4.3H604.3z"/>
		<path class="st11" d="M606.8,535c0-4.8,2.5-7.5,7.1-7.5c4.6,0,7.1,2.7,7.1,7.5v15.5c0,4.8-2.5,7.5-7.1,7.5c-4.6,0-7.1-2.7-7.1-7.5
			V535z M611.5,550.8c0,2.1,0.9,2.9,2.4,2.9c1.5,0,2.4-0.8,2.4-2.9v-16.1c0-2.1-0.9-2.9-2.4-2.9c-1.5,0-2.4,0.8-2.4,2.9V550.8z"/>
		<path class="st11" d="M633.9,549.1L633.9,549.1l3.2-21.2h6.5v29.8h-4.4v-21.4h-0.1l-3.2,21.4h-4.4l-3.4-21.1h-0.1v21.1H624v-29.8
			h6.5L633.9,549.1z"/>
		<path class="st11" d="M651.8,540.5h6.4v4.3h-6.4v8.7h8.1v4.3h-12.8v-29.8h12.8v4.3h-8.1V540.5z"/>
		<path class="st11" d="M676.4,546.6v4c0,4.4-2.1,7.1-6,7.5v1.4c2.1,0,3.2,0.5,3.2,2c0,2.3-1.8,2.6-4.3,2.6c-2.3,0-4.1-0.5-4.1-2.5
			v-0.4h3.2v0.3c0,0.6,0.5,0.9,0.9,0.9c0.7,0,1.1-0.3,1.1-1c0-0.8-0.5-1.1-1.5-1.1h-0.4V558c-3.9-0.4-5.9-3-5.9-7.4V535
			c0-4.8,2.4-7.5,7-7.5c4.6,0,7,2.7,7,7.5v2.9h-4.4v-3.2c0-2.1-0.9-2.9-2.4-2.9c-1.5,0-2.4,0.8-2.4,2.9v16.1c0,2.1,0.9,2.9,2.4,2.9
			c1.5,0,2.4-0.8,2.4-2.9v-4.3H676.4z"/>
		<path class="st11" d="M694.4,557.7h-4.7l-0.8-5.4h-5.7l-0.8,5.4H678l4.8-29.8h6.9L694.4,557.7z M683.7,548.3h4.5l-2.2-15.1h-0.1
			L683.7,548.3z"/>
		<path class="st11" d="M706.3,557.7c-0.3-0.8-0.4-1.2-0.4-3.7v-4.7c0-2.8-0.9-3.8-3.1-3.8h-1.6v12.1h-4.7v-29.8h7.1
			c4.9,0,6.9,2.3,6.9,6.9v2.3c0,3.1-1,5-3.1,6v0.1c2.3,1,3.1,3.2,3.1,6.3v4.6c0,1.4,0,2.5,0.5,3.6H706.3z M701.2,532.2v9.2h1.8
			c1.7,0,2.8-0.8,2.8-3.2v-2.9c0-2.1-0.7-3.1-2.4-3.1H701.2z"/>
	</g>
	<g class="st4">
		<path class="st3" d="M606.1,546.6v4c0,4.8-2.4,7.5-7,7.5c-4.6,0-7-2.7-7-7.5V535c0-4.8,2.4-7.5,7-7.5c4.6,0,7,2.7,7,7.5v2.9h-4.4
			v-3.2c0-2.1-0.9-2.9-2.4-2.9c-1.5,0-2.4,0.8-2.4,2.9v16.1c0,2.1,0.9,2.9,2.4,2.9c1.5,0,2.4-0.8,2.4-2.9v-4.3H606.1z"/>
		<path class="st3" d="M608.6,535c0-4.8,2.5-7.5,7.1-7.5s7.1,2.7,7.1,7.5v15.5c0,4.8-2.5,7.5-7.1,7.5s-7.1-2.7-7.1-7.5V535z
			 M613.3,550.8c0,2.1,0.9,2.9,2.4,2.9s2.4-0.8,2.4-2.9v-16.1c0-2.1-0.9-2.9-2.4-2.9s-2.4,0.8-2.4,2.9V550.8z"/>
		<path class="st3" d="M635.7,549.1L635.7,549.1l3.2-21.2h6.5v29.8h-4.4v-21.4H641l-3.2,21.4h-4.4l-3.4-21.1h-0.1v21.1h-4.1v-29.8
			h6.5L635.7,549.1z"/>
		<path class="st3" d="M653.6,540.5h6.4v4.3h-6.4v8.7h8.1v4.3h-12.8v-29.8h12.8v4.3h-8.1V540.5z"/>
		<path class="st3" d="M678.2,546.6v4c0,4.4-2.1,7.1-6,7.5v1.4c2.1,0,3.2,0.5,3.2,2c0,2.3-1.8,2.6-4.3,2.6c-2.3,0-4.1-0.5-4.1-2.5
			v-0.4h3.2v0.3c0,0.6,0.5,0.9,0.9,0.9c0.7,0,1.1-0.3,1.1-1c0-0.8-0.5-1.1-1.5-1.1h-0.4V558c-3.9-0.4-5.9-3-5.9-7.4V535
			c0-4.8,2.4-7.5,7-7.5s7,2.7,7,7.5v2.9h-4.4v-3.2c0-2.1-0.9-2.9-2.4-2.9s-2.4,0.8-2.4,2.9v16.1c0,2.1,0.9,2.9,2.4,2.9
			s2.4-0.8,2.4-2.9v-4.3H678.2z"/>
		<path class="st3" d="M696.2,557.7h-4.7l-0.8-5.4h-5.7l-0.8,5.4h-4.3l4.8-29.8h6.9L696.2,557.7z M685.5,548.3h4.5l-2.2-15.1h-0.1
			L685.5,548.3z"/>
		<path class="st3" d="M708.1,557.7c-0.3-0.8-0.4-1.2-0.4-3.7v-4.7c0-2.8-0.9-3.8-3.1-3.8H703v12.1h-4.7v-29.8h7.1
			c4.9,0,6.9,2.3,6.9,6.9v2.3c0,3.1-1,5-3.1,6v0.1c2.3,1,3.1,3.2,3.1,6.3v4.6c0,1.4,0,2.5,0.5,3.6H708.1z M703,532.2v9.2h1.8
			c1.7,0,2.8-0.8,2.8-3.2v-2.9c0-2.1-0.7-3.1-2.4-3.1H703z"/>
	</g>
</g>
<g>
	<g class="st4">
		<path class="st11" d="M149.7,548.1v4c0,4.8-2.4,7.5-7,7.5s-7-2.7-7-7.5v-15.5c0-4.8,2.4-7.5,7-7.5s7,2.7,7,7.5v2.9h-4.4v-3.2
			c0-2.1-0.9-2.9-2.4-2.9s-2.4,0.8-2.4,2.9v16.1c0,2.1,0.9,2.9,2.4,2.9s2.4-0.8,2.4-2.9v-4.3H149.7z"/>
		<path class="st11" d="M162.3,559.2c-0.3-0.8-0.4-1.2-0.4-3.7v-4.7c0-2.8-0.9-3.8-3.1-3.8h-1.6v12.1h-4.7v-29.8h7.1
			c4.9,0,6.9,2.3,6.9,6.9v2.3c0,3.1-1,5-3.1,6v0.1c2.3,1,3.1,3.2,3.1,6.3v4.6c0,1.4,0,2.5,0.5,3.6H162.3z M157.2,533.7v9.2h1.8
			c1.7,0,2.8-0.8,2.8-3.2v-2.9c0-2.1-0.7-3.1-2.4-3.1H157.2z"/>
		<path class="st11" d="M174.3,542h6.4v4.3h-6.4v8.7h8.1v4.3h-12.8v-29.8h12.8v4.3h-8.1V542z M181,523.1l-4.3,4.7h-3.2l2.9-4.7H181z
			"/>
		<path class="st11" d="M185.3,529.4h7.4c4.7,0,7,2.6,7,7.4v15.1c0,4.8-2.3,7.4-7,7.4h-7.4V529.4z M190,533.7V555h2.6
			c1.5,0,2.4-0.8,2.4-2.9v-15.5c0-2.1-0.9-2.9-2.4-2.9H190z"/>
		<path class="st11" d="M202.7,529.4h4.7v29.8h-4.7V529.4z"/>
		<path class="st11" d="M209.4,529.4h14.5v4.3H219v25.6h-4.7v-25.6h-4.9V529.4z"/>
		<path class="st11" d="M225.6,536.6c0-4.8,2.5-7.5,7.1-7.5c4.6,0,7.1,2.7,7.1,7.5v15.5c0,4.8-2.5,7.5-7.1,7.5
			c-4.6,0-7.1-2.7-7.1-7.5V536.6z M230.3,552.4c0,2.1,0.9,2.9,2.4,2.9c1.5,0,2.4-0.8,2.4-2.9v-16.1c0-2.1-0.9-2.9-2.4-2.9
			c-1.5,0-2.4,0.8-2.4,2.9V552.4z"/>
		<path class="st11" d="M249.1,529.1c4.6,0,6.9,2.7,6.9,7.5v0.9h-4.4v-1.2c0-2.1-0.9-2.9-2.3-2.9c-1.5,0-2.3,0.8-2.3,2.9
			c0,2.2,0.9,3.8,4,6.5c3.9,3.5,5.2,5.9,5.2,9.3c0,4.8-2.4,7.5-7,7.5s-7-2.7-7-7.5v-1.8h4.4v2.1c0,2.1,0.9,2.9,2.4,2.9
			c1.5,0,2.4-0.8,2.4-2.9c0-2.2-0.9-3.8-4-6.5c-3.9-3.4-5.2-5.9-5.2-9.3C242.2,531.8,244.6,529.1,249.1,529.1z"/>
	</g>
	<g class="st4">
		<path class="st3" d="M151.5,548.1v4c0,4.8-2.4,7.5-7,7.5c-4.6,0-7-2.7-7-7.5v-15.5c0-4.8,2.4-7.5,7-7.5c4.6,0,7,2.7,7,7.5v2.9H147
			v-3.2c0-2.1-0.9-2.9-2.4-2.9c-1.5,0-2.4,0.8-2.4,2.9v16.1c0,2.1,0.9,2.9,2.4,2.9c1.5,0,2.4-0.8,2.4-2.9v-4.3H151.5z"/>
		<path class="st3" d="M164.1,559.2c-0.3-0.8-0.4-1.2-0.4-3.7v-4.7c0-2.8-0.9-3.8-3.1-3.8H159v12.1h-4.7v-29.8h7.1
			c4.9,0,6.9,2.3,6.9,6.9v2.3c0,3.1-1,5-3.1,6v0.1c2.3,1,3.1,3.2,3.1,6.3v4.6c0,1.4,0,2.5,0.5,3.6H164.1z M159,533.7v9.2h1.8
			c1.7,0,2.8-0.8,2.8-3.2v-2.9c0-2.1-0.7-3.1-2.4-3.1H159z"/>
		<path class="st3" d="M176.1,542h6.4v4.3h-6.4v8.7h8.1v4.3h-12.8v-29.8h12.8v4.3h-8.1V542z M182.8,523.1l-4.3,4.7h-3.2l2.9-4.7
			H182.8z"/>
		<path class="st3" d="M187.1,529.4h7.4c4.7,0,7,2.6,7,7.4v15.1c0,4.8-2.3,7.4-7,7.4h-7.4V529.4z M191.8,533.7V555h2.6
			c1.5,0,2.4-0.8,2.4-2.9v-15.5c0-2.1-0.9-2.9-2.4-2.9H191.8z"/>
		<path class="st3" d="M204.5,529.4h4.7v29.8h-4.7V529.4z"/>
		<path class="st3" d="M211.2,529.4h14.5v4.3h-4.9v25.6h-4.7v-25.6h-4.9V529.4z"/>
		<path class="st3" d="M227.4,536.6c0-4.8,2.5-7.5,7.1-7.5s7.1,2.7,7.1,7.5v15.5c0,4.8-2.5,7.5-7.1,7.5s-7.1-2.7-7.1-7.5V536.6z
			 M232.1,552.4c0,2.1,0.9,2.9,2.4,2.9s2.4-0.8,2.4-2.9v-16.1c0-2.1-0.9-2.9-2.4-2.9s-2.4,0.8-2.4,2.9V552.4z"/>
		<path class="st3" d="M250.9,529.1c4.6,0,6.9,2.7,6.9,7.5v0.9h-4.4v-1.2c0-2.1-0.9-2.9-2.3-2.9s-2.3,0.8-2.3,2.9
			c0,2.2,0.9,3.8,4,6.5c3.9,3.5,5.2,5.9,5.2,9.3c0,4.8-2.4,7.5-7,7.5s-7-2.7-7-7.5v-1.8h4.4v2.1c0,2.1,0.9,2.9,2.4,2.9
			s2.4-0.8,2.4-2.9c0-2.2-0.9-3.8-4-6.5c-3.9-3.4-5.2-5.9-5.2-9.3C244,531.8,246.4,529.1,250.9,529.1z"/>
	</g>
</g>
</svg>
